%TF.GenerationSoftware,KiCad,Pcbnew,9.0.6*%
%TF.CreationDate,2026-02-10T16:03:34-08:00*%
%TF.ProjectId,flopper_one,666c6f70-7065-4725-9f6f-6e652e6b6963,rev?*%
%TF.SameCoordinates,Original*%
%TF.FileFunction,Copper,L2,Bot*%
%TF.FilePolarity,Positive*%
%FSLAX46Y46*%
G04 Gerber Fmt 4.6, Leading zero omitted, Abs format (unit mm)*
G04 Created by KiCad (PCBNEW 9.0.6) date 2026-02-10 16:03:34*
%MOMM*%
%LPD*%
G01*
G04 APERTURE LIST*
G04 Aperture macros list*
%AMRoundRect*
0 Rectangle with rounded corners*
0 $1 Rounding radius*
0 $2 $3 $4 $5 $6 $7 $8 $9 X,Y pos of 4 corners*
0 Add a 4 corners polygon primitive as box body*
4,1,4,$2,$3,$4,$5,$6,$7,$8,$9,$2,$3,0*
0 Add four circle primitives for the rounded corners*
1,1,$1+$1,$2,$3*
1,1,$1+$1,$4,$5*
1,1,$1+$1,$6,$7*
1,1,$1+$1,$8,$9*
0 Add four rect primitives between the rounded corners*
20,1,$1+$1,$2,$3,$4,$5,0*
20,1,$1+$1,$4,$5,$6,$7,0*
20,1,$1+$1,$6,$7,$8,$9,0*
20,1,$1+$1,$8,$9,$2,$3,0*%
G04 Aperture macros list end*
%TA.AperFunction,Conductor*%
%ADD10C,0.100000*%
%TD*%
%TA.AperFunction,Conductor*%
%ADD11C,0.200000*%
%TD*%
%TA.AperFunction,ComponentPad*%
%ADD12R,2.000000X2.000000*%
%TD*%
%TA.AperFunction,ComponentPad*%
%ADD13C,2.000000*%
%TD*%
%TA.AperFunction,HeatsinkPad*%
%ADD14C,0.500000*%
%TD*%
%TA.AperFunction,HeatsinkPad*%
%ADD15R,1.900000X2.900000*%
%TD*%
%TA.AperFunction,ComponentPad*%
%ADD16R,1.700000X1.700000*%
%TD*%
%TA.AperFunction,ComponentPad*%
%ADD17C,1.700000*%
%TD*%
%TA.AperFunction,ComponentPad*%
%ADD18O,3.500000X2.000000*%
%TD*%
%TA.AperFunction,ComponentPad*%
%ADD19C,1.600000*%
%TD*%
%TA.AperFunction,ComponentPad*%
%ADD20R,1.800000X1.800000*%
%TD*%
%TA.AperFunction,ComponentPad*%
%ADD21C,1.800000*%
%TD*%
%TA.AperFunction,SMDPad,CuDef*%
%ADD22RoundRect,0.750000X0.750000X-1.750000X0.750000X1.750000X-0.750000X1.750000X-0.750000X-1.750000X0*%
%TD*%
%TA.AperFunction,ComponentPad*%
%ADD23RoundRect,0.250000X0.750000X-0.750000X0.750000X0.750000X-0.750000X0.750000X-0.750000X-0.750000X0*%
%TD*%
%TA.AperFunction,ComponentPad*%
%ADD24RoundRect,0.250200X-0.649800X-0.649800X0.649800X-0.649800X0.649800X0.649800X-0.649800X0.649800X0*%
%TD*%
%TA.AperFunction,ComponentPad*%
%ADD25O,1.200000X1.600000*%
%TD*%
%TA.AperFunction,ComponentPad*%
%ADD26C,1.200000*%
%TD*%
%TA.AperFunction,ComponentPad*%
%ADD27RoundRect,0.250000X-0.750000X0.750000X-0.750000X-0.750000X0.750000X-0.750000X0.750000X0.750000X0*%
%TD*%
%TA.AperFunction,ViaPad*%
%ADD28C,0.600000*%
%TD*%
G04 APERTURE END LIST*
%TO.N,/BAT+*%
D10*
X81875000Y-42750000D02*
X85750000Y-42750000D01*
X85750000Y-46875000D01*
X81875000Y-46875000D01*
X81875000Y-42750000D01*
%TA.AperFunction,Conductor*%
G36*
X81875000Y-42750000D02*
G01*
X85750000Y-42750000D01*
X85750000Y-46875000D01*
X81875000Y-46875000D01*
X81875000Y-42750000D01*
G37*
%TD.AperFunction*%
%TO.N,GND*%
D11*
X87062500Y-43375000D02*
X91437500Y-43375000D01*
X91437500Y-47625000D01*
X87062500Y-47625000D01*
X87062500Y-43375000D01*
%TA.AperFunction,Conductor*%
G36*
X87062500Y-43375000D02*
G01*
X91437500Y-43375000D01*
X91437500Y-47625000D01*
X87062500Y-47625000D01*
X87062500Y-43375000D01*
G37*
%TD.AperFunction*%
%TD*%
D12*
%TO.P,U2,1,VIN*%
%TO.N,/CE*%
X74320000Y-59250000D03*
D13*
%TO.P,U2,2,GND*%
%TO.N,GND*%
X71780000Y-59250000D03*
%TO.P,U2,3,GPIO13*%
%TO.N,unconnected-(U2-GPIO13-Pad3)*%
X69240000Y-59250000D03*
%TO.P,U2,4,GPIO12*%
%TO.N,/P4*%
X66700000Y-59250000D03*
%TO.P,U2,5,GPIO14*%
%TO.N,/P1*%
X64160000Y-59250000D03*
%TO.P,U2,6,GPIO27*%
%TO.N,/P2*%
X61620000Y-59250000D03*
%TO.P,U2,7,GPIO26*%
%TO.N,/P3*%
X59080000Y-59250000D03*
%TO.P,U2,8,GPIO25*%
%TO.N,/P5*%
X56540000Y-59250000D03*
%TO.P,U2,9,GPIO33*%
%TO.N,unconnected-(U2-GPIO33-Pad9)*%
X54000000Y-59250000D03*
%TO.P,U2,10,GPIO32*%
%TO.N,unconnected-(U2-GPIO32-Pad10)*%
X51460000Y-59250000D03*
%TO.P,U2,11,GPIO35*%
%TO.N,unconnected-(U2-GPIO35-Pad11)*%
X48920000Y-59250000D03*
%TO.P,U2,12,GPIO34*%
%TO.N,unconnected-(U2-GPIO34-Pad12)*%
X46380000Y-59250000D03*
%TO.P,U2,13,GPIO39*%
%TO.N,unconnected-(U2-GPIO39-Pad13)*%
X43840000Y-59250000D03*
%TO.P,U2,14,GPIO36*%
%TO.N,unconnected-(U2-GPIO36-Pad14)*%
X41300000Y-59250000D03*
%TO.P,U2,15,EN*%
%TO.N,unconnected-(U2-EN-Pad15)*%
X38760000Y-59250000D03*
%TO.P,U2,16,3.3v*%
%TO.N,/VCC*%
X38760000Y-84650000D03*
%TO.P,U2,17,GND*%
%TO.N,GND*%
X41300000Y-84650000D03*
%TO.P,U2,18,GPIO15*%
%TO.N,unconnected-(U2-GPIO15-Pad18)*%
X43840000Y-84650000D03*
%TO.P,U2,19,GPIO2*%
%TO.N,unconnected-(U2-GPIO2-Pad19)*%
X46380000Y-84650000D03*
%TO.P,U2,20,GPIO4*%
%TO.N,unconnected-(U2-GPIO4-Pad20)*%
X48920000Y-84650000D03*
%TO.P,U2,21,GPIO16*%
%TO.N,Net-(U2-GPIO16)*%
X51460000Y-84650000D03*
%TO.P,U2,22,GPIO17*%
%TO.N,/SDA1*%
X54000000Y-84650000D03*
%TO.P,U2,23,GPIO5*%
%TO.N,/SCL1*%
X56540000Y-84650000D03*
%TO.P,U2,24,GPIO18*%
%TO.N,/SCL2*%
X59080000Y-84650000D03*
%TO.P,U2,25,GPIO19*%
%TO.N,/SDA2*%
X61620000Y-84650000D03*
%TO.P,U2,26,GPIO21*%
%TO.N,unconnected-(U2-GPIO21-Pad26)*%
X64160000Y-84650000D03*
%TO.P,U2,27,GPIO3*%
%TO.N,unconnected-(U2-GPIO3-Pad27)*%
X66700000Y-84650000D03*
%TO.P,U2,28,GPIO1*%
%TO.N,unconnected-(U2-GPIO1-Pad28)*%
X69240000Y-84650000D03*
%TO.P,U2,29,GPIO22*%
%TO.N,unconnected-(U2-GPIO22-Pad29)*%
X71780000Y-84650000D03*
%TO.P,U2,30,GPIO23*%
%TO.N,Net-(U2-GPIO23)*%
X74320000Y-84650000D03*
%TD*%
D14*
%TO.P,U1,9,EPAD*%
%TO.N,GND*%
X91300000Y-61275000D03*
X91300000Y-60075000D03*
X91300000Y-58875000D03*
D15*
X90600000Y-60075000D03*
D14*
X89900000Y-61275000D03*
X89900000Y-60075000D03*
X89900000Y-58875000D03*
%TD*%
D16*
%TO.P,J2,1,Pin_1*%
%TO.N,GND*%
X74000000Y-33250000D03*
D17*
%TO.P,J2,2,Pin_2*%
%TO.N,/VCC*%
X74000000Y-35790000D03*
%TO.P,J2,3,Pin_3*%
%TO.N,/SCL2*%
X74000000Y-38330000D03*
%TO.P,J2,4,Pin_4*%
%TO.N,/SDA2*%
X74000000Y-40870000D03*
%TO.P,J2,5,Pin_5*%
%TO.N,unconnected-(J2-Pin_5-Pad5)*%
X74000000Y-43410000D03*
%TO.P,J2,6,Pin_6*%
%TO.N,unconnected-(J2-Pin_6-Pad6)*%
X74000000Y-45950000D03*
%TO.P,J2,7,Pin_7*%
%TO.N,/VCC*%
X74000000Y-48490000D03*
%TD*%
D18*
%TO.P,SW6,1,A*%
%TO.N,Net-(SW6-A)*%
X101000000Y-80000000D03*
%TO.P,SW6,2,B*%
%TO.N,/BAT+*%
X101000000Y-85000000D03*
%TD*%
D19*
%TO.P,R5,1*%
%TO.N,Net-(U1-~{CHRG})*%
X104000000Y-49380000D03*
%TO.P,R5,2*%
%TO.N,Net-(D2-K)*%
X104000000Y-57000000D03*
%TD*%
D20*
%TO.P,D3,1,K*%
%TO.N,Net-(D3-K)*%
X107250000Y-80250000D03*
D21*
%TO.P,D3,2,A*%
%TO.N,/CE*%
X104710000Y-80250000D03*
%TD*%
D22*
%TO.P,U4,1,VOUT+*%
%TO.N,/CE*%
X97050000Y-83500000D03*
%TO.P,U4,2,VOUT-*%
%TO.N,GND*%
X90250000Y-83500000D03*
%TO.P,U4,3,VIN-*%
X90250000Y-53000000D03*
%TO.P,U4,4,VIN+*%
%TO.N,Net-(SW6-A)*%
X97050000Y-53000000D03*
%TD*%
D19*
%TO.P,R1,1*%
%TO.N,Net-(D1-A)*%
X44130000Y-31250000D03*
%TO.P,R1,2*%
%TO.N,/VCC*%
X51750000Y-31250000D03*
%TD*%
%TO.P,R3,1*%
%TO.N,Net-(U1-PROG)*%
X105250000Y-59440000D03*
%TO.P,R3,2*%
%TO.N,GND*%
X105250000Y-67060000D03*
%TD*%
%TO.P,R4,1*%
%TO.N,Net-(U1-~{STDBY})*%
X107250000Y-49380000D03*
%TO.P,R4,2*%
%TO.N,Net-(D3-K)*%
X107250000Y-57000000D03*
%TD*%
D23*
%TO.P,C2,1*%
%TO.N,/CE*%
X82750000Y-81250000D03*
D13*
%TO.P,C2,2*%
%TO.N,GND*%
X82750000Y-66250000D03*
%TD*%
D24*
%TO.P,U_2,1,OUT*%
%TO.N,Net-(U2-GPIO23)*%
X42000000Y-28000000D03*
D21*
%TO.P,U_2,2,GND*%
%TO.N,GND*%
X44540000Y-28000000D03*
%TO.P,U_2,3,Vs*%
%TO.N,/VCC*%
X47080000Y-28000000D03*
%TD*%
D19*
%TO.P,R2,1*%
%TO.N,Net-(Q1-B)*%
X53000000Y-35250000D03*
%TO.P,R2,2*%
%TO.N,Net-(U2-GPIO16)*%
X45380000Y-35250000D03*
%TD*%
D25*
%TO.P,Q1,1,E*%
%TO.N,GND*%
X59460000Y-35710000D03*
D26*
%TO.P,Q1,2,B*%
%TO.N,Net-(Q1-B)*%
X62000000Y-38250000D03*
%TO.P,Q1,3,C*%
%TO.N,Net-(D1-K)*%
X59460000Y-40790000D03*
%TD*%
D20*
%TO.P,D1,1,K*%
%TO.N,Net-(D1-K)*%
X57540000Y-29250000D03*
D21*
%TO.P,D1,2,A*%
%TO.N,Net-(D1-A)*%
X55000000Y-29250000D03*
%TD*%
D16*
%TO.P,J1,1,VCC*%
%TO.N,GND*%
X74000000Y-62250000D03*
D17*
%TO.P,J1,2,RX*%
%TO.N,/VCC*%
X74000000Y-64790000D03*
%TO.P,J1,3,TX*%
%TO.N,/SDA1*%
X74000000Y-67330000D03*
%TO.P,J1,4,GND*%
%TO.N,/SCL1*%
X74000000Y-69870000D03*
%TD*%
D20*
%TO.P,D2,1,K*%
%TO.N,Net-(D2-K)*%
X107000000Y-73000000D03*
D21*
%TO.P,D2,2,A*%
%TO.N,/CE*%
X104460000Y-73000000D03*
%TD*%
D27*
%TO.P,C1,1*%
%TO.N,/BAT+*%
X82500000Y-48750000D03*
D13*
%TO.P,C1,2*%
%TO.N,GND*%
X82500000Y-63750000D03*
%TD*%
D28*
%TO.N,GND*%
X68000000Y-48000000D03*
X87500000Y-51750000D03*
%TO.N,Net-(U1-PROG)*%
X94500000Y-60500000D03*
%TO.N,/CE*%
X86750000Y-79949000D03*
X67500000Y-74750000D03*
X95000000Y-58500000D03*
%TD*%
D11*
%TO.N,Net-(D1-A)*%
X45882000Y-33942000D02*
X54308000Y-33942000D01*
X45882000Y-33942000D02*
X45882000Y-33002000D01*
X45882000Y-33002000D02*
X44130000Y-31250000D01*
X54308000Y-33942000D02*
X55000000Y-33250000D01*
X55000000Y-33250000D02*
X55000000Y-29250000D01*
%TO.N,Net-(D1-K)*%
X57540000Y-38870000D02*
X59460000Y-40790000D01*
X57540000Y-29250000D02*
X57540000Y-38870000D01*
%TO.N,GND*%
X82750000Y-78963840D02*
X82750000Y-66250000D01*
X90250000Y-49375000D02*
X90250000Y-53000000D01*
X51956000Y-46231000D02*
X41040000Y-35315000D01*
X103051000Y-85538892D02*
X102288892Y-86301000D01*
X87625000Y-46750000D02*
X90250000Y-49375000D01*
X73523240Y-36941000D02*
X74476760Y-36941000D01*
X74000000Y-61470000D02*
X74000000Y-62250000D01*
X105250000Y-67060000D02*
X105661000Y-67471000D01*
X68000000Y-55470000D02*
X71780000Y-59250000D01*
X87286160Y-83500000D02*
X82750000Y-78963840D01*
X68000000Y-48000000D02*
X68000000Y-55470000D01*
X90250000Y-53000000D02*
X88750000Y-53000000D01*
X64233240Y-43483240D02*
X64233240Y-46231000D01*
X102288892Y-86301000D02*
X93051000Y-86301000D01*
X103051000Y-76107471D02*
X103051000Y-85538892D01*
X64233240Y-46231000D02*
X51956000Y-46231000D01*
X64233240Y-46231000D02*
X73523240Y-36941000D01*
X71780000Y-59250000D02*
X74000000Y-61470000D01*
X105661000Y-73497471D02*
X103051000Y-76107471D01*
X90250000Y-83500000D02*
X87286160Y-83500000D01*
X88750000Y-53000000D02*
X87500000Y-51750000D01*
X59460000Y-38710000D02*
X64233240Y-43483240D01*
X105661000Y-67471000D02*
X105661000Y-73497471D01*
X59460000Y-35710000D02*
X59460000Y-38710000D01*
X41040000Y-35315000D02*
X41040000Y-31777100D01*
X75151000Y-36266760D02*
X75151000Y-34401000D01*
X93051000Y-86301000D02*
X90250000Y-83500000D01*
X44540000Y-28277100D02*
X44540000Y-28000000D01*
X74476760Y-36941000D02*
X75151000Y-36266760D01*
X75151000Y-34401000D02*
X74000000Y-33250000D01*
X41040000Y-31777100D02*
X44540000Y-28277100D01*
%TO.N,/VCC*%
X50000000Y-26250000D02*
X50000000Y-26500000D01*
X47080000Y-28000000D02*
X47080000Y-29170000D01*
X50000000Y-26500000D02*
X51750000Y-28250000D01*
X51750000Y-28250000D02*
X51750000Y-31250000D01*
X47000000Y-29250000D02*
X50000000Y-26250000D01*
X50000000Y-26250000D02*
X64460000Y-26250000D01*
X47080000Y-29170000D02*
X47000000Y-29250000D01*
X64460000Y-26250000D02*
X74000000Y-35790000D01*
%TO.N,Net-(Q1-B)*%
X58741000Y-28049000D02*
X56339000Y-28049000D01*
X56339000Y-28049000D02*
X56339000Y-33911000D01*
X56339000Y-33911000D02*
X55000000Y-35250000D01*
X55000000Y-35250000D02*
X53000000Y-35250000D01*
X62000000Y-38250000D02*
X62000000Y-31308000D01*
X62000000Y-31308000D02*
X58741000Y-28049000D01*
%TO.N,Net-(U2-GPIO16)*%
X44621950Y-29201000D02*
X45037471Y-29201000D01*
X42789000Y-32659000D02*
X42789000Y-31033950D01*
X42789000Y-31033950D02*
X44621950Y-29201000D01*
X51460000Y-73789892D02*
X51460000Y-84650000D01*
X45741000Y-28497471D02*
X45741000Y-27491000D01*
X45741000Y-27491000D02*
X45049000Y-26799000D01*
X37459000Y-34791000D02*
X37459000Y-59788892D01*
X45380000Y-35250000D02*
X42789000Y-32659000D01*
X45049000Y-26799000D02*
X44042529Y-26799000D01*
X43250000Y-27591529D02*
X43250000Y-29000000D01*
X45037471Y-29201000D02*
X45741000Y-28497471D01*
X43250000Y-29000000D02*
X37459000Y-34791000D01*
X37459000Y-59788892D02*
X51460000Y-73789892D01*
X44042529Y-26799000D02*
X43250000Y-27591529D01*
%TO.N,/SDA2*%
X78750000Y-60500000D02*
X78750000Y-57000000D01*
X72000000Y-74270000D02*
X61620000Y-84650000D01*
X76500000Y-62750000D02*
X78750000Y-60500000D01*
X72000000Y-74250000D02*
X72000000Y-74270000D01*
X72000000Y-42870000D02*
X72000000Y-50250000D01*
X76500000Y-72500000D02*
X76500000Y-62750000D01*
X74750000Y-74250000D02*
X76500000Y-72500000D01*
X74000000Y-40870000D02*
X72000000Y-42870000D01*
X74750000Y-74250000D02*
X72000000Y-74250000D01*
X72000000Y-50250000D02*
X78750000Y-57000000D01*
%TO.N,/SCL2*%
X71480000Y-72250000D02*
X59080000Y-84650000D01*
X76000000Y-56250000D02*
X76000000Y-71500000D01*
X76000000Y-71500000D02*
X75250000Y-72250000D01*
X75250000Y-72250000D02*
X71480000Y-72250000D01*
X69500000Y-42830000D02*
X69500000Y-49750000D01*
X69500000Y-49750000D02*
X76000000Y-56250000D01*
X74000000Y-38330000D02*
X69500000Y-42830000D01*
%TO.N,Net-(U2-GPIO23)*%
X74320000Y-84650000D02*
X80000000Y-78970000D01*
X72000000Y-25250000D02*
X44750000Y-25250000D01*
X80000000Y-78970000D02*
X80000000Y-60257709D01*
X80125000Y-33375000D02*
X72000000Y-25250000D01*
X44750000Y-25250000D02*
X42000000Y-28000000D01*
X80125000Y-60132709D02*
X80125000Y-33375000D01*
X80000000Y-60257709D02*
X80125000Y-60132709D01*
%TO.N,Net-(D2-K)*%
X104000000Y-57000000D02*
X105500000Y-57000000D01*
X107250000Y-73000000D02*
X107000000Y-73000000D01*
X105500000Y-57000000D02*
X107500000Y-59000000D01*
X107500000Y-59000000D02*
X107500000Y-72750000D01*
X107500000Y-72750000D02*
X107250000Y-73000000D01*
%TO.N,Net-(D3-K)*%
X107750000Y-79750000D02*
X107750000Y-75250000D01*
X107250000Y-80250000D02*
X107750000Y-79750000D01*
X108701000Y-58451000D02*
X107250000Y-57000000D01*
X107750000Y-75250000D02*
X108701000Y-74299000D01*
X108701000Y-74299000D02*
X108701000Y-58451000D01*
%TO.N,Net-(U1-PROG)*%
X95560000Y-59440000D02*
X94500000Y-60500000D01*
X105250000Y-59440000D02*
X95560000Y-59440000D01*
%TO.N,/BAT+*%
X98949000Y-82949000D02*
X101000000Y-85000000D01*
X82750000Y-51750000D02*
X86250000Y-55250000D01*
X82500000Y-48750000D02*
X82750000Y-49000000D01*
X82500000Y-45812500D02*
X82500000Y-48750000D01*
X86250000Y-55250000D02*
X86250000Y-62750000D01*
X83500000Y-44812500D02*
X82500000Y-45812500D01*
X98949000Y-75449000D02*
X98949000Y-82949000D01*
X86250000Y-62750000D02*
X98949000Y-75449000D01*
X82750000Y-49000000D02*
X82750000Y-51750000D01*
%TO.N,Net-(SW6-A)*%
X93250000Y-65250000D02*
X93250000Y-56800000D01*
X101000000Y-73000000D02*
X93250000Y-65250000D01*
X101000000Y-80000000D02*
X101000000Y-73000000D01*
X93250000Y-56800000D02*
X97050000Y-53000000D01*
%TO.N,/CE*%
X93899000Y-59601000D02*
X95000000Y-58500000D01*
X104460000Y-73000000D02*
X93899000Y-62439000D01*
X75151000Y-60081000D02*
X74320000Y-59250000D01*
X86750000Y-79949000D02*
X93499000Y-79949000D01*
X93899000Y-62439000D02*
X93899000Y-59601000D01*
X67500000Y-74750000D02*
X67500000Y-68750000D01*
X75151000Y-63401000D02*
X75151000Y-60081000D01*
X72849000Y-63401000D02*
X75151000Y-63401000D01*
X67500000Y-68750000D02*
X72849000Y-63401000D01*
X93499000Y-79949000D02*
X97050000Y-83500000D01*
%TD*%
%TA.AperFunction,Conductor*%
%TO.N,GND*%
G36*
X109192539Y-24770185D02*
G01*
X109238294Y-24822989D01*
X109249500Y-24874500D01*
X109249500Y-57850903D01*
X109229815Y-57917942D01*
X109177011Y-57963697D01*
X109107853Y-57973641D01*
X109044297Y-57944616D01*
X109037819Y-57938584D01*
X108544077Y-57444842D01*
X108510592Y-57383519D01*
X108513828Y-57318841D01*
X108518477Y-57304534D01*
X108550500Y-57102352D01*
X108550500Y-56897648D01*
X108518477Y-56695466D01*
X108455220Y-56500781D01*
X108455218Y-56500778D01*
X108455218Y-56500776D01*
X108419809Y-56431284D01*
X108362287Y-56318390D01*
X108354556Y-56307749D01*
X108241971Y-56152786D01*
X108097213Y-56008028D01*
X107931613Y-55887715D01*
X107931612Y-55887714D01*
X107931610Y-55887713D01*
X107856843Y-55849617D01*
X107749223Y-55794781D01*
X107554534Y-55731522D01*
X107379995Y-55703878D01*
X107352352Y-55699500D01*
X107147648Y-55699500D01*
X107123329Y-55703351D01*
X106945465Y-55731522D01*
X106750776Y-55794781D01*
X106568386Y-55887715D01*
X106402786Y-56008028D01*
X106258028Y-56152786D01*
X106137715Y-56318386D01*
X106056129Y-56478506D01*
X106047221Y-56487936D01*
X106042268Y-56499928D01*
X106023690Y-56512851D01*
X106008154Y-56529302D01*
X105995561Y-56532420D01*
X105984912Y-56539829D01*
X105962297Y-56540657D01*
X105940333Y-56546097D01*
X105926443Y-56541971D01*
X105915089Y-56542388D01*
X105894962Y-56532621D01*
X105882469Y-56528911D01*
X105871873Y-56522637D01*
X105868716Y-56519480D01*
X105781904Y-56469360D01*
X105731785Y-56440423D01*
X105579057Y-56399499D01*
X105420943Y-56399499D01*
X105413347Y-56399499D01*
X105413331Y-56399500D01*
X105229602Y-56399500D01*
X105162563Y-56379815D01*
X105119117Y-56331795D01*
X105112284Y-56318385D01*
X104991971Y-56152786D01*
X104847213Y-56008028D01*
X104681613Y-55887715D01*
X104681612Y-55887714D01*
X104681610Y-55887713D01*
X104606843Y-55849617D01*
X104499223Y-55794781D01*
X104304534Y-55731522D01*
X104129995Y-55703878D01*
X104102352Y-55699500D01*
X103897648Y-55699500D01*
X103873329Y-55703351D01*
X103695465Y-55731522D01*
X103500776Y-55794781D01*
X103318386Y-55887715D01*
X103152786Y-56008028D01*
X103008028Y-56152786D01*
X102887715Y-56318386D01*
X102794781Y-56500776D01*
X102731522Y-56695465D01*
X102699500Y-56897648D01*
X102699500Y-57102351D01*
X102731522Y-57304534D01*
X102794781Y-57499223D01*
X102846385Y-57600500D01*
X102885775Y-57677807D01*
X102887715Y-57681613D01*
X103008028Y-57847213D01*
X103152786Y-57991971D01*
X103296877Y-58096657D01*
X103318390Y-58112287D01*
X103418748Y-58163422D01*
X103500776Y-58205218D01*
X103500778Y-58205218D01*
X103500781Y-58205220D01*
X103591757Y-58234780D01*
X103695465Y-58268477D01*
X103742313Y-58275897D01*
X103897648Y-58300500D01*
X103897649Y-58300500D01*
X104102351Y-58300500D01*
X104102352Y-58300500D01*
X104257685Y-58275897D01*
X104326977Y-58284851D01*
X104380429Y-58329847D01*
X104401069Y-58396599D01*
X104382344Y-58463913D01*
X104364764Y-58486051D01*
X104258027Y-58592788D01*
X104137715Y-58758385D01*
X104130883Y-58771795D01*
X104082909Y-58822591D01*
X104020398Y-58839500D01*
X95899746Y-58839500D01*
X95832707Y-58819815D01*
X95786952Y-58767011D01*
X95777008Y-58697853D01*
X95778129Y-58691308D01*
X95800500Y-58578844D01*
X95800500Y-58421155D01*
X95800499Y-58421153D01*
X95789943Y-58368084D01*
X95769737Y-58266503D01*
X95764137Y-58252983D01*
X95709397Y-58120827D01*
X95709390Y-58120814D01*
X95621789Y-57989711D01*
X95621786Y-57989707D01*
X95510292Y-57878213D01*
X95510288Y-57878210D01*
X95379185Y-57790609D01*
X95379172Y-57790602D01*
X95233501Y-57730264D01*
X95233489Y-57730261D01*
X95078845Y-57699500D01*
X95078842Y-57699500D01*
X94921158Y-57699500D01*
X94921155Y-57699500D01*
X94766510Y-57730261D01*
X94766498Y-57730264D01*
X94620827Y-57790602D01*
X94620814Y-57790609D01*
X94489711Y-57878210D01*
X94489707Y-57878213D01*
X94378213Y-57989707D01*
X94378210Y-57989711D01*
X94290609Y-58120814D01*
X94290602Y-58120827D01*
X94230264Y-58266498D01*
X94230261Y-58266508D01*
X94199361Y-58421850D01*
X94190595Y-58438607D01*
X94186576Y-58457084D01*
X94167831Y-58482125D01*
X94166976Y-58483761D01*
X94165426Y-58485339D01*
X94062179Y-58588585D01*
X94000859Y-58622069D01*
X93931167Y-58617085D01*
X93875233Y-58575214D01*
X93850816Y-58509750D01*
X93850500Y-58500903D01*
X93850500Y-57100097D01*
X93870185Y-57033058D01*
X93886819Y-57012416D01*
X95252700Y-55646535D01*
X95314023Y-55613050D01*
X95383715Y-55618034D01*
X95428062Y-55646535D01*
X95495346Y-55713819D01*
X95495350Y-55713822D01*
X95495354Y-55713825D01*
X95612206Y-55794780D01*
X95680374Y-55842007D01*
X95885317Y-55935096D01*
X95885321Y-55935097D01*
X96103579Y-55990094D01*
X96103581Y-55990094D01*
X96103588Y-55990096D01*
X96235783Y-56000500D01*
X97864216Y-56000499D01*
X97996412Y-55990096D01*
X98214683Y-55935096D01*
X98419626Y-55842007D01*
X98604654Y-55713819D01*
X98763819Y-55554654D01*
X98892007Y-55369626D01*
X98985096Y-55164683D01*
X99040096Y-54946412D01*
X99050500Y-54814217D01*
X99050499Y-51185784D01*
X99040096Y-51053588D01*
X98985096Y-50835317D01*
X98892007Y-50630374D01*
X98796338Y-50492284D01*
X98763825Y-50445354D01*
X98763822Y-50445350D01*
X98763819Y-50445346D01*
X98604654Y-50286181D01*
X98604650Y-50286178D01*
X98604645Y-50286174D01*
X98419632Y-50157997D01*
X98419630Y-50157995D01*
X98419626Y-50157993D01*
X98333154Y-50118716D01*
X98214681Y-50064903D01*
X98214678Y-50064902D01*
X97996420Y-50009905D01*
X97996413Y-50009904D01*
X97952347Y-50006436D01*
X97864217Y-49999500D01*
X97864215Y-49999500D01*
X96235791Y-49999500D01*
X96235776Y-49999501D01*
X96103586Y-50009904D01*
X96103579Y-50009905D01*
X95885321Y-50064902D01*
X95885318Y-50064903D01*
X95680377Y-50157991D01*
X95680367Y-50157997D01*
X95495354Y-50286174D01*
X95495342Y-50286184D01*
X95336184Y-50445342D01*
X95336174Y-50445354D01*
X95207997Y-50630367D01*
X95207991Y-50630377D01*
X95114903Y-50835318D01*
X95114902Y-50835321D01*
X95059905Y-51053579D01*
X95059904Y-51053586D01*
X95049500Y-51185777D01*
X95049500Y-54099901D01*
X95029815Y-54166940D01*
X95013181Y-54187582D01*
X92884721Y-56316042D01*
X92884715Y-56316048D01*
X92881286Y-56319478D01*
X92881284Y-56319480D01*
X92769480Y-56431284D01*
X92740324Y-56481785D01*
X92734618Y-56491667D01*
X92734616Y-56491670D01*
X92690423Y-56568214D01*
X92690423Y-56568215D01*
X92649499Y-56720943D01*
X92649499Y-56720945D01*
X92649499Y-56889046D01*
X92649500Y-56889059D01*
X92649500Y-65163330D01*
X92649499Y-65163348D01*
X92649499Y-65329054D01*
X92649498Y-65329054D01*
X92690423Y-65481787D01*
X92699679Y-65497817D01*
X92699678Y-65497817D01*
X92699680Y-65497819D01*
X92769475Y-65618709D01*
X92769481Y-65618717D01*
X92888349Y-65737585D01*
X92888355Y-65737590D01*
X100363181Y-73212416D01*
X100396666Y-73273739D01*
X100399500Y-73300097D01*
X100399500Y-78375500D01*
X100379815Y-78442539D01*
X100327011Y-78488294D01*
X100275500Y-78499500D01*
X100131903Y-78499500D01*
X99898630Y-78536447D01*
X99898627Y-78536447D01*
X99711818Y-78597146D01*
X99641977Y-78599141D01*
X99582144Y-78563061D01*
X99551316Y-78500360D01*
X99549500Y-78479215D01*
X99549500Y-75538059D01*
X99549501Y-75538046D01*
X99549501Y-75369945D01*
X99549501Y-75369943D01*
X99508577Y-75217215D01*
X99457749Y-75129179D01*
X99429520Y-75080284D01*
X99317716Y-74968480D01*
X99317715Y-74968479D01*
X99313385Y-74964149D01*
X99313374Y-74964139D01*
X86886819Y-62537584D01*
X86853334Y-62476261D01*
X86850500Y-62449903D01*
X86850500Y-61952577D01*
X89575975Y-61952577D01*
X89681236Y-61996178D01*
X89681240Y-61996179D01*
X89826126Y-62024999D01*
X89826129Y-62025000D01*
X89973871Y-62025000D01*
X89973873Y-62024999D01*
X90118760Y-61996179D01*
X90118775Y-61996175D01*
X90224024Y-61952578D01*
X90224024Y-61952577D01*
X90975975Y-61952577D01*
X91081236Y-61996178D01*
X91081240Y-61996179D01*
X91226126Y-62024999D01*
X91226129Y-62025000D01*
X91373871Y-62025000D01*
X91373873Y-62024999D01*
X91518760Y-61996179D01*
X91518775Y-61996175D01*
X91624024Y-61952578D01*
X91624024Y-61952577D01*
X91300001Y-61628554D01*
X91300000Y-61628554D01*
X90975975Y-61952577D01*
X90224024Y-61952577D01*
X89900001Y-61628554D01*
X89900000Y-61628554D01*
X89575975Y-61952577D01*
X86850500Y-61952577D01*
X86850500Y-61201126D01*
X89150000Y-61201126D01*
X89150000Y-61348873D01*
X89178820Y-61493759D01*
X89178822Y-61493767D01*
X89222421Y-61599024D01*
X89546446Y-61275000D01*
X89546446Y-61274999D01*
X89516610Y-61245163D01*
X89750000Y-61245163D01*
X89750000Y-61304837D01*
X89772836Y-61359968D01*
X89815032Y-61402164D01*
X89870163Y-61425000D01*
X89929837Y-61425000D01*
X89984968Y-61402164D01*
X90027164Y-61359968D01*
X90050000Y-61304837D01*
X90050000Y-61274999D01*
X90253554Y-61274999D01*
X90253554Y-61275001D01*
X90577929Y-61599376D01*
X90622069Y-61599376D01*
X90946446Y-61275000D01*
X90916609Y-61245163D01*
X91150000Y-61245163D01*
X91150000Y-61304837D01*
X91172836Y-61359968D01*
X91215032Y-61402164D01*
X91270163Y-61425000D01*
X91329837Y-61425000D01*
X91384968Y-61402164D01*
X91427164Y-61359968D01*
X91450000Y-61304837D01*
X91450000Y-61274999D01*
X91653554Y-61274999D01*
X91653554Y-61275001D01*
X91977577Y-61599024D01*
X91977578Y-61599024D01*
X92021175Y-61493775D01*
X92021179Y-61493760D01*
X92049999Y-61348873D01*
X92050000Y-61348871D01*
X92050000Y-61201128D01*
X92049999Y-61201126D01*
X92021179Y-61056240D01*
X92021178Y-61056236D01*
X91977577Y-60950975D01*
X91653554Y-61274999D01*
X91450000Y-61274999D01*
X91450000Y-61245163D01*
X91427164Y-61190032D01*
X91384968Y-61147836D01*
X91329837Y-61125000D01*
X91270163Y-61125000D01*
X91215032Y-61147836D01*
X91172836Y-61190032D01*
X91150000Y-61245163D01*
X90916609Y-61245163D01*
X90622068Y-60950622D01*
X90577930Y-60950622D01*
X90253554Y-61274999D01*
X90050000Y-61274999D01*
X90050000Y-61245163D01*
X90027164Y-61190032D01*
X89984968Y-61147836D01*
X89929837Y-61125000D01*
X89870163Y-61125000D01*
X89815032Y-61147836D01*
X89772836Y-61190032D01*
X89750000Y-61245163D01*
X89516610Y-61245163D01*
X89222421Y-60950974D01*
X89222420Y-60950974D01*
X89178823Y-61056228D01*
X89178820Y-61056240D01*
X89150000Y-61201126D01*
X86850500Y-61201126D01*
X86850500Y-60675000D01*
X89653554Y-60675000D01*
X89900000Y-60921446D01*
X90146446Y-60675000D01*
X91053554Y-60675000D01*
X91300000Y-60921446D01*
X91546446Y-60675000D01*
X91300000Y-60428554D01*
X91053554Y-60675000D01*
X90146446Y-60675000D01*
X89900000Y-60428554D01*
X89653554Y-60675000D01*
X86850500Y-60675000D01*
X86850500Y-60001126D01*
X89150000Y-60001126D01*
X89150000Y-60148873D01*
X89178820Y-60293759D01*
X89178822Y-60293767D01*
X89222421Y-60399024D01*
X89546446Y-60075000D01*
X89546446Y-60074999D01*
X89516610Y-60045163D01*
X89750000Y-60045163D01*
X89750000Y-60104837D01*
X89772836Y-60159968D01*
X89815032Y-60202164D01*
X89870163Y-60225000D01*
X89929837Y-60225000D01*
X89984968Y-60202164D01*
X90027164Y-60159968D01*
X90050000Y-60104837D01*
X90050000Y-60074999D01*
X90253554Y-60074999D01*
X90253554Y-60075001D01*
X90577929Y-60399376D01*
X90622069Y-60399376D01*
X90946446Y-60075000D01*
X90916609Y-60045163D01*
X91150000Y-60045163D01*
X91150000Y-60104837D01*
X91172836Y-60159968D01*
X91215032Y-60202164D01*
X91270163Y-60225000D01*
X91329837Y-60225000D01*
X91384968Y-60202164D01*
X91427164Y-60159968D01*
X91450000Y-60104837D01*
X91450000Y-60074999D01*
X91653554Y-60074999D01*
X91653554Y-60075001D01*
X91977577Y-60399024D01*
X91977578Y-60399024D01*
X92021175Y-60293775D01*
X92021179Y-60293760D01*
X92049999Y-60148873D01*
X92050000Y-60148871D01*
X92050000Y-60001128D01*
X92049999Y-60001126D01*
X92021179Y-59856240D01*
X92021178Y-59856236D01*
X91977577Y-59750975D01*
X91653554Y-60074999D01*
X91450000Y-60074999D01*
X91450000Y-60045163D01*
X91427164Y-59990032D01*
X91384968Y-59947836D01*
X91329837Y-59925000D01*
X91270163Y-59925000D01*
X91215032Y-59947836D01*
X91172836Y-59990032D01*
X91150000Y-60045163D01*
X90916609Y-60045163D01*
X90622068Y-59750622D01*
X90577930Y-59750622D01*
X90253554Y-60074999D01*
X90050000Y-60074999D01*
X90050000Y-60045163D01*
X90027164Y-59990032D01*
X89984968Y-59947836D01*
X89929837Y-59925000D01*
X89870163Y-59925000D01*
X89815032Y-59947836D01*
X89772836Y-59990032D01*
X89750000Y-60045163D01*
X89516610Y-60045163D01*
X89222421Y-59750974D01*
X89222420Y-59750974D01*
X89178823Y-59856228D01*
X89178820Y-59856240D01*
X89150000Y-60001126D01*
X86850500Y-60001126D01*
X86850500Y-59475000D01*
X89653554Y-59475000D01*
X89900000Y-59721446D01*
X90146446Y-59475000D01*
X91053554Y-59475000D01*
X91300000Y-59721446D01*
X91546446Y-59475000D01*
X91300000Y-59228554D01*
X91053554Y-59475000D01*
X90146446Y-59475000D01*
X89900000Y-59228554D01*
X89653554Y-59475000D01*
X86850500Y-59475000D01*
X86850500Y-58801126D01*
X89150000Y-58801126D01*
X89150000Y-58948873D01*
X89178820Y-59093759D01*
X89178822Y-59093767D01*
X89222421Y-59199024D01*
X89546446Y-58875000D01*
X89546446Y-58874999D01*
X89516610Y-58845163D01*
X89750000Y-58845163D01*
X89750000Y-58904837D01*
X89772836Y-58959968D01*
X89815032Y-59002164D01*
X89870163Y-59025000D01*
X89929837Y-59025000D01*
X89984968Y-59002164D01*
X90027164Y-58959968D01*
X90050000Y-58904837D01*
X90050000Y-58874999D01*
X90253554Y-58874999D01*
X90253554Y-58875001D01*
X90577929Y-59199376D01*
X90622069Y-59199376D01*
X90946446Y-58875000D01*
X90916609Y-58845163D01*
X91150000Y-58845163D01*
X91150000Y-58904837D01*
X91172836Y-58959968D01*
X91215032Y-59002164D01*
X91270163Y-59025000D01*
X91329837Y-59025000D01*
X91384968Y-59002164D01*
X91427164Y-58959968D01*
X91450000Y-58904837D01*
X91450000Y-58874999D01*
X91653554Y-58874999D01*
X91653554Y-58875001D01*
X91977577Y-59199024D01*
X91977578Y-59199024D01*
X92021175Y-59093775D01*
X92021179Y-59093760D01*
X92049999Y-58948873D01*
X92050000Y-58948871D01*
X92050000Y-58801128D01*
X92049999Y-58801126D01*
X92021179Y-58656240D01*
X92021178Y-58656236D01*
X91977577Y-58550975D01*
X91653554Y-58874999D01*
X91450000Y-58874999D01*
X91450000Y-58845163D01*
X91427164Y-58790032D01*
X91384968Y-58747836D01*
X91329837Y-58725000D01*
X91270163Y-58725000D01*
X91215032Y-58747836D01*
X91172836Y-58790032D01*
X91150000Y-58845163D01*
X90916609Y-58845163D01*
X90622068Y-58550622D01*
X90577930Y-58550622D01*
X90253554Y-58874999D01*
X90050000Y-58874999D01*
X90050000Y-58845163D01*
X90027164Y-58790032D01*
X89984968Y-58747836D01*
X89929837Y-58725000D01*
X89870163Y-58725000D01*
X89815032Y-58747836D01*
X89772836Y-58790032D01*
X89750000Y-58845163D01*
X89516610Y-58845163D01*
X89222421Y-58550974D01*
X89222420Y-58550974D01*
X89178823Y-58656228D01*
X89178820Y-58656240D01*
X89150000Y-58801126D01*
X86850500Y-58801126D01*
X86850500Y-58197420D01*
X89575974Y-58197420D01*
X89575974Y-58197421D01*
X89900000Y-58521446D01*
X89900001Y-58521446D01*
X90224024Y-58197421D01*
X90224022Y-58197420D01*
X90975974Y-58197420D01*
X90975974Y-58197421D01*
X91300000Y-58521446D01*
X91300001Y-58521446D01*
X91624024Y-58197421D01*
X91518767Y-58153822D01*
X91518759Y-58153820D01*
X91373872Y-58125000D01*
X91226128Y-58125000D01*
X91081240Y-58153820D01*
X91081228Y-58153823D01*
X90975974Y-58197420D01*
X90224022Y-58197420D01*
X90118767Y-58153822D01*
X90118759Y-58153820D01*
X89973872Y-58125000D01*
X89826128Y-58125000D01*
X89681240Y-58153820D01*
X89681228Y-58153823D01*
X89575974Y-58197420D01*
X86850500Y-58197420D01*
X86850500Y-55170945D01*
X86850500Y-55170943D01*
X86809577Y-55018216D01*
X86768122Y-54946413D01*
X86730524Y-54881290D01*
X86730521Y-54881286D01*
X86730520Y-54881284D01*
X86663433Y-54814197D01*
X88250001Y-54814197D01*
X88260400Y-54946332D01*
X88315377Y-55164519D01*
X88408428Y-55369374D01*
X88408431Y-55369380D01*
X88536559Y-55554323D01*
X88536569Y-55554335D01*
X88695664Y-55713430D01*
X88695676Y-55713440D01*
X88880619Y-55841568D01*
X88880625Y-55841571D01*
X89085480Y-55934622D01*
X89303667Y-55989599D01*
X89435810Y-55999999D01*
X89999999Y-55999999D01*
X90500000Y-55999999D01*
X91064182Y-55999999D01*
X91064197Y-55999998D01*
X91196332Y-55989599D01*
X91414519Y-55934622D01*
X91619374Y-55841571D01*
X91619380Y-55841568D01*
X91804323Y-55713440D01*
X91804335Y-55713430D01*
X91963430Y-55554335D01*
X91963440Y-55554323D01*
X92091568Y-55369380D01*
X92091571Y-55369374D01*
X92184622Y-55164519D01*
X92239599Y-54946332D01*
X92249999Y-54814196D01*
X92250000Y-54814184D01*
X92250000Y-53250000D01*
X90500000Y-53250000D01*
X90500000Y-55999999D01*
X89999999Y-55999999D01*
X90000000Y-55999998D01*
X90000000Y-53250000D01*
X88250001Y-53250000D01*
X88250001Y-54814197D01*
X86663433Y-54814197D01*
X86618716Y-54769480D01*
X86618715Y-54769479D01*
X86614385Y-54765149D01*
X86614374Y-54765139D01*
X83386819Y-51537584D01*
X83353334Y-51476261D01*
X83350500Y-51449903D01*
X83350500Y-51185803D01*
X88250000Y-51185803D01*
X88250000Y-52750000D01*
X90000000Y-52750000D01*
X90500000Y-52750000D01*
X92249999Y-52750000D01*
X92249999Y-51185817D01*
X92249998Y-51185802D01*
X92239599Y-51053667D01*
X92184622Y-50835480D01*
X92091571Y-50630625D01*
X92091568Y-50630619D01*
X91963440Y-50445676D01*
X91963430Y-50445664D01*
X91804335Y-50286569D01*
X91804323Y-50286559D01*
X91619380Y-50158431D01*
X91619374Y-50158428D01*
X91414519Y-50065377D01*
X91196332Y-50010400D01*
X91064196Y-50000000D01*
X90500000Y-50000000D01*
X90500000Y-52750000D01*
X90000000Y-52750000D01*
X90000000Y-50000000D01*
X89435817Y-50000000D01*
X89435802Y-50000001D01*
X89303667Y-50010400D01*
X89085480Y-50065377D01*
X88880625Y-50158428D01*
X88880619Y-50158431D01*
X88695676Y-50286559D01*
X88695664Y-50286569D01*
X88536569Y-50445664D01*
X88536559Y-50445676D01*
X88408431Y-50630619D01*
X88408428Y-50630625D01*
X88315377Y-50835480D01*
X88260400Y-51053667D01*
X88250000Y-51185803D01*
X83350500Y-51185803D01*
X83350500Y-50346869D01*
X83370185Y-50279830D01*
X83422989Y-50234075D01*
X83435486Y-50229166D01*
X83569334Y-50184814D01*
X83718656Y-50092712D01*
X83842712Y-49968656D01*
X83934814Y-49819334D01*
X83989999Y-49652797D01*
X84000500Y-49550009D01*
X84000500Y-49277648D01*
X102699500Y-49277648D01*
X102699500Y-49482351D01*
X102731522Y-49684534D01*
X102794781Y-49879223D01*
X102887715Y-50061613D01*
X103008028Y-50227213D01*
X103152786Y-50371971D01*
X103303935Y-50481785D01*
X103318390Y-50492287D01*
X103396143Y-50531904D01*
X103500776Y-50585218D01*
X103500778Y-50585218D01*
X103500781Y-50585220D01*
X103603871Y-50618716D01*
X103695465Y-50648477D01*
X103796557Y-50664488D01*
X103897648Y-50680500D01*
X103897649Y-50680500D01*
X104102351Y-50680500D01*
X104102352Y-50680500D01*
X104304534Y-50648477D01*
X104499219Y-50585220D01*
X104681610Y-50492287D01*
X104843733Y-50374499D01*
X104847213Y-50371971D01*
X104847215Y-50371968D01*
X104847219Y-50371966D01*
X104991966Y-50227219D01*
X104991968Y-50227215D01*
X104991971Y-50227213D01*
X105044732Y-50154590D01*
X105112287Y-50061610D01*
X105205220Y-49879219D01*
X105268477Y-49684534D01*
X105300500Y-49482352D01*
X105300500Y-49277648D01*
X105949500Y-49277648D01*
X105949500Y-49482351D01*
X105981522Y-49684534D01*
X106044781Y-49879223D01*
X106137715Y-50061613D01*
X106258028Y-50227213D01*
X106402786Y-50371971D01*
X106553935Y-50481785D01*
X106568390Y-50492287D01*
X106646143Y-50531904D01*
X106750776Y-50585218D01*
X106750778Y-50585218D01*
X106750781Y-50585220D01*
X106853871Y-50618716D01*
X106945465Y-50648477D01*
X107046557Y-50664488D01*
X107147648Y-50680500D01*
X107147649Y-50680500D01*
X107352351Y-50680500D01*
X107352352Y-50680500D01*
X107554534Y-50648477D01*
X107749219Y-50585220D01*
X107931610Y-50492287D01*
X108093733Y-50374499D01*
X108097213Y-50371971D01*
X108097215Y-50371968D01*
X108097219Y-50371966D01*
X108241966Y-50227219D01*
X108241968Y-50227215D01*
X108241971Y-50227213D01*
X108294732Y-50154590D01*
X108362287Y-50061610D01*
X108455220Y-49879219D01*
X108518477Y-49684534D01*
X108550500Y-49482352D01*
X108550500Y-49277648D01*
X108518477Y-49075466D01*
X108496690Y-49008414D01*
X108455218Y-48880776D01*
X108417239Y-48806239D01*
X108362287Y-48698390D01*
X108354556Y-48687749D01*
X108241971Y-48532786D01*
X108097213Y-48388028D01*
X107931613Y-48267715D01*
X107931612Y-48267714D01*
X107931610Y-48267713D01*
X107874653Y-48238691D01*
X107749223Y-48174781D01*
X107554534Y-48111522D01*
X107379995Y-48083878D01*
X107352352Y-48079500D01*
X107147648Y-48079500D01*
X107123329Y-48083351D01*
X106945465Y-48111522D01*
X106750776Y-48174781D01*
X106568386Y-48267715D01*
X106402786Y-48388028D01*
X106258028Y-48532786D01*
X106137715Y-48698386D01*
X106044781Y-48880776D01*
X105981522Y-49075465D01*
X105949500Y-49277648D01*
X105300500Y-49277648D01*
X105268477Y-49075466D01*
X105246690Y-49008414D01*
X105205218Y-48880776D01*
X105167239Y-48806239D01*
X105112287Y-48698390D01*
X105104556Y-48687749D01*
X104991971Y-48532786D01*
X104847213Y-48388028D01*
X104681613Y-48267715D01*
X104681612Y-48267714D01*
X104681610Y-48267713D01*
X104624653Y-48238691D01*
X104499223Y-48174781D01*
X104304534Y-48111522D01*
X104129995Y-48083878D01*
X104102352Y-48079500D01*
X103897648Y-48079500D01*
X103873329Y-48083351D01*
X103695465Y-48111522D01*
X103500776Y-48174781D01*
X103318386Y-48267715D01*
X103152786Y-48388028D01*
X103008028Y-48532786D01*
X102887715Y-48698386D01*
X102794781Y-48880776D01*
X102731522Y-49075465D01*
X102699500Y-49277648D01*
X84000500Y-49277648D01*
X84000499Y-48698390D01*
X84000499Y-47949998D01*
X84000498Y-47949981D01*
X83989999Y-47847203D01*
X83989998Y-47847200D01*
X83974934Y-47801740D01*
X83934814Y-47680666D01*
X83894061Y-47614595D01*
X83875622Y-47547204D01*
X83896545Y-47480541D01*
X83950187Y-47435771D01*
X83999601Y-47425500D01*
X85822472Y-47425500D01*
X85822475Y-47425500D01*
X85962485Y-47387984D01*
X86088015Y-47315509D01*
X86190509Y-47213015D01*
X86262984Y-47087485D01*
X86300500Y-46947475D01*
X86300500Y-42677525D01*
X86262984Y-42537515D01*
X86258765Y-42530208D01*
X86190511Y-42411988D01*
X86190506Y-42411982D01*
X86088017Y-42309493D01*
X86088011Y-42309488D01*
X85962488Y-42237017D01*
X85962489Y-42237017D01*
X85951006Y-42233940D01*
X85822475Y-42199500D01*
X81947475Y-42199500D01*
X81802525Y-42199500D01*
X81673993Y-42233940D01*
X81662511Y-42237017D01*
X81536988Y-42309488D01*
X81536982Y-42309493D01*
X81434493Y-42411982D01*
X81434488Y-42411988D01*
X81362017Y-42537511D01*
X81362016Y-42537515D01*
X81324500Y-42677525D01*
X81324500Y-46947475D01*
X81362016Y-47087485D01*
X81416762Y-47182308D01*
X81433235Y-47250206D01*
X81410383Y-47316233D01*
X81374472Y-47349845D01*
X81281347Y-47407285D01*
X81281343Y-47407288D01*
X81157289Y-47531342D01*
X81065187Y-47680663D01*
X81065186Y-47680666D01*
X81010001Y-47847203D01*
X81010001Y-47847204D01*
X81010000Y-47847204D01*
X80999500Y-47949983D01*
X80999500Y-49550001D01*
X80999501Y-49550018D01*
X81010000Y-49652796D01*
X81010001Y-49652799D01*
X81039413Y-49741557D01*
X81065186Y-49819334D01*
X81157288Y-49968656D01*
X81281344Y-50092712D01*
X81430666Y-50184814D01*
X81597203Y-50239999D01*
X81699991Y-50250500D01*
X82025500Y-50250499D01*
X82092539Y-50270183D01*
X82138294Y-50322987D01*
X82149500Y-50374499D01*
X82149500Y-51663330D01*
X82149499Y-51663348D01*
X82149499Y-51829054D01*
X82149498Y-51829054D01*
X82190423Y-51981785D01*
X82219358Y-52031900D01*
X82219359Y-52031904D01*
X82219360Y-52031904D01*
X82269479Y-52118714D01*
X82269481Y-52118717D01*
X82388349Y-52237585D01*
X82388355Y-52237590D01*
X85613181Y-55462416D01*
X85646666Y-55523739D01*
X85649500Y-55550097D01*
X85649500Y-62663330D01*
X85649499Y-62663348D01*
X85649499Y-62829054D01*
X85649498Y-62829054D01*
X85690423Y-62981785D01*
X85700118Y-62998577D01*
X85769477Y-63118712D01*
X85769481Y-63118717D01*
X85888349Y-63237585D01*
X85888355Y-63237590D01*
X98312181Y-75661416D01*
X98345666Y-75722739D01*
X98348500Y-75749097D01*
X98348500Y-80439501D01*
X98328815Y-80506540D01*
X98276011Y-80552295D01*
X98206853Y-80562239D01*
X98194202Y-80559743D01*
X98108988Y-80538271D01*
X97996412Y-80509904D01*
X97864217Y-80499500D01*
X97864215Y-80499500D01*
X96235791Y-80499500D01*
X96235776Y-80499501D01*
X96103586Y-80509904D01*
X96103579Y-80509905D01*
X95885321Y-80564902D01*
X95885318Y-80564903D01*
X95680377Y-80657991D01*
X95680367Y-80657997D01*
X95495354Y-80786174D01*
X95495342Y-80786184D01*
X95428062Y-80853465D01*
X95366739Y-80886950D01*
X95297047Y-80881966D01*
X95252700Y-80853465D01*
X93986590Y-79587355D01*
X93986588Y-79587352D01*
X93867717Y-79468481D01*
X93867716Y-79468480D01*
X93762403Y-79407678D01*
X93762402Y-79407677D01*
X93730783Y-79389422D01*
X93674881Y-79374443D01*
X93578057Y-79348499D01*
X93419943Y-79348499D01*
X93412347Y-79348499D01*
X93412331Y-79348500D01*
X87329766Y-79348500D01*
X87262727Y-79328815D01*
X87260875Y-79327602D01*
X87129185Y-79239609D01*
X87129172Y-79239602D01*
X86983501Y-79179264D01*
X86983489Y-79179261D01*
X86828845Y-79148500D01*
X86828842Y-79148500D01*
X86671158Y-79148500D01*
X86671155Y-79148500D01*
X86516510Y-79179261D01*
X86516498Y-79179264D01*
X86370827Y-79239602D01*
X86370814Y-79239609D01*
X86239711Y-79327210D01*
X86239707Y-79327213D01*
X86128213Y-79438707D01*
X86128210Y-79438711D01*
X86040609Y-79569814D01*
X86040602Y-79569827D01*
X85980264Y-79715498D01*
X85980261Y-79715510D01*
X85949500Y-79870153D01*
X85949500Y-80027846D01*
X85980261Y-80182489D01*
X85980264Y-80182501D01*
X86040602Y-80328172D01*
X86040609Y-80328185D01*
X86128210Y-80459288D01*
X86128213Y-80459292D01*
X86239707Y-80570786D01*
X86239711Y-80570789D01*
X86370814Y-80658390D01*
X86370827Y-80658397D01*
X86449894Y-80691147D01*
X86516503Y-80718737D01*
X86629462Y-80741206D01*
X86671153Y-80749499D01*
X86671156Y-80749500D01*
X86671158Y-80749500D01*
X86828844Y-80749500D01*
X86828845Y-80749499D01*
X86983497Y-80718737D01*
X87129179Y-80658394D01*
X87183663Y-80621989D01*
X87260875Y-80570398D01*
X87327553Y-80549520D01*
X87329766Y-80549500D01*
X88641128Y-80549500D01*
X88708167Y-80569185D01*
X88753922Y-80621989D01*
X88763866Y-80691147D01*
X88734841Y-80754703D01*
X88711744Y-80775429D01*
X88695669Y-80786565D01*
X88695664Y-80786569D01*
X88536569Y-80945664D01*
X88536559Y-80945676D01*
X88408431Y-81130619D01*
X88408428Y-81130625D01*
X88315377Y-81335480D01*
X88260400Y-81553667D01*
X88250000Y-81685803D01*
X88250000Y-83250000D01*
X92249999Y-83250000D01*
X92249999Y-81685817D01*
X92249998Y-81685802D01*
X92239599Y-81553667D01*
X92184622Y-81335480D01*
X92091571Y-81130625D01*
X92091568Y-81130619D01*
X91963440Y-80945676D01*
X91963430Y-80945664D01*
X91804335Y-80786569D01*
X91804330Y-80786565D01*
X91788256Y-80775429D01*
X91744360Y-80721070D01*
X91736820Y-80651608D01*
X91768031Y-80589097D01*
X91828083Y-80553383D01*
X91858872Y-80549500D01*
X93198903Y-80549500D01*
X93265942Y-80569185D01*
X93286584Y-80585819D01*
X95013181Y-82312416D01*
X95046666Y-82373739D01*
X95049500Y-82400097D01*
X95049500Y-85314208D01*
X95049501Y-85314223D01*
X95059904Y-85446413D01*
X95059905Y-85446420D01*
X95114902Y-85664678D01*
X95114903Y-85664681D01*
X95207991Y-85869622D01*
X95207997Y-85869632D01*
X95336174Y-86054645D01*
X95336178Y-86054650D01*
X95336181Y-86054654D01*
X95495346Y-86213819D01*
X95495350Y-86213822D01*
X95495354Y-86213825D01*
X95595696Y-86283342D01*
X95680374Y-86342007D01*
X95885317Y-86435096D01*
X95885321Y-86435097D01*
X96103579Y-86490094D01*
X96103581Y-86490094D01*
X96103588Y-86490096D01*
X96235783Y-86500500D01*
X97864216Y-86500499D01*
X97996412Y-86490096D01*
X98214683Y-86435096D01*
X98419626Y-86342007D01*
X98604654Y-86213819D01*
X98763819Y-86054654D01*
X98858424Y-85918099D01*
X98912782Y-85874204D01*
X98982244Y-85866664D01*
X99044755Y-85897875D01*
X99060668Y-85915828D01*
X99105483Y-85977510D01*
X99272490Y-86144517D01*
X99463567Y-86283343D01*
X99562991Y-86334002D01*
X99674003Y-86390566D01*
X99674005Y-86390566D01*
X99674008Y-86390568D01*
X99794412Y-86429689D01*
X99898631Y-86463553D01*
X100131903Y-86500500D01*
X100131908Y-86500500D01*
X101868097Y-86500500D01*
X102101368Y-86463553D01*
X102325992Y-86390568D01*
X102536433Y-86283343D01*
X102727510Y-86144517D01*
X102894517Y-85977510D01*
X103033343Y-85786433D01*
X103136630Y-85583719D01*
X103140566Y-85575996D01*
X103140566Y-85575995D01*
X103140568Y-85575992D01*
X103213553Y-85351368D01*
X103219440Y-85314197D01*
X103250500Y-85118097D01*
X103250500Y-84881902D01*
X103213553Y-84648631D01*
X103140566Y-84424003D01*
X103047778Y-84241898D01*
X103033343Y-84213567D01*
X102894517Y-84022490D01*
X102727510Y-83855483D01*
X102536433Y-83716657D01*
X102517729Y-83707127D01*
X102325996Y-83609433D01*
X102101368Y-83536446D01*
X101868097Y-83499500D01*
X101868092Y-83499500D01*
X100400097Y-83499500D01*
X100333058Y-83479815D01*
X100312416Y-83463181D01*
X99585819Y-82736584D01*
X99552334Y-82675261D01*
X99549500Y-82648903D01*
X99549500Y-81520784D01*
X99569185Y-81453745D01*
X99621989Y-81407990D01*
X99691147Y-81398046D01*
X99711812Y-81402851D01*
X99831459Y-81441727D01*
X99898631Y-81463553D01*
X100131903Y-81500500D01*
X100131908Y-81500500D01*
X101868097Y-81500500D01*
X102101368Y-81463553D01*
X102149804Y-81447815D01*
X102325992Y-81390568D01*
X102536433Y-81283343D01*
X102727510Y-81144517D01*
X102894517Y-80977510D01*
X103033343Y-80786433D01*
X103128481Y-80599713D01*
X103176454Y-80548918D01*
X103244275Y-80532123D01*
X103310410Y-80554660D01*
X103353862Y-80609375D01*
X103356896Y-80617691D01*
X103412103Y-80787603D01*
X103412104Y-80787606D01*
X103460184Y-80881966D01*
X103508867Y-80977511D01*
X103512187Y-80984025D01*
X103641752Y-81162358D01*
X103641756Y-81162363D01*
X103797636Y-81318243D01*
X103797641Y-81318247D01*
X103899606Y-81392328D01*
X103975978Y-81447815D01*
X104104375Y-81513237D01*
X104172393Y-81547895D01*
X104172396Y-81547896D01*
X104277221Y-81581955D01*
X104382049Y-81616015D01*
X104599778Y-81650500D01*
X104599779Y-81650500D01*
X104820221Y-81650500D01*
X104820222Y-81650500D01*
X105037951Y-81616015D01*
X105247606Y-81547895D01*
X105444022Y-81447815D01*
X105622365Y-81318242D01*
X105672536Y-81268070D01*
X105733857Y-81234586D01*
X105803548Y-81239570D01*
X105859482Y-81281441D01*
X105876398Y-81312419D01*
X105906202Y-81392328D01*
X105906206Y-81392335D01*
X105992452Y-81507544D01*
X105992455Y-81507547D01*
X106107664Y-81593793D01*
X106107671Y-81593797D01*
X106242517Y-81644091D01*
X106242516Y-81644091D01*
X106249444Y-81644835D01*
X106302127Y-81650500D01*
X108197872Y-81650499D01*
X108257483Y-81644091D01*
X108392331Y-81593796D01*
X108507546Y-81507546D01*
X108593796Y-81392331D01*
X108644091Y-81257483D01*
X108650500Y-81197873D01*
X108650499Y-79302128D01*
X108644091Y-79242517D01*
X108643006Y-79239609D01*
X108593797Y-79107671D01*
X108593793Y-79107664D01*
X108507547Y-78992455D01*
X108400188Y-78912085D01*
X108358318Y-78856151D01*
X108350500Y-78812819D01*
X108350500Y-75550096D01*
X108370185Y-75483057D01*
X108386815Y-75462419D01*
X109037819Y-74811414D01*
X109099142Y-74777930D01*
X109168834Y-74782914D01*
X109224767Y-74824786D01*
X109249184Y-74890250D01*
X109249500Y-74899096D01*
X109249500Y-86625500D01*
X109229815Y-86692539D01*
X109177011Y-86738294D01*
X109125500Y-86749500D01*
X33624500Y-86749500D01*
X33557461Y-86729815D01*
X33511706Y-86677011D01*
X33500500Y-86625500D01*
X33500500Y-84960863D01*
X33520185Y-84893824D01*
X33572989Y-84848069D01*
X33642147Y-84838125D01*
X33705703Y-84867150D01*
X33739061Y-84913411D01*
X33756650Y-84955876D01*
X33756657Y-84955890D01*
X33871392Y-85154617D01*
X34011081Y-85336661D01*
X34011089Y-85336670D01*
X34173330Y-85498911D01*
X34173338Y-85498918D01*
X34173339Y-85498919D01*
X34199646Y-85519105D01*
X34355382Y-85638607D01*
X34355385Y-85638608D01*
X34355388Y-85638611D01*
X34554112Y-85753344D01*
X34554117Y-85753346D01*
X34554123Y-85753349D01*
X34645480Y-85791190D01*
X34766113Y-85841158D01*
X34987762Y-85900548D01*
X35215266Y-85930500D01*
X35215273Y-85930500D01*
X35444727Y-85930500D01*
X35444734Y-85930500D01*
X35672238Y-85900548D01*
X35893887Y-85841158D01*
X36105888Y-85753344D01*
X36304612Y-85638611D01*
X36486661Y-85498919D01*
X36486665Y-85498914D01*
X36486670Y-85498911D01*
X36648911Y-85336670D01*
X36648914Y-85336665D01*
X36648919Y-85336661D01*
X36788611Y-85154612D01*
X36903344Y-84955888D01*
X36991158Y-84743887D01*
X37015726Y-84652195D01*
X37052090Y-84592538D01*
X37114936Y-84562008D01*
X37184312Y-84570302D01*
X37238190Y-84614787D01*
X37259465Y-84681339D01*
X37259500Y-84684291D01*
X37259500Y-84768097D01*
X37296446Y-85001368D01*
X37369433Y-85225996D01*
X37425825Y-85336670D01*
X37476657Y-85436433D01*
X37615483Y-85627510D01*
X37782490Y-85794517D01*
X37973567Y-85933343D01*
X38060250Y-85977510D01*
X38184003Y-86040566D01*
X38184005Y-86040566D01*
X38184008Y-86040568D01*
X38304412Y-86079689D01*
X38408631Y-86113553D01*
X38641903Y-86150500D01*
X38641908Y-86150500D01*
X38878097Y-86150500D01*
X39111368Y-86113553D01*
X39112870Y-86113065D01*
X39335992Y-86040568D01*
X39546433Y-85933343D01*
X39737510Y-85794517D01*
X39904517Y-85627510D01*
X39951370Y-85563022D01*
X39955713Y-85558199D01*
X39980150Y-85543142D01*
X40002877Y-85525618D01*
X40010393Y-85524509D01*
X40015199Y-85521549D01*
X40028730Y-85521806D01*
X40057594Y-85517551D01*
X40077340Y-85519105D01*
X40808871Y-84787574D01*
X40824755Y-84846853D01*
X40891898Y-84963147D01*
X40986853Y-85058102D01*
X41103147Y-85125245D01*
X41162425Y-85141128D01*
X40430893Y-85872658D01*
X40513828Y-85932914D01*
X40724197Y-86040102D01*
X40948752Y-86113065D01*
X40948751Y-86113065D01*
X41181948Y-86150000D01*
X41418052Y-86150000D01*
X41651247Y-86113065D01*
X41875802Y-86040102D01*
X42086163Y-85932918D01*
X42086169Y-85932914D01*
X42169104Y-85872658D01*
X42169105Y-85872658D01*
X41437574Y-85141128D01*
X41496853Y-85125245D01*
X41613147Y-85058102D01*
X41708102Y-84963147D01*
X41775245Y-84846853D01*
X41791128Y-84787574D01*
X42522657Y-85519104D01*
X42542404Y-85517550D01*
X42610781Y-85531914D01*
X42652451Y-85568282D01*
X42695483Y-85627510D01*
X42862490Y-85794517D01*
X43053567Y-85933343D01*
X43140250Y-85977510D01*
X43264003Y-86040566D01*
X43264005Y-86040566D01*
X43264008Y-86040568D01*
X43384412Y-86079689D01*
X43488631Y-86113553D01*
X43721903Y-86150500D01*
X43721908Y-86150500D01*
X43958097Y-86150500D01*
X44191368Y-86113553D01*
X44192870Y-86113065D01*
X44415992Y-86040568D01*
X44626433Y-85933343D01*
X44817510Y-85794517D01*
X44984517Y-85627510D01*
X45009682Y-85592872D01*
X45065011Y-85550207D01*
X45134625Y-85544228D01*
X45196420Y-85576833D01*
X45210315Y-85592870D01*
X45235483Y-85627510D01*
X45402490Y-85794517D01*
X45593567Y-85933343D01*
X45680250Y-85977510D01*
X45804003Y-86040566D01*
X45804005Y-86040566D01*
X45804008Y-86040568D01*
X45924412Y-86079689D01*
X46028631Y-86113553D01*
X46261903Y-86150500D01*
X46261908Y-86150500D01*
X46498097Y-86150500D01*
X46731368Y-86113553D01*
X46732870Y-86113065D01*
X46955992Y-86040568D01*
X47166433Y-85933343D01*
X47357510Y-85794517D01*
X47524517Y-85627510D01*
X47549682Y-85592872D01*
X47605011Y-85550207D01*
X47674625Y-85544228D01*
X47736420Y-85576833D01*
X47750315Y-85592870D01*
X47775483Y-85627510D01*
X47942490Y-85794517D01*
X48133567Y-85933343D01*
X48220250Y-85977510D01*
X48344003Y-86040566D01*
X48344005Y-86040566D01*
X48344008Y-86040568D01*
X48464412Y-86079689D01*
X48568631Y-86113553D01*
X48801903Y-86150500D01*
X48801908Y-86150500D01*
X49038097Y-86150500D01*
X49271368Y-86113553D01*
X49272870Y-86113065D01*
X49495992Y-86040568D01*
X49706433Y-85933343D01*
X49897510Y-85794517D01*
X50064517Y-85627510D01*
X50089682Y-85592872D01*
X50145011Y-85550207D01*
X50214625Y-85544228D01*
X50276420Y-85576833D01*
X50290315Y-85592870D01*
X50315483Y-85627510D01*
X50482490Y-85794517D01*
X50673567Y-85933343D01*
X50760250Y-85977510D01*
X50884003Y-86040566D01*
X50884005Y-86040566D01*
X50884008Y-86040568D01*
X51004412Y-86079689D01*
X51108631Y-86113553D01*
X51341903Y-86150500D01*
X51341908Y-86150500D01*
X51578097Y-86150500D01*
X51811368Y-86113553D01*
X51812870Y-86113065D01*
X52035992Y-86040568D01*
X52246433Y-85933343D01*
X52437510Y-85794517D01*
X52604517Y-85627510D01*
X52629682Y-85592872D01*
X52685011Y-85550207D01*
X52754625Y-85544228D01*
X52816420Y-85576833D01*
X52830315Y-85592870D01*
X52855483Y-85627510D01*
X53022490Y-85794517D01*
X53213567Y-85933343D01*
X53300250Y-85977510D01*
X53424003Y-86040566D01*
X53424005Y-86040566D01*
X53424008Y-86040568D01*
X53544412Y-86079689D01*
X53648631Y-86113553D01*
X53881903Y-86150500D01*
X53881908Y-86150500D01*
X54118097Y-86150500D01*
X54351368Y-86113553D01*
X54352870Y-86113065D01*
X54575992Y-86040568D01*
X54786433Y-85933343D01*
X54977510Y-85794517D01*
X55144517Y-85627510D01*
X55169682Y-85592872D01*
X55225011Y-85550207D01*
X55294625Y-85544228D01*
X55356420Y-85576833D01*
X55370315Y-85592870D01*
X55395483Y-85627510D01*
X55562490Y-85794517D01*
X55753567Y-85933343D01*
X55840250Y-85977510D01*
X55964003Y-86040566D01*
X55964005Y-86040566D01*
X55964008Y-86040568D01*
X56084412Y-86079689D01*
X56188631Y-86113553D01*
X56421903Y-86150500D01*
X56421908Y-86150500D01*
X56658097Y-86150500D01*
X56891368Y-86113553D01*
X56892870Y-86113065D01*
X57115992Y-86040568D01*
X57326433Y-85933343D01*
X57517510Y-85794517D01*
X57684517Y-85627510D01*
X57709682Y-85592872D01*
X57765011Y-85550207D01*
X57834625Y-85544228D01*
X57896420Y-85576833D01*
X57910315Y-85592870D01*
X57935483Y-85627510D01*
X58102490Y-85794517D01*
X58293567Y-85933343D01*
X58380250Y-85977510D01*
X58504003Y-86040566D01*
X58504005Y-86040566D01*
X58504008Y-86040568D01*
X58624412Y-86079689D01*
X58728631Y-86113553D01*
X58961903Y-86150500D01*
X58961908Y-86150500D01*
X59198097Y-86150500D01*
X59431368Y-86113553D01*
X59432870Y-86113065D01*
X59655992Y-86040568D01*
X59866433Y-85933343D01*
X60057510Y-85794517D01*
X60224517Y-85627510D01*
X60249682Y-85592872D01*
X60305011Y-85550207D01*
X60374625Y-85544228D01*
X60436420Y-85576833D01*
X60450315Y-85592870D01*
X60475483Y-85627510D01*
X60642490Y-85794517D01*
X60833567Y-85933343D01*
X60920250Y-85977510D01*
X61044003Y-86040566D01*
X61044005Y-86040566D01*
X61044008Y-86040568D01*
X61164412Y-86079689D01*
X61268631Y-86113553D01*
X61501903Y-86150500D01*
X61501908Y-86150500D01*
X61738097Y-86150500D01*
X61971368Y-86113553D01*
X61972870Y-86113065D01*
X62195992Y-86040568D01*
X62406433Y-85933343D01*
X62597510Y-85794517D01*
X62764517Y-85627510D01*
X62789682Y-85592872D01*
X62845011Y-85550207D01*
X62914625Y-85544228D01*
X62976420Y-85576833D01*
X62990315Y-85592870D01*
X63015483Y-85627510D01*
X63182490Y-85794517D01*
X63373567Y-85933343D01*
X63460250Y-85977510D01*
X63584003Y-86040566D01*
X63584005Y-86040566D01*
X63584008Y-86040568D01*
X63704412Y-86079689D01*
X63808631Y-86113553D01*
X64041903Y-86150500D01*
X64041908Y-86150500D01*
X64278097Y-86150500D01*
X64511368Y-86113553D01*
X64512870Y-86113065D01*
X64735992Y-86040568D01*
X64946433Y-85933343D01*
X65137510Y-85794517D01*
X65304517Y-85627510D01*
X65329682Y-85592872D01*
X65385011Y-85550207D01*
X65454625Y-85544228D01*
X65516420Y-85576833D01*
X65530315Y-85592870D01*
X65555483Y-85627510D01*
X65722490Y-85794517D01*
X65913567Y-85933343D01*
X66000250Y-85977510D01*
X66124003Y-86040566D01*
X66124005Y-86040566D01*
X66124008Y-86040568D01*
X66244412Y-86079689D01*
X66348631Y-86113553D01*
X66581903Y-86150500D01*
X66581908Y-86150500D01*
X66818097Y-86150500D01*
X67051368Y-86113553D01*
X67052870Y-86113065D01*
X67275992Y-86040568D01*
X67486433Y-85933343D01*
X67677510Y-85794517D01*
X67844517Y-85627510D01*
X67869682Y-85592872D01*
X67925011Y-85550207D01*
X67994625Y-85544228D01*
X68056420Y-85576833D01*
X68070315Y-85592870D01*
X68095483Y-85627510D01*
X68262490Y-85794517D01*
X68453567Y-85933343D01*
X68540250Y-85977510D01*
X68664003Y-86040566D01*
X68664005Y-86040566D01*
X68664008Y-86040568D01*
X68784412Y-86079689D01*
X68888631Y-86113553D01*
X69121903Y-86150500D01*
X69121908Y-86150500D01*
X69358097Y-86150500D01*
X69591368Y-86113553D01*
X69592870Y-86113065D01*
X69815992Y-86040568D01*
X70026433Y-85933343D01*
X70217510Y-85794517D01*
X70384517Y-85627510D01*
X70409682Y-85592872D01*
X70465011Y-85550207D01*
X70534625Y-85544228D01*
X70596420Y-85576833D01*
X70610315Y-85592870D01*
X70635483Y-85627510D01*
X70802490Y-85794517D01*
X70993567Y-85933343D01*
X71080250Y-85977510D01*
X71204003Y-86040566D01*
X71204005Y-86040566D01*
X71204008Y-86040568D01*
X71324412Y-86079689D01*
X71428631Y-86113553D01*
X71661903Y-86150500D01*
X71661908Y-86150500D01*
X71898097Y-86150500D01*
X72131368Y-86113553D01*
X72132870Y-86113065D01*
X72355992Y-86040568D01*
X72566433Y-85933343D01*
X72757510Y-85794517D01*
X72924517Y-85627510D01*
X72949682Y-85592872D01*
X73005011Y-85550207D01*
X73074625Y-85544228D01*
X73136420Y-85576833D01*
X73150315Y-85592870D01*
X73175483Y-85627510D01*
X73342490Y-85794517D01*
X73533567Y-85933343D01*
X73620250Y-85977510D01*
X73744003Y-86040566D01*
X73744005Y-86040566D01*
X73744008Y-86040568D01*
X73864412Y-86079689D01*
X73968631Y-86113553D01*
X74201903Y-86150500D01*
X74201908Y-86150500D01*
X74438097Y-86150500D01*
X74671368Y-86113553D01*
X74672870Y-86113065D01*
X74895992Y-86040568D01*
X75106433Y-85933343D01*
X75297510Y-85794517D01*
X75464517Y-85627510D01*
X75603343Y-85436433D01*
X75710568Y-85225992D01*
X75783553Y-85001368D01*
X75797484Y-84913411D01*
X75820500Y-84768097D01*
X75820500Y-84531902D01*
X75795868Y-84376390D01*
X75783553Y-84298632D01*
X75742547Y-84172433D01*
X75742113Y-84157221D01*
X75736795Y-84142962D01*
X75741136Y-84123006D01*
X75740553Y-84102593D01*
X75748641Y-84088506D01*
X75751647Y-84074689D01*
X75758707Y-84065258D01*
X80529500Y-84065258D01*
X80529500Y-84294741D01*
X80550356Y-84453147D01*
X80559452Y-84522238D01*
X80611676Y-84717143D01*
X80618842Y-84743887D01*
X80706650Y-84955876D01*
X80706657Y-84955890D01*
X80821392Y-85154617D01*
X80961081Y-85336661D01*
X80961089Y-85336670D01*
X81123330Y-85498911D01*
X81123338Y-85498918D01*
X81123339Y-85498919D01*
X81149646Y-85519105D01*
X81305382Y-85638607D01*
X81305385Y-85638608D01*
X81305388Y-85638611D01*
X81504112Y-85753344D01*
X81504117Y-85753346D01*
X81504123Y-85753349D01*
X81595480Y-85791190D01*
X81716113Y-85841158D01*
X81937762Y-85900548D01*
X82165266Y-85930500D01*
X82165273Y-85930500D01*
X82394727Y-85930500D01*
X82394734Y-85930500D01*
X82622238Y-85900548D01*
X82843887Y-85841158D01*
X83055888Y-85753344D01*
X83254612Y-85638611D01*
X83436661Y-85498919D01*
X83436665Y-85498914D01*
X83436670Y-85498911D01*
X83598911Y-85336670D01*
X83598914Y-85336665D01*
X83598919Y-85336661D01*
X83616156Y-85314197D01*
X88250001Y-85314197D01*
X88260400Y-85446332D01*
X88315377Y-85664519D01*
X88408428Y-85869374D01*
X88408431Y-85869380D01*
X88536559Y-86054323D01*
X88536569Y-86054335D01*
X88695664Y-86213430D01*
X88695676Y-86213440D01*
X88880619Y-86341568D01*
X88880625Y-86341571D01*
X89085480Y-86434622D01*
X89303667Y-86489599D01*
X89435810Y-86499999D01*
X89999999Y-86499999D01*
X90500000Y-86499999D01*
X91064182Y-86499999D01*
X91064197Y-86499998D01*
X91196332Y-86489599D01*
X91414519Y-86434622D01*
X91619374Y-86341571D01*
X91619380Y-86341568D01*
X91804323Y-86213440D01*
X91804335Y-86213430D01*
X91963430Y-86054335D01*
X91963440Y-86054323D01*
X92091568Y-85869380D01*
X92091571Y-85869374D01*
X92184622Y-85664519D01*
X92239599Y-85446332D01*
X92249999Y-85314196D01*
X92250000Y-85314184D01*
X92250000Y-83750000D01*
X90500000Y-83750000D01*
X90500000Y-86499999D01*
X89999999Y-86499999D01*
X90000000Y-86499998D01*
X90000000Y-83750000D01*
X88250001Y-83750000D01*
X88250001Y-85314197D01*
X83616156Y-85314197D01*
X83738611Y-85154612D01*
X83853344Y-84955888D01*
X83941158Y-84743887D01*
X84000548Y-84522238D01*
X84030500Y-84294734D01*
X84030500Y-84065266D01*
X84000548Y-83837762D01*
X83941158Y-83616113D01*
X83877811Y-83463181D01*
X83853349Y-83404123D01*
X83853346Y-83404117D01*
X83853344Y-83404112D01*
X83738611Y-83205388D01*
X83738608Y-83205385D01*
X83738607Y-83205382D01*
X83598918Y-83023338D01*
X83598911Y-83023330D01*
X83531355Y-82955774D01*
X83497870Y-82894451D01*
X83502854Y-82824759D01*
X83544726Y-82768826D01*
X83606435Y-82744735D01*
X83626055Y-82742730D01*
X83652797Y-82739999D01*
X83819334Y-82684814D01*
X83968656Y-82592712D01*
X84092712Y-82468656D01*
X84184814Y-82319334D01*
X84239999Y-82152797D01*
X84250500Y-82050009D01*
X84250499Y-80449992D01*
X84239999Y-80347203D01*
X84184814Y-80180666D01*
X84092712Y-80031344D01*
X83968656Y-79907288D01*
X83819334Y-79815186D01*
X83652797Y-79760001D01*
X83652795Y-79760000D01*
X83550010Y-79749500D01*
X81949998Y-79749500D01*
X81949981Y-79749501D01*
X81847203Y-79760000D01*
X81847200Y-79760001D01*
X81680668Y-79815185D01*
X81680663Y-79815187D01*
X81531342Y-79907289D01*
X81407289Y-80031342D01*
X81315187Y-80180663D01*
X81315186Y-80180666D01*
X81260001Y-80347203D01*
X81260001Y-80347204D01*
X81260000Y-80347204D01*
X81249500Y-80449983D01*
X81249500Y-82050001D01*
X81249501Y-82050018D01*
X81260000Y-82152796D01*
X81260001Y-82152799D01*
X81315185Y-82319331D01*
X81315187Y-82319336D01*
X81348743Y-82373739D01*
X81401610Y-82459451D01*
X81407289Y-82468657D01*
X81415948Y-82477316D01*
X81449433Y-82538639D01*
X81444449Y-82608331D01*
X81402577Y-82664264D01*
X81390272Y-82672381D01*
X81368738Y-82684814D01*
X81305379Y-82721394D01*
X81123338Y-82861081D01*
X80961081Y-83023338D01*
X80821392Y-83205382D01*
X80706657Y-83404109D01*
X80706650Y-83404123D01*
X80618842Y-83616112D01*
X80603736Y-83672490D01*
X80582968Y-83750000D01*
X80559453Y-83837759D01*
X80559451Y-83837770D01*
X80529500Y-84065258D01*
X75758707Y-84065258D01*
X75772795Y-84046438D01*
X80358506Y-79460728D01*
X80358511Y-79460724D01*
X80368714Y-79450520D01*
X80368716Y-79450520D01*
X80480520Y-79338716D01*
X80537741Y-79239606D01*
X80537744Y-79239602D01*
X80559574Y-79201790D01*
X80559575Y-79201789D01*
X80559575Y-79201787D01*
X80559577Y-79201785D01*
X80600501Y-79049057D01*
X80600501Y-78890943D01*
X80600501Y-78883348D01*
X80600500Y-78883330D01*
X80600500Y-63631947D01*
X81000000Y-63631947D01*
X81000000Y-63868052D01*
X81036934Y-64101247D01*
X81109897Y-64325802D01*
X81217087Y-64536174D01*
X81277338Y-64619104D01*
X81277340Y-64619105D01*
X82017037Y-63879408D01*
X82034075Y-63942993D01*
X82099901Y-64057007D01*
X82192993Y-64150099D01*
X82307007Y-64215925D01*
X82370591Y-64232962D01*
X81630894Y-64972658D01*
X81683760Y-65011069D01*
X81686510Y-65008320D01*
X81747832Y-64974834D01*
X81817524Y-64979818D01*
X81861873Y-65008319D01*
X82620591Y-65767037D01*
X82557007Y-65784075D01*
X82442993Y-65849901D01*
X82349901Y-65942993D01*
X82284075Y-66057007D01*
X82267037Y-66120591D01*
X81527340Y-65380894D01*
X81467084Y-65463830D01*
X81359897Y-65674197D01*
X81286934Y-65898752D01*
X81250000Y-66131947D01*
X81250000Y-66368052D01*
X81286934Y-66601247D01*
X81359897Y-66825802D01*
X81467087Y-67036174D01*
X81527338Y-67119104D01*
X81527340Y-67119105D01*
X82267037Y-66379408D01*
X82284075Y-66442993D01*
X82349901Y-66557007D01*
X82442993Y-66650099D01*
X82557007Y-66715925D01*
X82620590Y-66732962D01*
X81880893Y-67472658D01*
X81963828Y-67532914D01*
X82174197Y-67640102D01*
X82398752Y-67713065D01*
X82398751Y-67713065D01*
X82631948Y-67750000D01*
X82868052Y-67750000D01*
X83101247Y-67713065D01*
X83325802Y-67640102D01*
X83536163Y-67532918D01*
X83536169Y-67532914D01*
X83619104Y-67472658D01*
X83619105Y-67472658D01*
X82879408Y-66732962D01*
X82942993Y-66715925D01*
X83057007Y-66650099D01*
X83150099Y-66557007D01*
X83215925Y-66442993D01*
X83232962Y-66379408D01*
X83972658Y-67119105D01*
X83972658Y-67119104D01*
X84032914Y-67036169D01*
X84032918Y-67036163D01*
X84140102Y-66825802D01*
X84213065Y-66601247D01*
X84250000Y-66368052D01*
X84250000Y-66131947D01*
X84213065Y-65898752D01*
X84140102Y-65674197D01*
X84032914Y-65463828D01*
X83972658Y-65380894D01*
X83972658Y-65380893D01*
X83232962Y-66120590D01*
X83215925Y-66057007D01*
X83150099Y-65942993D01*
X83057007Y-65849901D01*
X82942993Y-65784075D01*
X82879409Y-65767037D01*
X83619105Y-65027341D01*
X83619104Y-65027340D01*
X83566237Y-64988928D01*
X83566236Y-64988929D01*
X83563487Y-64991679D01*
X83502164Y-65025164D01*
X83432472Y-65020180D01*
X83388125Y-64991679D01*
X82629408Y-64232962D01*
X82692993Y-64215925D01*
X82807007Y-64150099D01*
X82900099Y-64057007D01*
X82965925Y-63942993D01*
X82982962Y-63879409D01*
X83722658Y-64619105D01*
X83722658Y-64619104D01*
X83782914Y-64536169D01*
X83782918Y-64536163D01*
X83890102Y-64325802D01*
X83963065Y-64101247D01*
X84000000Y-63868052D01*
X84000000Y-63631947D01*
X83963065Y-63398752D01*
X83890102Y-63174197D01*
X83782914Y-62963828D01*
X83722658Y-62880894D01*
X83722658Y-62880893D01*
X82982962Y-63620590D01*
X82965925Y-63557007D01*
X82900099Y-63442993D01*
X82807007Y-63349901D01*
X82692993Y-63284075D01*
X82629409Y-63267037D01*
X83369105Y-62527340D01*
X83369104Y-62527338D01*
X83286174Y-62467087D01*
X83075802Y-62359897D01*
X82851247Y-62286934D01*
X82851248Y-62286934D01*
X82618052Y-62250000D01*
X82381948Y-62250000D01*
X82148752Y-62286934D01*
X81924197Y-62359897D01*
X81713830Y-62467084D01*
X81630894Y-62527340D01*
X82370591Y-63267037D01*
X82307007Y-63284075D01*
X82192993Y-63349901D01*
X82099901Y-63442993D01*
X82034075Y-63557007D01*
X82017037Y-63620590D01*
X81277340Y-62880894D01*
X81217084Y-62963830D01*
X81109897Y-63174197D01*
X81036934Y-63398752D01*
X81000000Y-63631947D01*
X80600500Y-63631947D01*
X80600500Y-60722036D01*
X80620185Y-60654997D01*
X80672989Y-60609242D01*
X80742147Y-60599298D01*
X80805703Y-60628323D01*
X80822875Y-60646549D01*
X80961081Y-60826661D01*
X80961089Y-60826670D01*
X81123330Y-60988911D01*
X81123338Y-60988918D01*
X81123339Y-60988919D01*
X81151189Y-61010289D01*
X81305382Y-61128607D01*
X81305385Y-61128608D01*
X81305388Y-61128611D01*
X81504112Y-61243344D01*
X81504117Y-61243346D01*
X81504123Y-61243349D01*
X81580536Y-61275000D01*
X81716113Y-61331158D01*
X81937762Y-61390548D01*
X82165266Y-61420500D01*
X82165273Y-61420500D01*
X82394727Y-61420500D01*
X82394734Y-61420500D01*
X82622238Y-61390548D01*
X82843887Y-61331158D01*
X83055888Y-61243344D01*
X83254612Y-61128611D01*
X83436661Y-60988919D01*
X83436665Y-60988914D01*
X83436670Y-60988911D01*
X83598911Y-60826670D01*
X83598914Y-60826665D01*
X83598919Y-60826661D01*
X83738611Y-60644612D01*
X83853344Y-60445888D01*
X83941158Y-60233887D01*
X84000548Y-60012238D01*
X84030500Y-59784734D01*
X84030500Y-59555266D01*
X84000548Y-59327762D01*
X83941158Y-59106113D01*
X83876026Y-58948871D01*
X83853349Y-58894123D01*
X83853346Y-58894117D01*
X83853344Y-58894112D01*
X83738611Y-58695388D01*
X83738608Y-58695385D01*
X83738607Y-58695382D01*
X83627798Y-58550975D01*
X83598919Y-58513339D01*
X83598918Y-58513338D01*
X83598911Y-58513330D01*
X83436670Y-58351089D01*
X83436661Y-58351081D01*
X83254617Y-58211392D01*
X83230418Y-58197421D01*
X83129239Y-58139005D01*
X83055890Y-58096657D01*
X83055876Y-58096650D01*
X82843887Y-58008842D01*
X82839491Y-58007664D01*
X82622238Y-57949452D01*
X82584215Y-57944446D01*
X82394741Y-57919500D01*
X82394734Y-57919500D01*
X82165266Y-57919500D01*
X82165258Y-57919500D01*
X81948715Y-57948009D01*
X81937762Y-57949452D01*
X81871958Y-57967084D01*
X81716112Y-58008842D01*
X81504123Y-58096650D01*
X81504109Y-58096657D01*
X81305382Y-58211392D01*
X81123338Y-58351081D01*
X80961089Y-58513330D01*
X80961087Y-58513331D01*
X80961082Y-58513338D01*
X80961081Y-58513339D01*
X80947873Y-58530550D01*
X80891446Y-58571752D01*
X80821700Y-58575906D01*
X80760780Y-58541692D01*
X80728028Y-58479974D01*
X80725500Y-58455062D01*
X80725500Y-33295945D01*
X80725500Y-33295943D01*
X80684577Y-33143216D01*
X80684577Y-33143215D01*
X80648690Y-33081057D01*
X80634805Y-33057007D01*
X80605524Y-33006290D01*
X80605521Y-33006286D01*
X80605520Y-33006284D01*
X80493716Y-32894480D01*
X80493715Y-32894479D01*
X80489385Y-32890149D01*
X80489374Y-32890139D01*
X72561416Y-24962181D01*
X72527931Y-24900858D01*
X72532915Y-24831166D01*
X72574787Y-24775233D01*
X72640251Y-24750816D01*
X72649097Y-24750500D01*
X109125500Y-24750500D01*
X109192539Y-24770185D01*
G37*
%TD.AperFunction*%
%TA.AperFunction,Conductor*%
G36*
X40025203Y-63204776D02*
G01*
X40031681Y-63210808D01*
X50823181Y-74002308D01*
X50856666Y-74063631D01*
X50859500Y-74089989D01*
X50859500Y-83195931D01*
X50839815Y-83262970D01*
X50791796Y-83306415D01*
X50673568Y-83366655D01*
X50590044Y-83427340D01*
X50482490Y-83505483D01*
X50482488Y-83505485D01*
X50482487Y-83505485D01*
X50315484Y-83672488D01*
X50290318Y-83707127D01*
X50234987Y-83749792D01*
X50165374Y-83755771D01*
X50103579Y-83723165D01*
X50089682Y-83707127D01*
X50064517Y-83672490D01*
X49897510Y-83505483D01*
X49706433Y-83366657D01*
X49706429Y-83366655D01*
X49495996Y-83259433D01*
X49271368Y-83186446D01*
X49038097Y-83149500D01*
X49038092Y-83149500D01*
X48801908Y-83149500D01*
X48801903Y-83149500D01*
X48568631Y-83186446D01*
X48344003Y-83259433D01*
X48133566Y-83366657D01*
X48050047Y-83427338D01*
X47942490Y-83505483D01*
X47942488Y-83505485D01*
X47942487Y-83505485D01*
X47775484Y-83672488D01*
X47750318Y-83707127D01*
X47694987Y-83749792D01*
X47625374Y-83755771D01*
X47563579Y-83723165D01*
X47549682Y-83707127D01*
X47524517Y-83672490D01*
X47357510Y-83505483D01*
X47166433Y-83366657D01*
X47166429Y-83366655D01*
X46955996Y-83259433D01*
X46731368Y-83186446D01*
X46498097Y-83149500D01*
X46498092Y-83149500D01*
X46261908Y-83149500D01*
X46261903Y-83149500D01*
X46028631Y-83186446D01*
X45804003Y-83259433D01*
X45593566Y-83366657D01*
X45510047Y-83427338D01*
X45402490Y-83505483D01*
X45402488Y-83505485D01*
X45402487Y-83505485D01*
X45235484Y-83672488D01*
X45210318Y-83707127D01*
X45154987Y-83749792D01*
X45085374Y-83755771D01*
X45023579Y-83723165D01*
X45009682Y-83707127D01*
X44984517Y-83672490D01*
X44817510Y-83505483D01*
X44626433Y-83366657D01*
X44626429Y-83366655D01*
X44415996Y-83259433D01*
X44191368Y-83186446D01*
X43958097Y-83149500D01*
X43958092Y-83149500D01*
X43721908Y-83149500D01*
X43721903Y-83149500D01*
X43488631Y-83186446D01*
X43264003Y-83259433D01*
X43053566Y-83366657D01*
X42970047Y-83427338D01*
X42862490Y-83505483D01*
X42862488Y-83505485D01*
X42862487Y-83505485D01*
X42695482Y-83672490D01*
X42652451Y-83731717D01*
X42597120Y-83774382D01*
X42542405Y-83782448D01*
X42522658Y-83780893D01*
X41791128Y-84512424D01*
X41775245Y-84453147D01*
X41708102Y-84336853D01*
X41613147Y-84241898D01*
X41496853Y-84174755D01*
X41437574Y-84158871D01*
X42169105Y-83427340D01*
X42169104Y-83427338D01*
X42086174Y-83367087D01*
X41875802Y-83259897D01*
X41651247Y-83186934D01*
X41651248Y-83186934D01*
X41418052Y-83150000D01*
X41181948Y-83150000D01*
X40948752Y-83186934D01*
X40724197Y-83259897D01*
X40513830Y-83367084D01*
X40430894Y-83427340D01*
X41162425Y-84158871D01*
X41103147Y-84174755D01*
X40986853Y-84241898D01*
X40891898Y-84336853D01*
X40824755Y-84453147D01*
X40808871Y-84512424D01*
X40077340Y-83780893D01*
X40057593Y-83782448D01*
X40053860Y-83781663D01*
X40050222Y-83782808D01*
X40019936Y-83774537D01*
X39989215Y-83768084D01*
X39985429Y-83765114D01*
X39982821Y-83764402D01*
X39973431Y-83755701D01*
X39955712Y-83741800D01*
X39951370Y-83736978D01*
X39904517Y-83672490D01*
X39737510Y-83505483D01*
X39546433Y-83366657D01*
X39546429Y-83366655D01*
X39335996Y-83259433D01*
X39111368Y-83186446D01*
X38878097Y-83149500D01*
X38878092Y-83149500D01*
X38641908Y-83149500D01*
X38641903Y-83149500D01*
X38408631Y-83186446D01*
X38184003Y-83259433D01*
X37973566Y-83366657D01*
X37890047Y-83427338D01*
X37782490Y-83505483D01*
X37782488Y-83505485D01*
X37782487Y-83505485D01*
X37615485Y-83672487D01*
X37615485Y-83672488D01*
X37615483Y-83672490D01*
X37573168Y-83730731D01*
X37476657Y-83863566D01*
X37369433Y-84074003D01*
X37322431Y-84218661D01*
X37282993Y-84276336D01*
X37218634Y-84303534D01*
X37149788Y-84291619D01*
X37098312Y-84244375D01*
X37080500Y-84180342D01*
X37080500Y-84065272D01*
X37080499Y-84065258D01*
X37070407Y-83988604D01*
X37050548Y-83837762D01*
X36991158Y-83616113D01*
X36927811Y-83463181D01*
X36903349Y-83404123D01*
X36903346Y-83404117D01*
X36903344Y-83404112D01*
X36788611Y-83205388D01*
X36788608Y-83205385D01*
X36788607Y-83205382D01*
X36648918Y-83023338D01*
X36648911Y-83023330D01*
X36486670Y-82861089D01*
X36486661Y-82861081D01*
X36304617Y-82721392D01*
X36105890Y-82606657D01*
X36105876Y-82606650D01*
X35893887Y-82518842D01*
X35672238Y-82459452D01*
X35634215Y-82454446D01*
X35444741Y-82429500D01*
X35444734Y-82429500D01*
X35215266Y-82429500D01*
X35215258Y-82429500D01*
X34998715Y-82458009D01*
X34987762Y-82459452D01*
X34921092Y-82477316D01*
X34766112Y-82518842D01*
X34554123Y-82606650D01*
X34554109Y-82606657D01*
X34355382Y-82721392D01*
X34173338Y-82861081D01*
X34011081Y-83023338D01*
X33871392Y-83205382D01*
X33756657Y-83404109D01*
X33756652Y-83404118D01*
X33739061Y-83446589D01*
X33695220Y-83500992D01*
X33628926Y-83523057D01*
X33561226Y-83505778D01*
X33513616Y-83454640D01*
X33500500Y-83399136D01*
X33500500Y-80854000D01*
X33520185Y-80786961D01*
X33572989Y-80741206D01*
X33624500Y-80730000D01*
X39820000Y-80730000D01*
X39820000Y-63298489D01*
X39839685Y-63231450D01*
X39892489Y-63185695D01*
X39961647Y-63175751D01*
X40025203Y-63204776D01*
G37*
%TD.AperFunction*%
%TA.AperFunction,Conductor*%
G36*
X71304755Y-59446853D02*
G01*
X71371898Y-59563147D01*
X71466853Y-59658102D01*
X71583147Y-59725245D01*
X71642423Y-59741127D01*
X70910893Y-60472658D01*
X70993828Y-60532914D01*
X71204197Y-60640102D01*
X71428752Y-60713065D01*
X71428751Y-60713065D01*
X71661948Y-60750000D01*
X71898052Y-60750000D01*
X72131247Y-60713065D01*
X72355802Y-60640102D01*
X72566171Y-60532914D01*
X72689977Y-60442964D01*
X72755784Y-60419484D01*
X72823838Y-60435309D01*
X72871779Y-60484640D01*
X72871953Y-60484546D01*
X72872293Y-60485169D01*
X72872532Y-60485415D01*
X72873009Y-60486480D01*
X72876206Y-60492335D01*
X72921087Y-60552287D01*
X72962454Y-60607546D01*
X73073781Y-60690886D01*
X73115652Y-60746819D01*
X73120636Y-60816511D01*
X73087151Y-60877834D01*
X73042804Y-60906334D01*
X72907911Y-60956646D01*
X72907906Y-60956649D01*
X72792812Y-61042809D01*
X72792809Y-61042812D01*
X72706649Y-61157906D01*
X72706645Y-61157913D01*
X72656403Y-61292620D01*
X72656401Y-61292627D01*
X72650000Y-61352155D01*
X72650000Y-62000000D01*
X73566988Y-62000000D01*
X73534075Y-62057007D01*
X73500000Y-62184174D01*
X73500000Y-62315826D01*
X73534075Y-62442993D01*
X73566988Y-62500000D01*
X72650000Y-62500000D01*
X72650000Y-62750903D01*
X72630315Y-62817942D01*
X72588000Y-62858290D01*
X72480287Y-62920477D01*
X72480282Y-62920481D01*
X67019481Y-68381282D01*
X67019479Y-68381285D01*
X66969361Y-68468094D01*
X66969359Y-68468096D01*
X66940425Y-68518209D01*
X66940424Y-68518210D01*
X66940423Y-68518215D01*
X66899499Y-68670943D01*
X66899499Y-68670945D01*
X66899499Y-68839046D01*
X66899500Y-68839059D01*
X66899500Y-74170234D01*
X66879815Y-74237273D01*
X66878602Y-74239125D01*
X66790609Y-74370814D01*
X66790602Y-74370827D01*
X66730264Y-74516498D01*
X66730261Y-74516510D01*
X66699500Y-74671153D01*
X66699500Y-74828846D01*
X66730261Y-74983489D01*
X66730264Y-74983501D01*
X66790602Y-75129172D01*
X66790609Y-75129185D01*
X66878210Y-75260288D01*
X66878213Y-75260292D01*
X66989707Y-75371786D01*
X66989711Y-75371789D01*
X67120814Y-75459390D01*
X67120818Y-75459392D01*
X67120821Y-75459394D01*
X67161887Y-75476404D01*
X67216291Y-75520243D01*
X67238357Y-75586537D01*
X67221079Y-75654236D01*
X67202117Y-75678646D01*
X59683563Y-83197200D01*
X59622240Y-83230685D01*
X59557564Y-83227450D01*
X59431370Y-83186447D01*
X59198097Y-83149500D01*
X59198092Y-83149500D01*
X58961908Y-83149500D01*
X58961903Y-83149500D01*
X58728631Y-83186446D01*
X58504003Y-83259433D01*
X58293566Y-83366657D01*
X58210047Y-83427338D01*
X58102490Y-83505483D01*
X58102488Y-83505485D01*
X58102487Y-83505485D01*
X57935484Y-83672488D01*
X57910318Y-83707127D01*
X57854987Y-83749792D01*
X57785374Y-83755771D01*
X57723579Y-83723165D01*
X57709682Y-83707127D01*
X57684517Y-83672490D01*
X57517510Y-83505483D01*
X57326433Y-83366657D01*
X57326429Y-83366655D01*
X57115996Y-83259433D01*
X56891368Y-83186446D01*
X56658097Y-83149500D01*
X56658092Y-83149500D01*
X56421908Y-83149500D01*
X56421903Y-83149500D01*
X56188631Y-83186446D01*
X55964003Y-83259433D01*
X55753566Y-83366657D01*
X55670047Y-83427338D01*
X55562490Y-83505483D01*
X55562488Y-83505485D01*
X55562487Y-83505485D01*
X55395484Y-83672488D01*
X55370318Y-83707127D01*
X55314987Y-83749792D01*
X55245374Y-83755771D01*
X55183579Y-83723165D01*
X55169682Y-83707127D01*
X55144517Y-83672490D01*
X54977510Y-83505483D01*
X54786433Y-83366657D01*
X54786429Y-83366655D01*
X54575996Y-83259433D01*
X54351368Y-83186446D01*
X54118097Y-83149500D01*
X54118092Y-83149500D01*
X53881908Y-83149500D01*
X53881903Y-83149500D01*
X53648631Y-83186446D01*
X53424003Y-83259433D01*
X53213566Y-83366657D01*
X53130047Y-83427338D01*
X53022490Y-83505483D01*
X53022488Y-83505485D01*
X53022487Y-83505485D01*
X52855484Y-83672488D01*
X52830318Y-83707127D01*
X52774987Y-83749792D01*
X52705374Y-83755771D01*
X52643579Y-83723165D01*
X52629682Y-83707127D01*
X52604517Y-83672490D01*
X52437510Y-83505483D01*
X52329953Y-83427338D01*
X52246431Y-83366655D01*
X52128204Y-83306415D01*
X52077409Y-83258441D01*
X52060500Y-83195931D01*
X52060500Y-73710837D01*
X52060500Y-73710835D01*
X52019971Y-73559577D01*
X52019970Y-73559572D01*
X52019970Y-73559571D01*
X52019577Y-73558107D01*
X51974781Y-73480519D01*
X51974780Y-73480517D01*
X51940521Y-73421178D01*
X51940520Y-73421176D01*
X51828716Y-73309372D01*
X51828715Y-73309371D01*
X51824385Y-73305041D01*
X51824374Y-73305031D01*
X39340028Y-60820685D01*
X39306543Y-60759362D01*
X39311527Y-60689670D01*
X39353399Y-60633737D01*
X39371408Y-60622522D01*
X39546433Y-60533343D01*
X39737510Y-60394517D01*
X39904517Y-60227510D01*
X39929682Y-60192872D01*
X39985011Y-60150207D01*
X40054625Y-60144228D01*
X40116420Y-60176833D01*
X40130315Y-60192870D01*
X40155483Y-60227510D01*
X40322490Y-60394517D01*
X40513567Y-60533343D01*
X40543776Y-60548735D01*
X40724003Y-60640566D01*
X40724005Y-60640566D01*
X40724008Y-60640568D01*
X40844412Y-60679689D01*
X40948631Y-60713553D01*
X41181903Y-60750500D01*
X41181908Y-60750500D01*
X41418097Y-60750500D01*
X41651368Y-60713553D01*
X41666990Y-60708477D01*
X41875992Y-60640568D01*
X42086433Y-60533343D01*
X42277510Y-60394517D01*
X42444517Y-60227510D01*
X42469682Y-60192872D01*
X42525011Y-60150207D01*
X42594625Y-60144228D01*
X42656420Y-60176833D01*
X42670315Y-60192870D01*
X42695483Y-60227510D01*
X42862490Y-60394517D01*
X43053567Y-60533343D01*
X43083776Y-60548735D01*
X43264003Y-60640566D01*
X43264005Y-60640566D01*
X43264008Y-60640568D01*
X43384412Y-60679689D01*
X43488631Y-60713553D01*
X43721903Y-60750500D01*
X43721908Y-60750500D01*
X43958097Y-60750500D01*
X44191368Y-60713553D01*
X44206990Y-60708477D01*
X44415992Y-60640568D01*
X44626433Y-60533343D01*
X44817510Y-60394517D01*
X44984517Y-60227510D01*
X45009682Y-60192872D01*
X45065011Y-60150207D01*
X45134625Y-60144228D01*
X45196420Y-60176833D01*
X45210315Y-60192870D01*
X45235483Y-60227510D01*
X45402490Y-60394517D01*
X45593567Y-60533343D01*
X45623776Y-60548735D01*
X45804003Y-60640566D01*
X45804005Y-60640566D01*
X45804008Y-60640568D01*
X45924412Y-60679689D01*
X46028631Y-60713553D01*
X46261903Y-60750500D01*
X46261908Y-60750500D01*
X46498097Y-60750500D01*
X46731368Y-60713553D01*
X46746990Y-60708477D01*
X46955992Y-60640568D01*
X47166433Y-60533343D01*
X47357510Y-60394517D01*
X47524517Y-60227510D01*
X47549682Y-60192872D01*
X47605011Y-60150207D01*
X47674625Y-60144228D01*
X47736420Y-60176833D01*
X47750315Y-60192870D01*
X47775483Y-60227510D01*
X47942490Y-60394517D01*
X48133567Y-60533343D01*
X48163776Y-60548735D01*
X48344003Y-60640566D01*
X48344005Y-60640566D01*
X48344008Y-60640568D01*
X48464412Y-60679689D01*
X48568631Y-60713553D01*
X48801903Y-60750500D01*
X48801908Y-60750500D01*
X49038097Y-60750500D01*
X49271368Y-60713553D01*
X49286990Y-60708477D01*
X49495992Y-60640568D01*
X49706433Y-60533343D01*
X49897510Y-60394517D01*
X50064517Y-60227510D01*
X50089682Y-60192872D01*
X50145011Y-60150207D01*
X50214625Y-60144228D01*
X50276420Y-60176833D01*
X50290315Y-60192870D01*
X50315483Y-60227510D01*
X50482490Y-60394517D01*
X50673567Y-60533343D01*
X50703776Y-60548735D01*
X50884003Y-60640566D01*
X50884005Y-60640566D01*
X50884008Y-60640568D01*
X51004412Y-60679689D01*
X51108631Y-60713553D01*
X51341903Y-60750500D01*
X51341908Y-60750500D01*
X51578097Y-60750500D01*
X51811368Y-60713553D01*
X51826990Y-60708477D01*
X52035992Y-60640568D01*
X52246433Y-60533343D01*
X52437510Y-60394517D01*
X52604517Y-60227510D01*
X52629682Y-60192872D01*
X52685011Y-60150207D01*
X52754625Y-60144228D01*
X52816420Y-60176833D01*
X52830315Y-60192870D01*
X52855483Y-60227510D01*
X53022490Y-60394517D01*
X53213567Y-60533343D01*
X53243776Y-60548735D01*
X53424003Y-60640566D01*
X53424005Y-60640566D01*
X53424008Y-60640568D01*
X53544412Y-60679689D01*
X53648631Y-60713553D01*
X53881903Y-60750500D01*
X53881908Y-60750500D01*
X54118097Y-60750500D01*
X54351368Y-60713553D01*
X54366990Y-60708477D01*
X54575992Y-60640568D01*
X54786433Y-60533343D01*
X54977510Y-60394517D01*
X55144517Y-60227510D01*
X55169682Y-60192872D01*
X55225011Y-60150207D01*
X55294625Y-60144228D01*
X55356420Y-60176833D01*
X55370315Y-60192870D01*
X55395483Y-60227510D01*
X55562490Y-60394517D01*
X55753567Y-60533343D01*
X55783776Y-60548735D01*
X55964003Y-60640566D01*
X55964005Y-60640566D01*
X55964008Y-60640568D01*
X56084412Y-60679689D01*
X56188631Y-60713553D01*
X56421903Y-60750500D01*
X56421908Y-60750500D01*
X56658097Y-60750500D01*
X56891368Y-60713553D01*
X56906990Y-60708477D01*
X57115992Y-60640568D01*
X57326433Y-60533343D01*
X57517510Y-60394517D01*
X57684517Y-60227510D01*
X57709682Y-60192872D01*
X57765011Y-60150207D01*
X57834625Y-60144228D01*
X57896420Y-60176833D01*
X57910315Y-60192870D01*
X57935483Y-60227510D01*
X58102490Y-60394517D01*
X58293567Y-60533343D01*
X58323776Y-60548735D01*
X58504003Y-60640566D01*
X58504005Y-60640566D01*
X58504008Y-60640568D01*
X58624412Y-60679689D01*
X58728631Y-60713553D01*
X58961903Y-60750500D01*
X58961908Y-60750500D01*
X59198097Y-60750500D01*
X59431368Y-60713553D01*
X59446990Y-60708477D01*
X59655992Y-60640568D01*
X59866433Y-60533343D01*
X60057510Y-60394517D01*
X60224517Y-60227510D01*
X60249682Y-60192872D01*
X60305011Y-60150207D01*
X60374625Y-60144228D01*
X60436420Y-60176833D01*
X60450315Y-60192870D01*
X60475483Y-60227510D01*
X60642490Y-60394517D01*
X60833567Y-60533343D01*
X60863776Y-60548735D01*
X61044003Y-60640566D01*
X61044005Y-60640566D01*
X61044008Y-60640568D01*
X61164412Y-60679689D01*
X61268631Y-60713553D01*
X61501903Y-60750500D01*
X61501908Y-60750500D01*
X61738097Y-60750500D01*
X61971368Y-60713553D01*
X61986990Y-60708477D01*
X62195992Y-60640568D01*
X62406433Y-60533343D01*
X62597510Y-60394517D01*
X62764517Y-60227510D01*
X62789682Y-60192872D01*
X62845011Y-60150207D01*
X62914625Y-60144228D01*
X62976420Y-60176833D01*
X62990315Y-60192870D01*
X63015483Y-60227510D01*
X63182490Y-60394517D01*
X63373567Y-60533343D01*
X63403776Y-60548735D01*
X63584003Y-60640566D01*
X63584005Y-60640566D01*
X63584008Y-60640568D01*
X63704412Y-60679689D01*
X63808631Y-60713553D01*
X64041903Y-60750500D01*
X64041908Y-60750500D01*
X64278097Y-60750500D01*
X64511368Y-60713553D01*
X64526990Y-60708477D01*
X64735992Y-60640568D01*
X64946433Y-60533343D01*
X65137510Y-60394517D01*
X65304517Y-60227510D01*
X65329682Y-60192872D01*
X65385011Y-60150207D01*
X65454625Y-60144228D01*
X65516420Y-60176833D01*
X65530315Y-60192870D01*
X65555483Y-60227510D01*
X65722490Y-60394517D01*
X65913567Y-60533343D01*
X65943776Y-60548735D01*
X66124003Y-60640566D01*
X66124005Y-60640566D01*
X66124008Y-60640568D01*
X66244412Y-60679689D01*
X66348631Y-60713553D01*
X66581903Y-60750500D01*
X66581908Y-60750500D01*
X66818097Y-60750500D01*
X67051368Y-60713553D01*
X67066990Y-60708477D01*
X67275992Y-60640568D01*
X67486433Y-60533343D01*
X67677510Y-60394517D01*
X67844517Y-60227510D01*
X67869682Y-60192872D01*
X67925011Y-60150207D01*
X67994625Y-60144228D01*
X68056420Y-60176833D01*
X68070315Y-60192870D01*
X68095483Y-60227510D01*
X68262490Y-60394517D01*
X68453567Y-60533343D01*
X68483776Y-60548735D01*
X68664003Y-60640566D01*
X68664005Y-60640566D01*
X68664008Y-60640568D01*
X68784412Y-60679689D01*
X68888631Y-60713553D01*
X69121903Y-60750500D01*
X69121908Y-60750500D01*
X69358097Y-60750500D01*
X69591368Y-60713553D01*
X69606990Y-60708477D01*
X69815992Y-60640568D01*
X70026433Y-60533343D01*
X70217510Y-60394517D01*
X70384517Y-60227510D01*
X70427547Y-60168283D01*
X70482877Y-60125618D01*
X70537594Y-60117551D01*
X70557340Y-60119105D01*
X71288871Y-59387574D01*
X71304755Y-59446853D01*
G37*
%TD.AperFunction*%
%TA.AperFunction,Conductor*%
G36*
X94055703Y-63445384D02*
G01*
X94062181Y-63451416D01*
X103086561Y-72475796D01*
X103120046Y-72537119D01*
X103116811Y-72601794D01*
X103093985Y-72672045D01*
X103059500Y-72889778D01*
X103059500Y-73110221D01*
X103093985Y-73327952D01*
X103162103Y-73537603D01*
X103162104Y-73537606D01*
X103217674Y-73646666D01*
X103239971Y-73690426D01*
X103262187Y-73734025D01*
X103391752Y-73912358D01*
X103391756Y-73912363D01*
X103547636Y-74068243D01*
X103547641Y-74068247D01*
X103577567Y-74089989D01*
X103725978Y-74197815D01*
X103854375Y-74263237D01*
X103922393Y-74297895D01*
X103922396Y-74297896D01*
X104027221Y-74331955D01*
X104132049Y-74366015D01*
X104349778Y-74400500D01*
X104349779Y-74400500D01*
X104570221Y-74400500D01*
X104570222Y-74400500D01*
X104787951Y-74366015D01*
X104997606Y-74297895D01*
X105194022Y-74197815D01*
X105372365Y-74068242D01*
X105422536Y-74018070D01*
X105483857Y-73984586D01*
X105553548Y-73989570D01*
X105609482Y-74031441D01*
X105626398Y-74062419D01*
X105656202Y-74142328D01*
X105656206Y-74142335D01*
X105742452Y-74257544D01*
X105742455Y-74257547D01*
X105857664Y-74343793D01*
X105857671Y-74343797D01*
X105992517Y-74394091D01*
X105992516Y-74394091D01*
X105999444Y-74394835D01*
X106052127Y-74400500D01*
X107450902Y-74400499D01*
X107472147Y-74406737D01*
X107494235Y-74408317D01*
X107505018Y-74416389D01*
X107517941Y-74420184D01*
X107532440Y-74436916D01*
X107550169Y-74450188D01*
X107554876Y-74462808D01*
X107563696Y-74472987D01*
X107566847Y-74494905D01*
X107574586Y-74515653D01*
X107571723Y-74528813D01*
X107573640Y-74542146D01*
X107564440Y-74562289D01*
X107559734Y-74583926D01*
X107546464Y-74601653D01*
X107544615Y-74605702D01*
X107538584Y-74612180D01*
X107381286Y-74769478D01*
X107381285Y-74769478D01*
X107381284Y-74769479D01*
X107269481Y-74881282D01*
X107269479Y-74881285D01*
X107259196Y-74899096D01*
X107221639Y-74964149D01*
X107219361Y-74968094D01*
X107219359Y-74968096D01*
X107190425Y-75018209D01*
X107190424Y-75018210D01*
X107190423Y-75018215D01*
X107149499Y-75170943D01*
X107149499Y-75170945D01*
X107149499Y-75339046D01*
X107149500Y-75339059D01*
X107149500Y-78725500D01*
X107129815Y-78792539D01*
X107077011Y-78838294D01*
X107025500Y-78849500D01*
X106302129Y-78849500D01*
X106302123Y-78849501D01*
X106242516Y-78855908D01*
X106107671Y-78906202D01*
X106107664Y-78906206D01*
X105992455Y-78992452D01*
X105992452Y-78992455D01*
X105906206Y-79107664D01*
X105906203Y-79107669D01*
X105876398Y-79187581D01*
X105834526Y-79243514D01*
X105769062Y-79267931D01*
X105700789Y-79253079D01*
X105672535Y-79231928D01*
X105622363Y-79181756D01*
X105622358Y-79181752D01*
X105444025Y-79052187D01*
X105444024Y-79052186D01*
X105444022Y-79052185D01*
X105326791Y-78992452D01*
X105247606Y-78952104D01*
X105247603Y-78952103D01*
X105037952Y-78883985D01*
X104929086Y-78866742D01*
X104820222Y-78849500D01*
X104599778Y-78849500D01*
X104527201Y-78860995D01*
X104382047Y-78883985D01*
X104172396Y-78952103D01*
X104172393Y-78952104D01*
X103975974Y-79052187D01*
X103797641Y-79181752D01*
X103797636Y-79181756D01*
X103641756Y-79337636D01*
X103641752Y-79337641D01*
X103512185Y-79515976D01*
X103439423Y-79658777D01*
X103391448Y-79709572D01*
X103323627Y-79726367D01*
X103257492Y-79703829D01*
X103214042Y-79649113D01*
X103211008Y-79640799D01*
X103191345Y-79580284D01*
X103140568Y-79424008D01*
X103033343Y-79213567D01*
X102894517Y-79022490D01*
X102727510Y-78855483D01*
X102536433Y-78716657D01*
X102325996Y-78609433D01*
X102101368Y-78536446D01*
X101868097Y-78499500D01*
X101868092Y-78499500D01*
X101724500Y-78499500D01*
X101657461Y-78479815D01*
X101611706Y-78427011D01*
X101600500Y-78375500D01*
X101600500Y-72920945D01*
X101600500Y-72920943D01*
X101559577Y-72768216D01*
X101559577Y-72768215D01*
X101504055Y-72672049D01*
X101480520Y-72631284D01*
X101368716Y-72519480D01*
X101368713Y-72519478D01*
X93886819Y-65037584D01*
X93853334Y-64976261D01*
X93850500Y-64949903D01*
X93850500Y-63539097D01*
X93870185Y-63472058D01*
X93922989Y-63426303D01*
X93992147Y-63416359D01*
X94055703Y-63445384D01*
G37*
%TD.AperFunction*%
%TA.AperFunction,Conductor*%
G36*
X106715804Y-59069596D02*
G01*
X106737942Y-59087177D01*
X106863181Y-59212416D01*
X106896666Y-59273739D01*
X106899500Y-59300097D01*
X106899500Y-71475500D01*
X106879815Y-71542539D01*
X106827011Y-71588294D01*
X106775500Y-71599500D01*
X106052129Y-71599500D01*
X106052123Y-71599501D01*
X105992516Y-71605908D01*
X105857671Y-71656202D01*
X105857664Y-71656206D01*
X105742455Y-71742452D01*
X105742452Y-71742455D01*
X105656206Y-71857664D01*
X105656203Y-71857669D01*
X105626398Y-71937581D01*
X105584526Y-71993514D01*
X105519062Y-72017931D01*
X105450789Y-72003079D01*
X105422535Y-71981928D01*
X105372363Y-71931756D01*
X105372358Y-71931752D01*
X105194025Y-71802187D01*
X105194024Y-71802186D01*
X105194022Y-71802185D01*
X105129837Y-71769481D01*
X104997606Y-71702104D01*
X104997603Y-71702103D01*
X104787952Y-71633985D01*
X104656600Y-71613181D01*
X104570222Y-71599500D01*
X104349778Y-71599500D01*
X104309320Y-71605908D01*
X104132045Y-71633985D01*
X104061794Y-71656811D01*
X103991953Y-71658806D01*
X103935796Y-71626561D01*
X99266917Y-66957682D01*
X103950000Y-66957682D01*
X103950000Y-67162317D01*
X103982009Y-67364417D01*
X104045244Y-67559031D01*
X104138141Y-67741350D01*
X104138147Y-67741359D01*
X104170523Y-67785921D01*
X104170524Y-67785922D01*
X104850000Y-67106446D01*
X104850000Y-67112661D01*
X104877259Y-67214394D01*
X104929920Y-67305606D01*
X105004394Y-67380080D01*
X105095606Y-67432741D01*
X105197339Y-67460000D01*
X105203553Y-67460000D01*
X104524076Y-68139474D01*
X104568650Y-68171859D01*
X104750968Y-68264755D01*
X104945582Y-68327990D01*
X105147683Y-68360000D01*
X105352317Y-68360000D01*
X105554417Y-68327990D01*
X105749031Y-68264755D01*
X105931349Y-68171859D01*
X105975921Y-68139474D01*
X105296447Y-67460000D01*
X105302661Y-67460000D01*
X105404394Y-67432741D01*
X105495606Y-67380080D01*
X105570080Y-67305606D01*
X105622741Y-67214394D01*
X105650000Y-67112661D01*
X105650000Y-67106447D01*
X106329474Y-67785921D01*
X106361859Y-67741349D01*
X106454755Y-67559031D01*
X106517990Y-67364417D01*
X106550000Y-67162317D01*
X106550000Y-66957682D01*
X106517990Y-66755582D01*
X106454755Y-66560968D01*
X106361859Y-66378650D01*
X106329474Y-66334077D01*
X106329474Y-66334076D01*
X105650000Y-67013551D01*
X105650000Y-67007339D01*
X105622741Y-66905606D01*
X105570080Y-66814394D01*
X105495606Y-66739920D01*
X105404394Y-66687259D01*
X105302661Y-66660000D01*
X105296446Y-66660000D01*
X105975922Y-65980524D01*
X105975921Y-65980523D01*
X105931359Y-65948147D01*
X105931350Y-65948141D01*
X105749031Y-65855244D01*
X105554417Y-65792009D01*
X105352317Y-65760000D01*
X105147683Y-65760000D01*
X104945582Y-65792009D01*
X104750968Y-65855244D01*
X104568644Y-65948143D01*
X104524077Y-65980523D01*
X104524077Y-65980524D01*
X105203554Y-66660000D01*
X105197339Y-66660000D01*
X105095606Y-66687259D01*
X105004394Y-66739920D01*
X104929920Y-66814394D01*
X104877259Y-66905606D01*
X104850000Y-67007339D01*
X104850000Y-67013553D01*
X104170524Y-66334077D01*
X104170523Y-66334077D01*
X104138143Y-66378644D01*
X104045244Y-66560968D01*
X103982009Y-66755582D01*
X103950000Y-66957682D01*
X99266917Y-66957682D01*
X94535819Y-62226584D01*
X94502334Y-62165261D01*
X94499500Y-62138903D01*
X94499500Y-61418046D01*
X94519185Y-61351007D01*
X94571989Y-61305252D01*
X94599309Y-61296429D01*
X94628848Y-61290552D01*
X94733497Y-61269737D01*
X94879179Y-61209394D01*
X95010289Y-61121789D01*
X95121789Y-61010289D01*
X95209394Y-60879179D01*
X95269737Y-60733497D01*
X95294453Y-60609242D01*
X95300638Y-60578150D01*
X95333023Y-60516239D01*
X95334518Y-60514716D01*
X95772416Y-60076819D01*
X95833739Y-60043334D01*
X95860097Y-60040500D01*
X104020398Y-60040500D01*
X104087437Y-60060185D01*
X104130883Y-60108205D01*
X104137715Y-60121614D01*
X104258028Y-60287213D01*
X104402786Y-60431971D01*
X104557749Y-60544556D01*
X104568390Y-60552287D01*
X104676836Y-60607543D01*
X104750776Y-60645218D01*
X104750778Y-60645218D01*
X104750781Y-60645220D01*
X104855137Y-60679127D01*
X104945465Y-60708477D01*
X105031073Y-60722036D01*
X105147648Y-60740500D01*
X105147649Y-60740500D01*
X105352351Y-60740500D01*
X105352352Y-60740500D01*
X105554534Y-60708477D01*
X105749219Y-60645220D01*
X105750403Y-60644617D01*
X105759264Y-60640102D01*
X105931610Y-60552287D01*
X106041211Y-60472658D01*
X106097213Y-60431971D01*
X106097215Y-60431968D01*
X106097219Y-60431966D01*
X106241966Y-60287219D01*
X106241968Y-60287215D01*
X106241971Y-60287213D01*
X106294732Y-60214590D01*
X106362287Y-60121610D01*
X106455220Y-59939219D01*
X106518477Y-59744534D01*
X106550500Y-59542352D01*
X106550500Y-59337648D01*
X106527788Y-59194254D01*
X106536742Y-59124963D01*
X106581738Y-59071511D01*
X106648490Y-59050871D01*
X106715804Y-59069596D01*
G37*
%TD.AperFunction*%
%TA.AperFunction,Conductor*%
G36*
X64226942Y-26870185D02*
G01*
X64247584Y-26886819D01*
X72666241Y-35305476D01*
X72699726Y-35366799D01*
X72696492Y-35431473D01*
X72682753Y-35473757D01*
X72652635Y-35663922D01*
X72649500Y-35683713D01*
X72649500Y-35896287D01*
X72654033Y-35924905D01*
X72681324Y-36097219D01*
X72682754Y-36106243D01*
X72726853Y-36241966D01*
X72748444Y-36308414D01*
X72844951Y-36497820D01*
X72969890Y-36669786D01*
X73120213Y-36820109D01*
X73292182Y-36945050D01*
X73300946Y-36949516D01*
X73351742Y-36997491D01*
X73368536Y-37065312D01*
X73345998Y-37131447D01*
X73300946Y-37170484D01*
X73292182Y-37174949D01*
X73120213Y-37299890D01*
X72969890Y-37450213D01*
X72844951Y-37622179D01*
X72748444Y-37811585D01*
X72682753Y-38013760D01*
X72649500Y-38223713D01*
X72649500Y-38436286D01*
X72682754Y-38646244D01*
X72682754Y-38646247D01*
X72696491Y-38688523D01*
X72698486Y-38758364D01*
X72666241Y-38814522D01*
X69131286Y-42349478D01*
X69019481Y-42461282D01*
X69019480Y-42461284D01*
X68975469Y-42537515D01*
X68969361Y-42548094D01*
X68969359Y-42548096D01*
X68940425Y-42598209D01*
X68940424Y-42598210D01*
X68940423Y-42598215D01*
X68899499Y-42750943D01*
X68899499Y-42750945D01*
X68899499Y-42919046D01*
X68899500Y-42919059D01*
X68899500Y-49663330D01*
X68899499Y-49663348D01*
X68899499Y-49829054D01*
X68899498Y-49829054D01*
X68940423Y-49981786D01*
X68956656Y-50009900D01*
X68956657Y-50009905D01*
X68956659Y-50009905D01*
X68988412Y-50064904D01*
X69019479Y-50118714D01*
X69019481Y-50118717D01*
X69138349Y-50237585D01*
X69138355Y-50237590D01*
X75363181Y-56462416D01*
X75396666Y-56523739D01*
X75399500Y-56550097D01*
X75399500Y-57625500D01*
X75379815Y-57692539D01*
X75327011Y-57738294D01*
X75275500Y-57749500D01*
X73272129Y-57749500D01*
X73272123Y-57749501D01*
X73212516Y-57755908D01*
X73077671Y-57806202D01*
X73077664Y-57806206D01*
X72962455Y-57892452D01*
X72962452Y-57892455D01*
X72876206Y-58007664D01*
X72871953Y-58015454D01*
X72868807Y-58013736D01*
X72837139Y-58056010D01*
X72771667Y-58080404D01*
X72703399Y-58065529D01*
X72689978Y-58057035D01*
X72566174Y-57967087D01*
X72355802Y-57859897D01*
X72131247Y-57786934D01*
X72131248Y-57786934D01*
X71898052Y-57750000D01*
X71661948Y-57750000D01*
X71428752Y-57786934D01*
X71204197Y-57859897D01*
X70993830Y-57967084D01*
X70910894Y-58027340D01*
X71642425Y-58758871D01*
X71583147Y-58774755D01*
X71466853Y-58841898D01*
X71371898Y-58936853D01*
X71304755Y-59053147D01*
X71288871Y-59112424D01*
X70557340Y-58380893D01*
X70537593Y-58382448D01*
X70469215Y-58368084D01*
X70427547Y-58331716D01*
X70384517Y-58272490D01*
X70217510Y-58105483D01*
X70026433Y-57966657D01*
X69997779Y-57952057D01*
X69815996Y-57859433D01*
X69591368Y-57786446D01*
X69358097Y-57749500D01*
X69358092Y-57749500D01*
X69121908Y-57749500D01*
X69121903Y-57749500D01*
X68888631Y-57786446D01*
X68664003Y-57859433D01*
X68453566Y-57966657D01*
X68386404Y-58015454D01*
X68262490Y-58105483D01*
X68262488Y-58105485D01*
X68262487Y-58105485D01*
X68095484Y-58272488D01*
X68086502Y-58284851D01*
X68075133Y-58300500D01*
X68070318Y-58307127D01*
X68014987Y-58349792D01*
X67945374Y-58355771D01*
X67883579Y-58323165D01*
X67869682Y-58307127D01*
X67844517Y-58272490D01*
X67677510Y-58105483D01*
X67486433Y-57966657D01*
X67457779Y-57952057D01*
X67275996Y-57859433D01*
X67051368Y-57786446D01*
X66818097Y-57749500D01*
X66818092Y-57749500D01*
X66581908Y-57749500D01*
X66581903Y-57749500D01*
X66348631Y-57786446D01*
X66124003Y-57859433D01*
X65913566Y-57966657D01*
X65846404Y-58015454D01*
X65722490Y-58105483D01*
X65722488Y-58105485D01*
X65722487Y-58105485D01*
X65555484Y-58272488D01*
X65546502Y-58284851D01*
X65535133Y-58300500D01*
X65530318Y-58307127D01*
X65474987Y-58349792D01*
X65405374Y-58355771D01*
X65343579Y-58323165D01*
X65329682Y-58307127D01*
X65304517Y-58272490D01*
X65137510Y-58105483D01*
X64946433Y-57966657D01*
X64917779Y-57952057D01*
X64735996Y-57859433D01*
X64511368Y-57786446D01*
X64278097Y-57749500D01*
X64278092Y-57749500D01*
X64041908Y-57749500D01*
X64041903Y-57749500D01*
X63808631Y-57786446D01*
X63584003Y-57859433D01*
X63373566Y-57966657D01*
X63306404Y-58015454D01*
X63182490Y-58105483D01*
X63182488Y-58105485D01*
X63182487Y-58105485D01*
X63015484Y-58272488D01*
X63006502Y-58284851D01*
X62995133Y-58300500D01*
X62990318Y-58307127D01*
X62934987Y-58349792D01*
X62865374Y-58355771D01*
X62803579Y-58323165D01*
X62789682Y-58307127D01*
X62764517Y-58272490D01*
X62597510Y-58105483D01*
X62406433Y-57966657D01*
X62377779Y-57952057D01*
X62195996Y-57859433D01*
X61971368Y-57786446D01*
X61738097Y-57749500D01*
X61738092Y-57749500D01*
X61501908Y-57749500D01*
X61501903Y-57749500D01*
X61268631Y-57786446D01*
X61044003Y-57859433D01*
X60833566Y-57966657D01*
X60766404Y-58015454D01*
X60642490Y-58105483D01*
X60642488Y-58105485D01*
X60642487Y-58105485D01*
X60475484Y-58272488D01*
X60466502Y-58284851D01*
X60455133Y-58300500D01*
X60450318Y-58307127D01*
X60394987Y-58349792D01*
X60325374Y-58355771D01*
X60263579Y-58323165D01*
X60249682Y-58307127D01*
X60224517Y-58272490D01*
X60057510Y-58105483D01*
X59866433Y-57966657D01*
X59837779Y-57952057D01*
X59655996Y-57859433D01*
X59431368Y-57786446D01*
X59198097Y-57749500D01*
X59198092Y-57749500D01*
X58961908Y-57749500D01*
X58961903Y-57749500D01*
X58728631Y-57786446D01*
X58504003Y-57859433D01*
X58293566Y-57966657D01*
X58226404Y-58015454D01*
X58102490Y-58105483D01*
X58102488Y-58105485D01*
X58102487Y-58105485D01*
X57935484Y-58272488D01*
X57926502Y-58284851D01*
X57915133Y-58300500D01*
X57910318Y-58307127D01*
X57854987Y-58349792D01*
X57785374Y-58355771D01*
X57723579Y-58323165D01*
X57709682Y-58307127D01*
X57684517Y-58272490D01*
X57517510Y-58105483D01*
X57326433Y-57966657D01*
X57297779Y-57952057D01*
X57115996Y-57859433D01*
X56891368Y-57786446D01*
X56658097Y-57749500D01*
X56658092Y-57749500D01*
X56421908Y-57749500D01*
X56421903Y-57749500D01*
X56188631Y-57786446D01*
X55964003Y-57859433D01*
X55753566Y-57966657D01*
X55686404Y-58015454D01*
X55562490Y-58105483D01*
X55562488Y-58105485D01*
X55562487Y-58105485D01*
X55395484Y-58272488D01*
X55386502Y-58284851D01*
X55375133Y-58300500D01*
X55370318Y-58307127D01*
X55314987Y-58349792D01*
X55245374Y-58355771D01*
X55183579Y-58323165D01*
X55169682Y-58307127D01*
X55144517Y-58272490D01*
X54977510Y-58105483D01*
X54786433Y-57966657D01*
X54757779Y-57952057D01*
X54575996Y-57859433D01*
X54351368Y-57786446D01*
X54118097Y-57749500D01*
X54118092Y-57749500D01*
X53881908Y-57749500D01*
X53881903Y-57749500D01*
X53648631Y-57786446D01*
X53424003Y-57859433D01*
X53213566Y-57966657D01*
X53146404Y-58015454D01*
X53022490Y-58105483D01*
X53022488Y-58105485D01*
X53022487Y-58105485D01*
X52855484Y-58272488D01*
X52846502Y-58284851D01*
X52835133Y-58300500D01*
X52830318Y-58307127D01*
X52774987Y-58349792D01*
X52705374Y-58355771D01*
X52643579Y-58323165D01*
X52629682Y-58307127D01*
X52604517Y-58272490D01*
X52437510Y-58105483D01*
X52246433Y-57966657D01*
X52217779Y-57952057D01*
X52035996Y-57859433D01*
X51811368Y-57786446D01*
X51578097Y-57749500D01*
X51578092Y-57749500D01*
X51341908Y-57749500D01*
X51341903Y-57749500D01*
X51108631Y-57786446D01*
X50884003Y-57859433D01*
X50673566Y-57966657D01*
X50606404Y-58015454D01*
X50482490Y-58105483D01*
X50482488Y-58105485D01*
X50482487Y-58105485D01*
X50315484Y-58272488D01*
X50306502Y-58284851D01*
X50295133Y-58300500D01*
X50290318Y-58307127D01*
X50234987Y-58349792D01*
X50165374Y-58355771D01*
X50103579Y-58323165D01*
X50089682Y-58307127D01*
X50064517Y-58272490D01*
X49897510Y-58105483D01*
X49706433Y-57966657D01*
X49677779Y-57952057D01*
X49495996Y-57859433D01*
X49271368Y-57786446D01*
X49038097Y-57749500D01*
X49038092Y-57749500D01*
X48801908Y-57749500D01*
X48801903Y-57749500D01*
X48568631Y-57786446D01*
X48344003Y-57859433D01*
X48133566Y-57966657D01*
X48066404Y-58015454D01*
X47942490Y-58105483D01*
X47942488Y-58105485D01*
X47942487Y-58105485D01*
X47775484Y-58272488D01*
X47766502Y-58284851D01*
X47755133Y-58300500D01*
X47750318Y-58307127D01*
X47694987Y-58349792D01*
X47625374Y-58355771D01*
X47563579Y-58323165D01*
X47549682Y-58307127D01*
X47524517Y-58272490D01*
X47357510Y-58105483D01*
X47166433Y-57966657D01*
X47137779Y-57952057D01*
X46955996Y-57859433D01*
X46731368Y-57786446D01*
X46498097Y-57749500D01*
X46498092Y-57749500D01*
X46261908Y-57749500D01*
X46261903Y-57749500D01*
X46028631Y-57786446D01*
X45804003Y-57859433D01*
X45593566Y-57966657D01*
X45526404Y-58015454D01*
X45402490Y-58105483D01*
X45402488Y-58105485D01*
X45402487Y-58105485D01*
X45235484Y-58272488D01*
X45226502Y-58284851D01*
X45215133Y-58300500D01*
X45210318Y-58307127D01*
X45154987Y-58349792D01*
X45085374Y-58355771D01*
X45023579Y-58323165D01*
X45009682Y-58307127D01*
X44984517Y-58272490D01*
X44817510Y-58105483D01*
X44626433Y-57966657D01*
X44597779Y-57952057D01*
X44415996Y-57859433D01*
X44191368Y-57786446D01*
X43958097Y-57749500D01*
X43958092Y-57749500D01*
X43721908Y-57749500D01*
X43721903Y-57749500D01*
X43488631Y-57786446D01*
X43264003Y-57859433D01*
X43053566Y-57966657D01*
X42986404Y-58015454D01*
X42862490Y-58105483D01*
X42862488Y-58105485D01*
X42862487Y-58105485D01*
X42695484Y-58272488D01*
X42686502Y-58284851D01*
X42675133Y-58300500D01*
X42670318Y-58307127D01*
X42614987Y-58349792D01*
X42545374Y-58355771D01*
X42483579Y-58323165D01*
X42469682Y-58307127D01*
X42444517Y-58272490D01*
X42277510Y-58105483D01*
X42086433Y-57966657D01*
X42057779Y-57952057D01*
X41875996Y-57859433D01*
X41651368Y-57786446D01*
X41418097Y-57749500D01*
X41418092Y-57749500D01*
X41181908Y-57749500D01*
X41181903Y-57749500D01*
X40948631Y-57786446D01*
X40724003Y-57859433D01*
X40513566Y-57966657D01*
X40446404Y-58015454D01*
X40322490Y-58105483D01*
X40322488Y-58105485D01*
X40322487Y-58105485D01*
X40155484Y-58272488D01*
X40146502Y-58284851D01*
X40135133Y-58300500D01*
X40130318Y-58307127D01*
X40074987Y-58349792D01*
X40005374Y-58355771D01*
X39943579Y-58323165D01*
X39929682Y-58307127D01*
X39904517Y-58272490D01*
X39737510Y-58105483D01*
X39546433Y-57966657D01*
X39517779Y-57952057D01*
X39335996Y-57859433D01*
X39111368Y-57786446D01*
X38878097Y-57749500D01*
X38878092Y-57749500D01*
X38641908Y-57749500D01*
X38641903Y-57749500D01*
X38408630Y-57786447D01*
X38408627Y-57786447D01*
X38221818Y-57847146D01*
X38151977Y-57849141D01*
X38092144Y-57813061D01*
X38061316Y-57750360D01*
X38059500Y-57729215D01*
X38059500Y-35091097D01*
X38079185Y-35024058D01*
X38095819Y-35003416D01*
X41976819Y-31122416D01*
X42038142Y-31088931D01*
X42107834Y-31093915D01*
X42163767Y-31135787D01*
X42188184Y-31201251D01*
X42188500Y-31210097D01*
X42188500Y-32572330D01*
X42188499Y-32572348D01*
X42188499Y-32738054D01*
X42188498Y-32738054D01*
X42188499Y-32738057D01*
X42229423Y-32890785D01*
X42247990Y-32922943D01*
X42259566Y-32942993D01*
X42308479Y-33027715D01*
X42427349Y-33146585D01*
X42427355Y-33146590D01*
X44085922Y-34805157D01*
X44119407Y-34866480D01*
X44116173Y-34931155D01*
X44111522Y-34945468D01*
X44088988Y-35087742D01*
X44079500Y-35147648D01*
X44079500Y-35352352D01*
X44080586Y-35359208D01*
X44111522Y-35554534D01*
X44174781Y-35749223D01*
X44223631Y-35845095D01*
X44249714Y-35896286D01*
X44267715Y-35931613D01*
X44388028Y-36097213D01*
X44532786Y-36241971D01*
X44657057Y-36332257D01*
X44698390Y-36362287D01*
X44814607Y-36421503D01*
X44880776Y-36455218D01*
X44880778Y-36455218D01*
X44880781Y-36455220D01*
X44977125Y-36486524D01*
X45075465Y-36518477D01*
X45176557Y-36534488D01*
X45277648Y-36550500D01*
X45277649Y-36550500D01*
X45482351Y-36550500D01*
X45482352Y-36550500D01*
X45684534Y-36518477D01*
X45879219Y-36455220D01*
X46061610Y-36362287D01*
X46154590Y-36294732D01*
X46227213Y-36241971D01*
X46227215Y-36241968D01*
X46227219Y-36241966D01*
X46371966Y-36097219D01*
X46371968Y-36097215D01*
X46371971Y-36097213D01*
X46445090Y-35996571D01*
X46492287Y-35931610D01*
X46585220Y-35749219D01*
X46648477Y-35554534D01*
X46680500Y-35352352D01*
X46680500Y-35147648D01*
X46648477Y-34945466D01*
X46585220Y-34750781D01*
X46585217Y-34750777D01*
X46585217Y-34750774D01*
X46570961Y-34722796D01*
X46558064Y-34654127D01*
X46584339Y-34589387D01*
X46641445Y-34549129D01*
X46681445Y-34542500D01*
X51698555Y-34542500D01*
X51765594Y-34562185D01*
X51811349Y-34614989D01*
X51821293Y-34684147D01*
X51809039Y-34722796D01*
X51794782Y-34750774D01*
X51731522Y-34945465D01*
X51708988Y-35087742D01*
X51699500Y-35147648D01*
X51699500Y-35352352D01*
X51700586Y-35359208D01*
X51731522Y-35554534D01*
X51794781Y-35749223D01*
X51843631Y-35845095D01*
X51869714Y-35896286D01*
X51887715Y-35931613D01*
X52008028Y-36097213D01*
X52152786Y-36241971D01*
X52277057Y-36332257D01*
X52318390Y-36362287D01*
X52434607Y-36421503D01*
X52500776Y-36455218D01*
X52500778Y-36455218D01*
X52500781Y-36455220D01*
X52597125Y-36486524D01*
X52695465Y-36518477D01*
X52796557Y-36534488D01*
X52897648Y-36550500D01*
X52897649Y-36550500D01*
X53102351Y-36550500D01*
X53102352Y-36550500D01*
X53304534Y-36518477D01*
X53499219Y-36455220D01*
X53681610Y-36362287D01*
X53774590Y-36294732D01*
X53847213Y-36241971D01*
X53847215Y-36241968D01*
X53847219Y-36241966D01*
X53991966Y-36097219D01*
X53991968Y-36097215D01*
X53991971Y-36097213D01*
X54112284Y-35931614D01*
X54112285Y-35931613D01*
X54112287Y-35931610D01*
X54119117Y-35918204D01*
X54167091Y-35867409D01*
X54229602Y-35850500D01*
X54913331Y-35850500D01*
X54913347Y-35850501D01*
X54920943Y-35850501D01*
X55079054Y-35850501D01*
X55079057Y-35850501D01*
X55231785Y-35809577D01*
X55281904Y-35780639D01*
X55368716Y-35730520D01*
X55480520Y-35618716D01*
X55480520Y-35618714D01*
X55490728Y-35608507D01*
X55490730Y-35608504D01*
X56707713Y-34391521D01*
X56707716Y-34391520D01*
X56727825Y-34371410D01*
X56770021Y-34348372D01*
X56789142Y-34337932D01*
X56789144Y-34337932D01*
X56789148Y-34337930D01*
X56830726Y-34340905D01*
X56858834Y-34342916D01*
X56858836Y-34342917D01*
X56858839Y-34342918D01*
X56894308Y-34369472D01*
X56914767Y-34384788D01*
X56914767Y-34384789D01*
X56914771Y-34384792D01*
X56923910Y-34409300D01*
X56939184Y-34450252D01*
X56939500Y-34459098D01*
X56939500Y-38783330D01*
X56939499Y-38783348D01*
X56939499Y-38949054D01*
X56939498Y-38949054D01*
X56980423Y-39101785D01*
X57009358Y-39151900D01*
X57009359Y-39151904D01*
X57009360Y-39151904D01*
X57059479Y-39238714D01*
X57059481Y-39238717D01*
X57178349Y-39357585D01*
X57178355Y-39357590D01*
X58337336Y-40516571D01*
X58370821Y-40577894D01*
X58372128Y-40623648D01*
X58359500Y-40703389D01*
X58359500Y-40876611D01*
X58386598Y-41047701D01*
X58440127Y-41212445D01*
X58518768Y-41366788D01*
X58620586Y-41506928D01*
X58743072Y-41629414D01*
X58883212Y-41731232D01*
X59037555Y-41809873D01*
X59202299Y-41863402D01*
X59373389Y-41890500D01*
X59373390Y-41890500D01*
X59546610Y-41890500D01*
X59546611Y-41890500D01*
X59717701Y-41863402D01*
X59882445Y-41809873D01*
X60036788Y-41731232D01*
X60176928Y-41629414D01*
X60299414Y-41506928D01*
X60401232Y-41366788D01*
X60479873Y-41212445D01*
X60533402Y-41047701D01*
X60560500Y-40876611D01*
X60560500Y-40703389D01*
X60533402Y-40532299D01*
X60479873Y-40367555D01*
X60401232Y-40213212D01*
X60299414Y-40073072D01*
X60176928Y-39950586D01*
X60036788Y-39848768D01*
X59882445Y-39770127D01*
X59717701Y-39716598D01*
X59717699Y-39716597D01*
X59717698Y-39716597D01*
X59569801Y-39693173D01*
X59546611Y-39689500D01*
X59373389Y-39689500D01*
X59293649Y-39702129D01*
X59224355Y-39693173D01*
X59186571Y-39667336D01*
X58176819Y-38657584D01*
X58143334Y-38596261D01*
X58140500Y-38569903D01*
X58140500Y-36186269D01*
X58160185Y-36119230D01*
X58212989Y-36073475D01*
X58282147Y-36063531D01*
X58345703Y-36092556D01*
X58383477Y-36151334D01*
X58386974Y-36166873D01*
X58387087Y-36167589D01*
X58440591Y-36332257D01*
X58519195Y-36486524D01*
X58620967Y-36626602D01*
X58743397Y-36749032D01*
X58883475Y-36850804D01*
X59037744Y-36929408D01*
X59202415Y-36982914D01*
X59202414Y-36982914D01*
X59209999Y-36984115D01*
X59710000Y-36984115D01*
X59717584Y-36982914D01*
X59882255Y-36929408D01*
X60036524Y-36850804D01*
X60176602Y-36749032D01*
X60299032Y-36626602D01*
X60400804Y-36486524D01*
X60479408Y-36332257D01*
X60532914Y-36167584D01*
X60560000Y-35996571D01*
X60560000Y-35960000D01*
X59710000Y-35960000D01*
X59710000Y-36984115D01*
X59209999Y-36984115D01*
X59210000Y-36984114D01*
X59210000Y-35954975D01*
X59245095Y-35990070D01*
X59324905Y-36036148D01*
X59413922Y-36060000D01*
X59506078Y-36060000D01*
X59595095Y-36036148D01*
X59674905Y-35990070D01*
X59740070Y-35924905D01*
X59786148Y-35845095D01*
X59810000Y-35756078D01*
X59810000Y-35663922D01*
X59786148Y-35574905D01*
X59740070Y-35495095D01*
X59704975Y-35460000D01*
X59710000Y-35460000D01*
X60560000Y-35460000D01*
X60560000Y-35423428D01*
X60532914Y-35252415D01*
X60479408Y-35087742D01*
X60400804Y-34933475D01*
X60299032Y-34793397D01*
X60176602Y-34670967D01*
X60036524Y-34569195D01*
X59882257Y-34490591D01*
X59717589Y-34437087D01*
X59717581Y-34437085D01*
X59710000Y-34435884D01*
X59710000Y-35460000D01*
X59704975Y-35460000D01*
X59674905Y-35429930D01*
X59595095Y-35383852D01*
X59506078Y-35360000D01*
X59413922Y-35360000D01*
X59324905Y-35383852D01*
X59245095Y-35429930D01*
X59210000Y-35465025D01*
X59210000Y-34435884D01*
X59209999Y-34435884D01*
X59202418Y-34437085D01*
X59202410Y-34437087D01*
X59037742Y-34490591D01*
X58883475Y-34569195D01*
X58743397Y-34670967D01*
X58620967Y-34793397D01*
X58519195Y-34933475D01*
X58440591Y-35087742D01*
X58387086Y-35252413D01*
X58386973Y-35253130D01*
X58386854Y-35253380D01*
X58385951Y-35257144D01*
X58385160Y-35256954D01*
X58357043Y-35316264D01*
X58297731Y-35353194D01*
X58227868Y-35352196D01*
X58169636Y-35313585D01*
X58141522Y-35249621D01*
X58140500Y-35233730D01*
X58140500Y-30774499D01*
X58160185Y-30707460D01*
X58212989Y-30661705D01*
X58264500Y-30650499D01*
X58487871Y-30650499D01*
X58487872Y-30650499D01*
X58547483Y-30644091D01*
X58682331Y-30593796D01*
X58797546Y-30507546D01*
X58883796Y-30392331D01*
X58934091Y-30257483D01*
X58940500Y-30197873D01*
X58940499Y-29397095D01*
X58960183Y-29330057D01*
X59012987Y-29284302D01*
X59082146Y-29274358D01*
X59145702Y-29303383D01*
X59152180Y-29309415D01*
X61363181Y-31520416D01*
X61396666Y-31581739D01*
X61399500Y-31608097D01*
X61399500Y-37262814D01*
X61379815Y-37329853D01*
X61348387Y-37363131D01*
X61283072Y-37410585D01*
X61160588Y-37533069D01*
X61160588Y-37533070D01*
X61160586Y-37533072D01*
X61116859Y-37593256D01*
X61058768Y-37673211D01*
X60980128Y-37827552D01*
X60926597Y-37992302D01*
X60899500Y-38163389D01*
X60899500Y-38336611D01*
X60926598Y-38507701D01*
X60980127Y-38672445D01*
X61058768Y-38826788D01*
X61160586Y-38966928D01*
X61283072Y-39089414D01*
X61423212Y-39191232D01*
X61577555Y-39269873D01*
X61742299Y-39323402D01*
X61913389Y-39350500D01*
X61913390Y-39350500D01*
X62086610Y-39350500D01*
X62086611Y-39350500D01*
X62257701Y-39323402D01*
X62422445Y-39269873D01*
X62576788Y-39191232D01*
X62716928Y-39089414D01*
X62839414Y-38966928D01*
X62941232Y-38826788D01*
X63019873Y-38672445D01*
X63073402Y-38507701D01*
X63100500Y-38336611D01*
X63100500Y-38163389D01*
X63073402Y-37992299D01*
X63019873Y-37827555D01*
X62941232Y-37673212D01*
X62839414Y-37533072D01*
X62716928Y-37410586D01*
X62651613Y-37363131D01*
X62608948Y-37307801D01*
X62600500Y-37262814D01*
X62600500Y-31397059D01*
X62600501Y-31397046D01*
X62600501Y-31228945D01*
X62600501Y-31228943D01*
X62559577Y-31076215D01*
X62508261Y-30987334D01*
X62480520Y-30939284D01*
X62368716Y-30827480D01*
X62368715Y-30827479D01*
X62364385Y-30823149D01*
X62364374Y-30823139D01*
X59228590Y-27687355D01*
X59228588Y-27687352D01*
X59109717Y-27568481D01*
X59109716Y-27568480D01*
X59022904Y-27518360D01*
X59022904Y-27518359D01*
X59022900Y-27518358D01*
X58972785Y-27489423D01*
X58820057Y-27448499D01*
X58661943Y-27448499D01*
X58654347Y-27448499D01*
X58654331Y-27448500D01*
X56259943Y-27448500D01*
X56107216Y-27489423D01*
X56107209Y-27489426D01*
X55970290Y-27568475D01*
X55970282Y-27568481D01*
X55858481Y-27680282D01*
X55858475Y-27680290D01*
X55779426Y-27817209D01*
X55779423Y-27817214D01*
X55758205Y-27896403D01*
X55721839Y-27956063D01*
X55658992Y-27986592D01*
X55589617Y-27978297D01*
X55582134Y-27974793D01*
X55537610Y-27952106D01*
X55537603Y-27952103D01*
X55327952Y-27883985D01*
X55219086Y-27866742D01*
X55110222Y-27849500D01*
X54889778Y-27849500D01*
X54817201Y-27860995D01*
X54672047Y-27883985D01*
X54462396Y-27952103D01*
X54462393Y-27952104D01*
X54265974Y-28052187D01*
X54087641Y-28181752D01*
X54087636Y-28181756D01*
X53931756Y-28337636D01*
X53931752Y-28337641D01*
X53802187Y-28515974D01*
X53702104Y-28712393D01*
X53702103Y-28712396D01*
X53633985Y-28922047D01*
X53610830Y-29068242D01*
X53599500Y-29139778D01*
X53599500Y-29360222D01*
X53608997Y-29420185D01*
X53633985Y-29577952D01*
X53702103Y-29787603D01*
X53702104Y-29787606D01*
X53770122Y-29921096D01*
X53785735Y-29951738D01*
X53802187Y-29984025D01*
X53931752Y-30162358D01*
X53931756Y-30162363D01*
X54087636Y-30318243D01*
X54087641Y-30318247D01*
X54265976Y-30447814D01*
X54331794Y-30481350D01*
X54382591Y-30529324D01*
X54399500Y-30591835D01*
X54399500Y-32949902D01*
X54379815Y-33016941D01*
X54363181Y-33037583D01*
X54095584Y-33305181D01*
X54034261Y-33338666D01*
X54007903Y-33341500D01*
X46606500Y-33341500D01*
X46539461Y-33321815D01*
X46493706Y-33269011D01*
X46482500Y-33217500D01*
X46482500Y-32922944D01*
X46482500Y-32922943D01*
X46441577Y-32770216D01*
X46441577Y-32770215D01*
X46395509Y-32690423D01*
X46362520Y-32633284D01*
X46250716Y-32521480D01*
X46250715Y-32521479D01*
X46246385Y-32517149D01*
X46246374Y-32517139D01*
X45424077Y-31694842D01*
X45390592Y-31633519D01*
X45393828Y-31568841D01*
X45398477Y-31554534D01*
X45430500Y-31352352D01*
X45430500Y-31147648D01*
X45398477Y-30945466D01*
X45396469Y-30939287D01*
X45358734Y-30823149D01*
X45335220Y-30750781D01*
X45335218Y-30750778D01*
X45335218Y-30750776D01*
X45289833Y-30661705D01*
X45242287Y-30568390D01*
X45213904Y-30529324D01*
X45121971Y-30402786D01*
X44977213Y-30258028D01*
X44811614Y-30137715D01*
X44808113Y-30135931D01*
X44780085Y-30121650D01*
X44759633Y-30102334D01*
X44737113Y-30085476D01*
X44734573Y-30078666D01*
X44729290Y-30073677D01*
X44722527Y-30046368D01*
X44712697Y-30020011D01*
X44714241Y-30012909D01*
X44712495Y-30005856D01*
X44721568Y-29979229D01*
X44727549Y-29951738D01*
X44733767Y-29943430D01*
X44735032Y-29939721D01*
X44748692Y-29923493D01*
X44834368Y-29837816D01*
X44895691Y-29804334D01*
X44922048Y-29801500D01*
X44950802Y-29801500D01*
X44950818Y-29801501D01*
X44958414Y-29801501D01*
X45116525Y-29801501D01*
X45116528Y-29801501D01*
X45269256Y-29760577D01*
X45280604Y-29754025D01*
X45322948Y-29729578D01*
X45322949Y-29729577D01*
X45406187Y-29681520D01*
X45517991Y-29569716D01*
X45517991Y-29569714D01*
X45528195Y-29559511D01*
X45528199Y-29559506D01*
X46006929Y-29080775D01*
X46036829Y-29064448D01*
X46066522Y-29047681D01*
X46067441Y-29047733D01*
X46068250Y-29047292D01*
X46102258Y-29049724D01*
X46136277Y-29051669D01*
X46137346Y-29052233D01*
X46137942Y-29052276D01*
X46167493Y-29068139D01*
X46167635Y-29068242D01*
X46345978Y-29197815D01*
X46345982Y-29197817D01*
X46348384Y-29199562D01*
X46391050Y-29254892D01*
X46399499Y-29299881D01*
X46399499Y-29329054D01*
X46399498Y-29329054D01*
X46407850Y-29360222D01*
X46440423Y-29481785D01*
X46519481Y-29618716D01*
X46631284Y-29730519D01*
X46768215Y-29809577D01*
X46920943Y-29850501D01*
X46920946Y-29850501D01*
X47079054Y-29850501D01*
X47079057Y-29850501D01*
X47231785Y-29809577D01*
X47368716Y-29730519D01*
X47448713Y-29650521D01*
X47448716Y-29650520D01*
X47560520Y-29538716D01*
X47560521Y-29538713D01*
X49787322Y-27311912D01*
X49848641Y-27278430D01*
X49918333Y-27283414D01*
X49962680Y-27311915D01*
X51113181Y-28462416D01*
X51146666Y-28523739D01*
X51149500Y-28550097D01*
X51149500Y-30020397D01*
X51129815Y-30087436D01*
X51081800Y-30130879D01*
X51068389Y-30137712D01*
X50902786Y-30258028D01*
X50758028Y-30402786D01*
X50637715Y-30568386D01*
X50544781Y-30750776D01*
X50481522Y-30945465D01*
X50449500Y-31147648D01*
X50449500Y-31352351D01*
X50481522Y-31554534D01*
X50544781Y-31749223D01*
X50608691Y-31874653D01*
X50624869Y-31906403D01*
X50637715Y-31931613D01*
X50758028Y-32097213D01*
X50902786Y-32241971D01*
X51054444Y-32352155D01*
X51068390Y-32362287D01*
X51162552Y-32410265D01*
X51250776Y-32455218D01*
X51250778Y-32455218D01*
X51250781Y-32455220D01*
X51355137Y-32489127D01*
X51445465Y-32518477D01*
X51546557Y-32534488D01*
X51647648Y-32550500D01*
X51647649Y-32550500D01*
X51852351Y-32550500D01*
X51852352Y-32550500D01*
X52054534Y-32518477D01*
X52249219Y-32455220D01*
X52431610Y-32362287D01*
X52527499Y-32292620D01*
X52597213Y-32241971D01*
X52597215Y-32241968D01*
X52597219Y-32241966D01*
X52741966Y-32097219D01*
X52741968Y-32097215D01*
X52741971Y-32097213D01*
X52844098Y-31956645D01*
X52862287Y-31931610D01*
X52955220Y-31749219D01*
X53018477Y-31554534D01*
X53050500Y-31352352D01*
X53050500Y-31147648D01*
X53018477Y-30945466D01*
X53016469Y-30939287D01*
X52978734Y-30823149D01*
X52955220Y-30750781D01*
X52955218Y-30750778D01*
X52955218Y-30750776D01*
X52909833Y-30661705D01*
X52862287Y-30568390D01*
X52833904Y-30529324D01*
X52741971Y-30402786D01*
X52597213Y-30258028D01*
X52431610Y-30137712D01*
X52418200Y-30130879D01*
X52367406Y-30082903D01*
X52350500Y-30020397D01*
X52350500Y-28339060D01*
X52350501Y-28339047D01*
X52350501Y-28170944D01*
X52350501Y-28170943D01*
X52309577Y-28018216D01*
X52281707Y-27969943D01*
X52230524Y-27881290D01*
X52230518Y-27881282D01*
X51838659Y-27489423D01*
X51411415Y-27062180D01*
X51377931Y-27000858D01*
X51382915Y-26931167D01*
X51424787Y-26875233D01*
X51490251Y-26850816D01*
X51499097Y-26850500D01*
X64159903Y-26850500D01*
X64226942Y-26870185D01*
G37*
%TD.AperFunction*%
%TA.AperFunction,Conductor*%
G36*
X71766942Y-25870185D02*
G01*
X71787584Y-25886819D01*
X79488181Y-33587416D01*
X79521666Y-33648739D01*
X79524500Y-33675097D01*
X79524500Y-56677699D01*
X79504815Y-56744738D01*
X79452011Y-56790493D01*
X79382853Y-56800437D01*
X79319297Y-56771412D01*
X79293113Y-56739698D01*
X79230524Y-56631290D01*
X79230518Y-56631282D01*
X72636819Y-50037583D01*
X72603334Y-49976260D01*
X72600500Y-49949902D01*
X72600500Y-49234555D01*
X72620185Y-49167516D01*
X72672989Y-49121761D01*
X72742147Y-49111817D01*
X72805703Y-49140842D01*
X72834985Y-49178261D01*
X72844949Y-49197817D01*
X72969890Y-49369786D01*
X73120213Y-49520109D01*
X73292179Y-49645048D01*
X73292181Y-49645049D01*
X73292184Y-49645051D01*
X73481588Y-49741557D01*
X73683757Y-49807246D01*
X73893713Y-49840500D01*
X73893714Y-49840500D01*
X74106286Y-49840500D01*
X74106287Y-49840500D01*
X74316243Y-49807246D01*
X74518412Y-49741557D01*
X74707816Y-49645051D01*
X74838619Y-49550018D01*
X74879786Y-49520109D01*
X74879788Y-49520106D01*
X74879792Y-49520104D01*
X75030104Y-49369792D01*
X75030106Y-49369788D01*
X75030109Y-49369786D01*
X75155048Y-49197820D01*
X75155050Y-49197817D01*
X75155051Y-49197816D01*
X75251557Y-49008412D01*
X75317246Y-48806243D01*
X75350500Y-48596287D01*
X75350500Y-48383713D01*
X75317246Y-48173757D01*
X75251557Y-47971588D01*
X75155051Y-47782184D01*
X75155049Y-47782181D01*
X75155048Y-47782179D01*
X75030109Y-47610213D01*
X74879786Y-47459890D01*
X74707820Y-47334951D01*
X74707115Y-47334591D01*
X74699054Y-47330485D01*
X74648259Y-47282512D01*
X74631463Y-47214692D01*
X74653999Y-47148556D01*
X74699054Y-47109515D01*
X74707816Y-47105051D01*
X74731994Y-47087485D01*
X74879786Y-46980109D01*
X74879788Y-46980106D01*
X74879792Y-46980104D01*
X75030104Y-46829792D01*
X75030106Y-46829788D01*
X75030109Y-46829786D01*
X75155048Y-46657820D01*
X75155050Y-46657817D01*
X75155051Y-46657816D01*
X75251557Y-46468412D01*
X75317246Y-46266243D01*
X75350500Y-46056287D01*
X75350500Y-45843713D01*
X75317246Y-45633757D01*
X75251557Y-45431588D01*
X75155051Y-45242184D01*
X75155049Y-45242181D01*
X75155048Y-45242179D01*
X75030109Y-45070213D01*
X74879786Y-44919890D01*
X74707820Y-44794951D01*
X74707115Y-44794591D01*
X74699054Y-44790485D01*
X74648259Y-44742512D01*
X74631463Y-44674692D01*
X74653999Y-44608556D01*
X74699054Y-44569515D01*
X74707816Y-44565051D01*
X74729789Y-44549086D01*
X74879786Y-44440109D01*
X74879788Y-44440106D01*
X74879792Y-44440104D01*
X75030104Y-44289792D01*
X75030106Y-44289788D01*
X75030109Y-44289786D01*
X75155048Y-44117820D01*
X75155050Y-44117817D01*
X75155051Y-44117816D01*
X75251557Y-43928412D01*
X75317246Y-43726243D01*
X75350500Y-43516287D01*
X75350500Y-43303713D01*
X75317246Y-43093757D01*
X75251557Y-42891588D01*
X75155051Y-42702184D01*
X75155049Y-42702181D01*
X75155048Y-42702179D01*
X75030109Y-42530213D01*
X74879786Y-42379890D01*
X74707820Y-42254951D01*
X74707115Y-42254591D01*
X74699054Y-42250485D01*
X74648259Y-42202512D01*
X74631463Y-42134692D01*
X74653999Y-42068556D01*
X74699054Y-42029515D01*
X74707816Y-42025051D01*
X74729789Y-42009086D01*
X74879786Y-41900109D01*
X74879788Y-41900106D01*
X74879792Y-41900104D01*
X75030104Y-41749792D01*
X75030106Y-41749788D01*
X75030109Y-41749786D01*
X75155048Y-41577820D01*
X75155047Y-41577820D01*
X75155051Y-41577816D01*
X75251557Y-41388412D01*
X75317246Y-41186243D01*
X75350500Y-40976287D01*
X75350500Y-40763713D01*
X75317246Y-40553757D01*
X75251557Y-40351588D01*
X75155051Y-40162184D01*
X75155049Y-40162181D01*
X75155048Y-40162179D01*
X75030109Y-39990213D01*
X74879786Y-39839890D01*
X74707820Y-39714951D01*
X74707115Y-39714591D01*
X74699054Y-39710485D01*
X74648259Y-39662512D01*
X74631463Y-39594692D01*
X74653999Y-39528556D01*
X74699054Y-39489515D01*
X74707816Y-39485051D01*
X74729789Y-39469086D01*
X74879786Y-39360109D01*
X74879788Y-39360106D01*
X74879792Y-39360104D01*
X75030104Y-39209792D01*
X75030106Y-39209788D01*
X75030109Y-39209786D01*
X75155048Y-39037820D01*
X75155047Y-39037820D01*
X75155051Y-39037816D01*
X75251557Y-38848412D01*
X75317246Y-38646243D01*
X75350500Y-38436287D01*
X75350500Y-38223713D01*
X75317246Y-38013757D01*
X75251557Y-37811588D01*
X75155051Y-37622184D01*
X75155049Y-37622181D01*
X75155048Y-37622179D01*
X75030109Y-37450213D01*
X74879786Y-37299890D01*
X74707820Y-37174951D01*
X74707115Y-37174591D01*
X74699054Y-37170485D01*
X74648259Y-37122512D01*
X74631463Y-37054692D01*
X74653999Y-36988556D01*
X74699054Y-36949515D01*
X74707816Y-36945051D01*
X74837537Y-36850804D01*
X74879786Y-36820109D01*
X74879788Y-36820106D01*
X74879792Y-36820104D01*
X75030104Y-36669792D01*
X75030106Y-36669788D01*
X75030109Y-36669786D01*
X75155048Y-36497820D01*
X75155047Y-36497820D01*
X75155051Y-36497816D01*
X75251557Y-36308412D01*
X75317246Y-36106243D01*
X75350500Y-35896287D01*
X75350500Y-35683713D01*
X75317246Y-35473757D01*
X75251557Y-35271588D01*
X75155051Y-35082184D01*
X75155049Y-35082181D01*
X75155048Y-35082179D01*
X75030109Y-34910213D01*
X74916181Y-34796285D01*
X74882696Y-34734962D01*
X74887680Y-34665270D01*
X74929552Y-34609337D01*
X74960529Y-34592422D01*
X75092086Y-34543354D01*
X75092093Y-34543350D01*
X75207187Y-34457190D01*
X75207190Y-34457187D01*
X75293350Y-34342093D01*
X75293354Y-34342086D01*
X75343596Y-34207379D01*
X75343598Y-34207372D01*
X75349999Y-34147844D01*
X75350000Y-34147827D01*
X75350000Y-33500000D01*
X74433012Y-33500000D01*
X74465925Y-33442993D01*
X74500000Y-33315826D01*
X74500000Y-33184174D01*
X74465925Y-33057007D01*
X74433012Y-33000000D01*
X75350000Y-33000000D01*
X75350000Y-32352172D01*
X75349999Y-32352155D01*
X75343598Y-32292627D01*
X75343596Y-32292620D01*
X75293354Y-32157913D01*
X75293350Y-32157906D01*
X75207190Y-32042812D01*
X75207187Y-32042809D01*
X75092093Y-31956649D01*
X75092086Y-31956645D01*
X74957379Y-31906403D01*
X74957372Y-31906401D01*
X74897844Y-31900000D01*
X74250000Y-31900000D01*
X74250000Y-32816988D01*
X74192993Y-32784075D01*
X74065826Y-32750000D01*
X73934174Y-32750000D01*
X73807007Y-32784075D01*
X73750000Y-32816988D01*
X73750000Y-31900000D01*
X73102155Y-31900000D01*
X73042627Y-31906401D01*
X73042620Y-31906403D01*
X72907913Y-31956645D01*
X72907906Y-31956649D01*
X72792812Y-32042809D01*
X72792809Y-32042812D01*
X72706649Y-32157906D01*
X72706645Y-32157913D01*
X72656403Y-32292620D01*
X72656401Y-32292627D01*
X72650000Y-32352155D01*
X72650000Y-33000000D01*
X73566988Y-33000000D01*
X73534075Y-33057007D01*
X73500000Y-33184174D01*
X73500000Y-33315826D01*
X73534075Y-33442993D01*
X73566988Y-33500000D01*
X72610597Y-33500000D01*
X72543558Y-33480315D01*
X72522916Y-33463681D01*
X65121416Y-26062181D01*
X65087931Y-26000858D01*
X65092915Y-25931166D01*
X65134787Y-25875233D01*
X65200251Y-25850816D01*
X65209097Y-25850500D01*
X71699903Y-25850500D01*
X71766942Y-25870185D01*
G37*
%TD.AperFunction*%
%TD*%
M02*
