%TF.GenerationSoftware,KiCad,Pcbnew,9.0.6*%
%TF.CreationDate,2026-02-20T21:56:45+01:00*%
%TF.ProjectId,flopper_one,666c6f70-7065-4725-9f6f-6e652e6b6963,rev?*%
%TF.SameCoordinates,Original*%
%TF.FileFunction,Copper,L2,Bot*%
%TF.FilePolarity,Positive*%
%FSLAX46Y46*%
G04 Gerber Fmt 4.6, Leading zero omitted, Abs format (unit mm)*
G04 Created by KiCad (PCBNEW 9.0.6) date 2026-02-20 21:56:45*
%MOMM*%
%LPD*%
G01*
G04 APERTURE LIST*
G04 Aperture macros list*
%AMRoundRect*
0 Rectangle with rounded corners*
0 $1 Rounding radius*
0 $2 $3 $4 $5 $6 $7 $8 $9 X,Y pos of 4 corners*
0 Add a 4 corners polygon primitive as box body*
4,1,4,$2,$3,$4,$5,$6,$7,$8,$9,$2,$3,0*
0 Add four circle primitives for the rounded corners*
1,1,$1+$1,$2,$3*
1,1,$1+$1,$4,$5*
1,1,$1+$1,$6,$7*
1,1,$1+$1,$8,$9*
0 Add four rect primitives between the rounded corners*
20,1,$1+$1,$2,$3,$4,$5,0*
20,1,$1+$1,$4,$5,$6,$7,0*
20,1,$1+$1,$6,$7,$8,$9,0*
20,1,$1+$1,$8,$9,$2,$3,0*%
G04 Aperture macros list end*
%TA.AperFunction,Conductor*%
%ADD10C,0.100000*%
%TD*%
%TA.AperFunction,Conductor*%
%ADD11C,0.200000*%
%TD*%
%TA.AperFunction,ComponentPad*%
%ADD12R,2.000000X2.000000*%
%TD*%
%TA.AperFunction,ComponentPad*%
%ADD13C,2.000000*%
%TD*%
%TA.AperFunction,HeatsinkPad*%
%ADD14C,0.500000*%
%TD*%
%TA.AperFunction,HeatsinkPad*%
%ADD15R,1.900000X2.900000*%
%TD*%
%TA.AperFunction,ComponentPad*%
%ADD16R,1.700000X1.700000*%
%TD*%
%TA.AperFunction,ComponentPad*%
%ADD17C,1.700000*%
%TD*%
%TA.AperFunction,ComponentPad*%
%ADD18O,2.000000X3.500000*%
%TD*%
%TA.AperFunction,ComponentPad*%
%ADD19C,1.600000*%
%TD*%
%TA.AperFunction,ComponentPad*%
%ADD20R,1.800000X1.800000*%
%TD*%
%TA.AperFunction,ComponentPad*%
%ADD21C,1.800000*%
%TD*%
%TA.AperFunction,SMDPad,CuDef*%
%ADD22RoundRect,0.750000X0.750000X-1.750000X0.750000X1.750000X-0.750000X1.750000X-0.750000X-1.750000X0*%
%TD*%
%TA.AperFunction,ComponentPad*%
%ADD23RoundRect,0.250000X0.750000X-0.750000X0.750000X0.750000X-0.750000X0.750000X-0.750000X-0.750000X0*%
%TD*%
%TA.AperFunction,ComponentPad*%
%ADD24RoundRect,0.250200X-0.649800X-0.649800X0.649800X-0.649800X0.649800X0.649800X-0.649800X0.649800X0*%
%TD*%
%TA.AperFunction,ComponentPad*%
%ADD25O,1.200000X1.600000*%
%TD*%
%TA.AperFunction,ComponentPad*%
%ADD26C,1.200000*%
%TD*%
%TA.AperFunction,ComponentPad*%
%ADD27RoundRect,0.250000X-0.750000X0.750000X-0.750000X-0.750000X0.750000X-0.750000X0.750000X0.750000X0*%
%TD*%
%TA.AperFunction,ViaPad*%
%ADD28C,0.600000*%
%TD*%
%TA.AperFunction,Conductor*%
%ADD29C,0.500000*%
%TD*%
G04 APERTURE END LIST*
%TO.N,/BAT+*%
D10*
X81875000Y-42750000D02*
X85750000Y-42750000D01*
X85750000Y-46875000D01*
X81875000Y-46875000D01*
X81875000Y-42750000D01*
%TA.AperFunction,Conductor*%
G36*
X81875000Y-42750000D02*
G01*
X85750000Y-42750000D01*
X85750000Y-46875000D01*
X81875000Y-46875000D01*
X81875000Y-42750000D01*
G37*
%TD.AperFunction*%
%TO.N,GND*%
D11*
X87062500Y-43375000D02*
X91437500Y-43375000D01*
X91437500Y-47625000D01*
X87062500Y-47625000D01*
X87062500Y-43375000D01*
%TA.AperFunction,Conductor*%
G36*
X87062500Y-43375000D02*
G01*
X91437500Y-43375000D01*
X91437500Y-47625000D01*
X87062500Y-47625000D01*
X87062500Y-43375000D01*
G37*
%TD.AperFunction*%
%TD*%
D12*
%TO.P,U2,1,VIN*%
%TO.N,/CE*%
X74320000Y-59250000D03*
D13*
%TO.P,U2,2,GND*%
%TO.N,GND*%
X71780000Y-59250000D03*
%TO.P,U2,3,GPIO13*%
%TO.N,unconnected-(U2-GPIO13-Pad3)*%
X69240000Y-59250000D03*
%TO.P,U2,4,GPIO12*%
%TO.N,/P4*%
X66700000Y-59250000D03*
%TO.P,U2,5,GPIO14*%
%TO.N,/P1*%
X64160000Y-59250000D03*
%TO.P,U2,6,GPIO27*%
%TO.N,/P2*%
X61620000Y-59250000D03*
%TO.P,U2,7,GPIO26*%
%TO.N,/P3*%
X59080000Y-59250000D03*
%TO.P,U2,8,GPIO25*%
%TO.N,/P5*%
X56540000Y-59250000D03*
%TO.P,U2,9,GPIO33*%
%TO.N,/RES*%
X54000000Y-59250000D03*
%TO.P,U2,10,GPIO32*%
%TO.N,/DC*%
X51460000Y-59250000D03*
%TO.P,U2,11,GPIO35*%
%TO.N,unconnected-(U2-GPIO35-Pad11)*%
X48920000Y-59250000D03*
%TO.P,U2,12,GPIO34*%
%TO.N,unconnected-(U2-GPIO34-Pad12)*%
X46380000Y-59250000D03*
%TO.P,U2,13,GPIO39*%
%TO.N,unconnected-(U2-GPIO39-Pad13)*%
X43840000Y-59250000D03*
%TO.P,U2,14,GPIO36*%
%TO.N,unconnected-(U2-GPIO36-Pad14)*%
X41300000Y-59250000D03*
%TO.P,U2,15,EN*%
%TO.N,unconnected-(U2-EN-Pad15)*%
X38760000Y-59250000D03*
%TO.P,U2,16,3.3v*%
%TO.N,/VCC*%
X38760000Y-84650000D03*
%TO.P,U2,17,GND*%
%TO.N,GND*%
X41300000Y-84650000D03*
%TO.P,U2,18,GPIO15*%
%TO.N,unconnected-(U2-GPIO15-Pad18)*%
X43840000Y-84650000D03*
%TO.P,U2,19,GPIO2*%
%TO.N,unconnected-(U2-GPIO2-Pad19)*%
X46380000Y-84650000D03*
%TO.P,U2,20,GPIO4*%
%TO.N,unconnected-(U2-GPIO4-Pad20)*%
X48920000Y-84650000D03*
%TO.P,U2,21,GPIO16*%
%TO.N,Net-(U2-GPIO16)*%
X51460000Y-84650000D03*
%TO.P,U2,22,GPIO17*%
%TO.N,/SDA1*%
X54000000Y-84650000D03*
%TO.P,U2,23,GPIO5*%
%TO.N,/SCL1*%
X56540000Y-84650000D03*
%TO.P,U2,24,GPIO18*%
%TO.N,/SCL2*%
X59080000Y-84650000D03*
%TO.P,U2,25,GPIO19*%
%TO.N,/SDA2*%
X61620000Y-84650000D03*
%TO.P,U2,26,GPIO21*%
%TO.N,unconnected-(U2-GPIO21-Pad26)*%
X64160000Y-84650000D03*
%TO.P,U2,27,GPIO3*%
%TO.N,unconnected-(U2-GPIO3-Pad27)*%
X66700000Y-84650000D03*
%TO.P,U2,28,GPIO1*%
%TO.N,unconnected-(U2-GPIO1-Pad28)*%
X69240000Y-84650000D03*
%TO.P,U2,29,GPIO22*%
%TO.N,unconnected-(U2-GPIO22-Pad29)*%
X71780000Y-84650000D03*
%TO.P,U2,30,GPIO23*%
%TO.N,Net-(U2-GPIO23)*%
X74320000Y-84650000D03*
%TD*%
D14*
%TO.P,U1,9,EPAD*%
%TO.N,GND*%
X91300000Y-61275000D03*
X91300000Y-60075000D03*
X91300000Y-58875000D03*
D15*
X90600000Y-60075000D03*
D14*
X89900000Y-61275000D03*
X89900000Y-60075000D03*
X89900000Y-58875000D03*
%TD*%
D16*
%TO.P,J2,1,Pin_1*%
%TO.N,GND*%
X74000000Y-33250000D03*
D17*
%TO.P,J2,2,Pin_2*%
%TO.N,/VCC*%
X74000000Y-35790000D03*
%TO.P,J2,3,Pin_3*%
%TO.N,/SCL2*%
X74000000Y-38330000D03*
%TO.P,J2,4,Pin_4*%
%TO.N,/SDA2*%
X74000000Y-40870000D03*
%TO.P,J2,5,Pin_5*%
%TO.N,/RES*%
X74000000Y-43410000D03*
%TO.P,J2,6,Pin_6*%
%TO.N,/DC*%
X74000000Y-45950000D03*
%TO.P,J2,7,Pin_7*%
%TO.N,/VCC*%
X74000000Y-48490000D03*
%TD*%
D18*
%TO.P,ON=DSG,1,A*%
%TO.N,Net-(SW6-A)*%
X106500000Y-84250000D03*
%TO.P,ON=DSG,2,B*%
%TO.N,/BAT+*%
X101500000Y-84250000D03*
%TD*%
D19*
%TO.P,R5,1*%
%TO.N,Net-(U1-~{CHRG})*%
X104000000Y-49380000D03*
%TO.P,R5,2*%
%TO.N,Net-(D2-K)*%
X104000000Y-57000000D03*
%TD*%
D20*
%TO.P,D3,1,K*%
%TO.N,Net-(D3-K)*%
X107250000Y-79500000D03*
D21*
%TO.P,D3,2,A*%
%TO.N,/CE*%
X104710000Y-79500000D03*
%TD*%
D22*
%TO.P,U4,1,VOUT+*%
%TO.N,/CE*%
X97050000Y-83500000D03*
%TO.P,U4,2,VOUT-*%
%TO.N,GND*%
X90250000Y-83500000D03*
%TO.P,U4,3,VIN-*%
X90250000Y-53000000D03*
%TO.P,U4,4,VIN+*%
%TO.N,Net-(SW6-A)*%
X97050000Y-53000000D03*
%TD*%
D19*
%TO.P,R1,1*%
%TO.N,Net-(D1-A)*%
X44130000Y-31250000D03*
%TO.P,R1,2*%
%TO.N,/VCC*%
X51750000Y-31250000D03*
%TD*%
%TO.P,R3,1*%
%TO.N,Net-(U1-PROG)*%
X105250000Y-59440000D03*
%TO.P,R3,2*%
%TO.N,GND*%
X105250000Y-67060000D03*
%TD*%
%TO.P,R4,1*%
%TO.N,Net-(U1-~{STDBY})*%
X107250000Y-49380000D03*
%TO.P,R4,2*%
%TO.N,Net-(D3-K)*%
X107250000Y-57000000D03*
%TD*%
D23*
%TO.P,C2,1*%
%TO.N,/CE*%
X82750000Y-81250000D03*
D13*
%TO.P,C2,2*%
%TO.N,GND*%
X82750000Y-66250000D03*
%TD*%
D24*
%TO.P,U_2,1,OUT*%
%TO.N,Net-(U2-GPIO23)*%
X42000000Y-28000000D03*
D21*
%TO.P,U_2,2,GND*%
%TO.N,GND*%
X44540000Y-28000000D03*
%TO.P,U_2,3,Vs*%
%TO.N,/VCC*%
X47080000Y-28000000D03*
%TD*%
D19*
%TO.P,R2,1*%
%TO.N,Net-(Q1-B)*%
X53000000Y-35250000D03*
%TO.P,R2,2*%
%TO.N,Net-(U2-GPIO16)*%
X45380000Y-35250000D03*
%TD*%
D25*
%TO.P,Q1,1,E*%
%TO.N,GND*%
X59460000Y-35710000D03*
D26*
%TO.P,Q1,2,B*%
%TO.N,Net-(Q1-B)*%
X62000000Y-38250000D03*
%TO.P,Q1,3,C*%
%TO.N,Net-(D1-K)*%
X59460000Y-40790000D03*
%TD*%
D20*
%TO.P,D1,1,K*%
%TO.N,Net-(D1-K)*%
X57540000Y-29250000D03*
D21*
%TO.P,D1,2,A*%
%TO.N,Net-(D1-A)*%
X55000000Y-29250000D03*
%TD*%
D16*
%TO.P,J1,1,VCC*%
%TO.N,GND*%
X74000000Y-62250000D03*
D17*
%TO.P,J1,2,RX*%
%TO.N,/VCC*%
X74000000Y-64790000D03*
%TO.P,J1,3,TX*%
%TO.N,/SDA1*%
X74000000Y-67330000D03*
%TO.P,J1,4,GND*%
%TO.N,/SCL1*%
X74000000Y-69870000D03*
%TD*%
D20*
%TO.P,D2,1,K*%
%TO.N,Net-(D2-K)*%
X107000000Y-73000000D03*
D21*
%TO.P,D2,2,A*%
%TO.N,/CE*%
X104460000Y-73000000D03*
%TD*%
D27*
%TO.P,C1,1*%
%TO.N,/BAT+*%
X82500000Y-48750000D03*
D13*
%TO.P,C1,2*%
%TO.N,GND*%
X82500000Y-63750000D03*
%TD*%
D28*
%TO.N,GND*%
X68000000Y-43750000D03*
X87500000Y-51750000D03*
%TO.N,/SDA2*%
X71635000Y-74635000D03*
%TO.N,/SCL2*%
X70865000Y-72865000D03*
%TO.N,Net-(U2-GPIO23)*%
X80000000Y-78970000D03*
%TD*%
D11*
%TO.N,Net-(D1-K)*%
X57540000Y-38870000D02*
X59460000Y-40790000D01*
X57540000Y-29250000D02*
X57540000Y-38870000D01*
%TO.N,GND*%
X82750000Y-78963840D02*
X82750000Y-66250000D01*
D29*
X68000000Y-43750000D02*
X68000000Y-55470000D01*
D11*
X90250000Y-49375000D02*
X90250000Y-53000000D01*
D29*
X68000000Y-55470000D02*
X71780000Y-59250000D01*
D11*
X87625000Y-46750000D02*
X90250000Y-49375000D01*
X73523240Y-36941000D02*
X74476760Y-36941000D01*
X105250000Y-67060000D02*
X105661000Y-67471000D01*
X87286160Y-83500000D02*
X82750000Y-78963840D01*
X90250000Y-53000000D02*
X88750000Y-53000000D01*
X64233240Y-43483240D02*
X64233240Y-46231000D01*
D29*
X72750000Y-62250000D02*
X71780000Y-61280000D01*
X74000000Y-62250000D02*
X72750000Y-62250000D01*
D11*
X64233240Y-46231000D02*
X73523240Y-36941000D01*
X90250000Y-83500000D02*
X87286160Y-83500000D01*
X88750000Y-53000000D02*
X87500000Y-51750000D01*
X59460000Y-38710000D02*
X64233240Y-43483240D01*
X59460000Y-35710000D02*
X59460000Y-38710000D01*
D29*
X71780000Y-61280000D02*
X71780000Y-59250000D01*
D11*
X75151000Y-36266760D02*
X75151000Y-34401000D01*
X74476760Y-36941000D02*
X75151000Y-36266760D01*
X75151000Y-34401000D02*
X74000000Y-33250000D01*
%TO.N,/VCC*%
X50000000Y-26250000D02*
X50000000Y-26500000D01*
X47080000Y-28000000D02*
X47080000Y-29170000D01*
X50000000Y-26500000D02*
X51750000Y-28250000D01*
X51750000Y-28250000D02*
X51750000Y-31250000D01*
X47000000Y-29250000D02*
X50000000Y-26250000D01*
X50000000Y-26250000D02*
X64460000Y-26250000D01*
X47080000Y-29170000D02*
X47000000Y-29250000D01*
X64460000Y-26250000D02*
X74000000Y-35790000D01*
%TO.N,Net-(U2-GPIO16)*%
X45380000Y-35250000D02*
X40959000Y-35250000D01*
X51460000Y-73789892D02*
X37459000Y-59788892D01*
X37459000Y-59788892D02*
X37459000Y-38750000D01*
X40959000Y-35250000D02*
X37459000Y-38750000D01*
X51460000Y-84650000D02*
X51460000Y-73789892D01*
%TO.N,/SDA2*%
X76500000Y-62750000D02*
X76500000Y-72500000D01*
X70350000Y-49519239D02*
X72330761Y-51500000D01*
X72000000Y-42870000D02*
X72000000Y-45330761D01*
X74000000Y-40870000D02*
X72000000Y-42870000D01*
X74750000Y-74250000D02*
X72000000Y-74250000D01*
X76500000Y-72500000D02*
X74750000Y-74250000D01*
X72000000Y-74270000D02*
X71635000Y-74635000D01*
X73250000Y-51500000D02*
X78750000Y-57000000D01*
X70350000Y-46980761D02*
X70350000Y-49519239D01*
X72330761Y-51500000D02*
X73250000Y-51500000D01*
X78750000Y-60500000D02*
X76500000Y-62750000D01*
X78750000Y-57000000D02*
X78750000Y-60500000D01*
X72000000Y-74250000D02*
X72000000Y-74270000D01*
X72000000Y-45330761D02*
X70350000Y-46980761D01*
%TO.N,/SCL2*%
X71480000Y-72250000D02*
X70865000Y-72865000D01*
X76000000Y-56250000D02*
X76000000Y-71500000D01*
X76000000Y-71500000D02*
X75250000Y-72250000D01*
X75250000Y-72250000D02*
X71480000Y-72250000D01*
X69500000Y-42830000D02*
X69500000Y-49750000D01*
X69500000Y-49750000D02*
X76000000Y-56250000D01*
X74000000Y-38330000D02*
X69500000Y-42830000D01*
%TO.N,Net-(U2-GPIO23)*%
X80125000Y-33375000D02*
X72500000Y-25750000D01*
X80000000Y-60257709D02*
X80125000Y-60132709D01*
X72500000Y-25750000D02*
X44250000Y-25750000D01*
X44250000Y-25750000D02*
X42000000Y-28000000D01*
X80000000Y-78970000D02*
X80000000Y-60257709D01*
X80125000Y-60132709D02*
X80125000Y-33375000D01*
%TO.N,Net-(D2-K)*%
X104000000Y-57000000D02*
X105500000Y-57000000D01*
X107250000Y-73000000D02*
X107000000Y-73000000D01*
X105500000Y-57000000D02*
X107500000Y-59000000D01*
X107500000Y-59000000D02*
X107500000Y-72750000D01*
X107500000Y-72750000D02*
X107250000Y-73000000D01*
%TO.N,Net-(D3-K)*%
X107750000Y-75250000D02*
X108701000Y-74299000D01*
X107250000Y-79500000D02*
X107750000Y-79000000D01*
X108701000Y-58451000D02*
X107250000Y-57000000D01*
X107750000Y-79000000D02*
X107750000Y-75250000D01*
X108701000Y-74299000D02*
X108701000Y-58451000D01*
D29*
%TO.N,/BAT+*%
X101500000Y-83750000D02*
X101500000Y-84250000D01*
X98799000Y-75299000D02*
X98799000Y-81049000D01*
X86250000Y-62750000D02*
X98799000Y-75299000D01*
D11*
X82500000Y-48750000D02*
X82750000Y-49000000D01*
D29*
X98799000Y-81049000D02*
X101500000Y-83750000D01*
X82750000Y-49000000D02*
X82750000Y-51750000D01*
X82500000Y-45812500D02*
X82500000Y-48750000D01*
X86250000Y-55250000D02*
X86250000Y-62750000D01*
D11*
X83500000Y-44812500D02*
X82500000Y-45812500D01*
D29*
X82750000Y-51750000D02*
X86250000Y-55250000D01*
%TO.N,Net-(SW6-A)*%
X101500000Y-80500000D02*
X102750000Y-80500000D01*
X93250000Y-65250000D02*
X93250000Y-56800000D01*
X101000000Y-73000000D02*
X93250000Y-65250000D01*
X102750000Y-80500000D02*
X106500000Y-84250000D01*
X101000000Y-80000000D02*
X101000000Y-73000000D01*
X101000000Y-80000000D02*
X101500000Y-80500000D01*
X93250000Y-56800000D02*
X97050000Y-53000000D01*
%TO.N,/CE*%
X70551000Y-71699000D02*
X69375000Y-72875000D01*
D11*
X104460000Y-73000000D02*
X104460000Y-79620108D01*
D29*
X74250000Y-71699000D02*
X70551000Y-71699000D01*
X75449000Y-70500000D02*
X74250000Y-71699000D01*
D11*
X104460000Y-79620108D02*
X107801000Y-82961108D01*
D29*
X79201000Y-86451000D02*
X94099000Y-86451000D01*
X69375000Y-72875000D02*
X69375000Y-76625000D01*
X94099000Y-86451000D02*
X97050000Y-83500000D01*
D11*
X107038892Y-86301000D02*
X99851000Y-86301000D01*
D29*
X75151000Y-60151000D02*
X74750000Y-59750000D01*
D11*
X99851000Y-86301000D02*
X97050000Y-83500000D01*
D29*
X75449000Y-60379000D02*
X75449000Y-70500000D01*
D11*
X107801000Y-82961108D02*
X107801000Y-85538892D01*
X107801000Y-85538892D02*
X107038892Y-86301000D01*
D29*
X74320000Y-59250000D02*
X75449000Y-60379000D01*
X69375000Y-76625000D02*
X79201000Y-86451000D01*
%TD*%
%TA.AperFunction,Conductor*%
%TO.N,GND*%
G36*
X109192539Y-24770185D02*
G01*
X109238294Y-24822989D01*
X109249500Y-24874500D01*
X109249500Y-57850903D01*
X109229815Y-57917942D01*
X109177011Y-57963697D01*
X109107853Y-57973641D01*
X109044297Y-57944616D01*
X109037819Y-57938584D01*
X108544077Y-57444842D01*
X108510592Y-57383519D01*
X108513828Y-57318841D01*
X108518477Y-57304534D01*
X108550500Y-57102352D01*
X108550500Y-56897648D01*
X108518477Y-56695466D01*
X108455220Y-56500781D01*
X108455218Y-56500778D01*
X108455218Y-56500776D01*
X108421503Y-56434607D01*
X108362287Y-56318390D01*
X108354556Y-56307749D01*
X108241971Y-56152786D01*
X108097213Y-56008028D01*
X107931613Y-55887715D01*
X107931612Y-55887714D01*
X107931610Y-55887713D01*
X107874653Y-55858691D01*
X107749223Y-55794781D01*
X107554534Y-55731522D01*
X107379995Y-55703878D01*
X107352352Y-55699500D01*
X107147648Y-55699500D01*
X107123329Y-55703351D01*
X106945465Y-55731522D01*
X106750776Y-55794781D01*
X106568386Y-55887715D01*
X106402786Y-56008028D01*
X106258028Y-56152786D01*
X106137715Y-56318386D01*
X106056129Y-56478506D01*
X106047221Y-56487936D01*
X106042268Y-56499928D01*
X106023690Y-56512851D01*
X106008154Y-56529302D01*
X105995561Y-56532420D01*
X105984912Y-56539829D01*
X105962297Y-56540657D01*
X105940333Y-56546097D01*
X105926443Y-56541971D01*
X105915089Y-56542388D01*
X105894962Y-56532621D01*
X105882469Y-56528911D01*
X105871873Y-56522637D01*
X105868716Y-56519480D01*
X105781904Y-56469360D01*
X105731785Y-56440423D01*
X105579057Y-56399499D01*
X105420943Y-56399499D01*
X105413347Y-56399499D01*
X105413331Y-56399500D01*
X105229602Y-56399500D01*
X105162563Y-56379815D01*
X105119117Y-56331795D01*
X105112284Y-56318385D01*
X104991971Y-56152786D01*
X104847213Y-56008028D01*
X104681613Y-55887715D01*
X104681612Y-55887714D01*
X104681610Y-55887713D01*
X104624653Y-55858691D01*
X104499223Y-55794781D01*
X104304534Y-55731522D01*
X104129995Y-55703878D01*
X104102352Y-55699500D01*
X103897648Y-55699500D01*
X103873329Y-55703351D01*
X103695465Y-55731522D01*
X103500776Y-55794781D01*
X103318386Y-55887715D01*
X103152786Y-56008028D01*
X103008028Y-56152786D01*
X102887715Y-56318386D01*
X102794781Y-56500776D01*
X102731522Y-56695465D01*
X102699500Y-56897648D01*
X102699500Y-57102351D01*
X102731522Y-57304534D01*
X102794781Y-57499223D01*
X102846385Y-57600500D01*
X102885775Y-57677807D01*
X102887715Y-57681613D01*
X103008028Y-57847213D01*
X103152786Y-57991971D01*
X103296877Y-58096657D01*
X103318390Y-58112287D01*
X103418748Y-58163422D01*
X103500776Y-58205218D01*
X103500778Y-58205218D01*
X103500781Y-58205220D01*
X103591757Y-58234780D01*
X103695465Y-58268477D01*
X103742313Y-58275897D01*
X103897648Y-58300500D01*
X103897649Y-58300500D01*
X104102351Y-58300500D01*
X104102352Y-58300500D01*
X104257685Y-58275897D01*
X104326977Y-58284851D01*
X104380429Y-58329847D01*
X104401069Y-58396599D01*
X104382344Y-58463913D01*
X104364764Y-58486051D01*
X104258027Y-58592788D01*
X104137715Y-58758386D01*
X104044781Y-58940776D01*
X103981522Y-59135465D01*
X103949500Y-59337648D01*
X103949500Y-59542351D01*
X103981522Y-59744534D01*
X104044781Y-59939223D01*
X104081985Y-60012238D01*
X104113964Y-60075001D01*
X104137715Y-60121613D01*
X104258028Y-60287213D01*
X104402786Y-60431971D01*
X104557749Y-60544556D01*
X104568390Y-60552287D01*
X104680170Y-60609242D01*
X104750776Y-60645218D01*
X104750778Y-60645218D01*
X104750781Y-60645220D01*
X104855137Y-60679127D01*
X104945465Y-60708477D01*
X105031073Y-60722036D01*
X105147648Y-60740500D01*
X105147649Y-60740500D01*
X105352351Y-60740500D01*
X105352352Y-60740500D01*
X105554534Y-60708477D01*
X105749219Y-60645220D01*
X105750403Y-60644617D01*
X105782381Y-60628323D01*
X105931610Y-60552287D01*
X106024590Y-60484732D01*
X106097213Y-60431971D01*
X106097215Y-60431968D01*
X106097219Y-60431966D01*
X106241966Y-60287219D01*
X106241968Y-60287215D01*
X106241971Y-60287213D01*
X106294732Y-60214590D01*
X106362287Y-60121610D01*
X106455220Y-59939219D01*
X106518477Y-59744534D01*
X106550500Y-59542352D01*
X106550500Y-59337648D01*
X106527788Y-59194254D01*
X106536742Y-59124963D01*
X106581738Y-59071511D01*
X106648490Y-59050871D01*
X106715804Y-59069596D01*
X106737942Y-59087177D01*
X106863181Y-59212416D01*
X106896666Y-59273739D01*
X106899500Y-59300097D01*
X106899500Y-71475500D01*
X106879815Y-71542539D01*
X106827011Y-71588294D01*
X106775500Y-71599500D01*
X106052129Y-71599500D01*
X106052123Y-71599501D01*
X105992516Y-71605908D01*
X105857671Y-71656202D01*
X105857664Y-71656206D01*
X105742455Y-71742452D01*
X105742452Y-71742455D01*
X105656206Y-71857664D01*
X105656203Y-71857669D01*
X105626398Y-71937581D01*
X105584526Y-71993514D01*
X105519062Y-72017931D01*
X105450789Y-72003079D01*
X105422535Y-71981928D01*
X105372363Y-71931756D01*
X105372358Y-71931752D01*
X105194025Y-71802187D01*
X105194024Y-71802186D01*
X105194022Y-71802185D01*
X105076791Y-71742452D01*
X104997606Y-71702104D01*
X104997603Y-71702103D01*
X104787952Y-71633985D01*
X104679086Y-71616742D01*
X104570222Y-71599500D01*
X104349778Y-71599500D01*
X104277201Y-71610995D01*
X104132047Y-71633985D01*
X103922396Y-71702103D01*
X103922393Y-71702104D01*
X103725974Y-71802187D01*
X103547641Y-71931752D01*
X103547636Y-71931756D01*
X103391756Y-72087636D01*
X103391752Y-72087641D01*
X103262187Y-72265974D01*
X103162104Y-72462393D01*
X103162103Y-72462396D01*
X103093985Y-72672047D01*
X103059500Y-72889778D01*
X103059500Y-73110221D01*
X103093985Y-73327952D01*
X103162103Y-73537603D01*
X103162104Y-73537606D01*
X103262187Y-73734025D01*
X103391752Y-73912358D01*
X103391756Y-73912363D01*
X103547636Y-74068243D01*
X103547641Y-74068247D01*
X103725976Y-74197814D01*
X103791794Y-74231350D01*
X103842591Y-74279324D01*
X103859500Y-74341835D01*
X103859500Y-78323629D01*
X103839815Y-78390668D01*
X103808388Y-78423945D01*
X103797638Y-78431755D01*
X103797632Y-78431760D01*
X103641756Y-78587636D01*
X103641752Y-78587641D01*
X103512187Y-78765974D01*
X103412104Y-78962393D01*
X103412103Y-78962396D01*
X103343985Y-79172047D01*
X103309500Y-79389778D01*
X103309500Y-79610222D01*
X103309499Y-79610222D01*
X103329097Y-79733958D01*
X103320142Y-79803251D01*
X103275146Y-79856703D01*
X103208394Y-79877342D01*
X103141080Y-79858617D01*
X103137733Y-79856457D01*
X103105492Y-79834914D01*
X102968917Y-79778343D01*
X102968907Y-79778340D01*
X102823920Y-79749500D01*
X102823918Y-79749500D01*
X101874500Y-79749500D01*
X101807461Y-79729815D01*
X101761706Y-79677011D01*
X101750500Y-79625500D01*
X101750500Y-72926079D01*
X101721659Y-72781092D01*
X101721658Y-72781091D01*
X101721658Y-72781087D01*
X101701239Y-72731790D01*
X101665087Y-72644511D01*
X101665080Y-72644498D01*
X101582952Y-72521585D01*
X101582951Y-72521584D01*
X101478416Y-72417049D01*
X96019050Y-66957682D01*
X103950000Y-66957682D01*
X103950000Y-67162317D01*
X103982009Y-67364417D01*
X104045244Y-67559031D01*
X104138141Y-67741350D01*
X104138147Y-67741359D01*
X104170523Y-67785921D01*
X104170524Y-67785922D01*
X104850000Y-67106446D01*
X104850000Y-67112661D01*
X104877259Y-67214394D01*
X104929920Y-67305606D01*
X105004394Y-67380080D01*
X105095606Y-67432741D01*
X105197339Y-67460000D01*
X105203553Y-67460000D01*
X104524076Y-68139474D01*
X104568650Y-68171859D01*
X104750968Y-68264755D01*
X104945582Y-68327990D01*
X105147683Y-68360000D01*
X105352317Y-68360000D01*
X105554417Y-68327990D01*
X105749031Y-68264755D01*
X105931349Y-68171859D01*
X105975921Y-68139474D01*
X105296447Y-67460000D01*
X105302661Y-67460000D01*
X105404394Y-67432741D01*
X105495606Y-67380080D01*
X105570080Y-67305606D01*
X105622741Y-67214394D01*
X105650000Y-67112661D01*
X105650000Y-67106447D01*
X106329474Y-67785921D01*
X106361859Y-67741349D01*
X106454755Y-67559031D01*
X106517990Y-67364417D01*
X106550000Y-67162317D01*
X106550000Y-66957682D01*
X106517990Y-66755582D01*
X106454755Y-66560968D01*
X106361859Y-66378650D01*
X106329474Y-66334077D01*
X106329474Y-66334076D01*
X105650000Y-67013551D01*
X105650000Y-67007339D01*
X105622741Y-66905606D01*
X105570080Y-66814394D01*
X105495606Y-66739920D01*
X105404394Y-66687259D01*
X105302661Y-66660000D01*
X105296446Y-66660000D01*
X105975922Y-65980524D01*
X105975921Y-65980523D01*
X105931359Y-65948147D01*
X105931350Y-65948141D01*
X105749031Y-65855244D01*
X105554417Y-65792009D01*
X105352317Y-65760000D01*
X105147683Y-65760000D01*
X104945582Y-65792009D01*
X104750968Y-65855244D01*
X104568644Y-65948143D01*
X104524077Y-65980523D01*
X104524077Y-65980524D01*
X105203554Y-66660000D01*
X105197339Y-66660000D01*
X105095606Y-66687259D01*
X105004394Y-66739920D01*
X104929920Y-66814394D01*
X104877259Y-66905606D01*
X104850000Y-67007339D01*
X104850000Y-67013553D01*
X104170524Y-66334077D01*
X104170523Y-66334077D01*
X104138143Y-66378644D01*
X104045244Y-66560968D01*
X103982009Y-66755582D01*
X103950000Y-66957682D01*
X96019050Y-66957682D01*
X94036819Y-64975451D01*
X94003334Y-64914128D01*
X94000500Y-64887770D01*
X94000500Y-57162229D01*
X94020185Y-57095190D01*
X94036819Y-57074548D01*
X94670944Y-56440423D01*
X95364373Y-55746993D01*
X95425694Y-55713510D01*
X95495386Y-55718494D01*
X95522668Y-55732748D01*
X95575685Y-55769478D01*
X95680374Y-55842007D01*
X95885317Y-55935096D01*
X95885321Y-55935097D01*
X96103579Y-55990094D01*
X96103581Y-55990094D01*
X96103588Y-55990096D01*
X96235783Y-56000500D01*
X97864216Y-56000499D01*
X97996412Y-55990096D01*
X98214683Y-55935096D01*
X98419626Y-55842007D01*
X98604654Y-55713819D01*
X98763819Y-55554654D01*
X98892007Y-55369626D01*
X98985096Y-55164683D01*
X99040096Y-54946412D01*
X99050500Y-54814217D01*
X99050499Y-51185784D01*
X99040096Y-51053588D01*
X98985096Y-50835317D01*
X98892007Y-50630374D01*
X98764048Y-50445676D01*
X98763825Y-50445354D01*
X98763822Y-50445350D01*
X98763819Y-50445346D01*
X98604654Y-50286181D01*
X98604650Y-50286178D01*
X98604645Y-50286174D01*
X98419632Y-50157997D01*
X98419630Y-50157995D01*
X98419626Y-50157993D01*
X98215724Y-50065377D01*
X98214681Y-50064903D01*
X98214678Y-50064902D01*
X97996420Y-50009905D01*
X97996413Y-50009904D01*
X97952347Y-50006436D01*
X97864217Y-49999500D01*
X97864215Y-49999500D01*
X96235791Y-49999500D01*
X96235776Y-49999501D01*
X96103586Y-50009904D01*
X96103579Y-50009905D01*
X95885321Y-50064902D01*
X95885318Y-50064903D01*
X95680377Y-50157991D01*
X95680367Y-50157997D01*
X95495354Y-50286174D01*
X95495342Y-50286184D01*
X95336184Y-50445342D01*
X95336174Y-50445354D01*
X95207997Y-50630367D01*
X95207991Y-50630377D01*
X95114903Y-50835318D01*
X95114902Y-50835321D01*
X95059905Y-51053579D01*
X95059904Y-51053586D01*
X95049500Y-51185777D01*
X95049500Y-53887769D01*
X95029815Y-53954808D01*
X95013181Y-53975450D01*
X92667050Y-56321580D01*
X92667044Y-56321588D01*
X92617812Y-56395268D01*
X92617813Y-56395269D01*
X92584921Y-56444496D01*
X92584914Y-56444508D01*
X92528342Y-56581086D01*
X92528340Y-56581092D01*
X92499500Y-56726079D01*
X92499500Y-56726082D01*
X92499500Y-65323918D01*
X92499500Y-65323920D01*
X92499499Y-65323920D01*
X92528340Y-65468907D01*
X92528343Y-65468917D01*
X92584914Y-65605492D01*
X92617812Y-65654727D01*
X92617813Y-65654730D01*
X92667046Y-65728414D01*
X92667052Y-65728421D01*
X100213181Y-73274548D01*
X100246666Y-73335871D01*
X100249500Y-73362229D01*
X100249500Y-80073918D01*
X100249500Y-80073920D01*
X100249499Y-80073920D01*
X100278340Y-80218907D01*
X100278343Y-80218917D01*
X100334914Y-80355492D01*
X100367812Y-80404727D01*
X100367813Y-80404730D01*
X100417046Y-80478414D01*
X100417052Y-80478421D01*
X101021581Y-81082950D01*
X101021584Y-81082952D01*
X101081397Y-81122917D01*
X101144505Y-81165084D01*
X101281087Y-81221658D01*
X101281091Y-81221658D01*
X101281092Y-81221659D01*
X101426079Y-81250500D01*
X101426082Y-81250500D01*
X101426083Y-81250500D01*
X101573918Y-81250500D01*
X102387770Y-81250500D01*
X102454809Y-81270185D01*
X102475451Y-81286819D01*
X104963181Y-83774549D01*
X104996666Y-83835872D01*
X104999500Y-83862230D01*
X104999500Y-85118097D01*
X105036446Y-85351368D01*
X105064211Y-85436817D01*
X105097147Y-85538182D01*
X105099142Y-85608022D01*
X105063062Y-85667855D01*
X105000361Y-85698684D01*
X104979216Y-85700500D01*
X103020784Y-85700500D01*
X102953745Y-85680815D01*
X102907990Y-85628011D01*
X102898046Y-85558853D01*
X102902851Y-85538187D01*
X102963553Y-85351368D01*
X102969440Y-85314197D01*
X103000500Y-85118097D01*
X103000500Y-83381902D01*
X102963553Y-83148631D01*
X102890566Y-82924003D01*
X102811499Y-82768826D01*
X102783343Y-82713567D01*
X102644517Y-82522490D01*
X102477510Y-82355483D01*
X102286433Y-82216657D01*
X102286425Y-82216653D01*
X102075996Y-82109433D01*
X101851368Y-82036446D01*
X101618097Y-81999500D01*
X101618092Y-81999500D01*
X101381908Y-81999500D01*
X101381903Y-81999500D01*
X101148630Y-82036447D01*
X101148627Y-82036447D01*
X100993854Y-82086737D01*
X100924013Y-82088732D01*
X100867855Y-82056487D01*
X99585819Y-80774451D01*
X99552334Y-80713128D01*
X99549500Y-80686770D01*
X99549500Y-75225079D01*
X99520659Y-75080092D01*
X99520658Y-75080091D01*
X99520658Y-75080087D01*
X99495028Y-75018210D01*
X99464086Y-74943509D01*
X99464085Y-74943507D01*
X99431186Y-74894270D01*
X99431185Y-74894268D01*
X99381956Y-74820589D01*
X99381952Y-74820584D01*
X87036819Y-62475451D01*
X87003334Y-62414128D01*
X87000500Y-62387770D01*
X87000500Y-61952577D01*
X89575975Y-61952577D01*
X89681236Y-61996178D01*
X89681240Y-61996179D01*
X89826126Y-62024999D01*
X89826129Y-62025000D01*
X89973871Y-62025000D01*
X89973873Y-62024999D01*
X90118760Y-61996179D01*
X90118775Y-61996175D01*
X90224024Y-61952578D01*
X90224024Y-61952577D01*
X90975975Y-61952577D01*
X91081236Y-61996178D01*
X91081240Y-61996179D01*
X91226126Y-62024999D01*
X91226129Y-62025000D01*
X91373871Y-62025000D01*
X91373873Y-62024999D01*
X91518760Y-61996179D01*
X91518775Y-61996175D01*
X91624024Y-61952578D01*
X91624024Y-61952577D01*
X91300001Y-61628554D01*
X91300000Y-61628554D01*
X90975975Y-61952577D01*
X90224024Y-61952577D01*
X89900001Y-61628554D01*
X89900000Y-61628554D01*
X89575975Y-61952577D01*
X87000500Y-61952577D01*
X87000500Y-61201126D01*
X89150000Y-61201126D01*
X89150000Y-61348873D01*
X89178820Y-61493759D01*
X89178822Y-61493767D01*
X89222421Y-61599024D01*
X89546446Y-61275000D01*
X89546446Y-61274999D01*
X89516610Y-61245163D01*
X89750000Y-61245163D01*
X89750000Y-61304837D01*
X89772836Y-61359968D01*
X89815032Y-61402164D01*
X89870163Y-61425000D01*
X89929837Y-61425000D01*
X89984968Y-61402164D01*
X90027164Y-61359968D01*
X90050000Y-61304837D01*
X90050000Y-61274999D01*
X90253554Y-61274999D01*
X90253554Y-61275001D01*
X90577929Y-61599376D01*
X90622069Y-61599376D01*
X90946446Y-61275000D01*
X90916609Y-61245163D01*
X91150000Y-61245163D01*
X91150000Y-61304837D01*
X91172836Y-61359968D01*
X91215032Y-61402164D01*
X91270163Y-61425000D01*
X91329837Y-61425000D01*
X91384968Y-61402164D01*
X91427164Y-61359968D01*
X91450000Y-61304837D01*
X91450000Y-61274999D01*
X91653554Y-61274999D01*
X91653554Y-61275001D01*
X91977577Y-61599024D01*
X91977578Y-61599024D01*
X92021175Y-61493775D01*
X92021179Y-61493760D01*
X92049999Y-61348873D01*
X92050000Y-61348871D01*
X92050000Y-61201128D01*
X92049999Y-61201126D01*
X92021179Y-61056240D01*
X92021178Y-61056236D01*
X91977577Y-60950975D01*
X91653554Y-61274999D01*
X91450000Y-61274999D01*
X91450000Y-61245163D01*
X91427164Y-61190032D01*
X91384968Y-61147836D01*
X91329837Y-61125000D01*
X91270163Y-61125000D01*
X91215032Y-61147836D01*
X91172836Y-61190032D01*
X91150000Y-61245163D01*
X90916609Y-61245163D01*
X90622068Y-60950622D01*
X90577930Y-60950622D01*
X90253554Y-61274999D01*
X90050000Y-61274999D01*
X90050000Y-61245163D01*
X90027164Y-61190032D01*
X89984968Y-61147836D01*
X89929837Y-61125000D01*
X89870163Y-61125000D01*
X89815032Y-61147836D01*
X89772836Y-61190032D01*
X89750000Y-61245163D01*
X89516610Y-61245163D01*
X89222421Y-60950974D01*
X89222420Y-60950974D01*
X89178823Y-61056228D01*
X89178820Y-61056240D01*
X89150000Y-61201126D01*
X87000500Y-61201126D01*
X87000500Y-60675000D01*
X89653554Y-60675000D01*
X89900000Y-60921446D01*
X90146446Y-60675000D01*
X91053554Y-60675000D01*
X91300000Y-60921446D01*
X91546446Y-60675000D01*
X91300000Y-60428554D01*
X91053554Y-60675000D01*
X90146446Y-60675000D01*
X89900000Y-60428554D01*
X89653554Y-60675000D01*
X87000500Y-60675000D01*
X87000500Y-60001126D01*
X89150000Y-60001126D01*
X89150000Y-60148873D01*
X89178820Y-60293759D01*
X89178822Y-60293767D01*
X89222421Y-60399024D01*
X89546446Y-60075000D01*
X89546446Y-60074999D01*
X89516610Y-60045163D01*
X89750000Y-60045163D01*
X89750000Y-60104837D01*
X89772836Y-60159968D01*
X89815032Y-60202164D01*
X89870163Y-60225000D01*
X89929837Y-60225000D01*
X89984968Y-60202164D01*
X90027164Y-60159968D01*
X90050000Y-60104837D01*
X90050000Y-60074999D01*
X90253554Y-60074999D01*
X90253554Y-60075001D01*
X90577929Y-60399376D01*
X90622069Y-60399376D01*
X90946446Y-60075000D01*
X90916609Y-60045163D01*
X91150000Y-60045163D01*
X91150000Y-60104837D01*
X91172836Y-60159968D01*
X91215032Y-60202164D01*
X91270163Y-60225000D01*
X91329837Y-60225000D01*
X91384968Y-60202164D01*
X91427164Y-60159968D01*
X91450000Y-60104837D01*
X91450000Y-60074999D01*
X91653554Y-60074999D01*
X91653554Y-60075001D01*
X91977577Y-60399024D01*
X91977578Y-60399024D01*
X92021175Y-60293775D01*
X92021179Y-60293760D01*
X92049999Y-60148873D01*
X92050000Y-60148871D01*
X92050000Y-60001128D01*
X92049999Y-60001126D01*
X92021179Y-59856240D01*
X92021178Y-59856236D01*
X91977577Y-59750975D01*
X91653554Y-60074999D01*
X91450000Y-60074999D01*
X91450000Y-60045163D01*
X91427164Y-59990032D01*
X91384968Y-59947836D01*
X91329837Y-59925000D01*
X91270163Y-59925000D01*
X91215032Y-59947836D01*
X91172836Y-59990032D01*
X91150000Y-60045163D01*
X90916609Y-60045163D01*
X90622068Y-59750622D01*
X90577930Y-59750622D01*
X90253554Y-60074999D01*
X90050000Y-60074999D01*
X90050000Y-60045163D01*
X90027164Y-59990032D01*
X89984968Y-59947836D01*
X89929837Y-59925000D01*
X89870163Y-59925000D01*
X89815032Y-59947836D01*
X89772836Y-59990032D01*
X89750000Y-60045163D01*
X89516610Y-60045163D01*
X89222421Y-59750974D01*
X89222420Y-59750974D01*
X89178823Y-59856228D01*
X89178820Y-59856240D01*
X89150000Y-60001126D01*
X87000500Y-60001126D01*
X87000500Y-59475000D01*
X89653554Y-59475000D01*
X89900000Y-59721446D01*
X90146446Y-59475000D01*
X91053554Y-59475000D01*
X91300000Y-59721446D01*
X91546446Y-59475000D01*
X91300000Y-59228554D01*
X91053554Y-59475000D01*
X90146446Y-59475000D01*
X89900000Y-59228554D01*
X89653554Y-59475000D01*
X87000500Y-59475000D01*
X87000500Y-58801126D01*
X89150000Y-58801126D01*
X89150000Y-58948873D01*
X89178820Y-59093759D01*
X89178822Y-59093767D01*
X89222421Y-59199024D01*
X89546446Y-58875000D01*
X89546446Y-58874999D01*
X89516610Y-58845163D01*
X89750000Y-58845163D01*
X89750000Y-58904837D01*
X89772836Y-58959968D01*
X89815032Y-59002164D01*
X89870163Y-59025000D01*
X89929837Y-59025000D01*
X89984968Y-59002164D01*
X90027164Y-58959968D01*
X90050000Y-58904837D01*
X90050000Y-58874999D01*
X90253554Y-58874999D01*
X90253554Y-58875001D01*
X90577929Y-59199376D01*
X90622069Y-59199376D01*
X90946446Y-58875000D01*
X90916609Y-58845163D01*
X91150000Y-58845163D01*
X91150000Y-58904837D01*
X91172836Y-58959968D01*
X91215032Y-59002164D01*
X91270163Y-59025000D01*
X91329837Y-59025000D01*
X91384968Y-59002164D01*
X91427164Y-58959968D01*
X91450000Y-58904837D01*
X91450000Y-58874999D01*
X91653554Y-58874999D01*
X91653554Y-58875001D01*
X91977577Y-59199024D01*
X91977578Y-59199024D01*
X92021175Y-59093775D01*
X92021179Y-59093760D01*
X92049999Y-58948873D01*
X92050000Y-58948871D01*
X92050000Y-58801128D01*
X92049999Y-58801126D01*
X92021179Y-58656240D01*
X92021178Y-58656236D01*
X91977577Y-58550975D01*
X91653554Y-58874999D01*
X91450000Y-58874999D01*
X91450000Y-58845163D01*
X91427164Y-58790032D01*
X91384968Y-58747836D01*
X91329837Y-58725000D01*
X91270163Y-58725000D01*
X91215032Y-58747836D01*
X91172836Y-58790032D01*
X91150000Y-58845163D01*
X90916609Y-58845163D01*
X90622068Y-58550622D01*
X90577930Y-58550622D01*
X90253554Y-58874999D01*
X90050000Y-58874999D01*
X90050000Y-58845163D01*
X90027164Y-58790032D01*
X89984968Y-58747836D01*
X89929837Y-58725000D01*
X89870163Y-58725000D01*
X89815032Y-58747836D01*
X89772836Y-58790032D01*
X89750000Y-58845163D01*
X89516610Y-58845163D01*
X89222421Y-58550974D01*
X89222420Y-58550974D01*
X89178823Y-58656228D01*
X89178820Y-58656240D01*
X89150000Y-58801126D01*
X87000500Y-58801126D01*
X87000500Y-58197420D01*
X89575974Y-58197420D01*
X89575974Y-58197421D01*
X89900000Y-58521446D01*
X89900001Y-58521446D01*
X90224024Y-58197421D01*
X90224022Y-58197420D01*
X90975974Y-58197420D01*
X90975974Y-58197421D01*
X91300000Y-58521446D01*
X91300001Y-58521446D01*
X91624024Y-58197421D01*
X91518767Y-58153822D01*
X91518759Y-58153820D01*
X91373872Y-58125000D01*
X91226128Y-58125000D01*
X91081240Y-58153820D01*
X91081228Y-58153823D01*
X90975974Y-58197420D01*
X90224022Y-58197420D01*
X90118767Y-58153822D01*
X90118759Y-58153820D01*
X89973872Y-58125000D01*
X89826128Y-58125000D01*
X89681240Y-58153820D01*
X89681228Y-58153823D01*
X89575974Y-58197420D01*
X87000500Y-58197420D01*
X87000500Y-55176079D01*
X86971659Y-55031092D01*
X86971658Y-55031091D01*
X86971658Y-55031087D01*
X86936585Y-54946412D01*
X86915087Y-54894511D01*
X86915080Y-54894498D01*
X86861424Y-54814197D01*
X88250001Y-54814197D01*
X88260400Y-54946332D01*
X88315377Y-55164519D01*
X88408428Y-55369374D01*
X88408431Y-55369380D01*
X88536559Y-55554323D01*
X88536569Y-55554335D01*
X88695664Y-55713430D01*
X88695676Y-55713440D01*
X88880619Y-55841568D01*
X88880625Y-55841571D01*
X89085480Y-55934622D01*
X89303667Y-55989599D01*
X89435810Y-55999999D01*
X89999999Y-55999999D01*
X90500000Y-55999999D01*
X91064182Y-55999999D01*
X91064197Y-55999998D01*
X91196332Y-55989599D01*
X91414519Y-55934622D01*
X91619374Y-55841571D01*
X91619380Y-55841568D01*
X91804323Y-55713440D01*
X91804335Y-55713430D01*
X91963430Y-55554335D01*
X91963440Y-55554323D01*
X92091568Y-55369380D01*
X92091571Y-55369374D01*
X92184622Y-55164519D01*
X92239599Y-54946332D01*
X92249999Y-54814196D01*
X92250000Y-54814184D01*
X92250000Y-53250000D01*
X90500000Y-53250000D01*
X90500000Y-55999999D01*
X89999999Y-55999999D01*
X90000000Y-55999998D01*
X90000000Y-53250000D01*
X88250001Y-53250000D01*
X88250001Y-54814197D01*
X86861424Y-54814197D01*
X86832952Y-54771585D01*
X86832951Y-54771584D01*
X86728416Y-54667049D01*
X83536819Y-51475451D01*
X83522115Y-51448523D01*
X83505523Y-51422705D01*
X83504631Y-51416504D01*
X83503334Y-51414128D01*
X83500500Y-51387770D01*
X83500500Y-51185803D01*
X88250000Y-51185803D01*
X88250000Y-52750000D01*
X90000000Y-52750000D01*
X90500000Y-52750000D01*
X92249999Y-52750000D01*
X92249999Y-51185817D01*
X92249998Y-51185802D01*
X92239599Y-51053667D01*
X92184622Y-50835480D01*
X92091571Y-50630625D01*
X92091568Y-50630619D01*
X91963440Y-50445676D01*
X91963430Y-50445664D01*
X91804335Y-50286569D01*
X91804323Y-50286559D01*
X91619380Y-50158431D01*
X91619374Y-50158428D01*
X91414519Y-50065377D01*
X91196332Y-50010400D01*
X91064196Y-50000000D01*
X90500000Y-50000000D01*
X90500000Y-52750000D01*
X90000000Y-52750000D01*
X90000000Y-50000000D01*
X89435817Y-50000000D01*
X89435802Y-50000001D01*
X89303667Y-50010400D01*
X89085480Y-50065377D01*
X88880625Y-50158428D01*
X88880619Y-50158431D01*
X88695676Y-50286559D01*
X88695664Y-50286569D01*
X88536569Y-50445664D01*
X88536559Y-50445676D01*
X88408431Y-50630619D01*
X88408428Y-50630625D01*
X88315377Y-50835480D01*
X88260400Y-51053667D01*
X88250000Y-51185803D01*
X83500500Y-51185803D01*
X83500500Y-50295908D01*
X83520185Y-50228869D01*
X83564271Y-50190363D01*
X83563187Y-50188605D01*
X83569332Y-50184814D01*
X83569334Y-50184814D01*
X83718656Y-50092712D01*
X83842712Y-49968656D01*
X83934814Y-49819334D01*
X83989999Y-49652797D01*
X84000500Y-49550009D01*
X84000500Y-49277648D01*
X102699500Y-49277648D01*
X102699500Y-49482351D01*
X102731522Y-49684534D01*
X102794781Y-49879223D01*
X102887715Y-50061613D01*
X103008028Y-50227213D01*
X103152786Y-50371971D01*
X103307749Y-50484556D01*
X103318390Y-50492287D01*
X103434607Y-50551503D01*
X103500776Y-50585218D01*
X103500778Y-50585218D01*
X103500781Y-50585220D01*
X103605137Y-50619127D01*
X103695465Y-50648477D01*
X103796557Y-50664488D01*
X103897648Y-50680500D01*
X103897649Y-50680500D01*
X104102351Y-50680500D01*
X104102352Y-50680500D01*
X104304534Y-50648477D01*
X104499219Y-50585220D01*
X104681610Y-50492287D01*
X104843733Y-50374499D01*
X104847213Y-50371971D01*
X104847215Y-50371968D01*
X104847219Y-50371966D01*
X104991966Y-50227219D01*
X104991968Y-50227215D01*
X104991971Y-50227213D01*
X105089690Y-50092712D01*
X105112287Y-50061610D01*
X105205220Y-49879219D01*
X105268477Y-49684534D01*
X105300500Y-49482352D01*
X105300500Y-49277648D01*
X105949500Y-49277648D01*
X105949500Y-49482351D01*
X105981522Y-49684534D01*
X106044781Y-49879223D01*
X106137715Y-50061613D01*
X106258028Y-50227213D01*
X106402786Y-50371971D01*
X106557749Y-50484556D01*
X106568390Y-50492287D01*
X106684607Y-50551503D01*
X106750776Y-50585218D01*
X106750778Y-50585218D01*
X106750781Y-50585220D01*
X106855137Y-50619127D01*
X106945465Y-50648477D01*
X107046557Y-50664488D01*
X107147648Y-50680500D01*
X107147649Y-50680500D01*
X107352351Y-50680500D01*
X107352352Y-50680500D01*
X107554534Y-50648477D01*
X107749219Y-50585220D01*
X107931610Y-50492287D01*
X108093733Y-50374499D01*
X108097213Y-50371971D01*
X108097215Y-50371968D01*
X108097219Y-50371966D01*
X108241966Y-50227219D01*
X108241968Y-50227215D01*
X108241971Y-50227213D01*
X108339690Y-50092712D01*
X108362287Y-50061610D01*
X108455220Y-49879219D01*
X108518477Y-49684534D01*
X108550500Y-49482352D01*
X108550500Y-49277648D01*
X108518477Y-49075466D01*
X108455220Y-48880781D01*
X108455218Y-48880778D01*
X108455218Y-48880776D01*
X108421503Y-48814607D01*
X108362287Y-48698390D01*
X108354556Y-48687749D01*
X108241971Y-48532786D01*
X108097213Y-48388028D01*
X107931613Y-48267715D01*
X107931612Y-48267714D01*
X107931610Y-48267713D01*
X107874653Y-48238691D01*
X107749223Y-48174781D01*
X107554534Y-48111522D01*
X107379995Y-48083878D01*
X107352352Y-48079500D01*
X107147648Y-48079500D01*
X107123329Y-48083351D01*
X106945465Y-48111522D01*
X106750776Y-48174781D01*
X106568386Y-48267715D01*
X106402786Y-48388028D01*
X106258028Y-48532786D01*
X106137715Y-48698386D01*
X106044781Y-48880776D01*
X105981522Y-49075465D01*
X105949500Y-49277648D01*
X105300500Y-49277648D01*
X105268477Y-49075466D01*
X105205220Y-48880781D01*
X105205218Y-48880778D01*
X105205218Y-48880776D01*
X105171503Y-48814607D01*
X105112287Y-48698390D01*
X105104556Y-48687749D01*
X104991971Y-48532786D01*
X104847213Y-48388028D01*
X104681613Y-48267715D01*
X104681612Y-48267714D01*
X104681610Y-48267713D01*
X104624653Y-48238691D01*
X104499223Y-48174781D01*
X104304534Y-48111522D01*
X104129995Y-48083878D01*
X104102352Y-48079500D01*
X103897648Y-48079500D01*
X103873329Y-48083351D01*
X103695465Y-48111522D01*
X103500776Y-48174781D01*
X103318386Y-48267715D01*
X103152786Y-48388028D01*
X103008028Y-48532786D01*
X102887715Y-48698386D01*
X102794781Y-48880776D01*
X102731522Y-49075465D01*
X102699500Y-49277648D01*
X84000500Y-49277648D01*
X84000499Y-48698390D01*
X84000499Y-47949998D01*
X84000498Y-47949981D01*
X83989999Y-47847203D01*
X83989998Y-47847200D01*
X83934814Y-47680666D01*
X83894061Y-47614595D01*
X83875622Y-47547204D01*
X83896545Y-47480541D01*
X83950187Y-47435771D01*
X83999601Y-47425500D01*
X85822472Y-47425500D01*
X85822475Y-47425500D01*
X85962485Y-47387984D01*
X86088015Y-47315509D01*
X86190509Y-47213015D01*
X86262984Y-47087485D01*
X86300500Y-46947475D01*
X86300500Y-42677525D01*
X86262984Y-42537515D01*
X86258765Y-42530208D01*
X86190511Y-42411988D01*
X86190506Y-42411982D01*
X86088017Y-42309493D01*
X86088011Y-42309488D01*
X85962488Y-42237017D01*
X85962489Y-42237017D01*
X85951006Y-42233940D01*
X85822475Y-42199500D01*
X81947475Y-42199500D01*
X81802525Y-42199500D01*
X81673993Y-42233940D01*
X81662511Y-42237017D01*
X81536988Y-42309488D01*
X81536982Y-42309493D01*
X81434493Y-42411982D01*
X81434488Y-42411988D01*
X81362017Y-42537511D01*
X81362016Y-42537515D01*
X81324500Y-42677525D01*
X81324500Y-46947475D01*
X81362016Y-47087485D01*
X81416762Y-47182308D01*
X81433235Y-47250206D01*
X81410383Y-47316233D01*
X81374472Y-47349845D01*
X81281347Y-47407285D01*
X81281343Y-47407288D01*
X81157289Y-47531342D01*
X81065187Y-47680663D01*
X81065186Y-47680666D01*
X81010001Y-47847203D01*
X81010001Y-47847204D01*
X81010000Y-47847204D01*
X80999500Y-47949983D01*
X80999500Y-49550001D01*
X80999501Y-49550018D01*
X81010000Y-49652796D01*
X81010001Y-49652799D01*
X81065185Y-49819331D01*
X81065186Y-49819334D01*
X81157288Y-49968656D01*
X81281344Y-50092712D01*
X81430666Y-50184814D01*
X81597203Y-50239999D01*
X81699991Y-50250500D01*
X81875500Y-50250499D01*
X81942539Y-50270183D01*
X81988294Y-50322987D01*
X81999500Y-50374499D01*
X81999500Y-51823918D01*
X81999500Y-51823920D01*
X81999499Y-51823920D01*
X82028340Y-51968907D01*
X82028343Y-51968917D01*
X82084914Y-52105492D01*
X82117812Y-52154727D01*
X82117813Y-52154730D01*
X82167046Y-52228414D01*
X82167052Y-52228421D01*
X85463181Y-55524548D01*
X85496666Y-55585871D01*
X85499500Y-55612229D01*
X85499500Y-62823918D01*
X85499500Y-62823920D01*
X85499499Y-62823920D01*
X85528340Y-62968907D01*
X85528343Y-62968917D01*
X85584912Y-63105488D01*
X85584915Y-63105494D01*
X85584916Y-63105495D01*
X85593748Y-63118713D01*
X85593749Y-63118716D01*
X85667046Y-63228414D01*
X85667052Y-63228421D01*
X98012181Y-75573549D01*
X98045666Y-75634872D01*
X98048500Y-75661230D01*
X98048500Y-80379860D01*
X98028815Y-80446899D01*
X97976011Y-80492654D01*
X97914773Y-80503478D01*
X97864218Y-80499500D01*
X96235791Y-80499500D01*
X96235776Y-80499501D01*
X96103586Y-80509904D01*
X96103579Y-80509905D01*
X95885321Y-80564902D01*
X95885318Y-80564903D01*
X95680377Y-80657991D01*
X95680367Y-80657997D01*
X95495354Y-80786174D01*
X95495342Y-80786184D01*
X95336184Y-80945342D01*
X95336174Y-80945354D01*
X95207997Y-81130367D01*
X95207991Y-81130377D01*
X95114903Y-81335318D01*
X95114902Y-81335321D01*
X95059905Y-81553579D01*
X95059904Y-81553586D01*
X95049500Y-81685777D01*
X95049500Y-84387769D01*
X95029815Y-84454808D01*
X95013181Y-84475450D01*
X93824451Y-85664181D01*
X93763128Y-85697666D01*
X93736770Y-85700500D01*
X92334677Y-85700500D01*
X92267638Y-85680815D01*
X92221883Y-85628011D01*
X92211939Y-85558853D01*
X92214435Y-85546202D01*
X92239599Y-85446332D01*
X92249999Y-85314196D01*
X92250000Y-85314184D01*
X92250000Y-83750000D01*
X88250001Y-83750000D01*
X88250001Y-85314197D01*
X88260400Y-85446332D01*
X88285565Y-85546202D01*
X88282857Y-85616019D01*
X88242833Y-85673289D01*
X88178200Y-85699830D01*
X88165323Y-85700500D01*
X83534443Y-85700500D01*
X83467404Y-85680815D01*
X83421649Y-85628011D01*
X83411705Y-85558853D01*
X83440730Y-85495297D01*
X83446762Y-85488819D01*
X83598911Y-85336670D01*
X83598914Y-85336665D01*
X83598919Y-85336661D01*
X83738611Y-85154612D01*
X83853344Y-84955888D01*
X83941158Y-84743887D01*
X84000548Y-84522238D01*
X84030500Y-84294734D01*
X84030500Y-84065266D01*
X84000548Y-83837762D01*
X83941158Y-83616113D01*
X83853344Y-83404112D01*
X83738611Y-83205388D01*
X83738608Y-83205385D01*
X83738607Y-83205382D01*
X83598918Y-83023338D01*
X83598911Y-83023330D01*
X83531355Y-82955774D01*
X83497870Y-82894451D01*
X83502854Y-82824759D01*
X83544726Y-82768826D01*
X83606435Y-82744735D01*
X83626055Y-82742730D01*
X83652797Y-82739999D01*
X83819334Y-82684814D01*
X83968656Y-82592712D01*
X84092712Y-82468656D01*
X84184814Y-82319334D01*
X84239999Y-82152797D01*
X84250500Y-82050009D01*
X84250500Y-81685803D01*
X88250000Y-81685803D01*
X88250000Y-83250000D01*
X90000000Y-83250000D01*
X90500000Y-83250000D01*
X92249999Y-83250000D01*
X92249999Y-81685817D01*
X92249998Y-81685802D01*
X92239599Y-81553667D01*
X92184622Y-81335480D01*
X92091571Y-81130625D01*
X92091568Y-81130619D01*
X91963440Y-80945676D01*
X91963430Y-80945664D01*
X91804335Y-80786569D01*
X91804323Y-80786559D01*
X91619380Y-80658431D01*
X91619374Y-80658428D01*
X91414519Y-80565377D01*
X91196332Y-80510400D01*
X91064196Y-80500000D01*
X90500000Y-80500000D01*
X90500000Y-83250000D01*
X90000000Y-83250000D01*
X90000000Y-80500000D01*
X89435817Y-80500000D01*
X89435802Y-80500001D01*
X89303667Y-80510400D01*
X89085480Y-80565377D01*
X88880625Y-80658428D01*
X88880619Y-80658431D01*
X88695676Y-80786559D01*
X88695664Y-80786569D01*
X88536569Y-80945664D01*
X88536559Y-80945676D01*
X88408431Y-81130619D01*
X88408428Y-81130625D01*
X88315377Y-81335480D01*
X88260400Y-81553667D01*
X88250000Y-81685803D01*
X84250500Y-81685803D01*
X84250499Y-81221659D01*
X84250499Y-80449998D01*
X84250498Y-80449981D01*
X84239999Y-80347203D01*
X84239998Y-80347200D01*
X84197489Y-80218917D01*
X84184814Y-80180666D01*
X84092712Y-80031344D01*
X83968656Y-79907288D01*
X83851322Y-79834916D01*
X83819336Y-79815187D01*
X83819331Y-79815185D01*
X83817862Y-79814698D01*
X83652797Y-79760001D01*
X83652795Y-79760000D01*
X83550010Y-79749500D01*
X81949998Y-79749500D01*
X81949981Y-79749501D01*
X81847203Y-79760000D01*
X81847200Y-79760001D01*
X81680668Y-79815185D01*
X81680663Y-79815187D01*
X81531342Y-79907289D01*
X81407289Y-80031342D01*
X81315187Y-80180663D01*
X81315186Y-80180666D01*
X81260001Y-80347203D01*
X81260001Y-80347204D01*
X81260000Y-80347204D01*
X81249500Y-80449983D01*
X81249500Y-82050001D01*
X81249501Y-82050018D01*
X81260000Y-82152796D01*
X81260001Y-82152799D01*
X81315185Y-82319331D01*
X81315187Y-82319336D01*
X81407289Y-82468657D01*
X81415948Y-82477316D01*
X81449433Y-82538639D01*
X81444449Y-82608331D01*
X81402577Y-82664264D01*
X81390272Y-82672381D01*
X81368738Y-82684814D01*
X81305379Y-82721394D01*
X81123338Y-82861081D01*
X80961081Y-83023338D01*
X80821392Y-83205382D01*
X80706657Y-83404109D01*
X80706650Y-83404123D01*
X80618842Y-83616112D01*
X80618842Y-83616113D01*
X80559959Y-83835872D01*
X80559453Y-83837759D01*
X80559451Y-83837770D01*
X80529500Y-84065258D01*
X80529500Y-84294741D01*
X80553292Y-84475450D01*
X80559452Y-84522238D01*
X80594024Y-84651264D01*
X80618842Y-84743887D01*
X80706650Y-84955876D01*
X80706657Y-84955890D01*
X80821392Y-85154617D01*
X80961081Y-85336661D01*
X80961089Y-85336670D01*
X81113238Y-85488819D01*
X81146723Y-85550142D01*
X81141739Y-85619834D01*
X81099867Y-85675767D01*
X81034403Y-85700184D01*
X81025557Y-85700500D01*
X79563229Y-85700500D01*
X79496190Y-85680815D01*
X79475548Y-85664181D01*
X75818053Y-82006685D01*
X75784568Y-81945362D01*
X75781736Y-81918266D01*
X75783134Y-81683374D01*
X75828443Y-74071414D01*
X75848526Y-74004496D01*
X75864755Y-73984479D01*
X76980520Y-72868716D01*
X77059577Y-72731784D01*
X77100501Y-72579057D01*
X77100501Y-72420942D01*
X77100501Y-72413347D01*
X77100500Y-72413329D01*
X77100500Y-63050097D01*
X77120185Y-62983058D01*
X77136819Y-62962416D01*
X78156242Y-61942993D01*
X79187821Y-60911414D01*
X79249142Y-60877931D01*
X79318834Y-60882915D01*
X79374767Y-60924787D01*
X79399184Y-60990251D01*
X79399500Y-60999097D01*
X79399500Y-78390234D01*
X79379815Y-78457273D01*
X79378602Y-78459125D01*
X79290609Y-78590814D01*
X79290602Y-78590827D01*
X79230264Y-78736498D01*
X79230261Y-78736510D01*
X79199500Y-78891153D01*
X79199500Y-79048846D01*
X79230261Y-79203489D01*
X79230264Y-79203501D01*
X79290602Y-79349172D01*
X79290609Y-79349185D01*
X79378210Y-79480288D01*
X79378213Y-79480292D01*
X79489707Y-79591786D01*
X79489711Y-79591789D01*
X79620814Y-79679390D01*
X79620827Y-79679397D01*
X79742549Y-79729815D01*
X79766503Y-79739737D01*
X79921153Y-79770499D01*
X79921156Y-79770500D01*
X79921158Y-79770500D01*
X80078844Y-79770500D01*
X80078845Y-79770499D01*
X80233497Y-79739737D01*
X80379179Y-79679394D01*
X80510289Y-79591789D01*
X80621789Y-79480289D01*
X80709394Y-79349179D01*
X80769737Y-79203497D01*
X80800500Y-79048842D01*
X80800500Y-78891158D01*
X80800500Y-78891155D01*
X80800499Y-78891153D01*
X80769738Y-78736510D01*
X80769737Y-78736503D01*
X80748699Y-78685713D01*
X80709397Y-78590827D01*
X80709390Y-78590814D01*
X80621398Y-78459125D01*
X80600520Y-78392447D01*
X80600500Y-78390234D01*
X80600500Y-63631947D01*
X81000000Y-63631947D01*
X81000000Y-63868052D01*
X81036934Y-64101247D01*
X81109897Y-64325802D01*
X81217087Y-64536174D01*
X81277338Y-64619104D01*
X81277340Y-64619105D01*
X82017037Y-63879408D01*
X82034075Y-63942993D01*
X82099901Y-64057007D01*
X82192993Y-64150099D01*
X82307007Y-64215925D01*
X82370591Y-64232962D01*
X81630894Y-64972658D01*
X81683760Y-65011069D01*
X81686510Y-65008320D01*
X81747832Y-64974834D01*
X81817524Y-64979818D01*
X81861873Y-65008319D01*
X82620591Y-65767037D01*
X82557007Y-65784075D01*
X82442993Y-65849901D01*
X82349901Y-65942993D01*
X82284075Y-66057007D01*
X82267037Y-66120591D01*
X81527340Y-65380894D01*
X81467084Y-65463830D01*
X81359897Y-65674197D01*
X81286934Y-65898752D01*
X81250000Y-66131947D01*
X81250000Y-66368052D01*
X81286934Y-66601247D01*
X81359897Y-66825802D01*
X81467087Y-67036174D01*
X81527338Y-67119104D01*
X81527340Y-67119105D01*
X82267037Y-66379408D01*
X82284075Y-66442993D01*
X82349901Y-66557007D01*
X82442993Y-66650099D01*
X82557007Y-66715925D01*
X82620590Y-66732962D01*
X81880893Y-67472658D01*
X81963828Y-67532914D01*
X82174197Y-67640102D01*
X82398752Y-67713065D01*
X82398751Y-67713065D01*
X82631948Y-67750000D01*
X82868052Y-67750000D01*
X83101247Y-67713065D01*
X83325802Y-67640102D01*
X83536163Y-67532918D01*
X83536169Y-67532914D01*
X83619104Y-67472658D01*
X83619105Y-67472658D01*
X82879408Y-66732962D01*
X82942993Y-66715925D01*
X83057007Y-66650099D01*
X83150099Y-66557007D01*
X83215925Y-66442993D01*
X83232962Y-66379408D01*
X83972658Y-67119105D01*
X83972658Y-67119104D01*
X84032914Y-67036169D01*
X84032918Y-67036163D01*
X84140102Y-66825802D01*
X84213065Y-66601247D01*
X84250000Y-66368052D01*
X84250000Y-66131947D01*
X84213065Y-65898752D01*
X84140102Y-65674197D01*
X84032914Y-65463828D01*
X83972658Y-65380894D01*
X83972658Y-65380893D01*
X83232962Y-66120590D01*
X83215925Y-66057007D01*
X83150099Y-65942993D01*
X83057007Y-65849901D01*
X82942993Y-65784075D01*
X82879409Y-65767037D01*
X83619105Y-65027341D01*
X83619104Y-65027340D01*
X83566237Y-64988928D01*
X83566236Y-64988929D01*
X83563487Y-64991679D01*
X83502164Y-65025164D01*
X83432472Y-65020180D01*
X83388125Y-64991679D01*
X82629408Y-64232962D01*
X82692993Y-64215925D01*
X82807007Y-64150099D01*
X82900099Y-64057007D01*
X82965925Y-63942993D01*
X82982962Y-63879409D01*
X83722658Y-64619105D01*
X83722658Y-64619104D01*
X83782914Y-64536169D01*
X83782918Y-64536163D01*
X83890102Y-64325802D01*
X83963065Y-64101247D01*
X84000000Y-63868052D01*
X84000000Y-63631947D01*
X83963065Y-63398752D01*
X83890102Y-63174197D01*
X83782914Y-62963828D01*
X83722658Y-62880894D01*
X83722658Y-62880893D01*
X82982962Y-63620590D01*
X82965925Y-63557007D01*
X82900099Y-63442993D01*
X82807007Y-63349901D01*
X82692993Y-63284075D01*
X82629409Y-63267037D01*
X83369105Y-62527340D01*
X83369104Y-62527338D01*
X83286174Y-62467087D01*
X83075802Y-62359897D01*
X82851247Y-62286934D01*
X82851248Y-62286934D01*
X82618052Y-62250000D01*
X82381948Y-62250000D01*
X82148752Y-62286934D01*
X81924197Y-62359897D01*
X81713830Y-62467084D01*
X81630894Y-62527340D01*
X82370591Y-63267037D01*
X82307007Y-63284075D01*
X82192993Y-63349901D01*
X82099901Y-63442993D01*
X82034075Y-63557007D01*
X82017037Y-63620590D01*
X81277340Y-62880894D01*
X81217084Y-62963830D01*
X81109897Y-63174197D01*
X81036934Y-63398752D01*
X81000000Y-63631947D01*
X80600500Y-63631947D01*
X80600500Y-60722036D01*
X80620185Y-60654997D01*
X80672989Y-60609242D01*
X80742147Y-60599298D01*
X80805703Y-60628323D01*
X80822875Y-60646549D01*
X80961081Y-60826661D01*
X80961089Y-60826670D01*
X81123330Y-60988911D01*
X81123338Y-60988918D01*
X81305382Y-61128607D01*
X81305385Y-61128608D01*
X81305388Y-61128611D01*
X81504112Y-61243344D01*
X81504117Y-61243346D01*
X81504123Y-61243349D01*
X81580536Y-61275000D01*
X81716113Y-61331158D01*
X81937762Y-61390548D01*
X82165266Y-61420500D01*
X82165273Y-61420500D01*
X82394727Y-61420500D01*
X82394734Y-61420500D01*
X82622238Y-61390548D01*
X82843887Y-61331158D01*
X83055888Y-61243344D01*
X83254612Y-61128611D01*
X83436661Y-60988919D01*
X83436665Y-60988914D01*
X83436670Y-60988911D01*
X83598911Y-60826670D01*
X83598914Y-60826665D01*
X83598919Y-60826661D01*
X83738611Y-60644612D01*
X83853344Y-60445888D01*
X83941158Y-60233887D01*
X84000548Y-60012238D01*
X84030500Y-59784734D01*
X84030500Y-59555266D01*
X84000548Y-59327762D01*
X83941158Y-59106113D01*
X83864458Y-58920943D01*
X83853349Y-58894123D01*
X83853346Y-58894117D01*
X83853344Y-58894112D01*
X83738611Y-58695388D01*
X83738608Y-58695385D01*
X83738607Y-58695382D01*
X83627798Y-58550975D01*
X83598919Y-58513339D01*
X83598918Y-58513338D01*
X83598911Y-58513330D01*
X83436670Y-58351089D01*
X83436661Y-58351081D01*
X83254617Y-58211392D01*
X83230418Y-58197421D01*
X83129239Y-58139005D01*
X83055890Y-58096657D01*
X83055876Y-58096650D01*
X82843887Y-58008842D01*
X82622238Y-57949452D01*
X82584215Y-57944446D01*
X82394741Y-57919500D01*
X82394734Y-57919500D01*
X82165266Y-57919500D01*
X82165258Y-57919500D01*
X81948715Y-57948009D01*
X81937762Y-57949452D01*
X81859291Y-57970478D01*
X81716112Y-58008842D01*
X81504123Y-58096650D01*
X81504109Y-58096657D01*
X81305382Y-58211392D01*
X81123338Y-58351081D01*
X80961089Y-58513330D01*
X80961087Y-58513331D01*
X80961082Y-58513338D01*
X80961081Y-58513339D01*
X80947873Y-58530550D01*
X80891446Y-58571752D01*
X80821700Y-58575906D01*
X80760780Y-58541692D01*
X80728028Y-58479974D01*
X80725500Y-58455062D01*
X80725500Y-33295945D01*
X80725500Y-33295943D01*
X80684577Y-33143216D01*
X80634805Y-33057007D01*
X80605524Y-33006290D01*
X80605521Y-33006286D01*
X80605520Y-33006284D01*
X80493716Y-32894480D01*
X80493715Y-32894479D01*
X80489385Y-32890149D01*
X80489374Y-32890139D01*
X72987590Y-25388355D01*
X72987588Y-25388352D01*
X72868717Y-25269481D01*
X72868716Y-25269480D01*
X72781904Y-25219360D01*
X72781904Y-25219359D01*
X72781900Y-25219358D01*
X72731785Y-25190423D01*
X72579057Y-25149499D01*
X72420943Y-25149499D01*
X72413347Y-25149499D01*
X72413331Y-25149500D01*
X44336670Y-25149500D01*
X44336654Y-25149499D01*
X44329058Y-25149499D01*
X44170943Y-25149499D01*
X44094579Y-25169961D01*
X44018214Y-25190423D01*
X44018209Y-25190426D01*
X43881290Y-25269475D01*
X43881282Y-25269481D01*
X42587584Y-26563181D01*
X42526261Y-26596666D01*
X42499903Y-26599500D01*
X41300166Y-26599500D01*
X41197361Y-26610003D01*
X41030782Y-26665202D01*
X41030777Y-26665204D01*
X40881417Y-26757331D01*
X40757331Y-26881417D01*
X40665204Y-27030777D01*
X40665202Y-27030782D01*
X40610003Y-27197361D01*
X40599500Y-27300166D01*
X40599500Y-28699833D01*
X40610003Y-28802638D01*
X40665202Y-28969217D01*
X40665204Y-28969222D01*
X40700097Y-29025791D01*
X40757330Y-29118581D01*
X40881419Y-29242670D01*
X41030780Y-29334797D01*
X41141834Y-29371596D01*
X41197361Y-29389996D01*
X41234236Y-29393763D01*
X41300174Y-29400500D01*
X41300178Y-29400500D01*
X42699822Y-29400500D01*
X42699826Y-29400500D01*
X42802638Y-29389996D01*
X42969220Y-29334797D01*
X43118581Y-29242670D01*
X43242670Y-29118581D01*
X43258797Y-29092433D01*
X43291936Y-29038710D01*
X43334793Y-28969226D01*
X43334797Y-28969220D01*
X43383819Y-28821278D01*
X43413844Y-28772601D01*
X44097861Y-28088584D01*
X44120667Y-28173694D01*
X44179910Y-28276306D01*
X44263694Y-28360090D01*
X44366306Y-28419333D01*
X44451414Y-28442137D01*
X43742485Y-29151065D01*
X43742485Y-29151066D01*
X43806243Y-29197388D01*
X44002589Y-29297432D01*
X44212164Y-29365526D01*
X44429819Y-29400000D01*
X44650181Y-29400000D01*
X44867835Y-29365526D01*
X45077410Y-29297432D01*
X45273760Y-29197386D01*
X45337513Y-29151066D01*
X45337514Y-29151066D01*
X44628585Y-28442138D01*
X44713694Y-28419333D01*
X44816306Y-28360090D01*
X44900090Y-28276306D01*
X44959333Y-28173694D01*
X44982137Y-28088585D01*
X45691066Y-28797514D01*
X45691066Y-28797513D01*
X45709372Y-28772319D01*
X45764701Y-28729653D01*
X45834315Y-28723674D01*
X45896110Y-28756279D01*
X45910008Y-28772319D01*
X46011752Y-28912358D01*
X46011756Y-28912363D01*
X46011758Y-28912365D01*
X46167635Y-29068242D01*
X46345978Y-29197815D01*
X46345982Y-29197817D01*
X46348384Y-29199562D01*
X46391050Y-29254892D01*
X46399499Y-29299881D01*
X46399499Y-29329054D01*
X46399498Y-29329054D01*
X46407850Y-29360222D01*
X46440423Y-29481785D01*
X46519481Y-29618716D01*
X46631284Y-29730519D01*
X46768215Y-29809577D01*
X46920943Y-29850501D01*
X46920946Y-29850501D01*
X47079054Y-29850501D01*
X47079057Y-29850501D01*
X47231785Y-29809577D01*
X47368716Y-29730519D01*
X47448713Y-29650521D01*
X47448716Y-29650520D01*
X47560520Y-29538716D01*
X47560521Y-29538713D01*
X49787322Y-27311912D01*
X49848641Y-27278430D01*
X49918333Y-27283414D01*
X49962680Y-27311915D01*
X51113181Y-28462416D01*
X51146666Y-28523739D01*
X51149500Y-28550097D01*
X51149500Y-30020397D01*
X51129815Y-30087436D01*
X51081800Y-30130879D01*
X51068389Y-30137712D01*
X50902786Y-30258028D01*
X50758028Y-30402786D01*
X50637715Y-30568386D01*
X50544781Y-30750776D01*
X50481522Y-30945465D01*
X50449500Y-31147648D01*
X50449500Y-31352351D01*
X50481522Y-31554534D01*
X50544781Y-31749223D01*
X50608691Y-31874653D01*
X50624869Y-31906403D01*
X50637715Y-31931613D01*
X50758028Y-32097213D01*
X50902786Y-32241971D01*
X51054444Y-32352155D01*
X51068390Y-32362287D01*
X51184607Y-32421503D01*
X51250776Y-32455218D01*
X51250778Y-32455218D01*
X51250781Y-32455220D01*
X51355137Y-32489127D01*
X51445465Y-32518477D01*
X51546557Y-32534488D01*
X51647648Y-32550500D01*
X51647649Y-32550500D01*
X51852351Y-32550500D01*
X51852352Y-32550500D01*
X52054534Y-32518477D01*
X52249219Y-32455220D01*
X52431610Y-32362287D01*
X52527499Y-32292620D01*
X52597213Y-32241971D01*
X52597215Y-32241968D01*
X52597219Y-32241966D01*
X52741966Y-32097219D01*
X52741968Y-32097215D01*
X52741971Y-32097213D01*
X52844098Y-31956645D01*
X52862287Y-31931610D01*
X52955220Y-31749219D01*
X53018477Y-31554534D01*
X53050500Y-31352352D01*
X53050500Y-31147648D01*
X53018477Y-30945466D01*
X52955220Y-30750781D01*
X52955218Y-30750778D01*
X52955218Y-30750776D01*
X52904124Y-30650500D01*
X52862287Y-30568390D01*
X52847397Y-30547895D01*
X52741971Y-30402786D01*
X52597213Y-30258028D01*
X52431610Y-30137712D01*
X52418200Y-30130879D01*
X52367406Y-30082903D01*
X52350500Y-30020397D01*
X52350500Y-29139778D01*
X53599500Y-29139778D01*
X53599500Y-29360222D01*
X53616742Y-29469086D01*
X53633985Y-29577952D01*
X53702103Y-29787603D01*
X53702104Y-29787606D01*
X53770122Y-29921096D01*
X53800911Y-29981522D01*
X53802187Y-29984025D01*
X53931752Y-30162358D01*
X53931756Y-30162363D01*
X54087636Y-30318243D01*
X54087641Y-30318247D01*
X54243192Y-30431260D01*
X54265978Y-30447815D01*
X54394375Y-30513237D01*
X54462393Y-30547895D01*
X54462396Y-30547896D01*
X54525472Y-30568390D01*
X54672049Y-30616015D01*
X54889778Y-30650500D01*
X54889779Y-30650500D01*
X55110221Y-30650500D01*
X55110222Y-30650500D01*
X55327951Y-30616015D01*
X55537606Y-30547895D01*
X55734022Y-30447815D01*
X55912365Y-30318242D01*
X55962536Y-30268070D01*
X56023857Y-30234586D01*
X56093548Y-30239570D01*
X56149482Y-30281441D01*
X56166398Y-30312419D01*
X56196202Y-30392328D01*
X56196206Y-30392335D01*
X56282452Y-30507544D01*
X56282455Y-30507547D01*
X56397664Y-30593793D01*
X56397671Y-30593797D01*
X56442618Y-30610561D01*
X56532517Y-30644091D01*
X56592127Y-30650500D01*
X56815500Y-30650499D01*
X56882539Y-30670183D01*
X56928294Y-30722987D01*
X56939500Y-30774499D01*
X56939500Y-38783330D01*
X56939499Y-38783348D01*
X56939499Y-38949054D01*
X56939498Y-38949054D01*
X56980423Y-39101785D01*
X57009358Y-39151900D01*
X57009359Y-39151904D01*
X57009360Y-39151904D01*
X57059479Y-39238714D01*
X57059481Y-39238717D01*
X57178349Y-39357585D01*
X57178355Y-39357590D01*
X58337336Y-40516571D01*
X58370821Y-40577894D01*
X58372128Y-40623648D01*
X58359500Y-40703389D01*
X58359500Y-40876611D01*
X58386598Y-41047701D01*
X58440127Y-41212445D01*
X58518768Y-41366788D01*
X58620586Y-41506928D01*
X58743072Y-41629414D01*
X58883212Y-41731232D01*
X59037555Y-41809873D01*
X59202299Y-41863402D01*
X59373389Y-41890500D01*
X59373390Y-41890500D01*
X59546610Y-41890500D01*
X59546611Y-41890500D01*
X59717701Y-41863402D01*
X59882445Y-41809873D01*
X60036788Y-41731232D01*
X60176928Y-41629414D01*
X60299414Y-41506928D01*
X60401232Y-41366788D01*
X60479873Y-41212445D01*
X60533402Y-41047701D01*
X60560500Y-40876611D01*
X60560500Y-40703389D01*
X60533402Y-40532299D01*
X60479873Y-40367555D01*
X60401232Y-40213212D01*
X60299414Y-40073072D01*
X60176928Y-39950586D01*
X60036788Y-39848768D01*
X59882445Y-39770127D01*
X59717701Y-39716598D01*
X59717699Y-39716597D01*
X59717698Y-39716597D01*
X59569801Y-39693173D01*
X59546611Y-39689500D01*
X59373389Y-39689500D01*
X59293649Y-39702129D01*
X59224355Y-39693173D01*
X59186571Y-39667336D01*
X58176819Y-38657584D01*
X58143334Y-38596261D01*
X58140500Y-38569903D01*
X58140500Y-38163389D01*
X60899500Y-38163389D01*
X60899500Y-38336611D01*
X60926598Y-38507701D01*
X60980127Y-38672445D01*
X61058768Y-38826788D01*
X61160586Y-38966928D01*
X61283072Y-39089414D01*
X61423212Y-39191232D01*
X61577555Y-39269873D01*
X61742299Y-39323402D01*
X61913389Y-39350500D01*
X61913390Y-39350500D01*
X62086610Y-39350500D01*
X62086611Y-39350500D01*
X62257701Y-39323402D01*
X62422445Y-39269873D01*
X62576788Y-39191232D01*
X62716928Y-39089414D01*
X62839414Y-38966928D01*
X62941232Y-38826788D01*
X63019873Y-38672445D01*
X63073402Y-38507701D01*
X63100500Y-38336611D01*
X63100500Y-38163389D01*
X63073402Y-37992299D01*
X63019873Y-37827555D01*
X62941232Y-37673212D01*
X62839414Y-37533072D01*
X62716928Y-37410586D01*
X62576788Y-37308768D01*
X62422445Y-37230127D01*
X62257701Y-37176598D01*
X62257699Y-37176597D01*
X62257698Y-37176597D01*
X62126271Y-37155781D01*
X62086611Y-37149500D01*
X61913389Y-37149500D01*
X61873728Y-37155781D01*
X61742302Y-37176597D01*
X61577552Y-37230128D01*
X61423211Y-37308768D01*
X61343256Y-37366859D01*
X61283072Y-37410586D01*
X61283070Y-37410588D01*
X61283069Y-37410588D01*
X61160588Y-37533069D01*
X61160588Y-37533070D01*
X61160586Y-37533072D01*
X61116859Y-37593256D01*
X61058768Y-37673211D01*
X60980128Y-37827552D01*
X60926597Y-37992302D01*
X60899500Y-38163389D01*
X58140500Y-38163389D01*
X58140500Y-36186269D01*
X58160185Y-36119230D01*
X58212989Y-36073475D01*
X58282147Y-36063531D01*
X58345703Y-36092556D01*
X58383477Y-36151334D01*
X58386974Y-36166873D01*
X58387087Y-36167589D01*
X58440591Y-36332257D01*
X58519195Y-36486524D01*
X58620967Y-36626602D01*
X58743397Y-36749032D01*
X58883475Y-36850804D01*
X59037744Y-36929408D01*
X59202415Y-36982914D01*
X59202414Y-36982914D01*
X59209999Y-36984115D01*
X59710000Y-36984115D01*
X59717584Y-36982914D01*
X59882255Y-36929408D01*
X60036524Y-36850804D01*
X60176602Y-36749032D01*
X60299032Y-36626602D01*
X60400804Y-36486524D01*
X60479408Y-36332257D01*
X60532914Y-36167584D01*
X60560000Y-35996571D01*
X60560000Y-35960000D01*
X59710000Y-35960000D01*
X59710000Y-36984115D01*
X59209999Y-36984115D01*
X59210000Y-36984114D01*
X59210000Y-35954975D01*
X59245095Y-35990070D01*
X59324905Y-36036148D01*
X59413922Y-36060000D01*
X59506078Y-36060000D01*
X59595095Y-36036148D01*
X59674905Y-35990070D01*
X59740070Y-35924905D01*
X59786148Y-35845095D01*
X59810000Y-35756078D01*
X59810000Y-35663922D01*
X59786148Y-35574905D01*
X59740070Y-35495095D01*
X59704975Y-35460000D01*
X59710000Y-35460000D01*
X60560000Y-35460000D01*
X60560000Y-35423428D01*
X60532914Y-35252415D01*
X60479408Y-35087742D01*
X60400804Y-34933475D01*
X60299032Y-34793397D01*
X60176602Y-34670967D01*
X60036524Y-34569195D01*
X59882257Y-34490591D01*
X59717589Y-34437087D01*
X59717581Y-34437085D01*
X59710000Y-34435884D01*
X59710000Y-35460000D01*
X59704975Y-35460000D01*
X59674905Y-35429930D01*
X59595095Y-35383852D01*
X59506078Y-35360000D01*
X59413922Y-35360000D01*
X59324905Y-35383852D01*
X59245095Y-35429930D01*
X59210000Y-35465025D01*
X59210000Y-34435884D01*
X59209999Y-34435884D01*
X59202418Y-34437085D01*
X59202410Y-34437087D01*
X59037742Y-34490591D01*
X58883475Y-34569195D01*
X58743397Y-34670967D01*
X58620967Y-34793397D01*
X58519195Y-34933475D01*
X58440591Y-35087742D01*
X58387086Y-35252413D01*
X58386973Y-35253130D01*
X58386854Y-35253380D01*
X58385951Y-35257144D01*
X58385160Y-35256954D01*
X58357043Y-35316264D01*
X58297731Y-35353194D01*
X58227868Y-35352196D01*
X58169636Y-35313585D01*
X58141522Y-35249621D01*
X58140500Y-35233730D01*
X58140500Y-30774499D01*
X58160185Y-30707460D01*
X58212989Y-30661705D01*
X58264500Y-30650499D01*
X58487871Y-30650499D01*
X58487872Y-30650499D01*
X58547483Y-30644091D01*
X58682331Y-30593796D01*
X58797546Y-30507546D01*
X58883796Y-30392331D01*
X58934091Y-30257483D01*
X58940500Y-30197873D01*
X58940499Y-28302128D01*
X58934091Y-28242517D01*
X58913601Y-28187581D01*
X58883797Y-28107671D01*
X58883793Y-28107664D01*
X58797547Y-27992455D01*
X58797544Y-27992452D01*
X58682335Y-27906206D01*
X58682328Y-27906202D01*
X58547482Y-27855908D01*
X58547483Y-27855908D01*
X58487883Y-27849501D01*
X58487881Y-27849500D01*
X58487873Y-27849500D01*
X58487864Y-27849500D01*
X56592129Y-27849500D01*
X56592123Y-27849501D01*
X56532516Y-27855908D01*
X56397671Y-27906202D01*
X56397664Y-27906206D01*
X56282455Y-27992452D01*
X56282452Y-27992455D01*
X56196206Y-28107664D01*
X56196203Y-28107669D01*
X56166398Y-28187581D01*
X56124526Y-28243514D01*
X56059062Y-28267931D01*
X55990789Y-28253079D01*
X55962535Y-28231928D01*
X55912363Y-28181756D01*
X55912358Y-28181752D01*
X55734025Y-28052187D01*
X55734024Y-28052186D01*
X55734022Y-28052185D01*
X55667341Y-28018209D01*
X55537606Y-27952104D01*
X55537603Y-27952103D01*
X55327952Y-27883985D01*
X55219086Y-27866742D01*
X55110222Y-27849500D01*
X54889778Y-27849500D01*
X54817201Y-27860995D01*
X54672047Y-27883985D01*
X54462396Y-27952103D01*
X54462393Y-27952104D01*
X54265974Y-28052187D01*
X54087641Y-28181752D01*
X54087636Y-28181756D01*
X53931756Y-28337636D01*
X53931752Y-28337641D01*
X53802187Y-28515974D01*
X53702104Y-28712393D01*
X53702103Y-28712396D01*
X53633985Y-28922047D01*
X53626513Y-28969226D01*
X53599500Y-29139778D01*
X52350500Y-29139778D01*
X52350500Y-28339060D01*
X52350501Y-28339047D01*
X52350501Y-28170944D01*
X52333545Y-28107664D01*
X52309577Y-28018216D01*
X52294704Y-27992455D01*
X52230524Y-27881290D01*
X52230518Y-27881282D01*
X51899236Y-27550000D01*
X51411415Y-27062180D01*
X51377931Y-27000858D01*
X51382915Y-26931167D01*
X51424787Y-26875233D01*
X51490251Y-26850816D01*
X51499097Y-26850500D01*
X64159903Y-26850500D01*
X64226942Y-26870185D01*
X64247584Y-26886819D01*
X72666241Y-35305476D01*
X72699726Y-35366799D01*
X72696492Y-35431473D01*
X72682753Y-35473757D01*
X72652635Y-35663922D01*
X72649500Y-35683713D01*
X72649500Y-35896287D01*
X72654033Y-35924905D01*
X72681324Y-36097219D01*
X72682754Y-36106243D01*
X72726853Y-36241966D01*
X72748444Y-36308414D01*
X72844951Y-36497820D01*
X72969890Y-36669786D01*
X73120213Y-36820109D01*
X73292182Y-36945050D01*
X73300946Y-36949516D01*
X73351742Y-36997491D01*
X73368536Y-37065312D01*
X73345998Y-37131447D01*
X73300946Y-37170484D01*
X73292182Y-37174949D01*
X73120213Y-37299890D01*
X72969890Y-37450213D01*
X72844951Y-37622179D01*
X72748444Y-37811585D01*
X72682753Y-38013760D01*
X72649500Y-38223713D01*
X72649500Y-38436286D01*
X72682754Y-38646244D01*
X72682754Y-38646247D01*
X72696491Y-38688523D01*
X72698486Y-38758364D01*
X72666241Y-38814522D01*
X69131286Y-42349478D01*
X69019481Y-42461282D01*
X69019480Y-42461284D01*
X68975469Y-42537515D01*
X68969361Y-42548094D01*
X68969359Y-42548096D01*
X68940425Y-42598209D01*
X68940424Y-42598210D01*
X68940423Y-42598215D01*
X68899499Y-42750943D01*
X68899499Y-42750945D01*
X68899499Y-42919046D01*
X68899500Y-42919059D01*
X68899500Y-45126000D01*
X68879815Y-45193039D01*
X68827011Y-45238794D01*
X68775500Y-45250000D01*
X38183500Y-45250000D01*
X38116461Y-45230315D01*
X38070706Y-45177511D01*
X38059500Y-45126000D01*
X38059500Y-39050097D01*
X38079185Y-38983058D01*
X38095819Y-38962416D01*
X41171416Y-35886819D01*
X41232739Y-35853334D01*
X41259097Y-35850500D01*
X44150398Y-35850500D01*
X44217437Y-35870185D01*
X44260883Y-35918205D01*
X44267715Y-35931614D01*
X44388028Y-36097213D01*
X44532786Y-36241971D01*
X44657057Y-36332257D01*
X44698390Y-36362287D01*
X44814607Y-36421503D01*
X44880776Y-36455218D01*
X44880778Y-36455218D01*
X44880781Y-36455220D01*
X44977125Y-36486524D01*
X45075465Y-36518477D01*
X45176557Y-36534488D01*
X45277648Y-36550500D01*
X45277649Y-36550500D01*
X45482351Y-36550500D01*
X45482352Y-36550500D01*
X45684534Y-36518477D01*
X45879219Y-36455220D01*
X46061610Y-36362287D01*
X46154590Y-36294732D01*
X46227213Y-36241971D01*
X46227215Y-36241968D01*
X46227219Y-36241966D01*
X46371966Y-36097219D01*
X46371968Y-36097215D01*
X46371971Y-36097213D01*
X46445090Y-35996571D01*
X46492287Y-35931610D01*
X46585220Y-35749219D01*
X46648477Y-35554534D01*
X46680500Y-35352352D01*
X46680500Y-35147648D01*
X51699500Y-35147648D01*
X51699500Y-35352352D01*
X51700586Y-35359208D01*
X51731522Y-35554534D01*
X51794781Y-35749223D01*
X51843631Y-35845095D01*
X51869714Y-35896286D01*
X51887715Y-35931613D01*
X52008028Y-36097213D01*
X52152786Y-36241971D01*
X52277057Y-36332257D01*
X52318390Y-36362287D01*
X52434607Y-36421503D01*
X52500776Y-36455218D01*
X52500778Y-36455218D01*
X52500781Y-36455220D01*
X52597125Y-36486524D01*
X52695465Y-36518477D01*
X52796557Y-36534488D01*
X52897648Y-36550500D01*
X52897649Y-36550500D01*
X53102351Y-36550500D01*
X53102352Y-36550500D01*
X53304534Y-36518477D01*
X53499219Y-36455220D01*
X53681610Y-36362287D01*
X53774590Y-36294732D01*
X53847213Y-36241971D01*
X53847215Y-36241968D01*
X53847219Y-36241966D01*
X53991966Y-36097219D01*
X53991968Y-36097215D01*
X53991971Y-36097213D01*
X54065090Y-35996571D01*
X54112287Y-35931610D01*
X54205220Y-35749219D01*
X54268477Y-35554534D01*
X54300500Y-35352352D01*
X54300500Y-35147648D01*
X54268477Y-34945466D01*
X54205220Y-34750781D01*
X54205218Y-34750778D01*
X54205218Y-34750776D01*
X54161650Y-34665270D01*
X54112287Y-34568390D01*
X54104556Y-34557749D01*
X53991971Y-34402786D01*
X53847213Y-34258028D01*
X53681613Y-34137715D01*
X53681612Y-34137714D01*
X53681610Y-34137713D01*
X53624653Y-34108691D01*
X53499223Y-34044781D01*
X53304534Y-33981522D01*
X53129995Y-33953878D01*
X53102352Y-33949500D01*
X52897648Y-33949500D01*
X52873329Y-33953351D01*
X52695465Y-33981522D01*
X52500776Y-34044781D01*
X52318386Y-34137715D01*
X52152786Y-34258028D01*
X52008028Y-34402786D01*
X51887715Y-34568386D01*
X51794781Y-34750776D01*
X51731522Y-34945465D01*
X51708988Y-35087742D01*
X51699500Y-35147648D01*
X46680500Y-35147648D01*
X46648477Y-34945466D01*
X46585220Y-34750781D01*
X46585218Y-34750778D01*
X46585218Y-34750776D01*
X46541650Y-34665270D01*
X46492287Y-34568390D01*
X46484556Y-34557749D01*
X46371971Y-34402786D01*
X46227213Y-34258028D01*
X46061613Y-34137715D01*
X46061612Y-34137714D01*
X46061610Y-34137713D01*
X46004653Y-34108691D01*
X45879223Y-34044781D01*
X45684534Y-33981522D01*
X45509995Y-33953878D01*
X45482352Y-33949500D01*
X45277648Y-33949500D01*
X45253329Y-33953351D01*
X45075465Y-33981522D01*
X44880776Y-34044781D01*
X44698386Y-34137715D01*
X44532786Y-34258028D01*
X44388028Y-34402786D01*
X44267715Y-34568385D01*
X44260883Y-34581795D01*
X44212909Y-34632591D01*
X44150398Y-34649500D01*
X40879940Y-34649500D01*
X40839019Y-34660464D01*
X40839019Y-34660465D01*
X40821087Y-34665270D01*
X40727214Y-34690423D01*
X40727209Y-34690426D01*
X40590290Y-34769475D01*
X40590282Y-34769481D01*
X36978481Y-38381282D01*
X36978479Y-38381285D01*
X36928361Y-38468094D01*
X36928359Y-38468096D01*
X36899425Y-38518209D01*
X36899424Y-38518210D01*
X36899423Y-38518215D01*
X36858499Y-38670943D01*
X36858499Y-38670945D01*
X36858499Y-38839046D01*
X36858500Y-38839059D01*
X36858500Y-45126000D01*
X36838815Y-45193039D01*
X36786011Y-45238794D01*
X36734500Y-45250000D01*
X33624500Y-45250000D01*
X33557461Y-45230315D01*
X33511706Y-45177511D01*
X33500500Y-45126000D01*
X33500500Y-31147648D01*
X42829500Y-31147648D01*
X42829500Y-31352351D01*
X42861522Y-31554534D01*
X42924781Y-31749223D01*
X42988691Y-31874653D01*
X43004869Y-31906403D01*
X43017715Y-31931613D01*
X43138028Y-32097213D01*
X43282786Y-32241971D01*
X43434444Y-32352155D01*
X43448390Y-32362287D01*
X43564607Y-32421503D01*
X43630776Y-32455218D01*
X43630778Y-32455218D01*
X43630781Y-32455220D01*
X43735137Y-32489127D01*
X43825465Y-32518477D01*
X43926557Y-32534488D01*
X44027648Y-32550500D01*
X44027649Y-32550500D01*
X44232351Y-32550500D01*
X44232352Y-32550500D01*
X44434534Y-32518477D01*
X44629219Y-32455220D01*
X44811610Y-32362287D01*
X44907499Y-32292620D01*
X44977213Y-32241971D01*
X44977215Y-32241968D01*
X44977219Y-32241966D01*
X45121966Y-32097219D01*
X45121968Y-32097215D01*
X45121971Y-32097213D01*
X45224098Y-31956645D01*
X45242287Y-31931610D01*
X45335220Y-31749219D01*
X45398477Y-31554534D01*
X45430500Y-31352352D01*
X45430500Y-31147648D01*
X45398477Y-30945466D01*
X45335220Y-30750781D01*
X45335218Y-30750778D01*
X45335218Y-30750776D01*
X45284124Y-30650500D01*
X45242287Y-30568390D01*
X45227397Y-30547895D01*
X45121971Y-30402786D01*
X44977213Y-30258028D01*
X44811613Y-30137715D01*
X44811612Y-30137714D01*
X44811610Y-30137713D01*
X44754653Y-30108691D01*
X44629223Y-30044781D01*
X44434534Y-29981522D01*
X44259995Y-29953878D01*
X44232352Y-29949500D01*
X44027648Y-29949500D01*
X44003329Y-29953351D01*
X43825465Y-29981522D01*
X43630776Y-30044781D01*
X43448386Y-30137715D01*
X43282786Y-30258028D01*
X43138028Y-30402786D01*
X43017715Y-30568386D01*
X42924781Y-30750776D01*
X42861522Y-30945465D01*
X42829500Y-31147648D01*
X33500500Y-31147648D01*
X33500500Y-24874500D01*
X33520185Y-24807461D01*
X33572989Y-24761706D01*
X33624500Y-24750500D01*
X109125500Y-24750500D01*
X109192539Y-24770185D01*
G37*
%TD.AperFunction*%
%TA.AperFunction,Conductor*%
G36*
X72266942Y-26370185D02*
G01*
X72287584Y-26386819D01*
X79488181Y-33587416D01*
X79521666Y-33648739D01*
X79524500Y-33675097D01*
X79524500Y-56677699D01*
X79504815Y-56744738D01*
X79452011Y-56790493D01*
X79382853Y-56800437D01*
X79319297Y-56771412D01*
X79293113Y-56739698D01*
X79230524Y-56631290D01*
X79230518Y-56631282D01*
X75988395Y-53389160D01*
X75954910Y-53327837D01*
X75952078Y-53300741D01*
X75955357Y-52750000D01*
X76000000Y-45250000D01*
X75223911Y-45250000D01*
X75156872Y-45230315D01*
X75123594Y-45198886D01*
X75030104Y-45070208D01*
X74879792Y-44919896D01*
X74879786Y-44919890D01*
X74707820Y-44794951D01*
X74707115Y-44794591D01*
X74699054Y-44790485D01*
X74648259Y-44742512D01*
X74631463Y-44674692D01*
X74653999Y-44608556D01*
X74699054Y-44569515D01*
X74707816Y-44565051D01*
X74729789Y-44549086D01*
X74879786Y-44440109D01*
X74879788Y-44440106D01*
X74879792Y-44440104D01*
X75030104Y-44289792D01*
X75030106Y-44289788D01*
X75030109Y-44289786D01*
X75155048Y-44117820D01*
X75155050Y-44117817D01*
X75155051Y-44117816D01*
X75251557Y-43928412D01*
X75317246Y-43726243D01*
X75350500Y-43516287D01*
X75350500Y-43303713D01*
X75317246Y-43093757D01*
X75251557Y-42891588D01*
X75155051Y-42702184D01*
X75155049Y-42702181D01*
X75155048Y-42702179D01*
X75030109Y-42530213D01*
X74879786Y-42379890D01*
X74707820Y-42254951D01*
X74707115Y-42254591D01*
X74699054Y-42250485D01*
X74648259Y-42202512D01*
X74631463Y-42134692D01*
X74653999Y-42068556D01*
X74699054Y-42029515D01*
X74707816Y-42025051D01*
X74729789Y-42009086D01*
X74879786Y-41900109D01*
X74879788Y-41900106D01*
X74879792Y-41900104D01*
X75030104Y-41749792D01*
X75030106Y-41749788D01*
X75030109Y-41749786D01*
X75155048Y-41577820D01*
X75155047Y-41577820D01*
X75155051Y-41577816D01*
X75251557Y-41388412D01*
X75317246Y-41186243D01*
X75350500Y-40976287D01*
X75350500Y-40763713D01*
X75317246Y-40553757D01*
X75251557Y-40351588D01*
X75155051Y-40162184D01*
X75155049Y-40162181D01*
X75155048Y-40162179D01*
X75030109Y-39990213D01*
X74879786Y-39839890D01*
X74707820Y-39714951D01*
X74707115Y-39714591D01*
X74699054Y-39710485D01*
X74648259Y-39662512D01*
X74631463Y-39594692D01*
X74653999Y-39528556D01*
X74699054Y-39489515D01*
X74707816Y-39485051D01*
X74729789Y-39469086D01*
X74879786Y-39360109D01*
X74879788Y-39360106D01*
X74879792Y-39360104D01*
X75030104Y-39209792D01*
X75030106Y-39209788D01*
X75030109Y-39209786D01*
X75155048Y-39037820D01*
X75155047Y-39037820D01*
X75155051Y-39037816D01*
X75251557Y-38848412D01*
X75317246Y-38646243D01*
X75350500Y-38436287D01*
X75350500Y-38223713D01*
X75317246Y-38013757D01*
X75251557Y-37811588D01*
X75155051Y-37622184D01*
X75155049Y-37622181D01*
X75155048Y-37622179D01*
X75030109Y-37450213D01*
X74879786Y-37299890D01*
X74707820Y-37174951D01*
X74707115Y-37174591D01*
X74699054Y-37170485D01*
X74648259Y-37122512D01*
X74631463Y-37054692D01*
X74653999Y-36988556D01*
X74699054Y-36949515D01*
X74707816Y-36945051D01*
X74837537Y-36850804D01*
X74879786Y-36820109D01*
X74879788Y-36820106D01*
X74879792Y-36820104D01*
X75030104Y-36669792D01*
X75030106Y-36669788D01*
X75030109Y-36669786D01*
X75155048Y-36497820D01*
X75155047Y-36497820D01*
X75155051Y-36497816D01*
X75251557Y-36308412D01*
X75317246Y-36106243D01*
X75350500Y-35896287D01*
X75350500Y-35683713D01*
X75317246Y-35473757D01*
X75251557Y-35271588D01*
X75155051Y-35082184D01*
X75155049Y-35082181D01*
X75155048Y-35082179D01*
X75030109Y-34910213D01*
X74916181Y-34796285D01*
X74882696Y-34734962D01*
X74887680Y-34665270D01*
X74929552Y-34609337D01*
X74960529Y-34592422D01*
X75092086Y-34543354D01*
X75092093Y-34543350D01*
X75207187Y-34457190D01*
X75207190Y-34457187D01*
X75293350Y-34342093D01*
X75293354Y-34342086D01*
X75343596Y-34207379D01*
X75343598Y-34207372D01*
X75349999Y-34147844D01*
X75350000Y-34147827D01*
X75350000Y-33500000D01*
X74433012Y-33500000D01*
X74465925Y-33442993D01*
X74500000Y-33315826D01*
X74500000Y-33184174D01*
X74465925Y-33057007D01*
X74433012Y-33000000D01*
X75350000Y-33000000D01*
X75350000Y-32352172D01*
X75349999Y-32352155D01*
X75343598Y-32292627D01*
X75343596Y-32292620D01*
X75293354Y-32157913D01*
X75293350Y-32157906D01*
X75207190Y-32042812D01*
X75207187Y-32042809D01*
X75092093Y-31956649D01*
X75092086Y-31956645D01*
X74957379Y-31906403D01*
X74957372Y-31906401D01*
X74897844Y-31900000D01*
X74250000Y-31900000D01*
X74250000Y-32816988D01*
X74192993Y-32784075D01*
X74065826Y-32750000D01*
X73934174Y-32750000D01*
X73807007Y-32784075D01*
X73750000Y-32816988D01*
X73750000Y-31900000D01*
X73102155Y-31900000D01*
X73042627Y-31906401D01*
X73042620Y-31906403D01*
X72907913Y-31956645D01*
X72907906Y-31956649D01*
X72792812Y-32042809D01*
X72792809Y-32042812D01*
X72706649Y-32157906D01*
X72706645Y-32157913D01*
X72656403Y-32292620D01*
X72656401Y-32292627D01*
X72650000Y-32352155D01*
X72650000Y-33000000D01*
X73566988Y-33000000D01*
X73534075Y-33057007D01*
X73500000Y-33184174D01*
X73500000Y-33315826D01*
X73534075Y-33442993D01*
X73566988Y-33500000D01*
X72610597Y-33500000D01*
X72543558Y-33480315D01*
X72522916Y-33463681D01*
X65621416Y-26562181D01*
X65587931Y-26500858D01*
X65592915Y-26431166D01*
X65634787Y-26375233D01*
X65700251Y-26350816D01*
X65709097Y-26350500D01*
X72199903Y-26350500D01*
X72266942Y-26370185D01*
G37*
%TD.AperFunction*%
%TA.AperFunction,Conductor*%
G36*
X48817941Y-26370185D02*
G01*
X48863696Y-26422989D01*
X48873640Y-26492147D01*
X48844615Y-26555703D01*
X48838586Y-26562177D01*
X48551831Y-26848932D01*
X48318366Y-27082397D01*
X48257043Y-27115882D01*
X48187351Y-27110898D01*
X48143004Y-27082397D01*
X47992363Y-26931756D01*
X47992358Y-26931752D01*
X47814025Y-26802187D01*
X47814024Y-26802186D01*
X47814022Y-26802185D01*
X47725990Y-26757330D01*
X47617606Y-26702104D01*
X47617603Y-26702103D01*
X47407952Y-26633985D01*
X47256535Y-26610003D01*
X47190222Y-26599500D01*
X46969778Y-26599500D01*
X46903465Y-26610003D01*
X46752047Y-26633985D01*
X46542396Y-26702103D01*
X46542393Y-26702104D01*
X46345974Y-26802187D01*
X46167641Y-26931752D01*
X46167636Y-26931756D01*
X46011756Y-27087636D01*
X45910008Y-27227681D01*
X45854678Y-27270346D01*
X45785065Y-27276325D01*
X45723270Y-27243719D01*
X45709371Y-27227680D01*
X45691066Y-27202485D01*
X45691065Y-27202485D01*
X44982137Y-27911413D01*
X44959333Y-27826306D01*
X44900090Y-27723694D01*
X44816306Y-27639910D01*
X44713694Y-27580667D01*
X44628584Y-27557861D01*
X45337513Y-26848932D01*
X45273756Y-26802611D01*
X45077410Y-26702567D01*
X44867835Y-26634473D01*
X44650181Y-26600000D01*
X44548598Y-26600000D01*
X44527352Y-26593761D01*
X44505264Y-26592182D01*
X44494480Y-26584109D01*
X44481559Y-26580315D01*
X44467059Y-26563581D01*
X44449331Y-26550310D01*
X44444623Y-26537689D01*
X44435804Y-26527511D01*
X44432652Y-26505593D01*
X44424914Y-26484846D01*
X44427776Y-26471685D01*
X44425860Y-26458353D01*
X44435059Y-26438209D01*
X44439766Y-26416573D01*
X44453034Y-26398847D01*
X44454885Y-26394797D01*
X44460917Y-26388319D01*
X44462417Y-26386819D01*
X44523740Y-26353334D01*
X44550098Y-26350500D01*
X48750902Y-26350500D01*
X48817941Y-26370185D01*
G37*
%TD.AperFunction*%
%TD*%
M02*
