%TF.GenerationSoftware,KiCad,Pcbnew,9.0.6*%
%TF.CreationDate,2026-02-09T07:56:29-08:00*%
%TF.ProjectId,flopper_one,666c6f70-7065-4725-9f6f-6e652e6b6963,rev?*%
%TF.SameCoordinates,Original*%
%TF.FileFunction,Copper,L2,Bot*%
%TF.FilePolarity,Positive*%
%FSLAX46Y46*%
G04 Gerber Fmt 4.6, Leading zero omitted, Abs format (unit mm)*
G04 Created by KiCad (PCBNEW 9.0.6) date 2026-02-09 07:56:29*
%MOMM*%
%LPD*%
G01*
G04 APERTURE LIST*
G04 Aperture macros list*
%AMRoundRect*
0 Rectangle with rounded corners*
0 $1 Rounding radius*
0 $2 $3 $4 $5 $6 $7 $8 $9 X,Y pos of 4 corners*
0 Add a 4 corners polygon primitive as box body*
4,1,4,$2,$3,$4,$5,$6,$7,$8,$9,$2,$3,0*
0 Add four circle primitives for the rounded corners*
1,1,$1+$1,$2,$3*
1,1,$1+$1,$4,$5*
1,1,$1+$1,$6,$7*
1,1,$1+$1,$8,$9*
0 Add four rect primitives between the rounded corners*
20,1,$1+$1,$2,$3,$4,$5,0*
20,1,$1+$1,$4,$5,$6,$7,0*
20,1,$1+$1,$6,$7,$8,$9,0*
20,1,$1+$1,$8,$9,$2,$3,0*%
G04 Aperture macros list end*
%TA.AperFunction,Conductor*%
%ADD10C,0.100000*%
%TD*%
%TA.AperFunction,Conductor*%
%ADD11C,0.200000*%
%TD*%
%TA.AperFunction,ComponentPad*%
%ADD12R,2.000000X2.000000*%
%TD*%
%TA.AperFunction,ComponentPad*%
%ADD13C,2.000000*%
%TD*%
%TA.AperFunction,HeatsinkPad*%
%ADD14C,0.500000*%
%TD*%
%TA.AperFunction,HeatsinkPad*%
%ADD15R,1.900000X2.900000*%
%TD*%
%TA.AperFunction,ComponentPad*%
%ADD16R,1.700000X1.700000*%
%TD*%
%TA.AperFunction,ComponentPad*%
%ADD17C,1.700000*%
%TD*%
%TA.AperFunction,ComponentPad*%
%ADD18O,3.500000X2.000000*%
%TD*%
%TA.AperFunction,ComponentPad*%
%ADD19C,1.600000*%
%TD*%
%TA.AperFunction,ComponentPad*%
%ADD20R,1.800000X1.800000*%
%TD*%
%TA.AperFunction,ComponentPad*%
%ADD21C,1.800000*%
%TD*%
%TA.AperFunction,SMDPad,CuDef*%
%ADD22RoundRect,0.750000X0.750000X-1.750000X0.750000X1.750000X-0.750000X1.750000X-0.750000X-1.750000X0*%
%TD*%
%TA.AperFunction,ComponentPad*%
%ADD23RoundRect,0.250000X0.750000X-0.750000X0.750000X0.750000X-0.750000X0.750000X-0.750000X-0.750000X0*%
%TD*%
%TA.AperFunction,ComponentPad*%
%ADD24RoundRect,0.250200X-0.649800X-0.649800X0.649800X-0.649800X0.649800X0.649800X-0.649800X0.649800X0*%
%TD*%
%TA.AperFunction,ComponentPad*%
%ADD25O,1.200000X1.600000*%
%TD*%
%TA.AperFunction,ComponentPad*%
%ADD26C,1.200000*%
%TD*%
%TA.AperFunction,ComponentPad*%
%ADD27RoundRect,0.250000X-0.750000X0.750000X-0.750000X-0.750000X0.750000X-0.750000X0.750000X0.750000X0*%
%TD*%
%TA.AperFunction,ViaPad*%
%ADD28C,0.600000*%
%TD*%
G04 APERTURE END LIST*
%TO.N,/BAT+*%
D10*
X81562500Y-42750000D02*
X85437500Y-42750000D01*
X85437500Y-46875000D01*
X81562500Y-46875000D01*
X81562500Y-42750000D01*
%TA.AperFunction,Conductor*%
G36*
X81562500Y-42750000D02*
G01*
X85437500Y-42750000D01*
X85437500Y-46875000D01*
X81562500Y-46875000D01*
X81562500Y-42750000D01*
G37*
%TD.AperFunction*%
%TO.N,GND*%
D11*
X87062500Y-43375000D02*
X91437500Y-43375000D01*
X91437500Y-47625000D01*
X87062500Y-47625000D01*
X87062500Y-43375000D01*
%TA.AperFunction,Conductor*%
G36*
X87062500Y-43375000D02*
G01*
X91437500Y-43375000D01*
X91437500Y-47625000D01*
X87062500Y-47625000D01*
X87062500Y-43375000D01*
G37*
%TD.AperFunction*%
%TD*%
D12*
%TO.P,U2,1,VIN*%
%TO.N,/VIN*%
X74320000Y-59250000D03*
D13*
%TO.P,U2,2,GND*%
%TO.N,GND*%
X71780000Y-59250000D03*
%TO.P,U2,3,GPIO13*%
%TO.N,unconnected-(U2-GPIO13-Pad3)*%
X69240000Y-59250000D03*
%TO.P,U2,4,GPIO12*%
%TO.N,/P4*%
X66700000Y-59250000D03*
%TO.P,U2,5,GPIO14*%
%TO.N,/P1*%
X64160000Y-59250000D03*
%TO.P,U2,6,GPIO27*%
%TO.N,/P2*%
X61620000Y-59250000D03*
%TO.P,U2,7,GPIO26*%
%TO.N,/P3*%
X59080000Y-59250000D03*
%TO.P,U2,8,GPIO25*%
%TO.N,/P5*%
X56540000Y-59250000D03*
%TO.P,U2,9,GPIO33*%
%TO.N,unconnected-(U2-GPIO33-Pad9)*%
X54000000Y-59250000D03*
%TO.P,U2,10,GPIO32*%
%TO.N,unconnected-(U2-GPIO32-Pad10)*%
X51460000Y-59250000D03*
%TO.P,U2,11,GPIO35*%
%TO.N,unconnected-(U2-GPIO35-Pad11)*%
X48920000Y-59250000D03*
%TO.P,U2,12,GPIO34*%
%TO.N,unconnected-(U2-GPIO34-Pad12)*%
X46380000Y-59250000D03*
%TO.P,U2,13,GPIO39*%
%TO.N,unconnected-(U2-GPIO39-Pad13)*%
X43840000Y-59250000D03*
%TO.P,U2,14,GPIO36*%
%TO.N,unconnected-(U2-GPIO36-Pad14)*%
X41300000Y-59250000D03*
%TO.P,U2,15,EN*%
%TO.N,unconnected-(U2-EN-Pad15)*%
X38760000Y-59250000D03*
%TO.P,U2,16,3.3v*%
%TO.N,/VCC*%
X38760000Y-84650000D03*
%TO.P,U2,17,GND*%
%TO.N,GND*%
X41300000Y-84650000D03*
%TO.P,U2,18,GPIO15*%
%TO.N,unconnected-(U2-GPIO15-Pad18)*%
X43840000Y-84650000D03*
%TO.P,U2,19,GPIO2*%
%TO.N,unconnected-(U2-GPIO2-Pad19)*%
X46380000Y-84650000D03*
%TO.P,U2,20,GPIO4*%
%TO.N,unconnected-(U2-GPIO4-Pad20)*%
X48920000Y-84650000D03*
%TO.P,U2,21,GPIO16*%
%TO.N,Net-(U2-GPIO16)*%
X51460000Y-84650000D03*
%TO.P,U2,22,GPIO17*%
%TO.N,/SDA1*%
X54000000Y-84650000D03*
%TO.P,U2,23,GPIO5*%
%TO.N,/SCL1*%
X56540000Y-84650000D03*
%TO.P,U2,24,GPIO18*%
%TO.N,/SCL2*%
X59080000Y-84650000D03*
%TO.P,U2,25,GPIO19*%
%TO.N,/SDA2*%
X61620000Y-84650000D03*
%TO.P,U2,26,GPIO21*%
%TO.N,unconnected-(U2-GPIO21-Pad26)*%
X64160000Y-84650000D03*
%TO.P,U2,27,GPIO3*%
%TO.N,unconnected-(U2-GPIO3-Pad27)*%
X66700000Y-84650000D03*
%TO.P,U2,28,GPIO1*%
%TO.N,unconnected-(U2-GPIO1-Pad28)*%
X69240000Y-84650000D03*
%TO.P,U2,29,GPIO22*%
%TO.N,unconnected-(U2-GPIO22-Pad29)*%
X71780000Y-84650000D03*
%TO.P,U2,30,GPIO23*%
%TO.N,Net-(U2-GPIO23)*%
X74320000Y-84650000D03*
%TD*%
D14*
%TO.P,U1,9,EPAD*%
%TO.N,GND*%
X91300000Y-61275000D03*
X91300000Y-60075000D03*
X91300000Y-58875000D03*
D15*
X90600000Y-60075000D03*
D14*
X89900000Y-61275000D03*
X89900000Y-60075000D03*
X89900000Y-58875000D03*
%TD*%
D16*
%TO.P,J2,1,Pin_1*%
%TO.N,GND*%
X74000000Y-33250000D03*
D17*
%TO.P,J2,2,Pin_2*%
%TO.N,/VCC*%
X74000000Y-35790000D03*
%TO.P,J2,3,Pin_3*%
%TO.N,/SCL2*%
X74000000Y-38330000D03*
%TO.P,J2,4,Pin_4*%
%TO.N,/SDA2*%
X74000000Y-40870000D03*
%TO.P,J2,5,Pin_5*%
%TO.N,unconnected-(J2-Pin_5-Pad5)*%
X74000000Y-43410000D03*
%TO.P,J2,6,Pin_6*%
%TO.N,unconnected-(J2-Pin_6-Pad6)*%
X74000000Y-45950000D03*
%TO.P,J2,7,Pin_7*%
%TO.N,/VCC*%
X74000000Y-48490000D03*
%TD*%
D18*
%TO.P,SW6,1,A*%
%TO.N,Net-(SW6-A)*%
X101000000Y-80000000D03*
%TO.P,SW6,2,B*%
%TO.N,/BAT+*%
X101000000Y-85000000D03*
%TD*%
D19*
%TO.P,R5,1*%
%TO.N,Net-(U1-~{CHRG})*%
X104000000Y-49380000D03*
%TO.P,R5,2*%
%TO.N,Net-(D2-K)*%
X104000000Y-57000000D03*
%TD*%
D20*
%TO.P,D3,1,K*%
%TO.N,Net-(D3-K)*%
X107250000Y-80250000D03*
D21*
%TO.P,D3,2,A*%
%TO.N,Net-(D2-A)*%
X104710000Y-80250000D03*
%TD*%
D19*
%TO.P,R6,1*%
%TO.N,/VIN*%
X98380000Y-33500000D03*
%TO.P,R6,2*%
%TO.N,Net-(D2-A)*%
X106000000Y-33500000D03*
%TD*%
D22*
%TO.P,U4,1,VOUT+*%
%TO.N,/VIN*%
X97050000Y-83500000D03*
%TO.P,U4,2,VOUT-*%
%TO.N,GND*%
X90250000Y-83500000D03*
%TO.P,U4,3,VIN-*%
X90250000Y-53000000D03*
%TO.P,U4,4,VIN+*%
%TO.N,Net-(SW6-A)*%
X97050000Y-53000000D03*
%TD*%
D19*
%TO.P,R1,1*%
%TO.N,Net-(D1-A)*%
X44130000Y-31250000D03*
%TO.P,R1,2*%
%TO.N,/VCC*%
X51750000Y-31250000D03*
%TD*%
%TO.P,R3,1*%
%TO.N,Net-(U1-PROG)*%
X105250000Y-59440000D03*
%TO.P,R3,2*%
%TO.N,GND*%
X105250000Y-67060000D03*
%TD*%
%TO.P,R4,1*%
%TO.N,Net-(U1-~{STDBY})*%
X107250000Y-49380000D03*
%TO.P,R4,2*%
%TO.N,Net-(D3-K)*%
X107250000Y-57000000D03*
%TD*%
D23*
%TO.P,C2,1*%
%TO.N,Net-(D2-A)*%
X82750000Y-81250000D03*
D13*
%TO.P,C2,2*%
%TO.N,GND*%
X82750000Y-66250000D03*
%TD*%
D24*
%TO.P,U_2,1,OUT*%
%TO.N,Net-(U2-GPIO23)*%
X42000000Y-28000000D03*
D21*
%TO.P,U_2,2,GND*%
%TO.N,GND*%
X44540000Y-28000000D03*
%TO.P,U_2,3,Vs*%
%TO.N,/VCC*%
X47080000Y-28000000D03*
%TD*%
D19*
%TO.P,R2,1*%
%TO.N,Net-(Q1-B)*%
X53000000Y-35250000D03*
%TO.P,R2,2*%
%TO.N,Net-(U2-GPIO16)*%
X45380000Y-35250000D03*
%TD*%
D25*
%TO.P,Q1,1,E*%
%TO.N,GND*%
X59460000Y-35710000D03*
D26*
%TO.P,Q1,2,B*%
%TO.N,Net-(Q1-B)*%
X62000000Y-38250000D03*
%TO.P,Q1,3,C*%
%TO.N,Net-(D1-K)*%
X59460000Y-40790000D03*
%TD*%
D20*
%TO.P,D1,1,K*%
%TO.N,Net-(D1-K)*%
X57540000Y-29250000D03*
D21*
%TO.P,D1,2,A*%
%TO.N,Net-(D1-A)*%
X55000000Y-29250000D03*
%TD*%
D16*
%TO.P,J1,1,VCC*%
%TO.N,GND*%
X74000000Y-62250000D03*
D17*
%TO.P,J1,2,RX*%
%TO.N,/VCC*%
X74000000Y-64790000D03*
%TO.P,J1,3,TX*%
%TO.N,/SDA1*%
X74000000Y-67330000D03*
%TO.P,J1,4,GND*%
%TO.N,/SCL1*%
X74000000Y-69870000D03*
%TD*%
D20*
%TO.P,D2,1,K*%
%TO.N,Net-(D2-K)*%
X107000000Y-73000000D03*
D21*
%TO.P,D2,2,A*%
%TO.N,Net-(D2-A)*%
X104460000Y-73000000D03*
%TD*%
D27*
%TO.P,C1,1*%
%TO.N,/BAT+*%
X82500000Y-48750000D03*
D13*
%TO.P,C1,2*%
%TO.N,GND*%
X82500000Y-63750000D03*
%TD*%
D28*
%TO.N,GND*%
X68000000Y-48000000D03*
X87500000Y-51750000D03*
%TO.N,Net-(U1-PROG)*%
X94500000Y-60500000D03*
%TO.N,/VIN*%
X86750000Y-79949000D03*
X67500000Y-74750000D03*
X81250000Y-55250000D03*
%TO.N,Net-(D2-A)*%
X88000000Y-62382000D03*
X95000000Y-58500000D03*
%TD*%
D11*
%TO.N,Net-(D1-A)*%
X45882000Y-33942000D02*
X54308000Y-33942000D01*
X45882000Y-33942000D02*
X45882000Y-33002000D01*
X45882000Y-33002000D02*
X44130000Y-31250000D01*
X54308000Y-33942000D02*
X55000000Y-33250000D01*
X55000000Y-33250000D02*
X55000000Y-29250000D01*
%TO.N,Net-(D1-K)*%
X57540000Y-38870000D02*
X59460000Y-40790000D01*
X57540000Y-29250000D02*
X57540000Y-38870000D01*
%TO.N,GND*%
X82750000Y-78963840D02*
X82750000Y-66250000D01*
X90250000Y-49375000D02*
X90250000Y-53000000D01*
X51956000Y-46231000D02*
X41040000Y-35315000D01*
X87625000Y-46750000D02*
X90250000Y-49375000D01*
X73523240Y-36941000D02*
X74476760Y-36941000D01*
X74000000Y-61470000D02*
X74000000Y-62250000D01*
X68000000Y-55470000D02*
X71780000Y-59250000D01*
X87286160Y-83500000D02*
X82750000Y-78963840D01*
X68000000Y-48000000D02*
X68000000Y-55470000D01*
X90250000Y-53000000D02*
X88750000Y-53000000D01*
X64233240Y-43483240D02*
X64233240Y-46231000D01*
X64233240Y-46231000D02*
X51956000Y-46231000D01*
X64233240Y-46231000D02*
X73523240Y-36941000D01*
X71780000Y-59250000D02*
X74000000Y-61470000D01*
X90250000Y-83500000D02*
X87286160Y-83500000D01*
X88750000Y-53000000D02*
X87500000Y-51750000D01*
X59460000Y-38710000D02*
X64233240Y-43483240D01*
X59460000Y-35710000D02*
X59460000Y-38710000D01*
X41040000Y-35315000D02*
X41040000Y-31777100D01*
X75151000Y-36266760D02*
X75151000Y-34401000D01*
X44540000Y-28277100D02*
X44540000Y-28000000D01*
X74476760Y-36941000D02*
X75151000Y-36266760D01*
X75151000Y-34401000D02*
X74000000Y-33250000D01*
X41040000Y-31777100D02*
X44540000Y-28277100D01*
%TO.N,/VCC*%
X50000000Y-26250000D02*
X50000000Y-26500000D01*
X47080000Y-28000000D02*
X47080000Y-29170000D01*
X50000000Y-26500000D02*
X51750000Y-28250000D01*
X51750000Y-28250000D02*
X51750000Y-31250000D01*
X47000000Y-29250000D02*
X50000000Y-26250000D01*
X50000000Y-26250000D02*
X64460000Y-26250000D01*
X47080000Y-29170000D02*
X47000000Y-29250000D01*
X64460000Y-26250000D02*
X74000000Y-35790000D01*
%TO.N,Net-(Q1-B)*%
X58741000Y-28049000D02*
X56339000Y-28049000D01*
X56339000Y-28049000D02*
X56339000Y-33911000D01*
X56339000Y-33911000D02*
X55000000Y-35250000D01*
X55000000Y-35250000D02*
X53000000Y-35250000D01*
X62000000Y-38250000D02*
X62000000Y-31308000D01*
X62000000Y-31308000D02*
X58741000Y-28049000D01*
%TO.N,Net-(U2-GPIO16)*%
X44621950Y-29201000D02*
X45037471Y-29201000D01*
X42789000Y-32659000D02*
X42789000Y-31033950D01*
X42789000Y-31033950D02*
X44621950Y-29201000D01*
X51460000Y-73789892D02*
X51460000Y-84650000D01*
X45741000Y-28497471D02*
X45741000Y-27491000D01*
X45741000Y-27491000D02*
X45049000Y-26799000D01*
X37459000Y-34791000D02*
X37459000Y-59788892D01*
X45380000Y-35250000D02*
X42789000Y-32659000D01*
X45049000Y-26799000D02*
X44042529Y-26799000D01*
X43250000Y-27591529D02*
X43250000Y-29000000D01*
X45037471Y-29201000D02*
X45741000Y-28497471D01*
X43250000Y-29000000D02*
X37459000Y-34791000D01*
X37459000Y-59788892D02*
X51460000Y-73789892D01*
X44042529Y-26799000D02*
X43250000Y-27591529D01*
%TO.N,/SDA2*%
X78750000Y-60500000D02*
X78750000Y-57000000D01*
X72000000Y-74270000D02*
X61620000Y-84650000D01*
X76500000Y-62750000D02*
X78750000Y-60500000D01*
X72000000Y-74250000D02*
X72000000Y-74270000D01*
X72000000Y-42870000D02*
X72000000Y-50250000D01*
X76500000Y-72500000D02*
X76500000Y-62750000D01*
X74750000Y-74250000D02*
X76500000Y-72500000D01*
X74000000Y-40870000D02*
X72000000Y-42870000D01*
X74750000Y-74250000D02*
X72000000Y-74250000D01*
X72000000Y-50250000D02*
X78750000Y-57000000D01*
%TO.N,/SCL2*%
X71480000Y-72250000D02*
X59080000Y-84650000D01*
X76000000Y-56250000D02*
X76000000Y-71500000D01*
X76000000Y-71500000D02*
X75250000Y-72250000D01*
X75250000Y-72250000D02*
X71480000Y-72250000D01*
X69500000Y-42830000D02*
X69500000Y-49750000D01*
X69500000Y-49750000D02*
X76000000Y-56250000D01*
X74000000Y-38330000D02*
X69500000Y-42830000D01*
%TO.N,Net-(U2-GPIO23)*%
X74320000Y-84650000D02*
X80000000Y-78970000D01*
X72000000Y-25250000D02*
X44750000Y-25250000D01*
X80000000Y-78970000D02*
X80000000Y-60257709D01*
X80125000Y-33375000D02*
X72000000Y-25250000D01*
X44750000Y-25250000D02*
X42000000Y-28000000D01*
X80125000Y-60132709D02*
X80125000Y-33375000D01*
X80000000Y-60257709D02*
X80125000Y-60132709D01*
%TO.N,Net-(D2-K)*%
X104000000Y-57000000D02*
X105500000Y-57000000D01*
X107250000Y-73000000D02*
X107000000Y-73000000D01*
X105500000Y-57000000D02*
X107500000Y-59000000D01*
X107500000Y-59000000D02*
X107500000Y-72750000D01*
X107500000Y-72750000D02*
X107250000Y-73000000D01*
%TO.N,Net-(D3-K)*%
X107750000Y-79750000D02*
X107750000Y-75250000D01*
X107250000Y-80250000D02*
X107750000Y-79750000D01*
X108701000Y-58451000D02*
X107250000Y-57000000D01*
X107750000Y-75250000D02*
X108701000Y-74299000D01*
X108701000Y-74299000D02*
X108701000Y-58451000D01*
%TO.N,Net-(U1-PROG)*%
X95560000Y-59440000D02*
X94500000Y-60500000D01*
X105250000Y-59440000D02*
X95560000Y-59440000D01*
%TO.N,/BAT+*%
X98949000Y-82949000D02*
X101000000Y-85000000D01*
X82750000Y-51750000D02*
X86250000Y-55250000D01*
X82500000Y-48750000D02*
X82750000Y-49000000D01*
X82500000Y-45812500D02*
X82500000Y-48750000D01*
X86250000Y-55250000D02*
X86250000Y-62750000D01*
X83500000Y-44812500D02*
X82500000Y-45812500D01*
X98949000Y-75449000D02*
X98949000Y-82949000D01*
X86250000Y-62750000D02*
X98949000Y-75449000D01*
X82750000Y-49000000D02*
X82750000Y-51750000D01*
%TO.N,/VIN*%
X81000000Y-55000000D02*
X81250000Y-55250000D01*
X75151000Y-60081000D02*
X74320000Y-59250000D01*
X86750000Y-79949000D02*
X93499000Y-79949000D01*
X98380000Y-33500000D02*
X90316111Y-33500000D01*
X90316111Y-33500000D02*
X81000000Y-42816111D01*
X81000000Y-42816111D02*
X81000000Y-55000000D01*
X67500000Y-74750000D02*
X67500000Y-68750000D01*
X75151000Y-63401000D02*
X75151000Y-60081000D01*
X72849000Y-63401000D02*
X75151000Y-63401000D01*
X67500000Y-68750000D02*
X72849000Y-63401000D01*
X93499000Y-79949000D02*
X97050000Y-83500000D01*
%TO.N,Net-(SW6-A)*%
X93250000Y-65250000D02*
X93250000Y-56800000D01*
X101000000Y-73000000D02*
X93250000Y-65250000D01*
X101000000Y-80000000D02*
X101000000Y-73000000D01*
X93250000Y-56800000D02*
X97050000Y-53000000D01*
%TO.N,Net-(D2-A)*%
X88095660Y-62286340D02*
X91390660Y-62286340D01*
X93899000Y-59601000D02*
X95000000Y-58500000D01*
X91390660Y-62286340D02*
X92849000Y-60828000D01*
X88000000Y-62382000D02*
X88095660Y-62286340D01*
X104460000Y-73000000D02*
X93899000Y-62439000D01*
X93899000Y-62439000D02*
X93899000Y-59601000D01*
X92849000Y-60828000D02*
X92849000Y-58500000D01*
%TD*%
M02*
