%TF.GenerationSoftware,KiCad,Pcbnew,9.0.6*%
%TF.CreationDate,2026-02-10T17:15:06-08:00*%
%TF.ProjectId,flopper_one,666c6f70-7065-4725-9f6f-6e652e6b6963,rev?*%
%TF.SameCoordinates,Original*%
%TF.FileFunction,Legend,Top*%
%TF.FilePolarity,Positive*%
%FSLAX46Y46*%
G04 Gerber Fmt 4.6, Leading zero omitted, Abs format (unit mm)*
G04 Created by KiCad (PCBNEW 9.0.6) date 2026-02-10 17:15:06*
%MOMM*%
%LPD*%
G01*
G04 APERTURE LIST*
%ADD10C,0.200000*%
%ADD11C,0.000000*%
%ADD12C,0.300000*%
%ADD13C,0.150000*%
%ADD14C,0.100000*%
%ADD15C,0.127000*%
%ADD16C,0.120000*%
G04 APERTURE END LIST*
D10*
X33000000Y-25250000D02*
X76000000Y-25250000D01*
X76000000Y-57250000D01*
X33000000Y-57250000D01*
X33000000Y-25250000D01*
D11*
G36*
X90306517Y-71481375D02*
G01*
X90608511Y-71500447D01*
X90940571Y-71541203D01*
X91118063Y-71570717D01*
X91303297Y-71606857D01*
X91496347Y-71650026D01*
X91697288Y-71700624D01*
X91906195Y-71759054D01*
X92123144Y-71825718D01*
X92348208Y-71901018D01*
X92581463Y-71985354D01*
X92822985Y-72079130D01*
X93072846Y-72182747D01*
X93331124Y-72296606D01*
X93597892Y-72421111D01*
X93890480Y-72552035D01*
X94182743Y-72664780D01*
X94474204Y-72760198D01*
X94764386Y-72839140D01*
X95052811Y-72902457D01*
X95339001Y-72951001D01*
X95622479Y-72985622D01*
X95902768Y-73007172D01*
X96179390Y-73016502D01*
X96451868Y-73014464D01*
X96719724Y-73001908D01*
X96982480Y-72979686D01*
X97239660Y-72948649D01*
X97490785Y-72909648D01*
X97735379Y-72863535D01*
X97972963Y-72811160D01*
X98425194Y-72691032D01*
X98843659Y-72556073D01*
X99224536Y-72413095D01*
X99564007Y-72268905D01*
X99858252Y-72130315D01*
X100103450Y-72004134D01*
X100431429Y-71816238D01*
X100433223Y-71815270D01*
X100435081Y-71814536D01*
X100436993Y-71814025D01*
X100438950Y-71813728D01*
X100440941Y-71813637D01*
X100442956Y-71813741D01*
X100444987Y-71814031D01*
X100447021Y-71814497D01*
X100449051Y-71815131D01*
X100451066Y-71815922D01*
X100453056Y-71816861D01*
X100455011Y-71817940D01*
X100456921Y-71819147D01*
X100458776Y-71820474D01*
X100460567Y-71821911D01*
X100462283Y-71823450D01*
X100463915Y-71825080D01*
X100465452Y-71826791D01*
X100466886Y-71828575D01*
X100468205Y-71830423D01*
X100469400Y-71832324D01*
X100470461Y-71834269D01*
X100471379Y-71836248D01*
X100472142Y-71838253D01*
X100472742Y-71840274D01*
X100473169Y-71842301D01*
X100473412Y-71844325D01*
X100473462Y-71846336D01*
X100473308Y-71848325D01*
X100472941Y-71850282D01*
X100472352Y-71852199D01*
X100471529Y-71854065D01*
X99903140Y-72960457D01*
X99902361Y-72962101D01*
X99901704Y-72963759D01*
X99901167Y-72965428D01*
X99900746Y-72967104D01*
X99900439Y-72968781D01*
X99900245Y-72970456D01*
X99900159Y-72972124D01*
X99900180Y-72973781D01*
X99900305Y-72975423D01*
X99900532Y-72977045D01*
X99900858Y-72978643D01*
X99901280Y-72980212D01*
X99901796Y-72981749D01*
X99902403Y-72983248D01*
X99903099Y-72984706D01*
X99903881Y-72986117D01*
X99904747Y-72987479D01*
X99905694Y-72988785D01*
X99906719Y-72990033D01*
X99907820Y-72991218D01*
X99908995Y-72992334D01*
X99910241Y-72993379D01*
X99911555Y-72994347D01*
X99912935Y-72995235D01*
X99914377Y-72996037D01*
X99915881Y-72996750D01*
X99917443Y-72997369D01*
X99919060Y-72997890D01*
X99920730Y-72998308D01*
X99922450Y-72998620D01*
X99924219Y-72998820D01*
X99926032Y-72998905D01*
X100385241Y-73002703D01*
X100749941Y-73002688D01*
X101166473Y-72999215D01*
X101168687Y-72999265D01*
X101170837Y-72999469D01*
X101172918Y-72999820D01*
X101174928Y-73000313D01*
X101176862Y-73000938D01*
X101178717Y-73001690D01*
X101180488Y-73002561D01*
X101182172Y-73003544D01*
X101183766Y-73004633D01*
X101185265Y-73005820D01*
X101186665Y-73007098D01*
X101187963Y-73008460D01*
X101189155Y-73009900D01*
X101190238Y-73011410D01*
X101191207Y-73012983D01*
X101192058Y-73014611D01*
X101192789Y-73016289D01*
X101193394Y-73018009D01*
X101193871Y-73019765D01*
X101194215Y-73021548D01*
X101194423Y-73023352D01*
X101194490Y-73025170D01*
X101194414Y-73026995D01*
X101194190Y-73028819D01*
X101193815Y-73030637D01*
X101193284Y-73032441D01*
X101192595Y-73034223D01*
X101191742Y-73035977D01*
X101190723Y-73037696D01*
X101189533Y-73039373D01*
X101188169Y-73041000D01*
X101186627Y-73042571D01*
X100936903Y-73271062D01*
X100501440Y-73645858D01*
X99914644Y-74112476D01*
X99575250Y-74363191D01*
X99210925Y-74616430D01*
X98825971Y-74865383D01*
X98424689Y-75103238D01*
X98011380Y-75323185D01*
X97590344Y-75518414D01*
X97165884Y-75682114D01*
X96953713Y-75750013D01*
X96742299Y-75807475D01*
X96532179Y-75853650D01*
X96323891Y-75887686D01*
X96117972Y-75908731D01*
X95914960Y-75915936D01*
X95492645Y-75909758D01*
X95093337Y-75891882D01*
X94715150Y-75863293D01*
X94356194Y-75824978D01*
X94014580Y-75777923D01*
X93688422Y-75723113D01*
X93375830Y-75661535D01*
X93074916Y-75594175D01*
X92783792Y-75522018D01*
X92500569Y-75446051D01*
X91950275Y-75286631D01*
X91408927Y-75123802D01*
X90861419Y-74965452D01*
X90656614Y-74910193D01*
X93242717Y-74910193D01*
X93243998Y-74926171D01*
X93246966Y-74941046D01*
X93251560Y-74954738D01*
X93257719Y-74967169D01*
X93265380Y-74978257D01*
X93274482Y-74987925D01*
X93284962Y-74996091D01*
X93296760Y-75002676D01*
X93309814Y-75007600D01*
X93324061Y-75010784D01*
X93339440Y-75012147D01*
X93355890Y-75011610D01*
X93373348Y-75009094D01*
X93391752Y-75004518D01*
X93411042Y-74997803D01*
X93431156Y-74988869D01*
X93452030Y-74977636D01*
X93473605Y-74964024D01*
X93495818Y-74947954D01*
X93518607Y-74929347D01*
X93541910Y-74908121D01*
X93565667Y-74884198D01*
X93589814Y-74857497D01*
X93614291Y-74827940D01*
X93639036Y-74795446D01*
X93663986Y-74759935D01*
X93676174Y-74741418D01*
X93688402Y-74720145D01*
X93700556Y-74696661D01*
X93712522Y-74671511D01*
X93724186Y-74645240D01*
X93735434Y-74618393D01*
X93756226Y-74565153D01*
X93773985Y-74516152D01*
X93787800Y-74475751D01*
X93799947Y-74438197D01*
X93916116Y-74425123D01*
X93969780Y-74672367D01*
X94011602Y-74882709D01*
X94028894Y-74980769D01*
X94040966Y-75063120D01*
X94044174Y-75080186D01*
X94049037Y-75096715D01*
X94055442Y-75112635D01*
X94063274Y-75127876D01*
X94072419Y-75142366D01*
X94082762Y-75156034D01*
X94094190Y-75168810D01*
X94106587Y-75180622D01*
X94119840Y-75191400D01*
X94133834Y-75201072D01*
X94148455Y-75209567D01*
X94163588Y-75216815D01*
X94179119Y-75222744D01*
X94194934Y-75227284D01*
X94210919Y-75230363D01*
X94226959Y-75231910D01*
X94242939Y-75231855D01*
X94258746Y-75230125D01*
X94274265Y-75226652D01*
X94289382Y-75221362D01*
X94303983Y-75214186D01*
X94317952Y-75205052D01*
X94331176Y-75193889D01*
X94343541Y-75180626D01*
X94354931Y-75165193D01*
X94365234Y-75147517D01*
X94374333Y-75127529D01*
X94382116Y-75105157D01*
X94388468Y-75080331D01*
X94393274Y-75052978D01*
X94396420Y-75023029D01*
X94397791Y-74990411D01*
X94391922Y-74941775D01*
X94383013Y-74889021D01*
X94370987Y-74832128D01*
X94355768Y-74771078D01*
X94337278Y-74705851D01*
X94315442Y-74636428D01*
X94290180Y-74562788D01*
X94261417Y-74484912D01*
X94253573Y-74463647D01*
X95306472Y-74463647D01*
X95307090Y-74526925D01*
X95309263Y-74574527D01*
X95312577Y-74620821D01*
X95317024Y-74665783D01*
X95322595Y-74709388D01*
X95329282Y-74751610D01*
X95337077Y-74792426D01*
X95345971Y-74831809D01*
X95355957Y-74869736D01*
X95367026Y-74906181D01*
X95379169Y-74941120D01*
X95392378Y-74974528D01*
X95406646Y-75006380D01*
X95421963Y-75036651D01*
X95438322Y-75065317D01*
X95455714Y-75092351D01*
X95474130Y-75117731D01*
X95493564Y-75141430D01*
X95514005Y-75163424D01*
X95535447Y-75183688D01*
X95557881Y-75202198D01*
X95581298Y-75218928D01*
X95605690Y-75233854D01*
X95631049Y-75246950D01*
X95657366Y-75258192D01*
X95684634Y-75267556D01*
X95712844Y-75275015D01*
X95741987Y-75280547D01*
X95772056Y-75284124D01*
X95803042Y-75285724D01*
X95834937Y-75285320D01*
X95867733Y-75282888D01*
X95901421Y-75278404D01*
X95934249Y-75272299D01*
X95964535Y-75265084D01*
X95992368Y-75256842D01*
X96017842Y-75247658D01*
X96041048Y-75237615D01*
X96062078Y-75226796D01*
X96081024Y-75215286D01*
X96097978Y-75203169D01*
X96113031Y-75190529D01*
X96126277Y-75177448D01*
X96137806Y-75164012D01*
X96147710Y-75150303D01*
X96156082Y-75136406D01*
X96163014Y-75122405D01*
X96168596Y-75108383D01*
X96172922Y-75094424D01*
X96176083Y-75080613D01*
X96178171Y-75067032D01*
X96179278Y-75053766D01*
X96179496Y-75040898D01*
X96178916Y-75028513D01*
X96177632Y-75016694D01*
X96175733Y-75005525D01*
X96173314Y-74995090D01*
X96170464Y-74985473D01*
X96167277Y-74976757D01*
X96163845Y-74969026D01*
X96160258Y-74962365D01*
X96156610Y-74956857D01*
X96152991Y-74952585D01*
X96149495Y-74949634D01*
X96146212Y-74948088D01*
X96141378Y-74946531D01*
X96136776Y-74944576D01*
X96127319Y-74940124D01*
X96121986Y-74937951D01*
X96115934Y-74936031D01*
X96108923Y-74934525D01*
X96100715Y-74933597D01*
X96091072Y-74933408D01*
X96079756Y-74934121D01*
X96066529Y-74935898D01*
X96051152Y-74938902D01*
X96033387Y-74943295D01*
X96012995Y-74949240D01*
X95989739Y-74956898D01*
X95963381Y-74966433D01*
X95949488Y-74971336D01*
X95935809Y-74975519D01*
X95922340Y-74978974D01*
X95909076Y-74981693D01*
X95896015Y-74983669D01*
X95883154Y-74984894D01*
X95870489Y-74985361D01*
X95858016Y-74985062D01*
X95845732Y-74983990D01*
X95833633Y-74982137D01*
X95821717Y-74979496D01*
X95809980Y-74976058D01*
X95798419Y-74971818D01*
X95787029Y-74966766D01*
X95775808Y-74960896D01*
X95764752Y-74954199D01*
X95753858Y-74946670D01*
X95743122Y-74938299D01*
X95732541Y-74929079D01*
X95722112Y-74919003D01*
X95711830Y-74908064D01*
X95701694Y-74896253D01*
X95691699Y-74883563D01*
X95681841Y-74869987D01*
X95672119Y-74855517D01*
X95662527Y-74840146D01*
X95643722Y-74806669D01*
X95625401Y-74769496D01*
X95607536Y-74728566D01*
X95596241Y-74697945D01*
X95585784Y-74664317D01*
X95576340Y-74628090D01*
X95568079Y-74589670D01*
X95561174Y-74549467D01*
X95555798Y-74507886D01*
X95552122Y-74465336D01*
X95550319Y-74422225D01*
X95550560Y-74378959D01*
X95553019Y-74335947D01*
X95557867Y-74293596D01*
X95565276Y-74252314D01*
X95575418Y-74212507D01*
X95588467Y-74174585D01*
X95596135Y-74156457D01*
X95604593Y-74138953D01*
X95613865Y-74122124D01*
X95623970Y-74106021D01*
X95627110Y-74101471D01*
X95630237Y-74097126D01*
X95633350Y-74092980D01*
X95636445Y-74089027D01*
X95639520Y-74085261D01*
X95642573Y-74081676D01*
X95648603Y-74075026D01*
X95654514Y-74069029D01*
X95660288Y-74063637D01*
X95665904Y-74058802D01*
X95671343Y-74054476D01*
X95676586Y-74050612D01*
X95681612Y-74047163D01*
X95686403Y-74044079D01*
X95690938Y-74041314D01*
X95706136Y-74032485D01*
X95712429Y-74028881D01*
X95718722Y-74025729D01*
X95725003Y-74023009D01*
X95731261Y-74020701D01*
X95737486Y-74018785D01*
X95743668Y-74017240D01*
X95749794Y-74016048D01*
X95755856Y-74015186D01*
X95761841Y-74014636D01*
X95767739Y-74014377D01*
X95773539Y-74014390D01*
X95779232Y-74014653D01*
X95784805Y-74015147D01*
X95790248Y-74015851D01*
X95795551Y-74016746D01*
X95800702Y-74017811D01*
X95805691Y-74019026D01*
X95810507Y-74020372D01*
X95819579Y-74023372D01*
X95827830Y-74026651D01*
X95835175Y-74030047D01*
X95841528Y-74033399D01*
X95846803Y-74036546D01*
X95850914Y-74039326D01*
X95853775Y-74041580D01*
X95870960Y-74053506D01*
X95887267Y-74063807D01*
X95902706Y-74072538D01*
X95917284Y-74079755D01*
X95931011Y-74085512D01*
X95943896Y-74089867D01*
X95955946Y-74092874D01*
X95967171Y-74094589D01*
X95977579Y-74095068D01*
X95987178Y-74094367D01*
X95995978Y-74092540D01*
X96003988Y-74089644D01*
X96011215Y-74085734D01*
X96017668Y-74080866D01*
X96023356Y-74075096D01*
X96028288Y-74068478D01*
X96032472Y-74061069D01*
X96035918Y-74052925D01*
X96038632Y-74044100D01*
X96040625Y-74034651D01*
X96041905Y-74024634D01*
X96042480Y-74014103D01*
X96042360Y-74003114D01*
X96041552Y-73991724D01*
X96040066Y-73979987D01*
X96037910Y-73967959D01*
X96035092Y-73955697D01*
X96031622Y-73943255D01*
X96027508Y-73930689D01*
X96022758Y-73918054D01*
X96017382Y-73905407D01*
X96011388Y-73892804D01*
X95997238Y-73873597D01*
X95982769Y-73855510D01*
X95969821Y-73840663D01*
X96311835Y-73840663D01*
X96312881Y-73878767D01*
X96315245Y-73919600D01*
X96323343Y-74008177D01*
X96334950Y-74103841D01*
X96348890Y-74204039D01*
X96379061Y-74407826D01*
X96392937Y-74506310D01*
X96404439Y-74599117D01*
X96431700Y-74856582D01*
X96437044Y-74902167D01*
X96442956Y-74946069D01*
X96450016Y-74991203D01*
X96458803Y-75040486D01*
X96463216Y-75052559D01*
X96471367Y-75062688D01*
X96483004Y-75070971D01*
X96497876Y-75077511D01*
X96515733Y-75082407D01*
X96536324Y-75085760D01*
X96559397Y-75087669D01*
X96584702Y-75088237D01*
X96641001Y-75085746D01*
X96703215Y-75079091D01*
X96769334Y-75069076D01*
X96837351Y-75056503D01*
X96971046Y-75026899D01*
X97088234Y-74996710D01*
X97172852Y-74972362D01*
X97208834Y-74960284D01*
X97212705Y-74958382D01*
X97217905Y-74956409D01*
X97231609Y-74951777D01*
X97239774Y-74948883D01*
X97248586Y-74945446D01*
X97257876Y-74941350D01*
X97267474Y-74936477D01*
X97277210Y-74930708D01*
X97282076Y-74927451D01*
X97286913Y-74923926D01*
X97291700Y-74920119D01*
X97296414Y-74916014D01*
X97301035Y-74911598D01*
X97305542Y-74906854D01*
X97309913Y-74901769D01*
X97314127Y-74896328D01*
X97318163Y-74890517D01*
X97322000Y-74884319D01*
X97325615Y-74877722D01*
X97328989Y-74870709D01*
X97332099Y-74863267D01*
X97334925Y-74855381D01*
X97337679Y-74847568D01*
X97339360Y-74840036D01*
X97340016Y-74832789D01*
X97339695Y-74825830D01*
X97338446Y-74819162D01*
X97336316Y-74812789D01*
X97333353Y-74806714D01*
X97329607Y-74800941D01*
X97325124Y-74795472D01*
X97319952Y-74790312D01*
X97314141Y-74785463D01*
X97307738Y-74780930D01*
X97300791Y-74776715D01*
X97293348Y-74772822D01*
X97277168Y-74766015D01*
X97259583Y-74760535D01*
X97240977Y-74756411D01*
X97221735Y-74753669D01*
X97202242Y-74752336D01*
X97182883Y-74752440D01*
X97164043Y-74754007D01*
X97146107Y-74757064D01*
X97129459Y-74761639D01*
X97087984Y-74773976D01*
X97030973Y-74788342D01*
X96964273Y-74802824D01*
X96929115Y-74809512D01*
X96893727Y-74815513D01*
X96858840Y-74820587D01*
X96825183Y-74824497D01*
X96793487Y-74827002D01*
X96764484Y-74827865D01*
X96738903Y-74826846D01*
X96727624Y-74825557D01*
X96717476Y-74823707D01*
X96708548Y-74821268D01*
X96700932Y-74818209D01*
X96694720Y-74814500D01*
X96690003Y-74810112D01*
X96682836Y-74795019D01*
X96676920Y-74769430D01*
X96672000Y-74734457D01*
X96667822Y-74691211D01*
X96653422Y-74457732D01*
X96644038Y-74320254D01*
X96630479Y-74180805D01*
X96621496Y-74113120D01*
X96610703Y-74048277D01*
X96597847Y-73987387D01*
X96582671Y-73931561D01*
X96579471Y-73912741D01*
X96576110Y-73894667D01*
X96572593Y-73877329D01*
X96568926Y-73860716D01*
X96565116Y-73844819D01*
X96561169Y-73829626D01*
X96557091Y-73815129D01*
X96552889Y-73801315D01*
X96548569Y-73788177D01*
X96544138Y-73775702D01*
X96539601Y-73763881D01*
X96534964Y-73752704D01*
X96530236Y-73742160D01*
X96525420Y-73732240D01*
X96520525Y-73722932D01*
X96515556Y-73714228D01*
X96510519Y-73706115D01*
X96505421Y-73698585D01*
X96500268Y-73691628D01*
X96495067Y-73685232D01*
X96489823Y-73679387D01*
X96484543Y-73674084D01*
X96479234Y-73669312D01*
X96473901Y-73665061D01*
X96468551Y-73661321D01*
X96463191Y-73658082D01*
X96457826Y-73655332D01*
X96452463Y-73653063D01*
X96447108Y-73651263D01*
X96441767Y-73649923D01*
X96436448Y-73649032D01*
X96431155Y-73648581D01*
X96425198Y-73648587D01*
X96419293Y-73649129D01*
X96413449Y-73650192D01*
X96407675Y-73651761D01*
X96401981Y-73653821D01*
X96396376Y-73656358D01*
X96390868Y-73659355D01*
X96385468Y-73662799D01*
X96380184Y-73666675D01*
X96375025Y-73670968D01*
X96365121Y-73680743D01*
X96355828Y-73692006D01*
X96347221Y-73704638D01*
X96339372Y-73718519D01*
X96332355Y-73733530D01*
X96326244Y-73749553D01*
X96321111Y-73766468D01*
X96317030Y-73784155D01*
X96314075Y-73802496D01*
X96312319Y-73821372D01*
X96311835Y-73840663D01*
X95969821Y-73840663D01*
X95967986Y-73838558D01*
X95952891Y-73822754D01*
X95937489Y-73808112D01*
X95921784Y-73794648D01*
X95905780Y-73782375D01*
X95889480Y-73771308D01*
X95872889Y-73761462D01*
X95856011Y-73752850D01*
X95838849Y-73745486D01*
X95821407Y-73739386D01*
X95803690Y-73734563D01*
X95785701Y-73731033D01*
X95767444Y-73728808D01*
X95748924Y-73727904D01*
X95734339Y-73728124D01*
X95719600Y-73729158D01*
X95704707Y-73731013D01*
X95689663Y-73733697D01*
X95674469Y-73737215D01*
X95659127Y-73741575D01*
X95643640Y-73746782D01*
X95628008Y-73752845D01*
X95612234Y-73759768D01*
X95596319Y-73767560D01*
X95580266Y-73776226D01*
X95564076Y-73785774D01*
X95547751Y-73796210D01*
X95531292Y-73807540D01*
X95514702Y-73819771D01*
X95497983Y-73832911D01*
X95475566Y-73856921D01*
X95454272Y-73883441D01*
X95434160Y-73912488D01*
X95415289Y-73944076D01*
X95397718Y-73978220D01*
X95381505Y-74014936D01*
X95366711Y-74054240D01*
X95353394Y-74096146D01*
X95341612Y-74140670D01*
X95331425Y-74187827D01*
X95322891Y-74237632D01*
X95316070Y-74290102D01*
X95311020Y-74345251D01*
X95307801Y-74403094D01*
X95306472Y-74463647D01*
X94253573Y-74463647D01*
X94252295Y-74460184D01*
X94241860Y-74434409D01*
X94228367Y-74404259D01*
X94220676Y-74388613D01*
X94212462Y-74373158D01*
X94203807Y-74358320D01*
X94194790Y-74344529D01*
X94185492Y-74332212D01*
X94180763Y-74326740D01*
X94175994Y-74321797D01*
X94171196Y-74317437D01*
X94166377Y-74313712D01*
X94161549Y-74310677D01*
X94156721Y-74308386D01*
X94214292Y-74249477D01*
X94274036Y-74186124D01*
X94343558Y-74109313D01*
X94414711Y-74025899D01*
X94448353Y-73983858D01*
X94479348Y-73942737D01*
X94506677Y-73903393D01*
X94529323Y-73866683D01*
X94546266Y-73833464D01*
X94552282Y-73818431D01*
X94556490Y-73804592D01*
X94562086Y-73777529D01*
X94565101Y-73751957D01*
X94565364Y-73728311D01*
X94564410Y-73717348D01*
X94562705Y-73707030D01*
X94560226Y-73697413D01*
X94556954Y-73688551D01*
X94552866Y-73680498D01*
X94547941Y-73673310D01*
X94542159Y-73667040D01*
X94535498Y-73661745D01*
X94527936Y-73657477D01*
X94519452Y-73654292D01*
X94510026Y-73652245D01*
X94499636Y-73651390D01*
X94488260Y-73651781D01*
X94475878Y-73653474D01*
X94462469Y-73656523D01*
X94448010Y-73660983D01*
X94432481Y-73666908D01*
X94415861Y-73674353D01*
X94398127Y-73683372D01*
X94379260Y-73694021D01*
X94359238Y-73706354D01*
X94338040Y-73720425D01*
X94315644Y-73736289D01*
X94292029Y-73754001D01*
X94267173Y-73773615D01*
X94241057Y-73795187D01*
X94215037Y-73817281D01*
X94190456Y-73838432D01*
X94167271Y-73858656D01*
X94145445Y-73877969D01*
X94124936Y-73896386D01*
X94105704Y-73913923D01*
X94087709Y-73930597D01*
X94070911Y-73946422D01*
X94055270Y-73961416D01*
X94040746Y-73975593D01*
X94027299Y-73988970D01*
X94014888Y-74001562D01*
X94003474Y-74013385D01*
X93993016Y-74024456D01*
X93983475Y-74034789D01*
X93974809Y-74044402D01*
X93959946Y-74061526D01*
X93948106Y-74075956D01*
X93938968Y-74087818D01*
X93932211Y-74097239D01*
X93927514Y-74104346D01*
X93924556Y-74109265D01*
X93922575Y-74113049D01*
X93933072Y-74062033D01*
X93943688Y-74004893D01*
X93955656Y-73932558D01*
X93967307Y-73849445D01*
X93976970Y-73759976D01*
X93980535Y-73714239D01*
X93982977Y-73668569D01*
X93983679Y-73640049D01*
X97158575Y-73640049D01*
X97158660Y-73652767D01*
X97159638Y-73665841D01*
X97166705Y-73718723D01*
X97176886Y-73774003D01*
X97190920Y-73835513D01*
X97209547Y-73907081D01*
X97263530Y-74095716D01*
X97344743Y-74370552D01*
X97358021Y-74408292D01*
X97372640Y-74443361D01*
X97388494Y-74475853D01*
X97405476Y-74505864D01*
X97423479Y-74533487D01*
X97442398Y-74558817D01*
X97462124Y-74581950D01*
X97482552Y-74602979D01*
X97503575Y-74621999D01*
X97525085Y-74639106D01*
X97546978Y-74654393D01*
X97569144Y-74667955D01*
X97591479Y-74679887D01*
X97613875Y-74690283D01*
X97636225Y-74699239D01*
X97658424Y-74706848D01*
X97680363Y-74713206D01*
X97701937Y-74718406D01*
X97743562Y-74725715D01*
X97782445Y-74729532D01*
X97817731Y-74730613D01*
X97848568Y-74729716D01*
X97874102Y-74727598D01*
X97905846Y-74722727D01*
X97921958Y-74718416D01*
X97937271Y-74713374D01*
X97951810Y-74707634D01*
X97965601Y-74701224D01*
X97978669Y-74694175D01*
X97991040Y-74686517D01*
X98002739Y-74678282D01*
X98013792Y-74669498D01*
X98024224Y-74660197D01*
X98034061Y-74650408D01*
X98043328Y-74640162D01*
X98052050Y-74629490D01*
X98067963Y-74606986D01*
X98082003Y-74583138D01*
X98094375Y-74558190D01*
X98105281Y-74532382D01*
X98114926Y-74505959D01*
X98123514Y-74479162D01*
X98138330Y-74425416D01*
X98151360Y-74373085D01*
X98156795Y-74343383D01*
X98159900Y-74308220D01*
X98160835Y-74268199D01*
X98159760Y-74223922D01*
X98156834Y-74175992D01*
X98152218Y-74125014D01*
X98138552Y-74016321D01*
X98120041Y-73902670D01*
X98097963Y-73788884D01*
X98073594Y-73679790D01*
X98048215Y-73580213D01*
X98039288Y-73557327D01*
X98029733Y-73535737D01*
X98019614Y-73515470D01*
X98008994Y-73496550D01*
X97997937Y-73479004D01*
X97992263Y-73470754D01*
X97986504Y-73462857D01*
X97980667Y-73455316D01*
X97974760Y-73448134D01*
X97968791Y-73441315D01*
X97962768Y-73434861D01*
X97956699Y-73428777D01*
X97950591Y-73423064D01*
X97944453Y-73417727D01*
X97938292Y-73412768D01*
X97932117Y-73408191D01*
X97925935Y-73403999D01*
X97919755Y-73400195D01*
X97913583Y-73396782D01*
X97907429Y-73393763D01*
X97901299Y-73391142D01*
X97895202Y-73388922D01*
X97889146Y-73387106D01*
X97883139Y-73385697D01*
X97877188Y-73384699D01*
X97871301Y-73384114D01*
X97865487Y-73383946D01*
X97856605Y-73384520D01*
X97847947Y-73386123D01*
X97839543Y-73388766D01*
X97831423Y-73392461D01*
X97823616Y-73397220D01*
X97816151Y-73403055D01*
X97809059Y-73409979D01*
X97802369Y-73418001D01*
X97796111Y-73427136D01*
X97790315Y-73437395D01*
X97785009Y-73448789D01*
X97780225Y-73461331D01*
X97775990Y-73475033D01*
X97772336Y-73489906D01*
X97769292Y-73505962D01*
X97766888Y-73523214D01*
X97766975Y-73535614D01*
X97767825Y-73548577D01*
X97769378Y-73562110D01*
X97771577Y-73576216D01*
X97777684Y-73606171D01*
X97785685Y-73638481D01*
X97805523Y-73710331D01*
X97816437Y-73749950D01*
X97827401Y-73792086D01*
X97842786Y-73885030D01*
X97857401Y-73980741D01*
X97869833Y-74076404D01*
X97874789Y-74123338D01*
X97878670Y-74169206D01*
X97881299Y-74213654D01*
X97882500Y-74256331D01*
X97882096Y-74296886D01*
X97879911Y-74334966D01*
X97875768Y-74370220D01*
X97869491Y-74402297D01*
X97860904Y-74430843D01*
X97855688Y-74443683D01*
X97849828Y-74455508D01*
X97844407Y-74462706D01*
X97838641Y-74469348D01*
X97832552Y-74475441D01*
X97826164Y-74480987D01*
X97819499Y-74485993D01*
X97812579Y-74490461D01*
X97805428Y-74494397D01*
X97798067Y-74497805D01*
X97790521Y-74500689D01*
X97782810Y-74503053D01*
X97774958Y-74504903D01*
X97766988Y-74506243D01*
X97758922Y-74507077D01*
X97750783Y-74507409D01*
X97742594Y-74507244D01*
X97734376Y-74506586D01*
X97726154Y-74505440D01*
X97717949Y-74503810D01*
X97709784Y-74501701D01*
X97701681Y-74499116D01*
X97693664Y-74496062D01*
X97685756Y-74492541D01*
X97677978Y-74488558D01*
X97670353Y-74484118D01*
X97662904Y-74479225D01*
X97655654Y-74473884D01*
X97648626Y-74468099D01*
X97641841Y-74461874D01*
X97635323Y-74455214D01*
X97629094Y-74448123D01*
X97623177Y-74440606D01*
X97617595Y-74432667D01*
X97598221Y-74389120D01*
X97579529Y-74339648D01*
X97561490Y-74285258D01*
X97544074Y-74226962D01*
X97510997Y-74102683D01*
X97480065Y-73974883D01*
X97451044Y-73851635D01*
X97423700Y-73741011D01*
X97410585Y-73692956D01*
X97397801Y-73651085D01*
X97385320Y-73616406D01*
X97373113Y-73589928D01*
X97364994Y-73576404D01*
X97356569Y-73564240D01*
X97347876Y-73553404D01*
X97338957Y-73543861D01*
X97329851Y-73535578D01*
X97320599Y-73528523D01*
X97311240Y-73522660D01*
X97301814Y-73517957D01*
X97292362Y-73514381D01*
X97282923Y-73511897D01*
X97273538Y-73510472D01*
X97264246Y-73510072D01*
X97255087Y-73510665D01*
X97246102Y-73512216D01*
X97237330Y-73514693D01*
X97228812Y-73518060D01*
X97220587Y-73522286D01*
X97212696Y-73527337D01*
X97205178Y-73533178D01*
X97198073Y-73539777D01*
X97191423Y-73547099D01*
X97185265Y-73555112D01*
X97179642Y-73563782D01*
X97174591Y-73573076D01*
X97170155Y-73582959D01*
X97166371Y-73593398D01*
X97163282Y-73604360D01*
X97160926Y-73615812D01*
X97159344Y-73627719D01*
X97158575Y-73640049D01*
X93983679Y-73640049D01*
X93984087Y-73623521D01*
X93983656Y-73579644D01*
X93984846Y-73564064D01*
X93985237Y-73548686D01*
X93984860Y-73533530D01*
X93983745Y-73518616D01*
X93981921Y-73503962D01*
X93979417Y-73489589D01*
X93976264Y-73475516D01*
X93972491Y-73461762D01*
X93968128Y-73448347D01*
X93963204Y-73435290D01*
X93957749Y-73422612D01*
X93951793Y-73410330D01*
X93945365Y-73398465D01*
X93938495Y-73387037D01*
X93931212Y-73376064D01*
X93923547Y-73365566D01*
X93915528Y-73355563D01*
X93907186Y-73346074D01*
X93898550Y-73337118D01*
X93893599Y-73332444D01*
X98243285Y-73332444D01*
X98243398Y-73337855D01*
X98244276Y-73348500D01*
X98245793Y-73358930D01*
X98247672Y-73369168D01*
X98251406Y-73389165D01*
X98386940Y-73832790D01*
X98480839Y-74153168D01*
X98512296Y-74269705D01*
X98521398Y-74308524D01*
X98525033Y-74331123D01*
X98525822Y-74334513D01*
X98527228Y-74337686D01*
X98529228Y-74340646D01*
X98531803Y-74343392D01*
X98534932Y-74345927D01*
X98538592Y-74348250D01*
X98547423Y-74352270D01*
X98558127Y-74355461D01*
X98570537Y-74357832D01*
X98584482Y-74359394D01*
X98599793Y-74360155D01*
X98616301Y-74360125D01*
X98633838Y-74359313D01*
X98652233Y-74357730D01*
X98671317Y-74355384D01*
X98690923Y-74352285D01*
X98710879Y-74348442D01*
X98731017Y-74343866D01*
X98751169Y-74338565D01*
X98809103Y-74317971D01*
X98863515Y-74295930D01*
X98914331Y-74272522D01*
X98938368Y-74260330D01*
X98961478Y-74247826D01*
X98983652Y-74235021D01*
X99004881Y-74221923D01*
X99025156Y-74208544D01*
X99044467Y-74194892D01*
X99062805Y-74180978D01*
X99080161Y-74166813D01*
X99096526Y-74152405D01*
X99111890Y-74137765D01*
X99126244Y-74122903D01*
X99139579Y-74107829D01*
X99151886Y-74092552D01*
X99163155Y-74077083D01*
X99173377Y-74061432D01*
X99182543Y-74045609D01*
X99190644Y-74029623D01*
X99197670Y-74013485D01*
X99203613Y-73997205D01*
X99208462Y-73980792D01*
X99212209Y-73964256D01*
X99214845Y-73947608D01*
X99216359Y-73930858D01*
X99216744Y-73914015D01*
X99215989Y-73897090D01*
X99214086Y-73880091D01*
X99208252Y-73846552D01*
X99200707Y-73814138D01*
X99196311Y-73798391D01*
X99191509Y-73782970D01*
X99186306Y-73767890D01*
X99180711Y-73753166D01*
X99174731Y-73738813D01*
X99168371Y-73724847D01*
X99161640Y-73711282D01*
X99154544Y-73698133D01*
X99147091Y-73685416D01*
X99139286Y-73673144D01*
X99131138Y-73661334D01*
X99122653Y-73650000D01*
X99113838Y-73639157D01*
X99104700Y-73628820D01*
X99095246Y-73619004D01*
X99085483Y-73609724D01*
X99075418Y-73600996D01*
X99065058Y-73592833D01*
X99054410Y-73585252D01*
X99043481Y-73578267D01*
X99032278Y-73571892D01*
X99020807Y-73566144D01*
X99009076Y-73561037D01*
X98997093Y-73556586D01*
X98984862Y-73552806D01*
X98972393Y-73549712D01*
X98959691Y-73547319D01*
X98946764Y-73545641D01*
X98953689Y-73531087D01*
X98961316Y-73514025D01*
X98970803Y-73491443D01*
X98981465Y-73464097D01*
X98992615Y-73432738D01*
X99003567Y-73398122D01*
X99008754Y-73379828D01*
X99013634Y-73361001D01*
X99015453Y-73349987D01*
X99016849Y-73338882D01*
X99017830Y-73327705D01*
X99018403Y-73316474D01*
X99018578Y-73305211D01*
X99018363Y-73293933D01*
X99017765Y-73282660D01*
X99016794Y-73271411D01*
X99013763Y-73249064D01*
X99009336Y-73227045D01*
X99003580Y-73205509D01*
X98996561Y-73184610D01*
X98988344Y-73164502D01*
X98978998Y-73145339D01*
X98968587Y-73127276D01*
X98963003Y-73118705D01*
X98957178Y-73110466D01*
X98951120Y-73102580D01*
X98944838Y-73095065D01*
X98938339Y-73087940D01*
X98931632Y-73081225D01*
X98924726Y-73074940D01*
X98917628Y-73069102D01*
X98910347Y-73063732D01*
X98902891Y-73058850D01*
X98896422Y-73056596D01*
X98889896Y-73054486D01*
X98883313Y-73052520D01*
X98876672Y-73050698D01*
X98869972Y-73049019D01*
X98863214Y-73047484D01*
X98849520Y-73044843D01*
X98835585Y-73042774D01*
X98821406Y-73041276D01*
X98806980Y-73040348D01*
X98792304Y-73039988D01*
X98769810Y-73040511D01*
X98746732Y-73042310D01*
X98723055Y-73045382D01*
X98698768Y-73049723D01*
X98673858Y-73055329D01*
X98648313Y-73062198D01*
X98622120Y-73070327D01*
X98595267Y-73079711D01*
X98567741Y-73090349D01*
X98539529Y-73102236D01*
X98510620Y-73115369D01*
X98481001Y-73129745D01*
X98450659Y-73145361D01*
X98419582Y-73162214D01*
X98387758Y-73180300D01*
X98355173Y-73199616D01*
X98342474Y-73206983D01*
X98330732Y-73214227D01*
X98319911Y-73221350D01*
X98309978Y-73228357D01*
X98300897Y-73235249D01*
X98292634Y-73242030D01*
X98285154Y-73248702D01*
X98278423Y-73255269D01*
X98272406Y-73261735D01*
X98267069Y-73268101D01*
X98262376Y-73274370D01*
X98258293Y-73280547D01*
X98254786Y-73286634D01*
X98251819Y-73292633D01*
X98249359Y-73298549D01*
X98247370Y-73304383D01*
X98245818Y-73310139D01*
X98244668Y-73315820D01*
X98243886Y-73321430D01*
X98243436Y-73326970D01*
X98243285Y-73332444D01*
X93893599Y-73332444D01*
X93889650Y-73328716D01*
X93880515Y-73320886D01*
X93871175Y-73313648D01*
X93861660Y-73307022D01*
X93851999Y-73301026D01*
X93842222Y-73295681D01*
X93832358Y-73291006D01*
X93822438Y-73287020D01*
X93812491Y-73283743D01*
X93802546Y-73281194D01*
X93792634Y-73279393D01*
X93782783Y-73278359D01*
X93773023Y-73278112D01*
X93773023Y-73278113D01*
X93764256Y-73278588D01*
X93755610Y-73279745D01*
X93747110Y-73281597D01*
X93738777Y-73284160D01*
X93730632Y-73287449D01*
X93722700Y-73291477D01*
X93718820Y-73293773D01*
X93715001Y-73296259D01*
X93711246Y-73298937D01*
X93707558Y-73301809D01*
X93703940Y-73304878D01*
X93700394Y-73308143D01*
X93696923Y-73311608D01*
X93693530Y-73315275D01*
X93690217Y-73319144D01*
X93686988Y-73323218D01*
X93680792Y-73331989D01*
X93674964Y-73341600D01*
X93669524Y-73352067D01*
X93664497Y-73363404D01*
X93659904Y-73375626D01*
X93645896Y-73425189D01*
X93635681Y-73475387D01*
X93628502Y-73526528D01*
X93623599Y-73578919D01*
X93611586Y-73807136D01*
X93606690Y-73870389D01*
X93599520Y-73936736D01*
X93589317Y-74006485D01*
X93575324Y-74079943D01*
X93556781Y-74157417D01*
X93532930Y-74239215D01*
X93503014Y-74325643D01*
X93466272Y-74417010D01*
X93455808Y-74441078D01*
X93443867Y-74467106D01*
X93416641Y-74523316D01*
X93386769Y-74582188D01*
X93356430Y-74640269D01*
X93273933Y-74795643D01*
X93263791Y-74816561D01*
X93255707Y-74836854D01*
X93249619Y-74856444D01*
X93245466Y-74875250D01*
X93243186Y-74893193D01*
X93242717Y-74910193D01*
X90656614Y-74910193D01*
X90347921Y-74826905D01*
X89894274Y-74713649D01*
X89686424Y-74666562D01*
X89489374Y-74625866D01*
X89301735Y-74591584D01*
X89122121Y-74563738D01*
X88949143Y-74542353D01*
X88781413Y-74527450D01*
X88617544Y-74519052D01*
X88456149Y-74517183D01*
X88295840Y-74521866D01*
X88135228Y-74533122D01*
X87972927Y-74550976D01*
X87807548Y-74575449D01*
X87805752Y-74575688D01*
X87803978Y-74575807D01*
X87802227Y-74575811D01*
X87800504Y-74575701D01*
X87798813Y-74575483D01*
X87797155Y-74575160D01*
X87795536Y-74574736D01*
X87793958Y-74574214D01*
X87792425Y-74573598D01*
X87790941Y-74572892D01*
X87789507Y-74572099D01*
X87788129Y-74571223D01*
X87786809Y-74570269D01*
X87785551Y-74569239D01*
X87784358Y-74568137D01*
X87783234Y-74566967D01*
X87782182Y-74565733D01*
X87781206Y-74564438D01*
X87780308Y-74563086D01*
X87779493Y-74561681D01*
X87778763Y-74560227D01*
X87778122Y-74558726D01*
X87777574Y-74557184D01*
X87777122Y-74555603D01*
X87776770Y-74553987D01*
X87776520Y-74552340D01*
X87776376Y-74550666D01*
X87776342Y-74548969D01*
X87776421Y-74547251D01*
X87776616Y-74545517D01*
X87776931Y-74543770D01*
X87777369Y-74542015D01*
X88020619Y-73687802D01*
X89194525Y-73687802D01*
X89195973Y-73721117D01*
X89200399Y-73750574D01*
X89207590Y-73776290D01*
X89217337Y-73798383D01*
X89229426Y-73816970D01*
X89243646Y-73832169D01*
X89259786Y-73844097D01*
X89277634Y-73852871D01*
X89296979Y-73858609D01*
X89317608Y-73861428D01*
X89339310Y-73861445D01*
X89361874Y-73858779D01*
X89385087Y-73853546D01*
X89408739Y-73845864D01*
X89432618Y-73835850D01*
X89456511Y-73823621D01*
X89480208Y-73809296D01*
X89503496Y-73792991D01*
X89526165Y-73774823D01*
X89548002Y-73754911D01*
X89568796Y-73733371D01*
X89588335Y-73710321D01*
X89606408Y-73685878D01*
X89622802Y-73660160D01*
X89637307Y-73633285D01*
X89700320Y-73512555D01*
X89755796Y-73404394D01*
X89810320Y-73296613D01*
X90261920Y-73469729D01*
X90239093Y-73593822D01*
X90215557Y-73715025D01*
X90188385Y-73845520D01*
X90176686Y-73885452D01*
X90168085Y-73922528D01*
X90162425Y-73956790D01*
X90159551Y-73988276D01*
X90159305Y-74017028D01*
X90161531Y-74043087D01*
X90166072Y-74066492D01*
X90172773Y-74087284D01*
X90181477Y-74105505D01*
X90192026Y-74121194D01*
X90204265Y-74134391D01*
X90218038Y-74145138D01*
X90233187Y-74153475D01*
X90249556Y-74159442D01*
X90266989Y-74163081D01*
X90285329Y-74164430D01*
X90304420Y-74163532D01*
X90324105Y-74160426D01*
X90327873Y-74159438D01*
X90835163Y-74159438D01*
X90835246Y-74178269D01*
X90837187Y-74196076D01*
X90840916Y-74212718D01*
X90846366Y-74228054D01*
X90853470Y-74241946D01*
X90862161Y-74254252D01*
X90872370Y-74264833D01*
X90884029Y-74273547D01*
X90897072Y-74280255D01*
X90911431Y-74284817D01*
X90927038Y-74287091D01*
X90943825Y-74286939D01*
X90961724Y-74284219D01*
X90980669Y-74278791D01*
X91000591Y-74270516D01*
X91021423Y-74259252D01*
X91043098Y-74244860D01*
X91065547Y-74227199D01*
X91088702Y-74206129D01*
X91112498Y-74181510D01*
X91136865Y-74153201D01*
X91161736Y-74121063D01*
X91187043Y-74084954D01*
X91212719Y-74044735D01*
X91238697Y-74000265D01*
X91264908Y-73951405D01*
X91621992Y-73991299D01*
X91589653Y-74087887D01*
X91557095Y-74189446D01*
X91520603Y-74309471D01*
X91511880Y-74334525D01*
X91505296Y-74358240D01*
X91500760Y-74380601D01*
X91498180Y-74401594D01*
X91497464Y-74421205D01*
X91498521Y-74439421D01*
X91501260Y-74456228D01*
X91505590Y-74471612D01*
X91511418Y-74485559D01*
X91518654Y-74498055D01*
X91527206Y-74509087D01*
X91536982Y-74518640D01*
X91547892Y-74526701D01*
X91559844Y-74533255D01*
X91572746Y-74538290D01*
X91586507Y-74541790D01*
X91601035Y-74543743D01*
X91616240Y-74544134D01*
X91632029Y-74542950D01*
X91648312Y-74540177D01*
X91664997Y-74535800D01*
X91681992Y-74529807D01*
X91699206Y-74522182D01*
X91716547Y-74512913D01*
X91733925Y-74501986D01*
X91751248Y-74489386D01*
X91768423Y-74475100D01*
X91785361Y-74459113D01*
X91801970Y-74441413D01*
X91818157Y-74421985D01*
X91833832Y-74400815D01*
X91848903Y-74377890D01*
X91859808Y-74354662D01*
X91874795Y-74311569D01*
X91912111Y-74178582D01*
X92263726Y-74178582D01*
X92264871Y-74234907D01*
X92268377Y-74292949D01*
X92274671Y-74351902D01*
X92284179Y-74410964D01*
X92297329Y-74469332D01*
X92314548Y-74526203D01*
X92336263Y-74580772D01*
X92347693Y-74605606D01*
X92360026Y-74628894D01*
X92373191Y-74650688D01*
X92387114Y-74671038D01*
X92401724Y-74689996D01*
X92416949Y-74707613D01*
X92432716Y-74723939D01*
X92448952Y-74739026D01*
X92465586Y-74752925D01*
X92482544Y-74765686D01*
X92499756Y-74777361D01*
X92517148Y-74788001D01*
X92534649Y-74797656D01*
X92552185Y-74806378D01*
X92569684Y-74814217D01*
X92587075Y-74821225D01*
X92621242Y-74832951D01*
X92654105Y-74841962D01*
X92685088Y-74848669D01*
X92713610Y-74853477D01*
X92760962Y-74859032D01*
X92791533Y-74861892D01*
X92820442Y-74852488D01*
X92846910Y-74842456D01*
X92871026Y-74831853D01*
X92892879Y-74820740D01*
X92912559Y-74809176D01*
X92930153Y-74797220D01*
X92945752Y-74784932D01*
X92959445Y-74772372D01*
X92971321Y-74759599D01*
X92981469Y-74746673D01*
X92989978Y-74733652D01*
X92996938Y-74720597D01*
X93002437Y-74707568D01*
X93006565Y-74694623D01*
X93009411Y-74681822D01*
X93011064Y-74669224D01*
X93011614Y-74656890D01*
X93011149Y-74644879D01*
X93009758Y-74633250D01*
X93007532Y-74622062D01*
X93004559Y-74611376D01*
X93000928Y-74601250D01*
X92996728Y-74591745D01*
X92992049Y-74582919D01*
X92986980Y-74574833D01*
X92981610Y-74567545D01*
X92976028Y-74561116D01*
X92970323Y-74555604D01*
X92964585Y-74551070D01*
X92958902Y-74547573D01*
X92953364Y-74545172D01*
X92948061Y-74543927D01*
X92920713Y-74543118D01*
X92891533Y-74542677D01*
X92861026Y-74541557D01*
X92845434Y-74540417D01*
X92829700Y-74538716D01*
X92813888Y-74536323D01*
X92798060Y-74533109D01*
X92782280Y-74528942D01*
X92766612Y-74523692D01*
X92751119Y-74517229D01*
X92743457Y-74513501D01*
X92735863Y-74509421D01*
X92728344Y-74504973D01*
X92720909Y-74500140D01*
X92713564Y-74494905D01*
X92706319Y-74489253D01*
X92694567Y-74478959D01*
X92683686Y-74467772D01*
X92673649Y-74455743D01*
X92664429Y-74442926D01*
X92655998Y-74429372D01*
X92648329Y-74415132D01*
X92641396Y-74400260D01*
X92635172Y-74384807D01*
X92624738Y-74352367D01*
X92616811Y-74318228D01*
X92611175Y-74282808D01*
X92607611Y-74246523D01*
X92605902Y-74209788D01*
X92605833Y-74173022D01*
X92607185Y-74136640D01*
X92609741Y-74101058D01*
X92613284Y-74066694D01*
X92617598Y-74033964D01*
X92627667Y-73975073D01*
X92656380Y-73875296D01*
X92673572Y-73820112D01*
X92692668Y-73763025D01*
X92713678Y-73705252D01*
X92736614Y-73648013D01*
X92761485Y-73592528D01*
X92788302Y-73540015D01*
X92802444Y-73515255D01*
X92817076Y-73491695D01*
X92832200Y-73469488D01*
X92847817Y-73448786D01*
X92863928Y-73429741D01*
X92880535Y-73412507D01*
X92897638Y-73397236D01*
X92915240Y-73384079D01*
X92933342Y-73373189D01*
X92951944Y-73364719D01*
X92971049Y-73358822D01*
X92990657Y-73355648D01*
X93010770Y-73355352D01*
X93031390Y-73358085D01*
X93052516Y-73364000D01*
X93074151Y-73373249D01*
X93087164Y-73389279D01*
X93099927Y-73403827D01*
X93112432Y-73416943D01*
X93124675Y-73428678D01*
X93136650Y-73439080D01*
X93148351Y-73448200D01*
X93159773Y-73456086D01*
X93170909Y-73462789D01*
X93181754Y-73468358D01*
X93192301Y-73472843D01*
X93202546Y-73476293D01*
X93212483Y-73478759D01*
X93222105Y-73480289D01*
X93231407Y-73480934D01*
X93240384Y-73480742D01*
X93249029Y-73479765D01*
X93257336Y-73478050D01*
X93265300Y-73475649D01*
X93272916Y-73472610D01*
X93280177Y-73468984D01*
X93287077Y-73464819D01*
X93293612Y-73460166D01*
X93299774Y-73455074D01*
X93305559Y-73449593D01*
X93310960Y-73443773D01*
X93315972Y-73437662D01*
X93320589Y-73431312D01*
X93324805Y-73424770D01*
X93328614Y-73418088D01*
X93332012Y-73411314D01*
X93334991Y-73404499D01*
X93337546Y-73397692D01*
X93341269Y-73385740D01*
X93344239Y-73373013D01*
X93346440Y-73359587D01*
X93347858Y-73345540D01*
X93348478Y-73330950D01*
X93348285Y-73315892D01*
X93347264Y-73300446D01*
X93345401Y-73284687D01*
X93342681Y-73268693D01*
X93339089Y-73252542D01*
X93334610Y-73236310D01*
X93329229Y-73220075D01*
X93322932Y-73203914D01*
X93315704Y-73187905D01*
X93307530Y-73172124D01*
X93298395Y-73156649D01*
X93288285Y-73141557D01*
X93277184Y-73126926D01*
X93265078Y-73112832D01*
X93251952Y-73099353D01*
X93237792Y-73086566D01*
X93222582Y-73074549D01*
X93206308Y-73063378D01*
X93188954Y-73053131D01*
X93170507Y-73043885D01*
X93150951Y-73035718D01*
X93130271Y-73028706D01*
X93108454Y-73022927D01*
X93085483Y-73018458D01*
X93061344Y-73015376D01*
X93036023Y-73013759D01*
X93009504Y-73013684D01*
X93002229Y-73013935D01*
X92994870Y-73014305D01*
X92987425Y-73014794D01*
X92979894Y-73015403D01*
X92972276Y-73016134D01*
X92964569Y-73016986D01*
X92956773Y-73017960D01*
X92948887Y-73019058D01*
X92903871Y-73021843D01*
X92860706Y-73029325D01*
X92819364Y-73041190D01*
X92779817Y-73057126D01*
X92742038Y-73076817D01*
X92705999Y-73099950D01*
X92671673Y-73126211D01*
X92639031Y-73155287D01*
X92608047Y-73186863D01*
X92578692Y-73220626D01*
X92550939Y-73256261D01*
X92524761Y-73293456D01*
X92500128Y-73331895D01*
X92477015Y-73371266D01*
X92435235Y-73451545D01*
X92399198Y-73531783D01*
X92368684Y-73609469D01*
X92343471Y-73682092D01*
X92323339Y-73747142D01*
X92297429Y-73844475D01*
X92289186Y-73881383D01*
X92278463Y-73950799D01*
X92270184Y-74027930D01*
X92264514Y-74124775D01*
X92263726Y-74178582D01*
X91912111Y-74178582D01*
X91913414Y-74173941D01*
X91957552Y-73981315D01*
X92000000Y-73750000D01*
X92018339Y-73624931D01*
X92033552Y-73496305D01*
X92044738Y-73366162D01*
X92050997Y-73236540D01*
X92051428Y-73109478D01*
X92045129Y-72987014D01*
X92031200Y-72871187D01*
X92008738Y-72764035D01*
X92000332Y-72748509D01*
X91991650Y-72733029D01*
X91982736Y-72717722D01*
X91973631Y-72702714D01*
X91964377Y-72688131D01*
X91955016Y-72674098D01*
X91945591Y-72660742D01*
X91936144Y-72648188D01*
X91926717Y-72636562D01*
X91917351Y-72625990D01*
X91908090Y-72616599D01*
X91903512Y-72612385D01*
X91898975Y-72608513D01*
X91894486Y-72604999D01*
X91890049Y-72601859D01*
X91885669Y-72599108D01*
X91881352Y-72596763D01*
X91877104Y-72594838D01*
X91872929Y-72593350D01*
X91868832Y-72592314D01*
X91864820Y-72591746D01*
X91860199Y-72591286D01*
X91855535Y-72590892D01*
X91850823Y-72590577D01*
X91846061Y-72590351D01*
X91827797Y-72590310D01*
X91808961Y-72591628D01*
X91789617Y-72594476D01*
X91769825Y-72599025D01*
X91749646Y-72605445D01*
X91729143Y-72613908D01*
X91708376Y-72624584D01*
X91687408Y-72637645D01*
X91666300Y-72653261D01*
X91655712Y-72662080D01*
X91645112Y-72671603D01*
X91634508Y-72681849D01*
X91623907Y-72692842D01*
X91613318Y-72704601D01*
X91602747Y-72717149D01*
X91592202Y-72730506D01*
X91581692Y-72744695D01*
X91571223Y-72759736D01*
X91560804Y-72775650D01*
X91550442Y-72792460D01*
X91540145Y-72810187D01*
X91519776Y-72848475D01*
X91375682Y-73123198D01*
X91198617Y-73451379D01*
X91021548Y-73774188D01*
X90877438Y-74032795D01*
X90864962Y-74054827D01*
X90854748Y-74076676D01*
X90846728Y-74098202D01*
X90840836Y-74119264D01*
X90837004Y-74139723D01*
X90835163Y-74159438D01*
X90327873Y-74159438D01*
X90344227Y-74155153D01*
X90364632Y-74147754D01*
X90385160Y-74138268D01*
X90405658Y-74126737D01*
X90425967Y-74113201D01*
X90445931Y-74097701D01*
X90465394Y-74080277D01*
X90484200Y-74060969D01*
X90502191Y-74039819D01*
X90519212Y-74016866D01*
X90535106Y-73992152D01*
X90549716Y-73965716D01*
X90562886Y-73937599D01*
X90574459Y-73907842D01*
X90745797Y-73364836D01*
X90800826Y-73180088D01*
X90852339Y-72995952D01*
X90896139Y-72822532D01*
X90928029Y-72669933D01*
X90936017Y-72647802D01*
X90941563Y-72625898D01*
X90944780Y-72604326D01*
X90945782Y-72583194D01*
X90944683Y-72562605D01*
X90941597Y-72542667D01*
X90936637Y-72523485D01*
X90929917Y-72505166D01*
X90921550Y-72487815D01*
X90911652Y-72471537D01*
X90900334Y-72456440D01*
X90887711Y-72442629D01*
X90873897Y-72430209D01*
X90859005Y-72419287D01*
X90843149Y-72409969D01*
X90826443Y-72402360D01*
X90809001Y-72396567D01*
X90790936Y-72392695D01*
X90772361Y-72390851D01*
X90753392Y-72391139D01*
X90734141Y-72393667D01*
X90714722Y-72398540D01*
X90695249Y-72405864D01*
X90675836Y-72415745D01*
X90656596Y-72428289D01*
X90637643Y-72443601D01*
X90619091Y-72461788D01*
X90601053Y-72482955D01*
X90583644Y-72507209D01*
X90566976Y-72534656D01*
X90551164Y-72565400D01*
X90536322Y-72599549D01*
X90520460Y-72627820D01*
X90503673Y-72659323D01*
X90468399Y-72729237D01*
X90432650Y-72803710D01*
X90398578Y-72877159D01*
X90344066Y-72998659D01*
X90322071Y-73049083D01*
X90135142Y-72978361D01*
X90066179Y-72951299D01*
X90005693Y-72926588D01*
X89962367Y-72907281D01*
X89949853Y-72900608D01*
X89946358Y-72898183D01*
X89944885Y-72896430D01*
X89943694Y-72892698D01*
X89942837Y-72888627D01*
X89942047Y-72879517D01*
X89942365Y-72869195D01*
X89943638Y-72857761D01*
X89945714Y-72845309D01*
X89948440Y-72831938D01*
X89955236Y-72802826D01*
X89962808Y-72771200D01*
X89969939Y-72737837D01*
X89972959Y-72720746D01*
X89975412Y-72703512D01*
X89977147Y-72686232D01*
X89978010Y-72669003D01*
X89976487Y-72636225D01*
X89974328Y-72604704D01*
X89971554Y-72574423D01*
X89968189Y-72545368D01*
X89964255Y-72517522D01*
X89959774Y-72490872D01*
X89954768Y-72465401D01*
X89949260Y-72441093D01*
X89943272Y-72417935D01*
X89936827Y-72395910D01*
X89929946Y-72375003D01*
X89922653Y-72355198D01*
X89914969Y-72336481D01*
X89906918Y-72318836D01*
X89898520Y-72302248D01*
X89889799Y-72286701D01*
X89880778Y-72272180D01*
X89871477Y-72258670D01*
X89861920Y-72246155D01*
X89852130Y-72234621D01*
X89842128Y-72224051D01*
X89831936Y-72214430D01*
X89821578Y-72205744D01*
X89811076Y-72197976D01*
X89800451Y-72191112D01*
X89789726Y-72185135D01*
X89778925Y-72180032D01*
X89768068Y-72175786D01*
X89757178Y-72172382D01*
X89746278Y-72169805D01*
X89735390Y-72168039D01*
X89724537Y-72167069D01*
X89716134Y-72166856D01*
X89707775Y-72167107D01*
X89699473Y-72167816D01*
X89691236Y-72168976D01*
X89683076Y-72170579D01*
X89675003Y-72172618D01*
X89667028Y-72175086D01*
X89659160Y-72177976D01*
X89651412Y-72181280D01*
X89643792Y-72184992D01*
X89636312Y-72189104D01*
X89628982Y-72193608D01*
X89621813Y-72198498D01*
X89614814Y-72203766D01*
X89607998Y-72209406D01*
X89601373Y-72215409D01*
X89594951Y-72221769D01*
X89588743Y-72228479D01*
X89582757Y-72235531D01*
X89577006Y-72242918D01*
X89571500Y-72250633D01*
X89566249Y-72258668D01*
X89561263Y-72267017D01*
X89556553Y-72275672D01*
X89552131Y-72284626D01*
X89548005Y-72293872D01*
X89544187Y-72303402D01*
X89540687Y-72313210D01*
X89537516Y-72323287D01*
X89534683Y-72333628D01*
X89532201Y-72344224D01*
X89530079Y-72355068D01*
X89496986Y-72530260D01*
X89474659Y-72636669D01*
X89447823Y-72754949D01*
X89415985Y-72884597D01*
X89378654Y-73025109D01*
X89335339Y-73175982D01*
X89285546Y-73336714D01*
X89260224Y-73400321D01*
X89239360Y-73459249D01*
X89222745Y-73513615D01*
X89210165Y-73563536D01*
X89201410Y-73609129D01*
X89196267Y-73650512D01*
X89194525Y-73687802D01*
X88020619Y-73687802D01*
X88122981Y-73328342D01*
X88794826Y-71790193D01*
X88795184Y-71789401D01*
X88795558Y-71788630D01*
X88795948Y-71787879D01*
X88796355Y-71787149D01*
X88796782Y-71786440D01*
X88797228Y-71785750D01*
X88797696Y-71785080D01*
X88798186Y-71784430D01*
X88798699Y-71783800D01*
X88799237Y-71783188D01*
X88799800Y-71782595D01*
X88800390Y-71782022D01*
X88801009Y-71781466D01*
X88801656Y-71780929D01*
X88802334Y-71780411D01*
X88803043Y-71779910D01*
X88842765Y-71755252D01*
X88922286Y-71713318D01*
X89042881Y-71660937D01*
X89118978Y-71632964D01*
X89205821Y-71604939D01*
X89303569Y-71577718D01*
X89412381Y-71552154D01*
X89532417Y-71529101D01*
X89663835Y-71509412D01*
X89806795Y-71493941D01*
X89961456Y-71483542D01*
X90127977Y-71479069D01*
X90306517Y-71481375D01*
G37*
D10*
X80375000Y-64750000D02*
X108125000Y-64750000D01*
X108125000Y-79750000D01*
X80375000Y-79750000D01*
X80375000Y-64750000D01*
D11*
G36*
X98875431Y-73744813D02*
G01*
X98886843Y-73745447D01*
X98898080Y-73746741D01*
X98909111Y-73748735D01*
X98914538Y-73750006D01*
X98919902Y-73751467D01*
X98925198Y-73753122D01*
X98930422Y-73754977D01*
X98935570Y-73757035D01*
X98940638Y-73759302D01*
X98945623Y-73761783D01*
X98950520Y-73764482D01*
X98955324Y-73767404D01*
X98960033Y-73770555D01*
X98964642Y-73773939D01*
X98969147Y-73777560D01*
X98973544Y-73781425D01*
X98977828Y-73785537D01*
X98981997Y-73789901D01*
X98986046Y-73794522D01*
X98989971Y-73799406D01*
X98993768Y-73804556D01*
X98997432Y-73809978D01*
X99000961Y-73815677D01*
X99004349Y-73821657D01*
X99007594Y-73827923D01*
X99010690Y-73834481D01*
X99013634Y-73841334D01*
X99020515Y-73861318D01*
X99024601Y-73880528D01*
X99026063Y-73898978D01*
X99025069Y-73916681D01*
X99021789Y-73933652D01*
X99016392Y-73949902D01*
X99009046Y-73965446D01*
X98999922Y-73980298D01*
X98989189Y-73994469D01*
X98977016Y-74007975D01*
X98963571Y-74020828D01*
X98949025Y-74033042D01*
X98933547Y-74044630D01*
X98917305Y-74055605D01*
X98883209Y-74075773D01*
X98848092Y-74093652D01*
X98813307Y-74109350D01*
X98750150Y-74134631D01*
X98704571Y-74152476D01*
X98691757Y-74158878D01*
X98688437Y-74161496D01*
X98687400Y-74163743D01*
X98610144Y-73841334D01*
X98633158Y-73826662D01*
X98659242Y-73811562D01*
X98692659Y-73794165D01*
X98711558Y-73785280D01*
X98731620Y-73776631D01*
X98752620Y-73768487D01*
X98774335Y-73761119D01*
X98796542Y-73754797D01*
X98819017Y-73749790D01*
X98841536Y-73746368D01*
X98863876Y-73744802D01*
X98875431Y-73744813D01*
G37*
G36*
X88874750Y-71637475D02*
G01*
X88879394Y-71637771D01*
X88884182Y-71638278D01*
X88888854Y-71639048D01*
X88893158Y-71640116D01*
X88897104Y-71641469D01*
X88900704Y-71643094D01*
X88903967Y-71644976D01*
X88906905Y-71647102D01*
X88909528Y-71649459D01*
X88911846Y-71652033D01*
X88913870Y-71654810D01*
X88915611Y-71657777D01*
X88917080Y-71660921D01*
X88918286Y-71664227D01*
X88919241Y-71667682D01*
X88919955Y-71671273D01*
X88920439Y-71674986D01*
X88920703Y-71678807D01*
X88920758Y-71682723D01*
X88920615Y-71686721D01*
X88920284Y-71690786D01*
X88919775Y-71694906D01*
X88919100Y-71699066D01*
X88918269Y-71703254D01*
X88916181Y-71711655D01*
X88913596Y-71720003D01*
X88910598Y-71728187D01*
X88907273Y-71736100D01*
X88903706Y-71743633D01*
X88810017Y-71941490D01*
X88714578Y-72152120D01*
X88596245Y-72424086D01*
X88462143Y-72747542D01*
X88391406Y-72925500D01*
X88319400Y-73112638D01*
X88247015Y-73307724D01*
X88175141Y-73509528D01*
X88104671Y-73716818D01*
X88036494Y-73928363D01*
X87974151Y-74142241D01*
X87920186Y-74356148D01*
X87873999Y-74568287D01*
X87834987Y-74776860D01*
X87802551Y-74980070D01*
X87776089Y-75176119D01*
X87738682Y-75539544D01*
X87717958Y-75852753D01*
X87709109Y-76101366D01*
X87707800Y-76347279D01*
X87316262Y-76347279D01*
X87318453Y-76256553D01*
X87330890Y-76081594D01*
X87356362Y-75834285D01*
X87397661Y-75526507D01*
X87425118Y-75353655D01*
X87457578Y-75170143D01*
X87495390Y-74977455D01*
X87538903Y-74777076D01*
X87588466Y-74570492D01*
X87644428Y-74359189D01*
X87707137Y-74144651D01*
X87776943Y-73928363D01*
X87931486Y-73500907D01*
X88095571Y-73092583D01*
X88260706Y-72714441D01*
X88418399Y-72377533D01*
X88560159Y-72092909D01*
X88677494Y-71871621D01*
X88761912Y-71724720D01*
X88804921Y-71663257D01*
X88806201Y-71661914D01*
X88807794Y-71660388D01*
X88810016Y-71658429D01*
X88812864Y-71656139D01*
X88816332Y-71653619D01*
X88818298Y-71652306D01*
X88820417Y-71650973D01*
X88822689Y-71649634D01*
X88825114Y-71648301D01*
X88827690Y-71646988D01*
X88830417Y-71645707D01*
X88833296Y-71644471D01*
X88836324Y-71643292D01*
X88839503Y-71642183D01*
X88842830Y-71641158D01*
X88846306Y-71640228D01*
X88849930Y-71639407D01*
X88853701Y-71638707D01*
X88857619Y-71638141D01*
X88861684Y-71637722D01*
X88865894Y-71637463D01*
X88870250Y-71637376D01*
X88874750Y-71637475D01*
G37*
G36*
X91757783Y-73049975D02*
G01*
X91758806Y-73050069D01*
X91759813Y-73050220D01*
X91766820Y-73053074D01*
X91772903Y-73058840D01*
X91778106Y-73067321D01*
X91782477Y-73078320D01*
X91786061Y-73091640D01*
X91788904Y-73107085D01*
X91792552Y-73143559D01*
X91793790Y-73186166D01*
X91792987Y-73233333D01*
X91790511Y-73283484D01*
X91786731Y-73335043D01*
X91776732Y-73436086D01*
X91765940Y-73523861D01*
X91753767Y-73609203D01*
X91401748Y-73549104D01*
X91741572Y-73054767D01*
X91742850Y-73054032D01*
X91744110Y-73053359D01*
X91745350Y-73052749D01*
X91746572Y-73052199D01*
X91747775Y-73051710D01*
X91748959Y-73051282D01*
X91750125Y-73050914D01*
X91751273Y-73050605D01*
X91752402Y-73050356D01*
X91753514Y-73050164D01*
X91754607Y-73050031D01*
X91755683Y-73049956D01*
X91756742Y-73049937D01*
X91757783Y-73049975D01*
G37*
G36*
X98727886Y-73278131D02*
G01*
X98737570Y-73279038D01*
X98742269Y-73279731D01*
X98746870Y-73280590D01*
X98751369Y-73281618D01*
X98755765Y-73282821D01*
X98760054Y-73284202D01*
X98764234Y-73285766D01*
X98768303Y-73287518D01*
X98772258Y-73289460D01*
X98776097Y-73291599D01*
X98779815Y-73293937D01*
X98783413Y-73296480D01*
X98786885Y-73299232D01*
X98790231Y-73302196D01*
X98793447Y-73305378D01*
X98796531Y-73308782D01*
X98799479Y-73312411D01*
X98802291Y-73316271D01*
X98804962Y-73320366D01*
X98807491Y-73324699D01*
X98809875Y-73329276D01*
X98812111Y-73334100D01*
X98814197Y-73339177D01*
X98816130Y-73344509D01*
X98817907Y-73350102D01*
X98819526Y-73355960D01*
X98820984Y-73362087D01*
X98823220Y-73376290D01*
X98823701Y-73390255D01*
X98822537Y-73403968D01*
X98819840Y-73417415D01*
X98815719Y-73430582D01*
X98810284Y-73443455D01*
X98803647Y-73456020D01*
X98795918Y-73468262D01*
X98787206Y-73480169D01*
X98777624Y-73491727D01*
X98767280Y-73502920D01*
X98756286Y-73513736D01*
X98744751Y-73524160D01*
X98732787Y-73534178D01*
X98708011Y-73552942D01*
X98682841Y-73569917D01*
X98658161Y-73584990D01*
X98634854Y-73598050D01*
X98613804Y-73608986D01*
X98582006Y-73624038D01*
X98569837Y-73629254D01*
X98452376Y-73354180D01*
X98585643Y-73306226D01*
X98618052Y-73295875D01*
X98633878Y-73291347D01*
X98649392Y-73287349D01*
X98664550Y-73283953D01*
X98679309Y-73281233D01*
X98693624Y-73279262D01*
X98707451Y-73278112D01*
X98717840Y-73277834D01*
X98727886Y-73278131D01*
G37*
D12*
X48483082Y-48979400D02*
X48697368Y-49050828D01*
X48697368Y-49050828D02*
X49054510Y-49050828D01*
X49054510Y-49050828D02*
X49197368Y-48979400D01*
X49197368Y-48979400D02*
X49268796Y-48907971D01*
X49268796Y-48907971D02*
X49340225Y-48765114D01*
X49340225Y-48765114D02*
X49340225Y-48622257D01*
X49340225Y-48622257D02*
X49268796Y-48479400D01*
X49268796Y-48479400D02*
X49197368Y-48407971D01*
X49197368Y-48407971D02*
X49054510Y-48336542D01*
X49054510Y-48336542D02*
X48768796Y-48265114D01*
X48768796Y-48265114D02*
X48625939Y-48193685D01*
X48625939Y-48193685D02*
X48554510Y-48122257D01*
X48554510Y-48122257D02*
X48483082Y-47979400D01*
X48483082Y-47979400D02*
X48483082Y-47836542D01*
X48483082Y-47836542D02*
X48554510Y-47693685D01*
X48554510Y-47693685D02*
X48625939Y-47622257D01*
X48625939Y-47622257D02*
X48768796Y-47550828D01*
X48768796Y-47550828D02*
X49125939Y-47550828D01*
X49125939Y-47550828D02*
X49340225Y-47622257D01*
X50840224Y-48907971D02*
X50768796Y-48979400D01*
X50768796Y-48979400D02*
X50554510Y-49050828D01*
X50554510Y-49050828D02*
X50411653Y-49050828D01*
X50411653Y-49050828D02*
X50197367Y-48979400D01*
X50197367Y-48979400D02*
X50054510Y-48836542D01*
X50054510Y-48836542D02*
X49983081Y-48693685D01*
X49983081Y-48693685D02*
X49911653Y-48407971D01*
X49911653Y-48407971D02*
X49911653Y-48193685D01*
X49911653Y-48193685D02*
X49983081Y-47907971D01*
X49983081Y-47907971D02*
X50054510Y-47765114D01*
X50054510Y-47765114D02*
X50197367Y-47622257D01*
X50197367Y-47622257D02*
X50411653Y-47550828D01*
X50411653Y-47550828D02*
X50554510Y-47550828D01*
X50554510Y-47550828D02*
X50768796Y-47622257D01*
X50768796Y-47622257D02*
X50840224Y-47693685D01*
X52340224Y-49050828D02*
X51840224Y-48336542D01*
X51483081Y-49050828D02*
X51483081Y-47550828D01*
X51483081Y-47550828D02*
X52054510Y-47550828D01*
X52054510Y-47550828D02*
X52197367Y-47622257D01*
X52197367Y-47622257D02*
X52268796Y-47693685D01*
X52268796Y-47693685D02*
X52340224Y-47836542D01*
X52340224Y-47836542D02*
X52340224Y-48050828D01*
X52340224Y-48050828D02*
X52268796Y-48193685D01*
X52268796Y-48193685D02*
X52197367Y-48265114D01*
X52197367Y-48265114D02*
X52054510Y-48336542D01*
X52054510Y-48336542D02*
X51483081Y-48336542D01*
X52983081Y-48265114D02*
X53483081Y-48265114D01*
X53697367Y-49050828D02*
X52983081Y-49050828D01*
X52983081Y-49050828D02*
X52983081Y-47550828D01*
X52983081Y-47550828D02*
X53697367Y-47550828D01*
X54340224Y-48265114D02*
X54840224Y-48265114D01*
X55054510Y-49050828D02*
X54340224Y-49050828D01*
X54340224Y-49050828D02*
X54340224Y-47550828D01*
X54340224Y-47550828D02*
X55054510Y-47550828D01*
X55697367Y-49050828D02*
X55697367Y-47550828D01*
X55697367Y-47550828D02*
X56554510Y-49050828D01*
X56554510Y-49050828D02*
X56554510Y-47550828D01*
X58411653Y-49050828D02*
X58411653Y-47550828D01*
X58411653Y-48265114D02*
X59268796Y-48265114D01*
X59268796Y-49050828D02*
X59268796Y-47550828D01*
X59983082Y-48265114D02*
X60483082Y-48265114D01*
X60697368Y-49050828D02*
X59983082Y-49050828D01*
X59983082Y-49050828D02*
X59983082Y-47550828D01*
X59983082Y-47550828D02*
X60697368Y-47550828D01*
X62197368Y-49050828D02*
X61697368Y-48336542D01*
X61340225Y-49050828D02*
X61340225Y-47550828D01*
X61340225Y-47550828D02*
X61911654Y-47550828D01*
X61911654Y-47550828D02*
X62054511Y-47622257D01*
X62054511Y-47622257D02*
X62125940Y-47693685D01*
X62125940Y-47693685D02*
X62197368Y-47836542D01*
X62197368Y-47836542D02*
X62197368Y-48050828D01*
X62197368Y-48050828D02*
X62125940Y-48193685D01*
X62125940Y-48193685D02*
X62054511Y-48265114D01*
X62054511Y-48265114D02*
X61911654Y-48336542D01*
X61911654Y-48336542D02*
X61340225Y-48336542D01*
X62840225Y-48265114D02*
X63340225Y-48265114D01*
X63554511Y-49050828D02*
X62840225Y-49050828D01*
X62840225Y-49050828D02*
X62840225Y-47550828D01*
X62840225Y-47550828D02*
X63554511Y-47550828D01*
X54804510Y-68265114D02*
X55304510Y-68265114D01*
X55518796Y-69050828D02*
X54804510Y-69050828D01*
X54804510Y-69050828D02*
X54804510Y-67550828D01*
X54804510Y-67550828D02*
X55518796Y-67550828D01*
X56090225Y-68979400D02*
X56304511Y-69050828D01*
X56304511Y-69050828D02*
X56661653Y-69050828D01*
X56661653Y-69050828D02*
X56804511Y-68979400D01*
X56804511Y-68979400D02*
X56875939Y-68907971D01*
X56875939Y-68907971D02*
X56947368Y-68765114D01*
X56947368Y-68765114D02*
X56947368Y-68622257D01*
X56947368Y-68622257D02*
X56875939Y-68479400D01*
X56875939Y-68479400D02*
X56804511Y-68407971D01*
X56804511Y-68407971D02*
X56661653Y-68336542D01*
X56661653Y-68336542D02*
X56375939Y-68265114D01*
X56375939Y-68265114D02*
X56233082Y-68193685D01*
X56233082Y-68193685D02*
X56161653Y-68122257D01*
X56161653Y-68122257D02*
X56090225Y-67979400D01*
X56090225Y-67979400D02*
X56090225Y-67836542D01*
X56090225Y-67836542D02*
X56161653Y-67693685D01*
X56161653Y-67693685D02*
X56233082Y-67622257D01*
X56233082Y-67622257D02*
X56375939Y-67550828D01*
X56375939Y-67550828D02*
X56733082Y-67550828D01*
X56733082Y-67550828D02*
X56947368Y-67622257D01*
X57590224Y-69050828D02*
X57590224Y-67550828D01*
X57590224Y-67550828D02*
X58161653Y-67550828D01*
X58161653Y-67550828D02*
X58304510Y-67622257D01*
X58304510Y-67622257D02*
X58375939Y-67693685D01*
X58375939Y-67693685D02*
X58447367Y-67836542D01*
X58447367Y-67836542D02*
X58447367Y-68050828D01*
X58447367Y-68050828D02*
X58375939Y-68193685D01*
X58375939Y-68193685D02*
X58304510Y-68265114D01*
X58304510Y-68265114D02*
X58161653Y-68336542D01*
X58161653Y-68336542D02*
X57590224Y-68336542D01*
X60233081Y-69050828D02*
X60233081Y-67550828D01*
X60233081Y-68265114D02*
X61090224Y-68265114D01*
X61090224Y-69050828D02*
X61090224Y-67550828D01*
X61804510Y-68265114D02*
X62304510Y-68265114D01*
X62518796Y-69050828D02*
X61804510Y-69050828D01*
X61804510Y-69050828D02*
X61804510Y-67550828D01*
X61804510Y-67550828D02*
X62518796Y-67550828D01*
X64018796Y-69050828D02*
X63518796Y-68336542D01*
X63161653Y-69050828D02*
X63161653Y-67550828D01*
X63161653Y-67550828D02*
X63733082Y-67550828D01*
X63733082Y-67550828D02*
X63875939Y-67622257D01*
X63875939Y-67622257D02*
X63947368Y-67693685D01*
X63947368Y-67693685D02*
X64018796Y-67836542D01*
X64018796Y-67836542D02*
X64018796Y-68050828D01*
X64018796Y-68050828D02*
X63947368Y-68193685D01*
X63947368Y-68193685D02*
X63875939Y-68265114D01*
X63875939Y-68265114D02*
X63733082Y-68336542D01*
X63733082Y-68336542D02*
X63161653Y-68336542D01*
X64661653Y-68265114D02*
X65161653Y-68265114D01*
X65375939Y-69050828D02*
X64661653Y-69050828D01*
X64661653Y-69050828D02*
X64661653Y-67550828D01*
X64661653Y-67550828D02*
X65375939Y-67550828D01*
D13*
X58043095Y-71404819D02*
X58043095Y-72214342D01*
X58043095Y-72214342D02*
X58090714Y-72309580D01*
X58090714Y-72309580D02*
X58138333Y-72357200D01*
X58138333Y-72357200D02*
X58233571Y-72404819D01*
X58233571Y-72404819D02*
X58424047Y-72404819D01*
X58424047Y-72404819D02*
X58519285Y-72357200D01*
X58519285Y-72357200D02*
X58566904Y-72309580D01*
X58566904Y-72309580D02*
X58614523Y-72214342D01*
X58614523Y-72214342D02*
X58614523Y-71404819D01*
X59043095Y-71500057D02*
X59090714Y-71452438D01*
X59090714Y-71452438D02*
X59185952Y-71404819D01*
X59185952Y-71404819D02*
X59424047Y-71404819D01*
X59424047Y-71404819D02*
X59519285Y-71452438D01*
X59519285Y-71452438D02*
X59566904Y-71500057D01*
X59566904Y-71500057D02*
X59614523Y-71595295D01*
X59614523Y-71595295D02*
X59614523Y-71690533D01*
X59614523Y-71690533D02*
X59566904Y-71833390D01*
X59566904Y-71833390D02*
X58995476Y-72404819D01*
X58995476Y-72404819D02*
X59614523Y-72404819D01*
X89838095Y-62929819D02*
X89838095Y-63739342D01*
X89838095Y-63739342D02*
X89885714Y-63834580D01*
X89885714Y-63834580D02*
X89933333Y-63882200D01*
X89933333Y-63882200D02*
X90028571Y-63929819D01*
X90028571Y-63929819D02*
X90219047Y-63929819D01*
X90219047Y-63929819D02*
X90314285Y-63882200D01*
X90314285Y-63882200D02*
X90361904Y-63834580D01*
X90361904Y-63834580D02*
X90409523Y-63739342D01*
X90409523Y-63739342D02*
X90409523Y-62929819D01*
X91409523Y-63929819D02*
X90838095Y-63929819D01*
X91123809Y-63929819D02*
X91123809Y-62929819D01*
X91123809Y-62929819D02*
X91028571Y-63072676D01*
X91028571Y-63072676D02*
X90933333Y-63167914D01*
X90933333Y-63167914D02*
X90838095Y-63215533D01*
X73666666Y-30324819D02*
X73666666Y-31039104D01*
X73666666Y-31039104D02*
X73619047Y-31181961D01*
X73619047Y-31181961D02*
X73523809Y-31277200D01*
X73523809Y-31277200D02*
X73380952Y-31324819D01*
X73380952Y-31324819D02*
X73285714Y-31324819D01*
X74095238Y-30420057D02*
X74142857Y-30372438D01*
X74142857Y-30372438D02*
X74238095Y-30324819D01*
X74238095Y-30324819D02*
X74476190Y-30324819D01*
X74476190Y-30324819D02*
X74571428Y-30372438D01*
X74571428Y-30372438D02*
X74619047Y-30420057D01*
X74619047Y-30420057D02*
X74666666Y-30515295D01*
X74666666Y-30515295D02*
X74666666Y-30610533D01*
X74666666Y-30610533D02*
X74619047Y-30753390D01*
X74619047Y-30753390D02*
X74047619Y-31324819D01*
X74047619Y-31324819D02*
X74666666Y-31324819D01*
X106707200Y-42583332D02*
X106754819Y-42440475D01*
X106754819Y-42440475D02*
X106754819Y-42202380D01*
X106754819Y-42202380D02*
X106707200Y-42107142D01*
X106707200Y-42107142D02*
X106659580Y-42059523D01*
X106659580Y-42059523D02*
X106564342Y-42011904D01*
X106564342Y-42011904D02*
X106469104Y-42011904D01*
X106469104Y-42011904D02*
X106373866Y-42059523D01*
X106373866Y-42059523D02*
X106326247Y-42107142D01*
X106326247Y-42107142D02*
X106278628Y-42202380D01*
X106278628Y-42202380D02*
X106231009Y-42392856D01*
X106231009Y-42392856D02*
X106183390Y-42488094D01*
X106183390Y-42488094D02*
X106135771Y-42535713D01*
X106135771Y-42535713D02*
X106040533Y-42583332D01*
X106040533Y-42583332D02*
X105945295Y-42583332D01*
X105945295Y-42583332D02*
X105850057Y-42535713D01*
X105850057Y-42535713D02*
X105802438Y-42488094D01*
X105802438Y-42488094D02*
X105754819Y-42392856D01*
X105754819Y-42392856D02*
X105754819Y-42154761D01*
X105754819Y-42154761D02*
X105802438Y-42011904D01*
X105754819Y-41678570D02*
X106754819Y-41440475D01*
X106754819Y-41440475D02*
X106040533Y-41249999D01*
X106040533Y-41249999D02*
X106754819Y-41059523D01*
X106754819Y-41059523D02*
X105754819Y-40821428D01*
X105754819Y-40535713D02*
X105754819Y-39916666D01*
X105754819Y-39916666D02*
X106135771Y-40249999D01*
X106135771Y-40249999D02*
X106135771Y-40107142D01*
X106135771Y-40107142D02*
X106183390Y-40011904D01*
X106183390Y-40011904D02*
X106231009Y-39964285D01*
X106231009Y-39964285D02*
X106326247Y-39916666D01*
X106326247Y-39916666D02*
X106564342Y-39916666D01*
X106564342Y-39916666D02*
X106659580Y-39964285D01*
X106659580Y-39964285D02*
X106707200Y-40011904D01*
X106707200Y-40011904D02*
X106754819Y-40107142D01*
X106754819Y-40107142D02*
X106754819Y-40392856D01*
X106754819Y-40392856D02*
X106707200Y-40488094D01*
X106707200Y-40488094D02*
X106659580Y-40535713D01*
X89666667Y-27357200D02*
X89809524Y-27404819D01*
X89809524Y-27404819D02*
X90047619Y-27404819D01*
X90047619Y-27404819D02*
X90142857Y-27357200D01*
X90142857Y-27357200D02*
X90190476Y-27309580D01*
X90190476Y-27309580D02*
X90238095Y-27214342D01*
X90238095Y-27214342D02*
X90238095Y-27119104D01*
X90238095Y-27119104D02*
X90190476Y-27023866D01*
X90190476Y-27023866D02*
X90142857Y-26976247D01*
X90142857Y-26976247D02*
X90047619Y-26928628D01*
X90047619Y-26928628D02*
X89857143Y-26881009D01*
X89857143Y-26881009D02*
X89761905Y-26833390D01*
X89761905Y-26833390D02*
X89714286Y-26785771D01*
X89714286Y-26785771D02*
X89666667Y-26690533D01*
X89666667Y-26690533D02*
X89666667Y-26595295D01*
X89666667Y-26595295D02*
X89714286Y-26500057D01*
X89714286Y-26500057D02*
X89761905Y-26452438D01*
X89761905Y-26452438D02*
X89857143Y-26404819D01*
X89857143Y-26404819D02*
X90095238Y-26404819D01*
X90095238Y-26404819D02*
X90238095Y-26452438D01*
X90571429Y-26404819D02*
X90809524Y-27404819D01*
X90809524Y-27404819D02*
X91000000Y-26690533D01*
X91000000Y-26690533D02*
X91190476Y-27404819D01*
X91190476Y-27404819D02*
X91428572Y-26404819D01*
X92333333Y-27404819D02*
X91761905Y-27404819D01*
X92047619Y-27404819D02*
X92047619Y-26404819D01*
X92047619Y-26404819D02*
X91952381Y-26547676D01*
X91952381Y-26547676D02*
X91857143Y-26642914D01*
X91857143Y-26642914D02*
X91761905Y-26690533D01*
X89666667Y-47357200D02*
X89809524Y-47404819D01*
X89809524Y-47404819D02*
X90047619Y-47404819D01*
X90047619Y-47404819D02*
X90142857Y-47357200D01*
X90142857Y-47357200D02*
X90190476Y-47309580D01*
X90190476Y-47309580D02*
X90238095Y-47214342D01*
X90238095Y-47214342D02*
X90238095Y-47119104D01*
X90238095Y-47119104D02*
X90190476Y-47023866D01*
X90190476Y-47023866D02*
X90142857Y-46976247D01*
X90142857Y-46976247D02*
X90047619Y-46928628D01*
X90047619Y-46928628D02*
X89857143Y-46881009D01*
X89857143Y-46881009D02*
X89761905Y-46833390D01*
X89761905Y-46833390D02*
X89714286Y-46785771D01*
X89714286Y-46785771D02*
X89666667Y-46690533D01*
X89666667Y-46690533D02*
X89666667Y-46595295D01*
X89666667Y-46595295D02*
X89714286Y-46500057D01*
X89714286Y-46500057D02*
X89761905Y-46452438D01*
X89761905Y-46452438D02*
X89857143Y-46404819D01*
X89857143Y-46404819D02*
X90095238Y-46404819D01*
X90095238Y-46404819D02*
X90238095Y-46452438D01*
X90571429Y-46404819D02*
X90809524Y-47404819D01*
X90809524Y-47404819D02*
X91000000Y-46690533D01*
X91000000Y-46690533D02*
X91190476Y-47404819D01*
X91190476Y-47404819D02*
X91428572Y-46404819D01*
X92238095Y-46738152D02*
X92238095Y-47404819D01*
X92000000Y-46357200D02*
X91761905Y-47071485D01*
X91761905Y-47071485D02*
X92380952Y-47071485D01*
X76107200Y-42583332D02*
X76154819Y-42440475D01*
X76154819Y-42440475D02*
X76154819Y-42202380D01*
X76154819Y-42202380D02*
X76107200Y-42107142D01*
X76107200Y-42107142D02*
X76059580Y-42059523D01*
X76059580Y-42059523D02*
X75964342Y-42011904D01*
X75964342Y-42011904D02*
X75869104Y-42011904D01*
X75869104Y-42011904D02*
X75773866Y-42059523D01*
X75773866Y-42059523D02*
X75726247Y-42107142D01*
X75726247Y-42107142D02*
X75678628Y-42202380D01*
X75678628Y-42202380D02*
X75631009Y-42392856D01*
X75631009Y-42392856D02*
X75583390Y-42488094D01*
X75583390Y-42488094D02*
X75535771Y-42535713D01*
X75535771Y-42535713D02*
X75440533Y-42583332D01*
X75440533Y-42583332D02*
X75345295Y-42583332D01*
X75345295Y-42583332D02*
X75250057Y-42535713D01*
X75250057Y-42535713D02*
X75202438Y-42488094D01*
X75202438Y-42488094D02*
X75154819Y-42392856D01*
X75154819Y-42392856D02*
X75154819Y-42154761D01*
X75154819Y-42154761D02*
X75202438Y-42011904D01*
X75154819Y-41678570D02*
X76154819Y-41440475D01*
X76154819Y-41440475D02*
X75440533Y-41249999D01*
X75440533Y-41249999D02*
X76154819Y-41059523D01*
X76154819Y-41059523D02*
X75154819Y-40821428D01*
X75250057Y-40488094D02*
X75202438Y-40440475D01*
X75202438Y-40440475D02*
X75154819Y-40345237D01*
X75154819Y-40345237D02*
X75154819Y-40107142D01*
X75154819Y-40107142D02*
X75202438Y-40011904D01*
X75202438Y-40011904D02*
X75250057Y-39964285D01*
X75250057Y-39964285D02*
X75345295Y-39916666D01*
X75345295Y-39916666D02*
X75440533Y-39916666D01*
X75440533Y-39916666D02*
X75583390Y-39964285D01*
X75583390Y-39964285D02*
X76154819Y-40535713D01*
X76154819Y-40535713D02*
X76154819Y-39916666D01*
D14*
X104590200Y-84166667D02*
X104542580Y-84309524D01*
X104542580Y-84309524D02*
X104542580Y-84547619D01*
X104542580Y-84547619D02*
X104590200Y-84642857D01*
X104590200Y-84642857D02*
X104637819Y-84690476D01*
X104637819Y-84690476D02*
X104733057Y-84738095D01*
X104733057Y-84738095D02*
X104828295Y-84738095D01*
X104828295Y-84738095D02*
X104923533Y-84690476D01*
X104923533Y-84690476D02*
X104971152Y-84642857D01*
X104971152Y-84642857D02*
X105018771Y-84547619D01*
X105018771Y-84547619D02*
X105066390Y-84357143D01*
X105066390Y-84357143D02*
X105114009Y-84261905D01*
X105114009Y-84261905D02*
X105161628Y-84214286D01*
X105161628Y-84214286D02*
X105256866Y-84166667D01*
X105256866Y-84166667D02*
X105352104Y-84166667D01*
X105352104Y-84166667D02*
X105447342Y-84214286D01*
X105447342Y-84214286D02*
X105494961Y-84261905D01*
X105494961Y-84261905D02*
X105542580Y-84357143D01*
X105542580Y-84357143D02*
X105542580Y-84595238D01*
X105542580Y-84595238D02*
X105494961Y-84738095D01*
X105542580Y-85071429D02*
X104542580Y-85309524D01*
X104542580Y-85309524D02*
X105256866Y-85500000D01*
X105256866Y-85500000D02*
X104542580Y-85690476D01*
X104542580Y-85690476D02*
X105542580Y-85928572D01*
X105542580Y-86738095D02*
X105542580Y-86547619D01*
X105542580Y-86547619D02*
X105494961Y-86452381D01*
X105494961Y-86452381D02*
X105447342Y-86404762D01*
X105447342Y-86404762D02*
X105304485Y-86309524D01*
X105304485Y-86309524D02*
X105114009Y-86261905D01*
X105114009Y-86261905D02*
X104733057Y-86261905D01*
X104733057Y-86261905D02*
X104637819Y-86309524D01*
X104637819Y-86309524D02*
X104590200Y-86357143D01*
X104590200Y-86357143D02*
X104542580Y-86452381D01*
X104542580Y-86452381D02*
X104542580Y-86642857D01*
X104542580Y-86642857D02*
X104590200Y-86738095D01*
X104590200Y-86738095D02*
X104637819Y-86785714D01*
X104637819Y-86785714D02*
X104733057Y-86833333D01*
X104733057Y-86833333D02*
X104971152Y-86833333D01*
X104971152Y-86833333D02*
X105066390Y-86785714D01*
X105066390Y-86785714D02*
X105114009Y-86738095D01*
X105114009Y-86738095D02*
X105161628Y-86642857D01*
X105161628Y-86642857D02*
X105161628Y-86452381D01*
X105161628Y-86452381D02*
X105114009Y-86357143D01*
X105114009Y-86357143D02*
X105066390Y-86309524D01*
X105066390Y-86309524D02*
X104971152Y-86261905D01*
D13*
X87107200Y-42583332D02*
X87154819Y-42440475D01*
X87154819Y-42440475D02*
X87154819Y-42202380D01*
X87154819Y-42202380D02*
X87107200Y-42107142D01*
X87107200Y-42107142D02*
X87059580Y-42059523D01*
X87059580Y-42059523D02*
X86964342Y-42011904D01*
X86964342Y-42011904D02*
X86869104Y-42011904D01*
X86869104Y-42011904D02*
X86773866Y-42059523D01*
X86773866Y-42059523D02*
X86726247Y-42107142D01*
X86726247Y-42107142D02*
X86678628Y-42202380D01*
X86678628Y-42202380D02*
X86631009Y-42392856D01*
X86631009Y-42392856D02*
X86583390Y-42488094D01*
X86583390Y-42488094D02*
X86535771Y-42535713D01*
X86535771Y-42535713D02*
X86440533Y-42583332D01*
X86440533Y-42583332D02*
X86345295Y-42583332D01*
X86345295Y-42583332D02*
X86250057Y-42535713D01*
X86250057Y-42535713D02*
X86202438Y-42488094D01*
X86202438Y-42488094D02*
X86154819Y-42392856D01*
X86154819Y-42392856D02*
X86154819Y-42154761D01*
X86154819Y-42154761D02*
X86202438Y-42011904D01*
X86154819Y-41678570D02*
X87154819Y-41440475D01*
X87154819Y-41440475D02*
X86440533Y-41249999D01*
X86440533Y-41249999D02*
X87154819Y-41059523D01*
X87154819Y-41059523D02*
X86154819Y-40821428D01*
X86154819Y-39964285D02*
X86154819Y-40440475D01*
X86154819Y-40440475D02*
X86631009Y-40488094D01*
X86631009Y-40488094D02*
X86583390Y-40440475D01*
X86583390Y-40440475D02*
X86535771Y-40345237D01*
X86535771Y-40345237D02*
X86535771Y-40107142D01*
X86535771Y-40107142D02*
X86583390Y-40011904D01*
X86583390Y-40011904D02*
X86631009Y-39964285D01*
X86631009Y-39964285D02*
X86726247Y-39916666D01*
X86726247Y-39916666D02*
X86964342Y-39916666D01*
X86964342Y-39916666D02*
X87059580Y-39964285D01*
X87059580Y-39964285D02*
X87107200Y-40011904D01*
X87107200Y-40011904D02*
X87154819Y-40107142D01*
X87154819Y-40107142D02*
X87154819Y-40345237D01*
X87154819Y-40345237D02*
X87107200Y-40440475D01*
X87107200Y-40440475D02*
X87059580Y-40488094D01*
D15*
%TO.C,U2*%
X33330000Y-57670000D02*
X33330000Y-63040000D01*
X33330000Y-57670000D02*
X84280000Y-57670000D01*
X33330000Y-57670000D02*
X84280000Y-57670000D01*
X33330000Y-63040000D02*
X33330000Y-80730000D01*
X33330000Y-80730000D02*
X33330000Y-86180000D01*
X33330000Y-86180000D02*
X33330000Y-57670000D01*
X84280000Y-57670000D02*
X84280000Y-68739000D01*
X84280000Y-57670000D02*
X84280000Y-86180000D01*
X84280000Y-68739000D02*
X84280000Y-75450000D01*
X84280000Y-75450000D02*
X84280000Y-86180000D01*
X84280000Y-86180000D02*
X33330000Y-86180000D01*
X84280000Y-86180000D02*
X33330000Y-86180000D01*
D10*
X74420000Y-57100000D02*
G75*
G02*
X74220000Y-57100000I-100000J0D01*
G01*
X74220000Y-57100000D02*
G75*
G02*
X74420000Y-57100000I100000J0D01*
G01*
D16*
%TO.C,U1*%
X88540000Y-57515000D02*
X92660000Y-57515000D01*
X88540000Y-57610000D02*
X88540000Y-57515000D01*
X88540000Y-62635000D02*
X88540000Y-62540000D01*
X92660000Y-57515000D02*
X92660000Y-57610000D01*
X92660000Y-62540000D02*
X92660000Y-62635000D01*
X92660000Y-62635000D02*
X88540000Y-62635000D01*
X93440000Y-62875000D02*
X92960000Y-62875000D01*
X93200000Y-62545000D01*
X93440000Y-62875000D01*
G36*
X93440000Y-62875000D02*
G01*
X92960000Y-62875000D01*
X93200000Y-62545000D01*
X93440000Y-62875000D01*
G37*
%TO.C,J2*%
X72620000Y-31870000D02*
X74000000Y-31870000D01*
X72620000Y-33250000D02*
X72620000Y-31870000D01*
X72620000Y-34520000D02*
X72620000Y-49870000D01*
X72620000Y-34520000D02*
X75380000Y-34520000D01*
X72620000Y-49870000D02*
X75380000Y-49870000D01*
X75380000Y-34520000D02*
X75380000Y-49870000D01*
%TO.C,SW3*%
X98750000Y-44250000D02*
X98750000Y-38250000D01*
X103300000Y-38150000D02*
X100700000Y-38150000D01*
X103300000Y-44350000D02*
X100700000Y-44350000D01*
X104300000Y-36150000D02*
X105300000Y-36150000D01*
X105250000Y-44150000D02*
X105250000Y-38350000D01*
X105300000Y-36150000D02*
X105300000Y-37150000D01*
%TO.C,SW1*%
X85900000Y-27950000D02*
X86900000Y-27950000D01*
X85900000Y-28950000D02*
X85900000Y-27950000D01*
X87900000Y-29950000D02*
X87900000Y-32550000D01*
X93900000Y-28000000D02*
X88100000Y-28000000D01*
X94000000Y-34500000D02*
X88000000Y-34500000D01*
X94100000Y-29950000D02*
X94100000Y-32550000D01*
%TO.C,SW4*%
X85900000Y-47950000D02*
X86900000Y-47950000D01*
X85900000Y-48950000D02*
X85900000Y-47950000D01*
X87900000Y-49950000D02*
X87900000Y-52550000D01*
X93900000Y-48000000D02*
X88100000Y-48000000D01*
X94000000Y-54500000D02*
X88000000Y-54500000D01*
X94100000Y-49950000D02*
X94100000Y-52550000D01*
%TO.C,SW2*%
X76700000Y-46350000D02*
X76700000Y-45350000D01*
X76750000Y-38350000D02*
X76750000Y-44150000D01*
X77700000Y-46350000D02*
X76700000Y-46350000D01*
X78700000Y-38150000D02*
X81300000Y-38150000D01*
X78700000Y-44350000D02*
X81300000Y-44350000D01*
X83250000Y-38250000D02*
X83250000Y-44250000D01*
%TO.C,SW5*%
X87700000Y-46350000D02*
X87700000Y-45350000D01*
X87750000Y-38350000D02*
X87750000Y-44150000D01*
X88700000Y-46350000D02*
X87700000Y-46350000D01*
X89700000Y-38150000D02*
X92300000Y-38150000D01*
X89700000Y-44350000D02*
X92300000Y-44350000D01*
X94250000Y-38250000D02*
X94250000Y-44250000D01*
%TD*%
M02*
