%TF.GenerationSoftware,KiCad,Pcbnew,9.0.6*%
%TF.CreationDate,2026-02-08T08:52:06-08:00*%
%TF.ProjectId,flopper_one,666c6f70-7065-4725-9f6f-6e652e6b6963,rev?*%
%TF.SameCoordinates,Original*%
%TF.FileFunction,Legend,Top*%
%TF.FilePolarity,Positive*%
%FSLAX46Y46*%
G04 Gerber Fmt 4.6, Leading zero omitted, Abs format (unit mm)*
G04 Created by KiCad (PCBNEW 9.0.6) date 2026-02-08 08:52:06*
%MOMM*%
%LPD*%
G01*
G04 APERTURE LIST*
%ADD10C,0.200000*%
%ADD11C,0.000000*%
%ADD12C,0.100000*%
%ADD13C,0.300000*%
%ADD14C,0.150000*%
%ADD15C,0.127000*%
%ADD16C,0.120000*%
G04 APERTURE END LIST*
D10*
X144000000Y-61000000D02*
X187000000Y-61000000D01*
X187000000Y-93000000D01*
X144000000Y-93000000D01*
X144000000Y-61000000D01*
D11*
G36*
X201306517Y-107231375D02*
G01*
X201608511Y-107250447D01*
X201940571Y-107291203D01*
X202118063Y-107320717D01*
X202303297Y-107356857D01*
X202496347Y-107400026D01*
X202697288Y-107450624D01*
X202906195Y-107509054D01*
X203123144Y-107575718D01*
X203348208Y-107651018D01*
X203581463Y-107735354D01*
X203822985Y-107829130D01*
X204072846Y-107932747D01*
X204331124Y-108046606D01*
X204597892Y-108171111D01*
X204890480Y-108302035D01*
X205182743Y-108414780D01*
X205474204Y-108510198D01*
X205764386Y-108589140D01*
X206052811Y-108652457D01*
X206339001Y-108701001D01*
X206622479Y-108735622D01*
X206902768Y-108757172D01*
X207179390Y-108766502D01*
X207451868Y-108764464D01*
X207719724Y-108751908D01*
X207982480Y-108729686D01*
X208239660Y-108698649D01*
X208490785Y-108659648D01*
X208735379Y-108613535D01*
X208972963Y-108561160D01*
X209425194Y-108441032D01*
X209843659Y-108306073D01*
X210224536Y-108163095D01*
X210564007Y-108018905D01*
X210858252Y-107880315D01*
X211103450Y-107754134D01*
X211431429Y-107566238D01*
X211433223Y-107565270D01*
X211435081Y-107564536D01*
X211436993Y-107564025D01*
X211438950Y-107563728D01*
X211440941Y-107563637D01*
X211442956Y-107563741D01*
X211444987Y-107564031D01*
X211447021Y-107564497D01*
X211449051Y-107565131D01*
X211451066Y-107565922D01*
X211453056Y-107566861D01*
X211455011Y-107567940D01*
X211456921Y-107569147D01*
X211458776Y-107570474D01*
X211460567Y-107571911D01*
X211462283Y-107573450D01*
X211463915Y-107575080D01*
X211465452Y-107576791D01*
X211466886Y-107578575D01*
X211468205Y-107580423D01*
X211469400Y-107582324D01*
X211470461Y-107584269D01*
X211471379Y-107586248D01*
X211472142Y-107588253D01*
X211472742Y-107590274D01*
X211473169Y-107592301D01*
X211473412Y-107594325D01*
X211473462Y-107596336D01*
X211473308Y-107598325D01*
X211472941Y-107600282D01*
X211472352Y-107602199D01*
X211471529Y-107604065D01*
X210903140Y-108710457D01*
X210902361Y-108712101D01*
X210901704Y-108713759D01*
X210901167Y-108715428D01*
X210900746Y-108717104D01*
X210900439Y-108718781D01*
X210900245Y-108720456D01*
X210900159Y-108722124D01*
X210900180Y-108723781D01*
X210900305Y-108725423D01*
X210900532Y-108727045D01*
X210900858Y-108728643D01*
X210901280Y-108730212D01*
X210901796Y-108731749D01*
X210902403Y-108733248D01*
X210903099Y-108734706D01*
X210903881Y-108736117D01*
X210904747Y-108737479D01*
X210905694Y-108738785D01*
X210906719Y-108740033D01*
X210907820Y-108741218D01*
X210908995Y-108742334D01*
X210910241Y-108743379D01*
X210911555Y-108744347D01*
X210912935Y-108745235D01*
X210914377Y-108746037D01*
X210915881Y-108746750D01*
X210917443Y-108747369D01*
X210919060Y-108747890D01*
X210920730Y-108748308D01*
X210922450Y-108748620D01*
X210924219Y-108748820D01*
X210926032Y-108748905D01*
X211385241Y-108752703D01*
X211749941Y-108752688D01*
X212166473Y-108749215D01*
X212168687Y-108749265D01*
X212170837Y-108749469D01*
X212172918Y-108749820D01*
X212174928Y-108750313D01*
X212176862Y-108750938D01*
X212178717Y-108751690D01*
X212180488Y-108752561D01*
X212182172Y-108753544D01*
X212183766Y-108754633D01*
X212185265Y-108755820D01*
X212186665Y-108757098D01*
X212187963Y-108758460D01*
X212189155Y-108759900D01*
X212190238Y-108761410D01*
X212191207Y-108762983D01*
X212192058Y-108764611D01*
X212192789Y-108766289D01*
X212193394Y-108768009D01*
X212193871Y-108769765D01*
X212194215Y-108771548D01*
X212194423Y-108773352D01*
X212194490Y-108775170D01*
X212194414Y-108776995D01*
X212194190Y-108778819D01*
X212193815Y-108780637D01*
X212193284Y-108782441D01*
X212192595Y-108784223D01*
X212191742Y-108785977D01*
X212190723Y-108787696D01*
X212189533Y-108789373D01*
X212188169Y-108791000D01*
X212186627Y-108792571D01*
X211936903Y-109021062D01*
X211501440Y-109395858D01*
X210914644Y-109862476D01*
X210575250Y-110113191D01*
X210210925Y-110366430D01*
X209825971Y-110615383D01*
X209424689Y-110853238D01*
X209011380Y-111073185D01*
X208590344Y-111268414D01*
X208165884Y-111432114D01*
X207953713Y-111500013D01*
X207742299Y-111557475D01*
X207532179Y-111603650D01*
X207323891Y-111637686D01*
X207117972Y-111658731D01*
X206914960Y-111665936D01*
X206492645Y-111659758D01*
X206093337Y-111641882D01*
X205715150Y-111613293D01*
X205356194Y-111574978D01*
X205014580Y-111527923D01*
X204688422Y-111473113D01*
X204375830Y-111411535D01*
X204074916Y-111344175D01*
X203783792Y-111272018D01*
X203500569Y-111196051D01*
X202950275Y-111036631D01*
X202408927Y-110873802D01*
X201861419Y-110715452D01*
X201656614Y-110660193D01*
X204242717Y-110660193D01*
X204243998Y-110676171D01*
X204246966Y-110691046D01*
X204251560Y-110704738D01*
X204257719Y-110717169D01*
X204265380Y-110728257D01*
X204274482Y-110737925D01*
X204284962Y-110746091D01*
X204296760Y-110752676D01*
X204309814Y-110757600D01*
X204324061Y-110760784D01*
X204339440Y-110762147D01*
X204355890Y-110761610D01*
X204373348Y-110759094D01*
X204391752Y-110754518D01*
X204411042Y-110747803D01*
X204431156Y-110738869D01*
X204452030Y-110727636D01*
X204473605Y-110714024D01*
X204495818Y-110697954D01*
X204518607Y-110679347D01*
X204541910Y-110658121D01*
X204565667Y-110634198D01*
X204589814Y-110607497D01*
X204614291Y-110577940D01*
X204639036Y-110545446D01*
X204663986Y-110509935D01*
X204676174Y-110491418D01*
X204688402Y-110470145D01*
X204700556Y-110446661D01*
X204712522Y-110421511D01*
X204724186Y-110395240D01*
X204735434Y-110368393D01*
X204756226Y-110315153D01*
X204773985Y-110266152D01*
X204787800Y-110225751D01*
X204799947Y-110188197D01*
X204916116Y-110175123D01*
X204969780Y-110422367D01*
X205011602Y-110632709D01*
X205028894Y-110730769D01*
X205040966Y-110813120D01*
X205044174Y-110830186D01*
X205049037Y-110846715D01*
X205055442Y-110862635D01*
X205063274Y-110877876D01*
X205072419Y-110892366D01*
X205082762Y-110906034D01*
X205094190Y-110918810D01*
X205106587Y-110930622D01*
X205119840Y-110941400D01*
X205133834Y-110951072D01*
X205148455Y-110959567D01*
X205163588Y-110966815D01*
X205179119Y-110972744D01*
X205194934Y-110977284D01*
X205210919Y-110980363D01*
X205226959Y-110981910D01*
X205242939Y-110981855D01*
X205258746Y-110980125D01*
X205274265Y-110976652D01*
X205289382Y-110971362D01*
X205303983Y-110964186D01*
X205317952Y-110955052D01*
X205331176Y-110943889D01*
X205343541Y-110930626D01*
X205354931Y-110915193D01*
X205365234Y-110897517D01*
X205374333Y-110877529D01*
X205382116Y-110855157D01*
X205388468Y-110830331D01*
X205393274Y-110802978D01*
X205396420Y-110773029D01*
X205397791Y-110740411D01*
X205391922Y-110691775D01*
X205383013Y-110639021D01*
X205370987Y-110582128D01*
X205355768Y-110521078D01*
X205337278Y-110455851D01*
X205315442Y-110386428D01*
X205290180Y-110312788D01*
X205261417Y-110234912D01*
X205253573Y-110213647D01*
X206306472Y-110213647D01*
X206307090Y-110276925D01*
X206309263Y-110324527D01*
X206312577Y-110370821D01*
X206317024Y-110415783D01*
X206322595Y-110459388D01*
X206329282Y-110501610D01*
X206337077Y-110542426D01*
X206345971Y-110581809D01*
X206355957Y-110619736D01*
X206367026Y-110656181D01*
X206379169Y-110691120D01*
X206392378Y-110724528D01*
X206406646Y-110756380D01*
X206421963Y-110786651D01*
X206438322Y-110815317D01*
X206455714Y-110842351D01*
X206474130Y-110867731D01*
X206493564Y-110891430D01*
X206514005Y-110913424D01*
X206535447Y-110933688D01*
X206557881Y-110952198D01*
X206581298Y-110968928D01*
X206605690Y-110983854D01*
X206631049Y-110996950D01*
X206657366Y-111008192D01*
X206684634Y-111017556D01*
X206712844Y-111025015D01*
X206741987Y-111030547D01*
X206772056Y-111034124D01*
X206803042Y-111035724D01*
X206834937Y-111035320D01*
X206867733Y-111032888D01*
X206901421Y-111028404D01*
X206934249Y-111022299D01*
X206964535Y-111015084D01*
X206992368Y-111006842D01*
X207017842Y-110997658D01*
X207041048Y-110987615D01*
X207062078Y-110976796D01*
X207081024Y-110965286D01*
X207097978Y-110953169D01*
X207113031Y-110940529D01*
X207126277Y-110927448D01*
X207137806Y-110914012D01*
X207147710Y-110900303D01*
X207156082Y-110886406D01*
X207163014Y-110872405D01*
X207168596Y-110858383D01*
X207172922Y-110844424D01*
X207176083Y-110830613D01*
X207178171Y-110817032D01*
X207179278Y-110803766D01*
X207179496Y-110790898D01*
X207178916Y-110778513D01*
X207177632Y-110766694D01*
X207175733Y-110755525D01*
X207173314Y-110745090D01*
X207170464Y-110735473D01*
X207167277Y-110726757D01*
X207163845Y-110719026D01*
X207160258Y-110712365D01*
X207156610Y-110706857D01*
X207152991Y-110702585D01*
X207149495Y-110699634D01*
X207146212Y-110698088D01*
X207141378Y-110696531D01*
X207136776Y-110694576D01*
X207127319Y-110690124D01*
X207121986Y-110687951D01*
X207115934Y-110686031D01*
X207108923Y-110684525D01*
X207100715Y-110683597D01*
X207091072Y-110683408D01*
X207079756Y-110684121D01*
X207066529Y-110685898D01*
X207051152Y-110688902D01*
X207033387Y-110693295D01*
X207012995Y-110699240D01*
X206989739Y-110706898D01*
X206963381Y-110716433D01*
X206949488Y-110721336D01*
X206935809Y-110725519D01*
X206922340Y-110728974D01*
X206909076Y-110731693D01*
X206896015Y-110733669D01*
X206883154Y-110734894D01*
X206870489Y-110735361D01*
X206858016Y-110735062D01*
X206845732Y-110733990D01*
X206833633Y-110732137D01*
X206821717Y-110729496D01*
X206809980Y-110726058D01*
X206798419Y-110721818D01*
X206787029Y-110716766D01*
X206775808Y-110710896D01*
X206764752Y-110704199D01*
X206753858Y-110696670D01*
X206743122Y-110688299D01*
X206732541Y-110679079D01*
X206722112Y-110669003D01*
X206711830Y-110658064D01*
X206701694Y-110646253D01*
X206691699Y-110633563D01*
X206681841Y-110619987D01*
X206672119Y-110605517D01*
X206662527Y-110590146D01*
X206643722Y-110556669D01*
X206625401Y-110519496D01*
X206607536Y-110478566D01*
X206596241Y-110447945D01*
X206585784Y-110414317D01*
X206576340Y-110378090D01*
X206568079Y-110339670D01*
X206561174Y-110299467D01*
X206555798Y-110257886D01*
X206552122Y-110215336D01*
X206550319Y-110172225D01*
X206550560Y-110128959D01*
X206553019Y-110085947D01*
X206557867Y-110043596D01*
X206565276Y-110002314D01*
X206575418Y-109962507D01*
X206588467Y-109924585D01*
X206596135Y-109906457D01*
X206604593Y-109888953D01*
X206613865Y-109872124D01*
X206623970Y-109856021D01*
X206627110Y-109851471D01*
X206630237Y-109847126D01*
X206633350Y-109842980D01*
X206636445Y-109839027D01*
X206639520Y-109835261D01*
X206642573Y-109831676D01*
X206648603Y-109825026D01*
X206654514Y-109819029D01*
X206660288Y-109813637D01*
X206665904Y-109808802D01*
X206671343Y-109804476D01*
X206676586Y-109800612D01*
X206681612Y-109797163D01*
X206686403Y-109794079D01*
X206690938Y-109791314D01*
X206706136Y-109782485D01*
X206712429Y-109778881D01*
X206718722Y-109775729D01*
X206725003Y-109773009D01*
X206731261Y-109770701D01*
X206737486Y-109768785D01*
X206743668Y-109767240D01*
X206749794Y-109766048D01*
X206755856Y-109765186D01*
X206761841Y-109764636D01*
X206767739Y-109764377D01*
X206773539Y-109764390D01*
X206779232Y-109764653D01*
X206784805Y-109765147D01*
X206790248Y-109765851D01*
X206795551Y-109766746D01*
X206800702Y-109767811D01*
X206805691Y-109769026D01*
X206810507Y-109770372D01*
X206819579Y-109773372D01*
X206827830Y-109776651D01*
X206835175Y-109780047D01*
X206841528Y-109783399D01*
X206846803Y-109786546D01*
X206850914Y-109789326D01*
X206853775Y-109791580D01*
X206870960Y-109803506D01*
X206887267Y-109813807D01*
X206902706Y-109822538D01*
X206917284Y-109829755D01*
X206931011Y-109835512D01*
X206943896Y-109839867D01*
X206955946Y-109842874D01*
X206967171Y-109844589D01*
X206977579Y-109845068D01*
X206987178Y-109844367D01*
X206995978Y-109842540D01*
X207003988Y-109839644D01*
X207011215Y-109835734D01*
X207017668Y-109830866D01*
X207023356Y-109825096D01*
X207028288Y-109818478D01*
X207032472Y-109811069D01*
X207035918Y-109802925D01*
X207038632Y-109794100D01*
X207040625Y-109784651D01*
X207041905Y-109774634D01*
X207042480Y-109764103D01*
X207042360Y-109753114D01*
X207041552Y-109741724D01*
X207040066Y-109729987D01*
X207037910Y-109717959D01*
X207035092Y-109705697D01*
X207031622Y-109693255D01*
X207027508Y-109680689D01*
X207022758Y-109668054D01*
X207017382Y-109655407D01*
X207011388Y-109642804D01*
X206997238Y-109623597D01*
X206982769Y-109605510D01*
X206969821Y-109590663D01*
X207311835Y-109590663D01*
X207312881Y-109628767D01*
X207315245Y-109669600D01*
X207323343Y-109758177D01*
X207334950Y-109853841D01*
X207348890Y-109954039D01*
X207379061Y-110157826D01*
X207392937Y-110256310D01*
X207404439Y-110349117D01*
X207431700Y-110606582D01*
X207437044Y-110652167D01*
X207442956Y-110696069D01*
X207450016Y-110741203D01*
X207458803Y-110790486D01*
X207463216Y-110802559D01*
X207471367Y-110812688D01*
X207483004Y-110820971D01*
X207497876Y-110827511D01*
X207515733Y-110832407D01*
X207536324Y-110835760D01*
X207559397Y-110837669D01*
X207584702Y-110838237D01*
X207641001Y-110835746D01*
X207703215Y-110829091D01*
X207769334Y-110819076D01*
X207837351Y-110806503D01*
X207971046Y-110776899D01*
X208088234Y-110746710D01*
X208172852Y-110722362D01*
X208208834Y-110710284D01*
X208212705Y-110708382D01*
X208217905Y-110706409D01*
X208231609Y-110701777D01*
X208239774Y-110698883D01*
X208248586Y-110695446D01*
X208257876Y-110691350D01*
X208267474Y-110686477D01*
X208277210Y-110680708D01*
X208282076Y-110677451D01*
X208286913Y-110673926D01*
X208291700Y-110670119D01*
X208296414Y-110666014D01*
X208301035Y-110661598D01*
X208305542Y-110656854D01*
X208309913Y-110651769D01*
X208314127Y-110646328D01*
X208318163Y-110640517D01*
X208322000Y-110634319D01*
X208325615Y-110627722D01*
X208328989Y-110620709D01*
X208332099Y-110613267D01*
X208334925Y-110605381D01*
X208337679Y-110597568D01*
X208339360Y-110590036D01*
X208340016Y-110582789D01*
X208339695Y-110575830D01*
X208338446Y-110569162D01*
X208336316Y-110562789D01*
X208333353Y-110556714D01*
X208329607Y-110550941D01*
X208325124Y-110545472D01*
X208319952Y-110540312D01*
X208314141Y-110535463D01*
X208307738Y-110530930D01*
X208300791Y-110526715D01*
X208293348Y-110522822D01*
X208277168Y-110516015D01*
X208259583Y-110510535D01*
X208240977Y-110506411D01*
X208221735Y-110503669D01*
X208202242Y-110502336D01*
X208182883Y-110502440D01*
X208164043Y-110504007D01*
X208146107Y-110507064D01*
X208129459Y-110511639D01*
X208087984Y-110523976D01*
X208030973Y-110538342D01*
X207964273Y-110552824D01*
X207929115Y-110559512D01*
X207893727Y-110565513D01*
X207858840Y-110570587D01*
X207825183Y-110574497D01*
X207793487Y-110577002D01*
X207764484Y-110577865D01*
X207738903Y-110576846D01*
X207727624Y-110575557D01*
X207717476Y-110573707D01*
X207708548Y-110571268D01*
X207700932Y-110568209D01*
X207694720Y-110564500D01*
X207690003Y-110560112D01*
X207682836Y-110545019D01*
X207676920Y-110519430D01*
X207672000Y-110484457D01*
X207667822Y-110441211D01*
X207653422Y-110207732D01*
X207644038Y-110070254D01*
X207630479Y-109930805D01*
X207621496Y-109863120D01*
X207610703Y-109798277D01*
X207597847Y-109737387D01*
X207582671Y-109681561D01*
X207579471Y-109662741D01*
X207576110Y-109644667D01*
X207572593Y-109627329D01*
X207568926Y-109610716D01*
X207565116Y-109594819D01*
X207561169Y-109579626D01*
X207557091Y-109565129D01*
X207552889Y-109551315D01*
X207548569Y-109538177D01*
X207544138Y-109525702D01*
X207539601Y-109513881D01*
X207534964Y-109502704D01*
X207530236Y-109492160D01*
X207525420Y-109482240D01*
X207520525Y-109472932D01*
X207515556Y-109464228D01*
X207510519Y-109456115D01*
X207505421Y-109448585D01*
X207500268Y-109441628D01*
X207495067Y-109435232D01*
X207489823Y-109429387D01*
X207484543Y-109424084D01*
X207479234Y-109419312D01*
X207473901Y-109415061D01*
X207468551Y-109411321D01*
X207463191Y-109408082D01*
X207457826Y-109405332D01*
X207452463Y-109403063D01*
X207447108Y-109401263D01*
X207441767Y-109399923D01*
X207436448Y-109399032D01*
X207431155Y-109398581D01*
X207425198Y-109398587D01*
X207419293Y-109399129D01*
X207413449Y-109400192D01*
X207407675Y-109401761D01*
X207401981Y-109403821D01*
X207396376Y-109406358D01*
X207390868Y-109409355D01*
X207385468Y-109412799D01*
X207380184Y-109416675D01*
X207375025Y-109420968D01*
X207365121Y-109430743D01*
X207355828Y-109442006D01*
X207347221Y-109454638D01*
X207339372Y-109468519D01*
X207332355Y-109483530D01*
X207326244Y-109499553D01*
X207321111Y-109516468D01*
X207317030Y-109534155D01*
X207314075Y-109552496D01*
X207312319Y-109571372D01*
X207311835Y-109590663D01*
X206969821Y-109590663D01*
X206967986Y-109588558D01*
X206952891Y-109572754D01*
X206937489Y-109558112D01*
X206921784Y-109544648D01*
X206905780Y-109532375D01*
X206889480Y-109521308D01*
X206872889Y-109511462D01*
X206856011Y-109502850D01*
X206838849Y-109495486D01*
X206821407Y-109489386D01*
X206803690Y-109484563D01*
X206785701Y-109481033D01*
X206767444Y-109478808D01*
X206748924Y-109477904D01*
X206734339Y-109478124D01*
X206719600Y-109479158D01*
X206704707Y-109481013D01*
X206689663Y-109483697D01*
X206674469Y-109487215D01*
X206659127Y-109491575D01*
X206643640Y-109496782D01*
X206628008Y-109502845D01*
X206612234Y-109509768D01*
X206596319Y-109517560D01*
X206580266Y-109526226D01*
X206564076Y-109535774D01*
X206547751Y-109546210D01*
X206531292Y-109557540D01*
X206514702Y-109569771D01*
X206497983Y-109582911D01*
X206475566Y-109606921D01*
X206454272Y-109633441D01*
X206434160Y-109662488D01*
X206415289Y-109694076D01*
X206397718Y-109728220D01*
X206381505Y-109764936D01*
X206366711Y-109804240D01*
X206353394Y-109846146D01*
X206341612Y-109890670D01*
X206331425Y-109937827D01*
X206322891Y-109987632D01*
X206316070Y-110040102D01*
X206311020Y-110095251D01*
X206307801Y-110153094D01*
X206306472Y-110213647D01*
X205253573Y-110213647D01*
X205252295Y-110210184D01*
X205241860Y-110184409D01*
X205228367Y-110154259D01*
X205220676Y-110138613D01*
X205212462Y-110123158D01*
X205203807Y-110108320D01*
X205194790Y-110094529D01*
X205185492Y-110082212D01*
X205180763Y-110076740D01*
X205175994Y-110071797D01*
X205171196Y-110067437D01*
X205166377Y-110063712D01*
X205161549Y-110060677D01*
X205156721Y-110058386D01*
X205214292Y-109999477D01*
X205274036Y-109936124D01*
X205343558Y-109859313D01*
X205414711Y-109775899D01*
X205448353Y-109733858D01*
X205479348Y-109692737D01*
X205506677Y-109653393D01*
X205529323Y-109616683D01*
X205546266Y-109583464D01*
X205552282Y-109568431D01*
X205556490Y-109554592D01*
X205562086Y-109527529D01*
X205565101Y-109501957D01*
X205565364Y-109478311D01*
X205564410Y-109467348D01*
X205562705Y-109457030D01*
X205560226Y-109447413D01*
X205556954Y-109438551D01*
X205552866Y-109430498D01*
X205547941Y-109423310D01*
X205542159Y-109417040D01*
X205535498Y-109411745D01*
X205527936Y-109407477D01*
X205519452Y-109404292D01*
X205510026Y-109402245D01*
X205499636Y-109401390D01*
X205488260Y-109401781D01*
X205475878Y-109403474D01*
X205462469Y-109406523D01*
X205448010Y-109410983D01*
X205432481Y-109416908D01*
X205415861Y-109424353D01*
X205398127Y-109433372D01*
X205379260Y-109444021D01*
X205359238Y-109456354D01*
X205338040Y-109470425D01*
X205315644Y-109486289D01*
X205292029Y-109504001D01*
X205267173Y-109523615D01*
X205241057Y-109545187D01*
X205215037Y-109567281D01*
X205190456Y-109588432D01*
X205167271Y-109608656D01*
X205145445Y-109627969D01*
X205124936Y-109646386D01*
X205105704Y-109663923D01*
X205087709Y-109680597D01*
X205070911Y-109696422D01*
X205055270Y-109711416D01*
X205040746Y-109725593D01*
X205027299Y-109738970D01*
X205014888Y-109751562D01*
X205003474Y-109763385D01*
X204993016Y-109774456D01*
X204983475Y-109784789D01*
X204974809Y-109794402D01*
X204959946Y-109811526D01*
X204948106Y-109825956D01*
X204938968Y-109837818D01*
X204932211Y-109847239D01*
X204927514Y-109854346D01*
X204924556Y-109859265D01*
X204922575Y-109863049D01*
X204933072Y-109812033D01*
X204943688Y-109754893D01*
X204955656Y-109682558D01*
X204967307Y-109599445D01*
X204976970Y-109509976D01*
X204980535Y-109464239D01*
X204982977Y-109418569D01*
X204983679Y-109390049D01*
X208158575Y-109390049D01*
X208158660Y-109402767D01*
X208159638Y-109415841D01*
X208166705Y-109468723D01*
X208176886Y-109524003D01*
X208190920Y-109585513D01*
X208209547Y-109657081D01*
X208263530Y-109845716D01*
X208344743Y-110120552D01*
X208358021Y-110158292D01*
X208372640Y-110193361D01*
X208388494Y-110225853D01*
X208405476Y-110255864D01*
X208423479Y-110283487D01*
X208442398Y-110308817D01*
X208462124Y-110331950D01*
X208482552Y-110352979D01*
X208503575Y-110371999D01*
X208525085Y-110389106D01*
X208546978Y-110404393D01*
X208569144Y-110417955D01*
X208591479Y-110429887D01*
X208613875Y-110440283D01*
X208636225Y-110449239D01*
X208658424Y-110456848D01*
X208680363Y-110463206D01*
X208701937Y-110468406D01*
X208743562Y-110475715D01*
X208782445Y-110479532D01*
X208817731Y-110480613D01*
X208848568Y-110479716D01*
X208874102Y-110477598D01*
X208905846Y-110472727D01*
X208921958Y-110468416D01*
X208937271Y-110463374D01*
X208951810Y-110457634D01*
X208965601Y-110451224D01*
X208978669Y-110444175D01*
X208991040Y-110436517D01*
X209002739Y-110428282D01*
X209013792Y-110419498D01*
X209024224Y-110410197D01*
X209034061Y-110400408D01*
X209043328Y-110390162D01*
X209052050Y-110379490D01*
X209067963Y-110356986D01*
X209082003Y-110333138D01*
X209094375Y-110308190D01*
X209105281Y-110282382D01*
X209114926Y-110255959D01*
X209123514Y-110229162D01*
X209138330Y-110175416D01*
X209151360Y-110123085D01*
X209156795Y-110093383D01*
X209159900Y-110058220D01*
X209160835Y-110018199D01*
X209159760Y-109973922D01*
X209156834Y-109925992D01*
X209152218Y-109875014D01*
X209138552Y-109766321D01*
X209120041Y-109652670D01*
X209097963Y-109538884D01*
X209073594Y-109429790D01*
X209048215Y-109330213D01*
X209039288Y-109307327D01*
X209029733Y-109285737D01*
X209019614Y-109265470D01*
X209008994Y-109246550D01*
X208997937Y-109229004D01*
X208992263Y-109220754D01*
X208986504Y-109212857D01*
X208980667Y-109205316D01*
X208974760Y-109198134D01*
X208968791Y-109191315D01*
X208962768Y-109184861D01*
X208956699Y-109178777D01*
X208950591Y-109173064D01*
X208944453Y-109167727D01*
X208938292Y-109162768D01*
X208932117Y-109158191D01*
X208925935Y-109153999D01*
X208919755Y-109150195D01*
X208913583Y-109146782D01*
X208907429Y-109143763D01*
X208901299Y-109141142D01*
X208895202Y-109138922D01*
X208889146Y-109137106D01*
X208883139Y-109135697D01*
X208877188Y-109134699D01*
X208871301Y-109134114D01*
X208865487Y-109133946D01*
X208856605Y-109134520D01*
X208847947Y-109136123D01*
X208839543Y-109138766D01*
X208831423Y-109142461D01*
X208823616Y-109147220D01*
X208816151Y-109153055D01*
X208809059Y-109159979D01*
X208802369Y-109168001D01*
X208796111Y-109177136D01*
X208790315Y-109187395D01*
X208785009Y-109198789D01*
X208780225Y-109211331D01*
X208775990Y-109225033D01*
X208772336Y-109239906D01*
X208769292Y-109255962D01*
X208766888Y-109273214D01*
X208766975Y-109285614D01*
X208767825Y-109298577D01*
X208769378Y-109312110D01*
X208771577Y-109326216D01*
X208777684Y-109356171D01*
X208785685Y-109388481D01*
X208805523Y-109460331D01*
X208816437Y-109499950D01*
X208827401Y-109542086D01*
X208842786Y-109635030D01*
X208857401Y-109730741D01*
X208869833Y-109826404D01*
X208874789Y-109873338D01*
X208878670Y-109919206D01*
X208881299Y-109963654D01*
X208882500Y-110006331D01*
X208882096Y-110046886D01*
X208879911Y-110084966D01*
X208875768Y-110120220D01*
X208869491Y-110152297D01*
X208860904Y-110180843D01*
X208855688Y-110193683D01*
X208849828Y-110205508D01*
X208844407Y-110212706D01*
X208838641Y-110219348D01*
X208832552Y-110225441D01*
X208826164Y-110230987D01*
X208819499Y-110235993D01*
X208812579Y-110240461D01*
X208805428Y-110244397D01*
X208798067Y-110247805D01*
X208790521Y-110250689D01*
X208782810Y-110253053D01*
X208774958Y-110254903D01*
X208766988Y-110256243D01*
X208758922Y-110257077D01*
X208750783Y-110257409D01*
X208742594Y-110257244D01*
X208734376Y-110256586D01*
X208726154Y-110255440D01*
X208717949Y-110253810D01*
X208709784Y-110251701D01*
X208701681Y-110249116D01*
X208693664Y-110246062D01*
X208685756Y-110242541D01*
X208677978Y-110238558D01*
X208670353Y-110234118D01*
X208662904Y-110229225D01*
X208655654Y-110223884D01*
X208648626Y-110218099D01*
X208641841Y-110211874D01*
X208635323Y-110205214D01*
X208629094Y-110198123D01*
X208623177Y-110190606D01*
X208617595Y-110182667D01*
X208598221Y-110139120D01*
X208579529Y-110089648D01*
X208561490Y-110035258D01*
X208544074Y-109976962D01*
X208510997Y-109852683D01*
X208480065Y-109724883D01*
X208451044Y-109601635D01*
X208423700Y-109491011D01*
X208410585Y-109442956D01*
X208397801Y-109401085D01*
X208385320Y-109366406D01*
X208373113Y-109339928D01*
X208364994Y-109326404D01*
X208356569Y-109314240D01*
X208347876Y-109303404D01*
X208338957Y-109293861D01*
X208329851Y-109285578D01*
X208320599Y-109278523D01*
X208311240Y-109272660D01*
X208301814Y-109267957D01*
X208292362Y-109264381D01*
X208282923Y-109261897D01*
X208273538Y-109260472D01*
X208264246Y-109260072D01*
X208255087Y-109260665D01*
X208246102Y-109262216D01*
X208237330Y-109264693D01*
X208228812Y-109268060D01*
X208220587Y-109272286D01*
X208212696Y-109277337D01*
X208205178Y-109283178D01*
X208198073Y-109289777D01*
X208191423Y-109297099D01*
X208185265Y-109305112D01*
X208179642Y-109313782D01*
X208174591Y-109323076D01*
X208170155Y-109332959D01*
X208166371Y-109343398D01*
X208163282Y-109354360D01*
X208160926Y-109365812D01*
X208159344Y-109377719D01*
X208158575Y-109390049D01*
X204983679Y-109390049D01*
X204984087Y-109373521D01*
X204983656Y-109329644D01*
X204984846Y-109314064D01*
X204985237Y-109298686D01*
X204984860Y-109283530D01*
X204983745Y-109268616D01*
X204981921Y-109253962D01*
X204979417Y-109239589D01*
X204976264Y-109225516D01*
X204972491Y-109211762D01*
X204968128Y-109198347D01*
X204963204Y-109185290D01*
X204957749Y-109172612D01*
X204951793Y-109160330D01*
X204945365Y-109148465D01*
X204938495Y-109137037D01*
X204931212Y-109126064D01*
X204923547Y-109115566D01*
X204915528Y-109105563D01*
X204907186Y-109096074D01*
X204898550Y-109087118D01*
X204893599Y-109082444D01*
X209243285Y-109082444D01*
X209243398Y-109087855D01*
X209244276Y-109098500D01*
X209245793Y-109108930D01*
X209247672Y-109119168D01*
X209251406Y-109139165D01*
X209386940Y-109582790D01*
X209480839Y-109903168D01*
X209512296Y-110019705D01*
X209521398Y-110058524D01*
X209525033Y-110081123D01*
X209525822Y-110084513D01*
X209527228Y-110087686D01*
X209529228Y-110090646D01*
X209531803Y-110093392D01*
X209534932Y-110095927D01*
X209538592Y-110098250D01*
X209547423Y-110102270D01*
X209558127Y-110105461D01*
X209570537Y-110107832D01*
X209584482Y-110109394D01*
X209599793Y-110110155D01*
X209616301Y-110110125D01*
X209633838Y-110109313D01*
X209652233Y-110107730D01*
X209671317Y-110105384D01*
X209690923Y-110102285D01*
X209710879Y-110098442D01*
X209731017Y-110093866D01*
X209751169Y-110088565D01*
X209809103Y-110067971D01*
X209863515Y-110045930D01*
X209914331Y-110022522D01*
X209938368Y-110010330D01*
X209961478Y-109997826D01*
X209983652Y-109985021D01*
X210004881Y-109971923D01*
X210025156Y-109958544D01*
X210044467Y-109944892D01*
X210062805Y-109930978D01*
X210080161Y-109916813D01*
X210096526Y-109902405D01*
X210111890Y-109887765D01*
X210126244Y-109872903D01*
X210139579Y-109857829D01*
X210151886Y-109842552D01*
X210163155Y-109827083D01*
X210173377Y-109811432D01*
X210182543Y-109795609D01*
X210190644Y-109779623D01*
X210197670Y-109763485D01*
X210203613Y-109747205D01*
X210208462Y-109730792D01*
X210212209Y-109714256D01*
X210214845Y-109697608D01*
X210216359Y-109680858D01*
X210216744Y-109664015D01*
X210215989Y-109647090D01*
X210214086Y-109630091D01*
X210208252Y-109596552D01*
X210200707Y-109564138D01*
X210196311Y-109548391D01*
X210191509Y-109532970D01*
X210186306Y-109517890D01*
X210180711Y-109503166D01*
X210174731Y-109488813D01*
X210168371Y-109474847D01*
X210161640Y-109461282D01*
X210154544Y-109448133D01*
X210147091Y-109435416D01*
X210139286Y-109423144D01*
X210131138Y-109411334D01*
X210122653Y-109400000D01*
X210113838Y-109389157D01*
X210104700Y-109378820D01*
X210095246Y-109369004D01*
X210085483Y-109359724D01*
X210075418Y-109350996D01*
X210065058Y-109342833D01*
X210054410Y-109335252D01*
X210043481Y-109328267D01*
X210032278Y-109321892D01*
X210020807Y-109316144D01*
X210009076Y-109311037D01*
X209997093Y-109306586D01*
X209984862Y-109302806D01*
X209972393Y-109299712D01*
X209959691Y-109297319D01*
X209946764Y-109295641D01*
X209953689Y-109281087D01*
X209961316Y-109264025D01*
X209970803Y-109241443D01*
X209981465Y-109214097D01*
X209992615Y-109182738D01*
X210003567Y-109148122D01*
X210008754Y-109129828D01*
X210013634Y-109111001D01*
X210015453Y-109099987D01*
X210016849Y-109088882D01*
X210017830Y-109077705D01*
X210018403Y-109066474D01*
X210018578Y-109055211D01*
X210018363Y-109043933D01*
X210017765Y-109032660D01*
X210016794Y-109021411D01*
X210013763Y-108999064D01*
X210009336Y-108977045D01*
X210003580Y-108955509D01*
X209996561Y-108934610D01*
X209988344Y-108914502D01*
X209978998Y-108895339D01*
X209968587Y-108877276D01*
X209963003Y-108868705D01*
X209957178Y-108860466D01*
X209951120Y-108852580D01*
X209944838Y-108845065D01*
X209938339Y-108837940D01*
X209931632Y-108831225D01*
X209924726Y-108824940D01*
X209917628Y-108819102D01*
X209910347Y-108813732D01*
X209902891Y-108808850D01*
X209896422Y-108806596D01*
X209889896Y-108804486D01*
X209883313Y-108802520D01*
X209876672Y-108800698D01*
X209869972Y-108799019D01*
X209863214Y-108797484D01*
X209849520Y-108794843D01*
X209835585Y-108792774D01*
X209821406Y-108791276D01*
X209806980Y-108790348D01*
X209792304Y-108789988D01*
X209769810Y-108790511D01*
X209746732Y-108792310D01*
X209723055Y-108795382D01*
X209698768Y-108799723D01*
X209673858Y-108805329D01*
X209648313Y-108812198D01*
X209622120Y-108820327D01*
X209595267Y-108829711D01*
X209567741Y-108840349D01*
X209539529Y-108852236D01*
X209510620Y-108865369D01*
X209481001Y-108879745D01*
X209450659Y-108895361D01*
X209419582Y-108912214D01*
X209387758Y-108930300D01*
X209355173Y-108949616D01*
X209342474Y-108956983D01*
X209330732Y-108964227D01*
X209319911Y-108971350D01*
X209309978Y-108978357D01*
X209300897Y-108985249D01*
X209292634Y-108992030D01*
X209285154Y-108998702D01*
X209278423Y-109005269D01*
X209272406Y-109011735D01*
X209267069Y-109018101D01*
X209262376Y-109024370D01*
X209258293Y-109030547D01*
X209254786Y-109036634D01*
X209251819Y-109042633D01*
X209249359Y-109048549D01*
X209247370Y-109054383D01*
X209245818Y-109060139D01*
X209244668Y-109065820D01*
X209243886Y-109071430D01*
X209243436Y-109076970D01*
X209243285Y-109082444D01*
X204893599Y-109082444D01*
X204889650Y-109078716D01*
X204880515Y-109070886D01*
X204871175Y-109063648D01*
X204861660Y-109057022D01*
X204851999Y-109051026D01*
X204842222Y-109045681D01*
X204832358Y-109041006D01*
X204822438Y-109037020D01*
X204812491Y-109033743D01*
X204802546Y-109031194D01*
X204792634Y-109029393D01*
X204782783Y-109028359D01*
X204773023Y-109028112D01*
X204773023Y-109028113D01*
X204764256Y-109028588D01*
X204755610Y-109029745D01*
X204747110Y-109031597D01*
X204738777Y-109034160D01*
X204730632Y-109037449D01*
X204722700Y-109041477D01*
X204718820Y-109043773D01*
X204715001Y-109046259D01*
X204711246Y-109048937D01*
X204707558Y-109051809D01*
X204703940Y-109054878D01*
X204700394Y-109058143D01*
X204696923Y-109061608D01*
X204693530Y-109065275D01*
X204690217Y-109069144D01*
X204686988Y-109073218D01*
X204680792Y-109081989D01*
X204674964Y-109091600D01*
X204669524Y-109102067D01*
X204664497Y-109113404D01*
X204659904Y-109125626D01*
X204645896Y-109175189D01*
X204635681Y-109225387D01*
X204628502Y-109276528D01*
X204623599Y-109328919D01*
X204611586Y-109557136D01*
X204606690Y-109620389D01*
X204599520Y-109686736D01*
X204589317Y-109756485D01*
X204575324Y-109829943D01*
X204556781Y-109907417D01*
X204532930Y-109989215D01*
X204503014Y-110075643D01*
X204466272Y-110167010D01*
X204455808Y-110191078D01*
X204443867Y-110217106D01*
X204416641Y-110273316D01*
X204386769Y-110332188D01*
X204356430Y-110390269D01*
X204273933Y-110545643D01*
X204263791Y-110566561D01*
X204255707Y-110586854D01*
X204249619Y-110606444D01*
X204245466Y-110625250D01*
X204243186Y-110643193D01*
X204242717Y-110660193D01*
X201656614Y-110660193D01*
X201347921Y-110576905D01*
X200894274Y-110463649D01*
X200686424Y-110416562D01*
X200489374Y-110375866D01*
X200301735Y-110341584D01*
X200122121Y-110313738D01*
X199949143Y-110292353D01*
X199781413Y-110277450D01*
X199617544Y-110269052D01*
X199456149Y-110267183D01*
X199295840Y-110271866D01*
X199135228Y-110283122D01*
X198972927Y-110300976D01*
X198807548Y-110325449D01*
X198805752Y-110325688D01*
X198803978Y-110325807D01*
X198802227Y-110325811D01*
X198800504Y-110325701D01*
X198798813Y-110325483D01*
X198797155Y-110325160D01*
X198795536Y-110324736D01*
X198793958Y-110324214D01*
X198792425Y-110323598D01*
X198790941Y-110322892D01*
X198789507Y-110322099D01*
X198788129Y-110321223D01*
X198786809Y-110320269D01*
X198785551Y-110319239D01*
X198784358Y-110318137D01*
X198783234Y-110316967D01*
X198782182Y-110315733D01*
X198781206Y-110314438D01*
X198780308Y-110313086D01*
X198779493Y-110311681D01*
X198778763Y-110310227D01*
X198778122Y-110308726D01*
X198777574Y-110307184D01*
X198777122Y-110305603D01*
X198776770Y-110303987D01*
X198776520Y-110302340D01*
X198776376Y-110300666D01*
X198776342Y-110298969D01*
X198776421Y-110297251D01*
X198776616Y-110295517D01*
X198776931Y-110293770D01*
X198777369Y-110292015D01*
X199020619Y-109437802D01*
X200194525Y-109437802D01*
X200195973Y-109471117D01*
X200200399Y-109500574D01*
X200207590Y-109526290D01*
X200217337Y-109548383D01*
X200229426Y-109566970D01*
X200243646Y-109582169D01*
X200259786Y-109594097D01*
X200277634Y-109602871D01*
X200296979Y-109608609D01*
X200317608Y-109611428D01*
X200339310Y-109611445D01*
X200361874Y-109608779D01*
X200385087Y-109603546D01*
X200408739Y-109595864D01*
X200432618Y-109585850D01*
X200456511Y-109573621D01*
X200480208Y-109559296D01*
X200503496Y-109542991D01*
X200526165Y-109524823D01*
X200548002Y-109504911D01*
X200568796Y-109483371D01*
X200588335Y-109460321D01*
X200606408Y-109435878D01*
X200622802Y-109410160D01*
X200637307Y-109383285D01*
X200700320Y-109262555D01*
X200755796Y-109154394D01*
X200810320Y-109046613D01*
X201261920Y-109219729D01*
X201239093Y-109343822D01*
X201215557Y-109465025D01*
X201188385Y-109595520D01*
X201176686Y-109635452D01*
X201168085Y-109672528D01*
X201162425Y-109706790D01*
X201159551Y-109738276D01*
X201159305Y-109767028D01*
X201161531Y-109793087D01*
X201166072Y-109816492D01*
X201172773Y-109837284D01*
X201181477Y-109855505D01*
X201192026Y-109871194D01*
X201204265Y-109884391D01*
X201218038Y-109895138D01*
X201233187Y-109903475D01*
X201249556Y-109909442D01*
X201266989Y-109913081D01*
X201285329Y-109914430D01*
X201304420Y-109913532D01*
X201324105Y-109910426D01*
X201327873Y-109909438D01*
X201835163Y-109909438D01*
X201835246Y-109928269D01*
X201837187Y-109946076D01*
X201840916Y-109962718D01*
X201846366Y-109978054D01*
X201853470Y-109991946D01*
X201862161Y-110004252D01*
X201872370Y-110014833D01*
X201884029Y-110023547D01*
X201897072Y-110030255D01*
X201911431Y-110034817D01*
X201927038Y-110037091D01*
X201943825Y-110036939D01*
X201961724Y-110034219D01*
X201980669Y-110028791D01*
X202000591Y-110020516D01*
X202021423Y-110009252D01*
X202043098Y-109994860D01*
X202065547Y-109977199D01*
X202088702Y-109956129D01*
X202112498Y-109931510D01*
X202136865Y-109903201D01*
X202161736Y-109871063D01*
X202187043Y-109834954D01*
X202212719Y-109794735D01*
X202238697Y-109750265D01*
X202264908Y-109701405D01*
X202621992Y-109741299D01*
X202589653Y-109837887D01*
X202557095Y-109939446D01*
X202520603Y-110059471D01*
X202511880Y-110084525D01*
X202505296Y-110108240D01*
X202500760Y-110130601D01*
X202498180Y-110151594D01*
X202497464Y-110171205D01*
X202498521Y-110189421D01*
X202501260Y-110206228D01*
X202505590Y-110221612D01*
X202511418Y-110235559D01*
X202518654Y-110248055D01*
X202527206Y-110259087D01*
X202536982Y-110268640D01*
X202547892Y-110276701D01*
X202559844Y-110283255D01*
X202572746Y-110288290D01*
X202586507Y-110291790D01*
X202601035Y-110293743D01*
X202616240Y-110294134D01*
X202632029Y-110292950D01*
X202648312Y-110290177D01*
X202664997Y-110285800D01*
X202681992Y-110279807D01*
X202699206Y-110272182D01*
X202716547Y-110262913D01*
X202733925Y-110251986D01*
X202751248Y-110239386D01*
X202768423Y-110225100D01*
X202785361Y-110209113D01*
X202801970Y-110191413D01*
X202818157Y-110171985D01*
X202833832Y-110150815D01*
X202848903Y-110127890D01*
X202859808Y-110104662D01*
X202874795Y-110061569D01*
X202912111Y-109928582D01*
X203263726Y-109928582D01*
X203264871Y-109984907D01*
X203268377Y-110042949D01*
X203274671Y-110101902D01*
X203284179Y-110160964D01*
X203297329Y-110219332D01*
X203314548Y-110276203D01*
X203336263Y-110330772D01*
X203347693Y-110355606D01*
X203360026Y-110378894D01*
X203373191Y-110400688D01*
X203387114Y-110421038D01*
X203401724Y-110439996D01*
X203416949Y-110457613D01*
X203432716Y-110473939D01*
X203448952Y-110489026D01*
X203465586Y-110502925D01*
X203482544Y-110515686D01*
X203499756Y-110527361D01*
X203517148Y-110538001D01*
X203534649Y-110547656D01*
X203552185Y-110556378D01*
X203569684Y-110564217D01*
X203587075Y-110571225D01*
X203621242Y-110582951D01*
X203654105Y-110591962D01*
X203685088Y-110598669D01*
X203713610Y-110603477D01*
X203760962Y-110609032D01*
X203791533Y-110611892D01*
X203820442Y-110602488D01*
X203846910Y-110592456D01*
X203871026Y-110581853D01*
X203892879Y-110570740D01*
X203912559Y-110559176D01*
X203930153Y-110547220D01*
X203945752Y-110534932D01*
X203959445Y-110522372D01*
X203971321Y-110509599D01*
X203981469Y-110496673D01*
X203989978Y-110483652D01*
X203996938Y-110470597D01*
X204002437Y-110457568D01*
X204006565Y-110444623D01*
X204009411Y-110431822D01*
X204011064Y-110419224D01*
X204011614Y-110406890D01*
X204011149Y-110394879D01*
X204009758Y-110383250D01*
X204007532Y-110372062D01*
X204004559Y-110361376D01*
X204000928Y-110351250D01*
X203996728Y-110341745D01*
X203992049Y-110332919D01*
X203986980Y-110324833D01*
X203981610Y-110317545D01*
X203976028Y-110311116D01*
X203970323Y-110305604D01*
X203964585Y-110301070D01*
X203958902Y-110297573D01*
X203953364Y-110295172D01*
X203948061Y-110293927D01*
X203920713Y-110293118D01*
X203891533Y-110292677D01*
X203861026Y-110291557D01*
X203845434Y-110290417D01*
X203829700Y-110288716D01*
X203813888Y-110286323D01*
X203798060Y-110283109D01*
X203782280Y-110278942D01*
X203766612Y-110273692D01*
X203751119Y-110267229D01*
X203743457Y-110263501D01*
X203735863Y-110259421D01*
X203728344Y-110254973D01*
X203720909Y-110250140D01*
X203713564Y-110244905D01*
X203706319Y-110239253D01*
X203694567Y-110228959D01*
X203683686Y-110217772D01*
X203673649Y-110205743D01*
X203664429Y-110192926D01*
X203655998Y-110179372D01*
X203648329Y-110165132D01*
X203641396Y-110150260D01*
X203635172Y-110134807D01*
X203624738Y-110102367D01*
X203616811Y-110068228D01*
X203611175Y-110032808D01*
X203607611Y-109996523D01*
X203605902Y-109959788D01*
X203605833Y-109923022D01*
X203607185Y-109886640D01*
X203609741Y-109851058D01*
X203613284Y-109816694D01*
X203617598Y-109783964D01*
X203627667Y-109725073D01*
X203656380Y-109625296D01*
X203673572Y-109570112D01*
X203692668Y-109513025D01*
X203713678Y-109455252D01*
X203736614Y-109398013D01*
X203761485Y-109342528D01*
X203788302Y-109290015D01*
X203802444Y-109265255D01*
X203817076Y-109241695D01*
X203832200Y-109219488D01*
X203847817Y-109198786D01*
X203863928Y-109179741D01*
X203880535Y-109162507D01*
X203897638Y-109147236D01*
X203915240Y-109134079D01*
X203933342Y-109123189D01*
X203951944Y-109114719D01*
X203971049Y-109108822D01*
X203990657Y-109105648D01*
X204010770Y-109105352D01*
X204031390Y-109108085D01*
X204052516Y-109114000D01*
X204074151Y-109123249D01*
X204087164Y-109139279D01*
X204099927Y-109153827D01*
X204112432Y-109166943D01*
X204124675Y-109178678D01*
X204136650Y-109189080D01*
X204148351Y-109198200D01*
X204159773Y-109206086D01*
X204170909Y-109212789D01*
X204181754Y-109218358D01*
X204192301Y-109222843D01*
X204202546Y-109226293D01*
X204212483Y-109228759D01*
X204222105Y-109230289D01*
X204231407Y-109230934D01*
X204240384Y-109230742D01*
X204249029Y-109229765D01*
X204257336Y-109228050D01*
X204265300Y-109225649D01*
X204272916Y-109222610D01*
X204280177Y-109218984D01*
X204287077Y-109214819D01*
X204293612Y-109210166D01*
X204299774Y-109205074D01*
X204305559Y-109199593D01*
X204310960Y-109193773D01*
X204315972Y-109187662D01*
X204320589Y-109181312D01*
X204324805Y-109174770D01*
X204328614Y-109168088D01*
X204332012Y-109161314D01*
X204334991Y-109154499D01*
X204337546Y-109147692D01*
X204341269Y-109135740D01*
X204344239Y-109123013D01*
X204346440Y-109109587D01*
X204347858Y-109095540D01*
X204348478Y-109080950D01*
X204348285Y-109065892D01*
X204347264Y-109050446D01*
X204345401Y-109034687D01*
X204342681Y-109018693D01*
X204339089Y-109002542D01*
X204334610Y-108986310D01*
X204329229Y-108970075D01*
X204322932Y-108953914D01*
X204315704Y-108937905D01*
X204307530Y-108922124D01*
X204298395Y-108906649D01*
X204288285Y-108891557D01*
X204277184Y-108876926D01*
X204265078Y-108862832D01*
X204251952Y-108849353D01*
X204237792Y-108836566D01*
X204222582Y-108824549D01*
X204206308Y-108813378D01*
X204188954Y-108803131D01*
X204170507Y-108793885D01*
X204150951Y-108785718D01*
X204130271Y-108778706D01*
X204108454Y-108772927D01*
X204085483Y-108768458D01*
X204061344Y-108765376D01*
X204036023Y-108763759D01*
X204009504Y-108763684D01*
X204002229Y-108763935D01*
X203994870Y-108764305D01*
X203987425Y-108764794D01*
X203979894Y-108765403D01*
X203972276Y-108766134D01*
X203964569Y-108766986D01*
X203956773Y-108767960D01*
X203948887Y-108769058D01*
X203903871Y-108771843D01*
X203860706Y-108779325D01*
X203819364Y-108791190D01*
X203779817Y-108807126D01*
X203742038Y-108826817D01*
X203705999Y-108849950D01*
X203671673Y-108876211D01*
X203639031Y-108905287D01*
X203608047Y-108936863D01*
X203578692Y-108970626D01*
X203550939Y-109006261D01*
X203524761Y-109043456D01*
X203500128Y-109081895D01*
X203477015Y-109121266D01*
X203435235Y-109201545D01*
X203399198Y-109281783D01*
X203368684Y-109359469D01*
X203343471Y-109432092D01*
X203323339Y-109497142D01*
X203297429Y-109594475D01*
X203289186Y-109631383D01*
X203278463Y-109700799D01*
X203270184Y-109777930D01*
X203264514Y-109874775D01*
X203263726Y-109928582D01*
X202912111Y-109928582D01*
X202913414Y-109923941D01*
X202957552Y-109731315D01*
X203000000Y-109500000D01*
X203018339Y-109374931D01*
X203033552Y-109246305D01*
X203044738Y-109116162D01*
X203050997Y-108986540D01*
X203051428Y-108859478D01*
X203045129Y-108737014D01*
X203031200Y-108621187D01*
X203008738Y-108514035D01*
X203000332Y-108498509D01*
X202991650Y-108483029D01*
X202982736Y-108467722D01*
X202973631Y-108452714D01*
X202964377Y-108438131D01*
X202955016Y-108424098D01*
X202945591Y-108410742D01*
X202936144Y-108398188D01*
X202926717Y-108386562D01*
X202917351Y-108375990D01*
X202908090Y-108366599D01*
X202903512Y-108362385D01*
X202898975Y-108358513D01*
X202894486Y-108354999D01*
X202890049Y-108351859D01*
X202885669Y-108349108D01*
X202881352Y-108346763D01*
X202877104Y-108344838D01*
X202872929Y-108343350D01*
X202868832Y-108342314D01*
X202864820Y-108341746D01*
X202860199Y-108341286D01*
X202855535Y-108340892D01*
X202850823Y-108340577D01*
X202846061Y-108340351D01*
X202827797Y-108340310D01*
X202808961Y-108341628D01*
X202789617Y-108344476D01*
X202769825Y-108349025D01*
X202749646Y-108355445D01*
X202729143Y-108363908D01*
X202708376Y-108374584D01*
X202687408Y-108387645D01*
X202666300Y-108403261D01*
X202655712Y-108412080D01*
X202645112Y-108421603D01*
X202634508Y-108431849D01*
X202623907Y-108442842D01*
X202613318Y-108454601D01*
X202602747Y-108467149D01*
X202592202Y-108480506D01*
X202581692Y-108494695D01*
X202571223Y-108509736D01*
X202560804Y-108525650D01*
X202550442Y-108542460D01*
X202540145Y-108560187D01*
X202519776Y-108598475D01*
X202375682Y-108873198D01*
X202198617Y-109201379D01*
X202021548Y-109524188D01*
X201877438Y-109782795D01*
X201864962Y-109804827D01*
X201854748Y-109826676D01*
X201846728Y-109848202D01*
X201840836Y-109869264D01*
X201837004Y-109889723D01*
X201835163Y-109909438D01*
X201327873Y-109909438D01*
X201344227Y-109905153D01*
X201364632Y-109897754D01*
X201385160Y-109888268D01*
X201405658Y-109876737D01*
X201425967Y-109863201D01*
X201445931Y-109847701D01*
X201465394Y-109830277D01*
X201484200Y-109810969D01*
X201502191Y-109789819D01*
X201519212Y-109766866D01*
X201535106Y-109742152D01*
X201549716Y-109715716D01*
X201562886Y-109687599D01*
X201574459Y-109657842D01*
X201745797Y-109114836D01*
X201800826Y-108930088D01*
X201852339Y-108745952D01*
X201896139Y-108572532D01*
X201928029Y-108419933D01*
X201936017Y-108397802D01*
X201941563Y-108375898D01*
X201944780Y-108354326D01*
X201945782Y-108333194D01*
X201944683Y-108312605D01*
X201941597Y-108292667D01*
X201936637Y-108273485D01*
X201929917Y-108255166D01*
X201921550Y-108237815D01*
X201911652Y-108221537D01*
X201900334Y-108206440D01*
X201887711Y-108192629D01*
X201873897Y-108180209D01*
X201859005Y-108169287D01*
X201843149Y-108159969D01*
X201826443Y-108152360D01*
X201809001Y-108146567D01*
X201790936Y-108142695D01*
X201772361Y-108140851D01*
X201753392Y-108141139D01*
X201734141Y-108143667D01*
X201714722Y-108148540D01*
X201695249Y-108155864D01*
X201675836Y-108165745D01*
X201656596Y-108178289D01*
X201637643Y-108193601D01*
X201619091Y-108211788D01*
X201601053Y-108232955D01*
X201583644Y-108257209D01*
X201566976Y-108284656D01*
X201551164Y-108315400D01*
X201536322Y-108349549D01*
X201520460Y-108377820D01*
X201503673Y-108409323D01*
X201468399Y-108479237D01*
X201432650Y-108553710D01*
X201398578Y-108627159D01*
X201344066Y-108748659D01*
X201322071Y-108799083D01*
X201135142Y-108728361D01*
X201066179Y-108701299D01*
X201005693Y-108676588D01*
X200962367Y-108657281D01*
X200949853Y-108650608D01*
X200946358Y-108648183D01*
X200944885Y-108646430D01*
X200943694Y-108642698D01*
X200942837Y-108638627D01*
X200942047Y-108629517D01*
X200942365Y-108619195D01*
X200943638Y-108607761D01*
X200945714Y-108595309D01*
X200948440Y-108581938D01*
X200955236Y-108552826D01*
X200962808Y-108521200D01*
X200969939Y-108487837D01*
X200972959Y-108470746D01*
X200975412Y-108453512D01*
X200977147Y-108436232D01*
X200978010Y-108419003D01*
X200976487Y-108386225D01*
X200974328Y-108354704D01*
X200971554Y-108324423D01*
X200968189Y-108295368D01*
X200964255Y-108267522D01*
X200959774Y-108240872D01*
X200954768Y-108215401D01*
X200949260Y-108191093D01*
X200943272Y-108167935D01*
X200936827Y-108145910D01*
X200929946Y-108125003D01*
X200922653Y-108105198D01*
X200914969Y-108086481D01*
X200906918Y-108068836D01*
X200898520Y-108052248D01*
X200889799Y-108036701D01*
X200880778Y-108022180D01*
X200871477Y-108008670D01*
X200861920Y-107996155D01*
X200852130Y-107984621D01*
X200842128Y-107974051D01*
X200831936Y-107964430D01*
X200821578Y-107955744D01*
X200811076Y-107947976D01*
X200800451Y-107941112D01*
X200789726Y-107935135D01*
X200778925Y-107930032D01*
X200768068Y-107925786D01*
X200757178Y-107922382D01*
X200746278Y-107919805D01*
X200735390Y-107918039D01*
X200724537Y-107917069D01*
X200716134Y-107916856D01*
X200707775Y-107917107D01*
X200699473Y-107917816D01*
X200691236Y-107918976D01*
X200683076Y-107920579D01*
X200675003Y-107922618D01*
X200667028Y-107925086D01*
X200659160Y-107927976D01*
X200651412Y-107931280D01*
X200643792Y-107934992D01*
X200636312Y-107939104D01*
X200628982Y-107943608D01*
X200621813Y-107948498D01*
X200614814Y-107953766D01*
X200607998Y-107959406D01*
X200601373Y-107965409D01*
X200594951Y-107971769D01*
X200588743Y-107978479D01*
X200582757Y-107985531D01*
X200577006Y-107992918D01*
X200571500Y-108000633D01*
X200566249Y-108008668D01*
X200561263Y-108017017D01*
X200556553Y-108025672D01*
X200552131Y-108034626D01*
X200548005Y-108043872D01*
X200544187Y-108053402D01*
X200540687Y-108063210D01*
X200537516Y-108073287D01*
X200534683Y-108083628D01*
X200532201Y-108094224D01*
X200530079Y-108105068D01*
X200496986Y-108280260D01*
X200474659Y-108386669D01*
X200447823Y-108504949D01*
X200415985Y-108634597D01*
X200378654Y-108775109D01*
X200335339Y-108925982D01*
X200285546Y-109086714D01*
X200260224Y-109150321D01*
X200239360Y-109209249D01*
X200222745Y-109263615D01*
X200210165Y-109313536D01*
X200201410Y-109359129D01*
X200196267Y-109400512D01*
X200194525Y-109437802D01*
X199020619Y-109437802D01*
X199122981Y-109078342D01*
X199794826Y-107540193D01*
X199795184Y-107539401D01*
X199795558Y-107538630D01*
X199795948Y-107537879D01*
X199796355Y-107537149D01*
X199796782Y-107536440D01*
X199797228Y-107535750D01*
X199797696Y-107535080D01*
X199798186Y-107534430D01*
X199798699Y-107533800D01*
X199799237Y-107533188D01*
X199799800Y-107532595D01*
X199800390Y-107532022D01*
X199801009Y-107531466D01*
X199801656Y-107530929D01*
X199802334Y-107530411D01*
X199803043Y-107529910D01*
X199842765Y-107505252D01*
X199922286Y-107463318D01*
X200042881Y-107410937D01*
X200118978Y-107382964D01*
X200205821Y-107354939D01*
X200303569Y-107327718D01*
X200412381Y-107302154D01*
X200532417Y-107279101D01*
X200663835Y-107259412D01*
X200806795Y-107243941D01*
X200961456Y-107233542D01*
X201127977Y-107229069D01*
X201306517Y-107231375D01*
G37*
D10*
X191375000Y-100500000D02*
X219125000Y-100500000D01*
X219125000Y-115500000D01*
X191375000Y-115500000D01*
X191375000Y-100500000D01*
D11*
G36*
X209875431Y-109494813D02*
G01*
X209886843Y-109495447D01*
X209898080Y-109496741D01*
X209909111Y-109498735D01*
X209914538Y-109500006D01*
X209919902Y-109501467D01*
X209925198Y-109503122D01*
X209930422Y-109504977D01*
X209935570Y-109507035D01*
X209940638Y-109509302D01*
X209945623Y-109511783D01*
X209950520Y-109514482D01*
X209955324Y-109517404D01*
X209960033Y-109520555D01*
X209964642Y-109523939D01*
X209969147Y-109527560D01*
X209973544Y-109531425D01*
X209977828Y-109535537D01*
X209981997Y-109539901D01*
X209986046Y-109544522D01*
X209989971Y-109549406D01*
X209993768Y-109554556D01*
X209997432Y-109559978D01*
X210000961Y-109565677D01*
X210004349Y-109571657D01*
X210007594Y-109577923D01*
X210010690Y-109584481D01*
X210013634Y-109591334D01*
X210020515Y-109611318D01*
X210024601Y-109630528D01*
X210026063Y-109648978D01*
X210025069Y-109666681D01*
X210021789Y-109683652D01*
X210016392Y-109699902D01*
X210009046Y-109715446D01*
X209999922Y-109730298D01*
X209989189Y-109744469D01*
X209977016Y-109757975D01*
X209963571Y-109770828D01*
X209949025Y-109783042D01*
X209933547Y-109794630D01*
X209917305Y-109805605D01*
X209883209Y-109825773D01*
X209848092Y-109843652D01*
X209813307Y-109859350D01*
X209750150Y-109884631D01*
X209704571Y-109902476D01*
X209691757Y-109908878D01*
X209688437Y-109911496D01*
X209687400Y-109913743D01*
X209610144Y-109591334D01*
X209633158Y-109576662D01*
X209659242Y-109561562D01*
X209692659Y-109544165D01*
X209711558Y-109535280D01*
X209731620Y-109526631D01*
X209752620Y-109518487D01*
X209774335Y-109511119D01*
X209796542Y-109504797D01*
X209819017Y-109499790D01*
X209841536Y-109496368D01*
X209863876Y-109494802D01*
X209875431Y-109494813D01*
G37*
G36*
X199874750Y-107387475D02*
G01*
X199879394Y-107387771D01*
X199884182Y-107388278D01*
X199888854Y-107389048D01*
X199893158Y-107390116D01*
X199897104Y-107391469D01*
X199900704Y-107393094D01*
X199903967Y-107394976D01*
X199906905Y-107397102D01*
X199909528Y-107399459D01*
X199911846Y-107402033D01*
X199913870Y-107404810D01*
X199915611Y-107407777D01*
X199917080Y-107410921D01*
X199918286Y-107414227D01*
X199919241Y-107417682D01*
X199919955Y-107421273D01*
X199920439Y-107424986D01*
X199920703Y-107428807D01*
X199920758Y-107432723D01*
X199920615Y-107436721D01*
X199920284Y-107440786D01*
X199919775Y-107444906D01*
X199919100Y-107449066D01*
X199918269Y-107453254D01*
X199916181Y-107461655D01*
X199913596Y-107470003D01*
X199910598Y-107478187D01*
X199907273Y-107486100D01*
X199903706Y-107493633D01*
X199810017Y-107691490D01*
X199714578Y-107902120D01*
X199596245Y-108174086D01*
X199462143Y-108497542D01*
X199391406Y-108675500D01*
X199319400Y-108862638D01*
X199247015Y-109057724D01*
X199175141Y-109259528D01*
X199104671Y-109466818D01*
X199036494Y-109678363D01*
X198974151Y-109892241D01*
X198920186Y-110106148D01*
X198873999Y-110318287D01*
X198834987Y-110526860D01*
X198802551Y-110730070D01*
X198776089Y-110926119D01*
X198738682Y-111289544D01*
X198717958Y-111602753D01*
X198709109Y-111851366D01*
X198707800Y-112097279D01*
X198316262Y-112097279D01*
X198318453Y-112006553D01*
X198330890Y-111831594D01*
X198356362Y-111584285D01*
X198397661Y-111276507D01*
X198425118Y-111103655D01*
X198457578Y-110920143D01*
X198495390Y-110727455D01*
X198538903Y-110527076D01*
X198588466Y-110320492D01*
X198644428Y-110109189D01*
X198707137Y-109894651D01*
X198776943Y-109678363D01*
X198931486Y-109250907D01*
X199095571Y-108842583D01*
X199260706Y-108464441D01*
X199418399Y-108127533D01*
X199560159Y-107842909D01*
X199677494Y-107621621D01*
X199761912Y-107474720D01*
X199804921Y-107413257D01*
X199806201Y-107411914D01*
X199807794Y-107410388D01*
X199810016Y-107408429D01*
X199812864Y-107406139D01*
X199816332Y-107403619D01*
X199818298Y-107402306D01*
X199820417Y-107400973D01*
X199822689Y-107399634D01*
X199825114Y-107398301D01*
X199827690Y-107396988D01*
X199830417Y-107395707D01*
X199833296Y-107394471D01*
X199836324Y-107393292D01*
X199839503Y-107392183D01*
X199842830Y-107391158D01*
X199846306Y-107390228D01*
X199849930Y-107389407D01*
X199853701Y-107388707D01*
X199857619Y-107388141D01*
X199861684Y-107387722D01*
X199865894Y-107387463D01*
X199870250Y-107387376D01*
X199874750Y-107387475D01*
G37*
G36*
X202757783Y-108799975D02*
G01*
X202758806Y-108800069D01*
X202759813Y-108800220D01*
X202766820Y-108803074D01*
X202772903Y-108808840D01*
X202778106Y-108817321D01*
X202782477Y-108828320D01*
X202786061Y-108841640D01*
X202788904Y-108857085D01*
X202792552Y-108893559D01*
X202793790Y-108936166D01*
X202792987Y-108983333D01*
X202790511Y-109033484D01*
X202786731Y-109085043D01*
X202776732Y-109186086D01*
X202765940Y-109273861D01*
X202753767Y-109359203D01*
X202401748Y-109299104D01*
X202741572Y-108804767D01*
X202742850Y-108804032D01*
X202744110Y-108803359D01*
X202745350Y-108802749D01*
X202746572Y-108802199D01*
X202747775Y-108801710D01*
X202748959Y-108801282D01*
X202750125Y-108800914D01*
X202751273Y-108800605D01*
X202752402Y-108800356D01*
X202753514Y-108800164D01*
X202754607Y-108800031D01*
X202755683Y-108799956D01*
X202756742Y-108799937D01*
X202757783Y-108799975D01*
G37*
G36*
X209727886Y-109028131D02*
G01*
X209737570Y-109029038D01*
X209742269Y-109029731D01*
X209746870Y-109030590D01*
X209751369Y-109031618D01*
X209755765Y-109032821D01*
X209760054Y-109034202D01*
X209764234Y-109035766D01*
X209768303Y-109037518D01*
X209772258Y-109039460D01*
X209776097Y-109041599D01*
X209779815Y-109043937D01*
X209783413Y-109046480D01*
X209786885Y-109049232D01*
X209790231Y-109052196D01*
X209793447Y-109055378D01*
X209796531Y-109058782D01*
X209799479Y-109062411D01*
X209802291Y-109066271D01*
X209804962Y-109070366D01*
X209807491Y-109074699D01*
X209809875Y-109079276D01*
X209812111Y-109084100D01*
X209814197Y-109089177D01*
X209816130Y-109094509D01*
X209817907Y-109100102D01*
X209819526Y-109105960D01*
X209820984Y-109112087D01*
X209823220Y-109126290D01*
X209823701Y-109140255D01*
X209822537Y-109153968D01*
X209819840Y-109167415D01*
X209815719Y-109180582D01*
X209810284Y-109193455D01*
X209803647Y-109206020D01*
X209795918Y-109218262D01*
X209787206Y-109230169D01*
X209777624Y-109241727D01*
X209767280Y-109252920D01*
X209756286Y-109263736D01*
X209744751Y-109274160D01*
X209732787Y-109284178D01*
X209708011Y-109302942D01*
X209682841Y-109319917D01*
X209658161Y-109334990D01*
X209634854Y-109348050D01*
X209613804Y-109358986D01*
X209582006Y-109374038D01*
X209569837Y-109379254D01*
X209452376Y-109104180D01*
X209585643Y-109056226D01*
X209618052Y-109045875D01*
X209633878Y-109041347D01*
X209649392Y-109037349D01*
X209664550Y-109033953D01*
X209679309Y-109031233D01*
X209693624Y-109029262D01*
X209707451Y-109028112D01*
X209717840Y-109027834D01*
X209727886Y-109028131D01*
G37*
D12*
X161933609Y-118815163D02*
X161433609Y-118815163D01*
X161933609Y-118291354D02*
X161695514Y-118458020D01*
X161933609Y-118577068D02*
X161433609Y-118577068D01*
X161433609Y-118577068D02*
X161433609Y-118386592D01*
X161433609Y-118386592D02*
X161457419Y-118338973D01*
X161457419Y-118338973D02*
X161481228Y-118315163D01*
X161481228Y-118315163D02*
X161528847Y-118291354D01*
X161528847Y-118291354D02*
X161600276Y-118291354D01*
X161600276Y-118291354D02*
X161647895Y-118315163D01*
X161647895Y-118315163D02*
X161671704Y-118338973D01*
X161671704Y-118338973D02*
X161695514Y-118386592D01*
X161695514Y-118386592D02*
X161695514Y-118577068D01*
X161909800Y-117719925D02*
X161933609Y-117648497D01*
X161933609Y-117648497D02*
X161933609Y-117529449D01*
X161933609Y-117529449D02*
X161909800Y-117481830D01*
X161909800Y-117481830D02*
X161885990Y-117458021D01*
X161885990Y-117458021D02*
X161838371Y-117434211D01*
X161838371Y-117434211D02*
X161790752Y-117434211D01*
X161790752Y-117434211D02*
X161743133Y-117458021D01*
X161743133Y-117458021D02*
X161719323Y-117481830D01*
X161719323Y-117481830D02*
X161695514Y-117529449D01*
X161695514Y-117529449D02*
X161671704Y-117624687D01*
X161671704Y-117624687D02*
X161647895Y-117672306D01*
X161647895Y-117672306D02*
X161624085Y-117696116D01*
X161624085Y-117696116D02*
X161576466Y-117719925D01*
X161576466Y-117719925D02*
X161528847Y-117719925D01*
X161528847Y-117719925D02*
X161481228Y-117696116D01*
X161481228Y-117696116D02*
X161457419Y-117672306D01*
X161457419Y-117672306D02*
X161433609Y-117624687D01*
X161433609Y-117624687D02*
X161433609Y-117505640D01*
X161433609Y-117505640D02*
X161457419Y-117434211D01*
X161671704Y-117219926D02*
X161671704Y-117053259D01*
X161933609Y-116981831D02*
X161933609Y-117219926D01*
X161933609Y-117219926D02*
X161433609Y-117219926D01*
X161433609Y-117219926D02*
X161433609Y-116981831D01*
X161933609Y-116767545D02*
X161433609Y-116767545D01*
X161433609Y-116767545D02*
X161933609Y-116481831D01*
X161933609Y-116481831D02*
X161433609Y-116481831D01*
X161933609Y-116243735D02*
X161433609Y-116243735D01*
X161433609Y-116243735D02*
X161433609Y-116124687D01*
X161433609Y-116124687D02*
X161457419Y-116053259D01*
X161457419Y-116053259D02*
X161505038Y-116005640D01*
X161505038Y-116005640D02*
X161552657Y-115981830D01*
X161552657Y-115981830D02*
X161647895Y-115958021D01*
X161647895Y-115958021D02*
X161719323Y-115958021D01*
X161719323Y-115958021D02*
X161814561Y-115981830D01*
X161814561Y-115981830D02*
X161862180Y-116005640D01*
X161862180Y-116005640D02*
X161909800Y-116053259D01*
X161909800Y-116053259D02*
X161933609Y-116124687D01*
X161933609Y-116124687D02*
X161933609Y-116243735D01*
X175066390Y-97184836D02*
X175566390Y-97184836D01*
X175566390Y-97184836D02*
X175566390Y-97375312D01*
X175566390Y-97375312D02*
X175542580Y-97422931D01*
X175542580Y-97422931D02*
X175518771Y-97446741D01*
X175518771Y-97446741D02*
X175471152Y-97470550D01*
X175471152Y-97470550D02*
X175399723Y-97470550D01*
X175399723Y-97470550D02*
X175352104Y-97446741D01*
X175352104Y-97446741D02*
X175328295Y-97422931D01*
X175328295Y-97422931D02*
X175304485Y-97375312D01*
X175304485Y-97375312D02*
X175304485Y-97184836D01*
X175066390Y-97946741D02*
X175066390Y-97661027D01*
X175066390Y-97803884D02*
X175566390Y-97803884D01*
X175566390Y-97803884D02*
X175494961Y-97756265D01*
X175494961Y-97756265D02*
X175447342Y-97708646D01*
X175447342Y-97708646D02*
X175423533Y-97661027D01*
X166933609Y-118815163D02*
X166433609Y-118815163D01*
X166433609Y-118815163D02*
X166433609Y-118624687D01*
X166433609Y-118624687D02*
X166457419Y-118577068D01*
X166457419Y-118577068D02*
X166481228Y-118553258D01*
X166481228Y-118553258D02*
X166528847Y-118529449D01*
X166528847Y-118529449D02*
X166600276Y-118529449D01*
X166600276Y-118529449D02*
X166647895Y-118553258D01*
X166647895Y-118553258D02*
X166671704Y-118577068D01*
X166671704Y-118577068D02*
X166695514Y-118624687D01*
X166695514Y-118624687D02*
X166695514Y-118815163D01*
X166933609Y-118315163D02*
X166433609Y-118315163D01*
X166433609Y-118315163D02*
X166933609Y-118029449D01*
X166933609Y-118029449D02*
X166433609Y-118029449D01*
X166433609Y-117553258D02*
X166433609Y-117791353D01*
X166433609Y-117791353D02*
X166671704Y-117815162D01*
X166671704Y-117815162D02*
X166647895Y-117791353D01*
X166647895Y-117791353D02*
X166624085Y-117743734D01*
X166624085Y-117743734D02*
X166624085Y-117624686D01*
X166624085Y-117624686D02*
X166647895Y-117577067D01*
X166647895Y-117577067D02*
X166671704Y-117553258D01*
X166671704Y-117553258D02*
X166719323Y-117529448D01*
X166719323Y-117529448D02*
X166838371Y-117529448D01*
X166838371Y-117529448D02*
X166885990Y-117553258D01*
X166885990Y-117553258D02*
X166909800Y-117577067D01*
X166909800Y-117577067D02*
X166933609Y-117624686D01*
X166933609Y-117624686D02*
X166933609Y-117743734D01*
X166933609Y-117743734D02*
X166909800Y-117791353D01*
X166909800Y-117791353D02*
X166885990Y-117815162D01*
X166433609Y-117362782D02*
X166433609Y-117053258D01*
X166433609Y-117053258D02*
X166624085Y-117219925D01*
X166624085Y-117219925D02*
X166624085Y-117148496D01*
X166624085Y-117148496D02*
X166647895Y-117100877D01*
X166647895Y-117100877D02*
X166671704Y-117077068D01*
X166671704Y-117077068D02*
X166719323Y-117053258D01*
X166719323Y-117053258D02*
X166838371Y-117053258D01*
X166838371Y-117053258D02*
X166885990Y-117077068D01*
X166885990Y-117077068D02*
X166909800Y-117100877D01*
X166909800Y-117100877D02*
X166933609Y-117148496D01*
X166933609Y-117148496D02*
X166933609Y-117291353D01*
X166933609Y-117291353D02*
X166909800Y-117338972D01*
X166909800Y-117338972D02*
X166885990Y-117362782D01*
X166481228Y-116862782D02*
X166457419Y-116838973D01*
X166457419Y-116838973D02*
X166433609Y-116791354D01*
X166433609Y-116791354D02*
X166433609Y-116672306D01*
X166433609Y-116672306D02*
X166457419Y-116624687D01*
X166457419Y-116624687D02*
X166481228Y-116600878D01*
X166481228Y-116600878D02*
X166528847Y-116577068D01*
X166528847Y-116577068D02*
X166576466Y-116577068D01*
X166576466Y-116577068D02*
X166647895Y-116600878D01*
X166647895Y-116600878D02*
X166933609Y-116886592D01*
X166933609Y-116886592D02*
X166933609Y-116577068D01*
X166909800Y-116005640D02*
X166933609Y-115934212D01*
X166933609Y-115934212D02*
X166933609Y-115815164D01*
X166933609Y-115815164D02*
X166909800Y-115767545D01*
X166909800Y-115767545D02*
X166885990Y-115743736D01*
X166885990Y-115743736D02*
X166838371Y-115719926D01*
X166838371Y-115719926D02*
X166790752Y-115719926D01*
X166790752Y-115719926D02*
X166743133Y-115743736D01*
X166743133Y-115743736D02*
X166719323Y-115767545D01*
X166719323Y-115767545D02*
X166695514Y-115815164D01*
X166695514Y-115815164D02*
X166671704Y-115910402D01*
X166671704Y-115910402D02*
X166647895Y-115958021D01*
X166647895Y-115958021D02*
X166624085Y-115981831D01*
X166624085Y-115981831D02*
X166576466Y-116005640D01*
X166576466Y-116005640D02*
X166528847Y-116005640D01*
X166528847Y-116005640D02*
X166481228Y-115981831D01*
X166481228Y-115981831D02*
X166457419Y-115958021D01*
X166457419Y-115958021D02*
X166433609Y-115910402D01*
X166433609Y-115910402D02*
X166433609Y-115791355D01*
X166433609Y-115791355D02*
X166457419Y-115719926D01*
X166885990Y-115219927D02*
X166909800Y-115243736D01*
X166909800Y-115243736D02*
X166933609Y-115315165D01*
X166933609Y-115315165D02*
X166933609Y-115362784D01*
X166933609Y-115362784D02*
X166909800Y-115434212D01*
X166909800Y-115434212D02*
X166862180Y-115481831D01*
X166862180Y-115481831D02*
X166814561Y-115505641D01*
X166814561Y-115505641D02*
X166719323Y-115529450D01*
X166719323Y-115529450D02*
X166647895Y-115529450D01*
X166647895Y-115529450D02*
X166552657Y-115505641D01*
X166552657Y-115505641D02*
X166505038Y-115481831D01*
X166505038Y-115481831D02*
X166457419Y-115434212D01*
X166457419Y-115434212D02*
X166433609Y-115362784D01*
X166433609Y-115362784D02*
X166433609Y-115315165D01*
X166433609Y-115315165D02*
X166457419Y-115243736D01*
X166457419Y-115243736D02*
X166481228Y-115219927D01*
X166933609Y-114767546D02*
X166933609Y-115005641D01*
X166933609Y-115005641D02*
X166433609Y-115005641D01*
X172066390Y-97184836D02*
X172566390Y-97184836D01*
X172566390Y-97184836D02*
X172566390Y-97375312D01*
X172566390Y-97375312D02*
X172542580Y-97422931D01*
X172542580Y-97422931D02*
X172518771Y-97446741D01*
X172518771Y-97446741D02*
X172471152Y-97470550D01*
X172471152Y-97470550D02*
X172399723Y-97470550D01*
X172399723Y-97470550D02*
X172352104Y-97446741D01*
X172352104Y-97446741D02*
X172328295Y-97422931D01*
X172328295Y-97422931D02*
X172304485Y-97375312D01*
X172304485Y-97375312D02*
X172304485Y-97184836D01*
X172518771Y-97661027D02*
X172542580Y-97684836D01*
X172542580Y-97684836D02*
X172566390Y-97732455D01*
X172566390Y-97732455D02*
X172566390Y-97851503D01*
X172566390Y-97851503D02*
X172542580Y-97899122D01*
X172542580Y-97899122D02*
X172518771Y-97922931D01*
X172518771Y-97922931D02*
X172471152Y-97946741D01*
X172471152Y-97946741D02*
X172423533Y-97946741D01*
X172423533Y-97946741D02*
X172352104Y-97922931D01*
X172352104Y-97922931D02*
X172066390Y-97637217D01*
X172066390Y-97637217D02*
X172066390Y-97946741D01*
X178066390Y-97184836D02*
X178566390Y-97184836D01*
X178566390Y-97184836D02*
X178566390Y-97375312D01*
X178566390Y-97375312D02*
X178542580Y-97422931D01*
X178542580Y-97422931D02*
X178518771Y-97446741D01*
X178518771Y-97446741D02*
X178471152Y-97470550D01*
X178471152Y-97470550D02*
X178399723Y-97470550D01*
X178399723Y-97470550D02*
X178352104Y-97446741D01*
X178352104Y-97446741D02*
X178328295Y-97422931D01*
X178328295Y-97422931D02*
X178304485Y-97375312D01*
X178304485Y-97375312D02*
X178304485Y-97184836D01*
X178399723Y-97899122D02*
X178066390Y-97899122D01*
X178590200Y-97780074D02*
X178233057Y-97661027D01*
X178233057Y-97661027D02*
X178233057Y-97970550D01*
X167066390Y-97184836D02*
X167566390Y-97184836D01*
X167566390Y-97184836D02*
X167566390Y-97375312D01*
X167566390Y-97375312D02*
X167542580Y-97422931D01*
X167542580Y-97422931D02*
X167518771Y-97446741D01*
X167518771Y-97446741D02*
X167471152Y-97470550D01*
X167471152Y-97470550D02*
X167399723Y-97470550D01*
X167399723Y-97470550D02*
X167352104Y-97446741D01*
X167352104Y-97446741D02*
X167328295Y-97422931D01*
X167328295Y-97422931D02*
X167304485Y-97375312D01*
X167304485Y-97375312D02*
X167304485Y-97184836D01*
X167566390Y-97922931D02*
X167566390Y-97684836D01*
X167566390Y-97684836D02*
X167328295Y-97661027D01*
X167328295Y-97661027D02*
X167352104Y-97684836D01*
X167352104Y-97684836D02*
X167375914Y-97732455D01*
X167375914Y-97732455D02*
X167375914Y-97851503D01*
X167375914Y-97851503D02*
X167352104Y-97899122D01*
X167352104Y-97899122D02*
X167328295Y-97922931D01*
X167328295Y-97922931D02*
X167280676Y-97946741D01*
X167280676Y-97946741D02*
X167161628Y-97946741D01*
X167161628Y-97946741D02*
X167114009Y-97922931D01*
X167114009Y-97922931D02*
X167090200Y-97899122D01*
X167090200Y-97899122D02*
X167066390Y-97851503D01*
X167066390Y-97851503D02*
X167066390Y-97732455D01*
X167066390Y-97732455D02*
X167090200Y-97684836D01*
X167090200Y-97684836D02*
X167114009Y-97661027D01*
X185933609Y-118815163D02*
X185433609Y-118815163D01*
X185933609Y-118291354D02*
X185695514Y-118458020D01*
X185933609Y-118577068D02*
X185433609Y-118577068D01*
X185433609Y-118577068D02*
X185433609Y-118386592D01*
X185433609Y-118386592D02*
X185457419Y-118338973D01*
X185457419Y-118338973D02*
X185481228Y-118315163D01*
X185481228Y-118315163D02*
X185528847Y-118291354D01*
X185528847Y-118291354D02*
X185600276Y-118291354D01*
X185600276Y-118291354D02*
X185647895Y-118315163D01*
X185647895Y-118315163D02*
X185671704Y-118338973D01*
X185671704Y-118338973D02*
X185695514Y-118386592D01*
X185695514Y-118386592D02*
X185695514Y-118577068D01*
X185933609Y-117410402D02*
X185695514Y-117577068D01*
X185933609Y-117696116D02*
X185433609Y-117696116D01*
X185433609Y-117696116D02*
X185433609Y-117505640D01*
X185433609Y-117505640D02*
X185457419Y-117458021D01*
X185457419Y-117458021D02*
X185481228Y-117434211D01*
X185481228Y-117434211D02*
X185528847Y-117410402D01*
X185528847Y-117410402D02*
X185600276Y-117410402D01*
X185600276Y-117410402D02*
X185647895Y-117434211D01*
X185647895Y-117434211D02*
X185671704Y-117458021D01*
X185671704Y-117458021D02*
X185695514Y-117505640D01*
X185695514Y-117505640D02*
X185695514Y-117696116D01*
X185671704Y-117196116D02*
X185671704Y-117029449D01*
X185933609Y-116958021D02*
X185933609Y-117196116D01*
X185933609Y-117196116D02*
X185433609Y-117196116D01*
X185433609Y-117196116D02*
X185433609Y-116958021D01*
X185885990Y-116458021D02*
X185909800Y-116481830D01*
X185909800Y-116481830D02*
X185933609Y-116553259D01*
X185933609Y-116553259D02*
X185933609Y-116600878D01*
X185933609Y-116600878D02*
X185909800Y-116672306D01*
X185909800Y-116672306D02*
X185862180Y-116719925D01*
X185862180Y-116719925D02*
X185814561Y-116743735D01*
X185814561Y-116743735D02*
X185719323Y-116767544D01*
X185719323Y-116767544D02*
X185647895Y-116767544D01*
X185647895Y-116767544D02*
X185552657Y-116743735D01*
X185552657Y-116743735D02*
X185505038Y-116719925D01*
X185505038Y-116719925D02*
X185457419Y-116672306D01*
X185457419Y-116672306D02*
X185433609Y-116600878D01*
X185433609Y-116600878D02*
X185433609Y-116553259D01*
X185433609Y-116553259D02*
X185457419Y-116481830D01*
X185457419Y-116481830D02*
X185481228Y-116458021D01*
X185433609Y-116315163D02*
X185933609Y-116148497D01*
X185933609Y-116148497D02*
X185433609Y-115981830D01*
X170066390Y-97184836D02*
X170566390Y-97184836D01*
X170566390Y-97184836D02*
X170566390Y-97375312D01*
X170566390Y-97375312D02*
X170542580Y-97422931D01*
X170542580Y-97422931D02*
X170518771Y-97446741D01*
X170518771Y-97446741D02*
X170471152Y-97470550D01*
X170471152Y-97470550D02*
X170399723Y-97470550D01*
X170399723Y-97470550D02*
X170352104Y-97446741D01*
X170352104Y-97446741D02*
X170328295Y-97422931D01*
X170328295Y-97422931D02*
X170304485Y-97375312D01*
X170304485Y-97375312D02*
X170304485Y-97184836D01*
X170566390Y-97637217D02*
X170566390Y-97946741D01*
X170566390Y-97946741D02*
X170375914Y-97780074D01*
X170375914Y-97780074D02*
X170375914Y-97851503D01*
X170375914Y-97851503D02*
X170352104Y-97899122D01*
X170352104Y-97899122D02*
X170328295Y-97922931D01*
X170328295Y-97922931D02*
X170280676Y-97946741D01*
X170280676Y-97946741D02*
X170161628Y-97946741D01*
X170161628Y-97946741D02*
X170114009Y-97922931D01*
X170114009Y-97922931D02*
X170090200Y-97899122D01*
X170090200Y-97899122D02*
X170066390Y-97851503D01*
X170066390Y-97851503D02*
X170066390Y-97708646D01*
X170066390Y-97708646D02*
X170090200Y-97661027D01*
X170090200Y-97661027D02*
X170114009Y-97637217D01*
D13*
X159483082Y-84729400D02*
X159697368Y-84800828D01*
X159697368Y-84800828D02*
X160054510Y-84800828D01*
X160054510Y-84800828D02*
X160197368Y-84729400D01*
X160197368Y-84729400D02*
X160268796Y-84657971D01*
X160268796Y-84657971D02*
X160340225Y-84515114D01*
X160340225Y-84515114D02*
X160340225Y-84372257D01*
X160340225Y-84372257D02*
X160268796Y-84229400D01*
X160268796Y-84229400D02*
X160197368Y-84157971D01*
X160197368Y-84157971D02*
X160054510Y-84086542D01*
X160054510Y-84086542D02*
X159768796Y-84015114D01*
X159768796Y-84015114D02*
X159625939Y-83943685D01*
X159625939Y-83943685D02*
X159554510Y-83872257D01*
X159554510Y-83872257D02*
X159483082Y-83729400D01*
X159483082Y-83729400D02*
X159483082Y-83586542D01*
X159483082Y-83586542D02*
X159554510Y-83443685D01*
X159554510Y-83443685D02*
X159625939Y-83372257D01*
X159625939Y-83372257D02*
X159768796Y-83300828D01*
X159768796Y-83300828D02*
X160125939Y-83300828D01*
X160125939Y-83300828D02*
X160340225Y-83372257D01*
X161840224Y-84657971D02*
X161768796Y-84729400D01*
X161768796Y-84729400D02*
X161554510Y-84800828D01*
X161554510Y-84800828D02*
X161411653Y-84800828D01*
X161411653Y-84800828D02*
X161197367Y-84729400D01*
X161197367Y-84729400D02*
X161054510Y-84586542D01*
X161054510Y-84586542D02*
X160983081Y-84443685D01*
X160983081Y-84443685D02*
X160911653Y-84157971D01*
X160911653Y-84157971D02*
X160911653Y-83943685D01*
X160911653Y-83943685D02*
X160983081Y-83657971D01*
X160983081Y-83657971D02*
X161054510Y-83515114D01*
X161054510Y-83515114D02*
X161197367Y-83372257D01*
X161197367Y-83372257D02*
X161411653Y-83300828D01*
X161411653Y-83300828D02*
X161554510Y-83300828D01*
X161554510Y-83300828D02*
X161768796Y-83372257D01*
X161768796Y-83372257D02*
X161840224Y-83443685D01*
X163340224Y-84800828D02*
X162840224Y-84086542D01*
X162483081Y-84800828D02*
X162483081Y-83300828D01*
X162483081Y-83300828D02*
X163054510Y-83300828D01*
X163054510Y-83300828D02*
X163197367Y-83372257D01*
X163197367Y-83372257D02*
X163268796Y-83443685D01*
X163268796Y-83443685D02*
X163340224Y-83586542D01*
X163340224Y-83586542D02*
X163340224Y-83800828D01*
X163340224Y-83800828D02*
X163268796Y-83943685D01*
X163268796Y-83943685D02*
X163197367Y-84015114D01*
X163197367Y-84015114D02*
X163054510Y-84086542D01*
X163054510Y-84086542D02*
X162483081Y-84086542D01*
X163983081Y-84015114D02*
X164483081Y-84015114D01*
X164697367Y-84800828D02*
X163983081Y-84800828D01*
X163983081Y-84800828D02*
X163983081Y-83300828D01*
X163983081Y-83300828D02*
X164697367Y-83300828D01*
X165340224Y-84015114D02*
X165840224Y-84015114D01*
X166054510Y-84800828D02*
X165340224Y-84800828D01*
X165340224Y-84800828D02*
X165340224Y-83300828D01*
X165340224Y-83300828D02*
X166054510Y-83300828D01*
X166697367Y-84800828D02*
X166697367Y-83300828D01*
X166697367Y-83300828D02*
X167554510Y-84800828D01*
X167554510Y-84800828D02*
X167554510Y-83300828D01*
X169411653Y-84800828D02*
X169411653Y-83300828D01*
X169411653Y-84015114D02*
X170268796Y-84015114D01*
X170268796Y-84800828D02*
X170268796Y-83300828D01*
X170983082Y-84015114D02*
X171483082Y-84015114D01*
X171697368Y-84800828D02*
X170983082Y-84800828D01*
X170983082Y-84800828D02*
X170983082Y-83300828D01*
X170983082Y-83300828D02*
X171697368Y-83300828D01*
X173197368Y-84800828D02*
X172697368Y-84086542D01*
X172340225Y-84800828D02*
X172340225Y-83300828D01*
X172340225Y-83300828D02*
X172911654Y-83300828D01*
X172911654Y-83300828D02*
X173054511Y-83372257D01*
X173054511Y-83372257D02*
X173125940Y-83443685D01*
X173125940Y-83443685D02*
X173197368Y-83586542D01*
X173197368Y-83586542D02*
X173197368Y-83800828D01*
X173197368Y-83800828D02*
X173125940Y-83943685D01*
X173125940Y-83943685D02*
X173054511Y-84015114D01*
X173054511Y-84015114D02*
X172911654Y-84086542D01*
X172911654Y-84086542D02*
X172340225Y-84086542D01*
X173840225Y-84015114D02*
X174340225Y-84015114D01*
X174554511Y-84800828D02*
X173840225Y-84800828D01*
X173840225Y-84800828D02*
X173840225Y-83300828D01*
X173840225Y-83300828D02*
X174554511Y-83300828D01*
D12*
X172909800Y-118838972D02*
X172933609Y-118767544D01*
X172933609Y-118767544D02*
X172933609Y-118648496D01*
X172933609Y-118648496D02*
X172909800Y-118600877D01*
X172909800Y-118600877D02*
X172885990Y-118577068D01*
X172885990Y-118577068D02*
X172838371Y-118553258D01*
X172838371Y-118553258D02*
X172790752Y-118553258D01*
X172790752Y-118553258D02*
X172743133Y-118577068D01*
X172743133Y-118577068D02*
X172719323Y-118600877D01*
X172719323Y-118600877D02*
X172695514Y-118648496D01*
X172695514Y-118648496D02*
X172671704Y-118743734D01*
X172671704Y-118743734D02*
X172647895Y-118791353D01*
X172647895Y-118791353D02*
X172624085Y-118815163D01*
X172624085Y-118815163D02*
X172576466Y-118838972D01*
X172576466Y-118838972D02*
X172528847Y-118838972D01*
X172528847Y-118838972D02*
X172481228Y-118815163D01*
X172481228Y-118815163D02*
X172457419Y-118791353D01*
X172457419Y-118791353D02*
X172433609Y-118743734D01*
X172433609Y-118743734D02*
X172433609Y-118624687D01*
X172433609Y-118624687D02*
X172457419Y-118553258D01*
X172885990Y-118053259D02*
X172909800Y-118077068D01*
X172909800Y-118077068D02*
X172933609Y-118148497D01*
X172933609Y-118148497D02*
X172933609Y-118196116D01*
X172933609Y-118196116D02*
X172909800Y-118267544D01*
X172909800Y-118267544D02*
X172862180Y-118315163D01*
X172862180Y-118315163D02*
X172814561Y-118338973D01*
X172814561Y-118338973D02*
X172719323Y-118362782D01*
X172719323Y-118362782D02*
X172647895Y-118362782D01*
X172647895Y-118362782D02*
X172552657Y-118338973D01*
X172552657Y-118338973D02*
X172505038Y-118315163D01*
X172505038Y-118315163D02*
X172457419Y-118267544D01*
X172457419Y-118267544D02*
X172433609Y-118196116D01*
X172433609Y-118196116D02*
X172433609Y-118148497D01*
X172433609Y-118148497D02*
X172457419Y-118077068D01*
X172457419Y-118077068D02*
X172481228Y-118053259D01*
X172933609Y-117553259D02*
X172695514Y-117719925D01*
X172933609Y-117838973D02*
X172433609Y-117838973D01*
X172433609Y-117838973D02*
X172433609Y-117648497D01*
X172433609Y-117648497D02*
X172457419Y-117600878D01*
X172457419Y-117600878D02*
X172481228Y-117577068D01*
X172481228Y-117577068D02*
X172528847Y-117553259D01*
X172528847Y-117553259D02*
X172600276Y-117553259D01*
X172600276Y-117553259D02*
X172647895Y-117577068D01*
X172647895Y-117577068D02*
X172671704Y-117600878D01*
X172671704Y-117600878D02*
X172695514Y-117648497D01*
X172695514Y-117648497D02*
X172695514Y-117838973D01*
X172671704Y-117338973D02*
X172671704Y-117172306D01*
X172933609Y-117100878D02*
X172933609Y-117338973D01*
X172933609Y-117338973D02*
X172433609Y-117338973D01*
X172433609Y-117338973D02*
X172433609Y-117100878D01*
X172671704Y-116886592D02*
X172671704Y-116719925D01*
X172933609Y-116648497D02*
X172933609Y-116886592D01*
X172933609Y-116886592D02*
X172433609Y-116886592D01*
X172433609Y-116886592D02*
X172433609Y-116648497D01*
X172933609Y-116434211D02*
X172433609Y-116434211D01*
X172433609Y-116434211D02*
X172933609Y-116148497D01*
X172933609Y-116148497D02*
X172433609Y-116148497D01*
X172909800Y-115553258D02*
X172933609Y-115481830D01*
X172933609Y-115481830D02*
X172933609Y-115362782D01*
X172933609Y-115362782D02*
X172909800Y-115315163D01*
X172909800Y-115315163D02*
X172885990Y-115291354D01*
X172885990Y-115291354D02*
X172838371Y-115267544D01*
X172838371Y-115267544D02*
X172790752Y-115267544D01*
X172790752Y-115267544D02*
X172743133Y-115291354D01*
X172743133Y-115291354D02*
X172719323Y-115315163D01*
X172719323Y-115315163D02*
X172695514Y-115362782D01*
X172695514Y-115362782D02*
X172671704Y-115458020D01*
X172671704Y-115458020D02*
X172647895Y-115505639D01*
X172647895Y-115505639D02*
X172624085Y-115529449D01*
X172624085Y-115529449D02*
X172576466Y-115553258D01*
X172576466Y-115553258D02*
X172528847Y-115553258D01*
X172528847Y-115553258D02*
X172481228Y-115529449D01*
X172481228Y-115529449D02*
X172457419Y-115505639D01*
X172457419Y-115505639D02*
X172433609Y-115458020D01*
X172433609Y-115458020D02*
X172433609Y-115338973D01*
X172433609Y-115338973D02*
X172457419Y-115267544D01*
X172933609Y-115053259D02*
X172433609Y-115053259D01*
X172433609Y-115053259D02*
X172433609Y-114934211D01*
X172433609Y-114934211D02*
X172457419Y-114862783D01*
X172457419Y-114862783D02*
X172505038Y-114815164D01*
X172505038Y-114815164D02*
X172552657Y-114791354D01*
X172552657Y-114791354D02*
X172647895Y-114767545D01*
X172647895Y-114767545D02*
X172719323Y-114767545D01*
X172719323Y-114767545D02*
X172814561Y-114791354D01*
X172814561Y-114791354D02*
X172862180Y-114815164D01*
X172862180Y-114815164D02*
X172909800Y-114862783D01*
X172909800Y-114862783D02*
X172933609Y-114934211D01*
X172933609Y-114934211D02*
X172933609Y-115053259D01*
X172790752Y-114577068D02*
X172790752Y-114338973D01*
X172933609Y-114624687D02*
X172433609Y-114458021D01*
X172433609Y-114458021D02*
X172933609Y-114291354D01*
D13*
X165804510Y-104015114D02*
X166304510Y-104015114D01*
X166518796Y-104800828D02*
X165804510Y-104800828D01*
X165804510Y-104800828D02*
X165804510Y-103300828D01*
X165804510Y-103300828D02*
X166518796Y-103300828D01*
X167090225Y-104729400D02*
X167304511Y-104800828D01*
X167304511Y-104800828D02*
X167661653Y-104800828D01*
X167661653Y-104800828D02*
X167804511Y-104729400D01*
X167804511Y-104729400D02*
X167875939Y-104657971D01*
X167875939Y-104657971D02*
X167947368Y-104515114D01*
X167947368Y-104515114D02*
X167947368Y-104372257D01*
X167947368Y-104372257D02*
X167875939Y-104229400D01*
X167875939Y-104229400D02*
X167804511Y-104157971D01*
X167804511Y-104157971D02*
X167661653Y-104086542D01*
X167661653Y-104086542D02*
X167375939Y-104015114D01*
X167375939Y-104015114D02*
X167233082Y-103943685D01*
X167233082Y-103943685D02*
X167161653Y-103872257D01*
X167161653Y-103872257D02*
X167090225Y-103729400D01*
X167090225Y-103729400D02*
X167090225Y-103586542D01*
X167090225Y-103586542D02*
X167161653Y-103443685D01*
X167161653Y-103443685D02*
X167233082Y-103372257D01*
X167233082Y-103372257D02*
X167375939Y-103300828D01*
X167375939Y-103300828D02*
X167733082Y-103300828D01*
X167733082Y-103300828D02*
X167947368Y-103372257D01*
X168590224Y-104800828D02*
X168590224Y-103300828D01*
X168590224Y-103300828D02*
X169161653Y-103300828D01*
X169161653Y-103300828D02*
X169304510Y-103372257D01*
X169304510Y-103372257D02*
X169375939Y-103443685D01*
X169375939Y-103443685D02*
X169447367Y-103586542D01*
X169447367Y-103586542D02*
X169447367Y-103800828D01*
X169447367Y-103800828D02*
X169375939Y-103943685D01*
X169375939Y-103943685D02*
X169304510Y-104015114D01*
X169304510Y-104015114D02*
X169161653Y-104086542D01*
X169161653Y-104086542D02*
X168590224Y-104086542D01*
X171233081Y-104800828D02*
X171233081Y-103300828D01*
X171233081Y-104015114D02*
X172090224Y-104015114D01*
X172090224Y-104800828D02*
X172090224Y-103300828D01*
X172804510Y-104015114D02*
X173304510Y-104015114D01*
X173518796Y-104800828D02*
X172804510Y-104800828D01*
X172804510Y-104800828D02*
X172804510Y-103300828D01*
X172804510Y-103300828D02*
X173518796Y-103300828D01*
X175018796Y-104800828D02*
X174518796Y-104086542D01*
X174161653Y-104800828D02*
X174161653Y-103300828D01*
X174161653Y-103300828D02*
X174733082Y-103300828D01*
X174733082Y-103300828D02*
X174875939Y-103372257D01*
X174875939Y-103372257D02*
X174947368Y-103443685D01*
X174947368Y-103443685D02*
X175018796Y-103586542D01*
X175018796Y-103586542D02*
X175018796Y-103800828D01*
X175018796Y-103800828D02*
X174947368Y-103943685D01*
X174947368Y-103943685D02*
X174875939Y-104015114D01*
X174875939Y-104015114D02*
X174733082Y-104086542D01*
X174733082Y-104086542D02*
X174161653Y-104086542D01*
X175661653Y-104015114D02*
X176161653Y-104015114D01*
X176375939Y-104800828D02*
X175661653Y-104800828D01*
X175661653Y-104800828D02*
X175661653Y-103300828D01*
X175661653Y-103300828D02*
X176375939Y-103300828D01*
D12*
X169909800Y-118838972D02*
X169933609Y-118767544D01*
X169933609Y-118767544D02*
X169933609Y-118648496D01*
X169933609Y-118648496D02*
X169909800Y-118600877D01*
X169909800Y-118600877D02*
X169885990Y-118577068D01*
X169885990Y-118577068D02*
X169838371Y-118553258D01*
X169838371Y-118553258D02*
X169790752Y-118553258D01*
X169790752Y-118553258D02*
X169743133Y-118577068D01*
X169743133Y-118577068D02*
X169719323Y-118600877D01*
X169719323Y-118600877D02*
X169695514Y-118648496D01*
X169695514Y-118648496D02*
X169671704Y-118743734D01*
X169671704Y-118743734D02*
X169647895Y-118791353D01*
X169647895Y-118791353D02*
X169624085Y-118815163D01*
X169624085Y-118815163D02*
X169576466Y-118838972D01*
X169576466Y-118838972D02*
X169528847Y-118838972D01*
X169528847Y-118838972D02*
X169481228Y-118815163D01*
X169481228Y-118815163D02*
X169457419Y-118791353D01*
X169457419Y-118791353D02*
X169433609Y-118743734D01*
X169433609Y-118743734D02*
X169433609Y-118624687D01*
X169433609Y-118624687D02*
X169457419Y-118553258D01*
X169885990Y-118053259D02*
X169909800Y-118077068D01*
X169909800Y-118077068D02*
X169933609Y-118148497D01*
X169933609Y-118148497D02*
X169933609Y-118196116D01*
X169933609Y-118196116D02*
X169909800Y-118267544D01*
X169909800Y-118267544D02*
X169862180Y-118315163D01*
X169862180Y-118315163D02*
X169814561Y-118338973D01*
X169814561Y-118338973D02*
X169719323Y-118362782D01*
X169719323Y-118362782D02*
X169647895Y-118362782D01*
X169647895Y-118362782D02*
X169552657Y-118338973D01*
X169552657Y-118338973D02*
X169505038Y-118315163D01*
X169505038Y-118315163D02*
X169457419Y-118267544D01*
X169457419Y-118267544D02*
X169433609Y-118196116D01*
X169433609Y-118196116D02*
X169433609Y-118148497D01*
X169433609Y-118148497D02*
X169457419Y-118077068D01*
X169457419Y-118077068D02*
X169481228Y-118053259D01*
X169933609Y-117553259D02*
X169695514Y-117719925D01*
X169933609Y-117838973D02*
X169433609Y-117838973D01*
X169433609Y-117838973D02*
X169433609Y-117648497D01*
X169433609Y-117648497D02*
X169457419Y-117600878D01*
X169457419Y-117600878D02*
X169481228Y-117577068D01*
X169481228Y-117577068D02*
X169528847Y-117553259D01*
X169528847Y-117553259D02*
X169600276Y-117553259D01*
X169600276Y-117553259D02*
X169647895Y-117577068D01*
X169647895Y-117577068D02*
X169671704Y-117600878D01*
X169671704Y-117600878D02*
X169695514Y-117648497D01*
X169695514Y-117648497D02*
X169695514Y-117838973D01*
X169671704Y-117338973D02*
X169671704Y-117172306D01*
X169933609Y-117100878D02*
X169933609Y-117338973D01*
X169933609Y-117338973D02*
X169433609Y-117338973D01*
X169433609Y-117338973D02*
X169433609Y-117100878D01*
X169671704Y-116886592D02*
X169671704Y-116719925D01*
X169933609Y-116648497D02*
X169933609Y-116886592D01*
X169933609Y-116886592D02*
X169433609Y-116886592D01*
X169433609Y-116886592D02*
X169433609Y-116648497D01*
X169933609Y-116434211D02*
X169433609Y-116434211D01*
X169433609Y-116434211D02*
X169933609Y-116148497D01*
X169933609Y-116148497D02*
X169433609Y-116148497D01*
X169909800Y-115553258D02*
X169933609Y-115481830D01*
X169933609Y-115481830D02*
X169933609Y-115362782D01*
X169933609Y-115362782D02*
X169909800Y-115315163D01*
X169909800Y-115315163D02*
X169885990Y-115291354D01*
X169885990Y-115291354D02*
X169838371Y-115267544D01*
X169838371Y-115267544D02*
X169790752Y-115267544D01*
X169790752Y-115267544D02*
X169743133Y-115291354D01*
X169743133Y-115291354D02*
X169719323Y-115315163D01*
X169719323Y-115315163D02*
X169695514Y-115362782D01*
X169695514Y-115362782D02*
X169671704Y-115458020D01*
X169671704Y-115458020D02*
X169647895Y-115505639D01*
X169647895Y-115505639D02*
X169624085Y-115529449D01*
X169624085Y-115529449D02*
X169576466Y-115553258D01*
X169576466Y-115553258D02*
X169528847Y-115553258D01*
X169528847Y-115553258D02*
X169481228Y-115529449D01*
X169481228Y-115529449D02*
X169457419Y-115505639D01*
X169457419Y-115505639D02*
X169433609Y-115458020D01*
X169433609Y-115458020D02*
X169433609Y-115338973D01*
X169433609Y-115338973D02*
X169457419Y-115267544D01*
X169885990Y-114767545D02*
X169909800Y-114791354D01*
X169909800Y-114791354D02*
X169933609Y-114862783D01*
X169933609Y-114862783D02*
X169933609Y-114910402D01*
X169933609Y-114910402D02*
X169909800Y-114981830D01*
X169909800Y-114981830D02*
X169862180Y-115029449D01*
X169862180Y-115029449D02*
X169814561Y-115053259D01*
X169814561Y-115053259D02*
X169719323Y-115077068D01*
X169719323Y-115077068D02*
X169647895Y-115077068D01*
X169647895Y-115077068D02*
X169552657Y-115053259D01*
X169552657Y-115053259D02*
X169505038Y-115029449D01*
X169505038Y-115029449D02*
X169457419Y-114981830D01*
X169457419Y-114981830D02*
X169433609Y-114910402D01*
X169433609Y-114910402D02*
X169433609Y-114862783D01*
X169433609Y-114862783D02*
X169457419Y-114791354D01*
X169457419Y-114791354D02*
X169481228Y-114767545D01*
X169933609Y-114315164D02*
X169933609Y-114553259D01*
X169933609Y-114553259D02*
X169433609Y-114553259D01*
X164933609Y-118815163D02*
X164433609Y-118815163D01*
X164433609Y-118815163D02*
X164433609Y-118624687D01*
X164433609Y-118624687D02*
X164457419Y-118577068D01*
X164457419Y-118577068D02*
X164481228Y-118553258D01*
X164481228Y-118553258D02*
X164528847Y-118529449D01*
X164528847Y-118529449D02*
X164600276Y-118529449D01*
X164600276Y-118529449D02*
X164647895Y-118553258D01*
X164647895Y-118553258D02*
X164671704Y-118577068D01*
X164671704Y-118577068D02*
X164695514Y-118624687D01*
X164695514Y-118624687D02*
X164695514Y-118815163D01*
X164933609Y-118315163D02*
X164433609Y-118315163D01*
X164433609Y-118315163D02*
X164933609Y-118029449D01*
X164933609Y-118029449D02*
X164433609Y-118029449D01*
X164433609Y-117553258D02*
X164433609Y-117791353D01*
X164433609Y-117791353D02*
X164671704Y-117815162D01*
X164671704Y-117815162D02*
X164647895Y-117791353D01*
X164647895Y-117791353D02*
X164624085Y-117743734D01*
X164624085Y-117743734D02*
X164624085Y-117624686D01*
X164624085Y-117624686D02*
X164647895Y-117577067D01*
X164647895Y-117577067D02*
X164671704Y-117553258D01*
X164671704Y-117553258D02*
X164719323Y-117529448D01*
X164719323Y-117529448D02*
X164838371Y-117529448D01*
X164838371Y-117529448D02*
X164885990Y-117553258D01*
X164885990Y-117553258D02*
X164909800Y-117577067D01*
X164909800Y-117577067D02*
X164933609Y-117624686D01*
X164933609Y-117624686D02*
X164933609Y-117743734D01*
X164933609Y-117743734D02*
X164909800Y-117791353D01*
X164909800Y-117791353D02*
X164885990Y-117815162D01*
X164433609Y-117362782D02*
X164433609Y-117053258D01*
X164433609Y-117053258D02*
X164624085Y-117219925D01*
X164624085Y-117219925D02*
X164624085Y-117148496D01*
X164624085Y-117148496D02*
X164647895Y-117100877D01*
X164647895Y-117100877D02*
X164671704Y-117077068D01*
X164671704Y-117077068D02*
X164719323Y-117053258D01*
X164719323Y-117053258D02*
X164838371Y-117053258D01*
X164838371Y-117053258D02*
X164885990Y-117077068D01*
X164885990Y-117077068D02*
X164909800Y-117100877D01*
X164909800Y-117100877D02*
X164933609Y-117148496D01*
X164933609Y-117148496D02*
X164933609Y-117291353D01*
X164933609Y-117291353D02*
X164909800Y-117338972D01*
X164909800Y-117338972D02*
X164885990Y-117362782D01*
X164481228Y-116862782D02*
X164457419Y-116838973D01*
X164457419Y-116838973D02*
X164433609Y-116791354D01*
X164433609Y-116791354D02*
X164433609Y-116672306D01*
X164433609Y-116672306D02*
X164457419Y-116624687D01*
X164457419Y-116624687D02*
X164481228Y-116600878D01*
X164481228Y-116600878D02*
X164528847Y-116577068D01*
X164528847Y-116577068D02*
X164576466Y-116577068D01*
X164576466Y-116577068D02*
X164647895Y-116600878D01*
X164647895Y-116600878D02*
X164933609Y-116886592D01*
X164933609Y-116886592D02*
X164933609Y-116577068D01*
X164909800Y-116005640D02*
X164933609Y-115934212D01*
X164933609Y-115934212D02*
X164933609Y-115815164D01*
X164933609Y-115815164D02*
X164909800Y-115767545D01*
X164909800Y-115767545D02*
X164885990Y-115743736D01*
X164885990Y-115743736D02*
X164838371Y-115719926D01*
X164838371Y-115719926D02*
X164790752Y-115719926D01*
X164790752Y-115719926D02*
X164743133Y-115743736D01*
X164743133Y-115743736D02*
X164719323Y-115767545D01*
X164719323Y-115767545D02*
X164695514Y-115815164D01*
X164695514Y-115815164D02*
X164671704Y-115910402D01*
X164671704Y-115910402D02*
X164647895Y-115958021D01*
X164647895Y-115958021D02*
X164624085Y-115981831D01*
X164624085Y-115981831D02*
X164576466Y-116005640D01*
X164576466Y-116005640D02*
X164528847Y-116005640D01*
X164528847Y-116005640D02*
X164481228Y-115981831D01*
X164481228Y-115981831D02*
X164457419Y-115958021D01*
X164457419Y-115958021D02*
X164433609Y-115910402D01*
X164433609Y-115910402D02*
X164433609Y-115791355D01*
X164433609Y-115791355D02*
X164457419Y-115719926D01*
X164933609Y-115505641D02*
X164433609Y-115505641D01*
X164433609Y-115505641D02*
X164433609Y-115386593D01*
X164433609Y-115386593D02*
X164457419Y-115315165D01*
X164457419Y-115315165D02*
X164505038Y-115267546D01*
X164505038Y-115267546D02*
X164552657Y-115243736D01*
X164552657Y-115243736D02*
X164647895Y-115219927D01*
X164647895Y-115219927D02*
X164719323Y-115219927D01*
X164719323Y-115219927D02*
X164814561Y-115243736D01*
X164814561Y-115243736D02*
X164862180Y-115267546D01*
X164862180Y-115267546D02*
X164909800Y-115315165D01*
X164909800Y-115315165D02*
X164933609Y-115386593D01*
X164933609Y-115386593D02*
X164933609Y-115505641D01*
X164790752Y-115029450D02*
X164790752Y-114791355D01*
X164933609Y-115077069D02*
X164433609Y-114910403D01*
X164433609Y-114910403D02*
X164933609Y-114743736D01*
D14*
X169043095Y-107154819D02*
X169043095Y-107964342D01*
X169043095Y-107964342D02*
X169090714Y-108059580D01*
X169090714Y-108059580D02*
X169138333Y-108107200D01*
X169138333Y-108107200D02*
X169233571Y-108154819D01*
X169233571Y-108154819D02*
X169424047Y-108154819D01*
X169424047Y-108154819D02*
X169519285Y-108107200D01*
X169519285Y-108107200D02*
X169566904Y-108059580D01*
X169566904Y-108059580D02*
X169614523Y-107964342D01*
X169614523Y-107964342D02*
X169614523Y-107154819D01*
X170043095Y-107250057D02*
X170090714Y-107202438D01*
X170090714Y-107202438D02*
X170185952Y-107154819D01*
X170185952Y-107154819D02*
X170424047Y-107154819D01*
X170424047Y-107154819D02*
X170519285Y-107202438D01*
X170519285Y-107202438D02*
X170566904Y-107250057D01*
X170566904Y-107250057D02*
X170614523Y-107345295D01*
X170614523Y-107345295D02*
X170614523Y-107440533D01*
X170614523Y-107440533D02*
X170566904Y-107583390D01*
X170566904Y-107583390D02*
X169995476Y-108154819D01*
X169995476Y-108154819D02*
X170614523Y-108154819D01*
X200838095Y-98679819D02*
X200838095Y-99489342D01*
X200838095Y-99489342D02*
X200885714Y-99584580D01*
X200885714Y-99584580D02*
X200933333Y-99632200D01*
X200933333Y-99632200D02*
X201028571Y-99679819D01*
X201028571Y-99679819D02*
X201219047Y-99679819D01*
X201219047Y-99679819D02*
X201314285Y-99632200D01*
X201314285Y-99632200D02*
X201361904Y-99584580D01*
X201361904Y-99584580D02*
X201409523Y-99489342D01*
X201409523Y-99489342D02*
X201409523Y-98679819D01*
X202409523Y-99679819D02*
X201838095Y-99679819D01*
X202123809Y-99679819D02*
X202123809Y-98679819D01*
X202123809Y-98679819D02*
X202028571Y-98822676D01*
X202028571Y-98822676D02*
X201933333Y-98917914D01*
X201933333Y-98917914D02*
X201838095Y-98965533D01*
X184666666Y-66074819D02*
X184666666Y-66789104D01*
X184666666Y-66789104D02*
X184619047Y-66931961D01*
X184619047Y-66931961D02*
X184523809Y-67027200D01*
X184523809Y-67027200D02*
X184380952Y-67074819D01*
X184380952Y-67074819D02*
X184285714Y-67074819D01*
X185095238Y-66170057D02*
X185142857Y-66122438D01*
X185142857Y-66122438D02*
X185238095Y-66074819D01*
X185238095Y-66074819D02*
X185476190Y-66074819D01*
X185476190Y-66074819D02*
X185571428Y-66122438D01*
X185571428Y-66122438D02*
X185619047Y-66170057D01*
X185619047Y-66170057D02*
X185666666Y-66265295D01*
X185666666Y-66265295D02*
X185666666Y-66360533D01*
X185666666Y-66360533D02*
X185619047Y-66503390D01*
X185619047Y-66503390D02*
X185047619Y-67074819D01*
X185047619Y-67074819D02*
X185666666Y-67074819D01*
X217707200Y-78333332D02*
X217754819Y-78190475D01*
X217754819Y-78190475D02*
X217754819Y-77952380D01*
X217754819Y-77952380D02*
X217707200Y-77857142D01*
X217707200Y-77857142D02*
X217659580Y-77809523D01*
X217659580Y-77809523D02*
X217564342Y-77761904D01*
X217564342Y-77761904D02*
X217469104Y-77761904D01*
X217469104Y-77761904D02*
X217373866Y-77809523D01*
X217373866Y-77809523D02*
X217326247Y-77857142D01*
X217326247Y-77857142D02*
X217278628Y-77952380D01*
X217278628Y-77952380D02*
X217231009Y-78142856D01*
X217231009Y-78142856D02*
X217183390Y-78238094D01*
X217183390Y-78238094D02*
X217135771Y-78285713D01*
X217135771Y-78285713D02*
X217040533Y-78333332D01*
X217040533Y-78333332D02*
X216945295Y-78333332D01*
X216945295Y-78333332D02*
X216850057Y-78285713D01*
X216850057Y-78285713D02*
X216802438Y-78238094D01*
X216802438Y-78238094D02*
X216754819Y-78142856D01*
X216754819Y-78142856D02*
X216754819Y-77904761D01*
X216754819Y-77904761D02*
X216802438Y-77761904D01*
X216754819Y-77428570D02*
X217754819Y-77190475D01*
X217754819Y-77190475D02*
X217040533Y-76999999D01*
X217040533Y-76999999D02*
X217754819Y-76809523D01*
X217754819Y-76809523D02*
X216754819Y-76571428D01*
X216754819Y-76285713D02*
X216754819Y-75666666D01*
X216754819Y-75666666D02*
X217135771Y-75999999D01*
X217135771Y-75999999D02*
X217135771Y-75857142D01*
X217135771Y-75857142D02*
X217183390Y-75761904D01*
X217183390Y-75761904D02*
X217231009Y-75714285D01*
X217231009Y-75714285D02*
X217326247Y-75666666D01*
X217326247Y-75666666D02*
X217564342Y-75666666D01*
X217564342Y-75666666D02*
X217659580Y-75714285D01*
X217659580Y-75714285D02*
X217707200Y-75761904D01*
X217707200Y-75761904D02*
X217754819Y-75857142D01*
X217754819Y-75857142D02*
X217754819Y-76142856D01*
X217754819Y-76142856D02*
X217707200Y-76238094D01*
X217707200Y-76238094D02*
X217659580Y-76285713D01*
X200666667Y-63107200D02*
X200809524Y-63154819D01*
X200809524Y-63154819D02*
X201047619Y-63154819D01*
X201047619Y-63154819D02*
X201142857Y-63107200D01*
X201142857Y-63107200D02*
X201190476Y-63059580D01*
X201190476Y-63059580D02*
X201238095Y-62964342D01*
X201238095Y-62964342D02*
X201238095Y-62869104D01*
X201238095Y-62869104D02*
X201190476Y-62773866D01*
X201190476Y-62773866D02*
X201142857Y-62726247D01*
X201142857Y-62726247D02*
X201047619Y-62678628D01*
X201047619Y-62678628D02*
X200857143Y-62631009D01*
X200857143Y-62631009D02*
X200761905Y-62583390D01*
X200761905Y-62583390D02*
X200714286Y-62535771D01*
X200714286Y-62535771D02*
X200666667Y-62440533D01*
X200666667Y-62440533D02*
X200666667Y-62345295D01*
X200666667Y-62345295D02*
X200714286Y-62250057D01*
X200714286Y-62250057D02*
X200761905Y-62202438D01*
X200761905Y-62202438D02*
X200857143Y-62154819D01*
X200857143Y-62154819D02*
X201095238Y-62154819D01*
X201095238Y-62154819D02*
X201238095Y-62202438D01*
X201571429Y-62154819D02*
X201809524Y-63154819D01*
X201809524Y-63154819D02*
X202000000Y-62440533D01*
X202000000Y-62440533D02*
X202190476Y-63154819D01*
X202190476Y-63154819D02*
X202428572Y-62154819D01*
X203333333Y-63154819D02*
X202761905Y-63154819D01*
X203047619Y-63154819D02*
X203047619Y-62154819D01*
X203047619Y-62154819D02*
X202952381Y-62297676D01*
X202952381Y-62297676D02*
X202857143Y-62392914D01*
X202857143Y-62392914D02*
X202761905Y-62440533D01*
X200666667Y-83107200D02*
X200809524Y-83154819D01*
X200809524Y-83154819D02*
X201047619Y-83154819D01*
X201047619Y-83154819D02*
X201142857Y-83107200D01*
X201142857Y-83107200D02*
X201190476Y-83059580D01*
X201190476Y-83059580D02*
X201238095Y-82964342D01*
X201238095Y-82964342D02*
X201238095Y-82869104D01*
X201238095Y-82869104D02*
X201190476Y-82773866D01*
X201190476Y-82773866D02*
X201142857Y-82726247D01*
X201142857Y-82726247D02*
X201047619Y-82678628D01*
X201047619Y-82678628D02*
X200857143Y-82631009D01*
X200857143Y-82631009D02*
X200761905Y-82583390D01*
X200761905Y-82583390D02*
X200714286Y-82535771D01*
X200714286Y-82535771D02*
X200666667Y-82440533D01*
X200666667Y-82440533D02*
X200666667Y-82345295D01*
X200666667Y-82345295D02*
X200714286Y-82250057D01*
X200714286Y-82250057D02*
X200761905Y-82202438D01*
X200761905Y-82202438D02*
X200857143Y-82154819D01*
X200857143Y-82154819D02*
X201095238Y-82154819D01*
X201095238Y-82154819D02*
X201238095Y-82202438D01*
X201571429Y-82154819D02*
X201809524Y-83154819D01*
X201809524Y-83154819D02*
X202000000Y-82440533D01*
X202000000Y-82440533D02*
X202190476Y-83154819D01*
X202190476Y-83154819D02*
X202428572Y-82154819D01*
X203238095Y-82488152D02*
X203238095Y-83154819D01*
X203000000Y-82107200D02*
X202761905Y-82821485D01*
X202761905Y-82821485D02*
X203380952Y-82821485D01*
X187107200Y-78333332D02*
X187154819Y-78190475D01*
X187154819Y-78190475D02*
X187154819Y-77952380D01*
X187154819Y-77952380D02*
X187107200Y-77857142D01*
X187107200Y-77857142D02*
X187059580Y-77809523D01*
X187059580Y-77809523D02*
X186964342Y-77761904D01*
X186964342Y-77761904D02*
X186869104Y-77761904D01*
X186869104Y-77761904D02*
X186773866Y-77809523D01*
X186773866Y-77809523D02*
X186726247Y-77857142D01*
X186726247Y-77857142D02*
X186678628Y-77952380D01*
X186678628Y-77952380D02*
X186631009Y-78142856D01*
X186631009Y-78142856D02*
X186583390Y-78238094D01*
X186583390Y-78238094D02*
X186535771Y-78285713D01*
X186535771Y-78285713D02*
X186440533Y-78333332D01*
X186440533Y-78333332D02*
X186345295Y-78333332D01*
X186345295Y-78333332D02*
X186250057Y-78285713D01*
X186250057Y-78285713D02*
X186202438Y-78238094D01*
X186202438Y-78238094D02*
X186154819Y-78142856D01*
X186154819Y-78142856D02*
X186154819Y-77904761D01*
X186154819Y-77904761D02*
X186202438Y-77761904D01*
X186154819Y-77428570D02*
X187154819Y-77190475D01*
X187154819Y-77190475D02*
X186440533Y-76999999D01*
X186440533Y-76999999D02*
X187154819Y-76809523D01*
X187154819Y-76809523D02*
X186154819Y-76571428D01*
X186250057Y-76238094D02*
X186202438Y-76190475D01*
X186202438Y-76190475D02*
X186154819Y-76095237D01*
X186154819Y-76095237D02*
X186154819Y-75857142D01*
X186154819Y-75857142D02*
X186202438Y-75761904D01*
X186202438Y-75761904D02*
X186250057Y-75714285D01*
X186250057Y-75714285D02*
X186345295Y-75666666D01*
X186345295Y-75666666D02*
X186440533Y-75666666D01*
X186440533Y-75666666D02*
X186583390Y-75714285D01*
X186583390Y-75714285D02*
X187154819Y-76285713D01*
X187154819Y-76285713D02*
X187154819Y-75666666D01*
X198107200Y-78333332D02*
X198154819Y-78190475D01*
X198154819Y-78190475D02*
X198154819Y-77952380D01*
X198154819Y-77952380D02*
X198107200Y-77857142D01*
X198107200Y-77857142D02*
X198059580Y-77809523D01*
X198059580Y-77809523D02*
X197964342Y-77761904D01*
X197964342Y-77761904D02*
X197869104Y-77761904D01*
X197869104Y-77761904D02*
X197773866Y-77809523D01*
X197773866Y-77809523D02*
X197726247Y-77857142D01*
X197726247Y-77857142D02*
X197678628Y-77952380D01*
X197678628Y-77952380D02*
X197631009Y-78142856D01*
X197631009Y-78142856D02*
X197583390Y-78238094D01*
X197583390Y-78238094D02*
X197535771Y-78285713D01*
X197535771Y-78285713D02*
X197440533Y-78333332D01*
X197440533Y-78333332D02*
X197345295Y-78333332D01*
X197345295Y-78333332D02*
X197250057Y-78285713D01*
X197250057Y-78285713D02*
X197202438Y-78238094D01*
X197202438Y-78238094D02*
X197154819Y-78142856D01*
X197154819Y-78142856D02*
X197154819Y-77904761D01*
X197154819Y-77904761D02*
X197202438Y-77761904D01*
X197154819Y-77428570D02*
X198154819Y-77190475D01*
X198154819Y-77190475D02*
X197440533Y-76999999D01*
X197440533Y-76999999D02*
X198154819Y-76809523D01*
X198154819Y-76809523D02*
X197154819Y-76571428D01*
X197154819Y-75714285D02*
X197154819Y-76190475D01*
X197154819Y-76190475D02*
X197631009Y-76238094D01*
X197631009Y-76238094D02*
X197583390Y-76190475D01*
X197583390Y-76190475D02*
X197535771Y-76095237D01*
X197535771Y-76095237D02*
X197535771Y-75857142D01*
X197535771Y-75857142D02*
X197583390Y-75761904D01*
X197583390Y-75761904D02*
X197631009Y-75714285D01*
X197631009Y-75714285D02*
X197726247Y-75666666D01*
X197726247Y-75666666D02*
X197964342Y-75666666D01*
X197964342Y-75666666D02*
X198059580Y-75714285D01*
X198059580Y-75714285D02*
X198107200Y-75761904D01*
X198107200Y-75761904D02*
X198154819Y-75857142D01*
X198154819Y-75857142D02*
X198154819Y-76095237D01*
X198154819Y-76095237D02*
X198107200Y-76190475D01*
X198107200Y-76190475D02*
X198059580Y-76238094D01*
D12*
X215042580Y-116535714D02*
X215042580Y-116726190D01*
X215042580Y-116726190D02*
X214994961Y-116821428D01*
X214994961Y-116821428D02*
X214899723Y-116916666D01*
X214899723Y-116916666D02*
X214709247Y-116964285D01*
X214709247Y-116964285D02*
X214375914Y-116964285D01*
X214375914Y-116964285D02*
X214185438Y-116916666D01*
X214185438Y-116916666D02*
X214090200Y-116821428D01*
X214090200Y-116821428D02*
X214042580Y-116726190D01*
X214042580Y-116726190D02*
X214042580Y-116535714D01*
X214042580Y-116535714D02*
X214090200Y-116440476D01*
X214090200Y-116440476D02*
X214185438Y-116345238D01*
X214185438Y-116345238D02*
X214375914Y-116297619D01*
X214375914Y-116297619D02*
X214709247Y-116297619D01*
X214709247Y-116297619D02*
X214899723Y-116345238D01*
X214899723Y-116345238D02*
X214994961Y-116440476D01*
X214994961Y-116440476D02*
X215042580Y-116535714D01*
X214042580Y-117392857D02*
X215042580Y-117392857D01*
X215042580Y-117392857D02*
X214042580Y-117964285D01*
X214042580Y-117964285D02*
X215042580Y-117964285D01*
X214566390Y-118440476D02*
X214566390Y-119202381D01*
X214280676Y-119202381D02*
X214280676Y-118440476D01*
X214042580Y-119678571D02*
X215042580Y-119678571D01*
X215042580Y-119678571D02*
X215042580Y-119916666D01*
X215042580Y-119916666D02*
X214994961Y-120059523D01*
X214994961Y-120059523D02*
X214899723Y-120154761D01*
X214899723Y-120154761D02*
X214804485Y-120202380D01*
X214804485Y-120202380D02*
X214614009Y-120249999D01*
X214614009Y-120249999D02*
X214471152Y-120249999D01*
X214471152Y-120249999D02*
X214280676Y-120202380D01*
X214280676Y-120202380D02*
X214185438Y-120154761D01*
X214185438Y-120154761D02*
X214090200Y-120059523D01*
X214090200Y-120059523D02*
X214042580Y-119916666D01*
X214042580Y-119916666D02*
X214042580Y-119678571D01*
X214090200Y-120630952D02*
X214042580Y-120773809D01*
X214042580Y-120773809D02*
X214042580Y-121011904D01*
X214042580Y-121011904D02*
X214090200Y-121107142D01*
X214090200Y-121107142D02*
X214137819Y-121154761D01*
X214137819Y-121154761D02*
X214233057Y-121202380D01*
X214233057Y-121202380D02*
X214328295Y-121202380D01*
X214328295Y-121202380D02*
X214423533Y-121154761D01*
X214423533Y-121154761D02*
X214471152Y-121107142D01*
X214471152Y-121107142D02*
X214518771Y-121011904D01*
X214518771Y-121011904D02*
X214566390Y-120821428D01*
X214566390Y-120821428D02*
X214614009Y-120726190D01*
X214614009Y-120726190D02*
X214661628Y-120678571D01*
X214661628Y-120678571D02*
X214756866Y-120630952D01*
X214756866Y-120630952D02*
X214852104Y-120630952D01*
X214852104Y-120630952D02*
X214947342Y-120678571D01*
X214947342Y-120678571D02*
X214994961Y-120726190D01*
X214994961Y-120726190D02*
X215042580Y-120821428D01*
X215042580Y-120821428D02*
X215042580Y-121059523D01*
X215042580Y-121059523D02*
X214994961Y-121202380D01*
X214994961Y-122154761D02*
X215042580Y-122059523D01*
X215042580Y-122059523D02*
X215042580Y-121916666D01*
X215042580Y-121916666D02*
X214994961Y-121773809D01*
X214994961Y-121773809D02*
X214899723Y-121678571D01*
X214899723Y-121678571D02*
X214804485Y-121630952D01*
X214804485Y-121630952D02*
X214614009Y-121583333D01*
X214614009Y-121583333D02*
X214471152Y-121583333D01*
X214471152Y-121583333D02*
X214280676Y-121630952D01*
X214280676Y-121630952D02*
X214185438Y-121678571D01*
X214185438Y-121678571D02*
X214090200Y-121773809D01*
X214090200Y-121773809D02*
X214042580Y-121916666D01*
X214042580Y-121916666D02*
X214042580Y-122011904D01*
X214042580Y-122011904D02*
X214090200Y-122154761D01*
X214090200Y-122154761D02*
X214137819Y-122202380D01*
X214137819Y-122202380D02*
X214471152Y-122202380D01*
X214471152Y-122202380D02*
X214471152Y-122011904D01*
D15*
%TO.C,U2*%
X144330000Y-93420000D02*
X144330000Y-98790000D01*
X144330000Y-93420000D02*
X195280000Y-93420000D01*
X144330000Y-93420000D02*
X195280000Y-93420000D01*
X144330000Y-98790000D02*
X144330000Y-116480000D01*
X144330000Y-116480000D02*
X144330000Y-121930000D01*
X144330000Y-121930000D02*
X144330000Y-93420000D01*
X195280000Y-93420000D02*
X195280000Y-104489000D01*
X195280000Y-93420000D02*
X195280000Y-121930000D01*
X195280000Y-104489000D02*
X195280000Y-111200000D01*
X195280000Y-111200000D02*
X195280000Y-121930000D01*
X195280000Y-121930000D02*
X144330000Y-121930000D01*
X195280000Y-121930000D02*
X144330000Y-121930000D01*
D10*
X185420000Y-92850000D02*
G75*
G02*
X185220000Y-92850000I-100000J0D01*
G01*
X185220000Y-92850000D02*
G75*
G02*
X185420000Y-92850000I100000J0D01*
G01*
D16*
%TO.C,U1*%
X199540000Y-93265000D02*
X203660000Y-93265000D01*
X199540000Y-93360000D02*
X199540000Y-93265000D01*
X199540000Y-98385000D02*
X199540000Y-98290000D01*
X203660000Y-93265000D02*
X203660000Y-93360000D01*
X203660000Y-98290000D02*
X203660000Y-98385000D01*
X203660000Y-98385000D02*
X199540000Y-98385000D01*
X204440000Y-98625000D02*
X203960000Y-98625000D01*
X204200000Y-98295000D01*
X204440000Y-98625000D01*
G36*
X204440000Y-98625000D02*
G01*
X203960000Y-98625000D01*
X204200000Y-98295000D01*
X204440000Y-98625000D01*
G37*
%TO.C,J2*%
X183620000Y-67620000D02*
X185000000Y-67620000D01*
X183620000Y-69000000D02*
X183620000Y-67620000D01*
X183620000Y-70270000D02*
X183620000Y-85620000D01*
X183620000Y-70270000D02*
X186380000Y-70270000D01*
X183620000Y-85620000D02*
X186380000Y-85620000D01*
X186380000Y-70270000D02*
X186380000Y-85620000D01*
%TO.C,SW3*%
X209750000Y-80000000D02*
X209750000Y-74000000D01*
X214300000Y-73900000D02*
X211700000Y-73900000D01*
X214300000Y-80100000D02*
X211700000Y-80100000D01*
X215300000Y-71900000D02*
X216300000Y-71900000D01*
X216250000Y-79900000D02*
X216250000Y-74100000D01*
X216300000Y-71900000D02*
X216300000Y-72900000D01*
%TO.C,SW1*%
X196900000Y-63700000D02*
X197900000Y-63700000D01*
X196900000Y-64700000D02*
X196900000Y-63700000D01*
X198900000Y-65700000D02*
X198900000Y-68300000D01*
X204900000Y-63750000D02*
X199100000Y-63750000D01*
X205000000Y-70250000D02*
X199000000Y-70250000D01*
X205100000Y-65700000D02*
X205100000Y-68300000D01*
%TO.C,SW4*%
X196900000Y-83700000D02*
X197900000Y-83700000D01*
X196900000Y-84700000D02*
X196900000Y-83700000D01*
X198900000Y-85700000D02*
X198900000Y-88300000D01*
X204900000Y-83750000D02*
X199100000Y-83750000D01*
X205000000Y-90250000D02*
X199000000Y-90250000D01*
X205100000Y-85700000D02*
X205100000Y-88300000D01*
%TO.C,SW2*%
X187700000Y-82100000D02*
X187700000Y-81100000D01*
X187750000Y-74100000D02*
X187750000Y-79900000D01*
X188700000Y-82100000D02*
X187700000Y-82100000D01*
X189700000Y-73900000D02*
X192300000Y-73900000D01*
X189700000Y-80100000D02*
X192300000Y-80100000D01*
X194250000Y-74000000D02*
X194250000Y-80000000D01*
%TO.C,SW5*%
X198700000Y-82100000D02*
X198700000Y-81100000D01*
X198750000Y-74100000D02*
X198750000Y-79900000D01*
X199700000Y-82100000D02*
X198700000Y-82100000D01*
X200700000Y-73900000D02*
X203300000Y-73900000D01*
X200700000Y-80100000D02*
X203300000Y-80100000D01*
X205250000Y-74000000D02*
X205250000Y-80000000D01*
%TD*%
M02*
