%TF.GenerationSoftware,KiCad,Pcbnew,9.0.6*%
%TF.CreationDate,2026-03-18T09:08:59-07:00*%
%TF.ProjectId,flopper_one,666c6f70-7065-4725-9f6f-6e652e6b6963,rev?*%
%TF.SameCoordinates,Original*%
%TF.FileFunction,Copper,L2,Bot*%
%TF.FilePolarity,Positive*%
%FSLAX46Y46*%
G04 Gerber Fmt 4.6, Leading zero omitted, Abs format (unit mm)*
G04 Created by KiCad (PCBNEW 9.0.6) date 2026-03-18 09:08:59*
%MOMM*%
%LPD*%
G01*
G04 APERTURE LIST*
G04 Aperture macros list*
%AMRoundRect*
0 Rectangle with rounded corners*
0 $1 Rounding radius*
0 $2 $3 $4 $5 $6 $7 $8 $9 X,Y pos of 4 corners*
0 Add a 4 corners polygon primitive as box body*
4,1,4,$2,$3,$4,$5,$6,$7,$8,$9,$2,$3,0*
0 Add four circle primitives for the rounded corners*
1,1,$1+$1,$2,$3*
1,1,$1+$1,$4,$5*
1,1,$1+$1,$6,$7*
1,1,$1+$1,$8,$9*
0 Add four rect primitives between the rounded corners*
20,1,$1+$1,$2,$3,$4,$5,0*
20,1,$1+$1,$4,$5,$6,$7,0*
20,1,$1+$1,$6,$7,$8,$9,0*
20,1,$1+$1,$8,$9,$2,$3,0*%
G04 Aperture macros list end*
%TA.AperFunction,Conductor*%
%ADD10C,0.100000*%
%TD*%
%TA.AperFunction,Conductor*%
%ADD11C,0.200000*%
%TD*%
%TA.AperFunction,ComponentPad*%
%ADD12O,2.000000X10.500000*%
%TD*%
%TA.AperFunction,ComponentPad*%
%ADD13R,1.700000X1.700000*%
%TD*%
%TA.AperFunction,ComponentPad*%
%ADD14C,1.700000*%
%TD*%
%TA.AperFunction,ComponentPad*%
%ADD15R,2.000000X2.000000*%
%TD*%
%TA.AperFunction,ComponentPad*%
%ADD16C,2.000000*%
%TD*%
%TA.AperFunction,ComponentPad*%
%ADD17C,1.600000*%
%TD*%
%TA.AperFunction,ComponentPad*%
%ADD18RoundRect,0.250200X-0.649800X-0.649800X0.649800X-0.649800X0.649800X0.649800X-0.649800X0.649800X0*%
%TD*%
%TA.AperFunction,ComponentPad*%
%ADD19C,1.800000*%
%TD*%
%TA.AperFunction,ComponentPad*%
%ADD20O,1.200000X1.600000*%
%TD*%
%TA.AperFunction,ComponentPad*%
%ADD21C,1.200000*%
%TD*%
%TA.AperFunction,ComponentPad*%
%ADD22R,1.800000X1.800000*%
%TD*%
%TA.AperFunction,Conductor*%
%ADD23C,0.500000*%
%TD*%
G04 APERTURE END LIST*
%TO.N,+BATT*%
D10*
X96162500Y-67400000D02*
X100037500Y-67400000D01*
X100037500Y-71525000D01*
X96162500Y-71525000D01*
X96162500Y-67400000D01*
%TA.AperFunction,Conductor*%
G36*
X96162500Y-67400000D02*
G01*
X100037500Y-67400000D01*
X100037500Y-71525000D01*
X96162500Y-71525000D01*
X96162500Y-67400000D01*
G37*
%TD.AperFunction*%
%TO.N,GND*%
D11*
X103037500Y-67550000D02*
X107412500Y-67550000D01*
X107412500Y-71800000D01*
X103037500Y-71800000D01*
X103037500Y-67550000D01*
%TA.AperFunction,Conductor*%
G36*
X103037500Y-67550000D02*
G01*
X107412500Y-67550000D01*
X107412500Y-71800000D01*
X103037500Y-71800000D01*
X103037500Y-67550000D01*
G37*
%TD.AperFunction*%
%TD*%
D12*
%TO.P,SW6,1,A*%
%TO.N,/VIN*%
X98500000Y-78300000D03*
%TO.P,SW6,2,B*%
%TO.N,+BATT*%
X103500000Y-78300000D03*
%TD*%
D13*
%TO.P,J2,1,Pin_1*%
%TO.N,GND*%
X74000000Y-33000000D03*
D14*
%TO.P,J2,2,Pin_2*%
%TO.N,/VCC*%
X74000000Y-35540000D03*
%TO.P,J2,3,Pin_3*%
%TO.N,/SCL2*%
X74000000Y-38080000D03*
%TO.P,J2,4,Pin_4*%
%TO.N,/SDA2*%
X74000000Y-40620000D03*
%TO.P,J2,5,Pin_5*%
%TO.N,/RES*%
X74000000Y-43160000D03*
%TO.P,J2,6,Pin_6*%
%TO.N,/DC*%
X74000000Y-45700000D03*
%TO.P,J2,7,Pin_7*%
%TO.N,/VCC*%
X74000000Y-48240000D03*
%TD*%
D15*
%TO.P,U2,1,VIN*%
%TO.N,/VIN*%
X74490000Y-84470000D03*
D16*
%TO.P,U2,2,GND*%
%TO.N,GND*%
X71950000Y-84470000D03*
%TO.P,U2,3,GPIO13*%
%TO.N,unconnected-(U2-GPIO13-Pad3)*%
X69410000Y-84470000D03*
%TO.P,U2,4,GPIO12*%
%TO.N,/P4*%
X66870000Y-84470000D03*
%TO.P,U2,5,GPIO14*%
%TO.N,/P1*%
X64330000Y-84470000D03*
%TO.P,U2,6,GPIO27*%
%TO.N,/P2*%
X61790000Y-84470000D03*
%TO.P,U2,7,GPIO26*%
%TO.N,/P3*%
X59250000Y-84470000D03*
%TO.P,U2,8,GPIO25*%
%TO.N,/P5*%
X56710000Y-84470000D03*
%TO.P,U2,9,GPIO33*%
%TO.N,/RES*%
X54170000Y-84470000D03*
%TO.P,U2,10,GPIO32*%
%TO.N,/DC*%
X51630000Y-84470000D03*
%TO.P,U2,11,GPIO35*%
%TO.N,unconnected-(U2-GPIO35-Pad11)*%
X49090000Y-84470000D03*
%TO.P,U2,12,GPIO34*%
%TO.N,unconnected-(U2-GPIO34-Pad12)*%
X46550000Y-84470000D03*
%TO.P,U2,13,GPIO39*%
%TO.N,unconnected-(U2-GPIO39-Pad13)*%
X44010000Y-84470000D03*
%TO.P,U2,14,GPIO36*%
%TO.N,unconnected-(U2-GPIO36-Pad14)*%
X41470000Y-84470000D03*
%TO.P,U2,15,EN*%
%TO.N,unconnected-(U2-EN-Pad15)*%
X38930000Y-84470000D03*
%TO.P,U2,16,3.3v*%
%TO.N,/VCC*%
X74490000Y-59070000D03*
%TO.P,U2,17,GND*%
%TO.N,GND*%
X71950000Y-59070000D03*
%TO.P,U2,18,GPIO15*%
%TO.N,unconnected-(U2-GPIO15-Pad18)*%
X69410000Y-59070000D03*
%TO.P,U2,19,GPIO2*%
%TO.N,unconnected-(U2-GPIO2-Pad19)*%
X66870000Y-59070000D03*
%TO.P,U2,20,GPIO4*%
%TO.N,unconnected-(U2-GPIO4-Pad20)*%
X64330000Y-59070000D03*
%TO.P,U2,21,GPIO16*%
%TO.N,Net-(U2-GPIO16)*%
X61790000Y-59070000D03*
%TO.P,U2,22,GPIO17*%
%TO.N,/SDA1*%
X59250000Y-59070000D03*
%TO.P,U2,23,GPIO5*%
%TO.N,/SCL1*%
X56710000Y-59070000D03*
%TO.P,U2,24,GPIO18*%
%TO.N,/SDA2*%
X54170000Y-59070000D03*
%TO.P,U2,25,GPIO19*%
%TO.N,/SCL2*%
X51630000Y-59070000D03*
%TO.P,U2,26,GPIO21*%
%TO.N,unconnected-(U2-GPIO21-Pad26)*%
X49090000Y-59070000D03*
%TO.P,U2,27,GPIO3*%
%TO.N,unconnected-(U2-GPIO3-Pad27)*%
X46550000Y-59070000D03*
%TO.P,U2,28,GPIO1*%
%TO.N,unconnected-(U2-GPIO1-Pad28)*%
X44010000Y-59070000D03*
%TO.P,U2,29,GPIO22*%
%TO.N,unconnected-(U2-GPIO22-Pad29)*%
X41470000Y-59070000D03*
%TO.P,U2,30,GPIO23*%
%TO.N,Net-(U2-GPIO23)*%
X38930000Y-59070000D03*
%TD*%
D17*
%TO.P,R1,1*%
%TO.N,Net-(D1-A)*%
X51500000Y-30900000D03*
%TO.P,R1,2*%
%TO.N,/VCC*%
X43880000Y-30900000D03*
%TD*%
D18*
%TO.P,U_2,1,OUT*%
%TO.N,Net-(U2-GPIO23)*%
X42000000Y-27750000D03*
D19*
%TO.P,U_2,2,GND*%
%TO.N,GND*%
X44540000Y-27750000D03*
%TO.P,U_2,3,Vs*%
%TO.N,/VCC*%
X47080000Y-27750000D03*
%TD*%
D17*
%TO.P,R2,1*%
%TO.N,Net-(Q1-B)*%
X53000000Y-35000000D03*
%TO.P,R2,2*%
%TO.N,Net-(U2-GPIO16)*%
X45380000Y-35000000D03*
%TD*%
D20*
%TO.P,Q1,1,E*%
%TO.N,GND*%
X59300000Y-39800000D03*
D21*
%TO.P,Q1,2,B*%
%TO.N,Net-(Q1-B)*%
X56760000Y-37260000D03*
%TO.P,Q1,3,C*%
%TO.N,Net-(D1-K)*%
X59300000Y-34720000D03*
%TD*%
D22*
%TO.P,D1,1,K*%
%TO.N,Net-(D1-K)*%
X57540000Y-29000000D03*
D19*
%TO.P,D1,2,A*%
%TO.N,Net-(D1-A)*%
X55000000Y-29000000D03*
%TD*%
D13*
%TO.P,J1,1,VCC*%
%TO.N,GND*%
X74000000Y-62000000D03*
D14*
%TO.P,J1,2,RX*%
%TO.N,/VCC*%
X74000000Y-64540000D03*
%TO.P,J1,3,TX*%
%TO.N,/SDA1*%
X74000000Y-67080000D03*
%TO.P,J1,4,GND*%
%TO.N,/SCL1*%
X74000000Y-69620000D03*
%TD*%
D11*
%TO.N,Net-(D1-A)*%
X51500000Y-30900000D02*
X53100000Y-30900000D01*
X53100000Y-30900000D02*
X55000000Y-29000000D01*
%TO.N,Net-(D1-K)*%
X57540000Y-32960000D02*
X59300000Y-34720000D01*
X57540000Y-29000000D02*
X57540000Y-32960000D01*
%TO.N,/VCC*%
X72750000Y-27750000D02*
X47080000Y-27750000D01*
X43880000Y-30900000D02*
X47030000Y-27750000D01*
X47030000Y-27750000D02*
X47080000Y-27750000D01*
X74000000Y-35540000D02*
X75460000Y-35540000D01*
X76300000Y-31300000D02*
X72750000Y-27750000D01*
X76300000Y-34700000D02*
X76300000Y-31300000D01*
X75460000Y-35540000D02*
X76300000Y-34700000D01*
%TO.N,/DC*%
X61900000Y-74200000D02*
X51630000Y-84470000D01*
X74000000Y-45700000D02*
X78100000Y-49800000D01*
X78100000Y-49800000D02*
X78100000Y-70800000D01*
X74700000Y-74200000D02*
X61900000Y-74200000D01*
X78100000Y-70800000D02*
X74700000Y-74200000D01*
%TO.N,Net-(Q1-B)*%
X56760000Y-37260000D02*
X54500000Y-35000000D01*
X54500000Y-35000000D02*
X53000000Y-35000000D01*
%TO.N,Net-(U2-GPIO16)*%
X45380000Y-35000000D02*
X45380000Y-42660000D01*
X45380000Y-42660000D02*
X61790000Y-59070000D01*
%TO.N,Net-(U2-GPIO23)*%
X42000000Y-27750000D02*
X42000000Y-56000000D01*
X42000000Y-56000000D02*
X38930000Y-59070000D01*
%TO.N,/RES*%
X54170000Y-84470000D02*
X62940000Y-75700000D01*
X80599000Y-70501000D02*
X80599000Y-49759000D01*
X75400000Y-75700000D02*
X80599000Y-70501000D01*
X80599000Y-49759000D02*
X74000000Y-43160000D01*
X62940000Y-75700000D02*
X75400000Y-75700000D01*
D23*
%TO.N,/VIN*%
X98700000Y-80300000D02*
X78660000Y-80300000D01*
X78660000Y-80300000D02*
X74490000Y-84470000D01*
%TO.N,+BATT*%
X103700000Y-76300000D02*
X99400000Y-72000000D01*
X99400000Y-72000000D02*
X99400000Y-70762500D01*
X99400000Y-70762500D02*
X98100000Y-69462500D01*
X103700000Y-80300000D02*
X103700000Y-76300000D01*
D11*
%TO.N,GND*%
X71950000Y-35050000D02*
X74000000Y-33000000D01*
D23*
X71950000Y-84470000D02*
X90520000Y-65900000D01*
X103700000Y-65900000D02*
X105300000Y-67500000D01*
D11*
X71950000Y-59070000D02*
X71950000Y-35050000D01*
D23*
X90520000Y-65900000D02*
X103700000Y-65900000D01*
X105300000Y-67500000D02*
X105300000Y-70725000D01*
%TD*%
%TA.AperFunction,Conductor*%
%TO.N,GND*%
G36*
X104648577Y-24500501D02*
G01*
X104711765Y-24500500D01*
X104717172Y-24500618D01*
X105101243Y-24517383D01*
X105111976Y-24518323D01*
X105490448Y-24568148D01*
X105501067Y-24570020D01*
X105873766Y-24652642D01*
X105884180Y-24655433D01*
X106167101Y-24744636D01*
X106248236Y-24770218D01*
X106258401Y-24773918D01*
X106371342Y-24820698D01*
X106611055Y-24919989D01*
X106620835Y-24924549D01*
X106959428Y-25100807D01*
X106968793Y-25106214D01*
X107290741Y-25311315D01*
X107299580Y-25317505D01*
X107461799Y-25441979D01*
X107602410Y-25549873D01*
X107610697Y-25556826D01*
X107610716Y-25556843D01*
X107892136Y-25814715D01*
X107899774Y-25822354D01*
X108118340Y-26060876D01*
X108157649Y-26103774D01*
X108164602Y-26112060D01*
X108396973Y-26414889D01*
X108403178Y-26423751D01*
X108586361Y-26711290D01*
X108608265Y-26745671D01*
X108613674Y-26755039D01*
X108789926Y-27093616D01*
X108794498Y-27103420D01*
X108940572Y-27456070D01*
X108944272Y-27466235D01*
X109059053Y-27830273D01*
X109061853Y-27840722D01*
X109144471Y-28213387D01*
X109146349Y-28224041D01*
X109196171Y-28602471D01*
X109197114Y-28613247D01*
X109213848Y-28996518D01*
X109213966Y-29001785D01*
X109213966Y-29065892D01*
X109214039Y-29066167D01*
X109214049Y-29074489D01*
X109214045Y-29074499D01*
X109214049Y-29074548D01*
X109249498Y-81997252D01*
X109249380Y-82002744D01*
X109232614Y-82386750D01*
X109231671Y-82397526D01*
X109181849Y-82775957D01*
X109179971Y-82786610D01*
X109097354Y-83159272D01*
X109094554Y-83169721D01*
X108979775Y-83533755D01*
X108976075Y-83543921D01*
X108830002Y-83896572D01*
X108825430Y-83906376D01*
X108649183Y-84244942D01*
X108643775Y-84254310D01*
X108438681Y-84576244D01*
X108432476Y-84585105D01*
X108200110Y-84887930D01*
X108193156Y-84896217D01*
X107935284Y-85177635D01*
X107927635Y-85185284D01*
X107646217Y-85443156D01*
X107637930Y-85450110D01*
X107335105Y-85682476D01*
X107326244Y-85688681D01*
X107004310Y-85893775D01*
X106994942Y-85899183D01*
X106656376Y-86075430D01*
X106646572Y-86080002D01*
X106293921Y-86226075D01*
X106283755Y-86229775D01*
X105919721Y-86344554D01*
X105909272Y-86347354D01*
X105536610Y-86429971D01*
X105525957Y-86431849D01*
X105147526Y-86481671D01*
X105136750Y-86482614D01*
X104752703Y-86499382D01*
X104747294Y-86499500D01*
X75877719Y-86499500D01*
X75810680Y-86479815D01*
X75764925Y-86427011D01*
X75753721Y-86374762D01*
X75753885Y-86347354D01*
X75756206Y-85957253D01*
X75776289Y-85890334D01*
X75805892Y-85858727D01*
X75847546Y-85827546D01*
X75933796Y-85712331D01*
X75984091Y-85577483D01*
X75990500Y-85517873D01*
X75990499Y-84082228D01*
X76010184Y-84015190D01*
X76026813Y-83994553D01*
X76136108Y-83885258D01*
X80699500Y-83885258D01*
X80699500Y-84114741D01*
X80717876Y-84254310D01*
X80729452Y-84342238D01*
X80781676Y-84537143D01*
X80788842Y-84563887D01*
X80876650Y-84775876D01*
X80876657Y-84775890D01*
X80991392Y-84974617D01*
X81131081Y-85156661D01*
X81131089Y-85156670D01*
X81293330Y-85318911D01*
X81293338Y-85318918D01*
X81475382Y-85458607D01*
X81475385Y-85458608D01*
X81475388Y-85458611D01*
X81674112Y-85573344D01*
X81674117Y-85573346D01*
X81674123Y-85573349D01*
X81765480Y-85611190D01*
X81886113Y-85661158D01*
X82107762Y-85720548D01*
X82335266Y-85750500D01*
X82335273Y-85750500D01*
X82564727Y-85750500D01*
X82564734Y-85750500D01*
X82792238Y-85720548D01*
X83013887Y-85661158D01*
X83225888Y-85573344D01*
X83424612Y-85458611D01*
X83606661Y-85318919D01*
X83606665Y-85318914D01*
X83606670Y-85318911D01*
X83768911Y-85156670D01*
X83768914Y-85156665D01*
X83768919Y-85156661D01*
X83908611Y-84974612D01*
X84023344Y-84775888D01*
X84111158Y-84563887D01*
X84170548Y-84342238D01*
X84200500Y-84114734D01*
X84200500Y-83885266D01*
X84170548Y-83657762D01*
X84111158Y-83436113D01*
X84023344Y-83224112D01*
X83908611Y-83025388D01*
X83908608Y-83025385D01*
X83908607Y-83025382D01*
X83768918Y-82843338D01*
X83768911Y-82843330D01*
X83606670Y-82681089D01*
X83606661Y-82681081D01*
X83424617Y-82541392D01*
X83225890Y-82426657D01*
X83225876Y-82426650D01*
X83013887Y-82338842D01*
X82792238Y-82279452D01*
X82754215Y-82274446D01*
X82564741Y-82249500D01*
X82564734Y-82249500D01*
X82335266Y-82249500D01*
X82335258Y-82249500D01*
X82118715Y-82278009D01*
X82107762Y-82279452D01*
X82014076Y-82304554D01*
X81886112Y-82338842D01*
X81674123Y-82426650D01*
X81674109Y-82426657D01*
X81475382Y-82541392D01*
X81293338Y-82681081D01*
X81131081Y-82843338D01*
X80991392Y-83025382D01*
X80876657Y-83224109D01*
X80876650Y-83224123D01*
X80788842Y-83436112D01*
X80729453Y-83657759D01*
X80729451Y-83657770D01*
X80699500Y-83885258D01*
X76136108Y-83885258D01*
X78934548Y-81086819D01*
X78995871Y-81053334D01*
X79022229Y-81050500D01*
X97075500Y-81050500D01*
X97142539Y-81070185D01*
X97188294Y-81122989D01*
X97199500Y-81174500D01*
X97199500Y-82668097D01*
X97236446Y-82901368D01*
X97309433Y-83125996D01*
X97359432Y-83224123D01*
X97416657Y-83336433D01*
X97555483Y-83527510D01*
X97722490Y-83694517D01*
X97913567Y-83833343D01*
X98012991Y-83884002D01*
X98124003Y-83940566D01*
X98124005Y-83940566D01*
X98124008Y-83940568D01*
X98244412Y-83979689D01*
X98348631Y-84013553D01*
X98581903Y-84050500D01*
X98581908Y-84050500D01*
X98818097Y-84050500D01*
X99051368Y-84013553D01*
X99275992Y-83940568D01*
X99486433Y-83833343D01*
X99677510Y-83694517D01*
X99844517Y-83527510D01*
X99983343Y-83336433D01*
X100090568Y-83125992D01*
X100163553Y-82901368D01*
X100183416Y-82775957D01*
X100200500Y-82668097D01*
X100200500Y-74161229D01*
X100220185Y-74094190D01*
X100272989Y-74048435D01*
X100342147Y-74038491D01*
X100405703Y-74067516D01*
X100412181Y-74073548D01*
X102163181Y-75824548D01*
X102196666Y-75885871D01*
X102199500Y-75912229D01*
X102199500Y-82668097D01*
X102236446Y-82901368D01*
X102309433Y-83125996D01*
X102359432Y-83224123D01*
X102416657Y-83336433D01*
X102555483Y-83527510D01*
X102722490Y-83694517D01*
X102913567Y-83833343D01*
X103012991Y-83884002D01*
X103124003Y-83940566D01*
X103124005Y-83940566D01*
X103124008Y-83940568D01*
X103244412Y-83979689D01*
X103348631Y-84013553D01*
X103581903Y-84050500D01*
X103581908Y-84050500D01*
X103818097Y-84050500D01*
X104051368Y-84013553D01*
X104275992Y-83940568D01*
X104486433Y-83833343D01*
X104677510Y-83694517D01*
X104844517Y-83527510D01*
X104983343Y-83336433D01*
X105090568Y-83125992D01*
X105163553Y-82901368D01*
X105183416Y-82775957D01*
X105200500Y-82668097D01*
X105200500Y-73931902D01*
X105163553Y-73698631D01*
X105129689Y-73594412D01*
X105090568Y-73474008D01*
X105090566Y-73474004D01*
X105090566Y-73474003D01*
X104983342Y-73263566D01*
X104844517Y-73072490D01*
X104677510Y-72905483D01*
X104486433Y-72766657D01*
X104275996Y-72659433D01*
X104051368Y-72586446D01*
X103818097Y-72549500D01*
X103818092Y-72549500D01*
X103581908Y-72549500D01*
X103581903Y-72549500D01*
X103348631Y-72586446D01*
X103124003Y-72659433D01*
X102913566Y-72766657D01*
X102804550Y-72845862D01*
X102722490Y-72905483D01*
X102722488Y-72905485D01*
X102722487Y-72905485D01*
X102555485Y-73072487D01*
X102555485Y-73072488D01*
X102555483Y-73072490D01*
X102516961Y-73125511D01*
X102416657Y-73263566D01*
X102309433Y-73474004D01*
X102280228Y-73563887D01*
X102240789Y-73621562D01*
X102176431Y-73648760D01*
X102107584Y-73636845D01*
X102074616Y-73613249D01*
X101161819Y-72700451D01*
X101128334Y-72639128D01*
X101125500Y-72612770D01*
X101125500Y-68590027D01*
X101125500Y-68590025D01*
X101087984Y-68450015D01*
X101015509Y-68324485D01*
X100913015Y-68221991D01*
X100913013Y-68221990D01*
X100913011Y-68221988D01*
X100787488Y-68149517D01*
X100787489Y-68149517D01*
X100776006Y-68146440D01*
X100647475Y-68112000D01*
X96772475Y-68112000D01*
X96627525Y-68112000D01*
X96498993Y-68146440D01*
X96487511Y-68149517D01*
X96361988Y-68221988D01*
X96361982Y-68221993D01*
X96259493Y-68324482D01*
X96259488Y-68324488D01*
X96187017Y-68450011D01*
X96187016Y-68450015D01*
X96149500Y-68590025D01*
X96149500Y-72859975D01*
X96161695Y-72905485D01*
X96187017Y-72999988D01*
X96259488Y-73125511D01*
X96259490Y-73125513D01*
X96259491Y-73125515D01*
X96361985Y-73228009D01*
X96361986Y-73228010D01*
X96361988Y-73228011D01*
X96487511Y-73300482D01*
X96487512Y-73300482D01*
X96487515Y-73300484D01*
X96627525Y-73338000D01*
X96772475Y-73338000D01*
X97182953Y-73338000D01*
X97249992Y-73357685D01*
X97295747Y-73410489D01*
X97305691Y-73479647D01*
X97300886Y-73500308D01*
X97273326Y-73585130D01*
X97236446Y-73698631D01*
X97199500Y-73931902D01*
X97199500Y-79425500D01*
X97179815Y-79492539D01*
X97127011Y-79538294D01*
X97075500Y-79549500D01*
X78586076Y-79549500D01*
X78557242Y-79555234D01*
X78557243Y-79555235D01*
X78441093Y-79578339D01*
X78441083Y-79578342D01*
X78361081Y-79611479D01*
X78361082Y-79611480D01*
X78304505Y-79634915D01*
X78222372Y-79689795D01*
X78181585Y-79717047D01*
X78181581Y-79717050D01*
X75992525Y-81906106D01*
X75931202Y-81939591D01*
X75861510Y-81934607D01*
X75805577Y-81892735D01*
X75781160Y-81827271D01*
X75780846Y-81817712D01*
X75814371Y-76185487D01*
X75823088Y-76156440D01*
X75829535Y-76126804D01*
X75833620Y-76121346D01*
X75834454Y-76118569D01*
X75850683Y-76098551D01*
X75880520Y-76068716D01*
X75880521Y-76068713D01*
X80957506Y-70991728D01*
X80957511Y-70991724D01*
X80967714Y-70981520D01*
X80967716Y-70981520D01*
X81079520Y-70869716D01*
X81134174Y-70775051D01*
X81158577Y-70732785D01*
X81199500Y-70580058D01*
X81199500Y-70421943D01*
X81199500Y-60988361D01*
X81219185Y-60921322D01*
X81271989Y-60875567D01*
X81341147Y-60865623D01*
X81398987Y-60889986D01*
X81475382Y-60948607D01*
X81475385Y-60948608D01*
X81475388Y-60948611D01*
X81674112Y-61063344D01*
X81674117Y-61063346D01*
X81674123Y-61063349D01*
X81765480Y-61101190D01*
X81886113Y-61151158D01*
X82107762Y-61210548D01*
X82335266Y-61240500D01*
X82335273Y-61240500D01*
X82564727Y-61240500D01*
X82564734Y-61240500D01*
X82792238Y-61210548D01*
X83013887Y-61151158D01*
X83225888Y-61063344D01*
X83424612Y-60948611D01*
X83606661Y-60808919D01*
X83606665Y-60808914D01*
X83606670Y-60808911D01*
X83768911Y-60646670D01*
X83768914Y-60646665D01*
X83768919Y-60646661D01*
X83908611Y-60464612D01*
X84023344Y-60265888D01*
X84111158Y-60053887D01*
X84170548Y-59832238D01*
X84200500Y-59604734D01*
X84200500Y-59375266D01*
X84170548Y-59147762D01*
X84111158Y-58926113D01*
X84041048Y-58756853D01*
X84023349Y-58714123D01*
X84023346Y-58714117D01*
X84023344Y-58714112D01*
X83908611Y-58515388D01*
X83908608Y-58515385D01*
X83908607Y-58515382D01*
X83768918Y-58333338D01*
X83768911Y-58333330D01*
X83606670Y-58171089D01*
X83606661Y-58171081D01*
X83424617Y-58031392D01*
X83225890Y-57916657D01*
X83225876Y-57916650D01*
X83013887Y-57828842D01*
X82792238Y-57769452D01*
X82754215Y-57764446D01*
X82564741Y-57739500D01*
X82564734Y-57739500D01*
X82335266Y-57739500D01*
X82335258Y-57739500D01*
X82118715Y-57768009D01*
X82107762Y-57769452D01*
X82014076Y-57794554D01*
X81886112Y-57828842D01*
X81674123Y-57916650D01*
X81674109Y-57916657D01*
X81475383Y-58031392D01*
X81398986Y-58090014D01*
X81333817Y-58115208D01*
X81265372Y-58101170D01*
X81215383Y-58052356D01*
X81199500Y-57991638D01*
X81199500Y-49679945D01*
X81199500Y-49679943D01*
X81173571Y-49583173D01*
X81166624Y-49557245D01*
X81166624Y-49557244D01*
X81158578Y-49527218D01*
X81158577Y-49527215D01*
X81103191Y-49431284D01*
X81079520Y-49390284D01*
X80967716Y-49278480D01*
X80967713Y-49278478D01*
X75333757Y-43644522D01*
X75300272Y-43583199D01*
X75303507Y-43518523D01*
X75317246Y-43476243D01*
X75350500Y-43266287D01*
X75350500Y-43053713D01*
X75317246Y-42843757D01*
X75251557Y-42641588D01*
X75155051Y-42452184D01*
X75155049Y-42452181D01*
X75155048Y-42452179D01*
X75030109Y-42280213D01*
X74879786Y-42129890D01*
X74707820Y-42004951D01*
X74707115Y-42004591D01*
X74699054Y-42000485D01*
X74648259Y-41952512D01*
X74631463Y-41884692D01*
X74653999Y-41818556D01*
X74699054Y-41779515D01*
X74707816Y-41775051D01*
X74729789Y-41759086D01*
X74879786Y-41650109D01*
X74879788Y-41650106D01*
X74879792Y-41650104D01*
X75030104Y-41499792D01*
X75030106Y-41499788D01*
X75030109Y-41499786D01*
X75155048Y-41327820D01*
X75155047Y-41327820D01*
X75155051Y-41327816D01*
X75251557Y-41138412D01*
X75317246Y-40936243D01*
X75350500Y-40726287D01*
X75350500Y-40513713D01*
X75317246Y-40303757D01*
X75251557Y-40101588D01*
X75155051Y-39912184D01*
X75155049Y-39912181D01*
X75155048Y-39912179D01*
X75030109Y-39740213D01*
X74879786Y-39589890D01*
X74707820Y-39464951D01*
X74707115Y-39464591D01*
X74699054Y-39460485D01*
X74648259Y-39412512D01*
X74631463Y-39344692D01*
X74653999Y-39278556D01*
X74699054Y-39239515D01*
X74707816Y-39235051D01*
X74786696Y-39177742D01*
X74879786Y-39110109D01*
X74879788Y-39110106D01*
X74879792Y-39110104D01*
X75030104Y-38959792D01*
X75030106Y-38959788D01*
X75030109Y-38959786D01*
X75155048Y-38787820D01*
X75155047Y-38787820D01*
X75155051Y-38787816D01*
X75251557Y-38598412D01*
X75317246Y-38396243D01*
X75350500Y-38186287D01*
X75350500Y-37973713D01*
X75317246Y-37763757D01*
X75251557Y-37561588D01*
X75155051Y-37372184D01*
X75155049Y-37372181D01*
X75155048Y-37372179D01*
X75030109Y-37200213D01*
X74879786Y-37049890D01*
X74707820Y-36924951D01*
X74707115Y-36924591D01*
X74699054Y-36920485D01*
X74648259Y-36872512D01*
X74631463Y-36804692D01*
X74653999Y-36738556D01*
X74699054Y-36699515D01*
X74707816Y-36695051D01*
X74729789Y-36679086D01*
X74879786Y-36570109D01*
X74879788Y-36570106D01*
X74879792Y-36570104D01*
X75030104Y-36419792D01*
X75030106Y-36419788D01*
X75030109Y-36419786D01*
X75116774Y-36300500D01*
X75155051Y-36247816D01*
X75158969Y-36240127D01*
X75175235Y-36208205D01*
X75185683Y-36197142D01*
X75192006Y-36183297D01*
X75209187Y-36172255D01*
X75223209Y-36157409D01*
X75238888Y-36153167D01*
X75250784Y-36145523D01*
X75285719Y-36140500D01*
X75373331Y-36140500D01*
X75373347Y-36140501D01*
X75380943Y-36140501D01*
X75539054Y-36140501D01*
X75539057Y-36140501D01*
X75691785Y-36099577D01*
X75741904Y-36070639D01*
X75828716Y-36020520D01*
X75940520Y-35908716D01*
X75940520Y-35908714D01*
X75950728Y-35898507D01*
X75950730Y-35898504D01*
X76658506Y-35190728D01*
X76658511Y-35190724D01*
X76668714Y-35180520D01*
X76668716Y-35180520D01*
X76780520Y-35068716D01*
X76859577Y-34931784D01*
X76900500Y-34779057D01*
X76900500Y-31220943D01*
X76859577Y-31068216D01*
X76859577Y-31068215D01*
X76821551Y-31002352D01*
X76816160Y-30993015D01*
X76780524Y-30931290D01*
X76780521Y-30931286D01*
X76780520Y-30931284D01*
X76668716Y-30819480D01*
X76668715Y-30819479D01*
X76664385Y-30815149D01*
X76664374Y-30815139D01*
X73237590Y-27388355D01*
X73237588Y-27388352D01*
X73118717Y-27269481D01*
X73118716Y-27269480D01*
X73019839Y-27212394D01*
X73019838Y-27212393D01*
X72981783Y-27190422D01*
X72925881Y-27175443D01*
X72829057Y-27149499D01*
X72670943Y-27149499D01*
X72663347Y-27149499D01*
X72663331Y-27149500D01*
X48421836Y-27149500D01*
X48354797Y-27129815D01*
X48311352Y-27081796D01*
X48277814Y-27015976D01*
X48148247Y-26837641D01*
X48148243Y-26837636D01*
X47992363Y-26681756D01*
X47992358Y-26681752D01*
X47814025Y-26552187D01*
X47814024Y-26552186D01*
X47814022Y-26552185D01*
X47725990Y-26507330D01*
X47617606Y-26452104D01*
X47617603Y-26452103D01*
X47407952Y-26383985D01*
X47256535Y-26360003D01*
X47190222Y-26349500D01*
X46969778Y-26349500D01*
X46903465Y-26360003D01*
X46752047Y-26383985D01*
X46542396Y-26452103D01*
X46542393Y-26452104D01*
X46345974Y-26552187D01*
X46167641Y-26681752D01*
X46167636Y-26681756D01*
X46011756Y-26837636D01*
X45910008Y-26977681D01*
X45854678Y-27020346D01*
X45785065Y-27026325D01*
X45723270Y-26993719D01*
X45709371Y-26977680D01*
X45691066Y-26952485D01*
X45691065Y-26952485D01*
X44982138Y-27661414D01*
X44959333Y-27576306D01*
X44900090Y-27473694D01*
X44816306Y-27389910D01*
X44713694Y-27330667D01*
X44628583Y-27307861D01*
X45337513Y-26598932D01*
X45273756Y-26552611D01*
X45077410Y-26452567D01*
X44867835Y-26384473D01*
X44650181Y-26350000D01*
X44429819Y-26350000D01*
X44212164Y-26384473D01*
X44002589Y-26452567D01*
X43806233Y-26552616D01*
X43742485Y-26598931D01*
X43742485Y-26598932D01*
X44451414Y-27307861D01*
X44366306Y-27330667D01*
X44263694Y-27389910D01*
X44179910Y-27473694D01*
X44120667Y-27576306D01*
X44097861Y-27661414D01*
X43413843Y-26977396D01*
X43383818Y-26928718D01*
X43334797Y-26780780D01*
X43334793Y-26780774D01*
X43334792Y-26780771D01*
X43291935Y-26711290D01*
X43242670Y-26631419D01*
X43118581Y-26507330D01*
X42983085Y-26423755D01*
X42969222Y-26415204D01*
X42969217Y-26415202D01*
X42802638Y-26360003D01*
X42699833Y-26349500D01*
X42699826Y-26349500D01*
X41300174Y-26349500D01*
X41300166Y-26349500D01*
X41197361Y-26360003D01*
X41030782Y-26415202D01*
X41030777Y-26415204D01*
X40881417Y-26507331D01*
X40757331Y-26631417D01*
X40665204Y-26780777D01*
X40665202Y-26780782D01*
X40610003Y-26947361D01*
X40599500Y-27050166D01*
X40599500Y-28449833D01*
X40610003Y-28552638D01*
X40646363Y-28662365D01*
X40665203Y-28719220D01*
X40757330Y-28868581D01*
X40881419Y-28992670D01*
X41030780Y-29084797D01*
X41124988Y-29116014D01*
X41197361Y-29139996D01*
X41209865Y-29141273D01*
X41288104Y-29149266D01*
X41352794Y-29175662D01*
X41392945Y-29232842D01*
X41399500Y-29272624D01*
X41399500Y-44876000D01*
X41379815Y-44943039D01*
X41327011Y-44988794D01*
X41275500Y-45000000D01*
X33624500Y-45000000D01*
X33557461Y-44980315D01*
X33511706Y-44927511D01*
X33500500Y-44876000D01*
X33500500Y-29002706D01*
X33500618Y-28997297D01*
X33502778Y-28947815D01*
X33517386Y-28613226D01*
X33518326Y-28602495D01*
X33568152Y-28224025D01*
X33570025Y-28213405D01*
X33652649Y-27840709D01*
X33655440Y-27830295D01*
X33770230Y-27466227D01*
X33773917Y-27456095D01*
X33920003Y-27103412D01*
X33924561Y-27093638D01*
X34100826Y-26755039D01*
X34106217Y-26745700D01*
X34311325Y-26423744D01*
X34317515Y-26414905D01*
X34549896Y-26112060D01*
X34556834Y-26103791D01*
X34814726Y-25822352D01*
X34822352Y-25814726D01*
X35103791Y-25556834D01*
X35112060Y-25549896D01*
X35414908Y-25317513D01*
X35423744Y-25311325D01*
X35745703Y-25106216D01*
X35755045Y-25100822D01*
X36093638Y-24924561D01*
X36103412Y-24920003D01*
X36456095Y-24773917D01*
X36466227Y-24770230D01*
X36830295Y-24655440D01*
X36840709Y-24652649D01*
X37213405Y-24570025D01*
X37224025Y-24568152D01*
X37602495Y-24518326D01*
X37613226Y-24517386D01*
X37997297Y-24500617D01*
X38002706Y-24500500D01*
X38065892Y-24500500D01*
X104648573Y-24500500D01*
X104648577Y-24500501D01*
G37*
%TD.AperFunction*%
%TA.AperFunction,Conductor*%
G36*
X53634829Y-28370185D02*
G01*
X53680584Y-28422989D01*
X53690528Y-28492147D01*
X53685721Y-28512817D01*
X53633985Y-28672045D01*
X53618075Y-28772498D01*
X53599500Y-28889778D01*
X53599500Y-29110222D01*
X53607357Y-29159830D01*
X53633985Y-29327952D01*
X53656811Y-29398203D01*
X53658806Y-29468044D01*
X53626561Y-29524202D01*
X52887584Y-30263181D01*
X52860656Y-30277884D01*
X52834838Y-30294477D01*
X52828637Y-30295368D01*
X52826261Y-30296666D01*
X52799903Y-30299500D01*
X52729602Y-30299500D01*
X52662563Y-30279815D01*
X52619117Y-30231795D01*
X52612284Y-30218385D01*
X52491971Y-30052786D01*
X52347213Y-29908028D01*
X52181613Y-29787715D01*
X52181612Y-29787714D01*
X52181610Y-29787713D01*
X52124653Y-29758691D01*
X51999223Y-29694781D01*
X51804534Y-29631522D01*
X51629995Y-29603878D01*
X51602352Y-29599500D01*
X51397648Y-29599500D01*
X51373329Y-29603351D01*
X51195465Y-29631522D01*
X51000776Y-29694781D01*
X50818386Y-29787715D01*
X50652786Y-29908028D01*
X50508028Y-30052786D01*
X50387715Y-30218386D01*
X50294781Y-30400776D01*
X50231522Y-30595465D01*
X50199500Y-30797648D01*
X50199500Y-31002351D01*
X50231522Y-31204534D01*
X50294781Y-31399223D01*
X50346385Y-31500500D01*
X50370962Y-31548735D01*
X50387715Y-31581613D01*
X50508028Y-31747213D01*
X50652786Y-31891971D01*
X50807749Y-32004556D01*
X50818390Y-32012287D01*
X50877936Y-32042627D01*
X51000776Y-32105218D01*
X51000778Y-32105218D01*
X51000781Y-32105220D01*
X51105137Y-32139127D01*
X51195465Y-32168477D01*
X51296557Y-32184488D01*
X51397648Y-32200500D01*
X51397649Y-32200500D01*
X51602351Y-32200500D01*
X51602352Y-32200500D01*
X51804534Y-32168477D01*
X51999219Y-32105220D01*
X52181610Y-32012287D01*
X52325270Y-31907913D01*
X52347213Y-31891971D01*
X52347215Y-31891968D01*
X52347219Y-31891966D01*
X52491966Y-31747219D01*
X52491968Y-31747215D01*
X52491971Y-31747213D01*
X52612284Y-31581614D01*
X52612285Y-31581613D01*
X52612287Y-31581610D01*
X52619117Y-31568204D01*
X52667091Y-31517409D01*
X52729602Y-31500500D01*
X53013331Y-31500500D01*
X53013347Y-31500501D01*
X53020943Y-31500501D01*
X53179054Y-31500501D01*
X53179057Y-31500501D01*
X53331785Y-31459577D01*
X53381904Y-31430639D01*
X53468716Y-31380520D01*
X53580520Y-31268716D01*
X53580520Y-31268714D01*
X53590728Y-31258507D01*
X53590730Y-31258504D01*
X54475797Y-30373436D01*
X54537118Y-30339953D01*
X54601794Y-30343188D01*
X54621051Y-30349444D01*
X54672049Y-30366015D01*
X54889778Y-30400500D01*
X54889779Y-30400500D01*
X55110221Y-30400500D01*
X55110222Y-30400500D01*
X55327951Y-30366015D01*
X55537606Y-30297895D01*
X55734022Y-30197815D01*
X55912365Y-30068242D01*
X55962536Y-30018070D01*
X56023857Y-29984586D01*
X56093548Y-29989570D01*
X56149482Y-30031441D01*
X56166398Y-30062419D01*
X56196202Y-30142328D01*
X56196206Y-30142335D01*
X56282452Y-30257544D01*
X56282455Y-30257547D01*
X56397664Y-30343793D01*
X56397671Y-30343797D01*
X56442618Y-30360561D01*
X56532517Y-30394091D01*
X56592127Y-30400500D01*
X56815500Y-30400499D01*
X56882539Y-30420183D01*
X56928294Y-30472987D01*
X56939500Y-30524499D01*
X56939500Y-32873330D01*
X56939499Y-32873348D01*
X56939499Y-33039054D01*
X56939498Y-33039054D01*
X56980423Y-33191785D01*
X57009358Y-33241900D01*
X57009359Y-33241904D01*
X57009360Y-33241904D01*
X57059479Y-33328714D01*
X57059481Y-33328717D01*
X57178349Y-33447585D01*
X57178355Y-33447590D01*
X58177336Y-34446571D01*
X58210821Y-34507894D01*
X58212129Y-34553649D01*
X58199500Y-34633389D01*
X58199500Y-34806610D01*
X58220547Y-34939500D01*
X58226598Y-34977701D01*
X58280127Y-35142445D01*
X58358768Y-35296788D01*
X58460586Y-35436928D01*
X58583072Y-35559414D01*
X58723212Y-35661232D01*
X58877555Y-35739873D01*
X59042299Y-35793402D01*
X59213389Y-35820500D01*
X59213390Y-35820500D01*
X59386610Y-35820500D01*
X59386611Y-35820500D01*
X59557701Y-35793402D01*
X59722445Y-35739873D01*
X59876788Y-35661232D01*
X60016928Y-35559414D01*
X60139414Y-35436928D01*
X60241232Y-35296788D01*
X60319873Y-35142445D01*
X60373402Y-34977701D01*
X60400500Y-34806611D01*
X60400500Y-34633389D01*
X60373402Y-34462299D01*
X60319873Y-34297555D01*
X60241232Y-34143212D01*
X60139414Y-34003072D01*
X60016928Y-33880586D01*
X59876788Y-33778768D01*
X59722445Y-33700127D01*
X59557701Y-33646598D01*
X59557699Y-33646597D01*
X59557698Y-33646597D01*
X59409801Y-33623173D01*
X59386611Y-33619500D01*
X59213389Y-33619500D01*
X59133649Y-33632129D01*
X59064355Y-33623173D01*
X59026571Y-33597336D01*
X58176819Y-32747584D01*
X58143334Y-32686261D01*
X58140500Y-32659903D01*
X58140500Y-30524499D01*
X58160185Y-30457460D01*
X58212989Y-30411705D01*
X58264500Y-30400499D01*
X58487871Y-30400499D01*
X58487872Y-30400499D01*
X58547483Y-30394091D01*
X58682331Y-30343796D01*
X58797546Y-30257546D01*
X58883796Y-30142331D01*
X58934091Y-30007483D01*
X58940500Y-29947873D01*
X58940499Y-28474499D01*
X58960184Y-28407461D01*
X59012987Y-28361706D01*
X59064499Y-28350500D01*
X72449903Y-28350500D01*
X72516942Y-28370185D01*
X72537584Y-28386819D01*
X75663181Y-31512416D01*
X75696666Y-31573739D01*
X75699500Y-31600097D01*
X75699500Y-34399903D01*
X75679815Y-34466942D01*
X75663181Y-34487584D01*
X75326527Y-34824237D01*
X75265204Y-34857722D01*
X75195512Y-34852738D01*
X75139579Y-34810866D01*
X75138528Y-34809441D01*
X75030109Y-34660213D01*
X74916181Y-34546285D01*
X74882696Y-34484962D01*
X74887680Y-34415270D01*
X74929552Y-34359337D01*
X74960529Y-34342422D01*
X75092086Y-34293354D01*
X75092093Y-34293350D01*
X75207187Y-34207190D01*
X75207190Y-34207187D01*
X75293350Y-34092093D01*
X75293354Y-34092086D01*
X75343596Y-33957379D01*
X75343598Y-33957372D01*
X75349999Y-33897844D01*
X75350000Y-33897827D01*
X75350000Y-33250000D01*
X74433012Y-33250000D01*
X74465925Y-33192993D01*
X74500000Y-33065826D01*
X74500000Y-32934174D01*
X74465925Y-32807007D01*
X74433012Y-32750000D01*
X75350000Y-32750000D01*
X75350000Y-32102172D01*
X75349999Y-32102155D01*
X75343598Y-32042627D01*
X75343596Y-32042620D01*
X75293354Y-31907913D01*
X75293350Y-31907906D01*
X75207190Y-31792812D01*
X75207187Y-31792809D01*
X75092093Y-31706649D01*
X75092086Y-31706645D01*
X74957379Y-31656403D01*
X74957372Y-31656401D01*
X74897844Y-31650000D01*
X74250000Y-31650000D01*
X74250000Y-32566988D01*
X74192993Y-32534075D01*
X74065826Y-32500000D01*
X73934174Y-32500000D01*
X73807007Y-32534075D01*
X73750000Y-32566988D01*
X73750000Y-31650000D01*
X73102155Y-31650000D01*
X73042627Y-31656401D01*
X73042620Y-31656403D01*
X72907913Y-31706645D01*
X72907906Y-31706649D01*
X72792812Y-31792809D01*
X72792809Y-31792812D01*
X72706649Y-31907906D01*
X72706645Y-31907913D01*
X72656403Y-32042620D01*
X72656401Y-32042627D01*
X72650000Y-32102155D01*
X72650000Y-32750000D01*
X73566988Y-32750000D01*
X73534075Y-32807007D01*
X73500000Y-32934174D01*
X73500000Y-33065826D01*
X73534075Y-33192993D01*
X73566988Y-33250000D01*
X72650000Y-33250000D01*
X72650000Y-33897844D01*
X72656401Y-33957372D01*
X72656403Y-33957379D01*
X72706645Y-34092086D01*
X72706649Y-34092093D01*
X72792809Y-34207187D01*
X72792812Y-34207190D01*
X72907906Y-34293350D01*
X72907913Y-34293354D01*
X73039470Y-34342422D01*
X73095404Y-34384293D01*
X73119821Y-34449758D01*
X73104969Y-34518031D01*
X73083819Y-34546285D01*
X72969889Y-34660215D01*
X72844951Y-34832179D01*
X72748444Y-35021585D01*
X72682753Y-35223760D01*
X72671187Y-35296788D01*
X72649500Y-35433713D01*
X72649500Y-35646287D01*
X72654492Y-35677807D01*
X72681324Y-35847219D01*
X72682754Y-35856243D01*
X72726853Y-35991966D01*
X72748444Y-36058414D01*
X72844951Y-36247820D01*
X72969890Y-36419786D01*
X73120213Y-36570109D01*
X73292182Y-36695050D01*
X73300946Y-36699516D01*
X73351742Y-36747491D01*
X73368536Y-36815312D01*
X73345998Y-36881447D01*
X73300946Y-36920484D01*
X73292182Y-36924949D01*
X73120213Y-37049890D01*
X72969890Y-37200213D01*
X72844951Y-37372179D01*
X72748444Y-37561585D01*
X72682753Y-37763760D01*
X72671187Y-37836788D01*
X72649500Y-37973713D01*
X72649500Y-38186287D01*
X72682754Y-38396243D01*
X72725267Y-38527085D01*
X72748444Y-38598414D01*
X72844951Y-38787820D01*
X72969890Y-38959786D01*
X73120213Y-39110109D01*
X73292182Y-39235050D01*
X73300946Y-39239516D01*
X73351742Y-39287491D01*
X73368536Y-39355312D01*
X73345998Y-39421447D01*
X73300946Y-39460484D01*
X73292182Y-39464949D01*
X73120213Y-39589890D01*
X72969890Y-39740213D01*
X72844951Y-39912179D01*
X72748444Y-40101585D01*
X72682753Y-40303760D01*
X72663985Y-40422257D01*
X72649500Y-40513713D01*
X72649500Y-40726287D01*
X72682754Y-40936243D01*
X72727551Y-41074114D01*
X72748444Y-41138414D01*
X72844951Y-41327820D01*
X72969890Y-41499786D01*
X73120213Y-41650109D01*
X73292182Y-41775050D01*
X73300946Y-41779516D01*
X73351742Y-41827491D01*
X73368536Y-41895312D01*
X73345998Y-41961447D01*
X73300946Y-42000484D01*
X73292182Y-42004949D01*
X73120213Y-42129890D01*
X72969890Y-42280213D01*
X72844951Y-42452179D01*
X72748444Y-42641585D01*
X72682753Y-42843760D01*
X72649500Y-43053713D01*
X72649500Y-43266286D01*
X72682753Y-43476239D01*
X72682753Y-43476241D01*
X72682754Y-43476243D01*
X72737431Y-43644522D01*
X72748444Y-43678414D01*
X72844951Y-43867820D01*
X72969890Y-44039786D01*
X73120213Y-44190109D01*
X73292182Y-44315050D01*
X73300946Y-44319516D01*
X73351742Y-44367491D01*
X73368536Y-44435312D01*
X73345998Y-44501447D01*
X73300946Y-44540484D01*
X73292182Y-44544949D01*
X73120213Y-44669890D01*
X72969896Y-44820207D01*
X72948511Y-44849642D01*
X72876406Y-44948886D01*
X72821078Y-44991551D01*
X72776089Y-45000000D01*
X48620597Y-45000000D01*
X48553558Y-44980315D01*
X48532916Y-44963681D01*
X46016819Y-42447583D01*
X45983334Y-42386260D01*
X45980500Y-42359902D01*
X45980500Y-40086571D01*
X58200000Y-40086571D01*
X58227085Y-40257584D01*
X58280591Y-40422257D01*
X58359195Y-40576524D01*
X58460967Y-40716602D01*
X58583397Y-40839032D01*
X58723475Y-40940804D01*
X58877744Y-41019408D01*
X59042415Y-41072914D01*
X59042414Y-41072914D01*
X59049999Y-41074115D01*
X59550000Y-41074115D01*
X59557584Y-41072914D01*
X59722255Y-41019408D01*
X59876524Y-40940804D01*
X60016602Y-40839032D01*
X60139032Y-40716602D01*
X60240804Y-40576524D01*
X60319408Y-40422257D01*
X60372914Y-40257584D01*
X60400000Y-40086571D01*
X60400000Y-40050000D01*
X59550000Y-40050000D01*
X59550000Y-41074115D01*
X59049999Y-41074115D01*
X59050000Y-41074114D01*
X59050000Y-40050000D01*
X58200000Y-40050000D01*
X58200000Y-40086571D01*
X45980500Y-40086571D01*
X45980500Y-39753922D01*
X58950000Y-39753922D01*
X58950000Y-39846078D01*
X58973852Y-39935095D01*
X59019930Y-40014905D01*
X59085095Y-40080070D01*
X59164905Y-40126148D01*
X59253922Y-40150000D01*
X59346078Y-40150000D01*
X59435095Y-40126148D01*
X59514905Y-40080070D01*
X59580070Y-40014905D01*
X59626148Y-39935095D01*
X59650000Y-39846078D01*
X59650000Y-39753922D01*
X59626148Y-39664905D01*
X59580070Y-39585095D01*
X59544975Y-39550000D01*
X59550000Y-39550000D01*
X60400000Y-39550000D01*
X60400000Y-39513428D01*
X60372914Y-39342415D01*
X60319408Y-39177742D01*
X60240804Y-39023475D01*
X60139032Y-38883397D01*
X60016602Y-38760967D01*
X59876524Y-38659195D01*
X59722257Y-38580591D01*
X59557589Y-38527087D01*
X59557581Y-38527085D01*
X59550000Y-38525884D01*
X59550000Y-39550000D01*
X59544975Y-39550000D01*
X59514905Y-39519930D01*
X59435095Y-39473852D01*
X59346078Y-39450000D01*
X59253922Y-39450000D01*
X59164905Y-39473852D01*
X59085095Y-39519930D01*
X59019930Y-39585095D01*
X58973852Y-39664905D01*
X58950000Y-39753922D01*
X45980500Y-39753922D01*
X45980500Y-39513428D01*
X58200000Y-39513428D01*
X58200000Y-39550000D01*
X59050000Y-39550000D01*
X59050000Y-38525884D01*
X59049999Y-38525884D01*
X59042418Y-38527085D01*
X59042410Y-38527087D01*
X58877742Y-38580591D01*
X58723475Y-38659195D01*
X58583397Y-38760967D01*
X58460967Y-38883397D01*
X58359195Y-39023475D01*
X58280591Y-39177742D01*
X58227085Y-39342415D01*
X58200000Y-39513428D01*
X45980500Y-39513428D01*
X45980500Y-36229601D01*
X46000185Y-36162562D01*
X46048206Y-36119116D01*
X46061610Y-36112287D01*
X46227219Y-35991966D01*
X46371966Y-35847219D01*
X46371968Y-35847215D01*
X46371971Y-35847213D01*
X46424732Y-35774590D01*
X46492287Y-35681610D01*
X46585220Y-35499219D01*
X46648477Y-35304534D01*
X46680500Y-35102352D01*
X46680500Y-34897648D01*
X51699500Y-34897648D01*
X51699500Y-35102351D01*
X51731522Y-35304534D01*
X51794781Y-35499223D01*
X51846385Y-35600500D01*
X51885775Y-35677807D01*
X51887715Y-35681613D01*
X52008028Y-35847213D01*
X52152786Y-35991971D01*
X52261070Y-36070642D01*
X52318390Y-36112287D01*
X52425943Y-36167088D01*
X52500776Y-36205218D01*
X52500778Y-36205218D01*
X52500781Y-36205220D01*
X52575818Y-36229601D01*
X52695465Y-36268477D01*
X52796557Y-36284488D01*
X52897648Y-36300500D01*
X52897649Y-36300500D01*
X53102351Y-36300500D01*
X53102352Y-36300500D01*
X53304534Y-36268477D01*
X53499219Y-36205220D01*
X53681610Y-36112287D01*
X53774590Y-36044732D01*
X53847213Y-35991971D01*
X53847215Y-35991968D01*
X53847219Y-35991966D01*
X53991966Y-35847219D01*
X53991968Y-35847215D01*
X53991971Y-35847213D01*
X54112281Y-35681618D01*
X54112287Y-35681610D01*
X54112292Y-35681599D01*
X54113714Y-35679280D01*
X54114492Y-35678575D01*
X54115151Y-35677669D01*
X54115341Y-35677807D01*
X54165517Y-35632395D01*
X54234444Y-35620960D01*
X54298612Y-35648605D01*
X54307133Y-35656368D01*
X55046276Y-36395511D01*
X55637336Y-36986572D01*
X55670821Y-37047895D01*
X55672128Y-37093650D01*
X55659500Y-37173383D01*
X55659500Y-37173389D01*
X55659500Y-37346611D01*
X55686598Y-37517701D01*
X55740127Y-37682445D01*
X55818768Y-37836788D01*
X55920586Y-37976928D01*
X56043072Y-38099414D01*
X56183212Y-38201232D01*
X56337555Y-38279873D01*
X56502299Y-38333402D01*
X56673389Y-38360500D01*
X56673390Y-38360500D01*
X56846610Y-38360500D01*
X56846611Y-38360500D01*
X57017701Y-38333402D01*
X57182445Y-38279873D01*
X57336788Y-38201232D01*
X57476928Y-38099414D01*
X57599414Y-37976928D01*
X57701232Y-37836788D01*
X57779873Y-37682445D01*
X57833402Y-37517701D01*
X57860500Y-37346611D01*
X57860500Y-37173389D01*
X57833402Y-37002299D01*
X57779873Y-36837555D01*
X57701232Y-36683212D01*
X57599414Y-36543072D01*
X57476928Y-36420586D01*
X57336788Y-36318768D01*
X57300935Y-36300500D01*
X57182447Y-36240128D01*
X57182446Y-36240127D01*
X57182445Y-36240127D01*
X57017701Y-36186598D01*
X57017699Y-36186597D01*
X57017698Y-36186597D01*
X56869801Y-36163173D01*
X56846611Y-36159500D01*
X56673389Y-36159500D01*
X56673383Y-36159500D01*
X56593650Y-36172128D01*
X56524357Y-36163173D01*
X56486572Y-36137336D01*
X54987590Y-34638355D01*
X54987588Y-34638352D01*
X54868717Y-34519481D01*
X54868709Y-34519475D01*
X54769676Y-34462299D01*
X54769674Y-34462298D01*
X54731790Y-34440425D01*
X54731789Y-34440424D01*
X54719263Y-34437067D01*
X54579057Y-34399499D01*
X54420943Y-34399499D01*
X54413347Y-34399499D01*
X54413331Y-34399500D01*
X54229602Y-34399500D01*
X54162563Y-34379815D01*
X54119117Y-34331795D01*
X54112284Y-34318385D01*
X53991971Y-34152786D01*
X53847213Y-34008028D01*
X53681613Y-33887715D01*
X53681612Y-33887714D01*
X53681610Y-33887713D01*
X53624653Y-33858691D01*
X53499223Y-33794781D01*
X53304534Y-33731522D01*
X53129995Y-33703878D01*
X53102352Y-33699500D01*
X52897648Y-33699500D01*
X52873329Y-33703351D01*
X52695465Y-33731522D01*
X52500776Y-33794781D01*
X52318386Y-33887715D01*
X52152786Y-34008028D01*
X52008028Y-34152786D01*
X51887715Y-34318386D01*
X51794781Y-34500776D01*
X51731522Y-34695465D01*
X51699500Y-34897648D01*
X46680500Y-34897648D01*
X46661717Y-34779056D01*
X46648477Y-34695465D01*
X46591296Y-34519481D01*
X46585220Y-34500781D01*
X46585218Y-34500778D01*
X46585218Y-34500776D01*
X46533820Y-34399903D01*
X46492287Y-34318390D01*
X46477150Y-34297555D01*
X46371971Y-34152786D01*
X46227213Y-34008028D01*
X46061613Y-33887715D01*
X46061612Y-33887714D01*
X46061610Y-33887713D01*
X46004653Y-33858691D01*
X45879223Y-33794781D01*
X45684534Y-33731522D01*
X45509995Y-33703878D01*
X45482352Y-33699500D01*
X45277648Y-33699500D01*
X45253329Y-33703351D01*
X45075465Y-33731522D01*
X44880776Y-33794781D01*
X44698386Y-33887715D01*
X44532786Y-34008028D01*
X44388028Y-34152786D01*
X44267715Y-34318386D01*
X44174781Y-34500776D01*
X44111522Y-34695465D01*
X44079500Y-34897648D01*
X44079500Y-35102351D01*
X44111522Y-35304534D01*
X44174781Y-35499223D01*
X44226385Y-35600500D01*
X44265775Y-35677807D01*
X44267715Y-35681613D01*
X44388028Y-35847213D01*
X44388034Y-35847219D01*
X44532781Y-35991966D01*
X44698390Y-36112287D01*
X44711793Y-36119116D01*
X44762589Y-36167088D01*
X44779500Y-36229601D01*
X44779500Y-42573330D01*
X44779499Y-42573348D01*
X44779499Y-42739054D01*
X44779498Y-42739054D01*
X44820424Y-42891789D01*
X44820425Y-42891790D01*
X44841455Y-42928214D01*
X44841456Y-42928216D01*
X44899475Y-43028709D01*
X44899481Y-43028717D01*
X45018349Y-43147585D01*
X45018355Y-43147590D01*
X46659084Y-44788319D01*
X46692569Y-44849642D01*
X46687585Y-44919334D01*
X46645713Y-44975267D01*
X46580249Y-44999684D01*
X46571403Y-45000000D01*
X42724500Y-45000000D01*
X42657461Y-44980315D01*
X42611706Y-44927511D01*
X42600500Y-44876000D01*
X42600500Y-31733095D01*
X42620185Y-31666056D01*
X42672989Y-31620301D01*
X42742147Y-31610357D01*
X42805703Y-31639382D01*
X42824817Y-31660208D01*
X42877772Y-31733095D01*
X42888034Y-31747219D01*
X43032786Y-31891971D01*
X43187749Y-32004556D01*
X43198390Y-32012287D01*
X43257936Y-32042627D01*
X43380776Y-32105218D01*
X43380778Y-32105218D01*
X43380781Y-32105220D01*
X43485137Y-32139127D01*
X43575465Y-32168477D01*
X43676557Y-32184488D01*
X43777648Y-32200500D01*
X43777649Y-32200500D01*
X43982351Y-32200500D01*
X43982352Y-32200500D01*
X44184534Y-32168477D01*
X44379219Y-32105220D01*
X44561610Y-32012287D01*
X44705270Y-31907913D01*
X44727213Y-31891971D01*
X44727215Y-31891968D01*
X44727219Y-31891966D01*
X44871966Y-31747219D01*
X44871968Y-31747215D01*
X44871971Y-31747213D01*
X44937947Y-31656403D01*
X44992287Y-31581610D01*
X45085220Y-31399219D01*
X45148477Y-31204534D01*
X45180500Y-31002352D01*
X45180500Y-30797648D01*
X45148477Y-30595466D01*
X45143825Y-30581151D01*
X45141832Y-30511312D01*
X45174075Y-30455158D01*
X46518059Y-29111175D01*
X46579380Y-29077692D01*
X46644055Y-29080927D01*
X46752046Y-29116014D01*
X46752049Y-29116015D01*
X46969778Y-29150500D01*
X46969779Y-29150500D01*
X47190221Y-29150500D01*
X47190222Y-29150500D01*
X47407951Y-29116015D01*
X47617606Y-29047895D01*
X47814022Y-28947815D01*
X47992365Y-28818242D01*
X48148242Y-28662365D01*
X48277815Y-28484022D01*
X48295239Y-28449826D01*
X48311352Y-28418204D01*
X48359326Y-28367409D01*
X48421836Y-28350500D01*
X53567790Y-28350500D01*
X53634829Y-28370185D01*
G37*
%TD.AperFunction*%
%TA.AperFunction,Conductor*%
G36*
X44120667Y-27923694D02*
G01*
X44179910Y-28026306D01*
X44263694Y-28110090D01*
X44366306Y-28169333D01*
X44451414Y-28192138D01*
X43742485Y-28901065D01*
X43742485Y-28901066D01*
X43806243Y-28947388D01*
X44002589Y-29047432D01*
X44212164Y-29115526D01*
X44429819Y-29150000D01*
X44481401Y-29150000D01*
X44548440Y-29169685D01*
X44594195Y-29222489D01*
X44604139Y-29291647D01*
X44575114Y-29355203D01*
X44569082Y-29361681D01*
X44324841Y-29605921D01*
X44263518Y-29639406D01*
X44198845Y-29636172D01*
X44184535Y-29631523D01*
X44083443Y-29615511D01*
X43982352Y-29599500D01*
X43777648Y-29599500D01*
X43753329Y-29603351D01*
X43575465Y-29631522D01*
X43380776Y-29694781D01*
X43198386Y-29787715D01*
X43032786Y-29908028D01*
X42888032Y-30052782D01*
X42888028Y-30052787D01*
X42824818Y-30139789D01*
X42769488Y-30182455D01*
X42699875Y-30188434D01*
X42638080Y-30155828D01*
X42603723Y-30094990D01*
X42600500Y-30066904D01*
X42600500Y-29272624D01*
X42620185Y-29205585D01*
X42672989Y-29159830D01*
X42711894Y-29149267D01*
X42802638Y-29139996D01*
X42969220Y-29084797D01*
X43118581Y-28992670D01*
X43242670Y-28868581D01*
X43334797Y-28719220D01*
X43383819Y-28571278D01*
X43413844Y-28522601D01*
X44097861Y-27838583D01*
X44120667Y-27923694D01*
G37*
%TD.AperFunction*%
%TD*%
M02*
