M48
; DRILL file {KiCad 9.0.6} date 2026-02-09T17:03:47-0800
; FORMAT={-:-/ absolute / metric / decimal}
; #@! TF.CreationDate,2026-02-09T17:03:47-08:00
; #@! TF.GenerationSoftware,Kicad,Pcbnew,9.0.6
; #@! TF.FileFunction,MixedPlating,1,2
FMAT,2
METRIC
; #@! TA.AperFunction,Plated,PTH,ViaDrill
T1C0.300
; #@! TA.AperFunction,Plated,PTH,ComponentDrill
T2C0.300
; #@! TA.AperFunction,Plated,PTH,ComponentDrill
T3C0.700
; #@! TA.AperFunction,Plated,PTH,ComponentDrill
T4C0.800
; #@! TA.AperFunction,Plated,PTH,ComponentDrill
T5C0.900
; #@! TA.AperFunction,Plated,PTH,ComponentDrill
T6C1.000
; #@! TA.AperFunction,Plated,PTH,ComponentDrill
T7C1.020
; #@! TA.AperFunction,Plated,PTH,ComponentDrill
T8C1.500
; #@! TA.AperFunction,NonPlated,NPTH,ComponentDrill
T9C3.000
%
G90
G05
T1
X67.5Y-74.75
X68.0Y-48.0
X81.25Y-55.25
X86.75Y-79.949
X87.5Y-51.75
X88.0Y-62.382
X94.5Y-60.5
X95.0Y-58.5
T2
X89.9Y-58.875
X89.9Y-60.075
X89.9Y-61.275
X91.3Y-58.875
X91.3Y-60.075
X91.3Y-61.275
T3
X59.46Y-35.71
X59.46Y-40.79
X62.0Y-38.25
T4
X44.13Y-31.25
X45.38Y-35.25
X51.75Y-31.25
X53.0Y-35.25
X98.38Y-33.5
X104.0Y-49.38
X104.0Y-57.0
X105.25Y-59.44
X105.25Y-67.06
X106.0Y-33.5
X107.25Y-49.38
X107.25Y-57.0
T5
X42.0Y-28.0
X44.54Y-28.0
X47.08Y-28.0
X55.0Y-29.25
X57.54Y-29.25
X104.46Y-73.0
X104.71Y-80.25
X107.0Y-73.0
X107.25Y-80.25
T6
X74.0Y-33.25
X74.0Y-35.79
X74.0Y-38.33
X74.0Y-40.87
X74.0Y-43.41
X74.0Y-45.95
X74.0Y-48.49
X74.0Y-62.25
X74.0Y-64.79
X74.0Y-67.33
X74.0Y-69.87
X82.5Y-48.75
X82.5Y-63.75
X82.75Y-66.25
X82.75Y-81.25
T7
X38.76Y-59.25
X38.76Y-84.65
X41.3Y-59.25
X41.3Y-84.65
X43.84Y-59.25
X43.84Y-84.65
X46.38Y-59.25
X46.38Y-84.65
X48.92Y-59.25
X48.92Y-84.65
X51.46Y-59.25
X51.46Y-84.65
X54.0Y-59.25
X54.0Y-84.65
X56.54Y-59.25
X56.54Y-84.65
X59.08Y-59.25
X59.08Y-84.65
X61.62Y-59.25
X61.62Y-84.65
X64.16Y-59.25
X64.16Y-84.65
X66.7Y-59.25
X66.7Y-84.65
X69.24Y-59.25
X69.24Y-84.65
X71.78Y-59.25
X71.78Y-84.65
X74.32Y-59.25
X74.32Y-84.65
T9
X35.33Y-59.67
X35.33Y-84.18
X82.28Y-59.67
X82.28Y-84.18
T8
X101.75Y-80.0G85X100.25Y-80.0
G05
X101.75Y-85.0G85X100.25Y-85.0
G05
M30
