%TF.GenerationSoftware,KiCad,Pcbnew,9.0.6*%
%TF.CreationDate,2026-02-10T16:03:34-08:00*%
%TF.ProjectId,flopper_one,666c6f70-7065-4725-9f6f-6e652e6b6963,rev?*%
%TF.SameCoordinates,Original*%
%TF.FileFunction,Copper,L1,Top*%
%TF.FilePolarity,Positive*%
%FSLAX46Y46*%
G04 Gerber Fmt 4.6, Leading zero omitted, Abs format (unit mm)*
G04 Created by KiCad (PCBNEW 9.0.6) date 2026-02-10 16:03:34*
%MOMM*%
%LPD*%
G01*
G04 APERTURE LIST*
G04 Aperture macros list*
%AMRoundRect*
0 Rectangle with rounded corners*
0 $1 Rounding radius*
0 $2 $3 $4 $5 $6 $7 $8 $9 X,Y pos of 4 corners*
0 Add a 4 corners polygon primitive as box body*
4,1,4,$2,$3,$4,$5,$6,$7,$8,$9,$2,$3,0*
0 Add four circle primitives for the rounded corners*
1,1,$1+$1,$2,$3*
1,1,$1+$1,$4,$5*
1,1,$1+$1,$6,$7*
1,1,$1+$1,$8,$9*
0 Add four rect primitives between the rounded corners*
20,1,$1+$1,$2,$3,$4,$5,0*
20,1,$1+$1,$4,$5,$6,$7,0*
20,1,$1+$1,$6,$7,$8,$9,0*
20,1,$1+$1,$8,$9,$2,$3,0*%
G04 Aperture macros list end*
%TA.AperFunction,ComponentPad*%
%ADD10R,2.000000X2.000000*%
%TD*%
%TA.AperFunction,ComponentPad*%
%ADD11C,2.000000*%
%TD*%
%TA.AperFunction,SMDPad,CuDef*%
%ADD12RoundRect,0.150000X0.825000X0.150000X-0.825000X0.150000X-0.825000X-0.150000X0.825000X-0.150000X0*%
%TD*%
%TA.AperFunction,HeatsinkPad*%
%ADD13C,0.500000*%
%TD*%
%TA.AperFunction,HeatsinkPad*%
%ADD14R,2.410000X3.300000*%
%TD*%
%TA.AperFunction,ComponentPad*%
%ADD15R,1.700000X1.700000*%
%TD*%
%TA.AperFunction,ComponentPad*%
%ADD16C,1.700000*%
%TD*%
%TA.AperFunction,SMDPad,CuDef*%
%ADD17R,1.400000X1.600000*%
%TD*%
%TA.AperFunction,SMDPad,CuDef*%
%ADD18R,1.600000X1.400000*%
%TD*%
%TA.AperFunction,ComponentPad*%
%ADD19O,3.500000X2.000000*%
%TD*%
%TA.AperFunction,ComponentPad*%
%ADD20C,1.600000*%
%TD*%
%TA.AperFunction,ComponentPad*%
%ADD21R,1.800000X1.800000*%
%TD*%
%TA.AperFunction,ComponentPad*%
%ADD22C,1.800000*%
%TD*%
%TA.AperFunction,ComponentPad*%
%ADD23RoundRect,0.250000X0.750000X-0.750000X0.750000X0.750000X-0.750000X0.750000X-0.750000X-0.750000X0*%
%TD*%
%TA.AperFunction,ComponentPad*%
%ADD24RoundRect,0.250200X-0.649800X-0.649800X0.649800X-0.649800X0.649800X0.649800X-0.649800X0.649800X0*%
%TD*%
%TA.AperFunction,ComponentPad*%
%ADD25O,1.200000X1.600000*%
%TD*%
%TA.AperFunction,ComponentPad*%
%ADD26C,1.200000*%
%TD*%
%TA.AperFunction,ComponentPad*%
%ADD27RoundRect,0.250000X-0.750000X0.750000X-0.750000X-0.750000X0.750000X-0.750000X0.750000X0.750000X0*%
%TD*%
%TA.AperFunction,ViaPad*%
%ADD28C,0.600000*%
%TD*%
%TA.AperFunction,Conductor*%
%ADD29C,0.200000*%
%TD*%
%TA.AperFunction,Conductor*%
%ADD30C,0.500000*%
%TD*%
G04 APERTURE END LIST*
D10*
%TO.P,U2,1,VIN*%
%TO.N,/CE*%
X74320000Y-59250000D03*
D11*
%TO.P,U2,2,GND*%
%TO.N,GND*%
X71780000Y-59250000D03*
%TO.P,U2,3,GPIO13*%
%TO.N,unconnected-(U2-GPIO13-Pad3)*%
X69240000Y-59250000D03*
%TO.P,U2,4,GPIO12*%
%TO.N,/P4*%
X66700000Y-59250000D03*
%TO.P,U2,5,GPIO14*%
%TO.N,/P1*%
X64160000Y-59250000D03*
%TO.P,U2,6,GPIO27*%
%TO.N,/P2*%
X61620000Y-59250000D03*
%TO.P,U2,7,GPIO26*%
%TO.N,/P3*%
X59080000Y-59250000D03*
%TO.P,U2,8,GPIO25*%
%TO.N,/P5*%
X56540000Y-59250000D03*
%TO.P,U2,9,GPIO33*%
%TO.N,unconnected-(U2-GPIO33-Pad9)*%
X54000000Y-59250000D03*
%TO.P,U2,10,GPIO32*%
%TO.N,unconnected-(U2-GPIO32-Pad10)*%
X51460000Y-59250000D03*
%TO.P,U2,11,GPIO35*%
%TO.N,unconnected-(U2-GPIO35-Pad11)*%
X48920000Y-59250000D03*
%TO.P,U2,12,GPIO34*%
%TO.N,unconnected-(U2-GPIO34-Pad12)*%
X46380000Y-59250000D03*
%TO.P,U2,13,GPIO39*%
%TO.N,unconnected-(U2-GPIO39-Pad13)*%
X43840000Y-59250000D03*
%TO.P,U2,14,GPIO36*%
%TO.N,unconnected-(U2-GPIO36-Pad14)*%
X41300000Y-59250000D03*
%TO.P,U2,15,EN*%
%TO.N,unconnected-(U2-EN-Pad15)*%
X38760000Y-59250000D03*
%TO.P,U2,16,3.3v*%
%TO.N,/VCC*%
X38760000Y-84650000D03*
%TO.P,U2,17,GND*%
%TO.N,GND*%
X41300000Y-84650000D03*
%TO.P,U2,18,GPIO15*%
%TO.N,unconnected-(U2-GPIO15-Pad18)*%
X43840000Y-84650000D03*
%TO.P,U2,19,GPIO2*%
%TO.N,unconnected-(U2-GPIO2-Pad19)*%
X46380000Y-84650000D03*
%TO.P,U2,20,GPIO4*%
%TO.N,unconnected-(U2-GPIO4-Pad20)*%
X48920000Y-84650000D03*
%TO.P,U2,21,GPIO16*%
%TO.N,Net-(U2-GPIO16)*%
X51460000Y-84650000D03*
%TO.P,U2,22,GPIO17*%
%TO.N,/SDA1*%
X54000000Y-84650000D03*
%TO.P,U2,23,GPIO5*%
%TO.N,/SCL1*%
X56540000Y-84650000D03*
%TO.P,U2,24,GPIO18*%
%TO.N,/SCL2*%
X59080000Y-84650000D03*
%TO.P,U2,25,GPIO19*%
%TO.N,/SDA2*%
X61620000Y-84650000D03*
%TO.P,U2,26,GPIO21*%
%TO.N,unconnected-(U2-GPIO21-Pad26)*%
X64160000Y-84650000D03*
%TO.P,U2,27,GPIO3*%
%TO.N,unconnected-(U2-GPIO3-Pad27)*%
X66700000Y-84650000D03*
%TO.P,U2,28,GPIO1*%
%TO.N,unconnected-(U2-GPIO1-Pad28)*%
X69240000Y-84650000D03*
%TO.P,U2,29,GPIO22*%
%TO.N,unconnected-(U2-GPIO22-Pad29)*%
X71780000Y-84650000D03*
%TO.P,U2,30,GPIO23*%
%TO.N,Net-(U2-GPIO23)*%
X74320000Y-84650000D03*
%TD*%
D12*
%TO.P,U1,1,TEMP*%
%TO.N,GND*%
X93075000Y-61980000D03*
%TO.P,U1,2,PROG*%
%TO.N,Net-(U1-PROG)*%
X93075000Y-60710000D03*
%TO.P,U1,3,GND*%
%TO.N,GND*%
X93075000Y-59440000D03*
%TO.P,U1,4,V_{CC}*%
%TO.N,/CE*%
X93075000Y-58170000D03*
%TO.P,U1,5,BAT*%
%TO.N,/BAT+*%
X88125000Y-58170000D03*
%TO.P,U1,6,~{STDBY}*%
%TO.N,Net-(U1-~{STDBY})*%
X88125000Y-59440000D03*
%TO.P,U1,7,~{CHRG}*%
%TO.N,Net-(U1-~{CHRG})*%
X88125000Y-60710000D03*
%TO.P,U1,8,CE*%
%TO.N,/CE*%
X88125000Y-61980000D03*
D13*
%TO.P,U1,9,EPAD*%
%TO.N,GND*%
X91300000Y-61275000D03*
X91300000Y-60075000D03*
X91300000Y-58875000D03*
D14*
X90600000Y-60075000D03*
D13*
X89900000Y-61275000D03*
X89900000Y-60075000D03*
X89900000Y-58875000D03*
%TD*%
D15*
%TO.P,J2,1,Pin_1*%
%TO.N,GND*%
X74000000Y-33250000D03*
D16*
%TO.P,J2,2,Pin_2*%
%TO.N,/VCC*%
X74000000Y-35790000D03*
%TO.P,J2,3,Pin_3*%
%TO.N,/SCL2*%
X74000000Y-38330000D03*
%TO.P,J2,4,Pin_4*%
%TO.N,/SDA2*%
X74000000Y-40870000D03*
%TO.P,J2,5,Pin_5*%
%TO.N,unconnected-(J2-Pin_5-Pad5)*%
X74000000Y-43410000D03*
%TO.P,J2,6,Pin_6*%
%TO.N,unconnected-(J2-Pin_6-Pad6)*%
X74000000Y-45950000D03*
%TO.P,J2,7,Pin_7*%
%TO.N,/VCC*%
X74000000Y-48490000D03*
%TD*%
D17*
%TO.P,SW3,1,1*%
%TO.N,/P3*%
X104250000Y-37250000D03*
X104250000Y-45250000D03*
%TO.P,SW3,2,2*%
%TO.N,GND*%
X99750000Y-37250000D03*
X99750000Y-45250000D03*
%TD*%
D18*
%TO.P,SW1,1,1*%
%TO.N,/P1*%
X87000000Y-29000000D03*
X95000000Y-29000000D03*
%TO.P,SW1,2,2*%
%TO.N,GND*%
X87000000Y-33500000D03*
X95000000Y-33500000D03*
%TD*%
%TO.P,SW4,1,1*%
%TO.N,/P4*%
X87000000Y-49000000D03*
X95000000Y-49000000D03*
%TO.P,SW4,2,2*%
%TO.N,GND*%
X87000000Y-53500000D03*
X95000000Y-53500000D03*
%TD*%
D17*
%TO.P,SW2,1,1*%
%TO.N,/P2*%
X77750000Y-45250000D03*
X77750000Y-37250000D03*
%TO.P,SW2,2,2*%
%TO.N,GND*%
X82250000Y-45250000D03*
X82250000Y-37250000D03*
%TD*%
D19*
%TO.P,SW6,1,A*%
%TO.N,Net-(SW6-A)*%
X101000000Y-80000000D03*
%TO.P,SW6,2,B*%
%TO.N,/BAT+*%
X101000000Y-85000000D03*
%TD*%
D17*
%TO.P,SW5,1,1*%
%TO.N,/P5*%
X88750000Y-45250000D03*
X88750000Y-37250000D03*
%TO.P,SW5,2,2*%
%TO.N,GND*%
X93250000Y-45250000D03*
X93250000Y-37250000D03*
%TD*%
D20*
%TO.P,R5,1*%
%TO.N,Net-(U1-~{CHRG})*%
X104000000Y-49380000D03*
%TO.P,R5,2*%
%TO.N,Net-(D2-K)*%
X104000000Y-57000000D03*
%TD*%
D21*
%TO.P,D3,1,K*%
%TO.N,Net-(D3-K)*%
X107250000Y-80250000D03*
D22*
%TO.P,D3,2,A*%
%TO.N,/CE*%
X104710000Y-80250000D03*
%TD*%
D20*
%TO.P,R1,1*%
%TO.N,Net-(D1-A)*%
X44130000Y-31250000D03*
%TO.P,R1,2*%
%TO.N,/VCC*%
X51750000Y-31250000D03*
%TD*%
%TO.P,R3,1*%
%TO.N,Net-(U1-PROG)*%
X105250000Y-59440000D03*
%TO.P,R3,2*%
%TO.N,GND*%
X105250000Y-67060000D03*
%TD*%
%TO.P,R4,1*%
%TO.N,Net-(U1-~{STDBY})*%
X107250000Y-49380000D03*
%TO.P,R4,2*%
%TO.N,Net-(D3-K)*%
X107250000Y-57000000D03*
%TD*%
D23*
%TO.P,C2,1*%
%TO.N,/CE*%
X82750000Y-81250000D03*
D11*
%TO.P,C2,2*%
%TO.N,GND*%
X82750000Y-66250000D03*
%TD*%
D24*
%TO.P,U_2,1,OUT*%
%TO.N,Net-(U2-GPIO23)*%
X42000000Y-28000000D03*
D22*
%TO.P,U_2,2,GND*%
%TO.N,GND*%
X44540000Y-28000000D03*
%TO.P,U_2,3,Vs*%
%TO.N,/VCC*%
X47080000Y-28000000D03*
%TD*%
D20*
%TO.P,R2,1*%
%TO.N,Net-(Q1-B)*%
X53000000Y-35250000D03*
%TO.P,R2,2*%
%TO.N,Net-(U2-GPIO16)*%
X45380000Y-35250000D03*
%TD*%
D25*
%TO.P,Q1,1,E*%
%TO.N,GND*%
X59460000Y-35710000D03*
D26*
%TO.P,Q1,2,B*%
%TO.N,Net-(Q1-B)*%
X62000000Y-38250000D03*
%TO.P,Q1,3,C*%
%TO.N,Net-(D1-K)*%
X59460000Y-40790000D03*
%TD*%
D21*
%TO.P,D1,1,K*%
%TO.N,Net-(D1-K)*%
X57540000Y-29250000D03*
D22*
%TO.P,D1,2,A*%
%TO.N,Net-(D1-A)*%
X55000000Y-29250000D03*
%TD*%
D15*
%TO.P,J1,1,VCC*%
%TO.N,GND*%
X74000000Y-62250000D03*
D16*
%TO.P,J1,2,RX*%
%TO.N,/VCC*%
X74000000Y-64790000D03*
%TO.P,J1,3,TX*%
%TO.N,/SDA1*%
X74000000Y-67330000D03*
%TO.P,J1,4,GND*%
%TO.N,/SCL1*%
X74000000Y-69870000D03*
%TD*%
D21*
%TO.P,D2,1,K*%
%TO.N,Net-(D2-K)*%
X107000000Y-73000000D03*
D22*
%TO.P,D2,2,A*%
%TO.N,/CE*%
X104460000Y-73000000D03*
%TD*%
D27*
%TO.P,C1,1*%
%TO.N,/BAT+*%
X82500000Y-48750000D03*
D11*
%TO.P,C1,2*%
%TO.N,GND*%
X82500000Y-63750000D03*
%TD*%
D28*
%TO.N,GND*%
X68000000Y-48000000D03*
X87500000Y-51750000D03*
%TO.N,Net-(U1-PROG)*%
X94500000Y-60500000D03*
%TO.N,/CE*%
X86750000Y-79949000D03*
X67500000Y-74750000D03*
X95000000Y-58500000D03*
%TD*%
D29*
%TO.N,GND*%
X91300000Y-58875000D02*
X91865000Y-59440000D01*
X81000000Y-62250000D02*
X85810000Y-67060000D01*
X97000000Y-48250000D02*
X94000000Y-45250000D01*
X87500000Y-53000000D02*
X87000000Y-53500000D01*
X91865000Y-59440000D02*
X93075000Y-59440000D01*
X85810000Y-67060000D02*
X105250000Y-67060000D01*
D30*
X89900000Y-57500000D02*
X89900000Y-56400000D01*
D29*
X95000000Y-33500000D02*
X95000000Y-35500000D01*
X90750000Y-46500000D02*
X92000000Y-45250000D01*
X95000000Y-33500000D02*
X98000000Y-30500000D01*
X68000000Y-39250000D02*
X68000000Y-48000000D01*
D30*
X89900000Y-56400000D02*
X87000000Y-53500000D01*
D29*
X91300000Y-58875000D02*
X89900000Y-58875000D01*
X74238760Y-66179000D02*
X59771000Y-66179000D01*
D30*
X89900000Y-58875000D02*
X89900000Y-57500000D01*
D29*
X92000000Y-45250000D02*
X93250000Y-45250000D01*
X98000000Y-27250000D02*
X97000000Y-26250000D01*
X94000000Y-45250000D02*
X93250000Y-45250000D01*
X95000000Y-53500000D02*
X97000000Y-51500000D01*
X87500000Y-51750000D02*
X87500000Y-53000000D01*
X99750000Y-37250000D02*
X99750000Y-45250000D01*
X74000000Y-62250000D02*
X75151000Y-63401000D01*
X95000000Y-35500000D02*
X93250000Y-37250000D01*
X75151000Y-63401000D02*
X75151000Y-65266760D01*
X75151000Y-65266760D02*
X74238760Y-66179000D01*
X82250000Y-37250000D02*
X82250000Y-45250000D01*
X91805000Y-61980000D02*
X89900000Y-60075000D01*
X86000000Y-33500000D02*
X82250000Y-37250000D01*
X91840000Y-59440000D02*
X89900000Y-57500000D01*
X82750000Y-64000000D02*
X82750000Y-66750000D01*
X97000000Y-51500000D02*
X97000000Y-48250000D01*
X93075000Y-59440000D02*
X91840000Y-59440000D01*
X86750000Y-46500000D02*
X90750000Y-46500000D01*
X74000000Y-62250000D02*
X81000000Y-62250000D01*
X74000000Y-33250000D02*
X68000000Y-39250000D01*
X93250000Y-37250000D02*
X93250000Y-45250000D01*
X97000000Y-26250000D02*
X81000000Y-26250000D01*
X82500000Y-63750000D02*
X82750000Y-64000000D01*
X82750000Y-66250000D02*
X82750000Y-66750000D01*
X59771000Y-66179000D02*
X41300000Y-84650000D01*
X98000000Y-30500000D02*
X98000000Y-27250000D01*
X85500000Y-45250000D02*
X86750000Y-46500000D01*
X89900000Y-61275000D02*
X91300000Y-61275000D01*
X93250000Y-45250000D02*
X99750000Y-45250000D01*
X81000000Y-26250000D02*
X74000000Y-33250000D01*
X89900000Y-60075000D02*
X89900000Y-61275000D01*
X82250000Y-45250000D02*
X85500000Y-45250000D01*
X93075000Y-61980000D02*
X91805000Y-61980000D01*
X91300000Y-60075000D02*
X91300000Y-61275000D01*
X87000000Y-33500000D02*
X86000000Y-33500000D01*
%TO.N,/VCC*%
X58620000Y-64790000D02*
X74000000Y-64790000D01*
X37459000Y-59788892D02*
X43000000Y-65329892D01*
X37459000Y-58711108D02*
X37459000Y-59788892D01*
X71000000Y-38790000D02*
X71000000Y-45490000D01*
X43000000Y-65329892D02*
X43000000Y-80410000D01*
X72779946Y-49710054D02*
X46460054Y-49710054D01*
X74000000Y-35790000D02*
X71000000Y-38790000D01*
X43000000Y-80410000D02*
X58620000Y-64790000D01*
X71000000Y-45490000D02*
X74000000Y-48490000D01*
X46460054Y-49710054D02*
X37459000Y-58711108D01*
X38760000Y-84650000D02*
X43000000Y-80410000D01*
X74000000Y-48490000D02*
X72779946Y-49710054D01*
%TO.N,/SCL1*%
X74000000Y-69870000D02*
X71320000Y-69870000D01*
X71320000Y-69870000D02*
X56540000Y-84650000D01*
%TO.N,/SDA1*%
X74000000Y-67330000D02*
X71320000Y-67330000D01*
X71320000Y-67330000D02*
X54000000Y-84650000D01*
%TO.N,/P1*%
X78151000Y-48666100D02*
X71166100Y-55651000D01*
X71166100Y-55651000D02*
X69349002Y-55651000D01*
X78649002Y-46351000D02*
X78151000Y-46849002D01*
X80000000Y-45000002D02*
X78751000Y-46249002D01*
X78151000Y-46849002D02*
X78151000Y-48666100D01*
X87000000Y-29000000D02*
X80000000Y-36000000D01*
X69349002Y-55651000D02*
X68750002Y-56250000D01*
X87000000Y-29000000D02*
X95000000Y-29000000D01*
X68750002Y-56250000D02*
X67160000Y-56250000D01*
X78751000Y-46249002D02*
X78751000Y-46351000D01*
X78751000Y-46351000D02*
X78649002Y-46351000D01*
X67160000Y-56250000D02*
X64160000Y-59250000D01*
X80000000Y-36000000D02*
X80000000Y-45000002D01*
%TO.N,/P2*%
X77750000Y-45250000D02*
X77750000Y-48500000D01*
X77750000Y-48500000D02*
X71000000Y-55250000D01*
X65620000Y-55250000D02*
X61620000Y-59250000D01*
X77750000Y-37250000D02*
X77750000Y-45250000D01*
X71000000Y-55250000D02*
X65620000Y-55250000D01*
%TO.N,/P3*%
X107808525Y-61558525D02*
X105411050Y-63956000D01*
X107808525Y-58191475D02*
X107808525Y-61558525D01*
X83046709Y-61521000D02*
X81513291Y-61521000D01*
X83597000Y-62071291D02*
X83046709Y-61521000D01*
X109000000Y-47500000D02*
X109000000Y-57000000D01*
X104250000Y-37250000D02*
X104250000Y-45250000D01*
X84549857Y-63784000D02*
X83597000Y-62831143D01*
X85534000Y-63784000D02*
X84549857Y-63784000D01*
X83597000Y-62831143D02*
X83597000Y-62071291D01*
X109000000Y-57000000D02*
X107808525Y-58191475D01*
X81513291Y-61521000D02*
X81091291Y-61099000D01*
X106750000Y-45250000D02*
X109000000Y-47500000D01*
X81091291Y-61099000D02*
X60929000Y-61099000D01*
X104250000Y-45250000D02*
X106750000Y-45250000D01*
X105411050Y-63956000D02*
X85706000Y-63956000D01*
X85706000Y-63956000D02*
X85534000Y-63784000D01*
X60929000Y-61099000D02*
X59080000Y-59250000D01*
%TO.N,/P4*%
X87000000Y-49000000D02*
X87000000Y-48500000D01*
X83251000Y-46351000D02*
X80649000Y-46351000D01*
X79450000Y-46500000D02*
X78552000Y-47398000D01*
X80500000Y-46500000D02*
X79450000Y-46500000D01*
X84250000Y-45750000D02*
X83384900Y-45750000D01*
X71332200Y-56052000D02*
X69898000Y-56052000D01*
X78552000Y-48832200D02*
X71332200Y-56052000D01*
X87000000Y-49000000D02*
X95000000Y-49000000D01*
X69898000Y-56052000D02*
X66700000Y-59250000D01*
X87000000Y-48500000D02*
X84250000Y-45750000D01*
X78552000Y-47398000D02*
X78552000Y-48832200D01*
X83251000Y-45883900D02*
X83251000Y-46351000D01*
X80649000Y-46351000D02*
X80500000Y-46500000D01*
X83384900Y-45750000D02*
X83251000Y-45883900D01*
%TO.N,/P5*%
X76000000Y-36898000D02*
X76000000Y-49250000D01*
X97000000Y-30250000D02*
X97000000Y-28250000D01*
X94875000Y-31125000D02*
X96125000Y-31125000D01*
X85648000Y-27250000D02*
X76000000Y-36898000D01*
X96125000Y-31125000D02*
X97000000Y-30250000D01*
X88750000Y-37250000D02*
X94875000Y-31125000D01*
X76000000Y-49250000D02*
X71000000Y-54250000D01*
X61540000Y-54250000D02*
X56540000Y-59250000D01*
X96000000Y-27250000D02*
X85648000Y-27250000D01*
X97000000Y-28250000D02*
X96000000Y-27250000D01*
X71000000Y-54250000D02*
X61540000Y-54250000D01*
X88750000Y-37250000D02*
X88750000Y-45250000D01*
%TO.N,Net-(U1-~{STDBY})*%
X103692100Y-54192100D02*
X103692100Y-52937900D01*
X83998000Y-62665043D02*
X84715957Y-63383000D01*
X94500000Y-63383000D02*
X95633000Y-62250000D01*
X83998000Y-61252000D02*
X83998000Y-62665043D01*
X88125000Y-59440000D02*
X85810000Y-59440000D01*
X103692100Y-52937900D02*
X107250000Y-49380000D01*
X103692100Y-54192100D02*
X95633600Y-62250600D01*
X85810000Y-59440000D02*
X83998000Y-61252000D01*
X84715957Y-63383000D02*
X94500000Y-63383000D01*
%TO.N,Net-(U1-~{CHRG})*%
X84882057Y-62982000D02*
X94335100Y-62982000D01*
X94335100Y-62982000D02*
X99815000Y-57502100D01*
X99815000Y-53565000D02*
X104000000Y-49380000D01*
X88125000Y-60710000D02*
X85540000Y-60710000D01*
X84399000Y-62498943D02*
X84882057Y-62982000D01*
X99815000Y-57502100D02*
X99815000Y-53565000D01*
X85540000Y-60710000D02*
X84399000Y-61851000D01*
X84399000Y-61851000D02*
X84399000Y-62498943D01*
%TO.N,Net-(U1-PROG)*%
X93075000Y-60710000D02*
X94290000Y-60710000D01*
X94290000Y-60710000D02*
X94500000Y-60500000D01*
%TO.N,/BAT+*%
X82750000Y-49000000D02*
X82500000Y-48750000D01*
D30*
X88125000Y-58170000D02*
X82750000Y-52795000D01*
X82750000Y-52795000D02*
X82750000Y-49000000D01*
D29*
%TO.N,/CE*%
X86699000Y-80000000D02*
X83786160Y-80000000D01*
X72750000Y-80000000D02*
X67500000Y-74750000D01*
D30*
X77250000Y-59250000D02*
X74320000Y-59250000D01*
D29*
X95101000Y-61570968D02*
X94090968Y-62581000D01*
D30*
X86597000Y-50999000D02*
X87811075Y-50999000D01*
D29*
X95101000Y-58601000D02*
X95101000Y-61570968D01*
D30*
X80375000Y-56125000D02*
X77250000Y-59250000D01*
X84299000Y-47299000D02*
X84299000Y-48701000D01*
D29*
X82750000Y-81250000D02*
X82801000Y-81301000D01*
X103659000Y-81301000D02*
X104710000Y-80250000D01*
X95000000Y-58500000D02*
X95101000Y-58601000D01*
X86037160Y-50001000D02*
X83485160Y-47449000D01*
X94670000Y-58170000D02*
X93075000Y-58170000D01*
X94090968Y-62581000D02*
X88726000Y-62581000D01*
X104460000Y-80000000D02*
X104710000Y-80250000D01*
X88726000Y-62581000D02*
X88125000Y-61980000D01*
X83485160Y-47449000D02*
X81514840Y-47449000D01*
D30*
X84299000Y-48701000D02*
X86597000Y-50999000D01*
D29*
X83735160Y-79949000D02*
X81764840Y-79949000D01*
X95000000Y-58500000D02*
X94670000Y-58170000D01*
D30*
X80375000Y-56125000D02*
X80375000Y-48376708D01*
X93075000Y-56262925D02*
X93075000Y-58170000D01*
X80375000Y-48376708D02*
X81452708Y-47299000D01*
X87811075Y-50999000D02*
X93075000Y-56262925D01*
X81452708Y-47299000D02*
X84299000Y-47299000D01*
D29*
X93075000Y-58170000D02*
X93075000Y-56475057D01*
X86750000Y-79949000D02*
X86699000Y-80000000D01*
X93075000Y-56475057D02*
X86600943Y-50001000D01*
X81764840Y-79949000D02*
X81713840Y-80000000D01*
X86600943Y-50001000D02*
X86037160Y-50001000D01*
X104460000Y-73000000D02*
X104460000Y-80000000D01*
X83786160Y-80000000D02*
X83735160Y-79949000D01*
X82801000Y-81301000D02*
X103659000Y-81301000D01*
X81713840Y-80000000D02*
X72750000Y-80000000D01*
%TD*%
%TA.AperFunction,Conductor*%
%TO.N,GND*%
G36*
X109168834Y-57782915D02*
G01*
X109224767Y-57824787D01*
X109249184Y-57890251D01*
X109249500Y-57899097D01*
X109249500Y-86625500D01*
X109229815Y-86692539D01*
X109177011Y-86738294D01*
X109125500Y-86749500D01*
X33624500Y-86749500D01*
X33557461Y-86729815D01*
X33511706Y-86677011D01*
X33500500Y-86625500D01*
X33500500Y-84960863D01*
X33520185Y-84893824D01*
X33572989Y-84848069D01*
X33642147Y-84838125D01*
X33705703Y-84867150D01*
X33739061Y-84913411D01*
X33756650Y-84955876D01*
X33756657Y-84955890D01*
X33871392Y-85154617D01*
X34011081Y-85336661D01*
X34011089Y-85336670D01*
X34173330Y-85498911D01*
X34173338Y-85498918D01*
X34173339Y-85498919D01*
X34199646Y-85519105D01*
X34355382Y-85638607D01*
X34355385Y-85638608D01*
X34355388Y-85638611D01*
X34554112Y-85753344D01*
X34554117Y-85753346D01*
X34554123Y-85753349D01*
X34645480Y-85791190D01*
X34766113Y-85841158D01*
X34987762Y-85900548D01*
X35215266Y-85930500D01*
X35215273Y-85930500D01*
X35444727Y-85930500D01*
X35444734Y-85930500D01*
X35672238Y-85900548D01*
X35893887Y-85841158D01*
X36105888Y-85753344D01*
X36304612Y-85638611D01*
X36486661Y-85498919D01*
X36486665Y-85498914D01*
X36486670Y-85498911D01*
X36648911Y-85336670D01*
X36648914Y-85336665D01*
X36648919Y-85336661D01*
X36788611Y-85154612D01*
X36903344Y-84955888D01*
X36991158Y-84743887D01*
X37015726Y-84652195D01*
X37052090Y-84592538D01*
X37114936Y-84562008D01*
X37184312Y-84570302D01*
X37238190Y-84614787D01*
X37259465Y-84681339D01*
X37259500Y-84684291D01*
X37259500Y-84768097D01*
X37296446Y-85001368D01*
X37369433Y-85225996D01*
X37425825Y-85336670D01*
X37476657Y-85436433D01*
X37615483Y-85627510D01*
X37782490Y-85794517D01*
X37973567Y-85933343D01*
X38060250Y-85977510D01*
X38184003Y-86040566D01*
X38184005Y-86040566D01*
X38184008Y-86040568D01*
X38304412Y-86079689D01*
X38408631Y-86113553D01*
X38641903Y-86150500D01*
X38641908Y-86150500D01*
X38878097Y-86150500D01*
X39111368Y-86113553D01*
X39112870Y-86113065D01*
X39335992Y-86040568D01*
X39546433Y-85933343D01*
X39737510Y-85794517D01*
X39904517Y-85627510D01*
X39951370Y-85563022D01*
X39955713Y-85558199D01*
X39980150Y-85543142D01*
X40002877Y-85525618D01*
X40010393Y-85524509D01*
X40015199Y-85521549D01*
X40028730Y-85521806D01*
X40057594Y-85517551D01*
X40077340Y-85519105D01*
X40808871Y-84787573D01*
X40824755Y-84846853D01*
X40891898Y-84963147D01*
X40986853Y-85058102D01*
X41103147Y-85125245D01*
X41162425Y-85141128D01*
X40430893Y-85872658D01*
X40513828Y-85932914D01*
X40724197Y-86040102D01*
X40948752Y-86113065D01*
X40948751Y-86113065D01*
X41181948Y-86150000D01*
X41418052Y-86150000D01*
X41651247Y-86113065D01*
X41875802Y-86040102D01*
X42086163Y-85932918D01*
X42086169Y-85932914D01*
X42169104Y-85872658D01*
X42169105Y-85872658D01*
X41437574Y-85141128D01*
X41496853Y-85125245D01*
X41613147Y-85058102D01*
X41708102Y-84963147D01*
X41775245Y-84846853D01*
X41791128Y-84787574D01*
X42522657Y-85519104D01*
X42542404Y-85517550D01*
X42610781Y-85531914D01*
X42652451Y-85568282D01*
X42695483Y-85627510D01*
X42862490Y-85794517D01*
X43053567Y-85933343D01*
X43140250Y-85977510D01*
X43264003Y-86040566D01*
X43264005Y-86040566D01*
X43264008Y-86040568D01*
X43384412Y-86079689D01*
X43488631Y-86113553D01*
X43721903Y-86150500D01*
X43721908Y-86150500D01*
X43958097Y-86150500D01*
X44191368Y-86113553D01*
X44192870Y-86113065D01*
X44415992Y-86040568D01*
X44626433Y-85933343D01*
X44817510Y-85794517D01*
X44984517Y-85627510D01*
X45009682Y-85592872D01*
X45065011Y-85550207D01*
X45134625Y-85544228D01*
X45196420Y-85576833D01*
X45210315Y-85592870D01*
X45235483Y-85627510D01*
X45402490Y-85794517D01*
X45593567Y-85933343D01*
X45680250Y-85977510D01*
X45804003Y-86040566D01*
X45804005Y-86040566D01*
X45804008Y-86040568D01*
X45924412Y-86079689D01*
X46028631Y-86113553D01*
X46261903Y-86150500D01*
X46261908Y-86150500D01*
X46498097Y-86150500D01*
X46731368Y-86113553D01*
X46732870Y-86113065D01*
X46955992Y-86040568D01*
X47166433Y-85933343D01*
X47357510Y-85794517D01*
X47524517Y-85627510D01*
X47549682Y-85592872D01*
X47605011Y-85550207D01*
X47674625Y-85544228D01*
X47736420Y-85576833D01*
X47750315Y-85592870D01*
X47775483Y-85627510D01*
X47942490Y-85794517D01*
X48133567Y-85933343D01*
X48220250Y-85977510D01*
X48344003Y-86040566D01*
X48344005Y-86040566D01*
X48344008Y-86040568D01*
X48464412Y-86079689D01*
X48568631Y-86113553D01*
X48801903Y-86150500D01*
X48801908Y-86150500D01*
X49038097Y-86150500D01*
X49271368Y-86113553D01*
X49272870Y-86113065D01*
X49495992Y-86040568D01*
X49706433Y-85933343D01*
X49897510Y-85794517D01*
X50064517Y-85627510D01*
X50089682Y-85592872D01*
X50145011Y-85550207D01*
X50214625Y-85544228D01*
X50276420Y-85576833D01*
X50290315Y-85592870D01*
X50315483Y-85627510D01*
X50482490Y-85794517D01*
X50673567Y-85933343D01*
X50760250Y-85977510D01*
X50884003Y-86040566D01*
X50884005Y-86040566D01*
X50884008Y-86040568D01*
X51004412Y-86079689D01*
X51108631Y-86113553D01*
X51341903Y-86150500D01*
X51341908Y-86150500D01*
X51578097Y-86150500D01*
X51811368Y-86113553D01*
X51812870Y-86113065D01*
X52035992Y-86040568D01*
X52246433Y-85933343D01*
X52437510Y-85794517D01*
X52604517Y-85627510D01*
X52629682Y-85592872D01*
X52685011Y-85550207D01*
X52754625Y-85544228D01*
X52816420Y-85576833D01*
X52830315Y-85592870D01*
X52855483Y-85627510D01*
X53022490Y-85794517D01*
X53213567Y-85933343D01*
X53300250Y-85977510D01*
X53424003Y-86040566D01*
X53424005Y-86040566D01*
X53424008Y-86040568D01*
X53544412Y-86079689D01*
X53648631Y-86113553D01*
X53881903Y-86150500D01*
X53881908Y-86150500D01*
X54118097Y-86150500D01*
X54351368Y-86113553D01*
X54352870Y-86113065D01*
X54575992Y-86040568D01*
X54786433Y-85933343D01*
X54977510Y-85794517D01*
X55144517Y-85627510D01*
X55169682Y-85592872D01*
X55225011Y-85550207D01*
X55294625Y-85544228D01*
X55356420Y-85576833D01*
X55370315Y-85592870D01*
X55395483Y-85627510D01*
X55562490Y-85794517D01*
X55753567Y-85933343D01*
X55840250Y-85977510D01*
X55964003Y-86040566D01*
X55964005Y-86040566D01*
X55964008Y-86040568D01*
X56084412Y-86079689D01*
X56188631Y-86113553D01*
X56421903Y-86150500D01*
X56421908Y-86150500D01*
X56658097Y-86150500D01*
X56891368Y-86113553D01*
X56892870Y-86113065D01*
X57115992Y-86040568D01*
X57326433Y-85933343D01*
X57517510Y-85794517D01*
X57684517Y-85627510D01*
X57709682Y-85592872D01*
X57765011Y-85550207D01*
X57834625Y-85544228D01*
X57896420Y-85576833D01*
X57910315Y-85592870D01*
X57935483Y-85627510D01*
X58102490Y-85794517D01*
X58293567Y-85933343D01*
X58380250Y-85977510D01*
X58504003Y-86040566D01*
X58504005Y-86040566D01*
X58504008Y-86040568D01*
X58624412Y-86079689D01*
X58728631Y-86113553D01*
X58961903Y-86150500D01*
X58961908Y-86150500D01*
X59198097Y-86150500D01*
X59431368Y-86113553D01*
X59432870Y-86113065D01*
X59655992Y-86040568D01*
X59866433Y-85933343D01*
X60057510Y-85794517D01*
X60224517Y-85627510D01*
X60249682Y-85592872D01*
X60305011Y-85550207D01*
X60374625Y-85544228D01*
X60436420Y-85576833D01*
X60450315Y-85592870D01*
X60475483Y-85627510D01*
X60642490Y-85794517D01*
X60833567Y-85933343D01*
X60920250Y-85977510D01*
X61044003Y-86040566D01*
X61044005Y-86040566D01*
X61044008Y-86040568D01*
X61164412Y-86079689D01*
X61268631Y-86113553D01*
X61501903Y-86150500D01*
X61501908Y-86150500D01*
X61738097Y-86150500D01*
X61971368Y-86113553D01*
X61972870Y-86113065D01*
X62195992Y-86040568D01*
X62406433Y-85933343D01*
X62597510Y-85794517D01*
X62764517Y-85627510D01*
X62789682Y-85592872D01*
X62845011Y-85550207D01*
X62914625Y-85544228D01*
X62976420Y-85576833D01*
X62990315Y-85592870D01*
X63015483Y-85627510D01*
X63182490Y-85794517D01*
X63373567Y-85933343D01*
X63460250Y-85977510D01*
X63584003Y-86040566D01*
X63584005Y-86040566D01*
X63584008Y-86040568D01*
X63704412Y-86079689D01*
X63808631Y-86113553D01*
X64041903Y-86150500D01*
X64041908Y-86150500D01*
X64278097Y-86150500D01*
X64511368Y-86113553D01*
X64512870Y-86113065D01*
X64735992Y-86040568D01*
X64946433Y-85933343D01*
X65137510Y-85794517D01*
X65304517Y-85627510D01*
X65329682Y-85592872D01*
X65385011Y-85550207D01*
X65454625Y-85544228D01*
X65516420Y-85576833D01*
X65530315Y-85592870D01*
X65555483Y-85627510D01*
X65722490Y-85794517D01*
X65913567Y-85933343D01*
X66000250Y-85977510D01*
X66124003Y-86040566D01*
X66124005Y-86040566D01*
X66124008Y-86040568D01*
X66244412Y-86079689D01*
X66348631Y-86113553D01*
X66581903Y-86150500D01*
X66581908Y-86150500D01*
X66818097Y-86150500D01*
X67051368Y-86113553D01*
X67052870Y-86113065D01*
X67275992Y-86040568D01*
X67486433Y-85933343D01*
X67677510Y-85794517D01*
X67844517Y-85627510D01*
X67869682Y-85592872D01*
X67925011Y-85550207D01*
X67994625Y-85544228D01*
X68056420Y-85576833D01*
X68070315Y-85592870D01*
X68095483Y-85627510D01*
X68262490Y-85794517D01*
X68453567Y-85933343D01*
X68540250Y-85977510D01*
X68664003Y-86040566D01*
X68664005Y-86040566D01*
X68664008Y-86040568D01*
X68784412Y-86079689D01*
X68888631Y-86113553D01*
X69121903Y-86150500D01*
X69121908Y-86150500D01*
X69358097Y-86150500D01*
X69591368Y-86113553D01*
X69592870Y-86113065D01*
X69815992Y-86040568D01*
X70026433Y-85933343D01*
X70217510Y-85794517D01*
X70384517Y-85627510D01*
X70409682Y-85592872D01*
X70465011Y-85550207D01*
X70534625Y-85544228D01*
X70596420Y-85576833D01*
X70610315Y-85592870D01*
X70635483Y-85627510D01*
X70802490Y-85794517D01*
X70993567Y-85933343D01*
X71080250Y-85977510D01*
X71204003Y-86040566D01*
X71204005Y-86040566D01*
X71204008Y-86040568D01*
X71324412Y-86079689D01*
X71428631Y-86113553D01*
X71661903Y-86150500D01*
X71661908Y-86150500D01*
X71898097Y-86150500D01*
X72131368Y-86113553D01*
X72132870Y-86113065D01*
X72355992Y-86040568D01*
X72566433Y-85933343D01*
X72757510Y-85794517D01*
X72924517Y-85627510D01*
X72949682Y-85592872D01*
X73005011Y-85550207D01*
X73074625Y-85544228D01*
X73136420Y-85576833D01*
X73150315Y-85592870D01*
X73175483Y-85627510D01*
X73342490Y-85794517D01*
X73533567Y-85933343D01*
X73620250Y-85977510D01*
X73744003Y-86040566D01*
X73744005Y-86040566D01*
X73744008Y-86040568D01*
X73864412Y-86079689D01*
X73968631Y-86113553D01*
X74201903Y-86150500D01*
X74201908Y-86150500D01*
X74438097Y-86150500D01*
X74671368Y-86113553D01*
X74672870Y-86113065D01*
X74895992Y-86040568D01*
X75106433Y-85933343D01*
X75297510Y-85794517D01*
X75464517Y-85627510D01*
X75603343Y-85436433D01*
X75710568Y-85225992D01*
X75783553Y-85001368D01*
X75797484Y-84913411D01*
X75820500Y-84768097D01*
X75820500Y-84531902D01*
X75783553Y-84298631D01*
X75732010Y-84140000D01*
X75710568Y-84074008D01*
X75710566Y-84074005D01*
X75710566Y-84074003D01*
X75603342Y-83863566D01*
X75597471Y-83855485D01*
X75464517Y-83672490D01*
X75297510Y-83505483D01*
X75106433Y-83366657D01*
X74895996Y-83259433D01*
X74671368Y-83186446D01*
X74438097Y-83149500D01*
X74438092Y-83149500D01*
X74201908Y-83149500D01*
X74201903Y-83149500D01*
X73968631Y-83186446D01*
X73744003Y-83259433D01*
X73533566Y-83366657D01*
X73450047Y-83427338D01*
X73342490Y-83505483D01*
X73342488Y-83505485D01*
X73342487Y-83505485D01*
X73175484Y-83672488D01*
X73150318Y-83707127D01*
X73094987Y-83749792D01*
X73025374Y-83755771D01*
X72963579Y-83723165D01*
X72949682Y-83707127D01*
X72924517Y-83672490D01*
X72757510Y-83505483D01*
X72566433Y-83366657D01*
X72355996Y-83259433D01*
X72131368Y-83186446D01*
X71898097Y-83149500D01*
X71898092Y-83149500D01*
X71661908Y-83149500D01*
X71661903Y-83149500D01*
X71428631Y-83186446D01*
X71204003Y-83259433D01*
X70993566Y-83366657D01*
X70910047Y-83427338D01*
X70802490Y-83505483D01*
X70802488Y-83505485D01*
X70802487Y-83505485D01*
X70635484Y-83672488D01*
X70610318Y-83707127D01*
X70554987Y-83749792D01*
X70485374Y-83755771D01*
X70423579Y-83723165D01*
X70409682Y-83707127D01*
X70384517Y-83672490D01*
X70217510Y-83505483D01*
X70026433Y-83366657D01*
X69815996Y-83259433D01*
X69591368Y-83186446D01*
X69358097Y-83149500D01*
X69358092Y-83149500D01*
X69121908Y-83149500D01*
X69121903Y-83149500D01*
X68888631Y-83186446D01*
X68664003Y-83259433D01*
X68453566Y-83366657D01*
X68370047Y-83427338D01*
X68262490Y-83505483D01*
X68262488Y-83505485D01*
X68262487Y-83505485D01*
X68095484Y-83672488D01*
X68070318Y-83707127D01*
X68014987Y-83749792D01*
X67945374Y-83755771D01*
X67883579Y-83723165D01*
X67869682Y-83707127D01*
X67844517Y-83672490D01*
X67677510Y-83505483D01*
X67486433Y-83366657D01*
X67275996Y-83259433D01*
X67051368Y-83186446D01*
X66818097Y-83149500D01*
X66818092Y-83149500D01*
X66581908Y-83149500D01*
X66581903Y-83149500D01*
X66348631Y-83186446D01*
X66124003Y-83259433D01*
X65913566Y-83366657D01*
X65830047Y-83427338D01*
X65722490Y-83505483D01*
X65722488Y-83505485D01*
X65722487Y-83505485D01*
X65555484Y-83672488D01*
X65530318Y-83707127D01*
X65474987Y-83749792D01*
X65405374Y-83755771D01*
X65343579Y-83723165D01*
X65329682Y-83707127D01*
X65304517Y-83672490D01*
X65137510Y-83505483D01*
X64946433Y-83366657D01*
X64735996Y-83259433D01*
X64511368Y-83186446D01*
X64278097Y-83149500D01*
X64278092Y-83149500D01*
X64041908Y-83149500D01*
X64041903Y-83149500D01*
X63808631Y-83186446D01*
X63584003Y-83259433D01*
X63373566Y-83366657D01*
X63290047Y-83427338D01*
X63182490Y-83505483D01*
X63182488Y-83505485D01*
X63182487Y-83505485D01*
X63015484Y-83672488D01*
X62990318Y-83707127D01*
X62934987Y-83749792D01*
X62865374Y-83755771D01*
X62803579Y-83723165D01*
X62789682Y-83707127D01*
X62764517Y-83672490D01*
X62597510Y-83505483D01*
X62406433Y-83366657D01*
X62195996Y-83259433D01*
X61971368Y-83186446D01*
X61738097Y-83149500D01*
X61738092Y-83149500D01*
X61501908Y-83149500D01*
X61501903Y-83149500D01*
X61268631Y-83186446D01*
X61044003Y-83259433D01*
X60833566Y-83366657D01*
X60750047Y-83427338D01*
X60642490Y-83505483D01*
X60642488Y-83505485D01*
X60642487Y-83505485D01*
X60475484Y-83672488D01*
X60450318Y-83707127D01*
X60394987Y-83749792D01*
X60325374Y-83755771D01*
X60263579Y-83723165D01*
X60249682Y-83707127D01*
X60224517Y-83672490D01*
X60057510Y-83505483D01*
X59866433Y-83366657D01*
X59655996Y-83259433D01*
X59431368Y-83186446D01*
X59198097Y-83149500D01*
X59198092Y-83149500D01*
X59189096Y-83149500D01*
X59122057Y-83129815D01*
X59076302Y-83077011D01*
X59066358Y-83007853D01*
X59095383Y-82944297D01*
X59101415Y-82937819D01*
X62902424Y-79136810D01*
X66740898Y-75298335D01*
X66802219Y-75264852D01*
X66871911Y-75269836D01*
X66916258Y-75298337D01*
X66989707Y-75371786D01*
X66989711Y-75371789D01*
X67120814Y-75459390D01*
X67120827Y-75459397D01*
X67266498Y-75519735D01*
X67266503Y-75519737D01*
X67331147Y-75532595D01*
X67421849Y-75550638D01*
X67483760Y-75583023D01*
X67485339Y-75584574D01*
X72265139Y-80364374D01*
X72265149Y-80364385D01*
X72269479Y-80368715D01*
X72269480Y-80368716D01*
X72381284Y-80480520D01*
X72381286Y-80480521D01*
X72429881Y-80508577D01*
X72429880Y-80508577D01*
X72429883Y-80508578D01*
X72518209Y-80559574D01*
X72518210Y-80559574D01*
X72518215Y-80559577D01*
X72670942Y-80600500D01*
X72670943Y-80600500D01*
X81125500Y-80600500D01*
X81192539Y-80620185D01*
X81238294Y-80672989D01*
X81249500Y-80724500D01*
X81249500Y-82050001D01*
X81249501Y-82050018D01*
X81260000Y-82152796D01*
X81260001Y-82152799D01*
X81315185Y-82319331D01*
X81315186Y-82319334D01*
X81401610Y-82459451D01*
X81407289Y-82468657D01*
X81415948Y-82477316D01*
X81449433Y-82538639D01*
X81444449Y-82608331D01*
X81402577Y-82664264D01*
X81390272Y-82672381D01*
X81368738Y-82684814D01*
X81305379Y-82721394D01*
X81123338Y-82861081D01*
X80961081Y-83023338D01*
X80821392Y-83205382D01*
X80706657Y-83404109D01*
X80706650Y-83404123D01*
X80618842Y-83616112D01*
X80559453Y-83837759D01*
X80559451Y-83837770D01*
X80529500Y-84065258D01*
X80529500Y-84294741D01*
X80550356Y-84453147D01*
X80559452Y-84522238D01*
X80611676Y-84717143D01*
X80618842Y-84743887D01*
X80706650Y-84955876D01*
X80706657Y-84955890D01*
X80821392Y-85154617D01*
X80961081Y-85336661D01*
X80961089Y-85336670D01*
X81123330Y-85498911D01*
X81123338Y-85498918D01*
X81123339Y-85498919D01*
X81149646Y-85519105D01*
X81305382Y-85638607D01*
X81305385Y-85638608D01*
X81305388Y-85638611D01*
X81504112Y-85753344D01*
X81504117Y-85753346D01*
X81504123Y-85753349D01*
X81595480Y-85791190D01*
X81716113Y-85841158D01*
X81937762Y-85900548D01*
X82165266Y-85930500D01*
X82165273Y-85930500D01*
X82394727Y-85930500D01*
X82394734Y-85930500D01*
X82622238Y-85900548D01*
X82843887Y-85841158D01*
X83055888Y-85753344D01*
X83254612Y-85638611D01*
X83436661Y-85498919D01*
X83436665Y-85498914D01*
X83436670Y-85498911D01*
X83598911Y-85336670D01*
X83598914Y-85336665D01*
X83598919Y-85336661D01*
X83738611Y-85154612D01*
X83853344Y-84955888D01*
X83883990Y-84881902D01*
X98749500Y-84881902D01*
X98749500Y-85118097D01*
X98786446Y-85351368D01*
X98859433Y-85575996D01*
X98943008Y-85740020D01*
X98966657Y-85786433D01*
X99105483Y-85977510D01*
X99272490Y-86144517D01*
X99463567Y-86283343D01*
X99562991Y-86334002D01*
X99674003Y-86390566D01*
X99674005Y-86390566D01*
X99674008Y-86390568D01*
X99794412Y-86429689D01*
X99898631Y-86463553D01*
X100131903Y-86500500D01*
X100131908Y-86500500D01*
X101868097Y-86500500D01*
X102101368Y-86463553D01*
X102325992Y-86390568D01*
X102536433Y-86283343D01*
X102727510Y-86144517D01*
X102894517Y-85977510D01*
X103033343Y-85786433D01*
X103136630Y-85583719D01*
X103140566Y-85575996D01*
X103140566Y-85575995D01*
X103140568Y-85575992D01*
X103213553Y-85351368D01*
X103233410Y-85225996D01*
X103250500Y-85118097D01*
X103250500Y-84881902D01*
X103213553Y-84648631D01*
X103140566Y-84424003D01*
X103047778Y-84241898D01*
X103033343Y-84213567D01*
X102894517Y-84022490D01*
X102727510Y-83855483D01*
X102536433Y-83716657D01*
X102517729Y-83707127D01*
X102325996Y-83609433D01*
X102101368Y-83536446D01*
X101868097Y-83499500D01*
X101868092Y-83499500D01*
X100131908Y-83499500D01*
X100131903Y-83499500D01*
X99898631Y-83536446D01*
X99674003Y-83609433D01*
X99463566Y-83716657D01*
X99375154Y-83780893D01*
X99272490Y-83855483D01*
X99272488Y-83855485D01*
X99272487Y-83855485D01*
X99105485Y-84022487D01*
X99105485Y-84022488D01*
X99105483Y-84022490D01*
X99068053Y-84074008D01*
X98966657Y-84213566D01*
X98859433Y-84424003D01*
X98786446Y-84648631D01*
X98749500Y-84881902D01*
X83883990Y-84881902D01*
X83941158Y-84743887D01*
X84000548Y-84522238D01*
X84030500Y-84294734D01*
X84030500Y-84065266D01*
X84000548Y-83837762D01*
X83941158Y-83616113D01*
X83891190Y-83495480D01*
X83853349Y-83404123D01*
X83853346Y-83404117D01*
X83853344Y-83404112D01*
X83738611Y-83205388D01*
X83738608Y-83205385D01*
X83738607Y-83205382D01*
X83598918Y-83023338D01*
X83598911Y-83023330D01*
X83531355Y-82955774D01*
X83497870Y-82894451D01*
X83502854Y-82824759D01*
X83544726Y-82768826D01*
X83606435Y-82744735D01*
X83626055Y-82742730D01*
X83652797Y-82739999D01*
X83819334Y-82684814D01*
X83968656Y-82592712D01*
X84092712Y-82468656D01*
X84184814Y-82319334D01*
X84239999Y-82152797D01*
X84250500Y-82050009D01*
X84250500Y-82025500D01*
X84270185Y-81958461D01*
X84322989Y-81912706D01*
X84374500Y-81901500D01*
X103572331Y-81901500D01*
X103572347Y-81901501D01*
X103579943Y-81901501D01*
X103738054Y-81901501D01*
X103738057Y-81901501D01*
X103890785Y-81860577D01*
X103940904Y-81831639D01*
X104027716Y-81781520D01*
X104139520Y-81669716D01*
X104139520Y-81669714D01*
X104149728Y-81659507D01*
X104149730Y-81659504D01*
X104185797Y-81623436D01*
X104247118Y-81589953D01*
X104311794Y-81593188D01*
X104331051Y-81599444D01*
X104382049Y-81616015D01*
X104599778Y-81650500D01*
X104599779Y-81650500D01*
X104820221Y-81650500D01*
X104820222Y-81650500D01*
X105037951Y-81616015D01*
X105247606Y-81547895D01*
X105444022Y-81447815D01*
X105622365Y-81318242D01*
X105672536Y-81268070D01*
X105733857Y-81234586D01*
X105803548Y-81239570D01*
X105859482Y-81281441D01*
X105876398Y-81312419D01*
X105906202Y-81392328D01*
X105906206Y-81392335D01*
X105992452Y-81507544D01*
X105992455Y-81507547D01*
X106107664Y-81593793D01*
X106107671Y-81593797D01*
X106242517Y-81644091D01*
X106242516Y-81644091D01*
X106249444Y-81644835D01*
X106302127Y-81650500D01*
X108197872Y-81650499D01*
X108257483Y-81644091D01*
X108392331Y-81593796D01*
X108507546Y-81507546D01*
X108593796Y-81392331D01*
X108644091Y-81257483D01*
X108650500Y-81197873D01*
X108650499Y-79302128D01*
X108644091Y-79242517D01*
X108643006Y-79239609D01*
X108593797Y-79107671D01*
X108593793Y-79107664D01*
X108507547Y-78992455D01*
X108507544Y-78992452D01*
X108392335Y-78906206D01*
X108392328Y-78906202D01*
X108257482Y-78855908D01*
X108257483Y-78855908D01*
X108197883Y-78849501D01*
X108197881Y-78849500D01*
X108197873Y-78849500D01*
X108197864Y-78849500D01*
X106302129Y-78849500D01*
X106302123Y-78849501D01*
X106242516Y-78855908D01*
X106107671Y-78906202D01*
X106107664Y-78906206D01*
X105992455Y-78992452D01*
X105992452Y-78992455D01*
X105906206Y-79107664D01*
X105906203Y-79107669D01*
X105876398Y-79187581D01*
X105834526Y-79243514D01*
X105769062Y-79267931D01*
X105700789Y-79253079D01*
X105672535Y-79231928D01*
X105622363Y-79181756D01*
X105622358Y-79181752D01*
X105444025Y-79052187D01*
X105444024Y-79052186D01*
X105444022Y-79052185D01*
X105326791Y-78992452D01*
X105247603Y-78952103D01*
X105146182Y-78919150D01*
X105088507Y-78879713D01*
X105061308Y-78815354D01*
X105060500Y-78801219D01*
X105060500Y-74341835D01*
X105080185Y-74274796D01*
X105128206Y-74231350D01*
X105128547Y-74231175D01*
X105194022Y-74197815D01*
X105372365Y-74068242D01*
X105422536Y-74018070D01*
X105483857Y-73984586D01*
X105553548Y-73989570D01*
X105609482Y-74031441D01*
X105626398Y-74062419D01*
X105656202Y-74142328D01*
X105656206Y-74142335D01*
X105742452Y-74257544D01*
X105742455Y-74257547D01*
X105857664Y-74343793D01*
X105857671Y-74343797D01*
X105992517Y-74394091D01*
X105992516Y-74394091D01*
X105999444Y-74394835D01*
X106052127Y-74400500D01*
X107947872Y-74400499D01*
X108007483Y-74394091D01*
X108142331Y-74343796D01*
X108257546Y-74257546D01*
X108343796Y-74142331D01*
X108394091Y-74007483D01*
X108400500Y-73947873D01*
X108400499Y-72052128D01*
X108394091Y-71992517D01*
X108373601Y-71937581D01*
X108343797Y-71857671D01*
X108343793Y-71857664D01*
X108257547Y-71742455D01*
X108257544Y-71742452D01*
X108142335Y-71656206D01*
X108142328Y-71656202D01*
X108007482Y-71605908D01*
X108007483Y-71605908D01*
X107947883Y-71599501D01*
X107947881Y-71599500D01*
X107947873Y-71599500D01*
X107947864Y-71599500D01*
X106052129Y-71599500D01*
X106052123Y-71599501D01*
X105992516Y-71605908D01*
X105857671Y-71656202D01*
X105857664Y-71656206D01*
X105742455Y-71742452D01*
X105742452Y-71742455D01*
X105656206Y-71857664D01*
X105656203Y-71857669D01*
X105626398Y-71937581D01*
X105584526Y-71993514D01*
X105519062Y-72017931D01*
X105450789Y-72003079D01*
X105422535Y-71981928D01*
X105372363Y-71931756D01*
X105372358Y-71931752D01*
X105194025Y-71802187D01*
X105194024Y-71802186D01*
X105194022Y-71802185D01*
X105076791Y-71742452D01*
X104997606Y-71702104D01*
X104997603Y-71702103D01*
X104787952Y-71633985D01*
X104679086Y-71616742D01*
X104570222Y-71599500D01*
X104349778Y-71599500D01*
X104277201Y-71610995D01*
X104132047Y-71633985D01*
X103922396Y-71702103D01*
X103922393Y-71702104D01*
X103725974Y-71802187D01*
X103547641Y-71931752D01*
X103547636Y-71931756D01*
X103391756Y-72087636D01*
X103391752Y-72087641D01*
X103262187Y-72265974D01*
X103162104Y-72462393D01*
X103162103Y-72462396D01*
X103093985Y-72672047D01*
X103059500Y-72889778D01*
X103059500Y-73110221D01*
X103093985Y-73327952D01*
X103162103Y-73537603D01*
X103162104Y-73537606D01*
X103262187Y-73734025D01*
X103391752Y-73912358D01*
X103391756Y-73912363D01*
X103547636Y-74068243D01*
X103547641Y-74068247D01*
X103725976Y-74197814D01*
X103791794Y-74231350D01*
X103842591Y-74279324D01*
X103859500Y-74341835D01*
X103859500Y-79073629D01*
X103839815Y-79140668D01*
X103808388Y-79173945D01*
X103797638Y-79181755D01*
X103797632Y-79181760D01*
X103641756Y-79337636D01*
X103641752Y-79337641D01*
X103512185Y-79515976D01*
X103439423Y-79658777D01*
X103391448Y-79709572D01*
X103323627Y-79726367D01*
X103257492Y-79703829D01*
X103214042Y-79649113D01*
X103211008Y-79640799D01*
X103204504Y-79620783D01*
X103140568Y-79424008D01*
X103033343Y-79213567D01*
X102894517Y-79022490D01*
X102727510Y-78855483D01*
X102536433Y-78716657D01*
X102325996Y-78609433D01*
X102101368Y-78536446D01*
X101868097Y-78499500D01*
X101868092Y-78499500D01*
X100131908Y-78499500D01*
X100131903Y-78499500D01*
X99898631Y-78536446D01*
X99674003Y-78609433D01*
X99463566Y-78716657D01*
X99373537Y-78782068D01*
X99272490Y-78855483D01*
X99272488Y-78855485D01*
X99272487Y-78855485D01*
X99105485Y-79022487D01*
X99105485Y-79022488D01*
X99105483Y-79022490D01*
X99083907Y-79052187D01*
X98966657Y-79213566D01*
X98859433Y-79424003D01*
X98786446Y-79648631D01*
X98749500Y-79881902D01*
X98749500Y-80118097D01*
X98786446Y-80351368D01*
X98821512Y-80459288D01*
X98847147Y-80538182D01*
X98849142Y-80608022D01*
X98813062Y-80667855D01*
X98750361Y-80698684D01*
X98729216Y-80700500D01*
X87429941Y-80700500D01*
X87362902Y-80680815D01*
X87317147Y-80628011D01*
X87307203Y-80558853D01*
X87336228Y-80495297D01*
X87342260Y-80488819D01*
X87371786Y-80459292D01*
X87371789Y-80459289D01*
X87459394Y-80328179D01*
X87519737Y-80182497D01*
X87550500Y-80027842D01*
X87550500Y-79870158D01*
X87550500Y-79870155D01*
X87550499Y-79870153D01*
X87519738Y-79715510D01*
X87519737Y-79715503D01*
X87492238Y-79649113D01*
X87459397Y-79569827D01*
X87459390Y-79569814D01*
X87371789Y-79438711D01*
X87371786Y-79438707D01*
X87260292Y-79327213D01*
X87260288Y-79327210D01*
X87129185Y-79239609D01*
X87129172Y-79239602D01*
X86983501Y-79179264D01*
X86983489Y-79179261D01*
X86828845Y-79148500D01*
X86828842Y-79148500D01*
X86671158Y-79148500D01*
X86671155Y-79148500D01*
X86516510Y-79179261D01*
X86516498Y-79179264D01*
X86370827Y-79239602D01*
X86370814Y-79239609D01*
X86239711Y-79327210D01*
X86239707Y-79327213D01*
X86203742Y-79363180D01*
X86142420Y-79396666D01*
X86116060Y-79399500D01*
X84015938Y-79399500D01*
X83974848Y-79391327D01*
X83974795Y-79391527D01*
X83971746Y-79390710D01*
X83968488Y-79390062D01*
X83966949Y-79389424D01*
X83931088Y-79379815D01*
X83814217Y-79348499D01*
X83656103Y-79348499D01*
X83648507Y-79348499D01*
X83648491Y-79348500D01*
X81851509Y-79348500D01*
X81851493Y-79348499D01*
X81843897Y-79348499D01*
X81685783Y-79348499D01*
X81578427Y-79377265D01*
X81533050Y-79389424D01*
X81531512Y-79390062D01*
X81528253Y-79390710D01*
X81525205Y-79391527D01*
X81525151Y-79391327D01*
X81484062Y-79399500D01*
X73050097Y-79399500D01*
X72983058Y-79379815D01*
X72962416Y-79363181D01*
X68334574Y-74735339D01*
X68301089Y-74674016D01*
X68300638Y-74671849D01*
X68269738Y-74516510D01*
X68269737Y-74516503D01*
X68269735Y-74516498D01*
X68209397Y-74370827D01*
X68209390Y-74370814D01*
X68121789Y-74239711D01*
X68121786Y-74239707D01*
X68048337Y-74166258D01*
X68014852Y-74104935D01*
X68019836Y-74035243D01*
X68048335Y-73990898D01*
X71532416Y-70506819D01*
X71593739Y-70473334D01*
X71620097Y-70470500D01*
X72714281Y-70470500D01*
X72781320Y-70490185D01*
X72824765Y-70538205D01*
X72844947Y-70577814D01*
X72844948Y-70577815D01*
X72969890Y-70749786D01*
X73120213Y-70900109D01*
X73292179Y-71025048D01*
X73292181Y-71025049D01*
X73292184Y-71025051D01*
X73481588Y-71121557D01*
X73683757Y-71187246D01*
X73893713Y-71220500D01*
X73893714Y-71220500D01*
X74106286Y-71220500D01*
X74106287Y-71220500D01*
X74316243Y-71187246D01*
X74518412Y-71121557D01*
X74707816Y-71025051D01*
X74729789Y-71009086D01*
X74879786Y-70900109D01*
X74879788Y-70900106D01*
X74879792Y-70900104D01*
X75030104Y-70749792D01*
X75030106Y-70749788D01*
X75030109Y-70749786D01*
X75155048Y-70577820D01*
X75155047Y-70577820D01*
X75155051Y-70577816D01*
X75251557Y-70388412D01*
X75317246Y-70186243D01*
X75350500Y-69976287D01*
X75350500Y-69763713D01*
X75317246Y-69553757D01*
X75251557Y-69351588D01*
X75155051Y-69162184D01*
X75155049Y-69162181D01*
X75155048Y-69162179D01*
X75030109Y-68990213D01*
X74879786Y-68839890D01*
X74707820Y-68714951D01*
X74707115Y-68714591D01*
X74699054Y-68710485D01*
X74648259Y-68662512D01*
X74631463Y-68594692D01*
X74653999Y-68528556D01*
X74699054Y-68489515D01*
X74707816Y-68485051D01*
X74729789Y-68469086D01*
X74879786Y-68360109D01*
X74879788Y-68360106D01*
X74879792Y-68360104D01*
X75030104Y-68209792D01*
X75030106Y-68209788D01*
X75030109Y-68209786D01*
X75155050Y-68037817D01*
X75155052Y-68037815D01*
X75251557Y-67848412D01*
X75317246Y-67646243D01*
X75350500Y-67436287D01*
X75350500Y-67223713D01*
X75317246Y-67013757D01*
X75251557Y-66811588D01*
X75155051Y-66622184D01*
X75155049Y-66622181D01*
X75155048Y-66622179D01*
X75030109Y-66450213D01*
X74879790Y-66299894D01*
X74879785Y-66299890D01*
X74781310Y-66228344D01*
X74781280Y-66228323D01*
X74707816Y-66174949D01*
X74691796Y-66166786D01*
X74685086Y-66162172D01*
X74667975Y-66141132D01*
X74648259Y-66122512D01*
X74646256Y-66114427D01*
X74641002Y-66107966D01*
X74637982Y-66081016D01*
X74631463Y-66054692D01*
X74634149Y-66046808D01*
X74633222Y-66038531D01*
X74645251Y-66014227D01*
X74653999Y-65988556D01*
X74660930Y-65982549D01*
X74664216Y-65975912D01*
X74678409Y-65967404D01*
X74699054Y-65949515D01*
X74707816Y-65945051D01*
X74838780Y-65849901D01*
X74879786Y-65820109D01*
X74879788Y-65820106D01*
X74879792Y-65820104D01*
X75030104Y-65669792D01*
X75030106Y-65669788D01*
X75030109Y-65669786D01*
X75155048Y-65497820D01*
X75155047Y-65497820D01*
X75155051Y-65497816D01*
X75251557Y-65308412D01*
X75317246Y-65106243D01*
X75350500Y-64896287D01*
X75350500Y-64683713D01*
X75317246Y-64473757D01*
X75251557Y-64271588D01*
X75155051Y-64082184D01*
X75155049Y-64082181D01*
X75155048Y-64082179D01*
X75030109Y-63910213D01*
X74916181Y-63796285D01*
X74901195Y-63768840D01*
X74884545Y-63742360D01*
X74884583Y-63738419D01*
X74882696Y-63734962D01*
X74884926Y-63703770D01*
X74885236Y-63672493D01*
X74887398Y-63669199D01*
X74887680Y-63665270D01*
X74906422Y-63640234D01*
X74923591Y-63614092D01*
X74927872Y-63611580D01*
X74929552Y-63609337D01*
X74953469Y-63595305D01*
X75124027Y-63519444D01*
X75207187Y-63457190D01*
X75207190Y-63457187D01*
X75293350Y-63342093D01*
X75293354Y-63342086D01*
X75343596Y-63207379D01*
X75343598Y-63207372D01*
X75349999Y-63147844D01*
X75350000Y-63147827D01*
X75350000Y-62500000D01*
X74433012Y-62500000D01*
X74465925Y-62442993D01*
X74500000Y-62315826D01*
X74500000Y-62184174D01*
X74465925Y-62057007D01*
X74433012Y-62000000D01*
X75350000Y-62000000D01*
X75350000Y-61823500D01*
X75369685Y-61756461D01*
X75422489Y-61710706D01*
X75474000Y-61699500D01*
X80791194Y-61699500D01*
X80820634Y-61708144D01*
X80850621Y-61714668D01*
X80855636Y-61718422D01*
X80858233Y-61719185D01*
X80878875Y-61735819D01*
X81028430Y-61885374D01*
X81028440Y-61885385D01*
X81032770Y-61889715D01*
X81032771Y-61889716D01*
X81144575Y-62001520D01*
X81209571Y-62039045D01*
X81281506Y-62080577D01*
X81434234Y-62121500D01*
X81592348Y-62121500D01*
X81876349Y-62121500D01*
X81943388Y-62141185D01*
X81989143Y-62193989D01*
X81999087Y-62263147D01*
X81970062Y-62326703D01*
X81928151Y-62356920D01*
X81928541Y-62357684D01*
X81713830Y-62467084D01*
X81630894Y-62527340D01*
X82370591Y-63267037D01*
X82307007Y-63284075D01*
X82192993Y-63349901D01*
X82099901Y-63442993D01*
X82034075Y-63557007D01*
X82017037Y-63620590D01*
X81277340Y-62880894D01*
X81217084Y-62963830D01*
X81109897Y-63174197D01*
X81036934Y-63398752D01*
X81000000Y-63631947D01*
X81000000Y-63868052D01*
X81036934Y-64101247D01*
X81109897Y-64325802D01*
X81217087Y-64536174D01*
X81277338Y-64619104D01*
X81277340Y-64619105D01*
X82017037Y-63879408D01*
X82034075Y-63942993D01*
X82099901Y-64057007D01*
X82192993Y-64150099D01*
X82307007Y-64215925D01*
X82370591Y-64232962D01*
X81630894Y-64972658D01*
X81683760Y-65011069D01*
X81686510Y-65008320D01*
X81747832Y-64974834D01*
X81817524Y-64979818D01*
X81861873Y-65008319D01*
X82620591Y-65767037D01*
X82557007Y-65784075D01*
X82442993Y-65849901D01*
X82349901Y-65942993D01*
X82284075Y-66057007D01*
X82267037Y-66120591D01*
X81527340Y-65380894D01*
X81467084Y-65463830D01*
X81359897Y-65674197D01*
X81286934Y-65898752D01*
X81250000Y-66131947D01*
X81250000Y-66368052D01*
X81286934Y-66601247D01*
X81359897Y-66825802D01*
X81467087Y-67036174D01*
X81527338Y-67119104D01*
X81527340Y-67119105D01*
X82267037Y-66379408D01*
X82284075Y-66442993D01*
X82349901Y-66557007D01*
X82442993Y-66650099D01*
X82557007Y-66715925D01*
X82620590Y-66732962D01*
X81880893Y-67472658D01*
X81963828Y-67532914D01*
X82174197Y-67640102D01*
X82398752Y-67713065D01*
X82398751Y-67713065D01*
X82631948Y-67750000D01*
X82868052Y-67750000D01*
X83101247Y-67713065D01*
X83325802Y-67640102D01*
X83536163Y-67532918D01*
X83536169Y-67532914D01*
X83619104Y-67472658D01*
X83619105Y-67472658D01*
X82879408Y-66732962D01*
X82942993Y-66715925D01*
X83057007Y-66650099D01*
X83150099Y-66557007D01*
X83215925Y-66442993D01*
X83232962Y-66379408D01*
X83972658Y-67119105D01*
X83972658Y-67119104D01*
X84032914Y-67036169D01*
X84032918Y-67036163D01*
X84072907Y-66957682D01*
X103950000Y-66957682D01*
X103950000Y-67162317D01*
X103982009Y-67364417D01*
X104045244Y-67559031D01*
X104138141Y-67741350D01*
X104138147Y-67741359D01*
X104170523Y-67785921D01*
X104170524Y-67785922D01*
X104850000Y-67106446D01*
X104850000Y-67112661D01*
X104877259Y-67214394D01*
X104929920Y-67305606D01*
X105004394Y-67380080D01*
X105095606Y-67432741D01*
X105197339Y-67460000D01*
X105203553Y-67460000D01*
X104524076Y-68139474D01*
X104568650Y-68171859D01*
X104750968Y-68264755D01*
X104945582Y-68327990D01*
X105147683Y-68360000D01*
X105352317Y-68360000D01*
X105554417Y-68327990D01*
X105749031Y-68264755D01*
X105931349Y-68171859D01*
X105975921Y-68139474D01*
X105296447Y-67460000D01*
X105302661Y-67460000D01*
X105404394Y-67432741D01*
X105495606Y-67380080D01*
X105570080Y-67305606D01*
X105622741Y-67214394D01*
X105650000Y-67112661D01*
X105650000Y-67106447D01*
X106329474Y-67785921D01*
X106361859Y-67741349D01*
X106454755Y-67559031D01*
X106517990Y-67364417D01*
X106550000Y-67162317D01*
X106550000Y-66957682D01*
X106517990Y-66755582D01*
X106454755Y-66560968D01*
X106361859Y-66378650D01*
X106329474Y-66334077D01*
X106329474Y-66334076D01*
X105650000Y-67013551D01*
X105650000Y-67007339D01*
X105622741Y-66905606D01*
X105570080Y-66814394D01*
X105495606Y-66739920D01*
X105404394Y-66687259D01*
X105302661Y-66660000D01*
X105296446Y-66660000D01*
X105975922Y-65980524D01*
X105975921Y-65980523D01*
X105931359Y-65948147D01*
X105931350Y-65948141D01*
X105749031Y-65855244D01*
X105554417Y-65792009D01*
X105352317Y-65760000D01*
X105147683Y-65760000D01*
X104945582Y-65792009D01*
X104750968Y-65855244D01*
X104568644Y-65948143D01*
X104524077Y-65980523D01*
X104524077Y-65980524D01*
X105203554Y-66660000D01*
X105197339Y-66660000D01*
X105095606Y-66687259D01*
X105004394Y-66739920D01*
X104929920Y-66814394D01*
X104877259Y-66905606D01*
X104850000Y-67007339D01*
X104850000Y-67013553D01*
X104170524Y-66334077D01*
X104170523Y-66334077D01*
X104138143Y-66378644D01*
X104045244Y-66560968D01*
X103982009Y-66755582D01*
X103950000Y-66957682D01*
X84072907Y-66957682D01*
X84104070Y-66896521D01*
X84140102Y-66825802D01*
X84213065Y-66601247D01*
X84250000Y-66368052D01*
X84250000Y-66131948D01*
X84236574Y-66047181D01*
X84213065Y-65898751D01*
X84140102Y-65674197D01*
X84032914Y-65463828D01*
X83972658Y-65380894D01*
X83972658Y-65380893D01*
X83232962Y-66120590D01*
X83215925Y-66057007D01*
X83150099Y-65942993D01*
X83057007Y-65849901D01*
X82942993Y-65784075D01*
X82879409Y-65767037D01*
X83619105Y-65027341D01*
X83619104Y-65027340D01*
X83566237Y-64988928D01*
X83566236Y-64988929D01*
X83563487Y-64991679D01*
X83502164Y-65025164D01*
X83432472Y-65020180D01*
X83388125Y-64991679D01*
X82629408Y-64232962D01*
X82692993Y-64215925D01*
X82807007Y-64150099D01*
X82900099Y-64057007D01*
X82965925Y-63942993D01*
X82982962Y-63879408D01*
X83722658Y-64619105D01*
X83722658Y-64619104D01*
X83782914Y-64536169D01*
X83782918Y-64536163D01*
X83890103Y-64325800D01*
X83913975Y-64252331D01*
X83930467Y-64228210D01*
X83944576Y-64202617D01*
X83949958Y-64199705D01*
X83953412Y-64194655D01*
X83980329Y-64183279D01*
X84006033Y-64169377D01*
X84012134Y-64169837D01*
X84017770Y-64167456D01*
X84046563Y-64172438D01*
X84075704Y-64174640D01*
X84081718Y-64178522D01*
X84086617Y-64179370D01*
X84106613Y-64191679D01*
X84113494Y-64196873D01*
X84181141Y-64264520D01*
X84267952Y-64314639D01*
X84274566Y-64318457D01*
X84274569Y-64318460D01*
X84318070Y-64343576D01*
X84318072Y-64343577D01*
X84470799Y-64384500D01*
X84470800Y-64384500D01*
X85233902Y-64384500D01*
X85300941Y-64404185D01*
X85321583Y-64420819D01*
X85337284Y-64436520D01*
X85337286Y-64436521D01*
X85337290Y-64436524D01*
X85474209Y-64515573D01*
X85474212Y-64515575D01*
X85474216Y-64515577D01*
X85626943Y-64556501D01*
X85626945Y-64556501D01*
X85792654Y-64556501D01*
X85792670Y-64556500D01*
X105324381Y-64556500D01*
X105324397Y-64556501D01*
X105331993Y-64556501D01*
X105490104Y-64556501D01*
X105490107Y-64556501D01*
X105642835Y-64515577D01*
X105715269Y-64473757D01*
X105779766Y-64436520D01*
X105891570Y-64324716D01*
X105891570Y-64324714D01*
X105901774Y-64314511D01*
X105901777Y-64314506D01*
X108289045Y-61927241D01*
X108368102Y-61790309D01*
X108409026Y-61637582D01*
X108409026Y-61479467D01*
X108409026Y-61471872D01*
X108409025Y-61471854D01*
X108409025Y-58491572D01*
X108428710Y-58424533D01*
X108445344Y-58403891D01*
X109037819Y-57811416D01*
X109099142Y-57777931D01*
X109168834Y-57782915D01*
G37*
%TD.AperFunction*%
%TA.AperFunction,Conductor*%
G36*
X72781320Y-65410185D02*
G01*
X72824765Y-65458205D01*
X72844947Y-65497814D01*
X72844948Y-65497815D01*
X72969890Y-65669786D01*
X73120213Y-65820109D01*
X73292182Y-65945050D01*
X73300946Y-65949516D01*
X73351742Y-65997491D01*
X73368536Y-66065312D01*
X73345998Y-66131447D01*
X73300946Y-66170484D01*
X73292182Y-66174949D01*
X73120213Y-66299890D01*
X72969890Y-66450213D01*
X72844948Y-66622184D01*
X72844947Y-66622185D01*
X72824765Y-66661795D01*
X72776791Y-66712591D01*
X72714281Y-66729500D01*
X71406669Y-66729500D01*
X71406653Y-66729499D01*
X71399057Y-66729499D01*
X71240943Y-66729499D01*
X71133587Y-66758265D01*
X71088210Y-66770424D01*
X71088209Y-66770425D01*
X71038096Y-66799359D01*
X71038095Y-66799360D01*
X71012055Y-66814394D01*
X70951285Y-66849479D01*
X70951282Y-66849481D01*
X70839478Y-66961286D01*
X54603563Y-83197200D01*
X54542240Y-83230685D01*
X54477564Y-83227450D01*
X54351370Y-83186447D01*
X54118097Y-83149500D01*
X54118092Y-83149500D01*
X53881908Y-83149500D01*
X53881903Y-83149500D01*
X53648631Y-83186446D01*
X53424003Y-83259433D01*
X53213566Y-83366657D01*
X53130047Y-83427338D01*
X53022490Y-83505483D01*
X53022488Y-83505485D01*
X53022487Y-83505485D01*
X52855484Y-83672488D01*
X52830318Y-83707127D01*
X52774987Y-83749792D01*
X52705374Y-83755771D01*
X52643579Y-83723165D01*
X52629682Y-83707127D01*
X52604517Y-83672490D01*
X52437510Y-83505483D01*
X52246433Y-83366657D01*
X52035996Y-83259433D01*
X51811368Y-83186446D01*
X51578097Y-83149500D01*
X51578092Y-83149500D01*
X51341908Y-83149500D01*
X51341903Y-83149500D01*
X51108631Y-83186446D01*
X50884003Y-83259433D01*
X50673566Y-83366657D01*
X50590047Y-83427338D01*
X50482490Y-83505483D01*
X50482488Y-83505485D01*
X50482487Y-83505485D01*
X50315484Y-83672488D01*
X50290318Y-83707127D01*
X50234987Y-83749792D01*
X50165374Y-83755771D01*
X50103579Y-83723165D01*
X50089682Y-83707127D01*
X50064517Y-83672490D01*
X49897510Y-83505483D01*
X49706433Y-83366657D01*
X49495996Y-83259433D01*
X49271368Y-83186446D01*
X49038097Y-83149500D01*
X49038092Y-83149500D01*
X48801908Y-83149500D01*
X48801903Y-83149500D01*
X48568631Y-83186446D01*
X48344003Y-83259433D01*
X48133566Y-83366657D01*
X48050047Y-83427338D01*
X47942490Y-83505483D01*
X47942488Y-83505485D01*
X47942487Y-83505485D01*
X47775484Y-83672488D01*
X47750318Y-83707127D01*
X47694987Y-83749792D01*
X47625374Y-83755771D01*
X47563579Y-83723165D01*
X47549682Y-83707127D01*
X47524517Y-83672490D01*
X47357510Y-83505483D01*
X47166433Y-83366657D01*
X46955996Y-83259433D01*
X46731368Y-83186446D01*
X46498097Y-83149500D01*
X46498092Y-83149500D01*
X46261908Y-83149500D01*
X46261903Y-83149500D01*
X46028631Y-83186446D01*
X45804003Y-83259433D01*
X45593566Y-83366657D01*
X45510047Y-83427338D01*
X45402490Y-83505483D01*
X45402488Y-83505485D01*
X45402487Y-83505485D01*
X45235484Y-83672488D01*
X45210318Y-83707127D01*
X45154987Y-83749792D01*
X45085374Y-83755771D01*
X45023579Y-83723165D01*
X45009682Y-83707127D01*
X44984517Y-83672490D01*
X44817510Y-83505483D01*
X44626433Y-83366657D01*
X44415996Y-83259433D01*
X44191368Y-83186446D01*
X43958097Y-83149500D01*
X43958092Y-83149500D01*
X43721908Y-83149500D01*
X43721903Y-83149500D01*
X43488631Y-83186446D01*
X43264003Y-83259433D01*
X43053566Y-83366657D01*
X42970047Y-83427338D01*
X42862490Y-83505483D01*
X42862488Y-83505485D01*
X42862487Y-83505485D01*
X42695482Y-83672490D01*
X42652451Y-83731717D01*
X42597120Y-83774382D01*
X42542405Y-83782448D01*
X42522658Y-83780893D01*
X41791128Y-84512424D01*
X41775245Y-84453147D01*
X41708102Y-84336853D01*
X41613147Y-84241898D01*
X41496853Y-84174755D01*
X41437573Y-84158871D01*
X42169105Y-83427340D01*
X42169104Y-83427338D01*
X42086174Y-83367087D01*
X41875802Y-83259897D01*
X41651247Y-83186934D01*
X41651248Y-83186934D01*
X41418052Y-83150000D01*
X41408595Y-83150000D01*
X41341556Y-83130315D01*
X41295801Y-83077511D01*
X41285857Y-83008353D01*
X41314882Y-82944797D01*
X41320891Y-82938343D01*
X43480520Y-80778716D01*
X43480520Y-80778714D01*
X43490724Y-80768511D01*
X43490727Y-80768506D01*
X58832416Y-65426819D01*
X58893739Y-65393334D01*
X58920097Y-65390500D01*
X72714281Y-65390500D01*
X72781320Y-65410185D01*
G37*
%TD.AperFunction*%
%TA.AperFunction,Conductor*%
G36*
X57896420Y-60176833D02*
G01*
X57910315Y-60192870D01*
X57935483Y-60227510D01*
X58102490Y-60394517D01*
X58293567Y-60533343D01*
X58336101Y-60555015D01*
X58504003Y-60640566D01*
X58504005Y-60640566D01*
X58504008Y-60640568D01*
X58624412Y-60679689D01*
X58728631Y-60713553D01*
X58961903Y-60750500D01*
X58961908Y-60750500D01*
X59198097Y-60750500D01*
X59304126Y-60733705D01*
X59431368Y-60713553D01*
X59557566Y-60672547D01*
X59627404Y-60670553D01*
X59683563Y-60702798D01*
X60444139Y-61463374D01*
X60444149Y-61463385D01*
X60448479Y-61467715D01*
X60448480Y-61467716D01*
X60560284Y-61579520D01*
X60594677Y-61599376D01*
X60647095Y-61629639D01*
X60647097Y-61629641D01*
X60685151Y-61651611D01*
X60697215Y-61658577D01*
X60849943Y-61699501D01*
X60849946Y-61699501D01*
X61015653Y-61699501D01*
X61015669Y-61699500D01*
X72526000Y-61699500D01*
X72593039Y-61719185D01*
X72638794Y-61771989D01*
X72650000Y-61823500D01*
X72650000Y-62000000D01*
X73566988Y-62000000D01*
X73534075Y-62057007D01*
X73500000Y-62184174D01*
X73500000Y-62315826D01*
X73534075Y-62442993D01*
X73566988Y-62500000D01*
X72650000Y-62500000D01*
X72650000Y-63147844D01*
X72656401Y-63207372D01*
X72656403Y-63207379D01*
X72706645Y-63342086D01*
X72706649Y-63342093D01*
X72792809Y-63457187D01*
X72792812Y-63457190D01*
X72907906Y-63543350D01*
X72907913Y-63543354D01*
X73039470Y-63592422D01*
X73095404Y-63634293D01*
X73119821Y-63699758D01*
X73104969Y-63768031D01*
X73083819Y-63796285D01*
X72969889Y-63910215D01*
X72844948Y-64082184D01*
X72844947Y-64082185D01*
X72824765Y-64121795D01*
X72776791Y-64172591D01*
X72714281Y-64189500D01*
X58706669Y-64189500D01*
X58706653Y-64189499D01*
X58699057Y-64189499D01*
X58540943Y-64189499D01*
X58433587Y-64218265D01*
X58388210Y-64230424D01*
X58388209Y-64230425D01*
X58338096Y-64259359D01*
X58338095Y-64259360D01*
X58294689Y-64284420D01*
X58251285Y-64309479D01*
X58251282Y-64309481D01*
X43812181Y-78748583D01*
X43750858Y-78782068D01*
X43681166Y-78777084D01*
X43625233Y-78735212D01*
X43600816Y-78669748D01*
X43600500Y-78660902D01*
X43600500Y-65250837D01*
X43600500Y-65250835D01*
X43559577Y-65098108D01*
X43518720Y-65027341D01*
X43480524Y-64961182D01*
X43480521Y-64961178D01*
X43480520Y-64961176D01*
X43368716Y-64849372D01*
X43368715Y-64849371D01*
X43364385Y-64845041D01*
X43364374Y-64845031D01*
X39340028Y-60820685D01*
X39306543Y-60759362D01*
X39311527Y-60689670D01*
X39353399Y-60633737D01*
X39371408Y-60622522D01*
X39546433Y-60533343D01*
X39737510Y-60394517D01*
X39904517Y-60227510D01*
X39929682Y-60192872D01*
X39985011Y-60150207D01*
X40054625Y-60144228D01*
X40116420Y-60176833D01*
X40130315Y-60192870D01*
X40155483Y-60227510D01*
X40322490Y-60394517D01*
X40513567Y-60533343D01*
X40556101Y-60555015D01*
X40724003Y-60640566D01*
X40724005Y-60640566D01*
X40724008Y-60640568D01*
X40844412Y-60679689D01*
X40948631Y-60713553D01*
X41181903Y-60750500D01*
X41181908Y-60750500D01*
X41418097Y-60750500D01*
X41651368Y-60713553D01*
X41684468Y-60702798D01*
X41875992Y-60640568D01*
X42086433Y-60533343D01*
X42277510Y-60394517D01*
X42444517Y-60227510D01*
X42469682Y-60192872D01*
X42525011Y-60150207D01*
X42594625Y-60144228D01*
X42656420Y-60176833D01*
X42670315Y-60192870D01*
X42695483Y-60227510D01*
X42862490Y-60394517D01*
X43053567Y-60533343D01*
X43096101Y-60555015D01*
X43264003Y-60640566D01*
X43264005Y-60640566D01*
X43264008Y-60640568D01*
X43384412Y-60679689D01*
X43488631Y-60713553D01*
X43721903Y-60750500D01*
X43721908Y-60750500D01*
X43958097Y-60750500D01*
X44191368Y-60713553D01*
X44224468Y-60702798D01*
X44415992Y-60640568D01*
X44626433Y-60533343D01*
X44817510Y-60394517D01*
X44984517Y-60227510D01*
X45009682Y-60192872D01*
X45065011Y-60150207D01*
X45134625Y-60144228D01*
X45196420Y-60176833D01*
X45210315Y-60192870D01*
X45235483Y-60227510D01*
X45402490Y-60394517D01*
X45593567Y-60533343D01*
X45636101Y-60555015D01*
X45804003Y-60640566D01*
X45804005Y-60640566D01*
X45804008Y-60640568D01*
X45924412Y-60679689D01*
X46028631Y-60713553D01*
X46261903Y-60750500D01*
X46261908Y-60750500D01*
X46498097Y-60750500D01*
X46731368Y-60713553D01*
X46764468Y-60702798D01*
X46955992Y-60640568D01*
X47166433Y-60533343D01*
X47357510Y-60394517D01*
X47524517Y-60227510D01*
X47549682Y-60192872D01*
X47605011Y-60150207D01*
X47674625Y-60144228D01*
X47736420Y-60176833D01*
X47750315Y-60192870D01*
X47775483Y-60227510D01*
X47942490Y-60394517D01*
X48133567Y-60533343D01*
X48176101Y-60555015D01*
X48344003Y-60640566D01*
X48344005Y-60640566D01*
X48344008Y-60640568D01*
X48464412Y-60679689D01*
X48568631Y-60713553D01*
X48801903Y-60750500D01*
X48801908Y-60750500D01*
X49038097Y-60750500D01*
X49271368Y-60713553D01*
X49304468Y-60702798D01*
X49495992Y-60640568D01*
X49706433Y-60533343D01*
X49897510Y-60394517D01*
X50064517Y-60227510D01*
X50089682Y-60192872D01*
X50145011Y-60150207D01*
X50214625Y-60144228D01*
X50276420Y-60176833D01*
X50290315Y-60192870D01*
X50315483Y-60227510D01*
X50482490Y-60394517D01*
X50673567Y-60533343D01*
X50716101Y-60555015D01*
X50884003Y-60640566D01*
X50884005Y-60640566D01*
X50884008Y-60640568D01*
X51004412Y-60679689D01*
X51108631Y-60713553D01*
X51341903Y-60750500D01*
X51341908Y-60750500D01*
X51578097Y-60750500D01*
X51811368Y-60713553D01*
X51844468Y-60702798D01*
X52035992Y-60640568D01*
X52246433Y-60533343D01*
X52437510Y-60394517D01*
X52604517Y-60227510D01*
X52629682Y-60192872D01*
X52685011Y-60150207D01*
X52754625Y-60144228D01*
X52816420Y-60176833D01*
X52830315Y-60192870D01*
X52855483Y-60227510D01*
X53022490Y-60394517D01*
X53213567Y-60533343D01*
X53256101Y-60555015D01*
X53424003Y-60640566D01*
X53424005Y-60640566D01*
X53424008Y-60640568D01*
X53544412Y-60679689D01*
X53648631Y-60713553D01*
X53881903Y-60750500D01*
X53881908Y-60750500D01*
X54118097Y-60750500D01*
X54351368Y-60713553D01*
X54384468Y-60702798D01*
X54575992Y-60640568D01*
X54786433Y-60533343D01*
X54977510Y-60394517D01*
X55144517Y-60227510D01*
X55169682Y-60192872D01*
X55225011Y-60150207D01*
X55294625Y-60144228D01*
X55356420Y-60176833D01*
X55370315Y-60192870D01*
X55395483Y-60227510D01*
X55562490Y-60394517D01*
X55753567Y-60533343D01*
X55796101Y-60555015D01*
X55964003Y-60640566D01*
X55964005Y-60640566D01*
X55964008Y-60640568D01*
X56084412Y-60679689D01*
X56188631Y-60713553D01*
X56421903Y-60750500D01*
X56421908Y-60750500D01*
X56658097Y-60750500D01*
X56891368Y-60713553D01*
X56924468Y-60702798D01*
X57115992Y-60640568D01*
X57326433Y-60533343D01*
X57517510Y-60394517D01*
X57684517Y-60227510D01*
X57709682Y-60192872D01*
X57765011Y-60150207D01*
X57834625Y-60144228D01*
X57896420Y-60176833D01*
G37*
%TD.AperFunction*%
%TA.AperFunction,Conductor*%
G36*
X84149464Y-49621879D02*
G01*
X84181787Y-49645155D01*
X86118586Y-51581954D01*
X86148058Y-51601645D01*
X86192270Y-51631186D01*
X86241505Y-51664084D01*
X86241506Y-51664084D01*
X86241507Y-51664085D01*
X86241509Y-51664086D01*
X86378082Y-51720656D01*
X86378087Y-51720658D01*
X86378091Y-51720658D01*
X86378092Y-51720659D01*
X86523079Y-51749500D01*
X86523082Y-51749500D01*
X86523083Y-51749500D01*
X86670918Y-51749500D01*
X87448845Y-51749500D01*
X87515884Y-51769185D01*
X87536526Y-51785819D01*
X87839026Y-52088319D01*
X87872511Y-52149642D01*
X87867527Y-52219334D01*
X87825655Y-52275267D01*
X87760191Y-52299684D01*
X87751345Y-52300000D01*
X87250000Y-52300000D01*
X87250000Y-53250000D01*
X88300000Y-53250000D01*
X88300000Y-52848654D01*
X88319685Y-52781615D01*
X88372489Y-52735860D01*
X88441647Y-52725916D01*
X88505203Y-52754941D01*
X88511672Y-52760965D01*
X88764615Y-53013907D01*
X92288181Y-56537473D01*
X92321666Y-56598796D01*
X92324500Y-56625154D01*
X92324500Y-57245500D01*
X92304815Y-57312539D01*
X92252011Y-57358294D01*
X92200500Y-57369500D01*
X92184298Y-57369500D01*
X92147432Y-57372401D01*
X92147426Y-57372402D01*
X91989606Y-57418254D01*
X91989603Y-57418255D01*
X91848137Y-57501917D01*
X91848129Y-57501923D01*
X91731923Y-57618129D01*
X91731919Y-57618135D01*
X91648255Y-57759603D01*
X91648254Y-57759606D01*
X91602402Y-57917426D01*
X91602401Y-57917432D01*
X91599500Y-57954298D01*
X91599500Y-58018786D01*
X91579815Y-58085825D01*
X91527011Y-58131580D01*
X91457853Y-58141524D01*
X91451309Y-58140403D01*
X91373873Y-58125000D01*
X91226128Y-58125000D01*
X91081240Y-58153820D01*
X91081228Y-58153823D01*
X90975974Y-58197420D01*
X90975974Y-58197421D01*
X91476777Y-58698223D01*
X92011350Y-59232796D01*
X92044835Y-59294119D01*
X92039851Y-59363811D01*
X92011350Y-59408158D01*
X91944508Y-59475000D01*
X92011350Y-59541842D01*
X92044835Y-59603165D01*
X92039851Y-59672857D01*
X92011350Y-59717204D01*
X91653554Y-60075000D01*
X91665679Y-60087125D01*
X91699164Y-60148448D01*
X91694180Y-60218140D01*
X91684731Y-60237926D01*
X91648254Y-60299605D01*
X91648254Y-60299606D01*
X91600634Y-60463515D01*
X91599143Y-60463082D01*
X91571217Y-60518553D01*
X91511047Y-60554067D01*
X91441227Y-60551413D01*
X91392976Y-60521530D01*
X91300000Y-60428554D01*
X91053554Y-60675000D01*
X91300000Y-60921446D01*
X91387819Y-60833627D01*
X91449142Y-60800142D01*
X91518834Y-60805126D01*
X91574767Y-60846998D01*
X91599184Y-60912462D01*
X91599500Y-60921308D01*
X91599500Y-60925701D01*
X91602401Y-60962567D01*
X91602402Y-60962573D01*
X91648254Y-61120393D01*
X91648254Y-61120394D01*
X91648255Y-61120396D01*
X91648256Y-61120398D01*
X91658715Y-61138084D01*
X91658717Y-61138086D01*
X91665719Y-61165685D01*
X91675668Y-61192359D01*
X91674199Y-61199110D01*
X91675899Y-61205810D01*
X91666868Y-61232810D01*
X91660817Y-61260632D01*
X91654937Y-61268486D01*
X91653738Y-61272072D01*
X91639666Y-61288887D01*
X91476778Y-61451777D01*
X91476775Y-61451778D01*
X90984371Y-61944181D01*
X90923048Y-61977666D01*
X90896690Y-61980500D01*
X90303308Y-61980500D01*
X90236269Y-61960815D01*
X90215627Y-61944181D01*
X89560334Y-61288888D01*
X89536458Y-61245163D01*
X89750000Y-61245163D01*
X89750000Y-61304837D01*
X89772836Y-61359968D01*
X89815032Y-61402164D01*
X89870163Y-61425000D01*
X89929837Y-61425000D01*
X89984968Y-61402164D01*
X90027164Y-61359968D01*
X90050000Y-61304837D01*
X90050000Y-61274999D01*
X90253554Y-61274999D01*
X90253554Y-61275001D01*
X90577929Y-61599376D01*
X90622069Y-61599376D01*
X90946446Y-61275000D01*
X90916609Y-61245163D01*
X91150000Y-61245163D01*
X91150000Y-61304837D01*
X91172836Y-61359968D01*
X91215032Y-61402164D01*
X91270163Y-61425000D01*
X91329837Y-61425000D01*
X91384968Y-61402164D01*
X91427164Y-61359968D01*
X91450000Y-61304837D01*
X91450000Y-61245163D01*
X91427164Y-61190032D01*
X91384968Y-61147836D01*
X91329837Y-61125000D01*
X91270163Y-61125000D01*
X91215032Y-61147836D01*
X91172836Y-61190032D01*
X91150000Y-61245163D01*
X90916609Y-61245163D01*
X90622068Y-60950622D01*
X90577930Y-60950622D01*
X90253554Y-61274999D01*
X90050000Y-61274999D01*
X90050000Y-61245163D01*
X90027164Y-61190032D01*
X89984968Y-61147836D01*
X89929837Y-61125000D01*
X89870163Y-61125000D01*
X89815032Y-61147836D01*
X89772836Y-61190032D01*
X89750000Y-61245163D01*
X89536458Y-61245163D01*
X89526849Y-61227565D01*
X89531833Y-61157873D01*
X89541283Y-61138086D01*
X89551744Y-61120398D01*
X89597598Y-60962569D01*
X89600500Y-60925694D01*
X89600500Y-60921308D01*
X89620185Y-60854269D01*
X89672989Y-60808514D01*
X89742147Y-60798570D01*
X89805703Y-60827595D01*
X89812181Y-60833627D01*
X89900000Y-60921446D01*
X90146446Y-60675000D01*
X89900000Y-60428554D01*
X89807023Y-60521531D01*
X89745700Y-60555015D01*
X89676008Y-60550031D01*
X89620075Y-60508159D01*
X89600448Y-60463200D01*
X89599366Y-60463515D01*
X89551745Y-60299606D01*
X89551744Y-60299603D01*
X89551744Y-60299602D01*
X89515268Y-60237925D01*
X89498086Y-60170204D01*
X89503917Y-60136963D01*
X89530123Y-60055188D01*
X89524649Y-60045163D01*
X89750000Y-60045163D01*
X89750000Y-60104837D01*
X89772836Y-60159968D01*
X89815032Y-60202164D01*
X89870163Y-60225000D01*
X89929837Y-60225000D01*
X89984968Y-60202164D01*
X90027164Y-60159968D01*
X90050000Y-60104837D01*
X90050000Y-60074999D01*
X90253554Y-60074999D01*
X90253554Y-60075001D01*
X90577929Y-60399376D01*
X90622069Y-60399376D01*
X90946446Y-60075000D01*
X90916609Y-60045163D01*
X91150000Y-60045163D01*
X91150000Y-60104837D01*
X91172836Y-60159968D01*
X91215032Y-60202164D01*
X91270163Y-60225000D01*
X91329837Y-60225000D01*
X91384968Y-60202164D01*
X91427164Y-60159968D01*
X91450000Y-60104837D01*
X91450000Y-60045163D01*
X91427164Y-59990032D01*
X91384968Y-59947836D01*
X91329837Y-59925000D01*
X91270163Y-59925000D01*
X91215032Y-59947836D01*
X91172836Y-59990032D01*
X91150000Y-60045163D01*
X90916609Y-60045163D01*
X90622068Y-59750622D01*
X90577930Y-59750622D01*
X90253554Y-60074999D01*
X90050000Y-60074999D01*
X90050000Y-60045163D01*
X90027164Y-59990032D01*
X89984968Y-59947836D01*
X89929837Y-59925000D01*
X89870163Y-59925000D01*
X89815032Y-59947836D01*
X89772836Y-59990032D01*
X89750000Y-60045163D01*
X89524649Y-60045163D01*
X89500835Y-60001551D01*
X89505819Y-59931859D01*
X89515266Y-59912078D01*
X89551744Y-59850398D01*
X89588105Y-59725245D01*
X89599366Y-59686485D01*
X89600860Y-59686919D01*
X89628762Y-59631467D01*
X89688925Y-59595939D01*
X89758744Y-59598577D01*
X89807023Y-59628469D01*
X89900000Y-59721446D01*
X90146446Y-59475000D01*
X91053554Y-59475000D01*
X91300000Y-59721446D01*
X91546446Y-59475000D01*
X91300000Y-59228554D01*
X91053554Y-59475000D01*
X90146446Y-59475000D01*
X89900000Y-59228554D01*
X89812181Y-59316373D01*
X89750858Y-59349858D01*
X89681166Y-59344874D01*
X89625233Y-59303002D01*
X89600816Y-59237538D01*
X89600500Y-59228692D01*
X89600500Y-59224313D01*
X89600499Y-59224298D01*
X89597598Y-59187432D01*
X89597597Y-59187426D01*
X89563836Y-59071224D01*
X89551744Y-59029602D01*
X89541282Y-59011912D01*
X89534279Y-58984314D01*
X89524330Y-58957637D01*
X89525798Y-58950887D01*
X89524099Y-58944191D01*
X89533129Y-58917186D01*
X89539182Y-58889364D01*
X89545059Y-58881513D01*
X89546258Y-58877928D01*
X89560333Y-58861110D01*
X89576280Y-58845163D01*
X89750000Y-58845163D01*
X89750000Y-58904837D01*
X89772836Y-58959968D01*
X89815032Y-59002164D01*
X89870163Y-59025000D01*
X89929837Y-59025000D01*
X89984968Y-59002164D01*
X90027164Y-58959968D01*
X90050000Y-58904837D01*
X90050000Y-58874999D01*
X90253554Y-58874999D01*
X90253554Y-58875001D01*
X90577929Y-59199376D01*
X90622069Y-59199376D01*
X90946446Y-58875000D01*
X90916609Y-58845163D01*
X91150000Y-58845163D01*
X91150000Y-58904837D01*
X91172836Y-58959968D01*
X91215032Y-59002164D01*
X91270163Y-59025000D01*
X91329837Y-59025000D01*
X91384968Y-59002164D01*
X91427164Y-58959968D01*
X91450000Y-58904837D01*
X91450000Y-58845163D01*
X91427164Y-58790032D01*
X91384968Y-58747836D01*
X91329837Y-58725000D01*
X91270163Y-58725000D01*
X91215032Y-58747836D01*
X91172836Y-58790032D01*
X91150000Y-58845163D01*
X90916609Y-58845163D01*
X90622068Y-58550622D01*
X90577930Y-58550622D01*
X90253554Y-58874999D01*
X90050000Y-58874999D01*
X90050000Y-58845163D01*
X90027164Y-58790032D01*
X89984968Y-58747836D01*
X89929837Y-58725000D01*
X89870163Y-58725000D01*
X89815032Y-58747836D01*
X89772836Y-58790032D01*
X89750000Y-58845163D01*
X89576280Y-58845163D01*
X89685489Y-58735956D01*
X89685491Y-58735954D01*
X89723223Y-58698223D01*
X90224024Y-58197421D01*
X90118767Y-58153822D01*
X90118759Y-58153820D01*
X89973872Y-58125000D01*
X89826126Y-58125000D01*
X89748691Y-58140403D01*
X89679100Y-58134176D01*
X89623922Y-58091313D01*
X89600678Y-58025423D01*
X89600500Y-58018786D01*
X89600500Y-57954313D01*
X89600499Y-57954298D01*
X89600471Y-57953947D01*
X89597598Y-57917431D01*
X89592271Y-57899097D01*
X89551745Y-57759606D01*
X89551744Y-57759603D01*
X89551744Y-57759602D01*
X89468081Y-57618135D01*
X89468080Y-57618134D01*
X89468076Y-57618129D01*
X89351870Y-57501923D01*
X89351862Y-57501917D01*
X89210396Y-57418255D01*
X89210393Y-57418254D01*
X89052573Y-57372402D01*
X89052567Y-57372401D01*
X89015701Y-57369500D01*
X89015694Y-57369500D01*
X88437230Y-57369500D01*
X88370191Y-57349815D01*
X88349549Y-57333181D01*
X85885407Y-54869039D01*
X85851922Y-54807716D01*
X85856906Y-54738024D01*
X85898778Y-54682091D01*
X85964242Y-54657674D01*
X86016421Y-54665176D01*
X86092620Y-54693596D01*
X86092627Y-54693598D01*
X86152155Y-54699999D01*
X86152172Y-54700000D01*
X86750000Y-54700000D01*
X87250000Y-54700000D01*
X87847828Y-54700000D01*
X87847844Y-54699999D01*
X87907372Y-54693598D01*
X87907379Y-54693596D01*
X88042086Y-54643354D01*
X88042093Y-54643350D01*
X88157187Y-54557190D01*
X88157190Y-54557187D01*
X88243350Y-54442093D01*
X88243354Y-54442086D01*
X88293596Y-54307379D01*
X88293598Y-54307372D01*
X88299999Y-54247844D01*
X88300000Y-54247827D01*
X88300000Y-53750000D01*
X87250000Y-53750000D01*
X87250000Y-54700000D01*
X86750000Y-54700000D01*
X86750000Y-53750000D01*
X85700000Y-53750000D01*
X85700000Y-54247844D01*
X85706401Y-54307372D01*
X85706403Y-54307380D01*
X85734823Y-54383578D01*
X85739807Y-54453270D01*
X85706322Y-54514593D01*
X85644998Y-54548077D01*
X85575307Y-54543092D01*
X85530960Y-54514592D01*
X83768523Y-52752155D01*
X85700000Y-52752155D01*
X85700000Y-53250000D01*
X86750000Y-53250000D01*
X86750000Y-52300000D01*
X86152155Y-52300000D01*
X86092627Y-52306401D01*
X86092620Y-52306403D01*
X85957913Y-52356645D01*
X85957906Y-52356649D01*
X85842812Y-52442809D01*
X85842809Y-52442812D01*
X85756649Y-52557906D01*
X85756645Y-52557913D01*
X85706403Y-52692620D01*
X85706401Y-52692627D01*
X85700000Y-52752155D01*
X83768523Y-52752155D01*
X83536819Y-52520451D01*
X83503334Y-52459128D01*
X83500500Y-52432770D01*
X83500500Y-50295908D01*
X83520185Y-50228869D01*
X83564271Y-50190363D01*
X83563187Y-50188605D01*
X83569332Y-50184814D01*
X83569334Y-50184814D01*
X83718656Y-50092712D01*
X83842712Y-49968656D01*
X83934814Y-49819334D01*
X83976401Y-49693830D01*
X84016172Y-49636388D01*
X84080688Y-49609564D01*
X84149464Y-49621879D01*
G37*
%TD.AperFunction*%
%TA.AperFunction,Conductor*%
G36*
X109192539Y-24770185D02*
G01*
X109238294Y-24822989D01*
X109249500Y-24874500D01*
X109249500Y-46600902D01*
X109229815Y-46667941D01*
X109177011Y-46713696D01*
X109107853Y-46723640D01*
X109044297Y-46694615D01*
X109037819Y-46688583D01*
X107237590Y-44888355D01*
X107237588Y-44888352D01*
X107118717Y-44769481D01*
X107118716Y-44769480D01*
X107031904Y-44719360D01*
X107031904Y-44719359D01*
X107031900Y-44719358D01*
X106981785Y-44690423D01*
X106829057Y-44649499D01*
X106670943Y-44649499D01*
X106663347Y-44649499D01*
X106663331Y-44649500D01*
X105574499Y-44649500D01*
X105507460Y-44629815D01*
X105461705Y-44577011D01*
X105450499Y-44525500D01*
X105450499Y-44402129D01*
X105450498Y-44402123D01*
X105450497Y-44402116D01*
X105444091Y-44342517D01*
X105393884Y-44207906D01*
X105393797Y-44207671D01*
X105393793Y-44207664D01*
X105307547Y-44092455D01*
X105307544Y-44092452D01*
X105192335Y-44006206D01*
X105192328Y-44006202D01*
X105057482Y-43955908D01*
X105057483Y-43955908D01*
X104997883Y-43949501D01*
X104997881Y-43949500D01*
X104997873Y-43949500D01*
X104997865Y-43949500D01*
X104974500Y-43949500D01*
X104907461Y-43929815D01*
X104861706Y-43877011D01*
X104850500Y-43825500D01*
X104850500Y-38674499D01*
X104870185Y-38607460D01*
X104922989Y-38561705D01*
X104974500Y-38550499D01*
X104997871Y-38550499D01*
X104997872Y-38550499D01*
X105057483Y-38544091D01*
X105192331Y-38493796D01*
X105307546Y-38407546D01*
X105393796Y-38292331D01*
X105444091Y-38157483D01*
X105450500Y-38097873D01*
X105450499Y-36402128D01*
X105444091Y-36342517D01*
X105440264Y-36332257D01*
X105393797Y-36207671D01*
X105393793Y-36207664D01*
X105307547Y-36092455D01*
X105307544Y-36092452D01*
X105192335Y-36006206D01*
X105192328Y-36006202D01*
X105057482Y-35955908D01*
X105057483Y-35955908D01*
X104997883Y-35949501D01*
X104997881Y-35949500D01*
X104997873Y-35949500D01*
X104997864Y-35949500D01*
X103502129Y-35949500D01*
X103502123Y-35949501D01*
X103442516Y-35955908D01*
X103307671Y-36006202D01*
X103307664Y-36006206D01*
X103192455Y-36092452D01*
X103192452Y-36092455D01*
X103106206Y-36207664D01*
X103106202Y-36207671D01*
X103055908Y-36342517D01*
X103053783Y-36362287D01*
X103049501Y-36402123D01*
X103049500Y-36402135D01*
X103049500Y-38097870D01*
X103049501Y-38097876D01*
X103055908Y-38157483D01*
X103106202Y-38292328D01*
X103106206Y-38292335D01*
X103192452Y-38407544D01*
X103192455Y-38407547D01*
X103307664Y-38493793D01*
X103307671Y-38493797D01*
X103344950Y-38507701D01*
X103442517Y-38544091D01*
X103502127Y-38550500D01*
X103525497Y-38550499D01*
X103592536Y-38570181D01*
X103638292Y-38622983D01*
X103649500Y-38674499D01*
X103649500Y-43825500D01*
X103629815Y-43892539D01*
X103577011Y-43938294D01*
X103525505Y-43949500D01*
X103502132Y-43949500D01*
X103502123Y-43949501D01*
X103442516Y-43955908D01*
X103307671Y-44006202D01*
X103307664Y-44006206D01*
X103192455Y-44092452D01*
X103192452Y-44092455D01*
X103106206Y-44207664D01*
X103106202Y-44207671D01*
X103055908Y-44342517D01*
X103049501Y-44402116D01*
X103049501Y-44402123D01*
X103049500Y-44402135D01*
X103049500Y-46097870D01*
X103049501Y-46097876D01*
X103055908Y-46157483D01*
X103106202Y-46292328D01*
X103106206Y-46292335D01*
X103192452Y-46407544D01*
X103192455Y-46407547D01*
X103307664Y-46493793D01*
X103307671Y-46493797D01*
X103442517Y-46544091D01*
X103442516Y-46544091D01*
X103449444Y-46544835D01*
X103502127Y-46550500D01*
X104997872Y-46550499D01*
X105057483Y-46544091D01*
X105192331Y-46493796D01*
X105307546Y-46407546D01*
X105393796Y-46292331D01*
X105444091Y-46157483D01*
X105450500Y-46097873D01*
X105450500Y-45974500D01*
X105470185Y-45907461D01*
X105522989Y-45861706D01*
X105574500Y-45850500D01*
X106449903Y-45850500D01*
X106516942Y-45870185D01*
X106537584Y-45886819D01*
X108363181Y-47712416D01*
X108396666Y-47773739D01*
X108399500Y-47800097D01*
X108399500Y-48390953D01*
X108379815Y-48457992D01*
X108327011Y-48503747D01*
X108257853Y-48513691D01*
X108194297Y-48484666D01*
X108187819Y-48478634D01*
X108097213Y-48388028D01*
X107931613Y-48267715D01*
X107931612Y-48267714D01*
X107931610Y-48267713D01*
X107874653Y-48238691D01*
X107749223Y-48174781D01*
X107554534Y-48111522D01*
X107379995Y-48083878D01*
X107352352Y-48079500D01*
X107147648Y-48079500D01*
X107123329Y-48083351D01*
X106945465Y-48111522D01*
X106750776Y-48174781D01*
X106568386Y-48267715D01*
X106402786Y-48388028D01*
X106258028Y-48532786D01*
X106137715Y-48698386D01*
X106044781Y-48880776D01*
X105981522Y-49075465D01*
X105949500Y-49277648D01*
X105949500Y-49482351D01*
X105981522Y-49684534D01*
X105986173Y-49698848D01*
X105988165Y-49768690D01*
X105955921Y-49824842D01*
X103323386Y-52457378D01*
X103211581Y-52569182D01*
X103211579Y-52569185D01*
X103161461Y-52655994D01*
X103161459Y-52655996D01*
X103132525Y-52706109D01*
X103132524Y-52706110D01*
X103132523Y-52706115D01*
X103091599Y-52858843D01*
X103091599Y-52858845D01*
X103091599Y-53026946D01*
X103091600Y-53026959D01*
X103091600Y-53892003D01*
X103071915Y-53959042D01*
X103055281Y-53979684D01*
X100627181Y-56407784D01*
X100565858Y-56441269D01*
X100496166Y-56436285D01*
X100440233Y-56394413D01*
X100415816Y-56328949D01*
X100415500Y-56320103D01*
X100415500Y-53865097D01*
X100435185Y-53798058D01*
X100451819Y-53777416D01*
X101953968Y-52275267D01*
X103555159Y-50674075D01*
X103616480Y-50640592D01*
X103681154Y-50643826D01*
X103695466Y-50648477D01*
X103897648Y-50680500D01*
X103897649Y-50680500D01*
X104102351Y-50680500D01*
X104102352Y-50680500D01*
X104304534Y-50648477D01*
X104499219Y-50585220D01*
X104681610Y-50492287D01*
X104843733Y-50374499D01*
X104847213Y-50371971D01*
X104847215Y-50371968D01*
X104847219Y-50371966D01*
X104991966Y-50227219D01*
X104991968Y-50227215D01*
X104991971Y-50227213D01*
X105074789Y-50113222D01*
X105112287Y-50061610D01*
X105205220Y-49879219D01*
X105268477Y-49684534D01*
X105300500Y-49482352D01*
X105300500Y-49277648D01*
X105268477Y-49075466D01*
X105264746Y-49063984D01*
X105226498Y-48946267D01*
X105205220Y-48880781D01*
X105205218Y-48880778D01*
X105205218Y-48880776D01*
X105164194Y-48800264D01*
X105112287Y-48698390D01*
X105104556Y-48687749D01*
X104991971Y-48532786D01*
X104847213Y-48388028D01*
X104681613Y-48267715D01*
X104681612Y-48267714D01*
X104681610Y-48267713D01*
X104624653Y-48238691D01*
X104499223Y-48174781D01*
X104304534Y-48111522D01*
X104129995Y-48083878D01*
X104102352Y-48079500D01*
X103897648Y-48079500D01*
X103873329Y-48083351D01*
X103695465Y-48111522D01*
X103500776Y-48174781D01*
X103318386Y-48267715D01*
X103152786Y-48388028D01*
X103008028Y-48532786D01*
X102887715Y-48698386D01*
X102794781Y-48880776D01*
X102731522Y-49075465D01*
X102707120Y-49229535D01*
X102699500Y-49277648D01*
X102699500Y-49482352D01*
X102710216Y-49550009D01*
X102731523Y-49684535D01*
X102736172Y-49698845D01*
X102738165Y-49768687D01*
X102705921Y-49824841D01*
X99446286Y-53084478D01*
X99334481Y-53196282D01*
X99334475Y-53196290D01*
X99289948Y-53273415D01*
X99289948Y-53273416D01*
X99255423Y-53333215D01*
X99214499Y-53485943D01*
X99214499Y-53485945D01*
X99214499Y-53654046D01*
X99214500Y-53654059D01*
X99214500Y-57202003D01*
X99194815Y-57269042D01*
X99178181Y-57289684D01*
X95913181Y-60554684D01*
X95851858Y-60588169D01*
X95782166Y-60583185D01*
X95726233Y-60541313D01*
X95701816Y-60475849D01*
X95701500Y-60467003D01*
X95701500Y-58922902D01*
X95710939Y-58875450D01*
X95746263Y-58790168D01*
X95769737Y-58733497D01*
X95800500Y-58578842D01*
X95800500Y-58421158D01*
X95800500Y-58421155D01*
X95800499Y-58421153D01*
X95789943Y-58368084D01*
X95769737Y-58266503D01*
X95769735Y-58266498D01*
X95709397Y-58120827D01*
X95709390Y-58120814D01*
X95621789Y-57989711D01*
X95621786Y-57989707D01*
X95510292Y-57878213D01*
X95510288Y-57878210D01*
X95379185Y-57790609D01*
X95379172Y-57790602D01*
X95233501Y-57730264D01*
X95233489Y-57730261D01*
X95078846Y-57699500D01*
X95078042Y-57699421D01*
X95077381Y-57699208D01*
X95072868Y-57698311D01*
X95072971Y-57697791D01*
X95067981Y-57696188D01*
X95060960Y-57696523D01*
X95028194Y-57683405D01*
X94915142Y-57618135D01*
X94915140Y-57618134D01*
X94915131Y-57618129D01*
X94901785Y-57610423D01*
X94749057Y-57569499D01*
X94590943Y-57569499D01*
X94583347Y-57569499D01*
X94583331Y-57569500D01*
X94420808Y-57569500D01*
X94353769Y-57549815D01*
X94333126Y-57533180D01*
X94301870Y-57501923D01*
X94301862Y-57501917D01*
X94160396Y-57418255D01*
X94160393Y-57418254D01*
X94002573Y-57372402D01*
X94002567Y-57372401D01*
X93965701Y-57369500D01*
X93965694Y-57369500D01*
X93949500Y-57369500D01*
X93882461Y-57349815D01*
X93836706Y-57297011D01*
X93825500Y-57245500D01*
X93825500Y-56189004D01*
X93796659Y-56044017D01*
X93796658Y-56044016D01*
X93796658Y-56044012D01*
X93782965Y-56010953D01*
X93740087Y-55907436D01*
X93740080Y-55907423D01*
X93657952Y-55784510D01*
X93636212Y-55762770D01*
X93553416Y-55679974D01*
X92611466Y-54738024D01*
X92121287Y-54247844D01*
X93700000Y-54247844D01*
X93706401Y-54307372D01*
X93706403Y-54307379D01*
X93756645Y-54442086D01*
X93756649Y-54442093D01*
X93842809Y-54557187D01*
X93842812Y-54557190D01*
X93957906Y-54643350D01*
X93957913Y-54643354D01*
X94092620Y-54693596D01*
X94092627Y-54693598D01*
X94152155Y-54699999D01*
X94152172Y-54700000D01*
X94750000Y-54700000D01*
X95250000Y-54700000D01*
X95847828Y-54700000D01*
X95847844Y-54699999D01*
X95907372Y-54693598D01*
X95907379Y-54693596D01*
X96042086Y-54643354D01*
X96042093Y-54643350D01*
X96157187Y-54557190D01*
X96157190Y-54557187D01*
X96243350Y-54442093D01*
X96243354Y-54442086D01*
X96293596Y-54307379D01*
X96293598Y-54307372D01*
X96299999Y-54247844D01*
X96300000Y-54247827D01*
X96300000Y-53750000D01*
X95250000Y-53750000D01*
X95250000Y-54700000D01*
X94750000Y-54700000D01*
X94750000Y-53750000D01*
X93700000Y-53750000D01*
X93700000Y-54247844D01*
X92121287Y-54247844D01*
X91659762Y-53786319D01*
X90709975Y-52836532D01*
X90625598Y-52752155D01*
X93700000Y-52752155D01*
X93700000Y-53250000D01*
X94750000Y-53250000D01*
X95250000Y-53250000D01*
X96300000Y-53250000D01*
X96300000Y-52752172D01*
X96299999Y-52752155D01*
X96293598Y-52692627D01*
X96293596Y-52692620D01*
X96243354Y-52557913D01*
X96243350Y-52557906D01*
X96157190Y-52442812D01*
X96157187Y-52442809D01*
X96042093Y-52356649D01*
X96042086Y-52356645D01*
X95907379Y-52306403D01*
X95907372Y-52306401D01*
X95847844Y-52300000D01*
X95250000Y-52300000D01*
X95250000Y-53250000D01*
X94750000Y-53250000D01*
X94750000Y-52300000D01*
X94152155Y-52300000D01*
X94092627Y-52306401D01*
X94092620Y-52306403D01*
X93957913Y-52356645D01*
X93957906Y-52356649D01*
X93842812Y-52442809D01*
X93842809Y-52442812D01*
X93756649Y-52557906D01*
X93756645Y-52557913D01*
X93706403Y-52692620D01*
X93706401Y-52692627D01*
X93700000Y-52752155D01*
X90625598Y-52752155D01*
X88289496Y-50416052D01*
X88289489Y-50416046D01*
X88215804Y-50366812D01*
X88215804Y-50366813D01*
X88166570Y-50333916D01*
X88166567Y-50333914D01*
X88166566Y-50333914D01*
X88124266Y-50316393D01*
X88069862Y-50272553D01*
X88047797Y-50206259D01*
X88065076Y-50138559D01*
X88097404Y-50102568D01*
X88157546Y-50057546D01*
X88243796Y-49942331D01*
X88294091Y-49807483D01*
X88300500Y-49747873D01*
X88300500Y-49724500D01*
X88320185Y-49657461D01*
X88372989Y-49611706D01*
X88424500Y-49600500D01*
X93575501Y-49600500D01*
X93642540Y-49620185D01*
X93688295Y-49672989D01*
X93699501Y-49724500D01*
X93699501Y-49747876D01*
X93705908Y-49807483D01*
X93756202Y-49942328D01*
X93756206Y-49942335D01*
X93842452Y-50057544D01*
X93842455Y-50057547D01*
X93957664Y-50143793D01*
X93957671Y-50143797D01*
X94092517Y-50194091D01*
X94092516Y-50194091D01*
X94099444Y-50194835D01*
X94152127Y-50200500D01*
X95847872Y-50200499D01*
X95907483Y-50194091D01*
X96042331Y-50143796D01*
X96157546Y-50057546D01*
X96243796Y-49942331D01*
X96294091Y-49807483D01*
X96300500Y-49747873D01*
X96300499Y-48252128D01*
X96294091Y-48192517D01*
X96294090Y-48192515D01*
X96243797Y-48057671D01*
X96243793Y-48057664D01*
X96157547Y-47942455D01*
X96157544Y-47942452D01*
X96042335Y-47856206D01*
X96042328Y-47856202D01*
X95907482Y-47805908D01*
X95907483Y-47805908D01*
X95847883Y-47799501D01*
X95847881Y-47799500D01*
X95847873Y-47799500D01*
X95847864Y-47799500D01*
X94152129Y-47799500D01*
X94152123Y-47799501D01*
X94092516Y-47805908D01*
X93957671Y-47856202D01*
X93957664Y-47856206D01*
X93842455Y-47942452D01*
X93842452Y-47942455D01*
X93756206Y-48057664D01*
X93756202Y-48057671D01*
X93705908Y-48192517D01*
X93699593Y-48251264D01*
X93699501Y-48252123D01*
X93699500Y-48252135D01*
X93699500Y-48275500D01*
X93679815Y-48342539D01*
X93627011Y-48388294D01*
X93575500Y-48399500D01*
X88424499Y-48399500D01*
X88357460Y-48379815D01*
X88311705Y-48327011D01*
X88300499Y-48275500D01*
X88300499Y-48252129D01*
X88300498Y-48252123D01*
X88300497Y-48252116D01*
X88294091Y-48192517D01*
X88294090Y-48192515D01*
X88243797Y-48057671D01*
X88243793Y-48057664D01*
X88157547Y-47942455D01*
X88157544Y-47942452D01*
X88042335Y-47856206D01*
X88042328Y-47856202D01*
X87907482Y-47805908D01*
X87907483Y-47805908D01*
X87847883Y-47799501D01*
X87847881Y-47799500D01*
X87847873Y-47799500D01*
X87847865Y-47799500D01*
X87200097Y-47799500D01*
X87133058Y-47779815D01*
X87112416Y-47763181D01*
X84737590Y-45388355D01*
X84737588Y-45388352D01*
X84618717Y-45269481D01*
X84618716Y-45269480D01*
X84531904Y-45219360D01*
X84531904Y-45219359D01*
X84531900Y-45219358D01*
X84481785Y-45190423D01*
X84329057Y-45149499D01*
X84170943Y-45149499D01*
X84163347Y-45149499D01*
X84163331Y-45149500D01*
X83574000Y-45149500D01*
X83506961Y-45129815D01*
X83461206Y-45077011D01*
X83450000Y-45025500D01*
X83450000Y-44402172D01*
X83449999Y-44402155D01*
X83443598Y-44342627D01*
X83443596Y-44342620D01*
X83393354Y-44207913D01*
X83393350Y-44207906D01*
X83307190Y-44092812D01*
X83307187Y-44092809D01*
X83192093Y-44006649D01*
X83192086Y-44006645D01*
X83057379Y-43956403D01*
X83057372Y-43956401D01*
X82997844Y-43950000D01*
X82500000Y-43950000D01*
X82500000Y-45126000D01*
X82480315Y-45193039D01*
X82427511Y-45238794D01*
X82376000Y-45250000D01*
X82250000Y-45250000D01*
X82250000Y-45376000D01*
X82230315Y-45443039D01*
X82177511Y-45488794D01*
X82126000Y-45500000D01*
X81050000Y-45500000D01*
X81050000Y-45626500D01*
X81047449Y-45635185D01*
X81048738Y-45644147D01*
X81037759Y-45668187D01*
X81030315Y-45693539D01*
X81023474Y-45699466D01*
X81019713Y-45707703D01*
X80997478Y-45721992D01*
X80977511Y-45739294D01*
X80966996Y-45741581D01*
X80960935Y-45745477D01*
X80926000Y-45750500D01*
X80735669Y-45750500D01*
X80735653Y-45750499D01*
X80728057Y-45750499D01*
X80569943Y-45750499D01*
X80490010Y-45771917D01*
X80417216Y-45791422D01*
X80385770Y-45809578D01*
X80385765Y-45809580D01*
X80382543Y-45811440D01*
X80314642Y-45827909D01*
X80248617Y-45805054D01*
X80205429Y-45750130D01*
X80198791Y-45680577D01*
X80230810Y-45618476D01*
X80232826Y-45616412D01*
X80480520Y-45368718D01*
X80559577Y-45231786D01*
X80600501Y-45079059D01*
X80600501Y-44920944D01*
X80600501Y-44913349D01*
X80600500Y-44913331D01*
X80600500Y-44402155D01*
X81050000Y-44402155D01*
X81050000Y-45000000D01*
X82000000Y-45000000D01*
X82000000Y-43950000D01*
X81502155Y-43950000D01*
X81442627Y-43956401D01*
X81442620Y-43956403D01*
X81307913Y-44006645D01*
X81307906Y-44006649D01*
X81192812Y-44092809D01*
X81192809Y-44092812D01*
X81106649Y-44207906D01*
X81106645Y-44207913D01*
X81056403Y-44342620D01*
X81056401Y-44342627D01*
X81050000Y-44402155D01*
X80600500Y-44402155D01*
X80600500Y-38097844D01*
X81050000Y-38097844D01*
X81056401Y-38157372D01*
X81056403Y-38157379D01*
X81106645Y-38292086D01*
X81106649Y-38292093D01*
X81192809Y-38407187D01*
X81192812Y-38407190D01*
X81307906Y-38493350D01*
X81307913Y-38493354D01*
X81442620Y-38543596D01*
X81442627Y-38543598D01*
X81502155Y-38549999D01*
X81502172Y-38550000D01*
X82000000Y-38550000D01*
X82500000Y-38550000D01*
X82997828Y-38550000D01*
X82997844Y-38549999D01*
X83057372Y-38543598D01*
X83057379Y-38543596D01*
X83192086Y-38493354D01*
X83192093Y-38493350D01*
X83307187Y-38407190D01*
X83307190Y-38407187D01*
X83393350Y-38292093D01*
X83393354Y-38292086D01*
X83443596Y-38157379D01*
X83443598Y-38157372D01*
X83449999Y-38097844D01*
X83450000Y-38097827D01*
X83450000Y-37500000D01*
X82500000Y-37500000D01*
X82500000Y-38550000D01*
X82000000Y-38550000D01*
X82000000Y-37500000D01*
X81050000Y-37500000D01*
X81050000Y-38097844D01*
X80600500Y-38097844D01*
X80600500Y-36402155D01*
X81050000Y-36402155D01*
X81050000Y-37000000D01*
X82000000Y-37000000D01*
X82500000Y-37000000D01*
X83450000Y-37000000D01*
X83450000Y-36402172D01*
X83449999Y-36402155D01*
X83443598Y-36342627D01*
X83443596Y-36342620D01*
X83393354Y-36207913D01*
X83393350Y-36207906D01*
X83307190Y-36092812D01*
X83307187Y-36092809D01*
X83192093Y-36006649D01*
X83192086Y-36006645D01*
X83057379Y-35956403D01*
X83057372Y-35956401D01*
X82997844Y-35950000D01*
X82500000Y-35950000D01*
X82500000Y-37000000D01*
X82000000Y-37000000D01*
X82000000Y-35950000D01*
X81502155Y-35950000D01*
X81442627Y-35956401D01*
X81442620Y-35956403D01*
X81307913Y-36006645D01*
X81307906Y-36006649D01*
X81192812Y-36092809D01*
X81192809Y-36092812D01*
X81106649Y-36207906D01*
X81106645Y-36207913D01*
X81056403Y-36342620D01*
X81056401Y-36342627D01*
X81050000Y-36402155D01*
X80600500Y-36402155D01*
X80600500Y-36300096D01*
X80620185Y-36233057D01*
X80636814Y-36212420D01*
X82601389Y-34247844D01*
X85700000Y-34247844D01*
X85706401Y-34307372D01*
X85706403Y-34307379D01*
X85756645Y-34442086D01*
X85756649Y-34442093D01*
X85842809Y-34557187D01*
X85842812Y-34557190D01*
X85957906Y-34643350D01*
X85957913Y-34643354D01*
X86092620Y-34693596D01*
X86092627Y-34693598D01*
X86152155Y-34699999D01*
X86152172Y-34700000D01*
X86750000Y-34700000D01*
X87250000Y-34700000D01*
X87847828Y-34700000D01*
X87847844Y-34699999D01*
X87907372Y-34693598D01*
X87907379Y-34693596D01*
X88042086Y-34643354D01*
X88042093Y-34643350D01*
X88157187Y-34557190D01*
X88157190Y-34557187D01*
X88243350Y-34442093D01*
X88243354Y-34442086D01*
X88293596Y-34307379D01*
X88293598Y-34307372D01*
X88299999Y-34247844D01*
X88300000Y-34247827D01*
X88300000Y-33750000D01*
X87250000Y-33750000D01*
X87250000Y-34700000D01*
X86750000Y-34700000D01*
X86750000Y-33750000D01*
X85700000Y-33750000D01*
X85700000Y-34247844D01*
X82601389Y-34247844D01*
X84097078Y-32752155D01*
X85700000Y-32752155D01*
X85700000Y-33250000D01*
X86750000Y-33250000D01*
X87250000Y-33250000D01*
X88300000Y-33250000D01*
X88300000Y-32752172D01*
X88299999Y-32752155D01*
X88293598Y-32692627D01*
X88293596Y-32692620D01*
X88243354Y-32557913D01*
X88243350Y-32557906D01*
X88157190Y-32442812D01*
X88157187Y-32442809D01*
X88042093Y-32356649D01*
X88042086Y-32356645D01*
X87907379Y-32306403D01*
X87907372Y-32306401D01*
X87847844Y-32300000D01*
X87250000Y-32300000D01*
X87250000Y-33250000D01*
X86750000Y-33250000D01*
X86750000Y-32300000D01*
X86152155Y-32300000D01*
X86092627Y-32306401D01*
X86092620Y-32306403D01*
X85957913Y-32356645D01*
X85957906Y-32356649D01*
X85842812Y-32442809D01*
X85842809Y-32442812D01*
X85756649Y-32557906D01*
X85756645Y-32557913D01*
X85706403Y-32692620D01*
X85706401Y-32692627D01*
X85700000Y-32752155D01*
X84097078Y-32752155D01*
X86612416Y-30236817D01*
X86673739Y-30203333D01*
X86700097Y-30200499D01*
X87847871Y-30200499D01*
X87847872Y-30200499D01*
X87907483Y-30194091D01*
X88042331Y-30143796D01*
X88157546Y-30057546D01*
X88243796Y-29942331D01*
X88294091Y-29807483D01*
X88300500Y-29747873D01*
X88300500Y-29724500D01*
X88320185Y-29657461D01*
X88372989Y-29611706D01*
X88424500Y-29600500D01*
X93575501Y-29600500D01*
X93642540Y-29620185D01*
X93688295Y-29672989D01*
X93699501Y-29724500D01*
X93699501Y-29747876D01*
X93705908Y-29807483D01*
X93756202Y-29942328D01*
X93756206Y-29942335D01*
X93842452Y-30057544D01*
X93842455Y-30057547D01*
X93957664Y-30143793D01*
X93957671Y-30143797D01*
X94092517Y-30194091D01*
X94092516Y-30194091D01*
X94099444Y-30194835D01*
X94152127Y-30200500D01*
X95847872Y-30200499D01*
X95893237Y-30195622D01*
X95961995Y-30208028D01*
X96013132Y-30255639D01*
X96030411Y-30323338D01*
X96008346Y-30389632D01*
X95994172Y-30406593D01*
X95912582Y-30488182D01*
X95851262Y-30521666D01*
X95824903Y-30524500D01*
X94954057Y-30524500D01*
X94795943Y-30524500D01*
X94643215Y-30565423D01*
X94643214Y-30565423D01*
X94643212Y-30565424D01*
X94643209Y-30565425D01*
X94594073Y-30593795D01*
X94594072Y-30593796D01*
X94555589Y-30616014D01*
X94506285Y-30644479D01*
X94506282Y-30644481D01*
X94394478Y-30756286D01*
X89237582Y-35913181D01*
X89176259Y-35946666D01*
X89149901Y-35949500D01*
X88002129Y-35949500D01*
X88002123Y-35949501D01*
X87942516Y-35955908D01*
X87807671Y-36006202D01*
X87807664Y-36006206D01*
X87692455Y-36092452D01*
X87692452Y-36092455D01*
X87606206Y-36207664D01*
X87606202Y-36207671D01*
X87555908Y-36342517D01*
X87553783Y-36362287D01*
X87549501Y-36402123D01*
X87549500Y-36402135D01*
X87549500Y-38097870D01*
X87549501Y-38097876D01*
X87555908Y-38157483D01*
X87606202Y-38292328D01*
X87606206Y-38292335D01*
X87692452Y-38407544D01*
X87692455Y-38407547D01*
X87807664Y-38493793D01*
X87807671Y-38493797D01*
X87844950Y-38507701D01*
X87942517Y-38544091D01*
X88002127Y-38550500D01*
X88025497Y-38550499D01*
X88092536Y-38570181D01*
X88138292Y-38622983D01*
X88149500Y-38674499D01*
X88149500Y-43825500D01*
X88129815Y-43892539D01*
X88077011Y-43938294D01*
X88025505Y-43949500D01*
X88002132Y-43949500D01*
X88002123Y-43949501D01*
X87942516Y-43955908D01*
X87807671Y-44006202D01*
X87807664Y-44006206D01*
X87692455Y-44092452D01*
X87692452Y-44092455D01*
X87606206Y-44207664D01*
X87606202Y-44207671D01*
X87555908Y-44342517D01*
X87549501Y-44402116D01*
X87549501Y-44402123D01*
X87549500Y-44402135D01*
X87549500Y-46097870D01*
X87549501Y-46097876D01*
X87555908Y-46157483D01*
X87606202Y-46292328D01*
X87606206Y-46292335D01*
X87692452Y-46407544D01*
X87692455Y-46407547D01*
X87807664Y-46493793D01*
X87807671Y-46493797D01*
X87942517Y-46544091D01*
X87942516Y-46544091D01*
X87949444Y-46544835D01*
X88002127Y-46550500D01*
X89497872Y-46550499D01*
X89557483Y-46544091D01*
X89692331Y-46493796D01*
X89807546Y-46407546D01*
X89893796Y-46292331D01*
X89944091Y-46157483D01*
X89950500Y-46097873D01*
X89950500Y-46097844D01*
X92050000Y-46097844D01*
X92056401Y-46157372D01*
X92056403Y-46157379D01*
X92106645Y-46292086D01*
X92106649Y-46292093D01*
X92192809Y-46407187D01*
X92192812Y-46407190D01*
X92307906Y-46493350D01*
X92307913Y-46493354D01*
X92442620Y-46543596D01*
X92442627Y-46543598D01*
X92502155Y-46549999D01*
X92502172Y-46550000D01*
X93000000Y-46550000D01*
X93500000Y-46550000D01*
X93997828Y-46550000D01*
X93997844Y-46549999D01*
X94057372Y-46543598D01*
X94057379Y-46543596D01*
X94192086Y-46493354D01*
X94192093Y-46493350D01*
X94307187Y-46407190D01*
X94307190Y-46407187D01*
X94393350Y-46292093D01*
X94393354Y-46292086D01*
X94443596Y-46157379D01*
X94443598Y-46157372D01*
X94449999Y-46097844D01*
X98550000Y-46097844D01*
X98556401Y-46157372D01*
X98556403Y-46157379D01*
X98606645Y-46292086D01*
X98606649Y-46292093D01*
X98692809Y-46407187D01*
X98692812Y-46407190D01*
X98807906Y-46493350D01*
X98807913Y-46493354D01*
X98942620Y-46543596D01*
X98942627Y-46543598D01*
X99002155Y-46549999D01*
X99002172Y-46550000D01*
X99500000Y-46550000D01*
X100000000Y-46550000D01*
X100497828Y-46550000D01*
X100497844Y-46549999D01*
X100557372Y-46543598D01*
X100557379Y-46543596D01*
X100692086Y-46493354D01*
X100692093Y-46493350D01*
X100807187Y-46407190D01*
X100807190Y-46407187D01*
X100893350Y-46292093D01*
X100893354Y-46292086D01*
X100943596Y-46157379D01*
X100943598Y-46157372D01*
X100949999Y-46097844D01*
X100950000Y-46097827D01*
X100950000Y-45500000D01*
X100000000Y-45500000D01*
X100000000Y-46550000D01*
X99500000Y-46550000D01*
X99500000Y-45500000D01*
X98550000Y-45500000D01*
X98550000Y-46097844D01*
X94449999Y-46097844D01*
X94450000Y-46097827D01*
X94450000Y-45500000D01*
X93500000Y-45500000D01*
X93500000Y-46550000D01*
X93000000Y-46550000D01*
X93000000Y-45500000D01*
X92050000Y-45500000D01*
X92050000Y-46097844D01*
X89950500Y-46097844D01*
X89950499Y-45250000D01*
X89950499Y-44402155D01*
X92050000Y-44402155D01*
X92050000Y-45000000D01*
X93000000Y-45000000D01*
X93500000Y-45000000D01*
X94450000Y-45000000D01*
X94450000Y-44402172D01*
X94449999Y-44402155D01*
X98550000Y-44402155D01*
X98550000Y-45000000D01*
X99500000Y-45000000D01*
X100000000Y-45000000D01*
X100950000Y-45000000D01*
X100950000Y-44402172D01*
X100949999Y-44402155D01*
X100943598Y-44342627D01*
X100943596Y-44342620D01*
X100893354Y-44207913D01*
X100893350Y-44207906D01*
X100807190Y-44092812D01*
X100807187Y-44092809D01*
X100692093Y-44006649D01*
X100692086Y-44006645D01*
X100557379Y-43956403D01*
X100557372Y-43956401D01*
X100497844Y-43950000D01*
X100000000Y-43950000D01*
X100000000Y-45000000D01*
X99500000Y-45000000D01*
X99500000Y-43950000D01*
X99002155Y-43950000D01*
X98942627Y-43956401D01*
X98942620Y-43956403D01*
X98807913Y-44006645D01*
X98807906Y-44006649D01*
X98692812Y-44092809D01*
X98692809Y-44092812D01*
X98606649Y-44207906D01*
X98606645Y-44207913D01*
X98556403Y-44342620D01*
X98556401Y-44342627D01*
X98550000Y-44402155D01*
X94449999Y-44402155D01*
X94443598Y-44342627D01*
X94443596Y-44342620D01*
X94393354Y-44207913D01*
X94393350Y-44207906D01*
X94307190Y-44092812D01*
X94307187Y-44092809D01*
X94192093Y-44006649D01*
X94192086Y-44006645D01*
X94057379Y-43956403D01*
X94057372Y-43956401D01*
X93997844Y-43950000D01*
X93500000Y-43950000D01*
X93500000Y-45000000D01*
X93000000Y-45000000D01*
X93000000Y-43950000D01*
X92502155Y-43950000D01*
X92442627Y-43956401D01*
X92442620Y-43956403D01*
X92307913Y-44006645D01*
X92307906Y-44006649D01*
X92192812Y-44092809D01*
X92192809Y-44092812D01*
X92106649Y-44207906D01*
X92106645Y-44207913D01*
X92056403Y-44342620D01*
X92056401Y-44342627D01*
X92050000Y-44402155D01*
X89950499Y-44402155D01*
X89950499Y-44402129D01*
X89950498Y-44402123D01*
X89950497Y-44402116D01*
X89944091Y-44342517D01*
X89893884Y-44207906D01*
X89893797Y-44207671D01*
X89893793Y-44207664D01*
X89807547Y-44092455D01*
X89807544Y-44092452D01*
X89692335Y-44006206D01*
X89692328Y-44006202D01*
X89557482Y-43955908D01*
X89557483Y-43955908D01*
X89497883Y-43949501D01*
X89497881Y-43949500D01*
X89497873Y-43949500D01*
X89497865Y-43949500D01*
X89474500Y-43949500D01*
X89407461Y-43929815D01*
X89361706Y-43877011D01*
X89350500Y-43825500D01*
X89350500Y-38674499D01*
X89370185Y-38607460D01*
X89422989Y-38561705D01*
X89474500Y-38550499D01*
X89497871Y-38550499D01*
X89497872Y-38550499D01*
X89557483Y-38544091D01*
X89692331Y-38493796D01*
X89807546Y-38407546D01*
X89893796Y-38292331D01*
X89944091Y-38157483D01*
X89950500Y-38097873D01*
X89950500Y-38097844D01*
X92050000Y-38097844D01*
X92056401Y-38157372D01*
X92056403Y-38157379D01*
X92106645Y-38292086D01*
X92106649Y-38292093D01*
X92192809Y-38407187D01*
X92192812Y-38407190D01*
X92307906Y-38493350D01*
X92307913Y-38493354D01*
X92442620Y-38543596D01*
X92442627Y-38543598D01*
X92502155Y-38549999D01*
X92502172Y-38550000D01*
X93000000Y-38550000D01*
X93500000Y-38550000D01*
X93997828Y-38550000D01*
X93997844Y-38549999D01*
X94057372Y-38543598D01*
X94057379Y-38543596D01*
X94192086Y-38493354D01*
X94192093Y-38493350D01*
X94307187Y-38407190D01*
X94307190Y-38407187D01*
X94393350Y-38292093D01*
X94393354Y-38292086D01*
X94443596Y-38157379D01*
X94443598Y-38157372D01*
X94449999Y-38097844D01*
X98550000Y-38097844D01*
X98556401Y-38157372D01*
X98556403Y-38157379D01*
X98606645Y-38292086D01*
X98606649Y-38292093D01*
X98692809Y-38407187D01*
X98692812Y-38407190D01*
X98807906Y-38493350D01*
X98807913Y-38493354D01*
X98942620Y-38543596D01*
X98942627Y-38543598D01*
X99002155Y-38549999D01*
X99002172Y-38550000D01*
X99500000Y-38550000D01*
X100000000Y-38550000D01*
X100497828Y-38550000D01*
X100497844Y-38549999D01*
X100557372Y-38543598D01*
X100557379Y-38543596D01*
X100692086Y-38493354D01*
X100692093Y-38493350D01*
X100807187Y-38407190D01*
X100807190Y-38407187D01*
X100893350Y-38292093D01*
X100893354Y-38292086D01*
X100943596Y-38157379D01*
X100943598Y-38157372D01*
X100949999Y-38097844D01*
X100950000Y-38097827D01*
X100950000Y-37500000D01*
X100000000Y-37500000D01*
X100000000Y-38550000D01*
X99500000Y-38550000D01*
X99500000Y-37500000D01*
X98550000Y-37500000D01*
X98550000Y-38097844D01*
X94449999Y-38097844D01*
X94450000Y-38097827D01*
X94450000Y-37500000D01*
X93500000Y-37500000D01*
X93500000Y-38550000D01*
X93000000Y-38550000D01*
X93000000Y-37500000D01*
X92050000Y-37500000D01*
X92050000Y-38097844D01*
X89950500Y-38097844D01*
X89950499Y-36950095D01*
X89970184Y-36883057D01*
X89986813Y-36862420D01*
X90447078Y-36402155D01*
X92050000Y-36402155D01*
X92050000Y-37000000D01*
X93000000Y-37000000D01*
X93500000Y-37000000D01*
X94450000Y-37000000D01*
X94450000Y-36402172D01*
X94449999Y-36402155D01*
X98550000Y-36402155D01*
X98550000Y-37000000D01*
X99500000Y-37000000D01*
X100000000Y-37000000D01*
X100950000Y-37000000D01*
X100950000Y-36402172D01*
X100949999Y-36402155D01*
X100943598Y-36342627D01*
X100943596Y-36342620D01*
X100893354Y-36207913D01*
X100893350Y-36207906D01*
X100807190Y-36092812D01*
X100807187Y-36092809D01*
X100692093Y-36006649D01*
X100692086Y-36006645D01*
X100557379Y-35956403D01*
X100557372Y-35956401D01*
X100497844Y-35950000D01*
X100000000Y-35950000D01*
X100000000Y-37000000D01*
X99500000Y-37000000D01*
X99500000Y-35950000D01*
X99002155Y-35950000D01*
X98942627Y-35956401D01*
X98942620Y-35956403D01*
X98807913Y-36006645D01*
X98807906Y-36006649D01*
X98692812Y-36092809D01*
X98692809Y-36092812D01*
X98606649Y-36207906D01*
X98606645Y-36207913D01*
X98556403Y-36342620D01*
X98556401Y-36342627D01*
X98550000Y-36402155D01*
X94449999Y-36402155D01*
X94443598Y-36342627D01*
X94443596Y-36342620D01*
X94393354Y-36207913D01*
X94393350Y-36207906D01*
X94307190Y-36092812D01*
X94307187Y-36092809D01*
X94192093Y-36006649D01*
X94192086Y-36006645D01*
X94057379Y-35956403D01*
X94057372Y-35956401D01*
X93997844Y-35950000D01*
X93500000Y-35950000D01*
X93500000Y-37000000D01*
X93000000Y-37000000D01*
X93000000Y-35950000D01*
X92502155Y-35950000D01*
X92442627Y-35956401D01*
X92442620Y-35956403D01*
X92307913Y-36006645D01*
X92307906Y-36006649D01*
X92192812Y-36092809D01*
X92192809Y-36092812D01*
X92106649Y-36207906D01*
X92106645Y-36207913D01*
X92056403Y-36342620D01*
X92056401Y-36342627D01*
X92050000Y-36402155D01*
X90447078Y-36402155D01*
X92601390Y-34247844D01*
X93700000Y-34247844D01*
X93706401Y-34307372D01*
X93706403Y-34307379D01*
X93756645Y-34442086D01*
X93756649Y-34442093D01*
X93842809Y-34557187D01*
X93842812Y-34557190D01*
X93957906Y-34643350D01*
X93957913Y-34643354D01*
X94092620Y-34693596D01*
X94092627Y-34693598D01*
X94152155Y-34699999D01*
X94152172Y-34700000D01*
X94750000Y-34700000D01*
X95250000Y-34700000D01*
X95847828Y-34700000D01*
X95847844Y-34699999D01*
X95907372Y-34693598D01*
X95907379Y-34693596D01*
X96042086Y-34643354D01*
X96042093Y-34643350D01*
X96157187Y-34557190D01*
X96157190Y-34557187D01*
X96243350Y-34442093D01*
X96243354Y-34442086D01*
X96293596Y-34307379D01*
X96293598Y-34307372D01*
X96299999Y-34247844D01*
X96300000Y-34247827D01*
X96300000Y-33750000D01*
X95250000Y-33750000D01*
X95250000Y-34700000D01*
X94750000Y-34700000D01*
X94750000Y-33750000D01*
X93700000Y-33750000D01*
X93700000Y-34247844D01*
X92601390Y-34247844D01*
X93562916Y-33286318D01*
X93624238Y-33252834D01*
X93650596Y-33250000D01*
X94750000Y-33250000D01*
X95250000Y-33250000D01*
X96300000Y-33250000D01*
X96300000Y-32752172D01*
X96299999Y-32752155D01*
X96293598Y-32692627D01*
X96293596Y-32692620D01*
X96243354Y-32557913D01*
X96243350Y-32557906D01*
X96157190Y-32442812D01*
X96157187Y-32442809D01*
X96042093Y-32356649D01*
X96042086Y-32356645D01*
X95907379Y-32306403D01*
X95907372Y-32306401D01*
X95847844Y-32300000D01*
X95250000Y-32300000D01*
X95250000Y-33250000D01*
X94750000Y-33250000D01*
X94750000Y-32300000D01*
X94737298Y-32287298D01*
X94703813Y-32225975D01*
X94708797Y-32156283D01*
X94737296Y-32111938D01*
X95087416Y-31761819D01*
X95148739Y-31728334D01*
X95175097Y-31725500D01*
X96038331Y-31725500D01*
X96038347Y-31725501D01*
X96045943Y-31725501D01*
X96204054Y-31725501D01*
X96204057Y-31725501D01*
X96356785Y-31684577D01*
X96406904Y-31655639D01*
X96493716Y-31605520D01*
X96605520Y-31493716D01*
X96605520Y-31493714D01*
X96615728Y-31483507D01*
X96615730Y-31483504D01*
X97358506Y-30740728D01*
X97358511Y-30740724D01*
X97368714Y-30730520D01*
X97368716Y-30730520D01*
X97480520Y-30618716D01*
X97534915Y-30524500D01*
X97559577Y-30481785D01*
X97600501Y-30329057D01*
X97600501Y-30170943D01*
X97600501Y-30163348D01*
X97600500Y-30163330D01*
X97600500Y-28339060D01*
X97600501Y-28339047D01*
X97600501Y-28170944D01*
X97583545Y-28107664D01*
X97559577Y-28018216D01*
X97544704Y-27992455D01*
X97480524Y-27881290D01*
X97480518Y-27881282D01*
X96487590Y-26888355D01*
X96487588Y-26888352D01*
X96368717Y-26769481D01*
X96368716Y-26769480D01*
X96281904Y-26719360D01*
X96281904Y-26719359D01*
X96281900Y-26719358D01*
X96231785Y-26690423D01*
X96079057Y-26649499D01*
X95920943Y-26649499D01*
X95913347Y-26649499D01*
X95913331Y-26649500D01*
X85568940Y-26649500D01*
X85528019Y-26660464D01*
X85528019Y-26660465D01*
X85490751Y-26670451D01*
X85416214Y-26690423D01*
X85416209Y-26690426D01*
X85279290Y-26769475D01*
X85279282Y-26769481D01*
X75519481Y-36529282D01*
X75519477Y-36529287D01*
X75507231Y-36550500D01*
X75497625Y-36567139D01*
X75440423Y-36666215D01*
X75399499Y-36818943D01*
X75399499Y-36818945D01*
X75399499Y-36987046D01*
X75399500Y-36987059D01*
X75399500Y-37585444D01*
X75379815Y-37652483D01*
X75327011Y-37698238D01*
X75257853Y-37708182D01*
X75194297Y-37679157D01*
X75165016Y-37641740D01*
X75155050Y-37622182D01*
X75030109Y-37450213D01*
X74879786Y-37299890D01*
X74707820Y-37174951D01*
X74707115Y-37174591D01*
X74699054Y-37170485D01*
X74648259Y-37122512D01*
X74631463Y-37054692D01*
X74653999Y-36988556D01*
X74699054Y-36949515D01*
X74707816Y-36945051D01*
X74793144Y-36883057D01*
X74879786Y-36820109D01*
X74879788Y-36820106D01*
X74879792Y-36820104D01*
X75030104Y-36669792D01*
X75030106Y-36669788D01*
X75030109Y-36669786D01*
X75155048Y-36497820D01*
X75155047Y-36497820D01*
X75155051Y-36497816D01*
X75251557Y-36308412D01*
X75317246Y-36106243D01*
X75350500Y-35896287D01*
X75350500Y-35683713D01*
X75317246Y-35473757D01*
X75251557Y-35271588D01*
X75155051Y-35082184D01*
X75155049Y-35082181D01*
X75155048Y-35082179D01*
X75030109Y-34910213D01*
X74916181Y-34796285D01*
X74882696Y-34734962D01*
X74887680Y-34665270D01*
X74929552Y-34609337D01*
X74960529Y-34592422D01*
X75092086Y-34543354D01*
X75092093Y-34543350D01*
X75207187Y-34457190D01*
X75207190Y-34457187D01*
X75293350Y-34342093D01*
X75293354Y-34342086D01*
X75343596Y-34207379D01*
X75343598Y-34207372D01*
X75349999Y-34147844D01*
X75350000Y-34147827D01*
X75350000Y-33500000D01*
X74433012Y-33500000D01*
X74465925Y-33442993D01*
X74500000Y-33315826D01*
X74500000Y-33184174D01*
X74465925Y-33057007D01*
X74433012Y-33000000D01*
X75350000Y-33000000D01*
X75350000Y-32352172D01*
X75349999Y-32352155D01*
X75343598Y-32292627D01*
X75343596Y-32292620D01*
X75293354Y-32157913D01*
X75293350Y-32157906D01*
X75207190Y-32042812D01*
X75207187Y-32042809D01*
X75092093Y-31956649D01*
X75092086Y-31956645D01*
X74957379Y-31906403D01*
X74957372Y-31906401D01*
X74897844Y-31900000D01*
X74250000Y-31900000D01*
X74250000Y-32816988D01*
X74192993Y-32784075D01*
X74065826Y-32750000D01*
X73934174Y-32750000D01*
X73807007Y-32784075D01*
X73750000Y-32816988D01*
X73750000Y-31900000D01*
X73102155Y-31900000D01*
X73042627Y-31906401D01*
X73042620Y-31906403D01*
X72907913Y-31956645D01*
X72907906Y-31956649D01*
X72792812Y-32042809D01*
X72792809Y-32042812D01*
X72706649Y-32157906D01*
X72706645Y-32157913D01*
X72656403Y-32292620D01*
X72656401Y-32292627D01*
X72650000Y-32352155D01*
X72650000Y-33000000D01*
X73566988Y-33000000D01*
X73534075Y-33057007D01*
X73500000Y-33184174D01*
X73500000Y-33315826D01*
X73534075Y-33442993D01*
X73566988Y-33500000D01*
X72650000Y-33500000D01*
X72650000Y-34147844D01*
X72656401Y-34207372D01*
X72656403Y-34207379D01*
X72706645Y-34342086D01*
X72706649Y-34342093D01*
X72792809Y-34457187D01*
X72792812Y-34457190D01*
X72907906Y-34543350D01*
X72907913Y-34543354D01*
X73039470Y-34592422D01*
X73095404Y-34634293D01*
X73119821Y-34699758D01*
X73104969Y-34768031D01*
X73083819Y-34796285D01*
X72969889Y-34910215D01*
X72844951Y-35082179D01*
X72748444Y-35271585D01*
X72682753Y-35473760D01*
X72652635Y-35663922D01*
X72649500Y-35683713D01*
X72649500Y-35896287D01*
X72654033Y-35924905D01*
X72682754Y-36106244D01*
X72682754Y-36106247D01*
X72696491Y-36148523D01*
X72698486Y-36218364D01*
X72666241Y-36274522D01*
X70631286Y-38309478D01*
X70519481Y-38421282D01*
X70519479Y-38421285D01*
X70477617Y-38493794D01*
X70477616Y-38493795D01*
X70440423Y-38558214D01*
X70440423Y-38558215D01*
X70399499Y-38710943D01*
X70399499Y-38710945D01*
X70399499Y-38879046D01*
X70399500Y-38879059D01*
X70399500Y-45403330D01*
X70399499Y-45403348D01*
X70399499Y-45569054D01*
X70399498Y-45569054D01*
X70440424Y-45721789D01*
X70440425Y-45721790D01*
X70456788Y-45750130D01*
X70457001Y-45750499D01*
X70514736Y-45850500D01*
X70519481Y-45858717D01*
X70638349Y-45977585D01*
X70638355Y-45977590D01*
X72666241Y-48005476D01*
X72699726Y-48066799D01*
X72696492Y-48131473D01*
X72682753Y-48173757D01*
X72662317Y-48302790D01*
X72649500Y-48383713D01*
X72649500Y-48596287D01*
X72652794Y-48617084D01*
X72682754Y-48806244D01*
X72682754Y-48806247D01*
X72696491Y-48848523D01*
X72696925Y-48863735D01*
X72702244Y-48877994D01*
X72697902Y-48897950D01*
X72698486Y-48918364D01*
X72690398Y-48932448D01*
X72687393Y-48946267D01*
X72666242Y-48974521D01*
X72567531Y-49073234D01*
X72506208Y-49106720D01*
X72479849Y-49109554D01*
X46546724Y-49109554D01*
X46546708Y-49109553D01*
X46539112Y-49109553D01*
X46380997Y-49109553D01*
X46304633Y-49130015D01*
X46228268Y-49150477D01*
X46228263Y-49150480D01*
X46091344Y-49229529D01*
X46091336Y-49229535D01*
X36978479Y-58342392D01*
X36946468Y-58397838D01*
X36946464Y-58397846D01*
X36944190Y-58401785D01*
X36899423Y-58479323D01*
X36889880Y-58514935D01*
X36884783Y-58525484D01*
X36868878Y-58543051D01*
X36856543Y-58563287D01*
X36845859Y-58568476D01*
X36837889Y-58577280D01*
X36815011Y-58583459D01*
X36793695Y-58593814D01*
X36781902Y-58592403D01*
X36770437Y-58595501D01*
X36747849Y-58588330D01*
X36724320Y-58585517D01*
X36714187Y-58577646D01*
X36703842Y-58574362D01*
X36692770Y-58561008D01*
X36674762Y-58547019D01*
X36648919Y-58513339D01*
X36648913Y-58513333D01*
X36648910Y-58513329D01*
X36486670Y-58351089D01*
X36486661Y-58351081D01*
X36304617Y-58211392D01*
X36280418Y-58197421D01*
X36166378Y-58131580D01*
X36105890Y-58096657D01*
X36105876Y-58096650D01*
X35893887Y-58008842D01*
X35889491Y-58007664D01*
X35672238Y-57949452D01*
X35634215Y-57944446D01*
X35444741Y-57919500D01*
X35444734Y-57919500D01*
X35215266Y-57919500D01*
X35215258Y-57919500D01*
X34998715Y-57948009D01*
X34987762Y-57949452D01*
X34921958Y-57967084D01*
X34766112Y-58008842D01*
X34554123Y-58096650D01*
X34554109Y-58096657D01*
X34355382Y-58211392D01*
X34173338Y-58351081D01*
X34011081Y-58513338D01*
X33871392Y-58695382D01*
X33756657Y-58894109D01*
X33756652Y-58894118D01*
X33739061Y-58936589D01*
X33695220Y-58990992D01*
X33628926Y-59013057D01*
X33561226Y-58995778D01*
X33513616Y-58944640D01*
X33500500Y-58889136D01*
X33500500Y-40703389D01*
X58359500Y-40703389D01*
X58359500Y-40876611D01*
X58386598Y-41047701D01*
X58440127Y-41212445D01*
X58518768Y-41366788D01*
X58620586Y-41506928D01*
X58743072Y-41629414D01*
X58883212Y-41731232D01*
X59037555Y-41809873D01*
X59202299Y-41863402D01*
X59373389Y-41890500D01*
X59373390Y-41890500D01*
X59546610Y-41890500D01*
X59546611Y-41890500D01*
X59717701Y-41863402D01*
X59882445Y-41809873D01*
X60036788Y-41731232D01*
X60176928Y-41629414D01*
X60299414Y-41506928D01*
X60401232Y-41366788D01*
X60479873Y-41212445D01*
X60533402Y-41047701D01*
X60560500Y-40876611D01*
X60560500Y-40703389D01*
X60533402Y-40532299D01*
X60479873Y-40367555D01*
X60401232Y-40213212D01*
X60299414Y-40073072D01*
X60176928Y-39950586D01*
X60036788Y-39848768D01*
X59882445Y-39770127D01*
X59717701Y-39716598D01*
X59717699Y-39716597D01*
X59717698Y-39716597D01*
X59586271Y-39695781D01*
X59546611Y-39689500D01*
X59373389Y-39689500D01*
X59333728Y-39695781D01*
X59202302Y-39716597D01*
X59037552Y-39770128D01*
X58883211Y-39848768D01*
X58803256Y-39906859D01*
X58743072Y-39950586D01*
X58743070Y-39950588D01*
X58743069Y-39950588D01*
X58620588Y-40073069D01*
X58620588Y-40073070D01*
X58620586Y-40073072D01*
X58582535Y-40125444D01*
X58518768Y-40213211D01*
X58440128Y-40367552D01*
X58386597Y-40532302D01*
X58359500Y-40703389D01*
X33500500Y-40703389D01*
X33500500Y-38163389D01*
X60899500Y-38163389D01*
X60899500Y-38336610D01*
X60924395Y-38493797D01*
X60926598Y-38507701D01*
X60980127Y-38672445D01*
X61058768Y-38826788D01*
X61160586Y-38966928D01*
X61283072Y-39089414D01*
X61423212Y-39191232D01*
X61577555Y-39269873D01*
X61742299Y-39323402D01*
X61913389Y-39350500D01*
X61913390Y-39350500D01*
X62086610Y-39350500D01*
X62086611Y-39350500D01*
X62257701Y-39323402D01*
X62422445Y-39269873D01*
X62576788Y-39191232D01*
X62716928Y-39089414D01*
X62839414Y-38966928D01*
X62941232Y-38826788D01*
X63019873Y-38672445D01*
X63073402Y-38507701D01*
X63100500Y-38336611D01*
X63100500Y-38163389D01*
X63073402Y-37992299D01*
X63019873Y-37827555D01*
X62941232Y-37673212D01*
X62839414Y-37533072D01*
X62716928Y-37410586D01*
X62576788Y-37308768D01*
X62422445Y-37230127D01*
X62257701Y-37176598D01*
X62257699Y-37176597D01*
X62257698Y-37176597D01*
X62126271Y-37155781D01*
X62086611Y-37149500D01*
X61913389Y-37149500D01*
X61873728Y-37155781D01*
X61742302Y-37176597D01*
X61577552Y-37230128D01*
X61423211Y-37308768D01*
X61343256Y-37366859D01*
X61283072Y-37410586D01*
X61283070Y-37410588D01*
X61283069Y-37410588D01*
X61160588Y-37533069D01*
X61160588Y-37533070D01*
X61160586Y-37533072D01*
X61122535Y-37585444D01*
X61058768Y-37673211D01*
X60980128Y-37827552D01*
X60926597Y-37992302D01*
X60899500Y-38163389D01*
X33500500Y-38163389D01*
X33500500Y-35147648D01*
X44079500Y-35147648D01*
X44079500Y-35352351D01*
X44111522Y-35554534D01*
X44174781Y-35749223D01*
X44223631Y-35845095D01*
X44266798Y-35929815D01*
X44267715Y-35931613D01*
X44388028Y-36097213D01*
X44532786Y-36241971D01*
X44657057Y-36332257D01*
X44698390Y-36362287D01*
X44776669Y-36402172D01*
X44880776Y-36455218D01*
X44880778Y-36455218D01*
X44880781Y-36455220D01*
X44977125Y-36486524D01*
X45075465Y-36518477D01*
X45176557Y-36534488D01*
X45277648Y-36550500D01*
X45277649Y-36550500D01*
X45482351Y-36550500D01*
X45482352Y-36550500D01*
X45684534Y-36518477D01*
X45879219Y-36455220D01*
X46061610Y-36362287D01*
X46182409Y-36274522D01*
X46227213Y-36241971D01*
X46227215Y-36241968D01*
X46227219Y-36241966D01*
X46371966Y-36097219D01*
X46371968Y-36097215D01*
X46371971Y-36097213D01*
X46445090Y-35996571D01*
X46492287Y-35931610D01*
X46585220Y-35749219D01*
X46648477Y-35554534D01*
X46680500Y-35352352D01*
X46680500Y-35147648D01*
X51699500Y-35147648D01*
X51699500Y-35352351D01*
X51731522Y-35554534D01*
X51794781Y-35749223D01*
X51843631Y-35845095D01*
X51886798Y-35929815D01*
X51887715Y-35931613D01*
X52008028Y-36097213D01*
X52152786Y-36241971D01*
X52277057Y-36332257D01*
X52318390Y-36362287D01*
X52396669Y-36402172D01*
X52500776Y-36455218D01*
X52500778Y-36455218D01*
X52500781Y-36455220D01*
X52597125Y-36486524D01*
X52695465Y-36518477D01*
X52796557Y-36534488D01*
X52897648Y-36550500D01*
X52897649Y-36550500D01*
X53102351Y-36550500D01*
X53102352Y-36550500D01*
X53304534Y-36518477D01*
X53499219Y-36455220D01*
X53681610Y-36362287D01*
X53802409Y-36274522D01*
X53847213Y-36241971D01*
X53847215Y-36241968D01*
X53847219Y-36241966D01*
X53991966Y-36097219D01*
X53991968Y-36097215D01*
X53991971Y-36097213D01*
X54065091Y-35996571D01*
X58360000Y-35996571D01*
X58387085Y-36167584D01*
X58440591Y-36332257D01*
X58519195Y-36486524D01*
X58620967Y-36626602D01*
X58743397Y-36749032D01*
X58883475Y-36850804D01*
X59037744Y-36929408D01*
X59202415Y-36982914D01*
X59202414Y-36982914D01*
X59209999Y-36984115D01*
X59710000Y-36984115D01*
X59717584Y-36982914D01*
X59882255Y-36929408D01*
X60036524Y-36850804D01*
X60176602Y-36749032D01*
X60299032Y-36626602D01*
X60400804Y-36486524D01*
X60479408Y-36332257D01*
X60532914Y-36167584D01*
X60560000Y-35996571D01*
X60560000Y-35960000D01*
X59710000Y-35960000D01*
X59710000Y-36984115D01*
X59209999Y-36984115D01*
X59210000Y-36984114D01*
X59210000Y-35960000D01*
X58360000Y-35960000D01*
X58360000Y-35996571D01*
X54065091Y-35996571D01*
X54112287Y-35931610D01*
X54112288Y-35931608D01*
X54152674Y-35852348D01*
X54152676Y-35852343D01*
X54205218Y-35749223D01*
X54205218Y-35749222D01*
X54205220Y-35749219D01*
X54232935Y-35663922D01*
X59110000Y-35663922D01*
X59110000Y-35756078D01*
X59133852Y-35845095D01*
X59179930Y-35924905D01*
X59245095Y-35990070D01*
X59324905Y-36036148D01*
X59413922Y-36060000D01*
X59506078Y-36060000D01*
X59595095Y-36036148D01*
X59674905Y-35990070D01*
X59740070Y-35924905D01*
X59786148Y-35845095D01*
X59810000Y-35756078D01*
X59810000Y-35663922D01*
X59786148Y-35574905D01*
X59740070Y-35495095D01*
X59704975Y-35460000D01*
X59710000Y-35460000D01*
X60560000Y-35460000D01*
X60560000Y-35423428D01*
X60532914Y-35252415D01*
X60479408Y-35087742D01*
X60400804Y-34933475D01*
X60299032Y-34793397D01*
X60176602Y-34670967D01*
X60036524Y-34569195D01*
X59882257Y-34490591D01*
X59717589Y-34437087D01*
X59717581Y-34437085D01*
X59710000Y-34435884D01*
X59710000Y-35460000D01*
X59704975Y-35460000D01*
X59674905Y-35429930D01*
X59595095Y-35383852D01*
X59506078Y-35360000D01*
X59413922Y-35360000D01*
X59324905Y-35383852D01*
X59245095Y-35429930D01*
X59179930Y-35495095D01*
X59133852Y-35574905D01*
X59110000Y-35663922D01*
X54232935Y-35663922D01*
X54268477Y-35554534D01*
X54289242Y-35423428D01*
X58360000Y-35423428D01*
X58360000Y-35460000D01*
X59210000Y-35460000D01*
X59210000Y-34435884D01*
X59209999Y-34435884D01*
X59202418Y-34437085D01*
X59202410Y-34437087D01*
X59037742Y-34490591D01*
X58883475Y-34569195D01*
X58743397Y-34670967D01*
X58620967Y-34793397D01*
X58519195Y-34933475D01*
X58440591Y-35087742D01*
X58387085Y-35252415D01*
X58360000Y-35423428D01*
X54289242Y-35423428D01*
X54300500Y-35352352D01*
X54300500Y-35147648D01*
X54268477Y-34945466D01*
X54205220Y-34750781D01*
X54205218Y-34750778D01*
X54205218Y-34750776D01*
X54150481Y-34643350D01*
X54112287Y-34568390D01*
X54104148Y-34557187D01*
X53991971Y-34402786D01*
X53847213Y-34258028D01*
X53681613Y-34137715D01*
X53681612Y-34137714D01*
X53681610Y-34137713D01*
X53624653Y-34108691D01*
X53499223Y-34044781D01*
X53304534Y-33981522D01*
X53129995Y-33953878D01*
X53102352Y-33949500D01*
X52897648Y-33949500D01*
X52873329Y-33953351D01*
X52695465Y-33981522D01*
X52500776Y-34044781D01*
X52318386Y-34137715D01*
X52152786Y-34258028D01*
X52008028Y-34402786D01*
X51887715Y-34568386D01*
X51794781Y-34750776D01*
X51731522Y-34945465D01*
X51699500Y-35147648D01*
X46680500Y-35147648D01*
X46648477Y-34945466D01*
X46585220Y-34750781D01*
X46585218Y-34750778D01*
X46585218Y-34750776D01*
X46530481Y-34643350D01*
X46492287Y-34568390D01*
X46484148Y-34557187D01*
X46371971Y-34402786D01*
X46227213Y-34258028D01*
X46061613Y-34137715D01*
X46061612Y-34137714D01*
X46061610Y-34137713D01*
X46004653Y-34108691D01*
X45879223Y-34044781D01*
X45684534Y-33981522D01*
X45509995Y-33953878D01*
X45482352Y-33949500D01*
X45277648Y-33949500D01*
X45253329Y-33953351D01*
X45075465Y-33981522D01*
X44880776Y-34044781D01*
X44698386Y-34137715D01*
X44532786Y-34258028D01*
X44388028Y-34402786D01*
X44267715Y-34568386D01*
X44174781Y-34750776D01*
X44111522Y-34945465D01*
X44079500Y-35147648D01*
X33500500Y-35147648D01*
X33500500Y-31147648D01*
X42829500Y-31147648D01*
X42829500Y-31352351D01*
X42861522Y-31554534D01*
X42924781Y-31749223D01*
X42988691Y-31874653D01*
X43004869Y-31906403D01*
X43017715Y-31931613D01*
X43138028Y-32097213D01*
X43282786Y-32241971D01*
X43434444Y-32352155D01*
X43448390Y-32362287D01*
X43564607Y-32421503D01*
X43630776Y-32455218D01*
X43630778Y-32455218D01*
X43630781Y-32455220D01*
X43735137Y-32489127D01*
X43825465Y-32518477D01*
X43926557Y-32534488D01*
X44027648Y-32550500D01*
X44027649Y-32550500D01*
X44232351Y-32550500D01*
X44232352Y-32550500D01*
X44434534Y-32518477D01*
X44629219Y-32455220D01*
X44811610Y-32362287D01*
X44968182Y-32248532D01*
X44977213Y-32241971D01*
X44977215Y-32241968D01*
X44977219Y-32241966D01*
X45121966Y-32097219D01*
X45121968Y-32097215D01*
X45121971Y-32097213D01*
X45224098Y-31956645D01*
X45242287Y-31931610D01*
X45335220Y-31749219D01*
X45398477Y-31554534D01*
X45430500Y-31352352D01*
X45430500Y-31147648D01*
X50449500Y-31147648D01*
X50449500Y-31352351D01*
X50481522Y-31554534D01*
X50544781Y-31749223D01*
X50608691Y-31874653D01*
X50624869Y-31906403D01*
X50637715Y-31931613D01*
X50758028Y-32097213D01*
X50902786Y-32241971D01*
X51054444Y-32352155D01*
X51068390Y-32362287D01*
X51184607Y-32421503D01*
X51250776Y-32455218D01*
X51250778Y-32455218D01*
X51250781Y-32455220D01*
X51355137Y-32489127D01*
X51445465Y-32518477D01*
X51546557Y-32534488D01*
X51647648Y-32550500D01*
X51647649Y-32550500D01*
X51852351Y-32550500D01*
X51852352Y-32550500D01*
X52054534Y-32518477D01*
X52249219Y-32455220D01*
X52431610Y-32362287D01*
X52588182Y-32248532D01*
X52588185Y-32248530D01*
X52597210Y-32241973D01*
X52597213Y-32241969D01*
X52597219Y-32241966D01*
X52741966Y-32097219D01*
X52741968Y-32097215D01*
X52741971Y-32097213D01*
X52844098Y-31956645D01*
X52862287Y-31931610D01*
X52955220Y-31749219D01*
X53018477Y-31554534D01*
X53050500Y-31352352D01*
X53050500Y-31147648D01*
X53018477Y-30945466D01*
X52955220Y-30750781D01*
X52955218Y-30750778D01*
X52955218Y-30750776D01*
X52904124Y-30650500D01*
X52862287Y-30568390D01*
X52830401Y-30524502D01*
X52741971Y-30402786D01*
X52597213Y-30258028D01*
X52431613Y-30137715D01*
X52431612Y-30137714D01*
X52431610Y-30137713D01*
X52374653Y-30108691D01*
X52249223Y-30044781D01*
X52054534Y-29981522D01*
X51879995Y-29953878D01*
X51852352Y-29949500D01*
X51647648Y-29949500D01*
X51623329Y-29953351D01*
X51445465Y-29981522D01*
X51250776Y-30044781D01*
X51068386Y-30137715D01*
X50902786Y-30258028D01*
X50758028Y-30402786D01*
X50637715Y-30568386D01*
X50544781Y-30750776D01*
X50481522Y-30945465D01*
X50449500Y-31147648D01*
X45430500Y-31147648D01*
X45398477Y-30945466D01*
X45335220Y-30750781D01*
X45335218Y-30750778D01*
X45335218Y-30750776D01*
X45284124Y-30650500D01*
X45242287Y-30568390D01*
X45210401Y-30524502D01*
X45121971Y-30402786D01*
X44977213Y-30258028D01*
X44811613Y-30137715D01*
X44811612Y-30137714D01*
X44811610Y-30137713D01*
X44754653Y-30108691D01*
X44629223Y-30044781D01*
X44434534Y-29981522D01*
X44259995Y-29953878D01*
X44232352Y-29949500D01*
X44027648Y-29949500D01*
X44003329Y-29953351D01*
X43825465Y-29981522D01*
X43630776Y-30044781D01*
X43448386Y-30137715D01*
X43282786Y-30258028D01*
X43138028Y-30402786D01*
X43017715Y-30568386D01*
X42924781Y-30750776D01*
X42861522Y-30945465D01*
X42829500Y-31147648D01*
X33500500Y-31147648D01*
X33500500Y-27300166D01*
X40599500Y-27300166D01*
X40599500Y-28699833D01*
X40610003Y-28802638D01*
X40665202Y-28969217D01*
X40665204Y-28969222D01*
X40700097Y-29025791D01*
X40757330Y-29118581D01*
X40881419Y-29242670D01*
X41030780Y-29334797D01*
X41124988Y-29366014D01*
X41197361Y-29389996D01*
X41234236Y-29393763D01*
X41300174Y-29400500D01*
X41300178Y-29400500D01*
X42699822Y-29400500D01*
X42699826Y-29400500D01*
X42802638Y-29389996D01*
X42969220Y-29334797D01*
X43118581Y-29242670D01*
X43242670Y-29118581D01*
X43258797Y-29092433D01*
X43291936Y-29038710D01*
X43334793Y-28969226D01*
X43334797Y-28969220D01*
X43383819Y-28821278D01*
X43413844Y-28772601D01*
X44097861Y-28088583D01*
X44120667Y-28173694D01*
X44179910Y-28276306D01*
X44263694Y-28360090D01*
X44366306Y-28419333D01*
X44451414Y-28442137D01*
X43742485Y-29151065D01*
X43742485Y-29151066D01*
X43806243Y-29197388D01*
X44002589Y-29297432D01*
X44212164Y-29365526D01*
X44429819Y-29400000D01*
X44650181Y-29400000D01*
X44867835Y-29365526D01*
X45077410Y-29297432D01*
X45273760Y-29197386D01*
X45337513Y-29151066D01*
X45337514Y-29151066D01*
X44628585Y-28442138D01*
X44713694Y-28419333D01*
X44816306Y-28360090D01*
X44900090Y-28276306D01*
X44959333Y-28173694D01*
X44982137Y-28088585D01*
X45691066Y-28797514D01*
X45691066Y-28797513D01*
X45709372Y-28772319D01*
X45764701Y-28729653D01*
X45834315Y-28723674D01*
X45896110Y-28756279D01*
X45910008Y-28772319D01*
X46011752Y-28912358D01*
X46011756Y-28912363D01*
X46167636Y-29068243D01*
X46167641Y-29068247D01*
X46236921Y-29118581D01*
X46345978Y-29197815D01*
X46474375Y-29263237D01*
X46542393Y-29297895D01*
X46542396Y-29297896D01*
X46647221Y-29331955D01*
X46752049Y-29366015D01*
X46969778Y-29400500D01*
X46969779Y-29400500D01*
X47190221Y-29400500D01*
X47190222Y-29400500D01*
X47407951Y-29366015D01*
X47617606Y-29297895D01*
X47814022Y-29197815D01*
X47893904Y-29139778D01*
X53599500Y-29139778D01*
X53599500Y-29360222D01*
X53613920Y-29451264D01*
X53633985Y-29577952D01*
X53702103Y-29787603D01*
X53702104Y-29787606D01*
X53770122Y-29921096D01*
X53800911Y-29981522D01*
X53802187Y-29984025D01*
X53931752Y-30162358D01*
X53931756Y-30162363D01*
X54087636Y-30318243D01*
X54087641Y-30318247D01*
X54209240Y-30406593D01*
X54265978Y-30447815D01*
X54394375Y-30513237D01*
X54462393Y-30547895D01*
X54462396Y-30547896D01*
X54525472Y-30568390D01*
X54672049Y-30616015D01*
X54889778Y-30650500D01*
X54889779Y-30650500D01*
X55110221Y-30650500D01*
X55110222Y-30650500D01*
X55327951Y-30616015D01*
X55537606Y-30547895D01*
X55734022Y-30447815D01*
X55912365Y-30318242D01*
X55962536Y-30268070D01*
X56023857Y-30234586D01*
X56093548Y-30239570D01*
X56149482Y-30281441D01*
X56166398Y-30312419D01*
X56196202Y-30392328D01*
X56196206Y-30392335D01*
X56282452Y-30507544D01*
X56282455Y-30507547D01*
X56397664Y-30593793D01*
X56397671Y-30593797D01*
X56532517Y-30644091D01*
X56532516Y-30644091D01*
X56536135Y-30644480D01*
X56592127Y-30650500D01*
X58487872Y-30650499D01*
X58547483Y-30644091D01*
X58682331Y-30593796D01*
X58797546Y-30507546D01*
X58883796Y-30392331D01*
X58934091Y-30257483D01*
X58940500Y-30197873D01*
X58940499Y-28302128D01*
X58934091Y-28242517D01*
X58929763Y-28230914D01*
X58883797Y-28107671D01*
X58883793Y-28107664D01*
X58797547Y-27992455D01*
X58797544Y-27992452D01*
X58682335Y-27906206D01*
X58682328Y-27906202D01*
X58547482Y-27855908D01*
X58547483Y-27855908D01*
X58487883Y-27849501D01*
X58487881Y-27849500D01*
X58487873Y-27849500D01*
X58487864Y-27849500D01*
X56592129Y-27849500D01*
X56592123Y-27849501D01*
X56532516Y-27855908D01*
X56397671Y-27906202D01*
X56397664Y-27906206D01*
X56282455Y-27992452D01*
X56282452Y-27992455D01*
X56196206Y-28107664D01*
X56196203Y-28107669D01*
X56166398Y-28187581D01*
X56124526Y-28243514D01*
X56059062Y-28267931D01*
X55990789Y-28253079D01*
X55962535Y-28231928D01*
X55912363Y-28181756D01*
X55912358Y-28181752D01*
X55734025Y-28052187D01*
X55734024Y-28052186D01*
X55734022Y-28052185D01*
X55643215Y-28005916D01*
X55537606Y-27952104D01*
X55537603Y-27952103D01*
X55327952Y-27883985D01*
X55152549Y-27856204D01*
X55110222Y-27849500D01*
X54889778Y-27849500D01*
X54847451Y-27856204D01*
X54672047Y-27883985D01*
X54462396Y-27952103D01*
X54462393Y-27952104D01*
X54265974Y-28052187D01*
X54087641Y-28181752D01*
X54087636Y-28181756D01*
X53931756Y-28337636D01*
X53931752Y-28337641D01*
X53802187Y-28515974D01*
X53702104Y-28712393D01*
X53702103Y-28712396D01*
X53633985Y-28922047D01*
X53626513Y-28969226D01*
X53599500Y-29139778D01*
X47893904Y-29139778D01*
X47992365Y-29068242D01*
X48148242Y-28912365D01*
X48277815Y-28734022D01*
X48377895Y-28537606D01*
X48446015Y-28327951D01*
X48480500Y-28110222D01*
X48480500Y-27889778D01*
X48446015Y-27672049D01*
X48411955Y-27567221D01*
X48377896Y-27462396D01*
X48377895Y-27462393D01*
X48343237Y-27394375D01*
X48277815Y-27265978D01*
X48227962Y-27197361D01*
X48148247Y-27087641D01*
X48148243Y-27087636D01*
X47992363Y-26931756D01*
X47992358Y-26931752D01*
X47814025Y-26802187D01*
X47814024Y-26802186D01*
X47814022Y-26802185D01*
X47749837Y-26769481D01*
X47617606Y-26702104D01*
X47617603Y-26702103D01*
X47407952Y-26633985D01*
X47256535Y-26610003D01*
X47190222Y-26599500D01*
X46969778Y-26599500D01*
X46903465Y-26610003D01*
X46752047Y-26633985D01*
X46542396Y-26702103D01*
X46542393Y-26702104D01*
X46345974Y-26802187D01*
X46167641Y-26931752D01*
X46167636Y-26931756D01*
X46011756Y-27087636D01*
X45910008Y-27227681D01*
X45854678Y-27270346D01*
X45785065Y-27276325D01*
X45723270Y-27243719D01*
X45709371Y-27227680D01*
X45691066Y-27202485D01*
X45691065Y-27202485D01*
X44982137Y-27911413D01*
X44959333Y-27826306D01*
X44900090Y-27723694D01*
X44816306Y-27639910D01*
X44713694Y-27580667D01*
X44628583Y-27557861D01*
X45337513Y-26848932D01*
X45273756Y-26802611D01*
X45077410Y-26702567D01*
X44867835Y-26634473D01*
X44650181Y-26600000D01*
X44429819Y-26600000D01*
X44212164Y-26634473D01*
X44002589Y-26702567D01*
X43806233Y-26802616D01*
X43742485Y-26848931D01*
X43742485Y-26848932D01*
X44451414Y-27557861D01*
X44366306Y-27580667D01*
X44263694Y-27639910D01*
X44179910Y-27723694D01*
X44120667Y-27826306D01*
X44097861Y-27911414D01*
X43413843Y-27227396D01*
X43383818Y-27178718D01*
X43334797Y-27030780D01*
X43334793Y-27030774D01*
X43334792Y-27030771D01*
X43291935Y-26961290D01*
X43242670Y-26881419D01*
X43118581Y-26757330D01*
X42969220Y-26665203D01*
X42969217Y-26665202D01*
X42802638Y-26610003D01*
X42699833Y-26599500D01*
X42699826Y-26599500D01*
X41300174Y-26599500D01*
X41300166Y-26599500D01*
X41197361Y-26610003D01*
X41030782Y-26665202D01*
X41030777Y-26665204D01*
X40881417Y-26757331D01*
X40757331Y-26881417D01*
X40665204Y-27030777D01*
X40665202Y-27030782D01*
X40610003Y-27197361D01*
X40599500Y-27300166D01*
X33500500Y-27300166D01*
X33500500Y-24874500D01*
X33520185Y-24807461D01*
X33572989Y-24761706D01*
X33624500Y-24750500D01*
X109125500Y-24750500D01*
X109192539Y-24770185D01*
G37*
%TD.AperFunction*%
%TA.AperFunction,Conductor*%
G36*
X71304755Y-59446853D02*
G01*
X71371898Y-59563147D01*
X71466853Y-59658102D01*
X71583147Y-59725245D01*
X71642424Y-59741127D01*
X70921371Y-60462181D01*
X70860048Y-60495666D01*
X70833690Y-60498500D01*
X70412889Y-60498500D01*
X70395921Y-60493517D01*
X70378238Y-60493560D01*
X70363093Y-60483878D01*
X70345850Y-60478815D01*
X70334270Y-60465452D01*
X70319370Y-60455926D01*
X70311863Y-60439593D01*
X70300095Y-60426011D01*
X70297578Y-60408507D01*
X70290194Y-60392440D01*
X70292709Y-60374644D01*
X70290151Y-60356853D01*
X70297507Y-60340693D01*
X70299972Y-60323258D01*
X70315945Y-60300193D01*
X70318983Y-60293521D01*
X70321970Y-60290056D01*
X70384517Y-60227510D01*
X70430586Y-60164100D01*
X70433959Y-60160190D01*
X70459139Y-60143922D01*
X70482877Y-60125618D01*
X70488831Y-60124740D01*
X70492646Y-60122276D01*
X70505757Y-60122244D01*
X70537594Y-60117551D01*
X70557340Y-60119105D01*
X71288871Y-59387574D01*
X71304755Y-59446853D01*
G37*
%TD.AperFunction*%
%TA.AperFunction,Conductor*%
G36*
X80357517Y-47120185D02*
G01*
X80403272Y-47172989D01*
X80413216Y-47242147D01*
X80384191Y-47305703D01*
X80378159Y-47312181D01*
X79792047Y-47898292D01*
X79792045Y-47898294D01*
X79763900Y-47940420D01*
X79763898Y-47940423D01*
X79709914Y-48021215D01*
X79653343Y-48157790D01*
X79653340Y-48157800D01*
X79624500Y-48302787D01*
X79624500Y-55762770D01*
X79604815Y-55829809D01*
X79588181Y-55850451D01*
X76975451Y-58463181D01*
X76914128Y-58496666D01*
X76887770Y-58499500D01*
X75944499Y-58499500D01*
X75877460Y-58479815D01*
X75831705Y-58427011D01*
X75820499Y-58375500D01*
X75820499Y-58202129D01*
X75820498Y-58202123D01*
X75819992Y-58197420D01*
X75814091Y-58142517D01*
X75806001Y-58120827D01*
X75763797Y-58007671D01*
X75763793Y-58007664D01*
X75677547Y-57892455D01*
X75677544Y-57892452D01*
X75562335Y-57806206D01*
X75562328Y-57806202D01*
X75427482Y-57755908D01*
X75427483Y-57755908D01*
X75367883Y-57749501D01*
X75367881Y-57749500D01*
X75367873Y-57749500D01*
X75367864Y-57749500D01*
X73272129Y-57749500D01*
X73272123Y-57749501D01*
X73212516Y-57755908D01*
X73077671Y-57806202D01*
X73077664Y-57806206D01*
X72962455Y-57892452D01*
X72962452Y-57892455D01*
X72876206Y-58007664D01*
X72871953Y-58015454D01*
X72868807Y-58013736D01*
X72837139Y-58056010D01*
X72771667Y-58080404D01*
X72703399Y-58065529D01*
X72689978Y-58057035D01*
X72566174Y-57967087D01*
X72355802Y-57859897D01*
X72131247Y-57786934D01*
X72131248Y-57786934D01*
X71898052Y-57750000D01*
X71661948Y-57750000D01*
X71428752Y-57786934D01*
X71204197Y-57859897D01*
X70993830Y-57967084D01*
X70910894Y-58027340D01*
X71642425Y-58758871D01*
X71583147Y-58774755D01*
X71466853Y-58841898D01*
X71371898Y-58936853D01*
X71304755Y-59053147D01*
X71288871Y-59112424D01*
X70557340Y-58380893D01*
X70537593Y-58382448D01*
X70469215Y-58368084D01*
X70427547Y-58331716D01*
X70384517Y-58272490D01*
X70217510Y-58105483D01*
X70026433Y-57966657D01*
X70001488Y-57953947D01*
X69815996Y-57859433D01*
X69591368Y-57786446D01*
X69358097Y-57749500D01*
X69358092Y-57749500D01*
X69349096Y-57749500D01*
X69282057Y-57729815D01*
X69236302Y-57677011D01*
X69226358Y-57607853D01*
X69255383Y-57544297D01*
X69261415Y-57537819D01*
X69597232Y-57202003D01*
X70110416Y-56688819D01*
X70171739Y-56655334D01*
X70198097Y-56652500D01*
X71245531Y-56652500D01*
X71245547Y-56652501D01*
X71253143Y-56652501D01*
X71411254Y-56652501D01*
X71411257Y-56652501D01*
X71563985Y-56611577D01*
X71630017Y-56573453D01*
X71700916Y-56532520D01*
X71812720Y-56420716D01*
X71812720Y-56420714D01*
X71822924Y-56410511D01*
X71822928Y-56410506D01*
X78910506Y-49322928D01*
X78910511Y-49322924D01*
X78920714Y-49312720D01*
X78920716Y-49312720D01*
X79032520Y-49200916D01*
X79104948Y-49075466D01*
X79111577Y-49063985D01*
X79152500Y-48911257D01*
X79152500Y-48753143D01*
X79152500Y-47698097D01*
X79172185Y-47631058D01*
X79188819Y-47610416D01*
X79662417Y-47136819D01*
X79723740Y-47103334D01*
X79750098Y-47100500D01*
X80290478Y-47100500D01*
X80357517Y-47120185D01*
G37*
%TD.AperFunction*%
%TD*%
M02*
