%TF.GenerationSoftware,KiCad,Pcbnew,9.0.6*%
%TF.CreationDate,2026-02-26T17:16:06-08:00*%
%TF.ProjectId,flopper_one,666c6f70-7065-4725-9f6f-6e652e6b6963,rev?*%
%TF.SameCoordinates,Original*%
%TF.FileFunction,Copper,L1,Top*%
%TF.FilePolarity,Positive*%
%FSLAX46Y46*%
G04 Gerber Fmt 4.6, Leading zero omitted, Abs format (unit mm)*
G04 Created by KiCad (PCBNEW 9.0.6) date 2026-02-26 17:16:06*
%MOMM*%
%LPD*%
G01*
G04 APERTURE LIST*
G04 Aperture macros list*
%AMRoundRect*
0 Rectangle with rounded corners*
0 $1 Rounding radius*
0 $2 $3 $4 $5 $6 $7 $8 $9 X,Y pos of 4 corners*
0 Add a 4 corners polygon primitive as box body*
4,1,4,$2,$3,$4,$5,$6,$7,$8,$9,$2,$3,0*
0 Add four circle primitives for the rounded corners*
1,1,$1+$1,$2,$3*
1,1,$1+$1,$4,$5*
1,1,$1+$1,$6,$7*
1,1,$1+$1,$8,$9*
0 Add four rect primitives between the rounded corners*
20,1,$1+$1,$2,$3,$4,$5,0*
20,1,$1+$1,$4,$5,$6,$7,0*
20,1,$1+$1,$6,$7,$8,$9,0*
20,1,$1+$1,$8,$9,$2,$3,0*%
G04 Aperture macros list end*
%TA.AperFunction,ComponentPad*%
%ADD10R,2.000000X2.000000*%
%TD*%
%TA.AperFunction,ComponentPad*%
%ADD11C,2.000000*%
%TD*%
%TA.AperFunction,SMDPad,CuDef*%
%ADD12RoundRect,0.150000X0.825000X0.150000X-0.825000X0.150000X-0.825000X-0.150000X0.825000X-0.150000X0*%
%TD*%
%TA.AperFunction,HeatsinkPad*%
%ADD13C,0.500000*%
%TD*%
%TA.AperFunction,HeatsinkPad*%
%ADD14R,2.410000X3.300000*%
%TD*%
%TA.AperFunction,ComponentPad*%
%ADD15R,1.700000X1.700000*%
%TD*%
%TA.AperFunction,ComponentPad*%
%ADD16C,1.700000*%
%TD*%
%TA.AperFunction,SMDPad,CuDef*%
%ADD17R,1.400000X1.600000*%
%TD*%
%TA.AperFunction,SMDPad,CuDef*%
%ADD18R,1.600000X1.400000*%
%TD*%
%TA.AperFunction,ComponentPad*%
%ADD19O,2.000000X3.500000*%
%TD*%
%TA.AperFunction,ComponentPad*%
%ADD20C,1.600000*%
%TD*%
%TA.AperFunction,ComponentPad*%
%ADD21R,1.800000X1.800000*%
%TD*%
%TA.AperFunction,ComponentPad*%
%ADD22C,1.800000*%
%TD*%
%TA.AperFunction,ComponentPad*%
%ADD23RoundRect,0.250000X0.750000X-0.750000X0.750000X0.750000X-0.750000X0.750000X-0.750000X-0.750000X0*%
%TD*%
%TA.AperFunction,ComponentPad*%
%ADD24RoundRect,0.250200X-0.649800X-0.649800X0.649800X-0.649800X0.649800X0.649800X-0.649800X0.649800X0*%
%TD*%
%TA.AperFunction,ComponentPad*%
%ADD25O,1.200000X1.600000*%
%TD*%
%TA.AperFunction,ComponentPad*%
%ADD26C,1.200000*%
%TD*%
%TA.AperFunction,ComponentPad*%
%ADD27RoundRect,0.250000X-0.750000X0.750000X-0.750000X-0.750000X0.750000X-0.750000X0.750000X0.750000X0*%
%TD*%
%TA.AperFunction,ViaPad*%
%ADD28C,0.600000*%
%TD*%
%TA.AperFunction,Conductor*%
%ADD29C,0.200000*%
%TD*%
%TA.AperFunction,Conductor*%
%ADD30C,0.500000*%
%TD*%
G04 APERTURE END LIST*
D10*
%TO.P,U2,1,VIN*%
%TO.N,/CE*%
X74320000Y-59000000D03*
D11*
%TO.P,U2,2,GND*%
%TO.N,GND*%
X71780000Y-59000000D03*
%TO.P,U2,3,GPIO13*%
%TO.N,unconnected-(U2-GPIO13-Pad3)*%
X69240000Y-59000000D03*
%TO.P,U2,4,GPIO12*%
%TO.N,/P4*%
X66700000Y-59000000D03*
%TO.P,U2,5,GPIO14*%
%TO.N,/P1*%
X64160000Y-59000000D03*
%TO.P,U2,6,GPIO27*%
%TO.N,/P2*%
X61620000Y-59000000D03*
%TO.P,U2,7,GPIO26*%
%TO.N,/P3*%
X59080000Y-59000000D03*
%TO.P,U2,8,GPIO25*%
%TO.N,/P5*%
X56540000Y-59000000D03*
%TO.P,U2,9,GPIO33*%
%TO.N,/RES*%
X54000000Y-59000000D03*
%TO.P,U2,10,GPIO32*%
%TO.N,/DC*%
X51460000Y-59000000D03*
%TO.P,U2,11,GPIO35*%
%TO.N,unconnected-(U2-GPIO35-Pad11)*%
X48920000Y-59000000D03*
%TO.P,U2,12,GPIO34*%
%TO.N,unconnected-(U2-GPIO34-Pad12)*%
X46380000Y-59000000D03*
%TO.P,U2,13,GPIO39*%
%TO.N,unconnected-(U2-GPIO39-Pad13)*%
X43840000Y-59000000D03*
%TO.P,U2,14,GPIO36*%
%TO.N,unconnected-(U2-GPIO36-Pad14)*%
X41300000Y-59000000D03*
%TO.P,U2,15,EN*%
%TO.N,unconnected-(U2-EN-Pad15)*%
X38760000Y-59000000D03*
%TO.P,U2,16,3.3v*%
%TO.N,/VCC*%
X38760000Y-84400000D03*
%TO.P,U2,17,GND*%
%TO.N,GND*%
X41300000Y-84400000D03*
%TO.P,U2,18,GPIO15*%
%TO.N,unconnected-(U2-GPIO15-Pad18)*%
X43840000Y-84400000D03*
%TO.P,U2,19,GPIO2*%
%TO.N,unconnected-(U2-GPIO2-Pad19)*%
X46380000Y-84400000D03*
%TO.P,U2,20,GPIO4*%
%TO.N,unconnected-(U2-GPIO4-Pad20)*%
X48920000Y-84400000D03*
%TO.P,U2,21,GPIO16*%
%TO.N,Net-(U2-GPIO16)*%
X51460000Y-84400000D03*
%TO.P,U2,22,GPIO17*%
%TO.N,/SDA1*%
X54000000Y-84400000D03*
%TO.P,U2,23,GPIO5*%
%TO.N,/SCL1*%
X56540000Y-84400000D03*
%TO.P,U2,24,GPIO18*%
%TO.N,/SCL2*%
X59080000Y-84400000D03*
%TO.P,U2,25,GPIO19*%
%TO.N,/SDA2*%
X61620000Y-84400000D03*
%TO.P,U2,26,GPIO21*%
%TO.N,unconnected-(U2-GPIO21-Pad26)*%
X64160000Y-84400000D03*
%TO.P,U2,27,GPIO3*%
%TO.N,unconnected-(U2-GPIO3-Pad27)*%
X66700000Y-84400000D03*
%TO.P,U2,28,GPIO1*%
%TO.N,unconnected-(U2-GPIO1-Pad28)*%
X69240000Y-84400000D03*
%TO.P,U2,29,GPIO22*%
%TO.N,unconnected-(U2-GPIO22-Pad29)*%
X71780000Y-84400000D03*
%TO.P,U2,30,GPIO23*%
%TO.N,Net-(U2-GPIO23)*%
X74320000Y-84400000D03*
%TD*%
D12*
%TO.P,U1,1,TEMP*%
%TO.N,GND*%
X93075000Y-61730000D03*
%TO.P,U1,2,PROG*%
%TO.N,Net-(U1-PROG)*%
X93075000Y-60460000D03*
%TO.P,U1,3,GND*%
%TO.N,GND*%
X93075000Y-59190000D03*
%TO.P,U1,4,V_{CC}*%
%TO.N,/CE*%
X93075000Y-57920000D03*
%TO.P,U1,5,BAT*%
%TO.N,/BAT+*%
X88125000Y-57920000D03*
%TO.P,U1,6,~{STDBY}*%
%TO.N,Net-(U1-~{STDBY})*%
X88125000Y-59190000D03*
%TO.P,U1,7,~{CHRG}*%
%TO.N,Net-(U1-~{CHRG})*%
X88125000Y-60460000D03*
%TO.P,U1,8,CE*%
%TO.N,/CE*%
X88125000Y-61730000D03*
D13*
%TO.P,U1,9,EPAD*%
%TO.N,GND*%
X91300000Y-61025000D03*
X91300000Y-59825000D03*
X91300000Y-58625000D03*
D14*
X90600000Y-59825000D03*
D13*
X89900000Y-61025000D03*
X89900000Y-59825000D03*
X89900000Y-58625000D03*
%TD*%
D15*
%TO.P,J2,1,Pin_1*%
%TO.N,GND*%
X74000000Y-33000000D03*
D16*
%TO.P,J2,2,Pin_2*%
%TO.N,/VCC*%
X74000000Y-35540000D03*
%TO.P,J2,3,Pin_3*%
%TO.N,/SCL2*%
X74000000Y-38080000D03*
%TO.P,J2,4,Pin_4*%
%TO.N,/SDA2*%
X74000000Y-40620000D03*
%TO.P,J2,5,Pin_5*%
%TO.N,/RES*%
X74000000Y-43160000D03*
%TO.P,J2,6,Pin_6*%
%TO.N,/DC*%
X74000000Y-45700000D03*
%TO.P,J2,7,Pin_7*%
%TO.N,/VCC*%
X74000000Y-48240000D03*
%TD*%
D17*
%TO.P,SW3,1,1*%
%TO.N,/P3*%
X104250000Y-37000000D03*
X104250000Y-45000000D03*
%TO.P,SW3,2,2*%
%TO.N,GND*%
X99750000Y-37000000D03*
X99750000Y-45000000D03*
%TD*%
D18*
%TO.P,SW1,1,1*%
%TO.N,/P1*%
X87000000Y-28750000D03*
X95000000Y-28750000D03*
%TO.P,SW1,2,2*%
%TO.N,GND*%
X87000000Y-33250000D03*
X95000000Y-33250000D03*
%TD*%
%TO.P,SW4,1,1*%
%TO.N,/P4*%
X87000000Y-48750000D03*
X95000000Y-48750000D03*
%TO.P,SW4,2,2*%
%TO.N,GND*%
X87000000Y-53250000D03*
X95000000Y-53250000D03*
%TD*%
D17*
%TO.P,SW2,1,1*%
%TO.N,/P2*%
X77750000Y-45000000D03*
X77750000Y-37000000D03*
%TO.P,SW2,2,2*%
%TO.N,GND*%
X82250000Y-45000000D03*
X82250000Y-37000000D03*
%TD*%
D19*
%TO.P,SW6,1,A*%
%TO.N,Net-(SW6-A)*%
X106500000Y-84000000D03*
%TO.P,SW6,2,B*%
%TO.N,/BAT+*%
X101500000Y-84000000D03*
%TD*%
D17*
%TO.P,SW5,1,1*%
%TO.N,/P5*%
X88750000Y-45000000D03*
X88750000Y-37000000D03*
%TO.P,SW5,2,2*%
%TO.N,GND*%
X93250000Y-45000000D03*
X93250000Y-37000000D03*
%TD*%
D20*
%TO.P,R5,1*%
%TO.N,Net-(U1-~{CHRG})*%
X104000000Y-49130000D03*
%TO.P,R5,2*%
%TO.N,Net-(D2-K)*%
X104000000Y-56750000D03*
%TD*%
D21*
%TO.P,D3,1,K*%
%TO.N,Net-(D3-K)*%
X107250000Y-79250000D03*
D22*
%TO.P,D3,2,A*%
%TO.N,/CE*%
X104710000Y-79250000D03*
%TD*%
D20*
%TO.P,R1,1*%
%TO.N,Net-(D1-A)*%
X44130000Y-31000000D03*
%TO.P,R1,2*%
%TO.N,/VCC*%
X51750000Y-31000000D03*
%TD*%
%TO.P,R3,1*%
%TO.N,Net-(U1-PROG)*%
X105250000Y-59190000D03*
%TO.P,R3,2*%
%TO.N,GND*%
X105250000Y-66810000D03*
%TD*%
%TO.P,R4,1*%
%TO.N,Net-(U1-~{STDBY})*%
X107250000Y-49130000D03*
%TO.P,R4,2*%
%TO.N,Net-(D3-K)*%
X107250000Y-56750000D03*
%TD*%
D23*
%TO.P,C2,1*%
%TO.N,/CE*%
X82750000Y-81000000D03*
D11*
%TO.P,C2,2*%
%TO.N,GND*%
X82750000Y-66000000D03*
%TD*%
D24*
%TO.P,U_2,1,OUT*%
%TO.N,Net-(U2-GPIO23)*%
X42000000Y-27750000D03*
D22*
%TO.P,U_2,2,GND*%
%TO.N,GND*%
X44540000Y-27750000D03*
%TO.P,U_2,3,Vs*%
%TO.N,/VCC*%
X47080000Y-27750000D03*
%TD*%
D20*
%TO.P,R2,1*%
%TO.N,Net-(Q1-B)*%
X53000000Y-35000000D03*
%TO.P,R2,2*%
%TO.N,Net-(U2-GPIO16)*%
X45380000Y-35000000D03*
%TD*%
D25*
%TO.P,Q1,1,E*%
%TO.N,GND*%
X59460000Y-35460000D03*
D26*
%TO.P,Q1,2,B*%
%TO.N,Net-(Q1-B)*%
X62000000Y-38000000D03*
%TO.P,Q1,3,C*%
%TO.N,Net-(D1-K)*%
X59460000Y-40540000D03*
%TD*%
D21*
%TO.P,D1,1,K*%
%TO.N,Net-(D1-K)*%
X57540000Y-29000000D03*
D22*
%TO.P,D1,2,A*%
%TO.N,Net-(D1-A)*%
X55000000Y-29000000D03*
%TD*%
D15*
%TO.P,J1,1,VCC*%
%TO.N,GND*%
X74000000Y-62000000D03*
D16*
%TO.P,J1,2,RX*%
%TO.N,/VCC*%
X74000000Y-64540000D03*
%TO.P,J1,3,TX*%
%TO.N,/SDA1*%
X74000000Y-67080000D03*
%TO.P,J1,4,GND*%
%TO.N,/SCL1*%
X74000000Y-69620000D03*
%TD*%
D21*
%TO.P,D2,1,K*%
%TO.N,Net-(D2-K)*%
X107000000Y-72750000D03*
D22*
%TO.P,D2,2,A*%
%TO.N,/CE*%
X104460000Y-72750000D03*
%TD*%
D27*
%TO.P,C1,1*%
%TO.N,/BAT+*%
X82500000Y-48500000D03*
D11*
%TO.P,C1,2*%
%TO.N,GND*%
X82500000Y-63500000D03*
%TD*%
D28*
%TO.N,GND*%
X68000000Y-43500000D03*
X87500000Y-51500000D03*
%TO.N,/SDA2*%
X71635000Y-74385000D03*
%TO.N,/SCL2*%
X70865000Y-72615000D03*
%TO.N,Net-(U2-GPIO23)*%
X80000000Y-78720000D03*
%TO.N,Net-(U1-PROG)*%
X94500000Y-60250000D03*
%TO.N,/CE*%
X95000000Y-58250000D03*
%TD*%
D29*
%TO.N,GND*%
X91300000Y-58625000D02*
X91865000Y-59190000D01*
X81000000Y-62000000D02*
X85810000Y-66810000D01*
X97000000Y-48000000D02*
X94000000Y-45000000D01*
X87500000Y-52750000D02*
X87000000Y-53250000D01*
X91865000Y-59190000D02*
X93075000Y-59190000D01*
X85810000Y-66810000D02*
X105250000Y-66810000D01*
D30*
X89900000Y-57250000D02*
X89900000Y-56150000D01*
D29*
X95000000Y-33250000D02*
X95000000Y-35250000D01*
X90750000Y-46250000D02*
X92000000Y-45000000D01*
X95000000Y-33250000D02*
X98000000Y-30250000D01*
D30*
X89900000Y-56150000D02*
X87000000Y-53250000D01*
D29*
X91300000Y-58625000D02*
X89900000Y-58625000D01*
X74238760Y-65929000D02*
X59771000Y-65929000D01*
D30*
X89900000Y-58625000D02*
X89900000Y-57250000D01*
D29*
X92000000Y-45000000D02*
X93250000Y-45000000D01*
X98000000Y-27000000D02*
X97000000Y-26000000D01*
X94000000Y-45000000D02*
X93250000Y-45000000D01*
X95000000Y-53250000D02*
X97000000Y-51250000D01*
X87500000Y-51500000D02*
X87500000Y-52750000D01*
X99750000Y-37000000D02*
X99750000Y-45000000D01*
X74000000Y-62000000D02*
X75151000Y-63151000D01*
X95000000Y-35250000D02*
X93250000Y-37000000D01*
X75151000Y-63151000D02*
X75151000Y-65016760D01*
X75151000Y-65016760D02*
X74238760Y-65929000D01*
X82250000Y-37000000D02*
X82250000Y-45000000D01*
X91805000Y-61730000D02*
X89900000Y-59825000D01*
X86000000Y-33250000D02*
X82250000Y-37000000D01*
X91840000Y-59190000D02*
X89900000Y-57250000D01*
X82750000Y-63750000D02*
X82750000Y-66500000D01*
X97000000Y-51250000D02*
X97000000Y-48000000D01*
X93075000Y-59190000D02*
X91840000Y-59190000D01*
X86750000Y-46250000D02*
X90750000Y-46250000D01*
D30*
X74000000Y-62000000D02*
X81000000Y-62000000D01*
D29*
X74000000Y-33000000D02*
X68000000Y-39000000D01*
X93250000Y-37000000D02*
X93250000Y-45000000D01*
X97000000Y-26000000D02*
X81000000Y-26000000D01*
X82500000Y-63500000D02*
X82750000Y-63750000D01*
X82750000Y-66000000D02*
X82750000Y-66500000D01*
X59771000Y-65929000D02*
X41300000Y-84400000D01*
X68000000Y-39000000D02*
X68000000Y-43500000D01*
X98000000Y-30250000D02*
X98000000Y-27000000D01*
X85500000Y-45000000D02*
X86750000Y-46250000D01*
X89900000Y-61025000D02*
X91300000Y-61025000D01*
X93250000Y-45000000D02*
X99750000Y-45000000D01*
X81000000Y-26000000D02*
X74000000Y-33000000D01*
X89900000Y-59825000D02*
X89900000Y-61025000D01*
X82250000Y-45000000D02*
X85500000Y-45000000D01*
X93075000Y-61730000D02*
X91805000Y-61730000D01*
X91300000Y-59825000D02*
X91300000Y-61025000D01*
X87000000Y-33250000D02*
X86000000Y-33250000D01*
%TO.N,/VCC*%
X75151000Y-43636760D02*
X75500000Y-43985760D01*
X75151000Y-42683240D02*
X75151000Y-43636760D01*
X71375000Y-42750000D02*
X71375000Y-44306486D01*
X58620000Y-64540000D02*
X74000000Y-64540000D01*
X75500000Y-44684314D02*
X75551000Y-44735314D01*
X37459000Y-58461108D02*
X37459000Y-59538892D01*
X43000000Y-65079892D02*
X43000000Y-80160000D01*
X75551000Y-44735314D02*
X75551000Y-46689000D01*
X75151000Y-36691000D02*
X75151000Y-42683240D01*
X37459000Y-59538892D02*
X43000000Y-65079892D01*
X75551000Y-46689000D02*
X74000000Y-48240000D01*
X61654314Y-48240000D02*
X47680108Y-48240000D01*
X72116000Y-42009000D02*
X71375000Y-42750000D01*
X70381486Y-45300000D02*
X64594314Y-45300000D01*
X43000000Y-80160000D02*
X58620000Y-64540000D01*
X75500000Y-43985760D02*
X75500000Y-44684314D01*
X64594314Y-45300000D02*
X61654314Y-48240000D01*
X74476760Y-42009000D02*
X72116000Y-42009000D01*
X38760000Y-84400000D02*
X43000000Y-80160000D01*
X71375000Y-44306486D02*
X70381486Y-45300000D01*
X74000000Y-35540000D02*
X75151000Y-36691000D01*
X47680108Y-48240000D02*
X37459000Y-58461108D01*
X75151000Y-42683240D02*
X74476760Y-42009000D01*
%TO.N,/SCL1*%
X74000000Y-69620000D02*
X71320000Y-69620000D01*
X71320000Y-69620000D02*
X56540000Y-84400000D01*
%TO.N,/SDA1*%
X74000000Y-67080000D02*
X71320000Y-67080000D01*
X71320000Y-67080000D02*
X54000000Y-84400000D01*
%TO.N,/DC*%
X70200000Y-49500000D02*
X60960000Y-49500000D01*
X60960000Y-49500000D02*
X51460000Y-59000000D01*
X74000000Y-45700000D02*
X70200000Y-49500000D01*
%TO.N,/SDA2*%
X61620000Y-84380000D02*
X71615000Y-74385000D01*
X71615000Y-74385000D02*
X71635000Y-74385000D01*
X61620000Y-84400000D02*
X61620000Y-84380000D01*
%TO.N,/SCL2*%
X59080000Y-84400000D02*
X70865000Y-72615000D01*
%TO.N,/P1*%
X72250000Y-55750000D02*
X67410000Y-55750000D01*
X78649002Y-46101000D02*
X78151000Y-46599002D01*
X87000000Y-28750000D02*
X95000000Y-28750000D01*
X87000000Y-28750000D02*
X80000000Y-35750000D01*
X80000000Y-35750000D02*
X80000000Y-44750002D01*
X67410000Y-55750000D02*
X64160000Y-59000000D01*
X78151000Y-49849000D02*
X72250000Y-55750000D01*
X78751000Y-46101000D02*
X78649002Y-46101000D01*
X80000000Y-44750002D02*
X78751000Y-45999002D01*
X78751000Y-45999002D02*
X78751000Y-46101000D01*
X78151000Y-46599002D02*
X78151000Y-49849000D01*
%TO.N,/P2*%
X77750000Y-45000000D02*
X77750000Y-48750000D01*
X71500000Y-55000000D02*
X65620000Y-55000000D01*
X65620000Y-55000000D02*
X61620000Y-59000000D01*
X77750000Y-37000000D02*
X77750000Y-45000000D01*
X77750000Y-48750000D02*
X71500000Y-55000000D01*
%TO.N,Net-(U2-GPIO23)*%
X74320000Y-84400000D02*
X80000000Y-78720000D01*
%TO.N,/RES*%
X75151000Y-45223240D02*
X75151000Y-46176760D01*
X74000000Y-44072240D02*
X75151000Y-45223240D01*
X68000000Y-52500000D02*
X60500000Y-52500000D01*
X74000000Y-43160000D02*
X74000000Y-44072240D01*
X60500000Y-52500000D02*
X54000000Y-59000000D01*
X74238760Y-47089000D02*
X73411000Y-47089000D01*
X73411000Y-47089000D02*
X68000000Y-52500000D01*
X75151000Y-46176760D02*
X74238760Y-47089000D01*
%TO.N,/P3*%
X107808525Y-61308525D02*
X105411050Y-63706000D01*
X107808525Y-57941475D02*
X107808525Y-61308525D01*
X83046709Y-61271000D02*
X81513291Y-61271000D01*
X83597000Y-61821291D02*
X83046709Y-61271000D01*
X109000000Y-47250000D02*
X109000000Y-56750000D01*
X104250000Y-37000000D02*
X104250000Y-45000000D01*
X84549857Y-63534000D02*
X83597000Y-62581143D01*
X85534000Y-63534000D02*
X84549857Y-63534000D01*
X83597000Y-62581143D02*
X83597000Y-61821291D01*
X109000000Y-56750000D02*
X107808525Y-57941475D01*
X81513291Y-61271000D02*
X81091291Y-60849000D01*
X106750000Y-45000000D02*
X109000000Y-47250000D01*
X81091291Y-60849000D02*
X60929000Y-60849000D01*
X104250000Y-45000000D02*
X106750000Y-45000000D01*
X105411050Y-63706000D02*
X85706000Y-63706000D01*
X85706000Y-63706000D02*
X85534000Y-63534000D01*
X60929000Y-60849000D02*
X59080000Y-59000000D01*
%TO.N,/P4*%
X80500000Y-46250000D02*
X79450000Y-46250000D01*
X79450000Y-46250000D02*
X78552000Y-47148000D01*
X83251000Y-45633900D02*
X83251000Y-46101000D01*
X80649000Y-46101000D02*
X80500000Y-46250000D01*
X84250000Y-45500000D02*
X83384900Y-45500000D01*
X87000000Y-48750000D02*
X95000000Y-48750000D01*
X87000000Y-48750000D02*
X87000000Y-48250000D01*
X83251000Y-46101000D02*
X80649000Y-46101000D01*
X73000000Y-56500000D02*
X69200000Y-56500000D01*
X87000000Y-48250000D02*
X84250000Y-45500000D01*
X69200000Y-56500000D02*
X66700000Y-59000000D01*
X78552000Y-47148000D02*
X78552000Y-50948000D01*
X83384900Y-45500000D02*
X83251000Y-45633900D01*
X78552000Y-50948000D02*
X73000000Y-56500000D01*
%TO.N,/P5*%
X96000000Y-27000000D02*
X85648000Y-27000000D01*
X97000000Y-28000000D02*
X96000000Y-27000000D01*
X76000000Y-45381371D02*
X76000000Y-49000000D01*
X96125000Y-30875000D02*
X97000000Y-30000000D01*
X76000000Y-44618628D02*
X76050000Y-44668629D01*
X88750000Y-37000000D02*
X94875000Y-30875000D01*
X76050000Y-44668629D02*
X76050000Y-45331372D01*
X61540000Y-54000000D02*
X56540000Y-59000000D01*
X85648000Y-27000000D02*
X76000000Y-36648000D01*
X76050000Y-45331372D02*
X76000000Y-45381371D01*
X97000000Y-30000000D02*
X97000000Y-28000000D01*
X71000000Y-54000000D02*
X61540000Y-54000000D01*
X76000000Y-49000000D02*
X71000000Y-54000000D01*
X76000000Y-36648000D02*
X76000000Y-44618628D01*
X88750000Y-37000000D02*
X88750000Y-45000000D01*
X94875000Y-30875000D02*
X96125000Y-30875000D01*
%TO.N,Net-(U1-~{STDBY})*%
X86750000Y-59190000D02*
X85250000Y-60690000D01*
X103692100Y-53942100D02*
X103692100Y-52687900D01*
X85250000Y-62633000D02*
X85750000Y-63133000D01*
X85750000Y-63133000D02*
X94500000Y-63133000D01*
X85250000Y-60690000D02*
X85250000Y-62633000D01*
X103692100Y-52687900D02*
X107250000Y-49130000D01*
X88125000Y-59190000D02*
X86750000Y-59190000D01*
X103692100Y-53942100D02*
X95633600Y-62000600D01*
X94500000Y-63133000D02*
X95633000Y-62000000D01*
%TO.N,Net-(U1-~{CHRG})*%
X86500000Y-62732000D02*
X94335100Y-62732000D01*
X94335100Y-62732000D02*
X99815000Y-57252100D01*
X86250000Y-61360001D02*
X86250000Y-62500000D01*
X86268000Y-62500000D02*
X86500000Y-62732000D01*
X99815000Y-53315000D02*
X104000000Y-49130000D01*
X86250000Y-62500000D02*
X86268000Y-62500000D01*
X88125000Y-60460000D02*
X87150001Y-60460000D01*
X99815000Y-57252100D02*
X99815000Y-53315000D01*
X87150001Y-60460000D02*
X86250000Y-61360001D01*
%TO.N,Net-(U1-PROG)*%
X93075000Y-60460000D02*
X94290000Y-60460000D01*
X94290000Y-60460000D02*
X94500000Y-60250000D01*
%TO.N,/BAT+*%
X82750000Y-48750000D02*
X82500000Y-48500000D01*
D30*
X88125000Y-57920000D02*
X82750000Y-52545000D01*
X82750000Y-52545000D02*
X82750000Y-48750000D01*
%TO.N,/CE*%
X77250000Y-59000000D02*
X74320000Y-59000000D01*
D29*
X95101000Y-61320968D02*
X94090968Y-62331000D01*
D30*
X86597000Y-50749000D02*
X87811075Y-50749000D01*
D29*
X95101000Y-58351000D02*
X95101000Y-61320968D01*
D30*
X80375000Y-55875000D02*
X77250000Y-59000000D01*
X84299000Y-47049000D02*
X84299000Y-48451000D01*
D29*
X104710000Y-80000000D02*
X104710000Y-79250000D01*
X95000000Y-58250000D02*
X95101000Y-58351000D01*
X94670000Y-57920000D02*
X93075000Y-57920000D01*
X94090968Y-62331000D02*
X88726000Y-62331000D01*
X88726000Y-62331000D02*
X88125000Y-61730000D01*
D30*
X84299000Y-48451000D02*
X86597000Y-50749000D01*
D29*
X95000000Y-58250000D02*
X94670000Y-57920000D01*
D30*
X80375000Y-55875000D02*
X80375000Y-48126708D01*
D29*
X104460000Y-72750000D02*
X104460000Y-79000000D01*
D30*
X93075000Y-56012925D02*
X93075000Y-57920000D01*
X80375000Y-48126708D02*
X81452708Y-47049000D01*
D29*
X82750000Y-81000000D02*
X82801000Y-81051000D01*
X104460000Y-79000000D02*
X104710000Y-79250000D01*
D30*
X87811075Y-50749000D02*
X93075000Y-56012925D01*
X81452708Y-47049000D02*
X84299000Y-47049000D01*
D29*
X93075000Y-57920000D02*
X93075000Y-56225057D01*
X103659000Y-81051000D02*
X104710000Y-80000000D01*
X82801000Y-81051000D02*
X103659000Y-81051000D01*
%TD*%
%TA.AperFunction,Conductor*%
%TO.N,GND*%
G36*
X109152532Y-57549214D02*
G01*
X109208466Y-57591085D01*
X109232883Y-57656550D01*
X109233199Y-57665313D01*
X109249498Y-81997252D01*
X109249380Y-82002744D01*
X109232614Y-82386750D01*
X109231671Y-82397526D01*
X109181849Y-82775957D01*
X109179971Y-82786610D01*
X109097354Y-83159272D01*
X109094554Y-83169721D01*
X108979775Y-83533755D01*
X108976075Y-83543921D01*
X108830002Y-83896572D01*
X108825430Y-83906376D01*
X108649183Y-84244942D01*
X108643775Y-84254310D01*
X108438681Y-84576244D01*
X108432476Y-84585105D01*
X108222876Y-84858262D01*
X108166448Y-84899465D01*
X108096702Y-84903620D01*
X108035782Y-84869408D01*
X108003029Y-84807691D01*
X108000500Y-84782776D01*
X108000500Y-83131902D01*
X107963553Y-82898631D01*
X107900889Y-82705774D01*
X107890568Y-82674008D01*
X107890566Y-82674005D01*
X107890566Y-82674003D01*
X107811499Y-82518826D01*
X107783343Y-82463567D01*
X107644517Y-82272490D01*
X107477510Y-82105483D01*
X107286433Y-81966657D01*
X107075996Y-81859433D01*
X106851368Y-81786446D01*
X106618097Y-81749500D01*
X106618092Y-81749500D01*
X106381908Y-81749500D01*
X106381903Y-81749500D01*
X106148631Y-81786446D01*
X105924003Y-81859433D01*
X105713566Y-81966657D01*
X105604550Y-82045862D01*
X105522490Y-82105483D01*
X105522488Y-82105485D01*
X105522487Y-82105485D01*
X105355485Y-82272487D01*
X105355485Y-82272488D01*
X105355483Y-82272490D01*
X105343750Y-82288639D01*
X105216657Y-82463566D01*
X105109433Y-82674003D01*
X105036446Y-82898631D01*
X104999500Y-83131902D01*
X104999500Y-84868097D01*
X105036446Y-85101368D01*
X105109433Y-85325996D01*
X105199796Y-85503342D01*
X105216657Y-85536433D01*
X105355483Y-85727510D01*
X105522490Y-85894517D01*
X105713567Y-86033343D01*
X105886547Y-86121480D01*
X105894610Y-86125589D01*
X105945406Y-86173564D01*
X105962201Y-86241385D01*
X105939664Y-86307520D01*
X105884949Y-86350971D01*
X105865153Y-86357135D01*
X105536610Y-86429971D01*
X105525957Y-86431849D01*
X105147526Y-86481671D01*
X105136750Y-86482614D01*
X104752703Y-86499382D01*
X104747294Y-86499500D01*
X75877719Y-86499500D01*
X75810680Y-86479815D01*
X75764925Y-86427011D01*
X75753721Y-86374762D01*
X75753892Y-86346183D01*
X75762893Y-84833855D01*
X75768959Y-84796281D01*
X75783553Y-84751368D01*
X75808026Y-84596853D01*
X75820500Y-84518097D01*
X75820500Y-84281902D01*
X75795868Y-84126390D01*
X75783553Y-84048632D01*
X75774040Y-84019356D01*
X75773605Y-84016554D01*
X75772789Y-84015267D01*
X75767974Y-83980303D01*
X75768742Y-83851114D01*
X75779503Y-83815258D01*
X80529500Y-83815258D01*
X80529500Y-84044741D01*
X80550356Y-84203147D01*
X80559452Y-84272238D01*
X80611676Y-84467143D01*
X80618842Y-84493887D01*
X80706650Y-84705876D01*
X80706657Y-84705890D01*
X80821392Y-84904617D01*
X80961081Y-85086661D01*
X80961089Y-85086670D01*
X81123330Y-85248911D01*
X81123338Y-85248918D01*
X81305382Y-85388607D01*
X81305385Y-85388608D01*
X81305388Y-85388611D01*
X81504112Y-85503344D01*
X81504117Y-85503346D01*
X81504123Y-85503349D01*
X81595480Y-85541190D01*
X81716113Y-85591158D01*
X81937762Y-85650548D01*
X82165266Y-85680500D01*
X82165273Y-85680500D01*
X82394727Y-85680500D01*
X82394734Y-85680500D01*
X82622238Y-85650548D01*
X82843887Y-85591158D01*
X83055888Y-85503344D01*
X83254612Y-85388611D01*
X83436661Y-85248919D01*
X83436665Y-85248914D01*
X83436670Y-85248911D01*
X83598911Y-85086670D01*
X83598914Y-85086665D01*
X83598919Y-85086661D01*
X83738611Y-84904612D01*
X83853344Y-84705888D01*
X83941158Y-84493887D01*
X84000548Y-84272238D01*
X84030500Y-84044734D01*
X84030500Y-83815266D01*
X84000548Y-83587762D01*
X83941158Y-83366113D01*
X83891190Y-83245480D01*
X83853349Y-83154123D01*
X83853346Y-83154117D01*
X83853344Y-83154112D01*
X83738611Y-82955388D01*
X83738608Y-82955385D01*
X83738607Y-82955382D01*
X83598918Y-82773338D01*
X83598911Y-82773330D01*
X83531355Y-82705774D01*
X83497870Y-82644451D01*
X83502854Y-82574759D01*
X83544726Y-82518826D01*
X83606435Y-82494735D01*
X83626055Y-82492730D01*
X83652797Y-82489999D01*
X83819334Y-82434814D01*
X83968656Y-82342712D01*
X84092712Y-82218656D01*
X84184814Y-82069334D01*
X84239999Y-81902797D01*
X84250500Y-81800009D01*
X84250500Y-81775500D01*
X84270185Y-81708461D01*
X84322989Y-81662706D01*
X84374500Y-81651500D01*
X100815600Y-81651500D01*
X100882639Y-81671185D01*
X100928394Y-81723989D01*
X100938338Y-81793147D01*
X100909313Y-81856703D01*
X100871895Y-81885985D01*
X100713566Y-81966657D01*
X100604550Y-82045862D01*
X100522490Y-82105483D01*
X100522488Y-82105485D01*
X100522487Y-82105485D01*
X100355485Y-82272487D01*
X100355485Y-82272488D01*
X100355483Y-82272490D01*
X100343750Y-82288639D01*
X100216657Y-82463566D01*
X100109433Y-82674003D01*
X100036446Y-82898631D01*
X99999500Y-83131902D01*
X99999500Y-84868097D01*
X100036446Y-85101368D01*
X100109433Y-85325996D01*
X100199796Y-85503342D01*
X100216657Y-85536433D01*
X100355483Y-85727510D01*
X100522490Y-85894517D01*
X100713567Y-86033343D01*
X100812991Y-86084002D01*
X100924003Y-86140566D01*
X100924005Y-86140566D01*
X100924008Y-86140568D01*
X101025559Y-86173564D01*
X101148631Y-86213553D01*
X101381903Y-86250500D01*
X101381908Y-86250500D01*
X101618097Y-86250500D01*
X101851368Y-86213553D01*
X101890208Y-86200933D01*
X102075992Y-86140568D01*
X102286433Y-86033343D01*
X102477510Y-85894517D01*
X102644517Y-85727510D01*
X102783343Y-85536433D01*
X102890568Y-85325992D01*
X102963553Y-85101368D01*
X102965882Y-85086661D01*
X103000500Y-84868097D01*
X103000500Y-83131902D01*
X102963553Y-82898631D01*
X102900889Y-82705774D01*
X102890568Y-82674008D01*
X102890566Y-82674005D01*
X102890566Y-82674003D01*
X102811499Y-82518826D01*
X102783343Y-82463567D01*
X102644517Y-82272490D01*
X102477510Y-82105483D01*
X102286433Y-81966657D01*
X102128104Y-81885984D01*
X102077309Y-81838010D01*
X102060514Y-81770189D01*
X102083051Y-81704055D01*
X102137766Y-81660603D01*
X102184400Y-81651500D01*
X103572331Y-81651500D01*
X103572347Y-81651501D01*
X103579943Y-81651501D01*
X103738054Y-81651501D01*
X103738057Y-81651501D01*
X103890785Y-81610577D01*
X103940904Y-81581639D01*
X104027716Y-81531520D01*
X104139520Y-81419716D01*
X104139520Y-81419714D01*
X104149728Y-81409507D01*
X104149730Y-81409504D01*
X104896904Y-80662329D01*
X104958225Y-80628846D01*
X104965142Y-80627546D01*
X105037951Y-80616015D01*
X105247606Y-80547895D01*
X105444022Y-80447815D01*
X105622365Y-80318242D01*
X105672536Y-80268070D01*
X105733857Y-80234586D01*
X105803548Y-80239570D01*
X105859482Y-80281441D01*
X105876398Y-80312419D01*
X105906202Y-80392328D01*
X105906206Y-80392335D01*
X105992452Y-80507544D01*
X105992455Y-80507547D01*
X106107664Y-80593793D01*
X106107671Y-80593797D01*
X106242517Y-80644091D01*
X106242516Y-80644091D01*
X106249444Y-80644835D01*
X106302127Y-80650500D01*
X108197872Y-80650499D01*
X108257483Y-80644091D01*
X108392331Y-80593796D01*
X108507546Y-80507546D01*
X108593796Y-80392331D01*
X108644091Y-80257483D01*
X108650500Y-80197873D01*
X108650499Y-78302128D01*
X108644091Y-78242517D01*
X108631855Y-78209711D01*
X108593797Y-78107671D01*
X108593793Y-78107664D01*
X108507547Y-77992455D01*
X108507544Y-77992452D01*
X108392335Y-77906206D01*
X108392328Y-77906202D01*
X108257482Y-77855908D01*
X108257483Y-77855908D01*
X108197883Y-77849501D01*
X108197881Y-77849500D01*
X108197873Y-77849500D01*
X108197864Y-77849500D01*
X106302129Y-77849500D01*
X106302123Y-77849501D01*
X106242516Y-77855908D01*
X106107671Y-77906202D01*
X106107664Y-77906206D01*
X105992455Y-77992452D01*
X105992452Y-77992455D01*
X105906206Y-78107664D01*
X105906203Y-78107669D01*
X105876398Y-78187581D01*
X105834526Y-78243514D01*
X105769062Y-78267931D01*
X105700789Y-78253079D01*
X105672535Y-78231928D01*
X105622363Y-78181756D01*
X105622358Y-78181752D01*
X105444025Y-78052187D01*
X105444024Y-78052186D01*
X105444022Y-78052185D01*
X105326791Y-77992452D01*
X105247603Y-77952103D01*
X105146182Y-77919150D01*
X105088507Y-77879713D01*
X105061308Y-77815354D01*
X105060500Y-77801219D01*
X105060500Y-74091835D01*
X105080185Y-74024796D01*
X105128206Y-73981350D01*
X105128547Y-73981175D01*
X105194022Y-73947815D01*
X105372365Y-73818242D01*
X105422536Y-73768070D01*
X105483857Y-73734586D01*
X105553548Y-73739570D01*
X105609482Y-73781441D01*
X105626398Y-73812419D01*
X105656202Y-73892328D01*
X105656206Y-73892335D01*
X105742452Y-74007544D01*
X105742455Y-74007547D01*
X105857664Y-74093793D01*
X105857671Y-74093797D01*
X105992517Y-74144091D01*
X105992516Y-74144091D01*
X105999444Y-74144835D01*
X106052127Y-74150500D01*
X107947872Y-74150499D01*
X108007483Y-74144091D01*
X108142331Y-74093796D01*
X108257546Y-74007546D01*
X108343796Y-73892331D01*
X108394091Y-73757483D01*
X108400500Y-73697873D01*
X108400499Y-71802128D01*
X108394091Y-71742517D01*
X108373601Y-71687581D01*
X108343797Y-71607671D01*
X108343793Y-71607664D01*
X108257547Y-71492455D01*
X108257544Y-71492452D01*
X108142335Y-71406206D01*
X108142328Y-71406202D01*
X108007482Y-71355908D01*
X108007483Y-71355908D01*
X107947883Y-71349501D01*
X107947881Y-71349500D01*
X107947873Y-71349500D01*
X107947864Y-71349500D01*
X106052129Y-71349500D01*
X106052123Y-71349501D01*
X105992516Y-71355908D01*
X105857671Y-71406202D01*
X105857664Y-71406206D01*
X105742455Y-71492452D01*
X105742452Y-71492455D01*
X105656206Y-71607664D01*
X105656203Y-71607669D01*
X105626398Y-71687581D01*
X105584526Y-71743514D01*
X105519062Y-71767931D01*
X105450789Y-71753079D01*
X105422535Y-71731928D01*
X105372363Y-71681756D01*
X105372358Y-71681752D01*
X105194025Y-71552187D01*
X105194024Y-71552186D01*
X105194022Y-71552185D01*
X105076791Y-71492452D01*
X104997606Y-71452104D01*
X104997603Y-71452103D01*
X104787952Y-71383985D01*
X104679086Y-71366742D01*
X104570222Y-71349500D01*
X104349778Y-71349500D01*
X104277201Y-71360995D01*
X104132047Y-71383985D01*
X103922396Y-71452103D01*
X103922393Y-71452104D01*
X103725974Y-71552187D01*
X103547641Y-71681752D01*
X103547636Y-71681756D01*
X103391756Y-71837636D01*
X103391752Y-71837641D01*
X103262187Y-72015974D01*
X103162104Y-72212393D01*
X103162103Y-72212396D01*
X103093985Y-72422047D01*
X103059500Y-72639778D01*
X103059500Y-72860221D01*
X103093985Y-73077952D01*
X103162103Y-73287603D01*
X103162104Y-73287606D01*
X103262187Y-73484025D01*
X103391752Y-73662358D01*
X103391756Y-73662363D01*
X103547636Y-73818243D01*
X103547641Y-73818247D01*
X103725976Y-73947814D01*
X103791794Y-73981350D01*
X103842591Y-74029324D01*
X103859500Y-74091835D01*
X103859500Y-78073629D01*
X103839815Y-78140668D01*
X103808388Y-78173945D01*
X103797638Y-78181755D01*
X103797632Y-78181760D01*
X103641756Y-78337636D01*
X103641752Y-78337641D01*
X103512187Y-78515974D01*
X103412104Y-78712393D01*
X103412103Y-78712396D01*
X103343985Y-78922047D01*
X103309500Y-79139778D01*
X103309500Y-79360221D01*
X103343985Y-79577952D01*
X103412103Y-79787603D01*
X103412104Y-79787606D01*
X103480122Y-79921096D01*
X103484999Y-79930668D01*
X103512187Y-79984025D01*
X103603343Y-80109492D01*
X103614797Y-80141593D01*
X103626709Y-80173531D01*
X103626513Y-80174430D01*
X103626823Y-80175298D01*
X103619100Y-80208504D01*
X103611857Y-80241803D01*
X103611131Y-80242771D01*
X103610997Y-80243352D01*
X103590707Y-80270058D01*
X103446582Y-80414182D01*
X103385262Y-80447666D01*
X103358903Y-80450500D01*
X84374499Y-80450500D01*
X84307460Y-80430815D01*
X84261705Y-80378011D01*
X84250499Y-80326500D01*
X84250499Y-80199998D01*
X84250498Y-80199981D01*
X84239999Y-80097203D01*
X84239998Y-80097200D01*
X84202494Y-79984022D01*
X84184814Y-79930666D01*
X84092712Y-79781344D01*
X83968656Y-79657288D01*
X83840031Y-79577952D01*
X83819336Y-79565187D01*
X83819331Y-79565185D01*
X83787309Y-79554574D01*
X83652797Y-79510001D01*
X83652795Y-79510000D01*
X83550010Y-79499500D01*
X81949998Y-79499500D01*
X81949981Y-79499501D01*
X81847203Y-79510000D01*
X81847200Y-79510001D01*
X81680668Y-79565185D01*
X81680663Y-79565187D01*
X81531342Y-79657289D01*
X81407289Y-79781342D01*
X81315187Y-79930663D01*
X81315185Y-79930668D01*
X81287349Y-80014670D01*
X81260001Y-80097203D01*
X81260001Y-80097204D01*
X81260000Y-80097204D01*
X81249500Y-80199983D01*
X81249500Y-81800001D01*
X81249501Y-81800018D01*
X81260000Y-81902796D01*
X81260001Y-81902799D01*
X81315185Y-82069331D01*
X81315187Y-82069336D01*
X81407289Y-82218657D01*
X81415948Y-82227316D01*
X81449433Y-82288639D01*
X81444449Y-82358331D01*
X81402577Y-82414264D01*
X81390272Y-82422381D01*
X81368738Y-82434814D01*
X81305379Y-82471394D01*
X81123338Y-82611081D01*
X80961081Y-82773338D01*
X80821392Y-82955382D01*
X80706657Y-83154109D01*
X80706650Y-83154123D01*
X80618842Y-83366112D01*
X80559453Y-83587759D01*
X80559451Y-83587770D01*
X80529500Y-83815258D01*
X75779503Y-83815258D01*
X75788825Y-83784197D01*
X75805054Y-83764179D01*
X80014662Y-79554572D01*
X80075983Y-79521089D01*
X80078150Y-79520638D01*
X80136085Y-79509113D01*
X80233497Y-79489737D01*
X80379179Y-79429394D01*
X80510289Y-79341789D01*
X80621789Y-79230289D01*
X80709394Y-79099179D01*
X80769737Y-78953497D01*
X80800500Y-78798842D01*
X80800500Y-78641158D01*
X80800500Y-78641155D01*
X80800499Y-78641153D01*
X80769738Y-78486510D01*
X80769738Y-78486508D01*
X80769737Y-78486503D01*
X80748699Y-78435713D01*
X80709397Y-78340827D01*
X80709390Y-78340814D01*
X80621789Y-78209711D01*
X80621786Y-78209707D01*
X80510292Y-78098213D01*
X80510288Y-78098210D01*
X80379185Y-78010609D01*
X80379172Y-78010602D01*
X80233501Y-77950264D01*
X80233489Y-77950261D01*
X80078845Y-77919500D01*
X80078842Y-77919500D01*
X79921158Y-77919500D01*
X79921155Y-77919500D01*
X79766510Y-77950261D01*
X79766498Y-77950264D01*
X79620827Y-78010602D01*
X79620814Y-78010609D01*
X79489711Y-78098210D01*
X79489707Y-78098213D01*
X79378213Y-78209707D01*
X79378210Y-78209711D01*
X79290609Y-78340814D01*
X79290602Y-78340827D01*
X79230264Y-78486498D01*
X79230261Y-78486508D01*
X79199361Y-78641850D01*
X79166976Y-78703761D01*
X79165425Y-78705339D01*
X75992692Y-81878072D01*
X75931369Y-81911557D01*
X75861677Y-81906573D01*
X75805744Y-81864701D01*
X75781327Y-81799237D01*
X75781013Y-81789653D01*
X75789806Y-80312419D01*
X75901352Y-61572761D01*
X75921435Y-61505841D01*
X75974511Y-61460401D01*
X76025350Y-61449500D01*
X80791194Y-61449500D01*
X80820634Y-61458144D01*
X80850621Y-61464668D01*
X80855636Y-61468422D01*
X80858233Y-61469185D01*
X80878875Y-61485819D01*
X81028430Y-61635374D01*
X81028440Y-61635385D01*
X81032770Y-61639715D01*
X81032771Y-61639716D01*
X81144575Y-61751520D01*
X81209571Y-61789045D01*
X81281506Y-61830577D01*
X81434234Y-61871500D01*
X81592348Y-61871500D01*
X81876349Y-61871500D01*
X81943388Y-61891185D01*
X81989143Y-61943989D01*
X81999087Y-62013147D01*
X81970062Y-62076703D01*
X81928151Y-62106920D01*
X81928541Y-62107684D01*
X81713830Y-62217084D01*
X81630894Y-62277340D01*
X82370591Y-63017037D01*
X82307007Y-63034075D01*
X82192993Y-63099901D01*
X82099901Y-63192993D01*
X82034075Y-63307007D01*
X82017037Y-63370590D01*
X81277340Y-62630894D01*
X81217084Y-62713830D01*
X81109897Y-62924197D01*
X81036934Y-63148752D01*
X81000000Y-63381947D01*
X81000000Y-63618052D01*
X81036934Y-63851247D01*
X81109897Y-64075802D01*
X81217087Y-64286174D01*
X81277338Y-64369104D01*
X81277340Y-64369105D01*
X82017037Y-63629408D01*
X82034075Y-63692993D01*
X82099901Y-63807007D01*
X82192993Y-63900099D01*
X82307007Y-63965925D01*
X82370591Y-63982962D01*
X81630894Y-64722658D01*
X81683760Y-64761069D01*
X81686510Y-64758320D01*
X81747832Y-64724834D01*
X81817524Y-64729818D01*
X81861873Y-64758319D01*
X82620591Y-65517037D01*
X82557007Y-65534075D01*
X82442993Y-65599901D01*
X82349901Y-65692993D01*
X82284075Y-65807007D01*
X82267037Y-65870591D01*
X81527340Y-65130894D01*
X81467084Y-65213830D01*
X81359897Y-65424197D01*
X81286934Y-65648752D01*
X81250000Y-65881947D01*
X81250000Y-66118052D01*
X81286934Y-66351247D01*
X81359897Y-66575802D01*
X81467087Y-66786174D01*
X81527338Y-66869104D01*
X81527340Y-66869105D01*
X82267037Y-66129408D01*
X82284075Y-66192993D01*
X82349901Y-66307007D01*
X82442993Y-66400099D01*
X82557007Y-66465925D01*
X82620590Y-66482962D01*
X81880893Y-67222658D01*
X81963828Y-67282914D01*
X82174197Y-67390102D01*
X82398752Y-67463065D01*
X82398751Y-67463065D01*
X82631948Y-67500000D01*
X82868052Y-67500000D01*
X83101247Y-67463065D01*
X83325802Y-67390102D01*
X83536163Y-67282918D01*
X83536169Y-67282914D01*
X83619104Y-67222658D01*
X83619105Y-67222658D01*
X82879408Y-66482962D01*
X82942993Y-66465925D01*
X83057007Y-66400099D01*
X83150099Y-66307007D01*
X83215925Y-66192993D01*
X83232962Y-66129408D01*
X83972658Y-66869105D01*
X83972658Y-66869104D01*
X84032914Y-66786169D01*
X84032918Y-66786163D01*
X84072907Y-66707682D01*
X103950000Y-66707682D01*
X103950000Y-66912317D01*
X103982009Y-67114417D01*
X104045244Y-67309031D01*
X104138141Y-67491350D01*
X104138147Y-67491359D01*
X104170523Y-67535921D01*
X104170524Y-67535922D01*
X104850000Y-66856446D01*
X104850000Y-66862661D01*
X104877259Y-66964394D01*
X104929920Y-67055606D01*
X105004394Y-67130080D01*
X105095606Y-67182741D01*
X105197339Y-67210000D01*
X105203553Y-67210000D01*
X104524076Y-67889474D01*
X104568650Y-67921859D01*
X104750968Y-68014755D01*
X104945582Y-68077990D01*
X105147683Y-68110000D01*
X105352317Y-68110000D01*
X105554417Y-68077990D01*
X105749031Y-68014755D01*
X105931349Y-67921859D01*
X105975921Y-67889474D01*
X105296447Y-67210000D01*
X105302661Y-67210000D01*
X105404394Y-67182741D01*
X105495606Y-67130080D01*
X105570080Y-67055606D01*
X105622741Y-66964394D01*
X105650000Y-66862661D01*
X105650000Y-66856447D01*
X106329474Y-67535921D01*
X106361859Y-67491349D01*
X106454755Y-67309031D01*
X106517990Y-67114417D01*
X106550000Y-66912317D01*
X106550000Y-66707682D01*
X106517990Y-66505582D01*
X106454755Y-66310968D01*
X106361859Y-66128650D01*
X106329474Y-66084077D01*
X106329474Y-66084076D01*
X105650000Y-66763551D01*
X105650000Y-66757339D01*
X105622741Y-66655606D01*
X105570080Y-66564394D01*
X105495606Y-66489920D01*
X105404394Y-66437259D01*
X105302661Y-66410000D01*
X105296446Y-66410000D01*
X105975922Y-65730524D01*
X105975921Y-65730523D01*
X105931359Y-65698147D01*
X105931350Y-65698141D01*
X105749031Y-65605244D01*
X105554417Y-65542009D01*
X105352317Y-65510000D01*
X105147683Y-65510000D01*
X104945582Y-65542009D01*
X104750968Y-65605244D01*
X104568644Y-65698143D01*
X104524077Y-65730523D01*
X104524077Y-65730524D01*
X105203554Y-66410000D01*
X105197339Y-66410000D01*
X105095606Y-66437259D01*
X105004394Y-66489920D01*
X104929920Y-66564394D01*
X104877259Y-66655606D01*
X104850000Y-66757339D01*
X104850000Y-66763553D01*
X104170524Y-66084077D01*
X104170523Y-66084077D01*
X104138143Y-66128644D01*
X104045244Y-66310968D01*
X103982009Y-66505582D01*
X103950000Y-66707682D01*
X84072907Y-66707682D01*
X84104070Y-66646521D01*
X84140102Y-66575802D01*
X84213065Y-66351247D01*
X84250000Y-66118052D01*
X84250000Y-65881948D01*
X84236574Y-65797181D01*
X84213065Y-65648751D01*
X84140102Y-65424197D01*
X84032914Y-65213828D01*
X83972658Y-65130894D01*
X83972658Y-65130893D01*
X83232962Y-65870590D01*
X83215925Y-65807007D01*
X83150099Y-65692993D01*
X83057007Y-65599901D01*
X82942993Y-65534075D01*
X82879409Y-65517037D01*
X83619105Y-64777341D01*
X83619104Y-64777340D01*
X83566237Y-64738928D01*
X83566236Y-64738929D01*
X83563487Y-64741679D01*
X83502164Y-64775164D01*
X83432472Y-64770180D01*
X83388125Y-64741679D01*
X82629408Y-63982962D01*
X82692993Y-63965925D01*
X82807007Y-63900099D01*
X82900099Y-63807007D01*
X82965925Y-63692993D01*
X82982962Y-63629408D01*
X83722658Y-64369105D01*
X83722658Y-64369104D01*
X83782914Y-64286169D01*
X83782918Y-64286163D01*
X83890103Y-64075800D01*
X83913975Y-64002331D01*
X83930467Y-63978210D01*
X83944576Y-63952617D01*
X83949958Y-63949705D01*
X83953412Y-63944655D01*
X83980329Y-63933279D01*
X84006033Y-63919377D01*
X84012134Y-63919837D01*
X84017770Y-63917456D01*
X84046563Y-63922438D01*
X84075704Y-63924640D01*
X84081718Y-63928522D01*
X84086617Y-63929370D01*
X84106613Y-63941679D01*
X84113494Y-63946873D01*
X84181141Y-64014520D01*
X84267952Y-64064639D01*
X84274566Y-64068457D01*
X84274569Y-64068460D01*
X84318070Y-64093576D01*
X84318072Y-64093577D01*
X84470799Y-64134500D01*
X84470800Y-64134500D01*
X85233902Y-64134500D01*
X85300941Y-64154185D01*
X85321583Y-64170819D01*
X85337284Y-64186520D01*
X85337286Y-64186521D01*
X85337290Y-64186524D01*
X85474209Y-64265573D01*
X85474212Y-64265575D01*
X85474216Y-64265577D01*
X85626943Y-64306501D01*
X85626945Y-64306501D01*
X85792654Y-64306501D01*
X85792670Y-64306500D01*
X105324381Y-64306500D01*
X105324397Y-64306501D01*
X105331993Y-64306501D01*
X105490104Y-64306501D01*
X105490107Y-64306501D01*
X105642835Y-64265577D01*
X105715269Y-64223757D01*
X105779766Y-64186520D01*
X105891570Y-64074716D01*
X105891570Y-64074714D01*
X105901774Y-64064511D01*
X105901777Y-64064506D01*
X108289045Y-61677241D01*
X108368102Y-61540309D01*
X108409026Y-61387582D01*
X108409026Y-61229467D01*
X108409026Y-61221872D01*
X108409025Y-61221854D01*
X108409025Y-58241571D01*
X108428710Y-58174532D01*
X108445340Y-58153894D01*
X109021520Y-57577713D01*
X109082841Y-57544230D01*
X109152532Y-57549214D01*
G37*
%TD.AperFunction*%
%TA.AperFunction,Conductor*%
G36*
X84149464Y-49371879D02*
G01*
X84181787Y-49395155D01*
X86118586Y-51331954D01*
X86148058Y-51351645D01*
X86192270Y-51381186D01*
X86241505Y-51414084D01*
X86241506Y-51414084D01*
X86241507Y-51414085D01*
X86241509Y-51414086D01*
X86378082Y-51470656D01*
X86378087Y-51470658D01*
X86378091Y-51470658D01*
X86378092Y-51470659D01*
X86523079Y-51499500D01*
X86523082Y-51499500D01*
X86523083Y-51499500D01*
X86670918Y-51499500D01*
X87448845Y-51499500D01*
X87515884Y-51519185D01*
X87536526Y-51535819D01*
X87839026Y-51838319D01*
X87872511Y-51899642D01*
X87867527Y-51969334D01*
X87825655Y-52025267D01*
X87760191Y-52049684D01*
X87751345Y-52050000D01*
X87250000Y-52050000D01*
X87250000Y-53000000D01*
X88300000Y-53000000D01*
X88300000Y-52598654D01*
X88319685Y-52531615D01*
X88372489Y-52485860D01*
X88441647Y-52475916D01*
X88505203Y-52504941D01*
X88511669Y-52510962D01*
X89998535Y-53997827D01*
X92288181Y-56287473D01*
X92321666Y-56348796D01*
X92324500Y-56375154D01*
X92324500Y-56995500D01*
X92304815Y-57062539D01*
X92252011Y-57108294D01*
X92200500Y-57119500D01*
X92184298Y-57119500D01*
X92147432Y-57122401D01*
X92147426Y-57122402D01*
X91989606Y-57168254D01*
X91989603Y-57168255D01*
X91848137Y-57251917D01*
X91848129Y-57251923D01*
X91731923Y-57368129D01*
X91731919Y-57368135D01*
X91648255Y-57509603D01*
X91648254Y-57509606D01*
X91602402Y-57667426D01*
X91602401Y-57667432D01*
X91599500Y-57704298D01*
X91599500Y-57768786D01*
X91579815Y-57835825D01*
X91527011Y-57881580D01*
X91457853Y-57891524D01*
X91451309Y-57890403D01*
X91373873Y-57875000D01*
X91226128Y-57875000D01*
X91081240Y-57903820D01*
X91081228Y-57903823D01*
X90975974Y-57947420D01*
X90975974Y-57947421D01*
X91476777Y-58448223D01*
X92011350Y-58982796D01*
X92044835Y-59044119D01*
X92039851Y-59113811D01*
X92011350Y-59158158D01*
X91944508Y-59225000D01*
X92011350Y-59291842D01*
X92044835Y-59353165D01*
X92039851Y-59422857D01*
X92011350Y-59467204D01*
X91653554Y-59825000D01*
X91665679Y-59837125D01*
X91699164Y-59898448D01*
X91694180Y-59968140D01*
X91684731Y-59987926D01*
X91648254Y-60049605D01*
X91648254Y-60049606D01*
X91600634Y-60213515D01*
X91599143Y-60213082D01*
X91571217Y-60268553D01*
X91511047Y-60304067D01*
X91441227Y-60301413D01*
X91392976Y-60271530D01*
X91300000Y-60178554D01*
X91053554Y-60425000D01*
X91300000Y-60671446D01*
X91387819Y-60583627D01*
X91449142Y-60550142D01*
X91518834Y-60555126D01*
X91574767Y-60596998D01*
X91599184Y-60662462D01*
X91599500Y-60671308D01*
X91599500Y-60675701D01*
X91602401Y-60712567D01*
X91602402Y-60712573D01*
X91648254Y-60870393D01*
X91648254Y-60870394D01*
X91648255Y-60870396D01*
X91648256Y-60870398D01*
X91658715Y-60888084D01*
X91658717Y-60888086D01*
X91665719Y-60915685D01*
X91675668Y-60942359D01*
X91674199Y-60949110D01*
X91675899Y-60955810D01*
X91666868Y-60982810D01*
X91660817Y-61010632D01*
X91654937Y-61018486D01*
X91653738Y-61022072D01*
X91639666Y-61038887D01*
X91476778Y-61201777D01*
X91476775Y-61201778D01*
X90984371Y-61694181D01*
X90923048Y-61727666D01*
X90896690Y-61730500D01*
X90303308Y-61730500D01*
X90236269Y-61710815D01*
X90215627Y-61694181D01*
X89560334Y-61038888D01*
X89536458Y-60995163D01*
X89750000Y-60995163D01*
X89750000Y-61054837D01*
X89772836Y-61109968D01*
X89815032Y-61152164D01*
X89870163Y-61175000D01*
X89929837Y-61175000D01*
X89984968Y-61152164D01*
X90027164Y-61109968D01*
X90050000Y-61054837D01*
X90050000Y-61024999D01*
X90253554Y-61024999D01*
X90253554Y-61025001D01*
X90577929Y-61349376D01*
X90622069Y-61349376D01*
X90946446Y-61025000D01*
X90916609Y-60995163D01*
X91150000Y-60995163D01*
X91150000Y-61054837D01*
X91172836Y-61109968D01*
X91215032Y-61152164D01*
X91270163Y-61175000D01*
X91329837Y-61175000D01*
X91384968Y-61152164D01*
X91427164Y-61109968D01*
X91450000Y-61054837D01*
X91450000Y-60995163D01*
X91427164Y-60940032D01*
X91384968Y-60897836D01*
X91329837Y-60875000D01*
X91270163Y-60875000D01*
X91215032Y-60897836D01*
X91172836Y-60940032D01*
X91150000Y-60995163D01*
X90916609Y-60995163D01*
X90622068Y-60700622D01*
X90577930Y-60700622D01*
X90253554Y-61024999D01*
X90050000Y-61024999D01*
X90050000Y-60995163D01*
X90027164Y-60940032D01*
X89984968Y-60897836D01*
X89929837Y-60875000D01*
X89870163Y-60875000D01*
X89815032Y-60897836D01*
X89772836Y-60940032D01*
X89750000Y-60995163D01*
X89536458Y-60995163D01*
X89526849Y-60977565D01*
X89531833Y-60907873D01*
X89541283Y-60888086D01*
X89551744Y-60870398D01*
X89597598Y-60712569D01*
X89600500Y-60675694D01*
X89600500Y-60671308D01*
X89620185Y-60604269D01*
X89672989Y-60558514D01*
X89742147Y-60548570D01*
X89805703Y-60577595D01*
X89812181Y-60583627D01*
X89900000Y-60671446D01*
X90146446Y-60425000D01*
X89900000Y-60178554D01*
X89807023Y-60271531D01*
X89745700Y-60305015D01*
X89676008Y-60300031D01*
X89620075Y-60258159D01*
X89600448Y-60213200D01*
X89599366Y-60213515D01*
X89551745Y-60049606D01*
X89551744Y-60049603D01*
X89551744Y-60049602D01*
X89515268Y-59987925D01*
X89498086Y-59920204D01*
X89503917Y-59886963D01*
X89530123Y-59805188D01*
X89524649Y-59795163D01*
X89750000Y-59795163D01*
X89750000Y-59854837D01*
X89772836Y-59909968D01*
X89815032Y-59952164D01*
X89870163Y-59975000D01*
X89929837Y-59975000D01*
X89984968Y-59952164D01*
X90027164Y-59909968D01*
X90050000Y-59854837D01*
X90050000Y-59824999D01*
X90253554Y-59824999D01*
X90253554Y-59825001D01*
X90577929Y-60149376D01*
X90622069Y-60149376D01*
X90946446Y-59825000D01*
X90916609Y-59795163D01*
X91150000Y-59795163D01*
X91150000Y-59854837D01*
X91172836Y-59909968D01*
X91215032Y-59952164D01*
X91270163Y-59975000D01*
X91329837Y-59975000D01*
X91384968Y-59952164D01*
X91427164Y-59909968D01*
X91450000Y-59854837D01*
X91450000Y-59795163D01*
X91427164Y-59740032D01*
X91384968Y-59697836D01*
X91329837Y-59675000D01*
X91270163Y-59675000D01*
X91215032Y-59697836D01*
X91172836Y-59740032D01*
X91150000Y-59795163D01*
X90916609Y-59795163D01*
X90622068Y-59500622D01*
X90577930Y-59500622D01*
X90253554Y-59824999D01*
X90050000Y-59824999D01*
X90050000Y-59795163D01*
X90027164Y-59740032D01*
X89984968Y-59697836D01*
X89929837Y-59675000D01*
X89870163Y-59675000D01*
X89815032Y-59697836D01*
X89772836Y-59740032D01*
X89750000Y-59795163D01*
X89524649Y-59795163D01*
X89500835Y-59751551D01*
X89505819Y-59681859D01*
X89515266Y-59662078D01*
X89551744Y-59600398D01*
X89588105Y-59475245D01*
X89599366Y-59436485D01*
X89600860Y-59436919D01*
X89628762Y-59381467D01*
X89688925Y-59345939D01*
X89758744Y-59348577D01*
X89807023Y-59378469D01*
X89900000Y-59471446D01*
X90146446Y-59225000D01*
X91053554Y-59225000D01*
X91300000Y-59471446D01*
X91546446Y-59225000D01*
X91300000Y-58978554D01*
X91053554Y-59225000D01*
X90146446Y-59225000D01*
X89900000Y-58978554D01*
X89812181Y-59066373D01*
X89750858Y-59099858D01*
X89681166Y-59094874D01*
X89625233Y-59053002D01*
X89600816Y-58987538D01*
X89600500Y-58978692D01*
X89600500Y-58974313D01*
X89600499Y-58974298D01*
X89597598Y-58937432D01*
X89597597Y-58937426D01*
X89563836Y-58821224D01*
X89551744Y-58779602D01*
X89541282Y-58761912D01*
X89534279Y-58734314D01*
X89524330Y-58707637D01*
X89525798Y-58700887D01*
X89524099Y-58694191D01*
X89533129Y-58667186D01*
X89539182Y-58639364D01*
X89545059Y-58631513D01*
X89546258Y-58627928D01*
X89560333Y-58611110D01*
X89576280Y-58595163D01*
X89750000Y-58595163D01*
X89750000Y-58654837D01*
X89772836Y-58709968D01*
X89815032Y-58752164D01*
X89870163Y-58775000D01*
X89929837Y-58775000D01*
X89984968Y-58752164D01*
X90027164Y-58709968D01*
X90050000Y-58654837D01*
X90050000Y-58624999D01*
X90253554Y-58624999D01*
X90253554Y-58625001D01*
X90577929Y-58949376D01*
X90622069Y-58949376D01*
X90946446Y-58625000D01*
X90916609Y-58595163D01*
X91150000Y-58595163D01*
X91150000Y-58654837D01*
X91172836Y-58709968D01*
X91215032Y-58752164D01*
X91270163Y-58775000D01*
X91329837Y-58775000D01*
X91384968Y-58752164D01*
X91427164Y-58709968D01*
X91450000Y-58654837D01*
X91450000Y-58595163D01*
X91427164Y-58540032D01*
X91384968Y-58497836D01*
X91329837Y-58475000D01*
X91270163Y-58475000D01*
X91215032Y-58497836D01*
X91172836Y-58540032D01*
X91150000Y-58595163D01*
X90916609Y-58595163D01*
X90622068Y-58300622D01*
X90577930Y-58300622D01*
X90253554Y-58624999D01*
X90050000Y-58624999D01*
X90050000Y-58595163D01*
X90027164Y-58540032D01*
X89984968Y-58497836D01*
X89929837Y-58475000D01*
X89870163Y-58475000D01*
X89815032Y-58497836D01*
X89772836Y-58540032D01*
X89750000Y-58595163D01*
X89576280Y-58595163D01*
X89685489Y-58485956D01*
X89685491Y-58485954D01*
X89723223Y-58448223D01*
X90224024Y-57947421D01*
X90118767Y-57903822D01*
X90118759Y-57903820D01*
X89973872Y-57875000D01*
X89826126Y-57875000D01*
X89748691Y-57890403D01*
X89679100Y-57884176D01*
X89623922Y-57841313D01*
X89600678Y-57775423D01*
X89600500Y-57768786D01*
X89600500Y-57704313D01*
X89600499Y-57704298D01*
X89600471Y-57703947D01*
X89597598Y-57667431D01*
X89586203Y-57628211D01*
X89551745Y-57509606D01*
X89551744Y-57509603D01*
X89551744Y-57509602D01*
X89468081Y-57368135D01*
X89468080Y-57368134D01*
X89468076Y-57368129D01*
X89351870Y-57251923D01*
X89351862Y-57251917D01*
X89210396Y-57168255D01*
X89210393Y-57168254D01*
X89052573Y-57122402D01*
X89052567Y-57122401D01*
X89015701Y-57119500D01*
X89015694Y-57119500D01*
X88437230Y-57119500D01*
X88370191Y-57099815D01*
X88349549Y-57083181D01*
X85885407Y-54619039D01*
X85851922Y-54557716D01*
X85856906Y-54488024D01*
X85898778Y-54432091D01*
X85964242Y-54407674D01*
X86016421Y-54415176D01*
X86092620Y-54443596D01*
X86092627Y-54443598D01*
X86152155Y-54449999D01*
X86152172Y-54450000D01*
X86750000Y-54450000D01*
X87250000Y-54450000D01*
X87847828Y-54450000D01*
X87847844Y-54449999D01*
X87907372Y-54443598D01*
X87907379Y-54443596D01*
X88042086Y-54393354D01*
X88042093Y-54393350D01*
X88157187Y-54307190D01*
X88157190Y-54307187D01*
X88243350Y-54192093D01*
X88243354Y-54192086D01*
X88293596Y-54057379D01*
X88293598Y-54057372D01*
X88299999Y-53997844D01*
X88300000Y-53997827D01*
X88300000Y-53500000D01*
X87250000Y-53500000D01*
X87250000Y-54450000D01*
X86750000Y-54450000D01*
X86750000Y-53500000D01*
X85700000Y-53500000D01*
X85700000Y-53997844D01*
X85706401Y-54057372D01*
X85706403Y-54057380D01*
X85734823Y-54133578D01*
X85739807Y-54203270D01*
X85706322Y-54264593D01*
X85644998Y-54298077D01*
X85575307Y-54293092D01*
X85530960Y-54264592D01*
X83768523Y-52502155D01*
X85700000Y-52502155D01*
X85700000Y-53000000D01*
X86750000Y-53000000D01*
X86750000Y-52050000D01*
X86152155Y-52050000D01*
X86092627Y-52056401D01*
X86092620Y-52056403D01*
X85957913Y-52106645D01*
X85957906Y-52106649D01*
X85842812Y-52192809D01*
X85842809Y-52192812D01*
X85756649Y-52307906D01*
X85756645Y-52307913D01*
X85706403Y-52442620D01*
X85706401Y-52442627D01*
X85700000Y-52502155D01*
X83768523Y-52502155D01*
X83536819Y-52270451D01*
X83503334Y-52209128D01*
X83500500Y-52182770D01*
X83500500Y-50045908D01*
X83520185Y-49978869D01*
X83564271Y-49940363D01*
X83563187Y-49938605D01*
X83569332Y-49934814D01*
X83569334Y-49934814D01*
X83718656Y-49842712D01*
X83842712Y-49718656D01*
X83934814Y-49569334D01*
X83976401Y-49443830D01*
X84016172Y-49386388D01*
X84080688Y-49359564D01*
X84149464Y-49371879D01*
G37*
%TD.AperFunction*%
%TA.AperFunction,Conductor*%
G36*
X104648577Y-24500501D02*
G01*
X104711763Y-24500500D01*
X104717172Y-24500618D01*
X105101243Y-24517383D01*
X105111976Y-24518323D01*
X105490448Y-24568148D01*
X105501067Y-24570020D01*
X105873766Y-24652642D01*
X105884180Y-24655433D01*
X106167101Y-24744636D01*
X106248236Y-24770218D01*
X106258401Y-24773918D01*
X106371342Y-24820698D01*
X106611055Y-24919989D01*
X106620835Y-24924549D01*
X106959428Y-25100807D01*
X106968793Y-25106214D01*
X107290741Y-25311315D01*
X107299580Y-25317505D01*
X107461799Y-25441979D01*
X107602410Y-25549873D01*
X107610697Y-25556826D01*
X107610716Y-25556843D01*
X107892136Y-25814715D01*
X107899774Y-25822354D01*
X108118340Y-26060876D01*
X108157649Y-26103774D01*
X108164602Y-26112060D01*
X108396973Y-26414889D01*
X108403178Y-26423751D01*
X108586361Y-26711290D01*
X108608265Y-26745671D01*
X108613674Y-26755039D01*
X108789926Y-27093616D01*
X108794498Y-27103420D01*
X108940572Y-27456070D01*
X108944272Y-27466235D01*
X109059053Y-27830273D01*
X109061853Y-27840722D01*
X109144471Y-28213387D01*
X109146349Y-28224041D01*
X109196171Y-28602471D01*
X109197114Y-28613247D01*
X109213848Y-28996518D01*
X109213966Y-29001785D01*
X109213966Y-29065892D01*
X109214039Y-29066167D01*
X109214049Y-29074489D01*
X109214045Y-29074499D01*
X109214049Y-29074548D01*
X109225605Y-46326924D01*
X109205965Y-46393977D01*
X109153192Y-46439767D01*
X109084040Y-46449757D01*
X109020465Y-46420774D01*
X109013924Y-46414688D01*
X107237590Y-44638355D01*
X107237588Y-44638352D01*
X107118717Y-44519481D01*
X107118716Y-44519480D01*
X107026570Y-44466280D01*
X106981785Y-44440423D01*
X106829057Y-44399499D01*
X106670943Y-44399499D01*
X106663347Y-44399499D01*
X106663331Y-44399500D01*
X105574499Y-44399500D01*
X105507460Y-44379815D01*
X105461705Y-44327011D01*
X105450499Y-44275500D01*
X105450499Y-44152129D01*
X105450498Y-44152123D01*
X105450497Y-44152116D01*
X105444091Y-44092517D01*
X105436971Y-44073428D01*
X105393797Y-43957671D01*
X105393793Y-43957664D01*
X105307547Y-43842455D01*
X105307544Y-43842452D01*
X105192335Y-43756206D01*
X105192328Y-43756202D01*
X105057482Y-43705908D01*
X105057483Y-43705908D01*
X104997883Y-43699501D01*
X104997881Y-43699500D01*
X104997873Y-43699500D01*
X104997865Y-43699500D01*
X104974500Y-43699500D01*
X104907461Y-43679815D01*
X104861706Y-43627011D01*
X104850500Y-43575500D01*
X104850500Y-38424499D01*
X104870185Y-38357460D01*
X104922989Y-38311705D01*
X104974500Y-38300499D01*
X104997871Y-38300499D01*
X104997872Y-38300499D01*
X105057483Y-38294091D01*
X105192331Y-38243796D01*
X105307546Y-38157546D01*
X105393796Y-38042331D01*
X105444091Y-37907483D01*
X105450500Y-37847873D01*
X105450499Y-36152128D01*
X105444091Y-36092517D01*
X105440264Y-36082257D01*
X105393797Y-35957671D01*
X105393793Y-35957664D01*
X105307547Y-35842455D01*
X105307544Y-35842452D01*
X105192335Y-35756206D01*
X105192328Y-35756202D01*
X105057482Y-35705908D01*
X105057483Y-35705908D01*
X104997883Y-35699501D01*
X104997881Y-35699500D01*
X104997873Y-35699500D01*
X104997864Y-35699500D01*
X103502129Y-35699500D01*
X103502123Y-35699501D01*
X103442516Y-35705908D01*
X103307671Y-35756202D01*
X103307664Y-35756206D01*
X103192455Y-35842452D01*
X103192452Y-35842455D01*
X103106206Y-35957664D01*
X103106202Y-35957671D01*
X103055908Y-36092517D01*
X103053783Y-36112287D01*
X103049501Y-36152123D01*
X103049500Y-36152135D01*
X103049500Y-37847870D01*
X103049501Y-37847876D01*
X103055908Y-37907483D01*
X103106202Y-38042328D01*
X103106206Y-38042335D01*
X103192452Y-38157544D01*
X103192455Y-38157547D01*
X103307664Y-38243793D01*
X103307671Y-38243797D01*
X103344950Y-38257701D01*
X103442517Y-38294091D01*
X103502127Y-38300500D01*
X103525497Y-38300499D01*
X103592536Y-38320181D01*
X103638292Y-38372983D01*
X103649500Y-38424499D01*
X103649500Y-43575500D01*
X103629815Y-43642539D01*
X103577011Y-43688294D01*
X103525505Y-43699500D01*
X103502132Y-43699500D01*
X103502123Y-43699501D01*
X103442516Y-43705908D01*
X103307671Y-43756202D01*
X103307664Y-43756206D01*
X103192455Y-43842452D01*
X103192452Y-43842455D01*
X103106206Y-43957664D01*
X103106202Y-43957671D01*
X103055908Y-44092517D01*
X103049501Y-44152116D01*
X103049501Y-44152123D01*
X103049500Y-44152135D01*
X103049500Y-45847870D01*
X103049501Y-45847876D01*
X103055908Y-45907483D01*
X103106202Y-46042328D01*
X103106206Y-46042335D01*
X103192452Y-46157544D01*
X103192455Y-46157547D01*
X103307664Y-46243793D01*
X103307671Y-46243797D01*
X103442517Y-46294091D01*
X103442516Y-46294091D01*
X103449444Y-46294835D01*
X103502127Y-46300500D01*
X104997872Y-46300499D01*
X105057483Y-46294091D01*
X105192331Y-46243796D01*
X105307546Y-46157546D01*
X105393796Y-46042331D01*
X105444091Y-45907483D01*
X105450500Y-45847873D01*
X105450500Y-45724500D01*
X105470185Y-45657461D01*
X105522989Y-45611706D01*
X105574500Y-45600500D01*
X106449903Y-45600500D01*
X106516942Y-45620185D01*
X106537584Y-45636819D01*
X108363181Y-47462416D01*
X108396666Y-47523739D01*
X108399500Y-47550097D01*
X108399500Y-48140953D01*
X108379815Y-48207992D01*
X108327011Y-48253747D01*
X108257853Y-48263691D01*
X108194297Y-48234666D01*
X108187819Y-48228634D01*
X108097213Y-48138028D01*
X107931613Y-48017715D01*
X107931612Y-48017714D01*
X107931610Y-48017713D01*
X107874653Y-47988691D01*
X107749223Y-47924781D01*
X107554534Y-47861522D01*
X107379995Y-47833878D01*
X107352352Y-47829500D01*
X107147648Y-47829500D01*
X107123329Y-47833351D01*
X106945465Y-47861522D01*
X106750776Y-47924781D01*
X106568386Y-48017715D01*
X106402786Y-48138028D01*
X106258028Y-48282786D01*
X106137715Y-48448386D01*
X106044781Y-48630776D01*
X105981522Y-48825465D01*
X105949500Y-49027648D01*
X105949500Y-49232351D01*
X105981522Y-49434534D01*
X105986173Y-49448848D01*
X105988165Y-49518690D01*
X105955921Y-49574842D01*
X103323386Y-52207378D01*
X103211581Y-52319182D01*
X103211579Y-52319185D01*
X103161461Y-52405994D01*
X103161459Y-52405996D01*
X103132525Y-52456109D01*
X103132524Y-52456110D01*
X103132523Y-52456115D01*
X103091599Y-52608843D01*
X103091599Y-52608845D01*
X103091599Y-52776946D01*
X103091600Y-52776959D01*
X103091600Y-53642003D01*
X103071915Y-53709042D01*
X103055281Y-53729684D01*
X100627181Y-56157784D01*
X100565858Y-56191269D01*
X100496166Y-56186285D01*
X100440233Y-56144413D01*
X100415816Y-56078949D01*
X100415500Y-56070103D01*
X100415500Y-53615097D01*
X100435185Y-53548058D01*
X100451819Y-53527416D01*
X101989998Y-51989237D01*
X103555159Y-50424075D01*
X103616480Y-50390592D01*
X103681154Y-50393826D01*
X103695466Y-50398477D01*
X103897648Y-50430500D01*
X103897649Y-50430500D01*
X104102351Y-50430500D01*
X104102352Y-50430500D01*
X104304534Y-50398477D01*
X104499219Y-50335220D01*
X104681610Y-50242287D01*
X104843733Y-50124499D01*
X104847213Y-50121971D01*
X104847215Y-50121968D01*
X104847219Y-50121966D01*
X104991966Y-49977219D01*
X104991968Y-49977215D01*
X104991971Y-49977213D01*
X105074789Y-49863222D01*
X105112287Y-49811610D01*
X105205220Y-49629219D01*
X105268477Y-49434534D01*
X105300500Y-49232352D01*
X105300500Y-49027648D01*
X105268477Y-48825466D01*
X105264746Y-48813984D01*
X105215122Y-48661256D01*
X105205220Y-48630781D01*
X105205218Y-48630778D01*
X105205218Y-48630776D01*
X105164194Y-48550264D01*
X105112287Y-48448390D01*
X105104556Y-48437749D01*
X104991971Y-48282786D01*
X104847213Y-48138028D01*
X104681613Y-48017715D01*
X104681612Y-48017714D01*
X104681610Y-48017713D01*
X104624653Y-47988691D01*
X104499223Y-47924781D01*
X104304534Y-47861522D01*
X104129995Y-47833878D01*
X104102352Y-47829500D01*
X103897648Y-47829500D01*
X103873329Y-47833351D01*
X103695465Y-47861522D01*
X103500776Y-47924781D01*
X103318386Y-48017715D01*
X103152786Y-48138028D01*
X103008028Y-48282786D01*
X102887715Y-48448386D01*
X102794781Y-48630776D01*
X102731522Y-48825465D01*
X102699500Y-49027648D01*
X102699500Y-49232351D01*
X102731523Y-49434535D01*
X102736172Y-49448845D01*
X102738165Y-49518687D01*
X102705921Y-49574841D01*
X99446286Y-52834478D01*
X99334481Y-52946282D01*
X99334475Y-52946290D01*
X99289948Y-53023415D01*
X99289948Y-53023416D01*
X99255423Y-53083215D01*
X99214499Y-53235943D01*
X99214499Y-53235945D01*
X99214499Y-53404046D01*
X99214500Y-53404059D01*
X99214500Y-56952003D01*
X99194815Y-57019042D01*
X99178181Y-57039684D01*
X95913181Y-60304684D01*
X95851858Y-60338169D01*
X95782166Y-60333185D01*
X95726233Y-60291313D01*
X95701816Y-60225849D01*
X95701500Y-60217003D01*
X95701500Y-58672902D01*
X95710939Y-58625450D01*
X95747838Y-58536366D01*
X95769737Y-58483497D01*
X95800500Y-58328842D01*
X95800500Y-58171158D01*
X95800500Y-58171155D01*
X95800499Y-58171153D01*
X95781913Y-58077715D01*
X95769737Y-58016503D01*
X95769735Y-58016498D01*
X95709397Y-57870827D01*
X95709390Y-57870814D01*
X95621789Y-57739711D01*
X95621786Y-57739707D01*
X95510292Y-57628213D01*
X95510288Y-57628210D01*
X95379185Y-57540609D01*
X95379172Y-57540602D01*
X95233501Y-57480264D01*
X95233489Y-57480261D01*
X95078846Y-57449500D01*
X95078042Y-57449421D01*
X95077381Y-57449208D01*
X95072868Y-57448311D01*
X95072971Y-57447791D01*
X95067981Y-57446188D01*
X95060960Y-57446523D01*
X95028194Y-57433405D01*
X94915142Y-57368135D01*
X94915140Y-57368134D01*
X94915131Y-57368129D01*
X94901785Y-57360423D01*
X94749057Y-57319499D01*
X94590943Y-57319499D01*
X94583347Y-57319499D01*
X94583331Y-57319500D01*
X94420808Y-57319500D01*
X94353769Y-57299815D01*
X94333126Y-57283180D01*
X94301870Y-57251923D01*
X94301862Y-57251917D01*
X94160396Y-57168255D01*
X94160393Y-57168254D01*
X94002573Y-57122402D01*
X94002567Y-57122401D01*
X93965701Y-57119500D01*
X93965694Y-57119500D01*
X93949500Y-57119500D01*
X93882461Y-57099815D01*
X93836706Y-57047011D01*
X93825500Y-56995500D01*
X93825500Y-55939004D01*
X93796659Y-55794017D01*
X93796658Y-55794016D01*
X93796658Y-55794012D01*
X93782965Y-55760953D01*
X93740087Y-55657436D01*
X93740080Y-55657423D01*
X93657952Y-55534510D01*
X93636212Y-55512770D01*
X93553416Y-55429974D01*
X92611466Y-54488024D01*
X92121287Y-53997844D01*
X93700000Y-53997844D01*
X93706401Y-54057372D01*
X93706403Y-54057379D01*
X93756645Y-54192086D01*
X93756649Y-54192093D01*
X93842809Y-54307187D01*
X93842812Y-54307190D01*
X93957906Y-54393350D01*
X93957913Y-54393354D01*
X94092620Y-54443596D01*
X94092627Y-54443598D01*
X94152155Y-54449999D01*
X94152172Y-54450000D01*
X94750000Y-54450000D01*
X95250000Y-54450000D01*
X95847828Y-54450000D01*
X95847844Y-54449999D01*
X95907372Y-54443598D01*
X95907379Y-54443596D01*
X96042086Y-54393354D01*
X96042093Y-54393350D01*
X96157187Y-54307190D01*
X96157190Y-54307187D01*
X96243350Y-54192093D01*
X96243354Y-54192086D01*
X96293596Y-54057379D01*
X96293598Y-54057372D01*
X96299999Y-53997844D01*
X96300000Y-53997827D01*
X96300000Y-53500000D01*
X95250000Y-53500000D01*
X95250000Y-54450000D01*
X94750000Y-54450000D01*
X94750000Y-53500000D01*
X93700000Y-53500000D01*
X93700000Y-53997844D01*
X92121287Y-53997844D01*
X91659762Y-53536319D01*
X90709975Y-52586532D01*
X90625598Y-52502155D01*
X93700000Y-52502155D01*
X93700000Y-53000000D01*
X94750000Y-53000000D01*
X95250000Y-53000000D01*
X96300000Y-53000000D01*
X96300000Y-52502172D01*
X96299999Y-52502155D01*
X96293598Y-52442627D01*
X96293596Y-52442620D01*
X96243354Y-52307913D01*
X96243350Y-52307906D01*
X96157190Y-52192812D01*
X96157187Y-52192809D01*
X96042093Y-52106649D01*
X96042086Y-52106645D01*
X95907379Y-52056403D01*
X95907372Y-52056401D01*
X95847844Y-52050000D01*
X95250000Y-52050000D01*
X95250000Y-53000000D01*
X94750000Y-53000000D01*
X94750000Y-52050000D01*
X94152155Y-52050000D01*
X94092627Y-52056401D01*
X94092620Y-52056403D01*
X93957913Y-52106645D01*
X93957906Y-52106649D01*
X93842812Y-52192809D01*
X93842809Y-52192812D01*
X93756649Y-52307906D01*
X93756645Y-52307913D01*
X93706403Y-52442620D01*
X93706401Y-52442627D01*
X93700000Y-52502155D01*
X90625598Y-52502155D01*
X88289496Y-50166052D01*
X88289495Y-50166051D01*
X88219147Y-50119047D01*
X88191391Y-50100501D01*
X88191391Y-50100500D01*
X88166570Y-50083916D01*
X88166565Y-50083913D01*
X88124266Y-50066393D01*
X88069862Y-50022553D01*
X88047797Y-49956259D01*
X88065076Y-49888559D01*
X88097404Y-49852568D01*
X88157546Y-49807546D01*
X88243796Y-49692331D01*
X88294091Y-49557483D01*
X88300500Y-49497873D01*
X88300500Y-49474500D01*
X88320185Y-49407461D01*
X88372989Y-49361706D01*
X88424500Y-49350500D01*
X93575501Y-49350500D01*
X93642540Y-49370185D01*
X93688295Y-49422989D01*
X93699501Y-49474500D01*
X93699501Y-49497876D01*
X93705908Y-49557483D01*
X93756202Y-49692328D01*
X93756206Y-49692335D01*
X93842452Y-49807544D01*
X93842455Y-49807547D01*
X93957664Y-49893793D01*
X93957671Y-49893797D01*
X94092517Y-49944091D01*
X94092516Y-49944091D01*
X94099444Y-49944835D01*
X94152127Y-49950500D01*
X95847872Y-49950499D01*
X95907483Y-49944091D01*
X96042331Y-49893796D01*
X96157546Y-49807546D01*
X96243796Y-49692331D01*
X96294091Y-49557483D01*
X96300500Y-49497873D01*
X96300499Y-48002128D01*
X96294091Y-47942517D01*
X96294090Y-47942515D01*
X96243797Y-47807671D01*
X96243793Y-47807664D01*
X96157547Y-47692455D01*
X96157544Y-47692452D01*
X96042335Y-47606206D01*
X96042328Y-47606202D01*
X95907482Y-47555908D01*
X95907483Y-47555908D01*
X95847883Y-47549501D01*
X95847881Y-47549500D01*
X95847873Y-47549500D01*
X95847864Y-47549500D01*
X94152129Y-47549500D01*
X94152123Y-47549501D01*
X94092516Y-47555908D01*
X93957671Y-47606202D01*
X93957664Y-47606206D01*
X93842455Y-47692452D01*
X93842452Y-47692455D01*
X93756206Y-47807664D01*
X93756202Y-47807671D01*
X93705908Y-47942517D01*
X93699593Y-48001264D01*
X93699501Y-48002123D01*
X93699500Y-48002135D01*
X93699500Y-48025500D01*
X93679815Y-48092539D01*
X93627011Y-48138294D01*
X93575500Y-48149500D01*
X88424499Y-48149500D01*
X88357460Y-48129815D01*
X88311705Y-48077011D01*
X88300499Y-48025500D01*
X88300499Y-48002129D01*
X88300498Y-48002123D01*
X88300497Y-48002116D01*
X88294091Y-47942517D01*
X88294090Y-47942515D01*
X88243797Y-47807671D01*
X88243793Y-47807664D01*
X88157547Y-47692455D01*
X88157544Y-47692452D01*
X88042335Y-47606206D01*
X88042328Y-47606202D01*
X87907482Y-47555908D01*
X87907483Y-47555908D01*
X87847883Y-47549501D01*
X87847881Y-47549500D01*
X87847873Y-47549500D01*
X87847865Y-47549500D01*
X87200097Y-47549500D01*
X87133058Y-47529815D01*
X87112416Y-47513181D01*
X84737590Y-45138355D01*
X84737588Y-45138352D01*
X84618717Y-45019481D01*
X84618709Y-45019475D01*
X84520303Y-44962661D01*
X84520301Y-44962660D01*
X84481790Y-44940425D01*
X84481789Y-44940424D01*
X84469263Y-44937067D01*
X84329057Y-44899499D01*
X84170943Y-44899499D01*
X84163347Y-44899499D01*
X84163331Y-44899500D01*
X83574000Y-44899500D01*
X83506961Y-44879815D01*
X83461206Y-44827011D01*
X83450000Y-44775500D01*
X83450000Y-44152172D01*
X83449999Y-44152155D01*
X83443598Y-44092627D01*
X83443596Y-44092620D01*
X83393354Y-43957913D01*
X83393350Y-43957906D01*
X83307190Y-43842812D01*
X83307187Y-43842809D01*
X83192093Y-43756649D01*
X83192086Y-43756645D01*
X83057379Y-43706403D01*
X83057372Y-43706401D01*
X82997844Y-43700000D01*
X82500000Y-43700000D01*
X82500000Y-44876000D01*
X82480315Y-44943039D01*
X82427511Y-44988794D01*
X82376000Y-45000000D01*
X82250000Y-45000000D01*
X82250000Y-45126000D01*
X82230315Y-45193039D01*
X82177511Y-45238794D01*
X82126000Y-45250000D01*
X81050000Y-45250000D01*
X81050000Y-45376500D01*
X81047449Y-45385185D01*
X81048738Y-45394147D01*
X81037759Y-45418187D01*
X81030315Y-45443539D01*
X81023474Y-45449466D01*
X81019713Y-45457703D01*
X80997478Y-45471992D01*
X80977511Y-45489294D01*
X80966996Y-45491581D01*
X80960935Y-45495477D01*
X80926000Y-45500500D01*
X80735669Y-45500500D01*
X80735653Y-45500499D01*
X80728057Y-45500499D01*
X80569943Y-45500499D01*
X80429736Y-45538067D01*
X80417211Y-45541424D01*
X80382550Y-45561436D01*
X80314649Y-45577909D01*
X80248623Y-45555056D01*
X80205432Y-45500135D01*
X80198791Y-45430581D01*
X80230807Y-45368479D01*
X80232826Y-45366411D01*
X80480520Y-45118718D01*
X80559577Y-44981786D01*
X80600501Y-44829059D01*
X80600501Y-44670944D01*
X80600501Y-44663349D01*
X80600500Y-44663331D01*
X80600500Y-44152155D01*
X81050000Y-44152155D01*
X81050000Y-44750000D01*
X82000000Y-44750000D01*
X82000000Y-43700000D01*
X81502155Y-43700000D01*
X81442627Y-43706401D01*
X81442620Y-43706403D01*
X81307913Y-43756645D01*
X81307906Y-43756649D01*
X81192812Y-43842809D01*
X81192809Y-43842812D01*
X81106649Y-43957906D01*
X81106645Y-43957913D01*
X81056403Y-44092620D01*
X81056401Y-44092627D01*
X81050000Y-44152155D01*
X80600500Y-44152155D01*
X80600500Y-37847844D01*
X81050000Y-37847844D01*
X81056401Y-37907372D01*
X81056403Y-37907379D01*
X81106645Y-38042086D01*
X81106649Y-38042093D01*
X81192809Y-38157187D01*
X81192812Y-38157190D01*
X81307906Y-38243350D01*
X81307913Y-38243354D01*
X81442620Y-38293596D01*
X81442627Y-38293598D01*
X81502155Y-38299999D01*
X81502172Y-38300000D01*
X82000000Y-38300000D01*
X82500000Y-38300000D01*
X82997828Y-38300000D01*
X82997844Y-38299999D01*
X83057372Y-38293598D01*
X83057379Y-38293596D01*
X83192086Y-38243354D01*
X83192093Y-38243350D01*
X83307187Y-38157190D01*
X83307190Y-38157187D01*
X83393350Y-38042093D01*
X83393354Y-38042086D01*
X83443596Y-37907379D01*
X83443598Y-37907372D01*
X83449999Y-37847844D01*
X83450000Y-37847827D01*
X83450000Y-37250000D01*
X82500000Y-37250000D01*
X82500000Y-38300000D01*
X82000000Y-38300000D01*
X82000000Y-37250000D01*
X81050000Y-37250000D01*
X81050000Y-37847844D01*
X80600500Y-37847844D01*
X80600500Y-36152155D01*
X81050000Y-36152155D01*
X81050000Y-36750000D01*
X82000000Y-36750000D01*
X82500000Y-36750000D01*
X83450000Y-36750000D01*
X83450000Y-36152172D01*
X83449999Y-36152155D01*
X83443598Y-36092627D01*
X83443596Y-36092620D01*
X83393354Y-35957913D01*
X83393350Y-35957906D01*
X83307190Y-35842812D01*
X83307187Y-35842809D01*
X83192093Y-35756649D01*
X83192086Y-35756645D01*
X83057379Y-35706403D01*
X83057372Y-35706401D01*
X82997844Y-35700000D01*
X82500000Y-35700000D01*
X82500000Y-36750000D01*
X82000000Y-36750000D01*
X82000000Y-35700000D01*
X81502155Y-35700000D01*
X81442627Y-35706401D01*
X81442620Y-35706403D01*
X81307913Y-35756645D01*
X81307906Y-35756649D01*
X81192812Y-35842809D01*
X81192809Y-35842812D01*
X81106649Y-35957906D01*
X81106645Y-35957913D01*
X81056403Y-36092620D01*
X81056401Y-36092627D01*
X81050000Y-36152155D01*
X80600500Y-36152155D01*
X80600500Y-36050096D01*
X80620185Y-35983057D01*
X80636814Y-35962420D01*
X82601389Y-33997844D01*
X85700000Y-33997844D01*
X85706401Y-34057372D01*
X85706403Y-34057379D01*
X85756645Y-34192086D01*
X85756649Y-34192093D01*
X85842809Y-34307187D01*
X85842812Y-34307190D01*
X85957906Y-34393350D01*
X85957913Y-34393354D01*
X86092620Y-34443596D01*
X86092627Y-34443598D01*
X86152155Y-34449999D01*
X86152172Y-34450000D01*
X86750000Y-34450000D01*
X87250000Y-34450000D01*
X87847828Y-34450000D01*
X87847844Y-34449999D01*
X87907372Y-34443598D01*
X87907379Y-34443596D01*
X88042086Y-34393354D01*
X88042093Y-34393350D01*
X88157187Y-34307190D01*
X88157190Y-34307187D01*
X88243350Y-34192093D01*
X88243354Y-34192086D01*
X88293596Y-34057379D01*
X88293598Y-34057372D01*
X88299999Y-33997844D01*
X88300000Y-33997827D01*
X88300000Y-33500000D01*
X87250000Y-33500000D01*
X87250000Y-34450000D01*
X86750000Y-34450000D01*
X86750000Y-33500000D01*
X85700000Y-33500000D01*
X85700000Y-33997844D01*
X82601389Y-33997844D01*
X84097078Y-32502155D01*
X85700000Y-32502155D01*
X85700000Y-33000000D01*
X86750000Y-33000000D01*
X87250000Y-33000000D01*
X88300000Y-33000000D01*
X88300000Y-32502172D01*
X88299999Y-32502155D01*
X88293598Y-32442627D01*
X88293596Y-32442620D01*
X88243354Y-32307913D01*
X88243350Y-32307906D01*
X88157190Y-32192812D01*
X88157187Y-32192809D01*
X88042093Y-32106649D01*
X88042086Y-32106645D01*
X87907379Y-32056403D01*
X87907372Y-32056401D01*
X87847844Y-32050000D01*
X87250000Y-32050000D01*
X87250000Y-33000000D01*
X86750000Y-33000000D01*
X86750000Y-32050000D01*
X86152155Y-32050000D01*
X86092627Y-32056401D01*
X86092620Y-32056403D01*
X85957913Y-32106645D01*
X85957906Y-32106649D01*
X85842812Y-32192809D01*
X85842809Y-32192812D01*
X85756649Y-32307906D01*
X85756645Y-32307913D01*
X85706403Y-32442620D01*
X85706401Y-32442627D01*
X85700000Y-32502155D01*
X84097078Y-32502155D01*
X86612416Y-29986817D01*
X86673739Y-29953333D01*
X86700097Y-29950499D01*
X87847871Y-29950499D01*
X87847872Y-29950499D01*
X87907483Y-29944091D01*
X88042331Y-29893796D01*
X88157546Y-29807546D01*
X88243796Y-29692331D01*
X88294091Y-29557483D01*
X88300500Y-29497873D01*
X88300500Y-29474500D01*
X88320185Y-29407461D01*
X88372989Y-29361706D01*
X88424500Y-29350500D01*
X93575501Y-29350500D01*
X93642540Y-29370185D01*
X93688295Y-29422989D01*
X93699501Y-29474500D01*
X93699501Y-29497876D01*
X93705908Y-29557483D01*
X93756202Y-29692328D01*
X93756206Y-29692335D01*
X93842452Y-29807544D01*
X93842455Y-29807547D01*
X93957664Y-29893793D01*
X93957671Y-29893797D01*
X94092517Y-29944091D01*
X94092516Y-29944091D01*
X94099444Y-29944835D01*
X94152127Y-29950500D01*
X95847872Y-29950499D01*
X95893237Y-29945622D01*
X95961995Y-29958028D01*
X96013132Y-30005639D01*
X96030411Y-30073338D01*
X96008346Y-30139632D01*
X95994172Y-30156593D01*
X95912582Y-30238182D01*
X95851262Y-30271666D01*
X95824903Y-30274500D01*
X94954057Y-30274500D01*
X94795943Y-30274500D01*
X94643215Y-30315423D01*
X94643214Y-30315423D01*
X94643212Y-30315424D01*
X94643209Y-30315425D01*
X94594073Y-30343795D01*
X94594072Y-30343796D01*
X94555589Y-30366014D01*
X94506285Y-30394479D01*
X94506282Y-30394481D01*
X94394478Y-30506286D01*
X89237582Y-35663181D01*
X89176259Y-35696666D01*
X89149901Y-35699500D01*
X88002129Y-35699500D01*
X88002123Y-35699501D01*
X87942516Y-35705908D01*
X87807671Y-35756202D01*
X87807664Y-35756206D01*
X87692455Y-35842452D01*
X87692452Y-35842455D01*
X87606206Y-35957664D01*
X87606202Y-35957671D01*
X87555908Y-36092517D01*
X87553783Y-36112287D01*
X87549501Y-36152123D01*
X87549500Y-36152135D01*
X87549500Y-37847870D01*
X87549501Y-37847876D01*
X87555908Y-37907483D01*
X87606202Y-38042328D01*
X87606206Y-38042335D01*
X87692452Y-38157544D01*
X87692455Y-38157547D01*
X87807664Y-38243793D01*
X87807671Y-38243797D01*
X87844950Y-38257701D01*
X87942517Y-38294091D01*
X88002127Y-38300500D01*
X88025497Y-38300499D01*
X88092536Y-38320181D01*
X88138292Y-38372983D01*
X88149500Y-38424499D01*
X88149500Y-43575500D01*
X88129815Y-43642539D01*
X88077011Y-43688294D01*
X88025505Y-43699500D01*
X88002132Y-43699500D01*
X88002123Y-43699501D01*
X87942516Y-43705908D01*
X87807671Y-43756202D01*
X87807664Y-43756206D01*
X87692455Y-43842452D01*
X87692452Y-43842455D01*
X87606206Y-43957664D01*
X87606202Y-43957671D01*
X87555908Y-44092517D01*
X87549501Y-44152116D01*
X87549501Y-44152123D01*
X87549500Y-44152135D01*
X87549500Y-45847870D01*
X87549501Y-45847876D01*
X87555908Y-45907483D01*
X87606202Y-46042328D01*
X87606206Y-46042335D01*
X87692452Y-46157544D01*
X87692455Y-46157547D01*
X87807664Y-46243793D01*
X87807671Y-46243797D01*
X87942517Y-46294091D01*
X87942516Y-46294091D01*
X87949444Y-46294835D01*
X88002127Y-46300500D01*
X89497872Y-46300499D01*
X89557483Y-46294091D01*
X89692331Y-46243796D01*
X89807546Y-46157546D01*
X89893796Y-46042331D01*
X89944091Y-45907483D01*
X89950500Y-45847873D01*
X89950500Y-45847844D01*
X92050000Y-45847844D01*
X92056401Y-45907372D01*
X92056403Y-45907379D01*
X92106645Y-46042086D01*
X92106649Y-46042093D01*
X92192809Y-46157187D01*
X92192812Y-46157190D01*
X92307906Y-46243350D01*
X92307913Y-46243354D01*
X92442620Y-46293596D01*
X92442627Y-46293598D01*
X92502155Y-46299999D01*
X92502172Y-46300000D01*
X93000000Y-46300000D01*
X93500000Y-46300000D01*
X93997828Y-46300000D01*
X93997844Y-46299999D01*
X94057372Y-46293598D01*
X94057379Y-46293596D01*
X94192086Y-46243354D01*
X94192093Y-46243350D01*
X94307187Y-46157190D01*
X94307190Y-46157187D01*
X94393350Y-46042093D01*
X94393354Y-46042086D01*
X94443596Y-45907379D01*
X94443598Y-45907372D01*
X94449999Y-45847844D01*
X98550000Y-45847844D01*
X98556401Y-45907372D01*
X98556403Y-45907379D01*
X98606645Y-46042086D01*
X98606649Y-46042093D01*
X98692809Y-46157187D01*
X98692812Y-46157190D01*
X98807906Y-46243350D01*
X98807913Y-46243354D01*
X98942620Y-46293596D01*
X98942627Y-46293598D01*
X99002155Y-46299999D01*
X99002172Y-46300000D01*
X99500000Y-46300000D01*
X100000000Y-46300000D01*
X100497828Y-46300000D01*
X100497844Y-46299999D01*
X100557372Y-46293598D01*
X100557379Y-46293596D01*
X100692086Y-46243354D01*
X100692093Y-46243350D01*
X100807187Y-46157190D01*
X100807190Y-46157187D01*
X100893350Y-46042093D01*
X100893354Y-46042086D01*
X100943596Y-45907379D01*
X100943598Y-45907372D01*
X100949999Y-45847844D01*
X100950000Y-45847827D01*
X100950000Y-45250000D01*
X100000000Y-45250000D01*
X100000000Y-46300000D01*
X99500000Y-46300000D01*
X99500000Y-45250000D01*
X98550000Y-45250000D01*
X98550000Y-45847844D01*
X94449999Y-45847844D01*
X94450000Y-45847827D01*
X94450000Y-45250000D01*
X93500000Y-45250000D01*
X93500000Y-46300000D01*
X93000000Y-46300000D01*
X93000000Y-45250000D01*
X92050000Y-45250000D01*
X92050000Y-45847844D01*
X89950500Y-45847844D01*
X89950499Y-45000000D01*
X89950499Y-44152155D01*
X92050000Y-44152155D01*
X92050000Y-44750000D01*
X93000000Y-44750000D01*
X93500000Y-44750000D01*
X94450000Y-44750000D01*
X94450000Y-44152172D01*
X94449999Y-44152155D01*
X98550000Y-44152155D01*
X98550000Y-44750000D01*
X99500000Y-44750000D01*
X100000000Y-44750000D01*
X100950000Y-44750000D01*
X100950000Y-44152172D01*
X100949999Y-44152155D01*
X100943598Y-44092627D01*
X100943596Y-44092620D01*
X100893354Y-43957913D01*
X100893350Y-43957906D01*
X100807190Y-43842812D01*
X100807187Y-43842809D01*
X100692093Y-43756649D01*
X100692086Y-43756645D01*
X100557379Y-43706403D01*
X100557372Y-43706401D01*
X100497844Y-43700000D01*
X100000000Y-43700000D01*
X100000000Y-44750000D01*
X99500000Y-44750000D01*
X99500000Y-43700000D01*
X99002155Y-43700000D01*
X98942627Y-43706401D01*
X98942620Y-43706403D01*
X98807913Y-43756645D01*
X98807906Y-43756649D01*
X98692812Y-43842809D01*
X98692809Y-43842812D01*
X98606649Y-43957906D01*
X98606645Y-43957913D01*
X98556403Y-44092620D01*
X98556401Y-44092627D01*
X98550000Y-44152155D01*
X94449999Y-44152155D01*
X94443598Y-44092627D01*
X94443596Y-44092620D01*
X94393354Y-43957913D01*
X94393350Y-43957906D01*
X94307190Y-43842812D01*
X94307187Y-43842809D01*
X94192093Y-43756649D01*
X94192086Y-43756645D01*
X94057379Y-43706403D01*
X94057372Y-43706401D01*
X93997844Y-43700000D01*
X93500000Y-43700000D01*
X93500000Y-44750000D01*
X93000000Y-44750000D01*
X93000000Y-43700000D01*
X92502155Y-43700000D01*
X92442627Y-43706401D01*
X92442620Y-43706403D01*
X92307913Y-43756645D01*
X92307906Y-43756649D01*
X92192812Y-43842809D01*
X92192809Y-43842812D01*
X92106649Y-43957906D01*
X92106645Y-43957913D01*
X92056403Y-44092620D01*
X92056401Y-44092627D01*
X92050000Y-44152155D01*
X89950499Y-44152155D01*
X89950499Y-44152129D01*
X89950498Y-44152123D01*
X89950497Y-44152116D01*
X89944091Y-44092517D01*
X89936971Y-44073428D01*
X89893797Y-43957671D01*
X89893793Y-43957664D01*
X89807547Y-43842455D01*
X89807544Y-43842452D01*
X89692335Y-43756206D01*
X89692328Y-43756202D01*
X89557482Y-43705908D01*
X89557483Y-43705908D01*
X89497883Y-43699501D01*
X89497881Y-43699500D01*
X89497873Y-43699500D01*
X89497865Y-43699500D01*
X89474500Y-43699500D01*
X89407461Y-43679815D01*
X89361706Y-43627011D01*
X89350500Y-43575500D01*
X89350500Y-38424499D01*
X89370185Y-38357460D01*
X89422989Y-38311705D01*
X89474500Y-38300499D01*
X89497871Y-38300499D01*
X89497872Y-38300499D01*
X89557483Y-38294091D01*
X89692331Y-38243796D01*
X89807546Y-38157546D01*
X89893796Y-38042331D01*
X89944091Y-37907483D01*
X89950500Y-37847873D01*
X89950500Y-37847844D01*
X92050000Y-37847844D01*
X92056401Y-37907372D01*
X92056403Y-37907379D01*
X92106645Y-38042086D01*
X92106649Y-38042093D01*
X92192809Y-38157187D01*
X92192812Y-38157190D01*
X92307906Y-38243350D01*
X92307913Y-38243354D01*
X92442620Y-38293596D01*
X92442627Y-38293598D01*
X92502155Y-38299999D01*
X92502172Y-38300000D01*
X93000000Y-38300000D01*
X93500000Y-38300000D01*
X93997828Y-38300000D01*
X93997844Y-38299999D01*
X94057372Y-38293598D01*
X94057379Y-38293596D01*
X94192086Y-38243354D01*
X94192093Y-38243350D01*
X94307187Y-38157190D01*
X94307190Y-38157187D01*
X94393350Y-38042093D01*
X94393354Y-38042086D01*
X94443596Y-37907379D01*
X94443598Y-37907372D01*
X94449999Y-37847844D01*
X98550000Y-37847844D01*
X98556401Y-37907372D01*
X98556403Y-37907379D01*
X98606645Y-38042086D01*
X98606649Y-38042093D01*
X98692809Y-38157187D01*
X98692812Y-38157190D01*
X98807906Y-38243350D01*
X98807913Y-38243354D01*
X98942620Y-38293596D01*
X98942627Y-38293598D01*
X99002155Y-38299999D01*
X99002172Y-38300000D01*
X99500000Y-38300000D01*
X100000000Y-38300000D01*
X100497828Y-38300000D01*
X100497844Y-38299999D01*
X100557372Y-38293598D01*
X100557379Y-38293596D01*
X100692086Y-38243354D01*
X100692093Y-38243350D01*
X100807187Y-38157190D01*
X100807190Y-38157187D01*
X100893350Y-38042093D01*
X100893354Y-38042086D01*
X100943596Y-37907379D01*
X100943598Y-37907372D01*
X100949999Y-37847844D01*
X100950000Y-37847827D01*
X100950000Y-37250000D01*
X100000000Y-37250000D01*
X100000000Y-38300000D01*
X99500000Y-38300000D01*
X99500000Y-37250000D01*
X98550000Y-37250000D01*
X98550000Y-37847844D01*
X94449999Y-37847844D01*
X94450000Y-37847827D01*
X94450000Y-37250000D01*
X93500000Y-37250000D01*
X93500000Y-38300000D01*
X93000000Y-38300000D01*
X93000000Y-37250000D01*
X92050000Y-37250000D01*
X92050000Y-37847844D01*
X89950500Y-37847844D01*
X89950499Y-36700095D01*
X89970184Y-36633057D01*
X89986813Y-36612420D01*
X90447078Y-36152155D01*
X92050000Y-36152155D01*
X92050000Y-36750000D01*
X93000000Y-36750000D01*
X93500000Y-36750000D01*
X94450000Y-36750000D01*
X94450000Y-36152172D01*
X94449999Y-36152155D01*
X98550000Y-36152155D01*
X98550000Y-36750000D01*
X99500000Y-36750000D01*
X100000000Y-36750000D01*
X100950000Y-36750000D01*
X100950000Y-36152172D01*
X100949999Y-36152155D01*
X100943598Y-36092627D01*
X100943596Y-36092620D01*
X100893354Y-35957913D01*
X100893350Y-35957906D01*
X100807190Y-35842812D01*
X100807187Y-35842809D01*
X100692093Y-35756649D01*
X100692086Y-35756645D01*
X100557379Y-35706403D01*
X100557372Y-35706401D01*
X100497844Y-35700000D01*
X100000000Y-35700000D01*
X100000000Y-36750000D01*
X99500000Y-36750000D01*
X99500000Y-35700000D01*
X99002155Y-35700000D01*
X98942627Y-35706401D01*
X98942620Y-35706403D01*
X98807913Y-35756645D01*
X98807906Y-35756649D01*
X98692812Y-35842809D01*
X98692809Y-35842812D01*
X98606649Y-35957906D01*
X98606645Y-35957913D01*
X98556403Y-36092620D01*
X98556401Y-36092627D01*
X98550000Y-36152155D01*
X94449999Y-36152155D01*
X94443598Y-36092627D01*
X94443596Y-36092620D01*
X94393354Y-35957913D01*
X94393350Y-35957906D01*
X94307190Y-35842812D01*
X94307187Y-35842809D01*
X94192093Y-35756649D01*
X94192086Y-35756645D01*
X94057379Y-35706403D01*
X94057372Y-35706401D01*
X93997844Y-35700000D01*
X93500000Y-35700000D01*
X93500000Y-36750000D01*
X93000000Y-36750000D01*
X93000000Y-35700000D01*
X92502155Y-35700000D01*
X92442627Y-35706401D01*
X92442620Y-35706403D01*
X92307913Y-35756645D01*
X92307906Y-35756649D01*
X92192812Y-35842809D01*
X92192809Y-35842812D01*
X92106649Y-35957906D01*
X92106645Y-35957913D01*
X92056403Y-36092620D01*
X92056401Y-36092627D01*
X92050000Y-36152155D01*
X90447078Y-36152155D01*
X92601390Y-33997844D01*
X93700000Y-33997844D01*
X93706401Y-34057372D01*
X93706403Y-34057379D01*
X93756645Y-34192086D01*
X93756649Y-34192093D01*
X93842809Y-34307187D01*
X93842812Y-34307190D01*
X93957906Y-34393350D01*
X93957913Y-34393354D01*
X94092620Y-34443596D01*
X94092627Y-34443598D01*
X94152155Y-34449999D01*
X94152172Y-34450000D01*
X94750000Y-34450000D01*
X95250000Y-34450000D01*
X95847828Y-34450000D01*
X95847844Y-34449999D01*
X95907372Y-34443598D01*
X95907379Y-34443596D01*
X96042086Y-34393354D01*
X96042093Y-34393350D01*
X96157187Y-34307190D01*
X96157190Y-34307187D01*
X96243350Y-34192093D01*
X96243354Y-34192086D01*
X96293596Y-34057379D01*
X96293598Y-34057372D01*
X96299999Y-33997844D01*
X96300000Y-33997827D01*
X96300000Y-33500000D01*
X95250000Y-33500000D01*
X95250000Y-34450000D01*
X94750000Y-34450000D01*
X94750000Y-33500000D01*
X93700000Y-33500000D01*
X93700000Y-33997844D01*
X92601390Y-33997844D01*
X93562916Y-33036318D01*
X93624238Y-33002834D01*
X93650596Y-33000000D01*
X94750000Y-33000000D01*
X95250000Y-33000000D01*
X96300000Y-33000000D01*
X96300000Y-32502172D01*
X96299999Y-32502155D01*
X96293598Y-32442627D01*
X96293596Y-32442620D01*
X96243354Y-32307913D01*
X96243350Y-32307906D01*
X96157190Y-32192812D01*
X96157187Y-32192809D01*
X96042093Y-32106649D01*
X96042086Y-32106645D01*
X95907379Y-32056403D01*
X95907372Y-32056401D01*
X95847844Y-32050000D01*
X95250000Y-32050000D01*
X95250000Y-33000000D01*
X94750000Y-33000000D01*
X94750000Y-32050000D01*
X94737298Y-32037298D01*
X94703813Y-31975975D01*
X94708797Y-31906283D01*
X94737296Y-31861938D01*
X95087416Y-31511819D01*
X95148739Y-31478334D01*
X95175097Y-31475500D01*
X96038331Y-31475500D01*
X96038347Y-31475501D01*
X96045943Y-31475501D01*
X96204054Y-31475501D01*
X96204057Y-31475501D01*
X96356785Y-31434577D01*
X96406904Y-31405639D01*
X96493716Y-31355520D01*
X96605520Y-31243716D01*
X96605520Y-31243714D01*
X96615728Y-31233507D01*
X96615730Y-31233504D01*
X97358506Y-30490728D01*
X97358511Y-30490724D01*
X97368714Y-30480520D01*
X97368716Y-30480520D01*
X97480520Y-30368716D01*
X97534915Y-30274500D01*
X97559577Y-30231785D01*
X97600501Y-30079057D01*
X97600501Y-29920943D01*
X97600501Y-29913348D01*
X97600500Y-29913330D01*
X97600500Y-28089060D01*
X97600501Y-28089047D01*
X97600501Y-27920944D01*
X97586917Y-27870248D01*
X97559577Y-27768216D01*
X97544704Y-27742455D01*
X97480524Y-27631290D01*
X97480518Y-27631282D01*
X96487590Y-26638355D01*
X96487588Y-26638352D01*
X96368717Y-26519481D01*
X96368716Y-26519480D01*
X96281904Y-26469360D01*
X96281904Y-26469359D01*
X96281900Y-26469358D01*
X96231785Y-26440423D01*
X96079057Y-26399499D01*
X95920943Y-26399499D01*
X95913347Y-26399499D01*
X95913331Y-26399500D01*
X85568940Y-26399500D01*
X85528019Y-26410464D01*
X85528019Y-26410465D01*
X85495446Y-26419193D01*
X85416214Y-26440423D01*
X85416209Y-26440426D01*
X85279290Y-26519475D01*
X85279282Y-26519481D01*
X85167478Y-26631286D01*
X75641680Y-36157083D01*
X75633734Y-36161421D01*
X75628309Y-36168669D01*
X75603549Y-36177903D01*
X75580357Y-36190568D01*
X75571327Y-36189922D01*
X75562845Y-36193086D01*
X75537024Y-36187469D01*
X75510665Y-36185584D01*
X75501611Y-36179765D01*
X75494572Y-36178234D01*
X75466318Y-36157083D01*
X75333757Y-36024522D01*
X75300272Y-35963199D01*
X75303507Y-35898523D01*
X75317246Y-35856243D01*
X75350500Y-35646287D01*
X75350500Y-35433713D01*
X75317246Y-35223757D01*
X75251557Y-35021588D01*
X75155051Y-34832184D01*
X75155049Y-34832181D01*
X75155048Y-34832179D01*
X75030109Y-34660213D01*
X74916181Y-34546285D01*
X74882696Y-34484962D01*
X74887680Y-34415270D01*
X74929552Y-34359337D01*
X74960529Y-34342422D01*
X75092086Y-34293354D01*
X75092093Y-34293350D01*
X75207187Y-34207190D01*
X75207190Y-34207187D01*
X75293350Y-34092093D01*
X75293354Y-34092086D01*
X75343596Y-33957379D01*
X75343598Y-33957372D01*
X75349999Y-33897844D01*
X75350000Y-33897827D01*
X75350000Y-33250000D01*
X74433012Y-33250000D01*
X74465925Y-33192993D01*
X74500000Y-33065826D01*
X74500000Y-32934174D01*
X74465925Y-32807007D01*
X74433012Y-32750000D01*
X75350000Y-32750000D01*
X75350000Y-32102172D01*
X75349999Y-32102155D01*
X75343598Y-32042627D01*
X75343596Y-32042620D01*
X75293354Y-31907913D01*
X75293350Y-31907906D01*
X75207190Y-31792812D01*
X75207187Y-31792809D01*
X75092093Y-31706649D01*
X75092086Y-31706645D01*
X74957379Y-31656403D01*
X74957372Y-31656401D01*
X74897844Y-31650000D01*
X74250000Y-31650000D01*
X74250000Y-32566988D01*
X74192993Y-32534075D01*
X74065826Y-32500000D01*
X73934174Y-32500000D01*
X73807007Y-32534075D01*
X73750000Y-32566988D01*
X73750000Y-31650000D01*
X73102155Y-31650000D01*
X73042627Y-31656401D01*
X73042620Y-31656403D01*
X72907913Y-31706645D01*
X72907906Y-31706649D01*
X72792812Y-31792809D01*
X72792809Y-31792812D01*
X72706649Y-31907906D01*
X72706645Y-31907913D01*
X72656403Y-32042620D01*
X72656401Y-32042627D01*
X72650000Y-32102155D01*
X72650000Y-32750000D01*
X73566988Y-32750000D01*
X73534075Y-32807007D01*
X73500000Y-32934174D01*
X73500000Y-33065826D01*
X73534075Y-33192993D01*
X73566988Y-33250000D01*
X72650000Y-33250000D01*
X72650000Y-33897844D01*
X72656401Y-33957372D01*
X72656403Y-33957379D01*
X72706645Y-34092086D01*
X72706649Y-34092093D01*
X72792809Y-34207187D01*
X72792812Y-34207190D01*
X72907906Y-34293350D01*
X72907913Y-34293354D01*
X73039470Y-34342422D01*
X73095404Y-34384293D01*
X73119821Y-34449758D01*
X73104969Y-34518031D01*
X73083819Y-34546285D01*
X72969889Y-34660215D01*
X72844951Y-34832179D01*
X72748444Y-35021585D01*
X72682753Y-35223760D01*
X72652635Y-35413922D01*
X72649500Y-35433713D01*
X72649500Y-35646287D01*
X72654033Y-35674905D01*
X72682753Y-35856239D01*
X72682753Y-35856241D01*
X72682754Y-35856243D01*
X72737431Y-36024522D01*
X72748444Y-36058414D01*
X72844951Y-36247820D01*
X72969890Y-36419786D01*
X73120213Y-36570109D01*
X73292182Y-36695050D01*
X73300946Y-36699516D01*
X73351742Y-36747491D01*
X73368536Y-36815312D01*
X73345998Y-36881447D01*
X73300946Y-36920484D01*
X73292182Y-36924949D01*
X73120213Y-37049890D01*
X72969890Y-37200213D01*
X72844951Y-37372179D01*
X72748444Y-37561585D01*
X72682753Y-37763760D01*
X72649500Y-37973713D01*
X72649500Y-38186286D01*
X72673280Y-38336431D01*
X72682754Y-38396243D01*
X72691268Y-38422447D01*
X72748444Y-38598414D01*
X72844951Y-38787820D01*
X72969890Y-38959786D01*
X73120213Y-39110109D01*
X73292182Y-39235050D01*
X73300946Y-39239516D01*
X73351742Y-39287491D01*
X73368536Y-39355312D01*
X73345998Y-39421447D01*
X73300946Y-39460484D01*
X73292182Y-39464949D01*
X73120213Y-39589890D01*
X72969890Y-39740213D01*
X72844951Y-39912179D01*
X72748444Y-40101585D01*
X72682753Y-40303760D01*
X72659054Y-40453389D01*
X72649500Y-40513713D01*
X72649500Y-40726287D01*
X72682754Y-40936243D01*
X72691268Y-40962447D01*
X72748444Y-41138414D01*
X72794195Y-41228205D01*
X72807091Y-41296874D01*
X72780815Y-41361615D01*
X72723709Y-41401872D01*
X72683710Y-41408500D01*
X72195057Y-41408500D01*
X72036942Y-41408500D01*
X71884215Y-41449423D01*
X71884214Y-41449423D01*
X71884212Y-41449424D01*
X71884209Y-41449425D01*
X71834096Y-41478359D01*
X71834095Y-41478360D01*
X71829121Y-41481232D01*
X71747285Y-41528479D01*
X71747282Y-41528481D01*
X70894481Y-42381282D01*
X70894480Y-42381284D01*
X70853967Y-42451455D01*
X70815423Y-42518215D01*
X70774499Y-42670943D01*
X70774499Y-42670945D01*
X70774499Y-42839046D01*
X70774500Y-42839059D01*
X70774500Y-44006389D01*
X70754815Y-44073428D01*
X70738181Y-44094070D01*
X70169070Y-44663181D01*
X70107747Y-44696666D01*
X70081389Y-44699500D01*
X64680983Y-44699500D01*
X64680967Y-44699499D01*
X64673371Y-44699499D01*
X64515257Y-44699499D01*
X64362529Y-44740423D01*
X64314392Y-44768215D01*
X64314391Y-44768215D01*
X64225604Y-44819475D01*
X64225596Y-44819481D01*
X64169078Y-44876000D01*
X64113794Y-44931284D01*
X64113792Y-44931286D01*
X64096193Y-44948885D01*
X64081395Y-44963683D01*
X64020071Y-44997167D01*
X64020066Y-44997166D01*
X63993715Y-45000000D01*
X33624500Y-45000000D01*
X33557461Y-44980315D01*
X33511706Y-44927511D01*
X33500500Y-44876000D01*
X33500500Y-40453389D01*
X58359500Y-40453389D01*
X58359500Y-40626611D01*
X58386598Y-40797701D01*
X58440127Y-40962445D01*
X58518768Y-41116788D01*
X58620586Y-41256928D01*
X58743072Y-41379414D01*
X58883212Y-41481232D01*
X59037555Y-41559873D01*
X59202299Y-41613402D01*
X59373389Y-41640500D01*
X59373390Y-41640500D01*
X59546610Y-41640500D01*
X59546611Y-41640500D01*
X59717701Y-41613402D01*
X59882445Y-41559873D01*
X60036788Y-41481232D01*
X60176928Y-41379414D01*
X60299414Y-41256928D01*
X60401232Y-41116788D01*
X60479873Y-40962445D01*
X60533402Y-40797701D01*
X60560500Y-40626611D01*
X60560500Y-40453389D01*
X60533402Y-40282299D01*
X60479873Y-40117555D01*
X60401232Y-39963212D01*
X60299414Y-39823072D01*
X60176928Y-39700586D01*
X60036788Y-39598768D01*
X59882445Y-39520127D01*
X59717701Y-39466598D01*
X59717699Y-39466597D01*
X59717698Y-39466597D01*
X59586271Y-39445781D01*
X59546611Y-39439500D01*
X59373389Y-39439500D01*
X59333728Y-39445781D01*
X59202302Y-39466597D01*
X59037552Y-39520128D01*
X58883211Y-39598768D01*
X58803256Y-39656859D01*
X58743072Y-39700586D01*
X58743070Y-39700588D01*
X58743069Y-39700588D01*
X58620588Y-39823069D01*
X58620588Y-39823070D01*
X58620586Y-39823072D01*
X58576859Y-39883256D01*
X58518768Y-39963211D01*
X58440128Y-40117552D01*
X58386597Y-40282302D01*
X58359500Y-40453389D01*
X33500500Y-40453389D01*
X33500500Y-37913389D01*
X60899500Y-37913389D01*
X60899500Y-38086610D01*
X60924395Y-38243797D01*
X60926598Y-38257701D01*
X60980127Y-38422445D01*
X61058768Y-38576788D01*
X61160586Y-38716928D01*
X61283072Y-38839414D01*
X61423212Y-38941232D01*
X61577555Y-39019873D01*
X61742299Y-39073402D01*
X61913389Y-39100500D01*
X61913390Y-39100500D01*
X62086610Y-39100500D01*
X62086611Y-39100500D01*
X62257701Y-39073402D01*
X62422445Y-39019873D01*
X62576788Y-38941232D01*
X62716928Y-38839414D01*
X62839414Y-38716928D01*
X62941232Y-38576788D01*
X63019873Y-38422445D01*
X63073402Y-38257701D01*
X63100500Y-38086611D01*
X63100500Y-37913389D01*
X63073402Y-37742299D01*
X63019873Y-37577555D01*
X62941232Y-37423212D01*
X62839414Y-37283072D01*
X62716928Y-37160586D01*
X62576788Y-37058768D01*
X62422445Y-36980127D01*
X62257701Y-36926598D01*
X62257699Y-36926597D01*
X62257698Y-36926597D01*
X62126271Y-36905781D01*
X62086611Y-36899500D01*
X61913389Y-36899500D01*
X61873728Y-36905781D01*
X61742302Y-36926597D01*
X61577552Y-36980128D01*
X61423211Y-37058768D01*
X61343256Y-37116859D01*
X61283072Y-37160586D01*
X61283070Y-37160588D01*
X61283069Y-37160588D01*
X61160588Y-37283069D01*
X61160588Y-37283070D01*
X61160586Y-37283072D01*
X61116859Y-37343256D01*
X61058768Y-37423211D01*
X60980128Y-37577552D01*
X60926597Y-37742302D01*
X60899500Y-37913389D01*
X33500500Y-37913389D01*
X33500500Y-34897648D01*
X44079500Y-34897648D01*
X44079500Y-35102351D01*
X44111522Y-35304534D01*
X44174781Y-35499223D01*
X44223631Y-35595095D01*
X44266798Y-35679815D01*
X44267715Y-35681613D01*
X44388028Y-35847213D01*
X44532786Y-35991971D01*
X44657057Y-36082257D01*
X44698390Y-36112287D01*
X44776669Y-36152172D01*
X44880776Y-36205218D01*
X44880778Y-36205218D01*
X44880781Y-36205220D01*
X44977125Y-36236524D01*
X45075465Y-36268477D01*
X45176557Y-36284488D01*
X45277648Y-36300500D01*
X45277649Y-36300500D01*
X45482351Y-36300500D01*
X45482352Y-36300500D01*
X45684534Y-36268477D01*
X45879219Y-36205220D01*
X46061610Y-36112287D01*
X46182409Y-36024522D01*
X46227213Y-35991971D01*
X46227215Y-35991968D01*
X46227219Y-35991966D01*
X46371966Y-35847219D01*
X46371968Y-35847215D01*
X46371971Y-35847213D01*
X46445090Y-35746571D01*
X46492287Y-35681610D01*
X46585220Y-35499219D01*
X46648477Y-35304534D01*
X46680500Y-35102352D01*
X46680500Y-34897648D01*
X51699500Y-34897648D01*
X51699500Y-35102351D01*
X51731522Y-35304534D01*
X51794781Y-35499223D01*
X51843631Y-35595095D01*
X51886798Y-35679815D01*
X51887715Y-35681613D01*
X52008028Y-35847213D01*
X52152786Y-35991971D01*
X52277057Y-36082257D01*
X52318390Y-36112287D01*
X52396669Y-36152172D01*
X52500776Y-36205218D01*
X52500778Y-36205218D01*
X52500781Y-36205220D01*
X52597125Y-36236524D01*
X52695465Y-36268477D01*
X52796557Y-36284488D01*
X52897648Y-36300500D01*
X52897649Y-36300500D01*
X53102351Y-36300500D01*
X53102352Y-36300500D01*
X53304534Y-36268477D01*
X53499219Y-36205220D01*
X53681610Y-36112287D01*
X53802409Y-36024522D01*
X53847213Y-35991971D01*
X53847215Y-35991968D01*
X53847219Y-35991966D01*
X53991966Y-35847219D01*
X53991968Y-35847215D01*
X53991971Y-35847213D01*
X54065091Y-35746571D01*
X58360000Y-35746571D01*
X58387085Y-35917584D01*
X58440591Y-36082257D01*
X58519195Y-36236524D01*
X58620967Y-36376602D01*
X58743397Y-36499032D01*
X58883475Y-36600804D01*
X59037744Y-36679408D01*
X59202415Y-36732914D01*
X59202414Y-36732914D01*
X59209999Y-36734115D01*
X59710000Y-36734115D01*
X59717584Y-36732914D01*
X59882255Y-36679408D01*
X60036524Y-36600804D01*
X60176602Y-36499032D01*
X60299032Y-36376602D01*
X60400804Y-36236524D01*
X60479408Y-36082257D01*
X60532914Y-35917584D01*
X60560000Y-35746571D01*
X60560000Y-35710000D01*
X59710000Y-35710000D01*
X59710000Y-36734115D01*
X59209999Y-36734115D01*
X59210000Y-36734114D01*
X59210000Y-35710000D01*
X58360000Y-35710000D01*
X58360000Y-35746571D01*
X54065091Y-35746571D01*
X54112287Y-35681610D01*
X54112288Y-35681608D01*
X54152674Y-35602348D01*
X54152676Y-35602343D01*
X54205218Y-35499223D01*
X54205218Y-35499222D01*
X54205220Y-35499219D01*
X54232935Y-35413922D01*
X59110000Y-35413922D01*
X59110000Y-35506078D01*
X59133852Y-35595095D01*
X59179930Y-35674905D01*
X59245095Y-35740070D01*
X59324905Y-35786148D01*
X59413922Y-35810000D01*
X59506078Y-35810000D01*
X59595095Y-35786148D01*
X59674905Y-35740070D01*
X59740070Y-35674905D01*
X59786148Y-35595095D01*
X59810000Y-35506078D01*
X59810000Y-35413922D01*
X59786148Y-35324905D01*
X59740070Y-35245095D01*
X59704975Y-35210000D01*
X59710000Y-35210000D01*
X60560000Y-35210000D01*
X60560000Y-35173428D01*
X60532914Y-35002415D01*
X60479408Y-34837742D01*
X60400804Y-34683475D01*
X60299032Y-34543397D01*
X60176602Y-34420967D01*
X60036524Y-34319195D01*
X59882257Y-34240591D01*
X59717589Y-34187087D01*
X59717581Y-34187085D01*
X59710000Y-34185884D01*
X59710000Y-35210000D01*
X59704975Y-35210000D01*
X59674905Y-35179930D01*
X59595095Y-35133852D01*
X59506078Y-35110000D01*
X59413922Y-35110000D01*
X59324905Y-35133852D01*
X59245095Y-35179930D01*
X59179930Y-35245095D01*
X59133852Y-35324905D01*
X59110000Y-35413922D01*
X54232935Y-35413922D01*
X54268477Y-35304534D01*
X54289242Y-35173428D01*
X58360000Y-35173428D01*
X58360000Y-35210000D01*
X59210000Y-35210000D01*
X59210000Y-34185884D01*
X59209999Y-34185884D01*
X59202418Y-34187085D01*
X59202410Y-34187087D01*
X59037742Y-34240591D01*
X58883475Y-34319195D01*
X58743397Y-34420967D01*
X58620967Y-34543397D01*
X58519195Y-34683475D01*
X58440591Y-34837742D01*
X58387085Y-35002415D01*
X58360000Y-35173428D01*
X54289242Y-35173428D01*
X54300500Y-35102352D01*
X54300500Y-34897648D01*
X54268477Y-34695466D01*
X54205220Y-34500781D01*
X54205218Y-34500778D01*
X54205218Y-34500776D01*
X54150481Y-34393350D01*
X54112287Y-34318390D01*
X54104148Y-34307187D01*
X53991971Y-34152786D01*
X53847213Y-34008028D01*
X53681613Y-33887715D01*
X53681612Y-33887714D01*
X53681610Y-33887713D01*
X53624653Y-33858691D01*
X53499223Y-33794781D01*
X53304534Y-33731522D01*
X53129995Y-33703878D01*
X53102352Y-33699500D01*
X52897648Y-33699500D01*
X52873329Y-33703351D01*
X52695465Y-33731522D01*
X52500776Y-33794781D01*
X52318386Y-33887715D01*
X52152786Y-34008028D01*
X52008028Y-34152786D01*
X51887715Y-34318386D01*
X51794781Y-34500776D01*
X51731522Y-34695465D01*
X51699500Y-34897648D01*
X46680500Y-34897648D01*
X46648477Y-34695466D01*
X46585220Y-34500781D01*
X46585218Y-34500778D01*
X46585218Y-34500776D01*
X46530481Y-34393350D01*
X46492287Y-34318390D01*
X46484148Y-34307187D01*
X46371971Y-34152786D01*
X46227213Y-34008028D01*
X46061613Y-33887715D01*
X46061612Y-33887714D01*
X46061610Y-33887713D01*
X46004653Y-33858691D01*
X45879223Y-33794781D01*
X45684534Y-33731522D01*
X45509995Y-33703878D01*
X45482352Y-33699500D01*
X45277648Y-33699500D01*
X45253329Y-33703351D01*
X45075465Y-33731522D01*
X44880776Y-33794781D01*
X44698386Y-33887715D01*
X44532786Y-34008028D01*
X44388028Y-34152786D01*
X44267715Y-34318386D01*
X44174781Y-34500776D01*
X44111522Y-34695465D01*
X44079500Y-34897648D01*
X33500500Y-34897648D01*
X33500500Y-30897648D01*
X42829500Y-30897648D01*
X42829500Y-31102351D01*
X42861522Y-31304534D01*
X42924781Y-31499223D01*
X42988691Y-31624653D01*
X43004869Y-31656403D01*
X43017715Y-31681613D01*
X43138028Y-31847213D01*
X43282786Y-31991971D01*
X43434444Y-32102155D01*
X43448390Y-32112287D01*
X43564607Y-32171503D01*
X43630776Y-32205218D01*
X43630778Y-32205218D01*
X43630781Y-32205220D01*
X43735137Y-32239127D01*
X43825465Y-32268477D01*
X43926557Y-32284488D01*
X44027648Y-32300500D01*
X44027649Y-32300500D01*
X44232351Y-32300500D01*
X44232352Y-32300500D01*
X44434534Y-32268477D01*
X44629219Y-32205220D01*
X44811610Y-32112287D01*
X44968182Y-31998532D01*
X44977213Y-31991971D01*
X44977215Y-31991968D01*
X44977219Y-31991966D01*
X45121966Y-31847219D01*
X45121968Y-31847215D01*
X45121971Y-31847213D01*
X45224098Y-31706645D01*
X45242287Y-31681610D01*
X45335220Y-31499219D01*
X45398477Y-31304534D01*
X45430500Y-31102352D01*
X45430500Y-30897648D01*
X50449500Y-30897648D01*
X50449500Y-31102351D01*
X50481522Y-31304534D01*
X50544781Y-31499223D01*
X50608691Y-31624653D01*
X50624869Y-31656403D01*
X50637715Y-31681613D01*
X50758028Y-31847213D01*
X50902786Y-31991971D01*
X51054444Y-32102155D01*
X51068390Y-32112287D01*
X51184607Y-32171503D01*
X51250776Y-32205218D01*
X51250778Y-32205218D01*
X51250781Y-32205220D01*
X51355137Y-32239127D01*
X51445465Y-32268477D01*
X51546557Y-32284488D01*
X51647648Y-32300500D01*
X51647649Y-32300500D01*
X51852351Y-32300500D01*
X51852352Y-32300500D01*
X52054534Y-32268477D01*
X52249219Y-32205220D01*
X52431610Y-32112287D01*
X52588182Y-31998532D01*
X52588185Y-31998530D01*
X52597210Y-31991973D01*
X52597213Y-31991969D01*
X52597219Y-31991966D01*
X52741966Y-31847219D01*
X52741968Y-31847215D01*
X52741971Y-31847213D01*
X52844098Y-31706645D01*
X52862287Y-31681610D01*
X52955220Y-31499219D01*
X53018477Y-31304534D01*
X53050500Y-31102352D01*
X53050500Y-30897648D01*
X53018477Y-30695466D01*
X52955220Y-30500781D01*
X52955218Y-30500778D01*
X52955218Y-30500776D01*
X52904124Y-30400500D01*
X52862287Y-30318390D01*
X52830401Y-30274502D01*
X52741971Y-30152786D01*
X52597213Y-30008028D01*
X52431613Y-29887715D01*
X52431612Y-29887714D01*
X52431610Y-29887713D01*
X52374653Y-29858691D01*
X52249223Y-29794781D01*
X52054534Y-29731522D01*
X51879995Y-29703878D01*
X51852352Y-29699500D01*
X51647648Y-29699500D01*
X51623329Y-29703351D01*
X51445465Y-29731522D01*
X51250776Y-29794781D01*
X51068386Y-29887715D01*
X50902786Y-30008028D01*
X50758028Y-30152786D01*
X50637715Y-30318386D01*
X50544781Y-30500776D01*
X50481522Y-30695465D01*
X50449500Y-30897648D01*
X45430500Y-30897648D01*
X45398477Y-30695466D01*
X45335220Y-30500781D01*
X45335218Y-30500778D01*
X45335218Y-30500776D01*
X45284124Y-30400500D01*
X45242287Y-30318390D01*
X45210401Y-30274502D01*
X45121971Y-30152786D01*
X44977213Y-30008028D01*
X44811613Y-29887715D01*
X44811612Y-29887714D01*
X44811610Y-29887713D01*
X44754653Y-29858691D01*
X44629223Y-29794781D01*
X44434534Y-29731522D01*
X44259995Y-29703878D01*
X44232352Y-29699500D01*
X44027648Y-29699500D01*
X44003329Y-29703351D01*
X43825465Y-29731522D01*
X43630776Y-29794781D01*
X43448386Y-29887715D01*
X43282786Y-30008028D01*
X43138028Y-30152786D01*
X43017715Y-30318386D01*
X42924781Y-30500776D01*
X42861522Y-30695465D01*
X42829500Y-30897648D01*
X33500500Y-30897648D01*
X33500500Y-29002706D01*
X33500618Y-28997297D01*
X33502778Y-28947815D01*
X33517386Y-28613226D01*
X33518326Y-28602495D01*
X33568152Y-28224025D01*
X33570025Y-28213405D01*
X33652649Y-27840709D01*
X33655440Y-27830295D01*
X33770230Y-27466227D01*
X33773917Y-27456095D01*
X33920003Y-27103412D01*
X33924561Y-27093638D01*
X33947191Y-27050166D01*
X40599500Y-27050166D01*
X40599500Y-28449833D01*
X40610003Y-28552638D01*
X40665202Y-28719217D01*
X40665204Y-28719222D01*
X40698065Y-28772497D01*
X40757330Y-28868581D01*
X40881419Y-28992670D01*
X41030780Y-29084797D01*
X41124988Y-29116014D01*
X41197361Y-29139996D01*
X41234236Y-29143763D01*
X41300174Y-29150500D01*
X41300178Y-29150500D01*
X42699822Y-29150500D01*
X42699826Y-29150500D01*
X42802638Y-29139996D01*
X42969220Y-29084797D01*
X43118581Y-28992670D01*
X43242670Y-28868581D01*
X43258797Y-28842433D01*
X43291936Y-28788710D01*
X43334793Y-28719226D01*
X43334797Y-28719220D01*
X43383819Y-28571278D01*
X43413844Y-28522601D01*
X44097861Y-27838583D01*
X44120667Y-27923694D01*
X44179910Y-28026306D01*
X44263694Y-28110090D01*
X44366306Y-28169333D01*
X44451414Y-28192137D01*
X43742485Y-28901065D01*
X43742485Y-28901066D01*
X43806243Y-28947388D01*
X44002589Y-29047432D01*
X44212164Y-29115526D01*
X44429819Y-29150000D01*
X44650181Y-29150000D01*
X44867835Y-29115526D01*
X45077410Y-29047432D01*
X45273760Y-28947386D01*
X45337513Y-28901066D01*
X45337514Y-28901066D01*
X44628585Y-28192138D01*
X44713694Y-28169333D01*
X44816306Y-28110090D01*
X44900090Y-28026306D01*
X44959333Y-27923694D01*
X44982137Y-27838585D01*
X45691066Y-28547514D01*
X45691066Y-28547513D01*
X45709372Y-28522319D01*
X45764701Y-28479653D01*
X45834315Y-28473674D01*
X45896110Y-28506279D01*
X45910008Y-28522319D01*
X46011752Y-28662358D01*
X46011756Y-28662363D01*
X46167636Y-28818243D01*
X46167641Y-28818247D01*
X46236921Y-28868581D01*
X46345978Y-28947815D01*
X46441562Y-28996518D01*
X46542393Y-29047895D01*
X46542396Y-29047896D01*
X46624243Y-29074489D01*
X46752049Y-29116015D01*
X46969778Y-29150500D01*
X46969779Y-29150500D01*
X47190221Y-29150500D01*
X47190222Y-29150500D01*
X47407951Y-29116015D01*
X47617606Y-29047895D01*
X47814022Y-28947815D01*
X47893904Y-28889778D01*
X53599500Y-28889778D01*
X53599500Y-29110222D01*
X53613920Y-29201264D01*
X53633985Y-29327952D01*
X53702103Y-29537603D01*
X53702104Y-29537606D01*
X53770122Y-29671096D01*
X53800911Y-29731522D01*
X53802187Y-29734025D01*
X53931752Y-29912358D01*
X53931756Y-29912363D01*
X54087636Y-30068243D01*
X54087641Y-30068247D01*
X54209240Y-30156593D01*
X54265978Y-30197815D01*
X54394375Y-30263237D01*
X54462393Y-30297895D01*
X54462396Y-30297896D01*
X54525472Y-30318390D01*
X54672049Y-30366015D01*
X54889778Y-30400500D01*
X54889779Y-30400500D01*
X55110221Y-30400500D01*
X55110222Y-30400500D01*
X55327951Y-30366015D01*
X55537606Y-30297895D01*
X55734022Y-30197815D01*
X55912365Y-30068242D01*
X55962536Y-30018070D01*
X56023857Y-29984586D01*
X56093548Y-29989570D01*
X56149482Y-30031441D01*
X56166398Y-30062419D01*
X56196202Y-30142328D01*
X56196206Y-30142335D01*
X56282452Y-30257544D01*
X56282455Y-30257547D01*
X56397664Y-30343793D01*
X56397671Y-30343797D01*
X56532517Y-30394091D01*
X56532516Y-30394091D01*
X56536135Y-30394480D01*
X56592127Y-30400500D01*
X58487872Y-30400499D01*
X58547483Y-30394091D01*
X58682331Y-30343796D01*
X58797546Y-30257546D01*
X58883796Y-30142331D01*
X58934091Y-30007483D01*
X58940500Y-29947873D01*
X58940499Y-28052128D01*
X58934091Y-27992517D01*
X58929763Y-27980914D01*
X58883797Y-27857671D01*
X58883793Y-27857664D01*
X58797547Y-27742455D01*
X58797544Y-27742452D01*
X58682335Y-27656206D01*
X58682328Y-27656202D01*
X58547482Y-27605908D01*
X58547483Y-27605908D01*
X58487883Y-27599501D01*
X58487881Y-27599500D01*
X58487873Y-27599500D01*
X58487864Y-27599500D01*
X56592129Y-27599500D01*
X56592123Y-27599501D01*
X56532516Y-27605908D01*
X56397671Y-27656202D01*
X56397664Y-27656206D01*
X56282455Y-27742452D01*
X56282452Y-27742455D01*
X56196206Y-27857664D01*
X56196203Y-27857669D01*
X56166398Y-27937581D01*
X56124526Y-27993514D01*
X56059062Y-28017931D01*
X55990789Y-28003079D01*
X55962535Y-27981928D01*
X55912363Y-27931756D01*
X55912358Y-27931752D01*
X55734025Y-27802187D01*
X55734024Y-27802186D01*
X55734022Y-27802185D01*
X55643215Y-27755916D01*
X55537606Y-27702104D01*
X55537603Y-27702103D01*
X55327952Y-27633985D01*
X55152549Y-27606204D01*
X55110222Y-27599500D01*
X54889778Y-27599500D01*
X54847451Y-27606204D01*
X54672047Y-27633985D01*
X54462396Y-27702103D01*
X54462393Y-27702104D01*
X54265974Y-27802187D01*
X54087641Y-27931752D01*
X54087636Y-27931756D01*
X53931756Y-28087636D01*
X53931752Y-28087641D01*
X53802187Y-28265974D01*
X53702104Y-28462393D01*
X53702103Y-28462396D01*
X53633985Y-28672047D01*
X53618075Y-28772498D01*
X53599500Y-28889778D01*
X47893904Y-28889778D01*
X47992365Y-28818242D01*
X48148242Y-28662365D01*
X48277815Y-28484022D01*
X48377895Y-28287606D01*
X48446015Y-28077951D01*
X48480500Y-27860222D01*
X48480500Y-27639778D01*
X48446015Y-27422049D01*
X48411955Y-27317221D01*
X48377896Y-27212396D01*
X48377895Y-27212393D01*
X48319822Y-27098421D01*
X48277815Y-27015978D01*
X48227962Y-26947361D01*
X48148247Y-26837641D01*
X48148243Y-26837636D01*
X47992363Y-26681756D01*
X47992358Y-26681752D01*
X47814025Y-26552187D01*
X47814024Y-26552186D01*
X47814022Y-26552185D01*
X47749837Y-26519481D01*
X47617606Y-26452104D01*
X47617603Y-26452103D01*
X47407952Y-26383985D01*
X47256535Y-26360003D01*
X47190222Y-26349500D01*
X46969778Y-26349500D01*
X46903465Y-26360003D01*
X46752047Y-26383985D01*
X46542396Y-26452103D01*
X46542393Y-26452104D01*
X46345974Y-26552187D01*
X46167641Y-26681752D01*
X46167636Y-26681756D01*
X46011756Y-26837636D01*
X45910008Y-26977681D01*
X45854678Y-27020346D01*
X45785065Y-27026325D01*
X45723270Y-26993719D01*
X45709371Y-26977680D01*
X45691066Y-26952485D01*
X45691065Y-26952485D01*
X44982137Y-27661413D01*
X44959333Y-27576306D01*
X44900090Y-27473694D01*
X44816306Y-27389910D01*
X44713694Y-27330667D01*
X44628583Y-27307861D01*
X45337513Y-26598932D01*
X45273756Y-26552611D01*
X45077410Y-26452567D01*
X44867835Y-26384473D01*
X44650181Y-26350000D01*
X44429819Y-26350000D01*
X44212164Y-26384473D01*
X44002589Y-26452567D01*
X43806233Y-26552616D01*
X43742485Y-26598931D01*
X43742485Y-26598932D01*
X44451414Y-27307861D01*
X44366306Y-27330667D01*
X44263694Y-27389910D01*
X44179910Y-27473694D01*
X44120667Y-27576306D01*
X44097861Y-27661414D01*
X43413843Y-26977396D01*
X43383818Y-26928718D01*
X43334797Y-26780780D01*
X43334793Y-26780774D01*
X43334792Y-26780771D01*
X43291935Y-26711290D01*
X43242670Y-26631419D01*
X43118581Y-26507330D01*
X42983085Y-26423755D01*
X42969222Y-26415204D01*
X42969217Y-26415202D01*
X42802638Y-26360003D01*
X42699833Y-26349500D01*
X42699826Y-26349500D01*
X41300174Y-26349500D01*
X41300166Y-26349500D01*
X41197361Y-26360003D01*
X41030782Y-26415202D01*
X41030777Y-26415204D01*
X40881417Y-26507331D01*
X40757331Y-26631417D01*
X40665204Y-26780777D01*
X40665202Y-26780782D01*
X40610003Y-26947361D01*
X40599500Y-27050166D01*
X33947191Y-27050166D01*
X34100826Y-26755039D01*
X34106217Y-26745700D01*
X34311325Y-26423744D01*
X34317515Y-26414905D01*
X34549896Y-26112060D01*
X34556834Y-26103791D01*
X34814726Y-25822352D01*
X34822352Y-25814726D01*
X35103791Y-25556834D01*
X35112060Y-25549896D01*
X35414908Y-25317513D01*
X35423744Y-25311325D01*
X35745703Y-25106216D01*
X35755045Y-25100822D01*
X36093638Y-24924561D01*
X36103412Y-24920003D01*
X36456095Y-24773917D01*
X36466227Y-24770230D01*
X36830295Y-24655440D01*
X36840709Y-24652649D01*
X37213405Y-24570025D01*
X37224025Y-24568152D01*
X37602495Y-24518326D01*
X37613226Y-24517386D01*
X37997297Y-24500617D01*
X38002706Y-24500500D01*
X38065892Y-24500500D01*
X104648573Y-24500500D01*
X104648577Y-24500501D01*
G37*
%TD.AperFunction*%
%TD*%
M02*
