%TF.GenerationSoftware,KiCad,Pcbnew,9.0.6*%
%TF.CreationDate,2026-02-09T07:59:14-08:00*%
%TF.ProjectId,flopper_one,666c6f70-7065-4725-9f6f-6e652e6b6963,rev?*%
%TF.SameCoordinates,Original*%
%TF.FileFunction,Copper,L1,Top*%
%TF.FilePolarity,Positive*%
%FSLAX46Y46*%
G04 Gerber Fmt 4.6, Leading zero omitted, Abs format (unit mm)*
G04 Created by KiCad (PCBNEW 9.0.6) date 2026-02-09 07:59:14*
%MOMM*%
%LPD*%
G01*
G04 APERTURE LIST*
G04 Aperture macros list*
%AMRoundRect*
0 Rectangle with rounded corners*
0 $1 Rounding radius*
0 $2 $3 $4 $5 $6 $7 $8 $9 X,Y pos of 4 corners*
0 Add a 4 corners polygon primitive as box body*
4,1,4,$2,$3,$4,$5,$6,$7,$8,$9,$2,$3,0*
0 Add four circle primitives for the rounded corners*
1,1,$1+$1,$2,$3*
1,1,$1+$1,$4,$5*
1,1,$1+$1,$6,$7*
1,1,$1+$1,$8,$9*
0 Add four rect primitives between the rounded corners*
20,1,$1+$1,$2,$3,$4,$5,0*
20,1,$1+$1,$4,$5,$6,$7,0*
20,1,$1+$1,$6,$7,$8,$9,0*
20,1,$1+$1,$8,$9,$2,$3,0*%
G04 Aperture macros list end*
%TA.AperFunction,ComponentPad*%
%ADD10R,2.000000X2.000000*%
%TD*%
%TA.AperFunction,ComponentPad*%
%ADD11C,2.000000*%
%TD*%
%TA.AperFunction,SMDPad,CuDef*%
%ADD12RoundRect,0.150000X0.825000X0.150000X-0.825000X0.150000X-0.825000X-0.150000X0.825000X-0.150000X0*%
%TD*%
%TA.AperFunction,HeatsinkPad*%
%ADD13C,0.500000*%
%TD*%
%TA.AperFunction,HeatsinkPad*%
%ADD14R,2.410000X3.300000*%
%TD*%
%TA.AperFunction,ComponentPad*%
%ADD15R,1.700000X1.700000*%
%TD*%
%TA.AperFunction,ComponentPad*%
%ADD16C,1.700000*%
%TD*%
%TA.AperFunction,SMDPad,CuDef*%
%ADD17R,1.400000X1.600000*%
%TD*%
%TA.AperFunction,SMDPad,CuDef*%
%ADD18R,1.600000X1.400000*%
%TD*%
%TA.AperFunction,ComponentPad*%
%ADD19O,3.500000X2.000000*%
%TD*%
%TA.AperFunction,ComponentPad*%
%ADD20C,1.600000*%
%TD*%
%TA.AperFunction,ComponentPad*%
%ADD21R,1.800000X1.800000*%
%TD*%
%TA.AperFunction,ComponentPad*%
%ADD22C,1.800000*%
%TD*%
%TA.AperFunction,ComponentPad*%
%ADD23RoundRect,0.250000X0.750000X-0.750000X0.750000X0.750000X-0.750000X0.750000X-0.750000X-0.750000X0*%
%TD*%
%TA.AperFunction,ComponentPad*%
%ADD24RoundRect,0.250200X-0.649800X-0.649800X0.649800X-0.649800X0.649800X0.649800X-0.649800X0.649800X0*%
%TD*%
%TA.AperFunction,ComponentPad*%
%ADD25O,1.200000X1.600000*%
%TD*%
%TA.AperFunction,ComponentPad*%
%ADD26C,1.200000*%
%TD*%
%TA.AperFunction,ComponentPad*%
%ADD27RoundRect,0.250000X-0.750000X0.750000X-0.750000X-0.750000X0.750000X-0.750000X0.750000X0.750000X0*%
%TD*%
%TA.AperFunction,ViaPad*%
%ADD28C,0.600000*%
%TD*%
%TA.AperFunction,Conductor*%
%ADD29C,0.200000*%
%TD*%
G04 APERTURE END LIST*
D10*
%TO.P,U2,1,VIN*%
%TO.N,/VIN*%
X74320000Y-59250000D03*
D11*
%TO.P,U2,2,GND*%
%TO.N,GND*%
X71780000Y-59250000D03*
%TO.P,U2,3,GPIO13*%
%TO.N,unconnected-(U2-GPIO13-Pad3)*%
X69240000Y-59250000D03*
%TO.P,U2,4,GPIO12*%
%TO.N,/P4*%
X66700000Y-59250000D03*
%TO.P,U2,5,GPIO14*%
%TO.N,/P1*%
X64160000Y-59250000D03*
%TO.P,U2,6,GPIO27*%
%TO.N,/P2*%
X61620000Y-59250000D03*
%TO.P,U2,7,GPIO26*%
%TO.N,/P3*%
X59080000Y-59250000D03*
%TO.P,U2,8,GPIO25*%
%TO.N,/P5*%
X56540000Y-59250000D03*
%TO.P,U2,9,GPIO33*%
%TO.N,unconnected-(U2-GPIO33-Pad9)*%
X54000000Y-59250000D03*
%TO.P,U2,10,GPIO32*%
%TO.N,unconnected-(U2-GPIO32-Pad10)*%
X51460000Y-59250000D03*
%TO.P,U2,11,GPIO35*%
%TO.N,unconnected-(U2-GPIO35-Pad11)*%
X48920000Y-59250000D03*
%TO.P,U2,12,GPIO34*%
%TO.N,unconnected-(U2-GPIO34-Pad12)*%
X46380000Y-59250000D03*
%TO.P,U2,13,GPIO39*%
%TO.N,unconnected-(U2-GPIO39-Pad13)*%
X43840000Y-59250000D03*
%TO.P,U2,14,GPIO36*%
%TO.N,unconnected-(U2-GPIO36-Pad14)*%
X41300000Y-59250000D03*
%TO.P,U2,15,EN*%
%TO.N,unconnected-(U2-EN-Pad15)*%
X38760000Y-59250000D03*
%TO.P,U2,16,3.3v*%
%TO.N,/VCC*%
X38760000Y-84650000D03*
%TO.P,U2,17,GND*%
%TO.N,GND*%
X41300000Y-84650000D03*
%TO.P,U2,18,GPIO15*%
%TO.N,unconnected-(U2-GPIO15-Pad18)*%
X43840000Y-84650000D03*
%TO.P,U2,19,GPIO2*%
%TO.N,unconnected-(U2-GPIO2-Pad19)*%
X46380000Y-84650000D03*
%TO.P,U2,20,GPIO4*%
%TO.N,unconnected-(U2-GPIO4-Pad20)*%
X48920000Y-84650000D03*
%TO.P,U2,21,GPIO16*%
%TO.N,Net-(U2-GPIO16)*%
X51460000Y-84650000D03*
%TO.P,U2,22,GPIO17*%
%TO.N,/SDA1*%
X54000000Y-84650000D03*
%TO.P,U2,23,GPIO5*%
%TO.N,/SCL1*%
X56540000Y-84650000D03*
%TO.P,U2,24,GPIO18*%
%TO.N,/SCL2*%
X59080000Y-84650000D03*
%TO.P,U2,25,GPIO19*%
%TO.N,/SDA2*%
X61620000Y-84650000D03*
%TO.P,U2,26,GPIO21*%
%TO.N,unconnected-(U2-GPIO21-Pad26)*%
X64160000Y-84650000D03*
%TO.P,U2,27,GPIO3*%
%TO.N,unconnected-(U2-GPIO3-Pad27)*%
X66700000Y-84650000D03*
%TO.P,U2,28,GPIO1*%
%TO.N,unconnected-(U2-GPIO1-Pad28)*%
X69240000Y-84650000D03*
%TO.P,U2,29,GPIO22*%
%TO.N,unconnected-(U2-GPIO22-Pad29)*%
X71780000Y-84650000D03*
%TO.P,U2,30,GPIO23*%
%TO.N,Net-(U2-GPIO23)*%
X74320000Y-84650000D03*
%TD*%
D12*
%TO.P,U1,1,TEMP*%
%TO.N,GND*%
X93075000Y-61980000D03*
%TO.P,U1,2,PROG*%
%TO.N,Net-(U1-PROG)*%
X93075000Y-60710000D03*
%TO.P,U1,3,GND*%
%TO.N,GND*%
X93075000Y-59440000D03*
%TO.P,U1,4,V_{CC}*%
%TO.N,Net-(D2-A)*%
X93075000Y-58170000D03*
%TO.P,U1,5,BAT*%
%TO.N,/BAT+*%
X88125000Y-58170000D03*
%TO.P,U1,6,~{STDBY}*%
%TO.N,Net-(U1-~{STDBY})*%
X88125000Y-59440000D03*
%TO.P,U1,7,~{CHRG}*%
%TO.N,Net-(U1-~{CHRG})*%
X88125000Y-60710000D03*
%TO.P,U1,8,CE*%
%TO.N,Net-(D2-A)*%
X88125000Y-61980000D03*
D13*
%TO.P,U1,9,EPAD*%
%TO.N,GND*%
X91300000Y-61275000D03*
X91300000Y-60075000D03*
X91300000Y-58875000D03*
D14*
X90600000Y-60075000D03*
D13*
X89900000Y-61275000D03*
X89900000Y-60075000D03*
X89900000Y-58875000D03*
%TD*%
D15*
%TO.P,J2,1,Pin_1*%
%TO.N,GND*%
X74000000Y-33250000D03*
D16*
%TO.P,J2,2,Pin_2*%
%TO.N,/VCC*%
X74000000Y-35790000D03*
%TO.P,J2,3,Pin_3*%
%TO.N,/SCL2*%
X74000000Y-38330000D03*
%TO.P,J2,4,Pin_4*%
%TO.N,/SDA2*%
X74000000Y-40870000D03*
%TO.P,J2,5,Pin_5*%
%TO.N,unconnected-(J2-Pin_5-Pad5)*%
X74000000Y-43410000D03*
%TO.P,J2,6,Pin_6*%
%TO.N,unconnected-(J2-Pin_6-Pad6)*%
X74000000Y-45950000D03*
%TO.P,J2,7,Pin_7*%
%TO.N,/VCC*%
X74000000Y-48490000D03*
%TD*%
D17*
%TO.P,SW3,1,1*%
%TO.N,/P3*%
X104250000Y-37250000D03*
X104250000Y-45250000D03*
%TO.P,SW3,2,2*%
%TO.N,GND*%
X99750000Y-37250000D03*
X99750000Y-45250000D03*
%TD*%
D18*
%TO.P,SW1,1,1*%
%TO.N,/P1*%
X87000000Y-29000000D03*
X95000000Y-29000000D03*
%TO.P,SW1,2,2*%
%TO.N,GND*%
X87000000Y-33500000D03*
X95000000Y-33500000D03*
%TD*%
%TO.P,SW4,1,1*%
%TO.N,/P4*%
X87000000Y-49000000D03*
X95000000Y-49000000D03*
%TO.P,SW4,2,2*%
%TO.N,GND*%
X87000000Y-53500000D03*
X95000000Y-53500000D03*
%TD*%
D17*
%TO.P,SW2,1,1*%
%TO.N,/P2*%
X77750000Y-45250000D03*
X77750000Y-37250000D03*
%TO.P,SW2,2,2*%
%TO.N,GND*%
X82250000Y-45250000D03*
X82250000Y-37250000D03*
%TD*%
D19*
%TO.P,SW6,1,A*%
%TO.N,Net-(SW6-A)*%
X101000000Y-80000000D03*
%TO.P,SW6,2,B*%
%TO.N,/BAT+*%
X101000000Y-85000000D03*
%TD*%
D17*
%TO.P,SW5,1,1*%
%TO.N,/P5*%
X88750000Y-45250000D03*
X88750000Y-37250000D03*
%TO.P,SW5,2,2*%
%TO.N,GND*%
X93250000Y-45250000D03*
X93250000Y-37250000D03*
%TD*%
D20*
%TO.P,R5,1*%
%TO.N,Net-(U1-~{CHRG})*%
X104000000Y-49380000D03*
%TO.P,R5,2*%
%TO.N,Net-(D2-K)*%
X104000000Y-57000000D03*
%TD*%
D21*
%TO.P,D3,1,K*%
%TO.N,Net-(D3-K)*%
X107250000Y-80250000D03*
D22*
%TO.P,D3,2,A*%
%TO.N,Net-(D2-A)*%
X104710000Y-80250000D03*
%TD*%
D20*
%TO.P,R6,1*%
%TO.N,/VIN*%
X98380000Y-33500000D03*
%TO.P,R6,2*%
%TO.N,Net-(D2-A)*%
X106000000Y-33500000D03*
%TD*%
%TO.P,R1,1*%
%TO.N,Net-(D1-A)*%
X44130000Y-31250000D03*
%TO.P,R1,2*%
%TO.N,/VCC*%
X51750000Y-31250000D03*
%TD*%
%TO.P,R3,1*%
%TO.N,Net-(U1-PROG)*%
X105250000Y-59440000D03*
%TO.P,R3,2*%
%TO.N,GND*%
X105250000Y-67060000D03*
%TD*%
%TO.P,R4,1*%
%TO.N,Net-(U1-~{STDBY})*%
X107250000Y-49380000D03*
%TO.P,R4,2*%
%TO.N,Net-(D3-K)*%
X107250000Y-57000000D03*
%TD*%
D23*
%TO.P,C2,1*%
%TO.N,Net-(D2-A)*%
X82750000Y-81250000D03*
D11*
%TO.P,C2,2*%
%TO.N,GND*%
X82750000Y-66250000D03*
%TD*%
D24*
%TO.P,U_2,1,OUT*%
%TO.N,Net-(U2-GPIO23)*%
X42000000Y-28000000D03*
D22*
%TO.P,U_2,2,GND*%
%TO.N,GND*%
X44540000Y-28000000D03*
%TO.P,U_2,3,Vs*%
%TO.N,/VCC*%
X47080000Y-28000000D03*
%TD*%
D20*
%TO.P,R2,1*%
%TO.N,Net-(Q1-B)*%
X53000000Y-35250000D03*
%TO.P,R2,2*%
%TO.N,Net-(U2-GPIO16)*%
X45380000Y-35250000D03*
%TD*%
D25*
%TO.P,Q1,1,E*%
%TO.N,GND*%
X59460000Y-35710000D03*
D26*
%TO.P,Q1,2,B*%
%TO.N,Net-(Q1-B)*%
X62000000Y-38250000D03*
%TO.P,Q1,3,C*%
%TO.N,Net-(D1-K)*%
X59460000Y-40790000D03*
%TD*%
D21*
%TO.P,D1,1,K*%
%TO.N,Net-(D1-K)*%
X57540000Y-29250000D03*
D22*
%TO.P,D1,2,A*%
%TO.N,Net-(D1-A)*%
X55000000Y-29250000D03*
%TD*%
D15*
%TO.P,J1,1,VCC*%
%TO.N,GND*%
X74000000Y-62250000D03*
D16*
%TO.P,J1,2,RX*%
%TO.N,/VCC*%
X74000000Y-64790000D03*
%TO.P,J1,3,TX*%
%TO.N,/SDA1*%
X74000000Y-67330000D03*
%TO.P,J1,4,GND*%
%TO.N,/SCL1*%
X74000000Y-69870000D03*
%TD*%
D21*
%TO.P,D2,1,K*%
%TO.N,Net-(D2-K)*%
X107000000Y-73000000D03*
D22*
%TO.P,D2,2,A*%
%TO.N,Net-(D2-A)*%
X104460000Y-73000000D03*
%TD*%
D27*
%TO.P,C1,1*%
%TO.N,/BAT+*%
X82500000Y-48750000D03*
D11*
%TO.P,C1,2*%
%TO.N,GND*%
X82500000Y-63750000D03*
%TD*%
D28*
%TO.N,GND*%
X68000000Y-48000000D03*
X87500000Y-51750000D03*
%TO.N,Net-(U1-PROG)*%
X94500000Y-60500000D03*
%TO.N,/VIN*%
X86750000Y-79949000D03*
X67500000Y-74750000D03*
X81250000Y-55250000D03*
%TO.N,Net-(D2-A)*%
X88000000Y-62382000D03*
X95000000Y-58500000D03*
%TD*%
D29*
%TO.N,GND*%
X91300000Y-58875000D02*
X91865000Y-59440000D01*
X81000000Y-62250000D02*
X85810000Y-67060000D01*
X97000000Y-48250000D02*
X94000000Y-45250000D01*
X87500000Y-53000000D02*
X87000000Y-53500000D01*
X91865000Y-59440000D02*
X93075000Y-59440000D01*
X85810000Y-67060000D02*
X105250000Y-67060000D01*
X89900000Y-58875000D02*
X89900000Y-56400000D01*
X95000000Y-33500000D02*
X95000000Y-35500000D01*
X95000000Y-33500000D02*
X98000000Y-30500000D01*
X68000000Y-39250000D02*
X68000000Y-48000000D01*
X87000000Y-53500000D02*
X95000000Y-53500000D01*
X89900000Y-56400000D02*
X87000000Y-53500000D01*
X74238760Y-66179000D02*
X59771000Y-66179000D01*
X98000000Y-27250000D02*
X97000000Y-26250000D01*
X94000000Y-45250000D02*
X93250000Y-45250000D01*
X95000000Y-53500000D02*
X97000000Y-51500000D01*
X87500000Y-51750000D02*
X87500000Y-53000000D01*
X82250000Y-45250000D02*
X83500000Y-46500000D01*
X99750000Y-37250000D02*
X99750000Y-45250000D01*
X74000000Y-62250000D02*
X75151000Y-63401000D01*
X95000000Y-35500000D02*
X93250000Y-37250000D01*
X75151000Y-63401000D02*
X75151000Y-65266760D01*
X75151000Y-65266760D02*
X74238760Y-66179000D01*
X82250000Y-37250000D02*
X82250000Y-45250000D01*
X91805000Y-61980000D02*
X89900000Y-60075000D01*
X86000000Y-33500000D02*
X82250000Y-37250000D01*
X82750000Y-64000000D02*
X82750000Y-66750000D01*
X97000000Y-51500000D02*
X97000000Y-48250000D01*
X74000000Y-62250000D02*
X81000000Y-62250000D01*
X74000000Y-33250000D02*
X68000000Y-39250000D01*
X92000000Y-45250000D02*
X93250000Y-45250000D01*
X93250000Y-37250000D02*
X93250000Y-45250000D01*
X97000000Y-26250000D02*
X81000000Y-26250000D01*
X82500000Y-63750000D02*
X82750000Y-64000000D01*
X82750000Y-66250000D02*
X82750000Y-66750000D01*
X59771000Y-66179000D02*
X41300000Y-84650000D01*
X83500000Y-46500000D02*
X90750000Y-46500000D01*
X98000000Y-30500000D02*
X98000000Y-27250000D01*
X89900000Y-61275000D02*
X91300000Y-61275000D01*
X93250000Y-45250000D02*
X99750000Y-45250000D01*
X92000000Y-45250000D02*
X90750000Y-46500000D01*
X81000000Y-26250000D02*
X74000000Y-33250000D01*
X89900000Y-60075000D02*
X89900000Y-61275000D01*
X89900000Y-58875000D02*
X91300000Y-58875000D01*
X93075000Y-61980000D02*
X91805000Y-61980000D01*
X91300000Y-60075000D02*
X91300000Y-61275000D01*
X87000000Y-33500000D02*
X86000000Y-33500000D01*
%TO.N,/VCC*%
X58620000Y-64790000D02*
X74000000Y-64790000D01*
X37459000Y-59788892D02*
X43000000Y-65329892D01*
X37459000Y-58711108D02*
X37459000Y-59788892D01*
X71000000Y-38790000D02*
X71000000Y-45490000D01*
X43000000Y-65329892D02*
X43000000Y-80410000D01*
X72779946Y-49710054D02*
X46460054Y-49710054D01*
X74000000Y-35790000D02*
X71000000Y-38790000D01*
X43000000Y-80410000D02*
X58620000Y-64790000D01*
X71000000Y-45490000D02*
X74000000Y-48490000D01*
X46460054Y-49710054D02*
X37459000Y-58711108D01*
X38760000Y-84650000D02*
X43000000Y-80410000D01*
X74000000Y-48490000D02*
X72779946Y-49710054D01*
%TO.N,/SCL1*%
X74000000Y-69870000D02*
X71320000Y-69870000D01*
X71320000Y-69870000D02*
X56540000Y-84650000D01*
%TO.N,/SDA1*%
X74000000Y-67330000D02*
X71320000Y-67330000D01*
X71320000Y-67330000D02*
X54000000Y-84650000D01*
%TO.N,/P1*%
X80000000Y-48250000D02*
X72000000Y-56250000D01*
X72000000Y-56250000D02*
X67160000Y-56250000D01*
X67160000Y-56250000D02*
X64160000Y-59250000D01*
X87000000Y-29000000D02*
X80000000Y-36000000D01*
X87000000Y-29000000D02*
X95000000Y-29000000D01*
X80000000Y-36000000D02*
X80000000Y-48250000D01*
%TO.N,/P2*%
X77750000Y-45250000D02*
X77750000Y-48500000D01*
X77750000Y-48500000D02*
X71000000Y-55250000D01*
X65620000Y-55250000D02*
X61620000Y-59250000D01*
X77750000Y-37250000D02*
X77750000Y-45250000D01*
X71000000Y-55250000D02*
X65620000Y-55250000D01*
%TO.N,/P3*%
X107808525Y-61558525D02*
X105411050Y-63956000D01*
X107808525Y-58191475D02*
X107808525Y-61558525D01*
X83046709Y-61521000D02*
X81513291Y-61521000D01*
X83597000Y-62071291D02*
X83046709Y-61521000D01*
X109000000Y-47500000D02*
X109000000Y-57000000D01*
X104250000Y-37250000D02*
X104250000Y-45250000D01*
X84549857Y-63784000D02*
X83597000Y-62831143D01*
X85534000Y-63784000D02*
X84549857Y-63784000D01*
X83597000Y-62831143D02*
X83597000Y-62071291D01*
X109000000Y-57000000D02*
X107808525Y-58191475D01*
X81513291Y-61521000D02*
X81091291Y-61099000D01*
X106750000Y-45250000D02*
X109000000Y-47500000D01*
X81091291Y-61099000D02*
X60929000Y-61099000D01*
X104250000Y-45250000D02*
X106750000Y-45250000D01*
X105411050Y-63956000D02*
X85706000Y-63956000D01*
X85706000Y-63956000D02*
X85534000Y-63784000D01*
X60929000Y-61099000D02*
X59080000Y-59250000D01*
%TO.N,/P4*%
X68700000Y-57250000D02*
X66700000Y-59250000D01*
X86250000Y-49000000D02*
X84250000Y-47000000D01*
X80500000Y-48750000D02*
X72000000Y-57250000D01*
X81000000Y-47000000D02*
X80500000Y-47500000D01*
X87000000Y-49000000D02*
X86250000Y-49000000D01*
X72000000Y-57250000D02*
X68700000Y-57250000D01*
X84250000Y-47000000D02*
X81000000Y-47000000D01*
X87000000Y-49000000D02*
X95000000Y-49000000D01*
X80500000Y-47500000D02*
X80500000Y-48750000D01*
%TO.N,/P5*%
X76000000Y-36898000D02*
X76000000Y-49250000D01*
X97000000Y-30250000D02*
X97000000Y-28250000D01*
X94875000Y-31125000D02*
X96125000Y-31125000D01*
X85648000Y-27250000D02*
X76000000Y-36898000D01*
X96125000Y-31125000D02*
X97000000Y-30250000D01*
X88750000Y-37250000D02*
X94875000Y-31125000D01*
X76000000Y-49250000D02*
X71000000Y-54250000D01*
X61540000Y-54250000D02*
X56540000Y-59250000D01*
X96000000Y-27250000D02*
X85648000Y-27250000D01*
X97000000Y-28250000D02*
X96000000Y-27250000D01*
X71000000Y-54250000D02*
X61540000Y-54250000D01*
X88750000Y-37250000D02*
X88750000Y-45250000D01*
%TO.N,Net-(U1-~{STDBY})*%
X103692100Y-54192100D02*
X103692100Y-52937900D01*
X83998000Y-62665043D02*
X84715957Y-63383000D01*
X94500000Y-63383000D02*
X95633000Y-62250000D01*
X83998000Y-61252000D02*
X83998000Y-62665043D01*
X88125000Y-59440000D02*
X85810000Y-59440000D01*
X103692100Y-52937900D02*
X107250000Y-49380000D01*
X103692100Y-54192100D02*
X95633600Y-62250600D01*
X85810000Y-59440000D02*
X83998000Y-61252000D01*
X84715957Y-63383000D02*
X94500000Y-63383000D01*
%TO.N,Net-(U1-~{CHRG})*%
X84882057Y-62982000D02*
X94335100Y-62982000D01*
X94335100Y-62982000D02*
X99815000Y-57502100D01*
X99815000Y-53565000D02*
X104000000Y-49380000D01*
X88125000Y-60710000D02*
X85540000Y-60710000D01*
X84399000Y-62498943D02*
X84882057Y-62982000D01*
X99815000Y-57502100D02*
X99815000Y-53565000D01*
X85540000Y-60710000D02*
X84399000Y-61851000D01*
X84399000Y-61851000D02*
X84399000Y-62498943D01*
%TO.N,Net-(U1-PROG)*%
X93075000Y-60710000D02*
X94290000Y-60710000D01*
X94290000Y-60710000D02*
X94500000Y-60500000D01*
%TO.N,/BAT+*%
X82750000Y-49000000D02*
X82500000Y-48750000D01*
X88125000Y-58170000D02*
X82750000Y-52795000D01*
X82750000Y-52795000D02*
X82750000Y-49000000D01*
%TO.N,/VIN*%
X86699000Y-80000000D02*
X83786160Y-80000000D01*
X72750000Y-80000000D02*
X67500000Y-74750000D01*
X77250000Y-59250000D02*
X74320000Y-59250000D01*
X83735160Y-79949000D02*
X81764840Y-79949000D01*
X81250000Y-55250000D02*
X77250000Y-59250000D01*
X86750000Y-79949000D02*
X86699000Y-80000000D01*
X81764840Y-79949000D02*
X81713840Y-80000000D01*
X83786160Y-80000000D02*
X83735160Y-79949000D01*
X81713840Y-80000000D02*
X72750000Y-80000000D01*
%TO.N,Net-(D2-A)*%
X88125000Y-62257000D02*
X88000000Y-62382000D01*
X88125000Y-61980000D02*
X88125000Y-62257000D01*
X95101000Y-61570968D02*
X94090968Y-62581000D01*
X95101000Y-58601000D02*
X95101000Y-61570968D01*
X102899000Y-48346000D02*
X93075000Y-58170000D01*
X82750000Y-81250000D02*
X82801000Y-81301000D01*
X103659000Y-81301000D02*
X104710000Y-80250000D01*
X95000000Y-58500000D02*
X95101000Y-58601000D01*
X106000000Y-33500000D02*
X102899000Y-36601000D01*
X102899000Y-36601000D02*
X102899000Y-48346000D01*
X94670000Y-58170000D02*
X93075000Y-58170000D01*
X94090968Y-62581000D02*
X88726000Y-62581000D01*
X104460000Y-80000000D02*
X104710000Y-80250000D01*
X88726000Y-62581000D02*
X88125000Y-61980000D01*
X95000000Y-58500000D02*
X94670000Y-58170000D01*
X104460000Y-73000000D02*
X104460000Y-80000000D01*
X82801000Y-81301000D02*
X103659000Y-81301000D01*
%TD*%
M02*
