M48
; DRILL file {KiCad 9.0.6} date 2026-02-22T14:07:01-0800
; FORMAT={-:-/ absolute / metric / decimal}
; #@! TF.CreationDate,2026-02-22T14:07:01-08:00
; #@! TF.GenerationSoftware,Kicad,Pcbnew,9.0.6
; #@! TF.FileFunction,MixedPlating,1,2
FMAT,2
METRIC
; #@! TA.AperFunction,Plated,PTH,ViaDrill
T1C0.300
; #@! TA.AperFunction,Plated,PTH,ComponentDrill
T2C0.300
; #@! TA.AperFunction,Plated,PTH,ComponentDrill
T3C0.700
; #@! TA.AperFunction,Plated,PTH,ComponentDrill
T4C0.800
; #@! TA.AperFunction,Plated,PTH,ComponentDrill
T5C0.900
; #@! TA.AperFunction,Plated,PTH,ComponentDrill
T6C1.000
; #@! TA.AperFunction,Plated,PTH,ComponentDrill
T7C1.020
; #@! TA.AperFunction,Plated,PTH,ComponentDrill
T8C1.500
; #@! TA.AperFunction,NonPlated,NPTH,ComponentDrill
T9C3.000
%
G90
G05
T1
X68.0Y-43.5
X70.865Y-72.615
X71.635Y-74.385
X80.0Y-78.72
X87.5Y-51.5
X94.5Y-60.25
X95.0Y-58.25
T2
X89.9Y-58.625
X89.9Y-59.825
X89.9Y-61.025
X91.3Y-58.625
X91.3Y-59.825
X91.3Y-61.025
T3
X59.46Y-35.46
X59.46Y-40.54
X62.0Y-38.0
T4
X44.13Y-31.0
X45.38Y-35.0
X51.75Y-31.0
X53.0Y-35.0
X104.0Y-49.13
X104.0Y-56.75
X105.25Y-59.19
X105.25Y-66.81
X107.25Y-49.13
X107.25Y-56.75
T5
X42.0Y-27.75
X44.54Y-27.75
X47.08Y-27.75
X55.0Y-29.0
X57.54Y-29.0
X104.46Y-72.75
X104.71Y-79.25
X107.0Y-72.75
X107.25Y-79.25
T6
X74.0Y-33.0
X74.0Y-35.54
X74.0Y-38.08
X74.0Y-40.62
X74.0Y-43.16
X74.0Y-45.7
X74.0Y-48.24
X74.0Y-62.0
X74.0Y-64.54
X74.0Y-67.08
X74.0Y-69.62
X82.5Y-48.5
X82.5Y-63.5
X82.75Y-66.0
X82.75Y-81.0
T7
X38.76Y-59.0
X38.76Y-84.4
X41.3Y-59.0
X41.3Y-84.4
X43.84Y-59.0
X43.84Y-84.4
X46.38Y-59.0
X46.38Y-84.4
X48.92Y-59.0
X48.92Y-84.4
X51.46Y-59.0
X51.46Y-84.4
X54.0Y-59.0
X54.0Y-84.4
X56.54Y-59.0
X56.54Y-84.4
X59.08Y-59.0
X59.08Y-84.4
X61.62Y-59.0
X61.62Y-84.4
X64.16Y-59.0
X64.16Y-84.4
X66.7Y-59.0
X66.7Y-84.4
X69.24Y-59.0
X69.24Y-84.4
X71.78Y-59.0
X71.78Y-84.4
X74.32Y-59.0
X74.32Y-84.4
T9
X35.33Y-59.42
X35.33Y-83.93
X82.28Y-59.42
X82.28Y-83.93
T8
X101.5Y-84.75G85X101.5Y-83.25
G05
X106.5Y-84.75G85X106.5Y-83.25
G05
M30
