%TF.GenerationSoftware,KiCad,Pcbnew,9.0.6*%
%TF.CreationDate,2026-02-26T17:16:06-08:00*%
%TF.ProjectId,flopper_one,666c6f70-7065-4725-9f6f-6e652e6b6963,rev?*%
%TF.SameCoordinates,Original*%
%TF.FileFunction,Soldermask,Top*%
%TF.FilePolarity,Negative*%
%FSLAX46Y46*%
G04 Gerber Fmt 4.6, Leading zero omitted, Abs format (unit mm)*
G04 Created by KiCad (PCBNEW 9.0.6) date 2026-02-26 17:16:06*
%MOMM*%
%LPD*%
G01*
G04 APERTURE LIST*
G04 Aperture macros list*
%AMRoundRect*
0 Rectangle with rounded corners*
0 $1 Rounding radius*
0 $2 $3 $4 $5 $6 $7 $8 $9 X,Y pos of 4 corners*
0 Add a 4 corners polygon primitive as box body*
4,1,4,$2,$3,$4,$5,$6,$7,$8,$9,$2,$3,0*
0 Add four circle primitives for the rounded corners*
1,1,$1+$1,$2,$3*
1,1,$1+$1,$4,$5*
1,1,$1+$1,$6,$7*
1,1,$1+$1,$8,$9*
0 Add four rect primitives between the rounded corners*
20,1,$1+$1,$2,$3,$4,$5,0*
20,1,$1+$1,$4,$5,$6,$7,0*
20,1,$1+$1,$6,$7,$8,$9,0*
20,1,$1+$1,$8,$9,$2,$3,0*%
G04 Aperture macros list end*
%ADD10C,3.000000*%
%ADD11RoundRect,0.102000X-1.000000X1.000000X-1.000000X-1.000000X1.000000X-1.000000X1.000000X1.000000X0*%
%ADD12C,2.204000*%
%ADD13RoundRect,0.150000X0.825000X0.150000X-0.825000X0.150000X-0.825000X-0.150000X0.825000X-0.150000X0*%
%ADD14R,2.410000X3.300000*%
%ADD15R,1.700000X1.700000*%
%ADD16C,1.700000*%
%ADD17R,1.400000X1.600000*%
%ADD18R,1.600000X1.400000*%
%ADD19O,2.000000X3.500000*%
%ADD20C,1.600000*%
%ADD21R,1.800000X1.800000*%
%ADD22C,1.800000*%
%ADD23RoundRect,0.250000X0.750000X-0.750000X0.750000X0.750000X-0.750000X0.750000X-0.750000X-0.750000X0*%
%ADD24C,2.000000*%
%ADD25RoundRect,0.250200X-0.649800X-0.649800X0.649800X-0.649800X0.649800X0.649800X-0.649800X0.649800X0*%
%ADD26O,1.200000X1.600000*%
%ADD27C,1.200000*%
%ADD28RoundRect,0.250000X-0.750000X0.750000X-0.750000X-0.750000X0.750000X-0.750000X0.750000X0.750000X0*%
G04 APERTURE END LIST*
D10*
%TO.C,U2*%
X82280000Y-59420000D03*
X35330000Y-59420000D03*
X82280000Y-83930000D03*
X35330000Y-83930000D03*
D11*
X74320000Y-59000000D03*
D12*
X71780000Y-59000000D03*
X69240000Y-59000000D03*
X66700000Y-59000000D03*
X64160000Y-59000000D03*
X61620000Y-59000000D03*
X59080000Y-59000000D03*
X56540000Y-59000000D03*
X54000000Y-59000000D03*
X51460000Y-59000000D03*
X48920000Y-59000000D03*
X46380000Y-59000000D03*
X43840000Y-59000000D03*
X41300000Y-59000000D03*
X38760000Y-59000000D03*
X38760000Y-84400000D03*
X41300000Y-84400000D03*
X43840000Y-84400000D03*
X46380000Y-84400000D03*
X48920000Y-84400000D03*
X51460000Y-84400000D03*
X54000000Y-84400000D03*
X56540000Y-84400000D03*
X59080000Y-84400000D03*
X61620000Y-84400000D03*
X64160000Y-84400000D03*
X66700000Y-84400000D03*
X69240000Y-84400000D03*
X71780000Y-84400000D03*
X74320000Y-84400000D03*
%TD*%
D13*
%TO.C,U1*%
X93075000Y-61730000D03*
X93075000Y-60460000D03*
X93075000Y-59190000D03*
X93075000Y-57920000D03*
X88125000Y-57920000D03*
X88125000Y-59190000D03*
X88125000Y-60460000D03*
X88125000Y-61730000D03*
D14*
X90600000Y-59825000D03*
%TD*%
D15*
%TO.C,J2*%
X74000000Y-33000000D03*
D16*
X74000000Y-35540000D03*
X74000000Y-38080000D03*
X74000000Y-40620000D03*
X74000000Y-43160000D03*
X74000000Y-45700000D03*
X74000000Y-48240000D03*
%TD*%
D17*
%TO.C,SW3*%
X104250000Y-37000000D03*
X104250000Y-45000000D03*
X99750000Y-37000000D03*
X99750000Y-45000000D03*
%TD*%
D18*
%TO.C,SW1*%
X87000000Y-28750000D03*
X95000000Y-28750000D03*
X87000000Y-33250000D03*
X95000000Y-33250000D03*
%TD*%
%TO.C,SW4*%
X87000000Y-48750000D03*
X95000000Y-48750000D03*
X87000000Y-53250000D03*
X95000000Y-53250000D03*
%TD*%
D17*
%TO.C,SW2*%
X77750000Y-45000000D03*
X77750000Y-37000000D03*
X82250000Y-45000000D03*
X82250000Y-37000000D03*
%TD*%
D19*
%TO.C,SW6*%
X106500000Y-84000000D03*
X101500000Y-84000000D03*
%TD*%
D17*
%TO.C,SW5*%
X88750000Y-45000000D03*
X88750000Y-37000000D03*
X93250000Y-45000000D03*
X93250000Y-37000000D03*
%TD*%
D20*
%TO.C,R5*%
X104000000Y-49130000D03*
X104000000Y-56750000D03*
%TD*%
D21*
%TO.C,D3*%
X107250000Y-79250000D03*
D22*
X104710000Y-79250000D03*
%TD*%
D20*
%TO.C,R1*%
X44130000Y-31000000D03*
X51750000Y-31000000D03*
%TD*%
%TO.C,R3*%
X105250000Y-59190000D03*
X105250000Y-66810000D03*
%TD*%
%TO.C,R4*%
X107250000Y-49130000D03*
X107250000Y-56750000D03*
%TD*%
D23*
%TO.C,C2*%
X82750000Y-81000000D03*
D24*
X82750000Y-66000000D03*
%TD*%
D25*
%TO.C,U_2*%
X42000000Y-27750000D03*
D22*
X44540000Y-27750000D03*
X47080000Y-27750000D03*
%TD*%
D20*
%TO.C,R2*%
X53000000Y-35000000D03*
X45380000Y-35000000D03*
%TD*%
D26*
%TO.C,Q1*%
X59460000Y-35460000D03*
D27*
X62000000Y-38000000D03*
X59460000Y-40540000D03*
%TD*%
D21*
%TO.C,D1*%
X57540000Y-29000000D03*
D22*
X55000000Y-29000000D03*
%TD*%
D15*
%TO.C,J1*%
X74000000Y-62000000D03*
D16*
X74000000Y-64540000D03*
X74000000Y-67080000D03*
X74000000Y-69620000D03*
%TD*%
D21*
%TO.C,D2*%
X107000000Y-72750000D03*
D22*
X104460000Y-72750000D03*
%TD*%
D28*
%TO.C,C1*%
X82500000Y-48500000D03*
D24*
X82500000Y-63500000D03*
%TD*%
M02*
