%TF.GenerationSoftware,KiCad,Pcbnew,9.0.6*%
%TF.CreationDate,2026-02-10T17:26:14-08:00*%
%TF.ProjectId,flopper_one,666c6f70-7065-4725-9f6f-6e652e6b6963,rev?*%
%TF.SameCoordinates,Original*%
%TF.FileFunction,Copper,L2,Bot*%
%TF.FilePolarity,Positive*%
%FSLAX46Y46*%
G04 Gerber Fmt 4.6, Leading zero omitted, Abs format (unit mm)*
G04 Created by KiCad (PCBNEW 9.0.6) date 2026-02-10 17:26:14*
%MOMM*%
%LPD*%
G01*
G04 APERTURE LIST*
G04 Aperture macros list*
%AMRoundRect*
0 Rectangle with rounded corners*
0 $1 Rounding radius*
0 $2 $3 $4 $5 $6 $7 $8 $9 X,Y pos of 4 corners*
0 Add a 4 corners polygon primitive as box body*
4,1,4,$2,$3,$4,$5,$6,$7,$8,$9,$2,$3,0*
0 Add four circle primitives for the rounded corners*
1,1,$1+$1,$2,$3*
1,1,$1+$1,$4,$5*
1,1,$1+$1,$6,$7*
1,1,$1+$1,$8,$9*
0 Add four rect primitives between the rounded corners*
20,1,$1+$1,$2,$3,$4,$5,0*
20,1,$1+$1,$4,$5,$6,$7,0*
20,1,$1+$1,$6,$7,$8,$9,0*
20,1,$1+$1,$8,$9,$2,$3,0*%
G04 Aperture macros list end*
%TA.AperFunction,Conductor*%
%ADD10C,0.100000*%
%TD*%
%TA.AperFunction,Conductor*%
%ADD11C,0.200000*%
%TD*%
%TA.AperFunction,ComponentPad*%
%ADD12R,2.000000X2.000000*%
%TD*%
%TA.AperFunction,ComponentPad*%
%ADD13C,2.000000*%
%TD*%
%TA.AperFunction,HeatsinkPad*%
%ADD14C,0.500000*%
%TD*%
%TA.AperFunction,HeatsinkPad*%
%ADD15R,1.900000X2.900000*%
%TD*%
%TA.AperFunction,ComponentPad*%
%ADD16R,1.700000X1.700000*%
%TD*%
%TA.AperFunction,ComponentPad*%
%ADD17C,1.700000*%
%TD*%
%TA.AperFunction,ComponentPad*%
%ADD18O,3.500000X2.000000*%
%TD*%
%TA.AperFunction,ComponentPad*%
%ADD19C,1.600000*%
%TD*%
%TA.AperFunction,ComponentPad*%
%ADD20R,1.800000X1.800000*%
%TD*%
%TA.AperFunction,ComponentPad*%
%ADD21C,1.800000*%
%TD*%
%TA.AperFunction,SMDPad,CuDef*%
%ADD22RoundRect,0.750000X0.750000X-1.750000X0.750000X1.750000X-0.750000X1.750000X-0.750000X-1.750000X0*%
%TD*%
%TA.AperFunction,ComponentPad*%
%ADD23RoundRect,0.250000X0.750000X-0.750000X0.750000X0.750000X-0.750000X0.750000X-0.750000X-0.750000X0*%
%TD*%
%TA.AperFunction,ComponentPad*%
%ADD24RoundRect,0.250200X-0.649800X-0.649800X0.649800X-0.649800X0.649800X0.649800X-0.649800X0.649800X0*%
%TD*%
%TA.AperFunction,ComponentPad*%
%ADD25O,1.200000X1.600000*%
%TD*%
%TA.AperFunction,ComponentPad*%
%ADD26C,1.200000*%
%TD*%
%TA.AperFunction,ComponentPad*%
%ADD27RoundRect,0.250000X-0.750000X0.750000X-0.750000X-0.750000X0.750000X-0.750000X0.750000X0.750000X0*%
%TD*%
%TA.AperFunction,ViaPad*%
%ADD28C,0.600000*%
%TD*%
%TA.AperFunction,Conductor*%
%ADD29C,0.500000*%
%TD*%
G04 APERTURE END LIST*
%TO.N,/BAT+*%
D10*
X81875000Y-42750000D02*
X85750000Y-42750000D01*
X85750000Y-46875000D01*
X81875000Y-46875000D01*
X81875000Y-42750000D01*
%TA.AperFunction,Conductor*%
G36*
X81875000Y-42750000D02*
G01*
X85750000Y-42750000D01*
X85750000Y-46875000D01*
X81875000Y-46875000D01*
X81875000Y-42750000D01*
G37*
%TD.AperFunction*%
%TO.N,GND*%
D11*
X87062500Y-43375000D02*
X91437500Y-43375000D01*
X91437500Y-47625000D01*
X87062500Y-47625000D01*
X87062500Y-43375000D01*
%TA.AperFunction,Conductor*%
G36*
X87062500Y-43375000D02*
G01*
X91437500Y-43375000D01*
X91437500Y-47625000D01*
X87062500Y-47625000D01*
X87062500Y-43375000D01*
G37*
%TD.AperFunction*%
%TD*%
D12*
%TO.P,U2,1,VIN*%
%TO.N,/CE*%
X74320000Y-59250000D03*
D13*
%TO.P,U2,2,GND*%
%TO.N,GND*%
X71780000Y-59250000D03*
%TO.P,U2,3,GPIO13*%
%TO.N,unconnected-(U2-GPIO13-Pad3)*%
X69240000Y-59250000D03*
%TO.P,U2,4,GPIO12*%
%TO.N,/P4*%
X66700000Y-59250000D03*
%TO.P,U2,5,GPIO14*%
%TO.N,/P1*%
X64160000Y-59250000D03*
%TO.P,U2,6,GPIO27*%
%TO.N,/P2*%
X61620000Y-59250000D03*
%TO.P,U2,7,GPIO26*%
%TO.N,/P3*%
X59080000Y-59250000D03*
%TO.P,U2,8,GPIO25*%
%TO.N,/P5*%
X56540000Y-59250000D03*
%TO.P,U2,9,GPIO33*%
%TO.N,unconnected-(U2-GPIO33-Pad9)*%
X54000000Y-59250000D03*
%TO.P,U2,10,GPIO32*%
%TO.N,unconnected-(U2-GPIO32-Pad10)*%
X51460000Y-59250000D03*
%TO.P,U2,11,GPIO35*%
%TO.N,unconnected-(U2-GPIO35-Pad11)*%
X48920000Y-59250000D03*
%TO.P,U2,12,GPIO34*%
%TO.N,unconnected-(U2-GPIO34-Pad12)*%
X46380000Y-59250000D03*
%TO.P,U2,13,GPIO39*%
%TO.N,unconnected-(U2-GPIO39-Pad13)*%
X43840000Y-59250000D03*
%TO.P,U2,14,GPIO36*%
%TO.N,unconnected-(U2-GPIO36-Pad14)*%
X41300000Y-59250000D03*
%TO.P,U2,15,EN*%
%TO.N,unconnected-(U2-EN-Pad15)*%
X38760000Y-59250000D03*
%TO.P,U2,16,3.3v*%
%TO.N,/VCC*%
X38760000Y-84650000D03*
%TO.P,U2,17,GND*%
%TO.N,GND*%
X41300000Y-84650000D03*
%TO.P,U2,18,GPIO15*%
%TO.N,unconnected-(U2-GPIO15-Pad18)*%
X43840000Y-84650000D03*
%TO.P,U2,19,GPIO2*%
%TO.N,unconnected-(U2-GPIO2-Pad19)*%
X46380000Y-84650000D03*
%TO.P,U2,20,GPIO4*%
%TO.N,unconnected-(U2-GPIO4-Pad20)*%
X48920000Y-84650000D03*
%TO.P,U2,21,GPIO16*%
%TO.N,Net-(U2-GPIO16)*%
X51460000Y-84650000D03*
%TO.P,U2,22,GPIO17*%
%TO.N,/SDA1*%
X54000000Y-84650000D03*
%TO.P,U2,23,GPIO5*%
%TO.N,/SCL1*%
X56540000Y-84650000D03*
%TO.P,U2,24,GPIO18*%
%TO.N,/SCL2*%
X59080000Y-84650000D03*
%TO.P,U2,25,GPIO19*%
%TO.N,/SDA2*%
X61620000Y-84650000D03*
%TO.P,U2,26,GPIO21*%
%TO.N,unconnected-(U2-GPIO21-Pad26)*%
X64160000Y-84650000D03*
%TO.P,U2,27,GPIO3*%
%TO.N,unconnected-(U2-GPIO3-Pad27)*%
X66700000Y-84650000D03*
%TO.P,U2,28,GPIO1*%
%TO.N,unconnected-(U2-GPIO1-Pad28)*%
X69240000Y-84650000D03*
%TO.P,U2,29,GPIO22*%
%TO.N,unconnected-(U2-GPIO22-Pad29)*%
X71780000Y-84650000D03*
%TO.P,U2,30,GPIO23*%
%TO.N,Net-(U2-GPIO23)*%
X74320000Y-84650000D03*
%TD*%
D14*
%TO.P,U1,9,EPAD*%
%TO.N,GND*%
X91300000Y-61275000D03*
X91300000Y-60075000D03*
X91300000Y-58875000D03*
D15*
X90600000Y-60075000D03*
D14*
X89900000Y-61275000D03*
X89900000Y-60075000D03*
X89900000Y-58875000D03*
%TD*%
D16*
%TO.P,J2,1,Pin_1*%
%TO.N,GND*%
X74000000Y-33250000D03*
D17*
%TO.P,J2,2,Pin_2*%
%TO.N,/VCC*%
X74000000Y-35790000D03*
%TO.P,J2,3,Pin_3*%
%TO.N,/SCL2*%
X74000000Y-38330000D03*
%TO.P,J2,4,Pin_4*%
%TO.N,/SDA2*%
X74000000Y-40870000D03*
%TO.P,J2,5,Pin_5*%
%TO.N,unconnected-(J2-Pin_5-Pad5)*%
X74000000Y-43410000D03*
%TO.P,J2,6,Pin_6*%
%TO.N,unconnected-(J2-Pin_6-Pad6)*%
X74000000Y-45950000D03*
%TO.P,J2,7,Pin_7*%
%TO.N,/VCC*%
X74000000Y-48490000D03*
%TD*%
D18*
%TO.P,SW6,1,A*%
%TO.N,Net-(SW6-A)*%
X101000000Y-80000000D03*
%TO.P,SW6,2,B*%
%TO.N,/BAT+*%
X101000000Y-85000000D03*
%TD*%
D19*
%TO.P,R5,1*%
%TO.N,Net-(U1-~{CHRG})*%
X104000000Y-49380000D03*
%TO.P,R5,2*%
%TO.N,Net-(D2-K)*%
X104000000Y-57000000D03*
%TD*%
D20*
%TO.P,D3,1,K*%
%TO.N,Net-(D3-K)*%
X107250000Y-80250000D03*
D21*
%TO.P,D3,2,A*%
%TO.N,/CE*%
X104710000Y-80250000D03*
%TD*%
D22*
%TO.P,U4,1,VOUT+*%
%TO.N,/CE*%
X97050000Y-83500000D03*
%TO.P,U4,2,VOUT-*%
%TO.N,GND*%
X90250000Y-83500000D03*
%TO.P,U4,3,VIN-*%
X90250000Y-53000000D03*
%TO.P,U4,4,VIN+*%
%TO.N,Net-(SW6-A)*%
X97050000Y-53000000D03*
%TD*%
D19*
%TO.P,R1,1*%
%TO.N,Net-(D1-A)*%
X44130000Y-31250000D03*
%TO.P,R1,2*%
%TO.N,/VCC*%
X51750000Y-31250000D03*
%TD*%
%TO.P,R3,1*%
%TO.N,Net-(U1-PROG)*%
X105250000Y-59440000D03*
%TO.P,R3,2*%
%TO.N,GND*%
X105250000Y-67060000D03*
%TD*%
%TO.P,R4,1*%
%TO.N,Net-(U1-~{STDBY})*%
X107250000Y-49380000D03*
%TO.P,R4,2*%
%TO.N,Net-(D3-K)*%
X107250000Y-57000000D03*
%TD*%
D23*
%TO.P,C2,1*%
%TO.N,/CE*%
X82750000Y-81250000D03*
D13*
%TO.P,C2,2*%
%TO.N,GND*%
X82750000Y-66250000D03*
%TD*%
D24*
%TO.P,U_2,1,OUT*%
%TO.N,Net-(U2-GPIO23)*%
X42000000Y-28000000D03*
D21*
%TO.P,U_2,2,GND*%
%TO.N,GND*%
X44540000Y-28000000D03*
%TO.P,U_2,3,Vs*%
%TO.N,/VCC*%
X47080000Y-28000000D03*
%TD*%
D19*
%TO.P,R2,1*%
%TO.N,Net-(Q1-B)*%
X53000000Y-35250000D03*
%TO.P,R2,2*%
%TO.N,Net-(U2-GPIO16)*%
X45380000Y-35250000D03*
%TD*%
D25*
%TO.P,Q1,1,E*%
%TO.N,GND*%
X59460000Y-35710000D03*
D26*
%TO.P,Q1,2,B*%
%TO.N,Net-(Q1-B)*%
X62000000Y-38250000D03*
%TO.P,Q1,3,C*%
%TO.N,Net-(D1-K)*%
X59460000Y-40790000D03*
%TD*%
D20*
%TO.P,D1,1,K*%
%TO.N,Net-(D1-K)*%
X57540000Y-29250000D03*
D21*
%TO.P,D1,2,A*%
%TO.N,Net-(D1-A)*%
X55000000Y-29250000D03*
%TD*%
D16*
%TO.P,J1,1,VCC*%
%TO.N,GND*%
X74000000Y-62250000D03*
D17*
%TO.P,J1,2,RX*%
%TO.N,/VCC*%
X74000000Y-64790000D03*
%TO.P,J1,3,TX*%
%TO.N,/SDA1*%
X74000000Y-67330000D03*
%TO.P,J1,4,GND*%
%TO.N,/SCL1*%
X74000000Y-69870000D03*
%TD*%
D20*
%TO.P,D2,1,K*%
%TO.N,Net-(D2-K)*%
X107000000Y-73000000D03*
D21*
%TO.P,D2,2,A*%
%TO.N,/CE*%
X104460000Y-73000000D03*
%TD*%
D27*
%TO.P,C1,1*%
%TO.N,/BAT+*%
X82500000Y-48750000D03*
D13*
%TO.P,C1,2*%
%TO.N,GND*%
X82500000Y-63750000D03*
%TD*%
D28*
%TO.N,GND*%
X68000000Y-43750000D03*
X87500000Y-51750000D03*
%TO.N,/SDA2*%
X71635000Y-74635000D03*
%TO.N,/SCL2*%
X70865000Y-72865000D03*
%TO.N,Net-(U2-GPIO23)*%
X80000000Y-78970000D03*
%TO.N,Net-(U1-PROG)*%
X94500000Y-60500000D03*
%TO.N,/CE*%
X95000000Y-58500000D03*
%TD*%
D11*
%TO.N,Net-(D1-A)*%
X45882000Y-33942000D02*
X54308000Y-33942000D01*
X45882000Y-33942000D02*
X45882000Y-33002000D01*
X45882000Y-33002000D02*
X44130000Y-31250000D01*
X54308000Y-33942000D02*
X55000000Y-33250000D01*
X55000000Y-33250000D02*
X55000000Y-29250000D01*
%TO.N,Net-(D1-K)*%
X57540000Y-38870000D02*
X59460000Y-40790000D01*
X57540000Y-29250000D02*
X57540000Y-38870000D01*
%TO.N,GND*%
X82750000Y-78963840D02*
X82750000Y-66250000D01*
D29*
X68000000Y-43750000D02*
X68000000Y-55470000D01*
D11*
X90250000Y-49375000D02*
X90250000Y-53000000D01*
X51956000Y-46231000D02*
X41040000Y-35315000D01*
D29*
X68000000Y-55470000D02*
X71780000Y-59250000D01*
D11*
X103051000Y-85538892D02*
X102288892Y-86301000D01*
X87625000Y-46750000D02*
X90250000Y-49375000D01*
X73523240Y-36941000D02*
X74476760Y-36941000D01*
X105250000Y-67060000D02*
X105661000Y-67471000D01*
X87286160Y-83500000D02*
X82750000Y-78963840D01*
X90250000Y-53000000D02*
X88750000Y-53000000D01*
X64233240Y-43483240D02*
X64233240Y-46231000D01*
X103051000Y-76107471D02*
X103051000Y-85538892D01*
X64233240Y-46231000D02*
X51956000Y-46231000D01*
D29*
X72750000Y-62250000D02*
X71780000Y-61280000D01*
X74000000Y-62250000D02*
X72750000Y-62250000D01*
D11*
X64233240Y-46231000D02*
X73523240Y-36941000D01*
X105661000Y-73497471D02*
X103051000Y-76107471D01*
X90250000Y-83500000D02*
X87286160Y-83500000D01*
X88750000Y-53000000D02*
X87500000Y-51750000D01*
X59460000Y-38710000D02*
X64233240Y-43483240D01*
X105661000Y-67471000D02*
X105661000Y-73497471D01*
X59460000Y-35710000D02*
X59460000Y-38710000D01*
D29*
X71780000Y-61280000D02*
X71780000Y-59250000D01*
D11*
X41040000Y-35315000D02*
X41040000Y-31777100D01*
X75151000Y-36266760D02*
X75151000Y-34401000D01*
X44540000Y-28277100D02*
X44540000Y-28000000D01*
X74476760Y-36941000D02*
X75151000Y-36266760D01*
X75151000Y-34401000D02*
X74000000Y-33250000D01*
X41040000Y-31777100D02*
X44540000Y-28277100D01*
%TO.N,/VCC*%
X50000000Y-26250000D02*
X50000000Y-26500000D01*
X47080000Y-28000000D02*
X47080000Y-29170000D01*
X50000000Y-26500000D02*
X51750000Y-28250000D01*
X51750000Y-28250000D02*
X51750000Y-31250000D01*
X47000000Y-29250000D02*
X50000000Y-26250000D01*
X50000000Y-26250000D02*
X64460000Y-26250000D01*
X47080000Y-29170000D02*
X47000000Y-29250000D01*
X64460000Y-26250000D02*
X74000000Y-35790000D01*
%TO.N,Net-(Q1-B)*%
X58741000Y-28049000D02*
X56339000Y-28049000D01*
X56339000Y-28049000D02*
X56339000Y-33911000D01*
X56339000Y-33911000D02*
X55000000Y-35250000D01*
X55000000Y-35250000D02*
X53000000Y-35250000D01*
X62000000Y-38250000D02*
X62000000Y-31308000D01*
X62000000Y-31308000D02*
X58741000Y-28049000D01*
%TO.N,Net-(U2-GPIO16)*%
X44621950Y-29201000D02*
X45037471Y-29201000D01*
X42789000Y-32659000D02*
X42789000Y-31033950D01*
X42789000Y-31033950D02*
X44621950Y-29201000D01*
X51460000Y-73789892D02*
X51460000Y-84650000D01*
X45741000Y-28497471D02*
X45741000Y-27491000D01*
X45741000Y-27491000D02*
X45049000Y-26799000D01*
X37459000Y-34791000D02*
X37459000Y-59788892D01*
X45380000Y-35250000D02*
X42789000Y-32659000D01*
X45049000Y-26799000D02*
X44042529Y-26799000D01*
X43250000Y-27591529D02*
X43250000Y-29000000D01*
X45037471Y-29201000D02*
X45741000Y-28497471D01*
X43250000Y-29000000D02*
X37459000Y-34791000D01*
X37459000Y-59788892D02*
X51460000Y-73789892D01*
X44042529Y-26799000D02*
X43250000Y-27591529D01*
%TO.N,/SDA2*%
X78750000Y-60500000D02*
X78750000Y-57000000D01*
X72000000Y-74270000D02*
X71635000Y-74635000D01*
X76500000Y-62750000D02*
X78750000Y-60500000D01*
X72000000Y-74250000D02*
X72000000Y-74270000D01*
X72000000Y-42870000D02*
X72000000Y-50250000D01*
X76500000Y-72500000D02*
X76500000Y-62750000D01*
X74750000Y-74250000D02*
X76500000Y-72500000D01*
X74000000Y-40870000D02*
X72000000Y-42870000D01*
X74750000Y-74250000D02*
X72000000Y-74250000D01*
X72000000Y-50250000D02*
X78750000Y-57000000D01*
%TO.N,/SCL2*%
X71480000Y-72250000D02*
X70865000Y-72865000D01*
X76000000Y-56250000D02*
X76000000Y-71500000D01*
X76000000Y-71500000D02*
X75250000Y-72250000D01*
X75250000Y-72250000D02*
X71480000Y-72250000D01*
X69500000Y-42830000D02*
X69500000Y-49750000D01*
X69500000Y-49750000D02*
X76000000Y-56250000D01*
X74000000Y-38330000D02*
X69500000Y-42830000D01*
%TO.N,Net-(U2-GPIO23)*%
X72000000Y-25250000D02*
X44750000Y-25250000D01*
X80000000Y-78970000D02*
X80000000Y-60257709D01*
X80125000Y-33375000D02*
X72000000Y-25250000D01*
X44750000Y-25250000D02*
X42000000Y-28000000D01*
X80125000Y-60132709D02*
X80125000Y-33375000D01*
X80000000Y-60257709D02*
X80125000Y-60132709D01*
%TO.N,Net-(D2-K)*%
X104000000Y-57000000D02*
X105500000Y-57000000D01*
X107250000Y-73000000D02*
X107000000Y-73000000D01*
X105500000Y-57000000D02*
X107500000Y-59000000D01*
X107500000Y-59000000D02*
X107500000Y-72750000D01*
X107500000Y-72750000D02*
X107250000Y-73000000D01*
%TO.N,Net-(D3-K)*%
X107750000Y-79750000D02*
X107750000Y-75250000D01*
X107250000Y-80250000D02*
X107750000Y-79750000D01*
X108701000Y-58451000D02*
X107250000Y-57000000D01*
X107750000Y-75250000D02*
X108701000Y-74299000D01*
X108701000Y-74299000D02*
X108701000Y-58451000D01*
%TO.N,Net-(U1-PROG)*%
X95560000Y-59440000D02*
X94500000Y-60500000D01*
X105250000Y-59440000D02*
X95560000Y-59440000D01*
D29*
%TO.N,/BAT+*%
X98799000Y-81049000D02*
X101000000Y-83250000D01*
X98949000Y-75449000D02*
X98799000Y-75599000D01*
X101000000Y-83250000D02*
X101000000Y-85000000D01*
X82750000Y-51750000D02*
X86250000Y-55250000D01*
D11*
X82500000Y-48750000D02*
X82750000Y-49000000D01*
D29*
X98799000Y-75599000D02*
X98799000Y-81049000D01*
X82500000Y-45812500D02*
X82500000Y-48750000D01*
X86250000Y-55250000D02*
X86250000Y-62750000D01*
D11*
X83500000Y-44812500D02*
X82500000Y-45812500D01*
D29*
X86250000Y-62750000D02*
X98949000Y-75449000D01*
X82750000Y-49000000D02*
X82750000Y-51750000D01*
%TO.N,Net-(SW6-A)*%
X93250000Y-65250000D02*
X93250000Y-56800000D01*
X101000000Y-73000000D02*
X93250000Y-65250000D01*
X101000000Y-80000000D02*
X101000000Y-73000000D01*
X93250000Y-56800000D02*
X97050000Y-53000000D01*
%TO.N,/CE*%
X70551000Y-71699000D02*
X69375000Y-72875000D01*
D11*
X93899000Y-59601000D02*
X95000000Y-58500000D01*
D29*
X74250000Y-71699000D02*
X70551000Y-71699000D01*
X75449000Y-70500000D02*
X74250000Y-71699000D01*
X79201000Y-86451000D02*
X94099000Y-86451000D01*
X69375000Y-72875000D02*
X69375000Y-76625000D01*
X94099000Y-86451000D02*
X97050000Y-83500000D01*
X75151000Y-60151000D02*
X74750000Y-59750000D01*
D11*
X104460000Y-73000000D02*
X93899000Y-62439000D01*
D29*
X75449000Y-60379000D02*
X75449000Y-70500000D01*
D11*
X93899000Y-62439000D02*
X93899000Y-59601000D01*
D29*
X74320000Y-59250000D02*
X75449000Y-60379000D01*
X69375000Y-76625000D02*
X79201000Y-86451000D01*
%TD*%
%TA.AperFunction,Conductor*%
%TO.N,GND*%
G36*
X109168834Y-74782914D02*
G01*
X109224767Y-74824786D01*
X109249184Y-74890250D01*
X109249500Y-74899096D01*
X109249500Y-86625500D01*
X109229815Y-86692539D01*
X109177011Y-86738294D01*
X109125500Y-86749500D01*
X95161230Y-86749500D01*
X95094191Y-86729815D01*
X95048436Y-86677011D01*
X95038492Y-86607853D01*
X95067517Y-86544297D01*
X95073539Y-86537828D01*
X95364374Y-86246992D01*
X95425693Y-86213510D01*
X95495385Y-86218494D01*
X95522668Y-86232748D01*
X95595696Y-86283342D01*
X95680374Y-86342007D01*
X95885317Y-86435096D01*
X95885321Y-86435097D01*
X96103579Y-86490094D01*
X96103581Y-86490094D01*
X96103588Y-86490096D01*
X96235783Y-86500500D01*
X97864216Y-86500499D01*
X97996412Y-86490096D01*
X98214683Y-86435096D01*
X98419626Y-86342007D01*
X98604654Y-86213819D01*
X98763819Y-86054654D01*
X98858424Y-85918099D01*
X98912782Y-85874204D01*
X98982244Y-85866664D01*
X99044755Y-85897875D01*
X99060668Y-85915828D01*
X99105483Y-85977510D01*
X99272490Y-86144517D01*
X99463567Y-86283343D01*
X99562991Y-86334002D01*
X99674003Y-86390566D01*
X99674005Y-86390566D01*
X99674008Y-86390568D01*
X99794412Y-86429689D01*
X99898631Y-86463553D01*
X100131903Y-86500500D01*
X100131908Y-86500500D01*
X101868097Y-86500500D01*
X102101368Y-86463553D01*
X102325992Y-86390568D01*
X102536433Y-86283343D01*
X102727510Y-86144517D01*
X102894517Y-85977510D01*
X103033343Y-85786433D01*
X103140568Y-85575992D01*
X103213553Y-85351368D01*
X103219440Y-85314197D01*
X103250500Y-85118097D01*
X103250500Y-84881902D01*
X103213553Y-84648631D01*
X103172482Y-84522229D01*
X103140568Y-84424008D01*
X103140566Y-84424005D01*
X103140566Y-84424003D01*
X103033342Y-84213566D01*
X102979893Y-84140000D01*
X102894517Y-84022490D01*
X102727510Y-83855483D01*
X102536433Y-83716657D01*
X102325996Y-83609433D01*
X102101368Y-83536446D01*
X101868089Y-83499498D01*
X101864765Y-83499237D01*
X101863576Y-83498783D01*
X101863280Y-83498737D01*
X101863289Y-83498674D01*
X101799478Y-83474351D01*
X101758010Y-83418118D01*
X101750500Y-83375620D01*
X101750500Y-83176079D01*
X101721659Y-83031092D01*
X101721658Y-83031091D01*
X101721658Y-83031087D01*
X101718445Y-83023330D01*
X101665085Y-82894507D01*
X101665048Y-82894451D01*
X101587468Y-82778344D01*
X101587467Y-82778339D01*
X101587466Y-82778340D01*
X101582953Y-82771585D01*
X100523549Y-81712181D01*
X100490064Y-81650858D01*
X100495048Y-81581166D01*
X100536920Y-81525233D01*
X100602384Y-81500816D01*
X100611230Y-81500500D01*
X101868097Y-81500500D01*
X102101368Y-81463553D01*
X102149804Y-81447815D01*
X102325992Y-81390568D01*
X102536433Y-81283343D01*
X102727510Y-81144517D01*
X102894517Y-80977510D01*
X103033343Y-80786433D01*
X103128481Y-80599713D01*
X103176454Y-80548918D01*
X103244275Y-80532123D01*
X103310410Y-80554660D01*
X103353862Y-80609375D01*
X103356896Y-80617691D01*
X103412103Y-80787603D01*
X103412104Y-80787606D01*
X103480122Y-80921096D01*
X103508867Y-80977511D01*
X103512187Y-80984025D01*
X103641752Y-81162358D01*
X103641756Y-81162363D01*
X103797636Y-81318243D01*
X103797641Y-81318247D01*
X103899606Y-81392328D01*
X103975978Y-81447815D01*
X104104375Y-81513237D01*
X104172393Y-81547895D01*
X104172396Y-81547896D01*
X104274793Y-81581166D01*
X104382049Y-81616015D01*
X104599778Y-81650500D01*
X104599779Y-81650500D01*
X104820221Y-81650500D01*
X104820222Y-81650500D01*
X105037951Y-81616015D01*
X105247606Y-81547895D01*
X105444022Y-81447815D01*
X105622365Y-81318242D01*
X105672536Y-81268070D01*
X105733857Y-81234586D01*
X105803548Y-81239570D01*
X105859482Y-81281441D01*
X105876398Y-81312419D01*
X105906202Y-81392328D01*
X105906206Y-81392335D01*
X105992452Y-81507544D01*
X105992455Y-81507547D01*
X106107664Y-81593793D01*
X106107671Y-81593797D01*
X106242517Y-81644091D01*
X106242516Y-81644091D01*
X106249444Y-81644835D01*
X106302127Y-81650500D01*
X108197872Y-81650499D01*
X108257483Y-81644091D01*
X108392331Y-81593796D01*
X108507546Y-81507546D01*
X108593796Y-81392331D01*
X108644091Y-81257483D01*
X108650500Y-81197873D01*
X108650499Y-79302128D01*
X108644091Y-79242517D01*
X108633293Y-79213567D01*
X108593797Y-79107671D01*
X108593793Y-79107664D01*
X108507547Y-78992455D01*
X108400188Y-78912085D01*
X108358318Y-78856151D01*
X108350500Y-78812819D01*
X108350500Y-75550096D01*
X108370185Y-75483057D01*
X108386815Y-75462419D01*
X109037819Y-74811414D01*
X109099142Y-74777930D01*
X109168834Y-74782914D01*
G37*
%TD.AperFunction*%
%TA.AperFunction,Conductor*%
G36*
X109192539Y-24770185D02*
G01*
X109238294Y-24822989D01*
X109249500Y-24874500D01*
X109249500Y-57850903D01*
X109229815Y-57917942D01*
X109177011Y-57963697D01*
X109107853Y-57973641D01*
X109044297Y-57944616D01*
X109037819Y-57938584D01*
X108544077Y-57444842D01*
X108510592Y-57383519D01*
X108513828Y-57318841D01*
X108518477Y-57304534D01*
X108550500Y-57102352D01*
X108550500Y-56897648D01*
X108518477Y-56695466D01*
X108455220Y-56500781D01*
X108455218Y-56500778D01*
X108455218Y-56500776D01*
X108421503Y-56434607D01*
X108362287Y-56318390D01*
X108354556Y-56307749D01*
X108241971Y-56152786D01*
X108097213Y-56008028D01*
X107931613Y-55887715D01*
X107931612Y-55887714D01*
X107931610Y-55887713D01*
X107874653Y-55858691D01*
X107749223Y-55794781D01*
X107554534Y-55731522D01*
X107379995Y-55703878D01*
X107352352Y-55699500D01*
X107147648Y-55699500D01*
X107123329Y-55703351D01*
X106945465Y-55731522D01*
X106750776Y-55794781D01*
X106568386Y-55887715D01*
X106402786Y-56008028D01*
X106258028Y-56152786D01*
X106137715Y-56318386D01*
X106056129Y-56478506D01*
X106047221Y-56487936D01*
X106042268Y-56499928D01*
X106023690Y-56512851D01*
X106008154Y-56529302D01*
X105995561Y-56532420D01*
X105984912Y-56539829D01*
X105962297Y-56540657D01*
X105940333Y-56546097D01*
X105926443Y-56541971D01*
X105915089Y-56542388D01*
X105894962Y-56532621D01*
X105882469Y-56528911D01*
X105871873Y-56522637D01*
X105868716Y-56519480D01*
X105781904Y-56469360D01*
X105731785Y-56440423D01*
X105579057Y-56399499D01*
X105420943Y-56399499D01*
X105413347Y-56399499D01*
X105413331Y-56399500D01*
X105229602Y-56399500D01*
X105162563Y-56379815D01*
X105119117Y-56331795D01*
X105112284Y-56318385D01*
X104991971Y-56152786D01*
X104847213Y-56008028D01*
X104681613Y-55887715D01*
X104681612Y-55887714D01*
X104681610Y-55887713D01*
X104624653Y-55858691D01*
X104499223Y-55794781D01*
X104304534Y-55731522D01*
X104129995Y-55703878D01*
X104102352Y-55699500D01*
X103897648Y-55699500D01*
X103873329Y-55703351D01*
X103695465Y-55731522D01*
X103500776Y-55794781D01*
X103318386Y-55887715D01*
X103152786Y-56008028D01*
X103008028Y-56152786D01*
X102887715Y-56318386D01*
X102794781Y-56500776D01*
X102731522Y-56695465D01*
X102699500Y-56897648D01*
X102699500Y-57102351D01*
X102731522Y-57304534D01*
X102794781Y-57499223D01*
X102846385Y-57600500D01*
X102885775Y-57677807D01*
X102887715Y-57681613D01*
X103008028Y-57847213D01*
X103152786Y-57991971D01*
X103296877Y-58096657D01*
X103318390Y-58112287D01*
X103418748Y-58163422D01*
X103500776Y-58205218D01*
X103500778Y-58205218D01*
X103500781Y-58205220D01*
X103591757Y-58234780D01*
X103695465Y-58268477D01*
X103742313Y-58275897D01*
X103897648Y-58300500D01*
X103897649Y-58300500D01*
X104102351Y-58300500D01*
X104102352Y-58300500D01*
X104257685Y-58275897D01*
X104326977Y-58284851D01*
X104380429Y-58329847D01*
X104401069Y-58396599D01*
X104382344Y-58463913D01*
X104364764Y-58486051D01*
X104258027Y-58592788D01*
X104137715Y-58758385D01*
X104130883Y-58771795D01*
X104082909Y-58822591D01*
X104020398Y-58839500D01*
X95899746Y-58839500D01*
X95832707Y-58819815D01*
X95786952Y-58767011D01*
X95777008Y-58697853D01*
X95778129Y-58691308D01*
X95800500Y-58578844D01*
X95800500Y-58421155D01*
X95800499Y-58421153D01*
X95782337Y-58329847D01*
X95769737Y-58266503D01*
X95760938Y-58245261D01*
X95709397Y-58120827D01*
X95709390Y-58120814D01*
X95621789Y-57989711D01*
X95621786Y-57989707D01*
X95510292Y-57878213D01*
X95510288Y-57878210D01*
X95379185Y-57790609D01*
X95379172Y-57790602D01*
X95233501Y-57730264D01*
X95233489Y-57730261D01*
X95078845Y-57699500D01*
X95078842Y-57699500D01*
X94921158Y-57699500D01*
X94921155Y-57699500D01*
X94766510Y-57730261D01*
X94766498Y-57730264D01*
X94620827Y-57790602D01*
X94620814Y-57790609D01*
X94489711Y-57878210D01*
X94489707Y-57878213D01*
X94378213Y-57989707D01*
X94378210Y-57989711D01*
X94290609Y-58120814D01*
X94290602Y-58120827D01*
X94239061Y-58245261D01*
X94195220Y-58299665D01*
X94128926Y-58321730D01*
X94061227Y-58304451D01*
X94013616Y-58253314D01*
X94000500Y-58197809D01*
X94000500Y-57162229D01*
X94020185Y-57095190D01*
X94036819Y-57074548D01*
X94670944Y-56440423D01*
X95364373Y-55746993D01*
X95425694Y-55713510D01*
X95495386Y-55718494D01*
X95522668Y-55732748D01*
X95575685Y-55769478D01*
X95680374Y-55842007D01*
X95885317Y-55935096D01*
X95885321Y-55935097D01*
X96103579Y-55990094D01*
X96103581Y-55990094D01*
X96103588Y-55990096D01*
X96235783Y-56000500D01*
X97864216Y-56000499D01*
X97996412Y-55990096D01*
X98214683Y-55935096D01*
X98419626Y-55842007D01*
X98604654Y-55713819D01*
X98763819Y-55554654D01*
X98892007Y-55369626D01*
X98985096Y-55164683D01*
X99040096Y-54946412D01*
X99050500Y-54814217D01*
X99050499Y-51185784D01*
X99040096Y-51053588D01*
X98985096Y-50835317D01*
X98892007Y-50630374D01*
X98764048Y-50445676D01*
X98763825Y-50445354D01*
X98763822Y-50445350D01*
X98763819Y-50445346D01*
X98604654Y-50286181D01*
X98604650Y-50286178D01*
X98604645Y-50286174D01*
X98419632Y-50157997D01*
X98419630Y-50157995D01*
X98419626Y-50157993D01*
X98215724Y-50065377D01*
X98214681Y-50064903D01*
X98214678Y-50064902D01*
X97996420Y-50009905D01*
X97996413Y-50009904D01*
X97952347Y-50006436D01*
X97864217Y-49999500D01*
X97864215Y-49999500D01*
X96235791Y-49999500D01*
X96235776Y-49999501D01*
X96103586Y-50009904D01*
X96103579Y-50009905D01*
X95885321Y-50064902D01*
X95885318Y-50064903D01*
X95680377Y-50157991D01*
X95680367Y-50157997D01*
X95495354Y-50286174D01*
X95495342Y-50286184D01*
X95336184Y-50445342D01*
X95336174Y-50445354D01*
X95207997Y-50630367D01*
X95207991Y-50630377D01*
X95114903Y-50835318D01*
X95114902Y-50835321D01*
X95059905Y-51053579D01*
X95059904Y-51053586D01*
X95049500Y-51185777D01*
X95049500Y-53887769D01*
X95029815Y-53954808D01*
X95013181Y-53975450D01*
X92667050Y-56321580D01*
X92667044Y-56321588D01*
X92617812Y-56395268D01*
X92617813Y-56395269D01*
X92584921Y-56444496D01*
X92584914Y-56444508D01*
X92528342Y-56581086D01*
X92528340Y-56581092D01*
X92499500Y-56726079D01*
X92499500Y-56726082D01*
X92499500Y-65323918D01*
X92499500Y-65323920D01*
X92499499Y-65323920D01*
X92528340Y-65468907D01*
X92528343Y-65468917D01*
X92584914Y-65605492D01*
X92617812Y-65654727D01*
X92617813Y-65654730D01*
X92667046Y-65728414D01*
X92667052Y-65728421D01*
X100213181Y-73274548D01*
X100246666Y-73335871D01*
X100249500Y-73362229D01*
X100249500Y-78375620D01*
X100229815Y-78442659D01*
X100177011Y-78488414D01*
X100135235Y-78499237D01*
X100131910Y-78499498D01*
X99898630Y-78536447D01*
X99898627Y-78536447D01*
X99711818Y-78597146D01*
X99641977Y-78599141D01*
X99582144Y-78563061D01*
X99551316Y-78500360D01*
X99549500Y-78479215D01*
X99549500Y-75938766D01*
X99569185Y-75871727D01*
X99570398Y-75869875D01*
X99614084Y-75804494D01*
X99670658Y-75667913D01*
X99682204Y-75609868D01*
X99699500Y-75522919D01*
X99699500Y-75375082D01*
X99699499Y-75375081D01*
X99690345Y-75329057D01*
X99670658Y-75230087D01*
X99614084Y-75093506D01*
X99531952Y-74970584D01*
X99531947Y-74970579D01*
X99531947Y-74970578D01*
X87036819Y-62475450D01*
X87003334Y-62414127D01*
X87000500Y-62387769D01*
X87000500Y-61952577D01*
X89575975Y-61952577D01*
X89681236Y-61996178D01*
X89681240Y-61996179D01*
X89826126Y-62024999D01*
X89826129Y-62025000D01*
X89973871Y-62025000D01*
X89973873Y-62024999D01*
X90118760Y-61996179D01*
X90118775Y-61996175D01*
X90224024Y-61952578D01*
X90224024Y-61952577D01*
X90975975Y-61952577D01*
X91081236Y-61996178D01*
X91081240Y-61996179D01*
X91226126Y-62024999D01*
X91226129Y-62025000D01*
X91373871Y-62025000D01*
X91373873Y-62024999D01*
X91518760Y-61996179D01*
X91518775Y-61996175D01*
X91624024Y-61952578D01*
X91624024Y-61952577D01*
X91300001Y-61628554D01*
X91300000Y-61628554D01*
X90975975Y-61952577D01*
X90224024Y-61952577D01*
X89900001Y-61628554D01*
X89900000Y-61628554D01*
X89575975Y-61952577D01*
X87000500Y-61952577D01*
X87000500Y-61201126D01*
X89150000Y-61201126D01*
X89150000Y-61348873D01*
X89178820Y-61493759D01*
X89178822Y-61493767D01*
X89222421Y-61599024D01*
X89546446Y-61275000D01*
X89546446Y-61274999D01*
X89516610Y-61245163D01*
X89750000Y-61245163D01*
X89750000Y-61304837D01*
X89772836Y-61359968D01*
X89815032Y-61402164D01*
X89870163Y-61425000D01*
X89929837Y-61425000D01*
X89984968Y-61402164D01*
X90027164Y-61359968D01*
X90050000Y-61304837D01*
X90050000Y-61274999D01*
X90253554Y-61274999D01*
X90253554Y-61275001D01*
X90577929Y-61599376D01*
X90622069Y-61599376D01*
X90946446Y-61275000D01*
X90916609Y-61245163D01*
X91150000Y-61245163D01*
X91150000Y-61304837D01*
X91172836Y-61359968D01*
X91215032Y-61402164D01*
X91270163Y-61425000D01*
X91329837Y-61425000D01*
X91384968Y-61402164D01*
X91427164Y-61359968D01*
X91450000Y-61304837D01*
X91450000Y-61274999D01*
X91653554Y-61274999D01*
X91653554Y-61275001D01*
X91977577Y-61599024D01*
X91977578Y-61599024D01*
X92021175Y-61493775D01*
X92021179Y-61493760D01*
X92049999Y-61348873D01*
X92050000Y-61348871D01*
X92050000Y-61201128D01*
X92049999Y-61201126D01*
X92021179Y-61056240D01*
X92021178Y-61056236D01*
X91977577Y-60950975D01*
X91653554Y-61274999D01*
X91450000Y-61274999D01*
X91450000Y-61245163D01*
X91427164Y-61190032D01*
X91384968Y-61147836D01*
X91329837Y-61125000D01*
X91270163Y-61125000D01*
X91215032Y-61147836D01*
X91172836Y-61190032D01*
X91150000Y-61245163D01*
X90916609Y-61245163D01*
X90622068Y-60950622D01*
X90577930Y-60950622D01*
X90253554Y-61274999D01*
X90050000Y-61274999D01*
X90050000Y-61245163D01*
X90027164Y-61190032D01*
X89984968Y-61147836D01*
X89929837Y-61125000D01*
X89870163Y-61125000D01*
X89815032Y-61147836D01*
X89772836Y-61190032D01*
X89750000Y-61245163D01*
X89516610Y-61245163D01*
X89222421Y-60950974D01*
X89222420Y-60950974D01*
X89178823Y-61056228D01*
X89178820Y-61056240D01*
X89150000Y-61201126D01*
X87000500Y-61201126D01*
X87000500Y-60675000D01*
X89653554Y-60675000D01*
X89900000Y-60921446D01*
X90146446Y-60675000D01*
X91053554Y-60675000D01*
X91300000Y-60921446D01*
X91546446Y-60675000D01*
X91300000Y-60428554D01*
X91053554Y-60675000D01*
X90146446Y-60675000D01*
X89900000Y-60428554D01*
X89653554Y-60675000D01*
X87000500Y-60675000D01*
X87000500Y-60001126D01*
X89150000Y-60001126D01*
X89150000Y-60148873D01*
X89178820Y-60293759D01*
X89178822Y-60293767D01*
X89222421Y-60399024D01*
X89546446Y-60075000D01*
X89546446Y-60074999D01*
X89516610Y-60045163D01*
X89750000Y-60045163D01*
X89750000Y-60104837D01*
X89772836Y-60159968D01*
X89815032Y-60202164D01*
X89870163Y-60225000D01*
X89929837Y-60225000D01*
X89984968Y-60202164D01*
X90027164Y-60159968D01*
X90050000Y-60104837D01*
X90050000Y-60074999D01*
X90253554Y-60074999D01*
X90253554Y-60075001D01*
X90577929Y-60399376D01*
X90622069Y-60399376D01*
X90946446Y-60075000D01*
X90916609Y-60045163D01*
X91150000Y-60045163D01*
X91150000Y-60104837D01*
X91172836Y-60159968D01*
X91215032Y-60202164D01*
X91270163Y-60225000D01*
X91329837Y-60225000D01*
X91384968Y-60202164D01*
X91427164Y-60159968D01*
X91450000Y-60104837D01*
X91450000Y-60074999D01*
X91653554Y-60074999D01*
X91653554Y-60075001D01*
X91977577Y-60399024D01*
X91977578Y-60399024D01*
X92021175Y-60293775D01*
X92021179Y-60293760D01*
X92049999Y-60148873D01*
X92050000Y-60148871D01*
X92050000Y-60001128D01*
X92049999Y-60001126D01*
X92021179Y-59856240D01*
X92021178Y-59856236D01*
X91977577Y-59750975D01*
X91653554Y-60074999D01*
X91450000Y-60074999D01*
X91450000Y-60045163D01*
X91427164Y-59990032D01*
X91384968Y-59947836D01*
X91329837Y-59925000D01*
X91270163Y-59925000D01*
X91215032Y-59947836D01*
X91172836Y-59990032D01*
X91150000Y-60045163D01*
X90916609Y-60045163D01*
X90622068Y-59750622D01*
X90577930Y-59750622D01*
X90253554Y-60074999D01*
X90050000Y-60074999D01*
X90050000Y-60045163D01*
X90027164Y-59990032D01*
X89984968Y-59947836D01*
X89929837Y-59925000D01*
X89870163Y-59925000D01*
X89815032Y-59947836D01*
X89772836Y-59990032D01*
X89750000Y-60045163D01*
X89516610Y-60045163D01*
X89222421Y-59750974D01*
X89222420Y-59750974D01*
X89178823Y-59856228D01*
X89178820Y-59856240D01*
X89150000Y-60001126D01*
X87000500Y-60001126D01*
X87000500Y-59475000D01*
X89653554Y-59475000D01*
X89900000Y-59721446D01*
X90146446Y-59475000D01*
X91053554Y-59475000D01*
X91300000Y-59721446D01*
X91546446Y-59475000D01*
X91300000Y-59228554D01*
X91053554Y-59475000D01*
X90146446Y-59475000D01*
X89900000Y-59228554D01*
X89653554Y-59475000D01*
X87000500Y-59475000D01*
X87000500Y-58801126D01*
X89150000Y-58801126D01*
X89150000Y-58948873D01*
X89178820Y-59093759D01*
X89178822Y-59093767D01*
X89222421Y-59199024D01*
X89546446Y-58875000D01*
X89546446Y-58874999D01*
X89516610Y-58845163D01*
X89750000Y-58845163D01*
X89750000Y-58904837D01*
X89772836Y-58959968D01*
X89815032Y-59002164D01*
X89870163Y-59025000D01*
X89929837Y-59025000D01*
X89984968Y-59002164D01*
X90027164Y-58959968D01*
X90050000Y-58904837D01*
X90050000Y-58874999D01*
X90253554Y-58874999D01*
X90253554Y-58875001D01*
X90577929Y-59199376D01*
X90622069Y-59199376D01*
X90946446Y-58875000D01*
X90916609Y-58845163D01*
X91150000Y-58845163D01*
X91150000Y-58904837D01*
X91172836Y-58959968D01*
X91215032Y-59002164D01*
X91270163Y-59025000D01*
X91329837Y-59025000D01*
X91384968Y-59002164D01*
X91427164Y-58959968D01*
X91450000Y-58904837D01*
X91450000Y-58874999D01*
X91653554Y-58874999D01*
X91653554Y-58875001D01*
X91977577Y-59199024D01*
X91977578Y-59199024D01*
X92021175Y-59093775D01*
X92021179Y-59093760D01*
X92049999Y-58948873D01*
X92050000Y-58948871D01*
X92050000Y-58801128D01*
X92049999Y-58801126D01*
X92021179Y-58656240D01*
X92021178Y-58656236D01*
X91977577Y-58550975D01*
X91653554Y-58874999D01*
X91450000Y-58874999D01*
X91450000Y-58845163D01*
X91427164Y-58790032D01*
X91384968Y-58747836D01*
X91329837Y-58725000D01*
X91270163Y-58725000D01*
X91215032Y-58747836D01*
X91172836Y-58790032D01*
X91150000Y-58845163D01*
X90916609Y-58845163D01*
X90622068Y-58550622D01*
X90577930Y-58550622D01*
X90253554Y-58874999D01*
X90050000Y-58874999D01*
X90050000Y-58845163D01*
X90027164Y-58790032D01*
X89984968Y-58747836D01*
X89929837Y-58725000D01*
X89870163Y-58725000D01*
X89815032Y-58747836D01*
X89772836Y-58790032D01*
X89750000Y-58845163D01*
X89516610Y-58845163D01*
X89222421Y-58550974D01*
X89222420Y-58550974D01*
X89178823Y-58656228D01*
X89178820Y-58656240D01*
X89150000Y-58801126D01*
X87000500Y-58801126D01*
X87000500Y-58197420D01*
X89575974Y-58197420D01*
X89575974Y-58197421D01*
X89900000Y-58521446D01*
X89900001Y-58521446D01*
X90224024Y-58197421D01*
X90224022Y-58197420D01*
X90975974Y-58197420D01*
X90975974Y-58197421D01*
X91300000Y-58521446D01*
X91300001Y-58521446D01*
X91624024Y-58197421D01*
X91518767Y-58153822D01*
X91518759Y-58153820D01*
X91373872Y-58125000D01*
X91226128Y-58125000D01*
X91081240Y-58153820D01*
X91081228Y-58153823D01*
X90975974Y-58197420D01*
X90224022Y-58197420D01*
X90118767Y-58153822D01*
X90118759Y-58153820D01*
X89973872Y-58125000D01*
X89826128Y-58125000D01*
X89681240Y-58153820D01*
X89681228Y-58153823D01*
X89575974Y-58197420D01*
X87000500Y-58197420D01*
X87000500Y-55176079D01*
X86971659Y-55031092D01*
X86971658Y-55031091D01*
X86971658Y-55031087D01*
X86936585Y-54946412D01*
X86915087Y-54894511D01*
X86915080Y-54894498D01*
X86861424Y-54814197D01*
X88250001Y-54814197D01*
X88260400Y-54946332D01*
X88315377Y-55164519D01*
X88408428Y-55369374D01*
X88408431Y-55369380D01*
X88536559Y-55554323D01*
X88536569Y-55554335D01*
X88695664Y-55713430D01*
X88695676Y-55713440D01*
X88880619Y-55841568D01*
X88880625Y-55841571D01*
X89085480Y-55934622D01*
X89303667Y-55989599D01*
X89435810Y-55999999D01*
X89999999Y-55999999D01*
X90500000Y-55999999D01*
X91064182Y-55999999D01*
X91064197Y-55999998D01*
X91196332Y-55989599D01*
X91414519Y-55934622D01*
X91619374Y-55841571D01*
X91619380Y-55841568D01*
X91804323Y-55713440D01*
X91804335Y-55713430D01*
X91963430Y-55554335D01*
X91963440Y-55554323D01*
X92091568Y-55369380D01*
X92091571Y-55369374D01*
X92184622Y-55164519D01*
X92239599Y-54946332D01*
X92249999Y-54814196D01*
X92250000Y-54814184D01*
X92250000Y-53250000D01*
X90500000Y-53250000D01*
X90500000Y-55999999D01*
X89999999Y-55999999D01*
X90000000Y-55999998D01*
X90000000Y-53250000D01*
X88250001Y-53250000D01*
X88250001Y-54814197D01*
X86861424Y-54814197D01*
X86832952Y-54771585D01*
X86832951Y-54771584D01*
X86728416Y-54667049D01*
X83536819Y-51475451D01*
X83522115Y-51448523D01*
X83505523Y-51422705D01*
X83504631Y-51416504D01*
X83503334Y-51414128D01*
X83500500Y-51387770D01*
X83500500Y-51185803D01*
X88250000Y-51185803D01*
X88250000Y-52750000D01*
X90000000Y-52750000D01*
X90500000Y-52750000D01*
X92249999Y-52750000D01*
X92249999Y-51185817D01*
X92249998Y-51185802D01*
X92239599Y-51053667D01*
X92184622Y-50835480D01*
X92091571Y-50630625D01*
X92091568Y-50630619D01*
X91963440Y-50445676D01*
X91963430Y-50445664D01*
X91804335Y-50286569D01*
X91804323Y-50286559D01*
X91619380Y-50158431D01*
X91619374Y-50158428D01*
X91414519Y-50065377D01*
X91196332Y-50010400D01*
X91064196Y-50000000D01*
X90500000Y-50000000D01*
X90500000Y-52750000D01*
X90000000Y-52750000D01*
X90000000Y-50000000D01*
X89435817Y-50000000D01*
X89435802Y-50000001D01*
X89303667Y-50010400D01*
X89085480Y-50065377D01*
X88880625Y-50158428D01*
X88880619Y-50158431D01*
X88695676Y-50286559D01*
X88695664Y-50286569D01*
X88536569Y-50445664D01*
X88536559Y-50445676D01*
X88408431Y-50630619D01*
X88408428Y-50630625D01*
X88315377Y-50835480D01*
X88260400Y-51053667D01*
X88250000Y-51185803D01*
X83500500Y-51185803D01*
X83500500Y-50295908D01*
X83520185Y-50228869D01*
X83564271Y-50190363D01*
X83563187Y-50188605D01*
X83569332Y-50184814D01*
X83569334Y-50184814D01*
X83718656Y-50092712D01*
X83842712Y-49968656D01*
X83934814Y-49819334D01*
X83989999Y-49652797D01*
X84000500Y-49550009D01*
X84000500Y-49277648D01*
X102699500Y-49277648D01*
X102699500Y-49482351D01*
X102731522Y-49684534D01*
X102794781Y-49879223D01*
X102887715Y-50061613D01*
X103008028Y-50227213D01*
X103152786Y-50371971D01*
X103307749Y-50484556D01*
X103318390Y-50492287D01*
X103434607Y-50551503D01*
X103500776Y-50585218D01*
X103500778Y-50585218D01*
X103500781Y-50585220D01*
X103605137Y-50619127D01*
X103695465Y-50648477D01*
X103796557Y-50664488D01*
X103897648Y-50680500D01*
X103897649Y-50680500D01*
X104102351Y-50680500D01*
X104102352Y-50680500D01*
X104304534Y-50648477D01*
X104499219Y-50585220D01*
X104681610Y-50492287D01*
X104843733Y-50374499D01*
X104847213Y-50371971D01*
X104847215Y-50371968D01*
X104847219Y-50371966D01*
X104991966Y-50227219D01*
X104991968Y-50227215D01*
X104991971Y-50227213D01*
X105089690Y-50092712D01*
X105112287Y-50061610D01*
X105205220Y-49879219D01*
X105268477Y-49684534D01*
X105300500Y-49482352D01*
X105300500Y-49277648D01*
X105949500Y-49277648D01*
X105949500Y-49482351D01*
X105981522Y-49684534D01*
X106044781Y-49879223D01*
X106137715Y-50061613D01*
X106258028Y-50227213D01*
X106402786Y-50371971D01*
X106557749Y-50484556D01*
X106568390Y-50492287D01*
X106684607Y-50551503D01*
X106750776Y-50585218D01*
X106750778Y-50585218D01*
X106750781Y-50585220D01*
X106855137Y-50619127D01*
X106945465Y-50648477D01*
X107046557Y-50664488D01*
X107147648Y-50680500D01*
X107147649Y-50680500D01*
X107352351Y-50680500D01*
X107352352Y-50680500D01*
X107554534Y-50648477D01*
X107749219Y-50585220D01*
X107931610Y-50492287D01*
X108093733Y-50374499D01*
X108097213Y-50371971D01*
X108097215Y-50371968D01*
X108097219Y-50371966D01*
X108241966Y-50227219D01*
X108241968Y-50227215D01*
X108241971Y-50227213D01*
X108339690Y-50092712D01*
X108362287Y-50061610D01*
X108455220Y-49879219D01*
X108518477Y-49684534D01*
X108550500Y-49482352D01*
X108550500Y-49277648D01*
X108518477Y-49075466D01*
X108455220Y-48880781D01*
X108455218Y-48880778D01*
X108455218Y-48880776D01*
X108421503Y-48814607D01*
X108362287Y-48698390D01*
X108354556Y-48687749D01*
X108241971Y-48532786D01*
X108097213Y-48388028D01*
X107931613Y-48267715D01*
X107931612Y-48267714D01*
X107931610Y-48267713D01*
X107874653Y-48238691D01*
X107749223Y-48174781D01*
X107554534Y-48111522D01*
X107379995Y-48083878D01*
X107352352Y-48079500D01*
X107147648Y-48079500D01*
X107123329Y-48083351D01*
X106945465Y-48111522D01*
X106750776Y-48174781D01*
X106568386Y-48267715D01*
X106402786Y-48388028D01*
X106258028Y-48532786D01*
X106137715Y-48698386D01*
X106044781Y-48880776D01*
X105981522Y-49075465D01*
X105949500Y-49277648D01*
X105300500Y-49277648D01*
X105268477Y-49075466D01*
X105205220Y-48880781D01*
X105205218Y-48880778D01*
X105205218Y-48880776D01*
X105171503Y-48814607D01*
X105112287Y-48698390D01*
X105104556Y-48687749D01*
X104991971Y-48532786D01*
X104847213Y-48388028D01*
X104681613Y-48267715D01*
X104681612Y-48267714D01*
X104681610Y-48267713D01*
X104624653Y-48238691D01*
X104499223Y-48174781D01*
X104304534Y-48111522D01*
X104129995Y-48083878D01*
X104102352Y-48079500D01*
X103897648Y-48079500D01*
X103873329Y-48083351D01*
X103695465Y-48111522D01*
X103500776Y-48174781D01*
X103318386Y-48267715D01*
X103152786Y-48388028D01*
X103008028Y-48532786D01*
X102887715Y-48698386D01*
X102794781Y-48880776D01*
X102731522Y-49075465D01*
X102699500Y-49277648D01*
X84000500Y-49277648D01*
X84000499Y-48698390D01*
X84000499Y-47949998D01*
X84000498Y-47949981D01*
X83989999Y-47847203D01*
X83989998Y-47847200D01*
X83934814Y-47680666D01*
X83894061Y-47614595D01*
X83875622Y-47547204D01*
X83896545Y-47480541D01*
X83950187Y-47435771D01*
X83999601Y-47425500D01*
X85822472Y-47425500D01*
X85822475Y-47425500D01*
X85962485Y-47387984D01*
X86088015Y-47315509D01*
X86190509Y-47213015D01*
X86262984Y-47087485D01*
X86300500Y-46947475D01*
X86300500Y-42677525D01*
X86262984Y-42537515D01*
X86258765Y-42530208D01*
X86190511Y-42411988D01*
X86190506Y-42411982D01*
X86088017Y-42309493D01*
X86088011Y-42309488D01*
X85962488Y-42237017D01*
X85962489Y-42237017D01*
X85951006Y-42233940D01*
X85822475Y-42199500D01*
X81947475Y-42199500D01*
X81802525Y-42199500D01*
X81673993Y-42233940D01*
X81662511Y-42237017D01*
X81536988Y-42309488D01*
X81536982Y-42309493D01*
X81434493Y-42411982D01*
X81434488Y-42411988D01*
X81362017Y-42537511D01*
X81362016Y-42537515D01*
X81324500Y-42677525D01*
X81324500Y-46947475D01*
X81362016Y-47087485D01*
X81416762Y-47182308D01*
X81433235Y-47250206D01*
X81410383Y-47316233D01*
X81374472Y-47349845D01*
X81281347Y-47407285D01*
X81281343Y-47407288D01*
X81157289Y-47531342D01*
X81065187Y-47680663D01*
X81065186Y-47680666D01*
X81010001Y-47847203D01*
X81010001Y-47847204D01*
X81010000Y-47847204D01*
X80999500Y-47949983D01*
X80999500Y-49550001D01*
X80999501Y-49550018D01*
X81010000Y-49652796D01*
X81010001Y-49652799D01*
X81065185Y-49819331D01*
X81065186Y-49819334D01*
X81157288Y-49968656D01*
X81281344Y-50092712D01*
X81430666Y-50184814D01*
X81597203Y-50239999D01*
X81699991Y-50250500D01*
X81875500Y-50250499D01*
X81942539Y-50270183D01*
X81988294Y-50322987D01*
X81999500Y-50374499D01*
X81999500Y-51823918D01*
X81999500Y-51823920D01*
X81999499Y-51823920D01*
X82028340Y-51968907D01*
X82028343Y-51968917D01*
X82084914Y-52105492D01*
X82117812Y-52154727D01*
X82117813Y-52154730D01*
X82167046Y-52228414D01*
X82167052Y-52228421D01*
X85463181Y-55524548D01*
X85496666Y-55585871D01*
X85499500Y-55612229D01*
X85499500Y-62823918D01*
X85499500Y-62823920D01*
X85499499Y-62823920D01*
X85528340Y-62968907D01*
X85528343Y-62968917D01*
X85584912Y-63105488D01*
X85584915Y-63105494D01*
X85584916Y-63105495D01*
X85593748Y-63118713D01*
X85593749Y-63118716D01*
X85667046Y-63228414D01*
X85667052Y-63228421D01*
X98012181Y-75573549D01*
X98045666Y-75634872D01*
X98048500Y-75661230D01*
X98048500Y-80379860D01*
X98028815Y-80446899D01*
X97976011Y-80492654D01*
X97914773Y-80503478D01*
X97864218Y-80499500D01*
X96235791Y-80499500D01*
X96235776Y-80499501D01*
X96103586Y-80509904D01*
X96103579Y-80509905D01*
X95885321Y-80564902D01*
X95885318Y-80564903D01*
X95680377Y-80657991D01*
X95680367Y-80657997D01*
X95495354Y-80786174D01*
X95495342Y-80786184D01*
X95336184Y-80945342D01*
X95336174Y-80945354D01*
X95207997Y-81130367D01*
X95207991Y-81130377D01*
X95114903Y-81335318D01*
X95114902Y-81335321D01*
X95059905Y-81553579D01*
X95059904Y-81553586D01*
X95049500Y-81685777D01*
X95049500Y-84387769D01*
X95029815Y-84454808D01*
X95013181Y-84475450D01*
X93824451Y-85664181D01*
X93763128Y-85697666D01*
X93736770Y-85700500D01*
X92334677Y-85700500D01*
X92267638Y-85680815D01*
X92221883Y-85628011D01*
X92211939Y-85558853D01*
X92214435Y-85546202D01*
X92239599Y-85446332D01*
X92249999Y-85314196D01*
X92250000Y-85314184D01*
X92250000Y-83750000D01*
X88250001Y-83750000D01*
X88250001Y-85314197D01*
X88260400Y-85446332D01*
X88285565Y-85546202D01*
X88282857Y-85616019D01*
X88242833Y-85673289D01*
X88178200Y-85699830D01*
X88165323Y-85700500D01*
X83534443Y-85700500D01*
X83467404Y-85680815D01*
X83421649Y-85628011D01*
X83411705Y-85558853D01*
X83440730Y-85495297D01*
X83446762Y-85488819D01*
X83598911Y-85336670D01*
X83598914Y-85336665D01*
X83598919Y-85336661D01*
X83738611Y-85154612D01*
X83853344Y-84955888D01*
X83941158Y-84743887D01*
X84000548Y-84522238D01*
X84030500Y-84294734D01*
X84030500Y-84065266D01*
X84000548Y-83837762D01*
X83941158Y-83616113D01*
X83872659Y-83450743D01*
X83853349Y-83404123D01*
X83853346Y-83404117D01*
X83853344Y-83404112D01*
X83738611Y-83205388D01*
X83738608Y-83205385D01*
X83738607Y-83205382D01*
X83598918Y-83023338D01*
X83598911Y-83023330D01*
X83531355Y-82955774D01*
X83497870Y-82894451D01*
X83502854Y-82824759D01*
X83544726Y-82768826D01*
X83606435Y-82744735D01*
X83626055Y-82742730D01*
X83652797Y-82739999D01*
X83819334Y-82684814D01*
X83968656Y-82592712D01*
X84092712Y-82468656D01*
X84184814Y-82319334D01*
X84239999Y-82152797D01*
X84250500Y-82050009D01*
X84250500Y-81685803D01*
X88250000Y-81685803D01*
X88250000Y-83250000D01*
X90000000Y-83250000D01*
X90500000Y-83250000D01*
X92249999Y-83250000D01*
X92249999Y-81685817D01*
X92249998Y-81685802D01*
X92239599Y-81553667D01*
X92184622Y-81335480D01*
X92091571Y-81130625D01*
X92091568Y-81130619D01*
X91963440Y-80945676D01*
X91963430Y-80945664D01*
X91804335Y-80786569D01*
X91804323Y-80786559D01*
X91619380Y-80658431D01*
X91619374Y-80658428D01*
X91414519Y-80565377D01*
X91196332Y-80510400D01*
X91064196Y-80500000D01*
X90500000Y-80500000D01*
X90500000Y-83250000D01*
X90000000Y-83250000D01*
X90000000Y-80500000D01*
X89435817Y-80500000D01*
X89435802Y-80500001D01*
X89303667Y-80510400D01*
X89085480Y-80565377D01*
X88880625Y-80658428D01*
X88880619Y-80658431D01*
X88695676Y-80786559D01*
X88695664Y-80786569D01*
X88536569Y-80945664D01*
X88536559Y-80945676D01*
X88408431Y-81130619D01*
X88408428Y-81130625D01*
X88315377Y-81335480D01*
X88260400Y-81553667D01*
X88250000Y-81685803D01*
X84250500Y-81685803D01*
X84250499Y-81239570D01*
X84250499Y-80449998D01*
X84250498Y-80449981D01*
X84239999Y-80347203D01*
X84239998Y-80347200D01*
X84184814Y-80180666D01*
X84092712Y-80031344D01*
X83968656Y-79907288D01*
X83819334Y-79815186D01*
X83652797Y-79760001D01*
X83652795Y-79760000D01*
X83550010Y-79749500D01*
X81949998Y-79749500D01*
X81949981Y-79749501D01*
X81847203Y-79760000D01*
X81847200Y-79760001D01*
X81680668Y-79815185D01*
X81680663Y-79815187D01*
X81531342Y-79907289D01*
X81407289Y-80031342D01*
X81315187Y-80180663D01*
X81315186Y-80180666D01*
X81260001Y-80347203D01*
X81260001Y-80347204D01*
X81260000Y-80347204D01*
X81249500Y-80449983D01*
X81249500Y-82050001D01*
X81249501Y-82050018D01*
X81260000Y-82152796D01*
X81260001Y-82152799D01*
X81315185Y-82319331D01*
X81315187Y-82319336D01*
X81407289Y-82468657D01*
X81415948Y-82477316D01*
X81449433Y-82538639D01*
X81444449Y-82608331D01*
X81402577Y-82664264D01*
X81390272Y-82672381D01*
X81368738Y-82684814D01*
X81305379Y-82721394D01*
X81123338Y-82861081D01*
X80961081Y-83023338D01*
X80821392Y-83205382D01*
X80706657Y-83404109D01*
X80706650Y-83404123D01*
X80621609Y-83609432D01*
X80618842Y-83616113D01*
X80582968Y-83750000D01*
X80559453Y-83837759D01*
X80559451Y-83837770D01*
X80529500Y-84065258D01*
X80529500Y-84294741D01*
X80553292Y-84475450D01*
X80559452Y-84522238D01*
X80562043Y-84531908D01*
X80618842Y-84743887D01*
X80706650Y-84955876D01*
X80706657Y-84955890D01*
X80821392Y-85154617D01*
X80961081Y-85336661D01*
X80961089Y-85336670D01*
X81113238Y-85488819D01*
X81146723Y-85550142D01*
X81141739Y-85619834D01*
X81099867Y-85675767D01*
X81034403Y-85700184D01*
X81025557Y-85700500D01*
X79563229Y-85700500D01*
X79496190Y-85680815D01*
X79475548Y-85664181D01*
X75818053Y-82006685D01*
X75784568Y-81945362D01*
X75781736Y-81918266D01*
X75783535Y-81616014D01*
X75828443Y-74071414D01*
X75848526Y-74004496D01*
X75864755Y-73984479D01*
X76980520Y-72868716D01*
X77059577Y-72731784D01*
X77100501Y-72579057D01*
X77100501Y-72420942D01*
X77100501Y-72413347D01*
X77100500Y-72413329D01*
X77100500Y-63050097D01*
X77120185Y-62983058D01*
X77136819Y-62962416D01*
X78156242Y-61942993D01*
X79187821Y-60911414D01*
X79249142Y-60877931D01*
X79318834Y-60882915D01*
X79374767Y-60924787D01*
X79399184Y-60990251D01*
X79399500Y-60999097D01*
X79399500Y-78390234D01*
X79379815Y-78457273D01*
X79378602Y-78459125D01*
X79290609Y-78590814D01*
X79290602Y-78590827D01*
X79230264Y-78736498D01*
X79230261Y-78736510D01*
X79199500Y-78891153D01*
X79199500Y-79048846D01*
X79230261Y-79203489D01*
X79230264Y-79203501D01*
X79290602Y-79349172D01*
X79290609Y-79349185D01*
X79378210Y-79480288D01*
X79378213Y-79480292D01*
X79489707Y-79591786D01*
X79489711Y-79591789D01*
X79620814Y-79679390D01*
X79620827Y-79679397D01*
X79766498Y-79739735D01*
X79766503Y-79739737D01*
X79921153Y-79770499D01*
X79921156Y-79770500D01*
X79921158Y-79770500D01*
X80078844Y-79770500D01*
X80078845Y-79770499D01*
X80233497Y-79739737D01*
X80379179Y-79679394D01*
X80510289Y-79591789D01*
X80621789Y-79480289D01*
X80709394Y-79349179D01*
X80769737Y-79203497D01*
X80800500Y-79048842D01*
X80800500Y-78891158D01*
X80800500Y-78891155D01*
X80800499Y-78891153D01*
X80792214Y-78849500D01*
X80769737Y-78736503D01*
X80769735Y-78736498D01*
X80709397Y-78590827D01*
X80709390Y-78590814D01*
X80621398Y-78459125D01*
X80600520Y-78392447D01*
X80600500Y-78390234D01*
X80600500Y-63631947D01*
X81000000Y-63631947D01*
X81000000Y-63868052D01*
X81036934Y-64101247D01*
X81109897Y-64325802D01*
X81217087Y-64536174D01*
X81277338Y-64619104D01*
X81277340Y-64619105D01*
X82017037Y-63879408D01*
X82034075Y-63942993D01*
X82099901Y-64057007D01*
X82192993Y-64150099D01*
X82307007Y-64215925D01*
X82370591Y-64232962D01*
X81630894Y-64972658D01*
X81683760Y-65011069D01*
X81686510Y-65008320D01*
X81747832Y-64974834D01*
X81817524Y-64979818D01*
X81861873Y-65008319D01*
X82620591Y-65767037D01*
X82557007Y-65784075D01*
X82442993Y-65849901D01*
X82349901Y-65942993D01*
X82284075Y-66057007D01*
X82267037Y-66120591D01*
X81527340Y-65380894D01*
X81467084Y-65463830D01*
X81359897Y-65674197D01*
X81286934Y-65898752D01*
X81250000Y-66131947D01*
X81250000Y-66368052D01*
X81286934Y-66601247D01*
X81359897Y-66825802D01*
X81467087Y-67036174D01*
X81527338Y-67119104D01*
X81527340Y-67119105D01*
X82267037Y-66379408D01*
X82284075Y-66442993D01*
X82349901Y-66557007D01*
X82442993Y-66650099D01*
X82557007Y-66715925D01*
X82620590Y-66732962D01*
X81880893Y-67472658D01*
X81963828Y-67532914D01*
X82174197Y-67640102D01*
X82398752Y-67713065D01*
X82398751Y-67713065D01*
X82631948Y-67750000D01*
X82868052Y-67750000D01*
X83101247Y-67713065D01*
X83325802Y-67640102D01*
X83536163Y-67532918D01*
X83536169Y-67532914D01*
X83619104Y-67472658D01*
X83619105Y-67472658D01*
X82879408Y-66732962D01*
X82942993Y-66715925D01*
X83057007Y-66650099D01*
X83150099Y-66557007D01*
X83215925Y-66442993D01*
X83232962Y-66379408D01*
X83972658Y-67119105D01*
X83972658Y-67119104D01*
X84032914Y-67036169D01*
X84032918Y-67036163D01*
X84140102Y-66825802D01*
X84213065Y-66601247D01*
X84250000Y-66368052D01*
X84250000Y-66131947D01*
X84213065Y-65898752D01*
X84140102Y-65674197D01*
X84032914Y-65463828D01*
X83972658Y-65380894D01*
X83972658Y-65380893D01*
X83232962Y-66120590D01*
X83215925Y-66057007D01*
X83150099Y-65942993D01*
X83057007Y-65849901D01*
X82942993Y-65784075D01*
X82879409Y-65767037D01*
X83619105Y-65027341D01*
X83619104Y-65027340D01*
X83566237Y-64988928D01*
X83566236Y-64988929D01*
X83563487Y-64991679D01*
X83502164Y-65025164D01*
X83432472Y-65020180D01*
X83388125Y-64991679D01*
X82629408Y-64232962D01*
X82692993Y-64215925D01*
X82807007Y-64150099D01*
X82900099Y-64057007D01*
X82965925Y-63942993D01*
X82982962Y-63879409D01*
X83722658Y-64619105D01*
X83722658Y-64619104D01*
X83782914Y-64536169D01*
X83782918Y-64536163D01*
X83890102Y-64325802D01*
X83963065Y-64101247D01*
X84000000Y-63868052D01*
X84000000Y-63631947D01*
X83963065Y-63398752D01*
X83890102Y-63174197D01*
X83782914Y-62963828D01*
X83722658Y-62880894D01*
X83722658Y-62880893D01*
X82982962Y-63620590D01*
X82965925Y-63557007D01*
X82900099Y-63442993D01*
X82807007Y-63349901D01*
X82692993Y-63284075D01*
X82629409Y-63267037D01*
X83369105Y-62527340D01*
X83369104Y-62527338D01*
X83286174Y-62467087D01*
X83075802Y-62359897D01*
X82851247Y-62286934D01*
X82851248Y-62286934D01*
X82618052Y-62250000D01*
X82381948Y-62250000D01*
X82148752Y-62286934D01*
X81924197Y-62359897D01*
X81713830Y-62467084D01*
X81630894Y-62527340D01*
X82370591Y-63267037D01*
X82307007Y-63284075D01*
X82192993Y-63349901D01*
X82099901Y-63442993D01*
X82034075Y-63557007D01*
X82017037Y-63620590D01*
X81277340Y-62880894D01*
X81217084Y-62963830D01*
X81109897Y-63174197D01*
X81036934Y-63398752D01*
X81000000Y-63631947D01*
X80600500Y-63631947D01*
X80600500Y-60722036D01*
X80620185Y-60654997D01*
X80672989Y-60609242D01*
X80742147Y-60599298D01*
X80805703Y-60628323D01*
X80822875Y-60646549D01*
X80961081Y-60826661D01*
X80961089Y-60826670D01*
X81123330Y-60988911D01*
X81123338Y-60988918D01*
X81123339Y-60988919D01*
X81151189Y-61010289D01*
X81305382Y-61128607D01*
X81305385Y-61128608D01*
X81305388Y-61128611D01*
X81504112Y-61243344D01*
X81504117Y-61243346D01*
X81504123Y-61243349D01*
X81580536Y-61275000D01*
X81716113Y-61331158D01*
X81937762Y-61390548D01*
X82165266Y-61420500D01*
X82165273Y-61420500D01*
X82394727Y-61420500D01*
X82394734Y-61420500D01*
X82622238Y-61390548D01*
X82843887Y-61331158D01*
X83055888Y-61243344D01*
X83254612Y-61128611D01*
X83436661Y-60988919D01*
X83436665Y-60988914D01*
X83436670Y-60988911D01*
X83598911Y-60826670D01*
X83598914Y-60826665D01*
X83598919Y-60826661D01*
X83738611Y-60644612D01*
X83853344Y-60445888D01*
X83941158Y-60233887D01*
X84000548Y-60012238D01*
X84030500Y-59784734D01*
X84030500Y-59555266D01*
X84000548Y-59327762D01*
X83941158Y-59106113D01*
X83864458Y-58920943D01*
X83853349Y-58894123D01*
X83853346Y-58894117D01*
X83853344Y-58894112D01*
X83738611Y-58695388D01*
X83738608Y-58695385D01*
X83738607Y-58695382D01*
X83627798Y-58550975D01*
X83598919Y-58513339D01*
X83598918Y-58513338D01*
X83598911Y-58513330D01*
X83436670Y-58351089D01*
X83436661Y-58351081D01*
X83254617Y-58211392D01*
X83230418Y-58197421D01*
X83129239Y-58139005D01*
X83055890Y-58096657D01*
X83055876Y-58096650D01*
X82843887Y-58008842D01*
X82622238Y-57949452D01*
X82584215Y-57944446D01*
X82394741Y-57919500D01*
X82394734Y-57919500D01*
X82165266Y-57919500D01*
X82165258Y-57919500D01*
X81948715Y-57948009D01*
X81937762Y-57949452D01*
X81859291Y-57970478D01*
X81716112Y-58008842D01*
X81504123Y-58096650D01*
X81504109Y-58096657D01*
X81305382Y-58211392D01*
X81123338Y-58351081D01*
X80961089Y-58513330D01*
X80961087Y-58513331D01*
X80961082Y-58513338D01*
X80961081Y-58513339D01*
X80947873Y-58530550D01*
X80891446Y-58571752D01*
X80821700Y-58575906D01*
X80760780Y-58541692D01*
X80728028Y-58479974D01*
X80725500Y-58455062D01*
X80725500Y-33295945D01*
X80725500Y-33295943D01*
X80684577Y-33143216D01*
X80684577Y-33143215D01*
X80648690Y-33081057D01*
X80634805Y-33057007D01*
X80605524Y-33006290D01*
X80605521Y-33006286D01*
X80605520Y-33006284D01*
X80493716Y-32894480D01*
X80493715Y-32894479D01*
X80489385Y-32890149D01*
X80489374Y-32890139D01*
X72561416Y-24962181D01*
X72527931Y-24900858D01*
X72532915Y-24831166D01*
X72574787Y-24775233D01*
X72640251Y-24750816D01*
X72649097Y-24750500D01*
X109125500Y-24750500D01*
X109192539Y-24770185D01*
G37*
%TD.AperFunction*%
%TA.AperFunction,Conductor*%
G36*
X94205703Y-63595384D02*
G01*
X94212181Y-63601416D01*
X103086561Y-72475796D01*
X103120046Y-72537119D01*
X103116811Y-72601794D01*
X103093985Y-72672045D01*
X103059500Y-72889778D01*
X103059500Y-73110221D01*
X103093985Y-73327952D01*
X103162103Y-73537603D01*
X103162104Y-73537606D01*
X103262187Y-73734025D01*
X103391752Y-73912358D01*
X103391756Y-73912363D01*
X103547636Y-74068243D01*
X103547641Y-74068247D01*
X103649606Y-74142328D01*
X103725978Y-74197815D01*
X103854375Y-74263237D01*
X103922393Y-74297895D01*
X103922396Y-74297896D01*
X104027221Y-74331955D01*
X104132049Y-74366015D01*
X104349778Y-74400500D01*
X104349779Y-74400500D01*
X104570221Y-74400500D01*
X104570222Y-74400500D01*
X104787951Y-74366015D01*
X104997606Y-74297895D01*
X105194022Y-74197815D01*
X105372365Y-74068242D01*
X105422536Y-74018070D01*
X105483857Y-73984586D01*
X105553548Y-73989570D01*
X105609482Y-74031441D01*
X105626398Y-74062419D01*
X105656202Y-74142328D01*
X105656206Y-74142335D01*
X105742452Y-74257544D01*
X105742455Y-74257547D01*
X105857664Y-74343793D01*
X105857671Y-74343797D01*
X105992517Y-74394091D01*
X105992516Y-74394091D01*
X105999444Y-74394835D01*
X106052127Y-74400500D01*
X107450902Y-74400499D01*
X107472147Y-74406737D01*
X107494235Y-74408317D01*
X107505018Y-74416389D01*
X107517941Y-74420184D01*
X107532440Y-74436916D01*
X107550169Y-74450188D01*
X107554876Y-74462808D01*
X107563696Y-74472987D01*
X107566847Y-74494905D01*
X107574586Y-74515653D01*
X107571723Y-74528813D01*
X107573640Y-74542146D01*
X107564440Y-74562289D01*
X107559734Y-74583926D01*
X107546464Y-74601653D01*
X107544615Y-74605702D01*
X107538584Y-74612180D01*
X107381286Y-74769478D01*
X107381285Y-74769478D01*
X107381284Y-74769479D01*
X107269481Y-74881282D01*
X107269479Y-74881285D01*
X107219361Y-74968094D01*
X107219359Y-74968096D01*
X107190425Y-75018209D01*
X107190424Y-75018210D01*
X107190423Y-75018215D01*
X107149499Y-75170943D01*
X107149499Y-75170945D01*
X107149499Y-75339046D01*
X107149500Y-75339059D01*
X107149500Y-78725500D01*
X107129815Y-78792539D01*
X107077011Y-78838294D01*
X107025500Y-78849500D01*
X106302129Y-78849500D01*
X106302123Y-78849501D01*
X106242516Y-78855908D01*
X106107671Y-78906202D01*
X106107664Y-78906206D01*
X105992455Y-78992452D01*
X105992452Y-78992455D01*
X105906206Y-79107664D01*
X105906203Y-79107669D01*
X105876398Y-79187581D01*
X105834526Y-79243514D01*
X105769062Y-79267931D01*
X105700789Y-79253079D01*
X105672535Y-79231928D01*
X105622363Y-79181756D01*
X105622358Y-79181752D01*
X105444025Y-79052187D01*
X105444024Y-79052186D01*
X105444022Y-79052185D01*
X105326791Y-78992452D01*
X105247606Y-78952104D01*
X105247603Y-78952103D01*
X105037952Y-78883985D01*
X104929086Y-78866742D01*
X104820222Y-78849500D01*
X104599778Y-78849500D01*
X104527201Y-78860995D01*
X104382047Y-78883985D01*
X104172396Y-78952103D01*
X104172393Y-78952104D01*
X103975974Y-79052187D01*
X103797641Y-79181752D01*
X103797636Y-79181756D01*
X103641756Y-79337636D01*
X103641752Y-79337641D01*
X103512185Y-79515976D01*
X103439423Y-79658777D01*
X103391448Y-79709572D01*
X103323627Y-79726367D01*
X103257492Y-79703829D01*
X103214042Y-79649113D01*
X103211008Y-79640799D01*
X103204504Y-79620783D01*
X103140568Y-79424008D01*
X103033343Y-79213567D01*
X102894517Y-79022490D01*
X102727510Y-78855483D01*
X102536433Y-78716657D01*
X102325996Y-78609433D01*
X102101368Y-78536446D01*
X101868089Y-78499498D01*
X101864765Y-78499237D01*
X101863576Y-78498783D01*
X101863280Y-78498737D01*
X101863289Y-78498674D01*
X101799478Y-78474351D01*
X101758010Y-78418118D01*
X101750500Y-78375620D01*
X101750500Y-72926079D01*
X101721659Y-72781092D01*
X101721658Y-72781091D01*
X101721658Y-72781087D01*
X101701239Y-72731790D01*
X101665087Y-72644511D01*
X101665080Y-72644498D01*
X101582952Y-72521585D01*
X101537163Y-72475796D01*
X101478416Y-72417049D01*
X94036819Y-64975451D01*
X94003334Y-64914128D01*
X94000500Y-64887770D01*
X94000500Y-63689097D01*
X94020185Y-63622058D01*
X94072989Y-63576303D01*
X94142147Y-63566359D01*
X94205703Y-63595384D01*
G37*
%TD.AperFunction*%
%TA.AperFunction,Conductor*%
G36*
X106715804Y-59069596D02*
G01*
X106737942Y-59087177D01*
X106863181Y-59212416D01*
X106896666Y-59273739D01*
X106899500Y-59300097D01*
X106899500Y-71475500D01*
X106879815Y-71542539D01*
X106827011Y-71588294D01*
X106775500Y-71599500D01*
X106052129Y-71599500D01*
X106052123Y-71599501D01*
X105992516Y-71605908D01*
X105857671Y-71656202D01*
X105857664Y-71656206D01*
X105742455Y-71742452D01*
X105742452Y-71742455D01*
X105656206Y-71857664D01*
X105656203Y-71857669D01*
X105626398Y-71937581D01*
X105584526Y-71993514D01*
X105519062Y-72017931D01*
X105450789Y-72003079D01*
X105422535Y-71981928D01*
X105372363Y-71931756D01*
X105372358Y-71931752D01*
X105194025Y-71802187D01*
X105194024Y-71802186D01*
X105194022Y-71802185D01*
X105076791Y-71742452D01*
X104997606Y-71702104D01*
X104997603Y-71702103D01*
X104787952Y-71633985D01*
X104679086Y-71616742D01*
X104570222Y-71599500D01*
X104349778Y-71599500D01*
X104309320Y-71605908D01*
X104132045Y-71633985D01*
X104061794Y-71656811D01*
X103991953Y-71658806D01*
X103935796Y-71626561D01*
X99266917Y-66957682D01*
X103950000Y-66957682D01*
X103950000Y-67162317D01*
X103982009Y-67364417D01*
X104045244Y-67559031D01*
X104138141Y-67741350D01*
X104138147Y-67741359D01*
X104170523Y-67785921D01*
X104170524Y-67785922D01*
X104850000Y-67106446D01*
X104850000Y-67112661D01*
X104877259Y-67214394D01*
X104929920Y-67305606D01*
X105004394Y-67380080D01*
X105095606Y-67432741D01*
X105197339Y-67460000D01*
X105203553Y-67460000D01*
X104524076Y-68139474D01*
X104568650Y-68171859D01*
X104750968Y-68264755D01*
X104945582Y-68327990D01*
X105147683Y-68360000D01*
X105352317Y-68360000D01*
X105554417Y-68327990D01*
X105749031Y-68264755D01*
X105931349Y-68171859D01*
X105975921Y-68139474D01*
X105296447Y-67460000D01*
X105302661Y-67460000D01*
X105404394Y-67432741D01*
X105495606Y-67380080D01*
X105570080Y-67305606D01*
X105622741Y-67214394D01*
X105650000Y-67112661D01*
X105650000Y-67106447D01*
X106329474Y-67785921D01*
X106361859Y-67741349D01*
X106454755Y-67559031D01*
X106517990Y-67364417D01*
X106550000Y-67162317D01*
X106550000Y-66957682D01*
X106517990Y-66755582D01*
X106454755Y-66560968D01*
X106361859Y-66378650D01*
X106329474Y-66334077D01*
X106329474Y-66334076D01*
X105650000Y-67013551D01*
X105650000Y-67007339D01*
X105622741Y-66905606D01*
X105570080Y-66814394D01*
X105495606Y-66739920D01*
X105404394Y-66687259D01*
X105302661Y-66660000D01*
X105296446Y-66660000D01*
X105975922Y-65980524D01*
X105975921Y-65980523D01*
X105931359Y-65948147D01*
X105931350Y-65948141D01*
X105749031Y-65855244D01*
X105554417Y-65792009D01*
X105352317Y-65760000D01*
X105147683Y-65760000D01*
X104945582Y-65792009D01*
X104750968Y-65855244D01*
X104568644Y-65948143D01*
X104524077Y-65980523D01*
X104524077Y-65980524D01*
X105203554Y-66660000D01*
X105197339Y-66660000D01*
X105095606Y-66687259D01*
X105004394Y-66739920D01*
X104929920Y-66814394D01*
X104877259Y-66905606D01*
X104850000Y-67007339D01*
X104850000Y-67013553D01*
X104170524Y-66334077D01*
X104170523Y-66334077D01*
X104138143Y-66378644D01*
X104045244Y-66560968D01*
X103982009Y-66755582D01*
X103950000Y-66957682D01*
X99266917Y-66957682D01*
X94535819Y-62226584D01*
X94502334Y-62165261D01*
X94499500Y-62138903D01*
X94499500Y-61418046D01*
X94519185Y-61351007D01*
X94571989Y-61305252D01*
X94599309Y-61296429D01*
X94628848Y-61290552D01*
X94733497Y-61269737D01*
X94879179Y-61209394D01*
X95010289Y-61121789D01*
X95121789Y-61010289D01*
X95209394Y-60879179D01*
X95269737Y-60733497D01*
X95296431Y-60599298D01*
X95300638Y-60578150D01*
X95333023Y-60516239D01*
X95334518Y-60514716D01*
X95772416Y-60076819D01*
X95833739Y-60043334D01*
X95860097Y-60040500D01*
X104020398Y-60040500D01*
X104087437Y-60060185D01*
X104130883Y-60108205D01*
X104137715Y-60121614D01*
X104258028Y-60287213D01*
X104402786Y-60431971D01*
X104557749Y-60544556D01*
X104568390Y-60552287D01*
X104680170Y-60609242D01*
X104750776Y-60645218D01*
X104750778Y-60645218D01*
X104750781Y-60645220D01*
X104855137Y-60679127D01*
X104945465Y-60708477D01*
X105031073Y-60722036D01*
X105147648Y-60740500D01*
X105147649Y-60740500D01*
X105352351Y-60740500D01*
X105352352Y-60740500D01*
X105554534Y-60708477D01*
X105749219Y-60645220D01*
X105750403Y-60644617D01*
X105782381Y-60628323D01*
X105931610Y-60552287D01*
X106024590Y-60484732D01*
X106097213Y-60431971D01*
X106097215Y-60431968D01*
X106097219Y-60431966D01*
X106241966Y-60287219D01*
X106241968Y-60287215D01*
X106241971Y-60287213D01*
X106294732Y-60214590D01*
X106362287Y-60121610D01*
X106455220Y-59939219D01*
X106518477Y-59744534D01*
X106550500Y-59542352D01*
X106550500Y-59337648D01*
X106527788Y-59194254D01*
X106536742Y-59124963D01*
X106581738Y-59071511D01*
X106648490Y-59050871D01*
X106715804Y-59069596D01*
G37*
%TD.AperFunction*%
%TA.AperFunction,Conductor*%
G36*
X71766942Y-25870185D02*
G01*
X71787584Y-25886819D01*
X79488181Y-33587416D01*
X79521666Y-33648739D01*
X79524500Y-33675097D01*
X79524500Y-56677699D01*
X79504815Y-56744738D01*
X79452011Y-56790493D01*
X79382853Y-56800437D01*
X79319297Y-56771412D01*
X79293113Y-56739698D01*
X79230524Y-56631290D01*
X79230518Y-56631282D01*
X75988395Y-53389160D01*
X75954910Y-53327837D01*
X75952078Y-53300741D01*
X75955357Y-52750000D01*
X76000000Y-45250000D01*
X75223911Y-45250000D01*
X75156872Y-45230315D01*
X75123594Y-45198886D01*
X75030104Y-45070208D01*
X74879792Y-44919896D01*
X74879786Y-44919890D01*
X74707820Y-44794951D01*
X74707115Y-44794591D01*
X74699054Y-44790485D01*
X74648259Y-44742512D01*
X74631463Y-44674692D01*
X74653999Y-44608556D01*
X74699054Y-44569515D01*
X74707816Y-44565051D01*
X74729789Y-44549086D01*
X74879786Y-44440109D01*
X74879788Y-44440106D01*
X74879792Y-44440104D01*
X75030104Y-44289792D01*
X75030106Y-44289788D01*
X75030109Y-44289786D01*
X75155048Y-44117820D01*
X75155050Y-44117817D01*
X75155051Y-44117816D01*
X75251557Y-43928412D01*
X75317246Y-43726243D01*
X75350500Y-43516287D01*
X75350500Y-43303713D01*
X75317246Y-43093757D01*
X75251557Y-42891588D01*
X75155051Y-42702184D01*
X75155049Y-42702181D01*
X75155048Y-42702179D01*
X75030109Y-42530213D01*
X74879786Y-42379890D01*
X74707820Y-42254951D01*
X74707115Y-42254591D01*
X74699054Y-42250485D01*
X74648259Y-42202512D01*
X74631463Y-42134692D01*
X74653999Y-42068556D01*
X74699054Y-42029515D01*
X74707816Y-42025051D01*
X74729789Y-42009086D01*
X74879786Y-41900109D01*
X74879788Y-41900106D01*
X74879792Y-41900104D01*
X75030104Y-41749792D01*
X75030106Y-41749788D01*
X75030109Y-41749786D01*
X75155048Y-41577820D01*
X75155047Y-41577820D01*
X75155051Y-41577816D01*
X75251557Y-41388412D01*
X75317246Y-41186243D01*
X75350500Y-40976287D01*
X75350500Y-40763713D01*
X75317246Y-40553757D01*
X75251557Y-40351588D01*
X75155051Y-40162184D01*
X75155049Y-40162181D01*
X75155048Y-40162179D01*
X75030109Y-39990213D01*
X74879786Y-39839890D01*
X74707820Y-39714951D01*
X74707115Y-39714591D01*
X74699054Y-39710485D01*
X74648259Y-39662512D01*
X74631463Y-39594692D01*
X74653999Y-39528556D01*
X74699054Y-39489515D01*
X74707816Y-39485051D01*
X74729789Y-39469086D01*
X74879786Y-39360109D01*
X74879788Y-39360106D01*
X74879792Y-39360104D01*
X75030104Y-39209792D01*
X75030106Y-39209788D01*
X75030109Y-39209786D01*
X75155048Y-39037820D01*
X75155047Y-39037820D01*
X75155051Y-39037816D01*
X75251557Y-38848412D01*
X75317246Y-38646243D01*
X75350500Y-38436287D01*
X75350500Y-38223713D01*
X75317246Y-38013757D01*
X75251557Y-37811588D01*
X75155051Y-37622184D01*
X75155049Y-37622181D01*
X75155048Y-37622179D01*
X75030109Y-37450213D01*
X74879786Y-37299890D01*
X74707820Y-37174951D01*
X74707115Y-37174591D01*
X74699054Y-37170485D01*
X74648259Y-37122512D01*
X74631463Y-37054692D01*
X74653999Y-36988556D01*
X74699054Y-36949515D01*
X74707816Y-36945051D01*
X74837537Y-36850804D01*
X74879786Y-36820109D01*
X74879788Y-36820106D01*
X74879792Y-36820104D01*
X75030104Y-36669792D01*
X75030106Y-36669788D01*
X75030109Y-36669786D01*
X75155048Y-36497820D01*
X75155047Y-36497820D01*
X75155051Y-36497816D01*
X75251557Y-36308412D01*
X75317246Y-36106243D01*
X75350500Y-35896287D01*
X75350500Y-35683713D01*
X75317246Y-35473757D01*
X75251557Y-35271588D01*
X75155051Y-35082184D01*
X75155049Y-35082181D01*
X75155048Y-35082179D01*
X75030109Y-34910213D01*
X74916181Y-34796285D01*
X74882696Y-34734962D01*
X74887680Y-34665270D01*
X74929552Y-34609337D01*
X74960529Y-34592422D01*
X75092086Y-34543354D01*
X75092093Y-34543350D01*
X75207187Y-34457190D01*
X75207190Y-34457187D01*
X75293350Y-34342093D01*
X75293354Y-34342086D01*
X75343596Y-34207379D01*
X75343598Y-34207372D01*
X75349999Y-34147844D01*
X75350000Y-34147827D01*
X75350000Y-33500000D01*
X74433012Y-33500000D01*
X74465925Y-33442993D01*
X74500000Y-33315826D01*
X74500000Y-33184174D01*
X74465925Y-33057007D01*
X74433012Y-33000000D01*
X75350000Y-33000000D01*
X75350000Y-32352172D01*
X75349999Y-32352155D01*
X75343598Y-32292627D01*
X75343596Y-32292620D01*
X75293354Y-32157913D01*
X75293350Y-32157906D01*
X75207190Y-32042812D01*
X75207187Y-32042809D01*
X75092093Y-31956649D01*
X75092086Y-31956645D01*
X74957379Y-31906403D01*
X74957372Y-31906401D01*
X74897844Y-31900000D01*
X74250000Y-31900000D01*
X74250000Y-32816988D01*
X74192993Y-32784075D01*
X74065826Y-32750000D01*
X73934174Y-32750000D01*
X73807007Y-32784075D01*
X73750000Y-32816988D01*
X73750000Y-31900000D01*
X73102155Y-31900000D01*
X73042627Y-31906401D01*
X73042620Y-31906403D01*
X72907913Y-31956645D01*
X72907906Y-31956649D01*
X72792812Y-32042809D01*
X72792809Y-32042812D01*
X72706649Y-32157906D01*
X72706645Y-32157913D01*
X72656403Y-32292620D01*
X72656401Y-32292627D01*
X72650000Y-32352155D01*
X72650000Y-33000000D01*
X73566988Y-33000000D01*
X73534075Y-33057007D01*
X73500000Y-33184174D01*
X73500000Y-33315826D01*
X73534075Y-33442993D01*
X73566988Y-33500000D01*
X72610597Y-33500000D01*
X72543558Y-33480315D01*
X72522916Y-33463681D01*
X65121416Y-26062181D01*
X65087931Y-26000858D01*
X65092915Y-25931166D01*
X65134787Y-25875233D01*
X65200251Y-25850816D01*
X65209097Y-25850500D01*
X71699903Y-25850500D01*
X71766942Y-25870185D01*
G37*
%TD.AperFunction*%
%TA.AperFunction,Conductor*%
G36*
X64226942Y-26870185D02*
G01*
X64247584Y-26886819D01*
X72666241Y-35305476D01*
X72699726Y-35366799D01*
X72696492Y-35431473D01*
X72682753Y-35473757D01*
X72652635Y-35663922D01*
X72649500Y-35683713D01*
X72649500Y-35896287D01*
X72654033Y-35924905D01*
X72681324Y-36097219D01*
X72682754Y-36106243D01*
X72726853Y-36241966D01*
X72748444Y-36308414D01*
X72844951Y-36497820D01*
X72969890Y-36669786D01*
X73120213Y-36820109D01*
X73292182Y-36945050D01*
X73300946Y-36949516D01*
X73351742Y-36997491D01*
X73368536Y-37065312D01*
X73345998Y-37131447D01*
X73300946Y-37170484D01*
X73292182Y-37174949D01*
X73120213Y-37299890D01*
X72969890Y-37450213D01*
X72844951Y-37622179D01*
X72748444Y-37811585D01*
X72682753Y-38013760D01*
X72649500Y-38223713D01*
X72649500Y-38436286D01*
X72682754Y-38646244D01*
X72682754Y-38646247D01*
X72696491Y-38688523D01*
X72698486Y-38758364D01*
X72666241Y-38814522D01*
X69131286Y-42349478D01*
X69019481Y-42461282D01*
X69019480Y-42461284D01*
X68975469Y-42537515D01*
X68969361Y-42548094D01*
X68969359Y-42548096D01*
X68940425Y-42598209D01*
X68940424Y-42598210D01*
X68940423Y-42598215D01*
X68899499Y-42750943D01*
X68899499Y-42750945D01*
X68899499Y-42919046D01*
X68899500Y-42919059D01*
X68899500Y-45126000D01*
X68879815Y-45193039D01*
X68827011Y-45238794D01*
X68775500Y-45250000D01*
X38183500Y-45250000D01*
X38116461Y-45230315D01*
X38070706Y-45177511D01*
X38059500Y-45126000D01*
X38059500Y-35091097D01*
X38079185Y-35024058D01*
X38095819Y-35003416D01*
X41976819Y-31122416D01*
X42038142Y-31088931D01*
X42107834Y-31093915D01*
X42163767Y-31135787D01*
X42188184Y-31201251D01*
X42188500Y-31210097D01*
X42188500Y-32572330D01*
X42188499Y-32572348D01*
X42188499Y-32738054D01*
X42188498Y-32738054D01*
X42188499Y-32738057D01*
X42229423Y-32890785D01*
X42247990Y-32922943D01*
X42259566Y-32942993D01*
X42308479Y-33027715D01*
X42427349Y-33146585D01*
X42427355Y-33146590D01*
X44085922Y-34805157D01*
X44119407Y-34866480D01*
X44116173Y-34931155D01*
X44111522Y-34945468D01*
X44088988Y-35087742D01*
X44079500Y-35147648D01*
X44079500Y-35352352D01*
X44080586Y-35359208D01*
X44111522Y-35554534D01*
X44174781Y-35749223D01*
X44223631Y-35845095D01*
X44249714Y-35896286D01*
X44267715Y-35931613D01*
X44388028Y-36097213D01*
X44532786Y-36241971D01*
X44657057Y-36332257D01*
X44698390Y-36362287D01*
X44814607Y-36421503D01*
X44880776Y-36455218D01*
X44880778Y-36455218D01*
X44880781Y-36455220D01*
X44977125Y-36486524D01*
X45075465Y-36518477D01*
X45176557Y-36534488D01*
X45277648Y-36550500D01*
X45277649Y-36550500D01*
X45482351Y-36550500D01*
X45482352Y-36550500D01*
X45684534Y-36518477D01*
X45879219Y-36455220D01*
X46061610Y-36362287D01*
X46154590Y-36294732D01*
X46227213Y-36241971D01*
X46227215Y-36241968D01*
X46227219Y-36241966D01*
X46371966Y-36097219D01*
X46371968Y-36097215D01*
X46371971Y-36097213D01*
X46445090Y-35996571D01*
X46492287Y-35931610D01*
X46585220Y-35749219D01*
X46648477Y-35554534D01*
X46680500Y-35352352D01*
X46680500Y-35147648D01*
X46648477Y-34945466D01*
X46585220Y-34750781D01*
X46585217Y-34750777D01*
X46585217Y-34750774D01*
X46570961Y-34722796D01*
X46558064Y-34654127D01*
X46584339Y-34589387D01*
X46641445Y-34549129D01*
X46681445Y-34542500D01*
X51698555Y-34542500D01*
X51765594Y-34562185D01*
X51811349Y-34614989D01*
X51821293Y-34684147D01*
X51809039Y-34722796D01*
X51794782Y-34750774D01*
X51731522Y-34945465D01*
X51708988Y-35087742D01*
X51699500Y-35147648D01*
X51699500Y-35352352D01*
X51700586Y-35359208D01*
X51731522Y-35554534D01*
X51794781Y-35749223D01*
X51843631Y-35845095D01*
X51869714Y-35896286D01*
X51887715Y-35931613D01*
X52008028Y-36097213D01*
X52152786Y-36241971D01*
X52277057Y-36332257D01*
X52318390Y-36362287D01*
X52434607Y-36421503D01*
X52500776Y-36455218D01*
X52500778Y-36455218D01*
X52500781Y-36455220D01*
X52597125Y-36486524D01*
X52695465Y-36518477D01*
X52796557Y-36534488D01*
X52897648Y-36550500D01*
X52897649Y-36550500D01*
X53102351Y-36550500D01*
X53102352Y-36550500D01*
X53304534Y-36518477D01*
X53499219Y-36455220D01*
X53681610Y-36362287D01*
X53774590Y-36294732D01*
X53847213Y-36241971D01*
X53847215Y-36241968D01*
X53847219Y-36241966D01*
X53991966Y-36097219D01*
X53991968Y-36097215D01*
X53991971Y-36097213D01*
X54112284Y-35931614D01*
X54112285Y-35931613D01*
X54112287Y-35931610D01*
X54119117Y-35918204D01*
X54167091Y-35867409D01*
X54229602Y-35850500D01*
X54913331Y-35850500D01*
X54913347Y-35850501D01*
X54920943Y-35850501D01*
X55079054Y-35850501D01*
X55079057Y-35850501D01*
X55231785Y-35809577D01*
X55281904Y-35780639D01*
X55368716Y-35730520D01*
X55480520Y-35618716D01*
X55480520Y-35618714D01*
X55490728Y-35608507D01*
X55490730Y-35608504D01*
X56707713Y-34391521D01*
X56707716Y-34391520D01*
X56727825Y-34371410D01*
X56770021Y-34348372D01*
X56789142Y-34337932D01*
X56789144Y-34337932D01*
X56789148Y-34337930D01*
X56830726Y-34340905D01*
X56858834Y-34342916D01*
X56858836Y-34342917D01*
X56858839Y-34342918D01*
X56894308Y-34369472D01*
X56914767Y-34384788D01*
X56914767Y-34384789D01*
X56914771Y-34384792D01*
X56923910Y-34409300D01*
X56939184Y-34450252D01*
X56939500Y-34459098D01*
X56939500Y-38783330D01*
X56939499Y-38783348D01*
X56939499Y-38949054D01*
X56939498Y-38949054D01*
X56980423Y-39101785D01*
X57009358Y-39151900D01*
X57009359Y-39151904D01*
X57009360Y-39151904D01*
X57059479Y-39238714D01*
X57059481Y-39238717D01*
X57178349Y-39357585D01*
X57178355Y-39357590D01*
X58337336Y-40516571D01*
X58370821Y-40577894D01*
X58372128Y-40623648D01*
X58359500Y-40703389D01*
X58359500Y-40876611D01*
X58386598Y-41047701D01*
X58440127Y-41212445D01*
X58518768Y-41366788D01*
X58620586Y-41506928D01*
X58743072Y-41629414D01*
X58883212Y-41731232D01*
X59037555Y-41809873D01*
X59202299Y-41863402D01*
X59373389Y-41890500D01*
X59373390Y-41890500D01*
X59546610Y-41890500D01*
X59546611Y-41890500D01*
X59717701Y-41863402D01*
X59882445Y-41809873D01*
X60036788Y-41731232D01*
X60176928Y-41629414D01*
X60299414Y-41506928D01*
X60401232Y-41366788D01*
X60479873Y-41212445D01*
X60533402Y-41047701D01*
X60560500Y-40876611D01*
X60560500Y-40703389D01*
X60533402Y-40532299D01*
X60479873Y-40367555D01*
X60401232Y-40213212D01*
X60299414Y-40073072D01*
X60176928Y-39950586D01*
X60036788Y-39848768D01*
X59882445Y-39770127D01*
X59717701Y-39716598D01*
X59717699Y-39716597D01*
X59717698Y-39716597D01*
X59569801Y-39693173D01*
X59546611Y-39689500D01*
X59373389Y-39689500D01*
X59293649Y-39702129D01*
X59224355Y-39693173D01*
X59186571Y-39667336D01*
X58176819Y-38657584D01*
X58143334Y-38596261D01*
X58140500Y-38569903D01*
X58140500Y-36186269D01*
X58160185Y-36119230D01*
X58212989Y-36073475D01*
X58282147Y-36063531D01*
X58345703Y-36092556D01*
X58383477Y-36151334D01*
X58386974Y-36166873D01*
X58387087Y-36167589D01*
X58440591Y-36332257D01*
X58519195Y-36486524D01*
X58620967Y-36626602D01*
X58743397Y-36749032D01*
X58883475Y-36850804D01*
X59037744Y-36929408D01*
X59202415Y-36982914D01*
X59202414Y-36982914D01*
X59209999Y-36984115D01*
X59710000Y-36984115D01*
X59717584Y-36982914D01*
X59882255Y-36929408D01*
X60036524Y-36850804D01*
X60176602Y-36749032D01*
X60299032Y-36626602D01*
X60400804Y-36486524D01*
X60479408Y-36332257D01*
X60532914Y-36167584D01*
X60560000Y-35996571D01*
X60560000Y-35960000D01*
X59710000Y-35960000D01*
X59710000Y-36984115D01*
X59209999Y-36984115D01*
X59210000Y-36984114D01*
X59210000Y-35954975D01*
X59245095Y-35990070D01*
X59324905Y-36036148D01*
X59413922Y-36060000D01*
X59506078Y-36060000D01*
X59595095Y-36036148D01*
X59674905Y-35990070D01*
X59740070Y-35924905D01*
X59786148Y-35845095D01*
X59810000Y-35756078D01*
X59810000Y-35663922D01*
X59786148Y-35574905D01*
X59740070Y-35495095D01*
X59704975Y-35460000D01*
X59710000Y-35460000D01*
X60560000Y-35460000D01*
X60560000Y-35423428D01*
X60532914Y-35252415D01*
X60479408Y-35087742D01*
X60400804Y-34933475D01*
X60299032Y-34793397D01*
X60176602Y-34670967D01*
X60036524Y-34569195D01*
X59882257Y-34490591D01*
X59717589Y-34437087D01*
X59717581Y-34437085D01*
X59710000Y-34435884D01*
X59710000Y-35460000D01*
X59704975Y-35460000D01*
X59674905Y-35429930D01*
X59595095Y-35383852D01*
X59506078Y-35360000D01*
X59413922Y-35360000D01*
X59324905Y-35383852D01*
X59245095Y-35429930D01*
X59210000Y-35465025D01*
X59210000Y-34435884D01*
X59209999Y-34435884D01*
X59202418Y-34437085D01*
X59202410Y-34437087D01*
X59037742Y-34490591D01*
X58883475Y-34569195D01*
X58743397Y-34670967D01*
X58620967Y-34793397D01*
X58519195Y-34933475D01*
X58440591Y-35087742D01*
X58387086Y-35252413D01*
X58386973Y-35253130D01*
X58386854Y-35253380D01*
X58385951Y-35257144D01*
X58385160Y-35256954D01*
X58357043Y-35316264D01*
X58297731Y-35353194D01*
X58227868Y-35352196D01*
X58169636Y-35313585D01*
X58141522Y-35249621D01*
X58140500Y-35233730D01*
X58140500Y-30774499D01*
X58160185Y-30707460D01*
X58212989Y-30661705D01*
X58264500Y-30650499D01*
X58487871Y-30650499D01*
X58487872Y-30650499D01*
X58547483Y-30644091D01*
X58682331Y-30593796D01*
X58797546Y-30507546D01*
X58883796Y-30392331D01*
X58934091Y-30257483D01*
X58940500Y-30197873D01*
X58940499Y-29397095D01*
X58960183Y-29330057D01*
X59012987Y-29284302D01*
X59082146Y-29274358D01*
X59145702Y-29303383D01*
X59152180Y-29309415D01*
X61363181Y-31520416D01*
X61396666Y-31581739D01*
X61399500Y-31608097D01*
X61399500Y-37262814D01*
X61379815Y-37329853D01*
X61348387Y-37363131D01*
X61283072Y-37410585D01*
X61160588Y-37533069D01*
X61160588Y-37533070D01*
X61160586Y-37533072D01*
X61116859Y-37593256D01*
X61058768Y-37673211D01*
X60980128Y-37827552D01*
X60926597Y-37992302D01*
X60899500Y-38163389D01*
X60899500Y-38336611D01*
X60926598Y-38507701D01*
X60980127Y-38672445D01*
X61058768Y-38826788D01*
X61160586Y-38966928D01*
X61283072Y-39089414D01*
X61423212Y-39191232D01*
X61577555Y-39269873D01*
X61742299Y-39323402D01*
X61913389Y-39350500D01*
X61913390Y-39350500D01*
X62086610Y-39350500D01*
X62086611Y-39350500D01*
X62257701Y-39323402D01*
X62422445Y-39269873D01*
X62576788Y-39191232D01*
X62716928Y-39089414D01*
X62839414Y-38966928D01*
X62941232Y-38826788D01*
X63019873Y-38672445D01*
X63073402Y-38507701D01*
X63100500Y-38336611D01*
X63100500Y-38163389D01*
X63073402Y-37992299D01*
X63019873Y-37827555D01*
X62941232Y-37673212D01*
X62839414Y-37533072D01*
X62716928Y-37410586D01*
X62651613Y-37363131D01*
X62608948Y-37307801D01*
X62600500Y-37262814D01*
X62600500Y-31397059D01*
X62600501Y-31397046D01*
X62600501Y-31228945D01*
X62600501Y-31228943D01*
X62559577Y-31076215D01*
X62508261Y-30987334D01*
X62480520Y-30939284D01*
X62368716Y-30827480D01*
X62368715Y-30827479D01*
X62364385Y-30823149D01*
X62364374Y-30823139D01*
X59228590Y-27687355D01*
X59228588Y-27687352D01*
X59109717Y-27568481D01*
X59109716Y-27568480D01*
X59022904Y-27518360D01*
X59022904Y-27518359D01*
X59022900Y-27518358D01*
X58972785Y-27489423D01*
X58820057Y-27448499D01*
X58661943Y-27448499D01*
X58654347Y-27448499D01*
X58654331Y-27448500D01*
X56259943Y-27448500D01*
X56107216Y-27489423D01*
X56107209Y-27489426D01*
X55970290Y-27568475D01*
X55970282Y-27568481D01*
X55858481Y-27680282D01*
X55858475Y-27680290D01*
X55779426Y-27817209D01*
X55779423Y-27817214D01*
X55758205Y-27896403D01*
X55721839Y-27956063D01*
X55658992Y-27986592D01*
X55589617Y-27978297D01*
X55582134Y-27974793D01*
X55537610Y-27952106D01*
X55537603Y-27952103D01*
X55327952Y-27883985D01*
X55219086Y-27866742D01*
X55110222Y-27849500D01*
X54889778Y-27849500D01*
X54817201Y-27860995D01*
X54672047Y-27883985D01*
X54462396Y-27952103D01*
X54462393Y-27952104D01*
X54265974Y-28052187D01*
X54087641Y-28181752D01*
X54087636Y-28181756D01*
X53931756Y-28337636D01*
X53931752Y-28337641D01*
X53802187Y-28515974D01*
X53702104Y-28712393D01*
X53702103Y-28712396D01*
X53633985Y-28922047D01*
X53610830Y-29068242D01*
X53599500Y-29139778D01*
X53599500Y-29360222D01*
X53608997Y-29420185D01*
X53633985Y-29577952D01*
X53702103Y-29787603D01*
X53702104Y-29787606D01*
X53770122Y-29921096D01*
X53785735Y-29951738D01*
X53802187Y-29984025D01*
X53931752Y-30162358D01*
X53931756Y-30162363D01*
X54087636Y-30318243D01*
X54087641Y-30318247D01*
X54265976Y-30447814D01*
X54331794Y-30481350D01*
X54382591Y-30529324D01*
X54399500Y-30591835D01*
X54399500Y-32949902D01*
X54379815Y-33016941D01*
X54363181Y-33037583D01*
X54095584Y-33305181D01*
X54034261Y-33338666D01*
X54007903Y-33341500D01*
X46606500Y-33341500D01*
X46539461Y-33321815D01*
X46493706Y-33269011D01*
X46482500Y-33217500D01*
X46482500Y-32922944D01*
X46482500Y-32922943D01*
X46441577Y-32770216D01*
X46441577Y-32770215D01*
X46395509Y-32690423D01*
X46362520Y-32633284D01*
X46250716Y-32521480D01*
X46250715Y-32521479D01*
X46246385Y-32517149D01*
X46246374Y-32517139D01*
X45424077Y-31694842D01*
X45390592Y-31633519D01*
X45393828Y-31568841D01*
X45398477Y-31554534D01*
X45430500Y-31352352D01*
X45430500Y-31147648D01*
X45398477Y-30945466D01*
X45396469Y-30939287D01*
X45358734Y-30823149D01*
X45335220Y-30750781D01*
X45335218Y-30750778D01*
X45335218Y-30750776D01*
X45289833Y-30661705D01*
X45242287Y-30568390D01*
X45213904Y-30529324D01*
X45121971Y-30402786D01*
X44977213Y-30258028D01*
X44811614Y-30137715D01*
X44808113Y-30135931D01*
X44780085Y-30121650D01*
X44759633Y-30102334D01*
X44737113Y-30085476D01*
X44734573Y-30078666D01*
X44729290Y-30073677D01*
X44722527Y-30046368D01*
X44712697Y-30020011D01*
X44714241Y-30012909D01*
X44712495Y-30005856D01*
X44721568Y-29979229D01*
X44727549Y-29951738D01*
X44733767Y-29943430D01*
X44735032Y-29939721D01*
X44748692Y-29923493D01*
X44834368Y-29837816D01*
X44895691Y-29804334D01*
X44922048Y-29801500D01*
X44950802Y-29801500D01*
X44950818Y-29801501D01*
X44958414Y-29801501D01*
X45116525Y-29801501D01*
X45116528Y-29801501D01*
X45269256Y-29760577D01*
X45280604Y-29754025D01*
X45322948Y-29729578D01*
X45322949Y-29729577D01*
X45406187Y-29681520D01*
X45517991Y-29569716D01*
X45517991Y-29569714D01*
X45528195Y-29559511D01*
X45528199Y-29559506D01*
X46006929Y-29080775D01*
X46036829Y-29064448D01*
X46066522Y-29047681D01*
X46067441Y-29047733D01*
X46068250Y-29047292D01*
X46102258Y-29049724D01*
X46136277Y-29051669D01*
X46137346Y-29052233D01*
X46137942Y-29052276D01*
X46167493Y-29068139D01*
X46167635Y-29068242D01*
X46345978Y-29197815D01*
X46345982Y-29197817D01*
X46348384Y-29199562D01*
X46391050Y-29254892D01*
X46399499Y-29299881D01*
X46399499Y-29329054D01*
X46399498Y-29329054D01*
X46407850Y-29360222D01*
X46440423Y-29481785D01*
X46519481Y-29618716D01*
X46631284Y-29730519D01*
X46768215Y-29809577D01*
X46920943Y-29850501D01*
X46920946Y-29850501D01*
X47079054Y-29850501D01*
X47079057Y-29850501D01*
X47231785Y-29809577D01*
X47368716Y-29730519D01*
X47448713Y-29650521D01*
X47448716Y-29650520D01*
X47560520Y-29538716D01*
X47560521Y-29538713D01*
X49787322Y-27311912D01*
X49848641Y-27278430D01*
X49918333Y-27283414D01*
X49962680Y-27311915D01*
X51113181Y-28462416D01*
X51146666Y-28523739D01*
X51149500Y-28550097D01*
X51149500Y-30020397D01*
X51129815Y-30087436D01*
X51081800Y-30130879D01*
X51068389Y-30137712D01*
X50902786Y-30258028D01*
X50758028Y-30402786D01*
X50637715Y-30568386D01*
X50544781Y-30750776D01*
X50481522Y-30945465D01*
X50449500Y-31147648D01*
X50449500Y-31352351D01*
X50481522Y-31554534D01*
X50544781Y-31749223D01*
X50608691Y-31874653D01*
X50624869Y-31906403D01*
X50637715Y-31931613D01*
X50758028Y-32097213D01*
X50902786Y-32241971D01*
X51054444Y-32352155D01*
X51068390Y-32362287D01*
X51162552Y-32410265D01*
X51250776Y-32455218D01*
X51250778Y-32455218D01*
X51250781Y-32455220D01*
X51355137Y-32489127D01*
X51445465Y-32518477D01*
X51546557Y-32534488D01*
X51647648Y-32550500D01*
X51647649Y-32550500D01*
X51852351Y-32550500D01*
X51852352Y-32550500D01*
X52054534Y-32518477D01*
X52249219Y-32455220D01*
X52431610Y-32362287D01*
X52527499Y-32292620D01*
X52597213Y-32241971D01*
X52597215Y-32241968D01*
X52597219Y-32241966D01*
X52741966Y-32097219D01*
X52741968Y-32097215D01*
X52741971Y-32097213D01*
X52844098Y-31956645D01*
X52862287Y-31931610D01*
X52955220Y-31749219D01*
X53018477Y-31554534D01*
X53050500Y-31352352D01*
X53050500Y-31147648D01*
X53018477Y-30945466D01*
X53016469Y-30939287D01*
X52978734Y-30823149D01*
X52955220Y-30750781D01*
X52955218Y-30750778D01*
X52955218Y-30750776D01*
X52909833Y-30661705D01*
X52862287Y-30568390D01*
X52833904Y-30529324D01*
X52741971Y-30402786D01*
X52597213Y-30258028D01*
X52431610Y-30137712D01*
X52418200Y-30130879D01*
X52367406Y-30082903D01*
X52350500Y-30020397D01*
X52350500Y-28339060D01*
X52350501Y-28339047D01*
X52350501Y-28170944D01*
X52350501Y-28170943D01*
X52309577Y-28018216D01*
X52281707Y-27969943D01*
X52230524Y-27881290D01*
X52230518Y-27881282D01*
X51838659Y-27489423D01*
X51411415Y-27062180D01*
X51377931Y-27000858D01*
X51382915Y-26931167D01*
X51424787Y-26875233D01*
X51490251Y-26850816D01*
X51499097Y-26850500D01*
X64159903Y-26850500D01*
X64226942Y-26870185D01*
G37*
%TD.AperFunction*%
%TD*%
M02*
