%TF.GenerationSoftware,KiCad,Pcbnew,9.0.6*%
%TF.CreationDate,2026-02-08T08:52:06-08:00*%
%TF.ProjectId,flopper_one,666c6f70-7065-4725-9f6f-6e652e6b6963,rev?*%
%TF.SameCoordinates,Original*%
%TF.FileFunction,Copper,L2,Bot*%
%TF.FilePolarity,Positive*%
%FSLAX46Y46*%
G04 Gerber Fmt 4.6, Leading zero omitted, Abs format (unit mm)*
G04 Created by KiCad (PCBNEW 9.0.6) date 2026-02-08 08:52:06*
%MOMM*%
%LPD*%
G01*
G04 APERTURE LIST*
G04 Aperture macros list*
%AMRoundRect*
0 Rectangle with rounded corners*
0 $1 Rounding radius*
0 $2 $3 $4 $5 $6 $7 $8 $9 X,Y pos of 4 corners*
0 Add a 4 corners polygon primitive as box body*
4,1,4,$2,$3,$4,$5,$6,$7,$8,$9,$2,$3,0*
0 Add four circle primitives for the rounded corners*
1,1,$1+$1,$2,$3*
1,1,$1+$1,$4,$5*
1,1,$1+$1,$6,$7*
1,1,$1+$1,$8,$9*
0 Add four rect primitives between the rounded corners*
20,1,$1+$1,$2,$3,$4,$5,0*
20,1,$1+$1,$4,$5,$6,$7,0*
20,1,$1+$1,$6,$7,$8,$9,0*
20,1,$1+$1,$8,$9,$2,$3,0*%
G04 Aperture macros list end*
%TA.AperFunction,Conductor*%
%ADD10C,0.100000*%
%TD*%
%TA.AperFunction,Conductor*%
%ADD11C,0.200000*%
%TD*%
%TA.AperFunction,ComponentPad*%
%ADD12R,2.000000X2.000000*%
%TD*%
%TA.AperFunction,ComponentPad*%
%ADD13C,2.000000*%
%TD*%
%TA.AperFunction,HeatsinkPad*%
%ADD14C,0.500000*%
%TD*%
%TA.AperFunction,HeatsinkPad*%
%ADD15R,1.900000X2.900000*%
%TD*%
%TA.AperFunction,ComponentPad*%
%ADD16R,1.700000X1.700000*%
%TD*%
%TA.AperFunction,ComponentPad*%
%ADD17C,1.700000*%
%TD*%
%TA.AperFunction,ComponentPad*%
%ADD18C,1.600000*%
%TD*%
%TA.AperFunction,ComponentPad*%
%ADD19R,1.800000X1.800000*%
%TD*%
%TA.AperFunction,ComponentPad*%
%ADD20C,1.800000*%
%TD*%
%TA.AperFunction,SMDPad,CuDef*%
%ADD21RoundRect,0.750000X0.750000X-1.750000X0.750000X1.750000X-0.750000X1.750000X-0.750000X-1.750000X0*%
%TD*%
%TA.AperFunction,ComponentPad*%
%ADD22RoundRect,0.250200X-0.649800X-0.649800X0.649800X-0.649800X0.649800X0.649800X-0.649800X0.649800X0*%
%TD*%
%TA.AperFunction,ComponentPad*%
%ADD23O,1.200000X1.600000*%
%TD*%
%TA.AperFunction,ComponentPad*%
%ADD24C,1.200000*%
%TD*%
%TA.AperFunction,ComponentPad*%
%ADD25RoundRect,0.250000X-0.750000X0.750000X-0.750000X-0.750000X0.750000X-0.750000X0.750000X0.750000X0*%
%TD*%
%TA.AperFunction,ComponentPad*%
%ADD26O,3.500000X2.000000*%
%TD*%
%TA.AperFunction,ViaPad*%
%ADD27C,0.600000*%
%TD*%
G04 APERTURE END LIST*
%TO.N,/BAT+*%
D10*
X192000000Y-79500000D02*
X195875000Y-79500000D01*
X195875000Y-83625000D01*
X192000000Y-83625000D01*
X192000000Y-79500000D01*
%TA.AperFunction,Conductor*%
G36*
X192000000Y-79500000D02*
G01*
X195875000Y-79500000D01*
X195875000Y-83625000D01*
X192000000Y-83625000D01*
X192000000Y-79500000D01*
G37*
%TD.AperFunction*%
%TO.N,GND*%
D11*
X198062500Y-79125000D02*
X202437500Y-79125000D01*
X202437500Y-83375000D01*
X198062500Y-83375000D01*
X198062500Y-79125000D01*
%TA.AperFunction,Conductor*%
G36*
X198062500Y-79125000D02*
G01*
X202437500Y-79125000D01*
X202437500Y-83375000D01*
X198062500Y-83375000D01*
X198062500Y-79125000D01*
G37*
%TD.AperFunction*%
%TO.N,/BAT+*%
X193125000Y-81250000D02*
X195375000Y-81250000D01*
X195375000Y-83625000D01*
X193125000Y-83625000D01*
X193125000Y-81250000D01*
%TD*%
D12*
%TO.P,U2,1,VIN*%
%TO.N,/VIN*%
X185320000Y-95000000D03*
D13*
%TO.P,U2,2,GND*%
%TO.N,GND*%
X182780000Y-95000000D03*
%TO.P,U2,3,GPIO13*%
%TO.N,unconnected-(U2-GPIO13-Pad3)*%
X180240000Y-95000000D03*
%TO.P,U2,4,GPIO12*%
%TO.N,/P4*%
X177700000Y-95000000D03*
%TO.P,U2,5,GPIO14*%
%TO.N,/P1*%
X175160000Y-95000000D03*
%TO.P,U2,6,GPIO27*%
%TO.N,/P2*%
X172620000Y-95000000D03*
%TO.P,U2,7,GPIO26*%
%TO.N,/P3*%
X170080000Y-95000000D03*
%TO.P,U2,8,GPIO25*%
%TO.N,/P5*%
X167540000Y-95000000D03*
%TO.P,U2,9,GPIO33*%
%TO.N,unconnected-(U2-GPIO33-Pad9)*%
X165000000Y-95000000D03*
%TO.P,U2,10,GPIO32*%
%TO.N,unconnected-(U2-GPIO32-Pad10)*%
X162460000Y-95000000D03*
%TO.P,U2,11,GPIO35*%
%TO.N,unconnected-(U2-GPIO35-Pad11)*%
X159920000Y-95000000D03*
%TO.P,U2,12,GPIO34*%
%TO.N,unconnected-(U2-GPIO34-Pad12)*%
X157380000Y-95000000D03*
%TO.P,U2,13,GPIO39*%
%TO.N,unconnected-(U2-GPIO39-Pad13)*%
X154840000Y-95000000D03*
%TO.P,U2,14,GPIO36*%
%TO.N,unconnected-(U2-GPIO36-Pad14)*%
X152300000Y-95000000D03*
%TO.P,U2,15,EN*%
%TO.N,unconnected-(U2-EN-Pad15)*%
X149760000Y-95000000D03*
%TO.P,U2,16,3.3v*%
%TO.N,/VCC*%
X149760000Y-120400000D03*
%TO.P,U2,17,GND*%
%TO.N,GND*%
X152300000Y-120400000D03*
%TO.P,U2,18,GPIO15*%
%TO.N,unconnected-(U2-GPIO15-Pad18)*%
X154840000Y-120400000D03*
%TO.P,U2,19,GPIO2*%
%TO.N,unconnected-(U2-GPIO2-Pad19)*%
X157380000Y-120400000D03*
%TO.P,U2,20,GPIO4*%
%TO.N,unconnected-(U2-GPIO4-Pad20)*%
X159920000Y-120400000D03*
%TO.P,U2,21,GPIO16*%
%TO.N,Net-(U2-GPIO16)*%
X162460000Y-120400000D03*
%TO.P,U2,22,GPIO17*%
%TO.N,/SDA1*%
X165000000Y-120400000D03*
%TO.P,U2,23,GPIO5*%
%TO.N,/SCL1*%
X167540000Y-120400000D03*
%TO.P,U2,24,GPIO18*%
%TO.N,/SCL2*%
X170080000Y-120400000D03*
%TO.P,U2,25,GPIO19*%
%TO.N,/SDA2*%
X172620000Y-120400000D03*
%TO.P,U2,26,GPIO21*%
%TO.N,unconnected-(U2-GPIO21-Pad26)*%
X175160000Y-120400000D03*
%TO.P,U2,27,GPIO3*%
%TO.N,unconnected-(U2-GPIO3-Pad27)*%
X177700000Y-120400000D03*
%TO.P,U2,28,GPIO1*%
%TO.N,unconnected-(U2-GPIO1-Pad28)*%
X180240000Y-120400000D03*
%TO.P,U2,29,GPIO22*%
%TO.N,unconnected-(U2-GPIO22-Pad29)*%
X182780000Y-120400000D03*
%TO.P,U2,30,GPIO23*%
%TO.N,Net-(U2-GPIO23)*%
X185320000Y-120400000D03*
%TD*%
D14*
%TO.P,U1,9,EPAD*%
%TO.N,GND*%
X202300000Y-97025000D03*
X202300000Y-95825000D03*
X202300000Y-94625000D03*
D15*
X201600000Y-95825000D03*
D14*
X200900000Y-97025000D03*
X200900000Y-95825000D03*
X200900000Y-94625000D03*
%TD*%
D16*
%TO.P,J2,1,Pin_1*%
%TO.N,GND*%
X185000000Y-69000000D03*
D17*
%TO.P,J2,2,Pin_2*%
%TO.N,/VCC*%
X185000000Y-71540000D03*
%TO.P,J2,3,Pin_3*%
%TO.N,/SCL2*%
X185000000Y-74080000D03*
%TO.P,J2,4,Pin_4*%
%TO.N,/SDA2*%
X185000000Y-76620000D03*
%TO.P,J2,5,Pin_5*%
%TO.N,unconnected-(J2-Pin_5-Pad5)*%
X185000000Y-79160000D03*
%TO.P,J2,6,Pin_6*%
%TO.N,unconnected-(J2-Pin_6-Pad6)*%
X185000000Y-81700000D03*
%TO.P,J2,7,Pin_7*%
%TO.N,/VCC*%
X185000000Y-84240000D03*
%TD*%
D18*
%TO.P,R5,1*%
%TO.N,Net-(U1-~{CHRG})*%
X215000000Y-85130000D03*
%TO.P,R5,2*%
%TO.N,Net-(D2-K)*%
X215000000Y-92750000D03*
%TD*%
D19*
%TO.P,D3,1,K*%
%TO.N,Net-(D3-K)*%
X218250000Y-116000000D03*
D20*
%TO.P,D3,2,A*%
%TO.N,GND*%
X215710000Y-116000000D03*
%TD*%
D21*
%TO.P,U4,1,VOUT+*%
%TO.N,Net-(SW6-B)*%
X208050000Y-119250000D03*
%TO.P,U4,2,VOUT-*%
%TO.N,GND*%
X201250000Y-119250000D03*
%TO.P,U4,3,VIN-*%
X201250000Y-88750000D03*
%TO.P,U4,4,VIN+*%
%TO.N,/BAT+*%
X208050000Y-88750000D03*
%TD*%
D18*
%TO.P,R1,1*%
%TO.N,Net-(D1-A)*%
X155130000Y-67000000D03*
%TO.P,R1,2*%
%TO.N,/VCC*%
X162750000Y-67000000D03*
%TD*%
%TO.P,R3,1*%
%TO.N,Net-(U1-PROG)*%
X216250000Y-95190000D03*
%TO.P,R3,2*%
%TO.N,GND*%
X216250000Y-102810000D03*
%TD*%
%TO.P,R4,1*%
%TO.N,Net-(U1-~{STDBY})*%
X218250000Y-85130000D03*
%TO.P,R4,2*%
%TO.N,Net-(D3-K)*%
X218250000Y-92750000D03*
%TD*%
D22*
%TO.P,U_2,1,OUT*%
%TO.N,Net-(U2-GPIO23)*%
X153000000Y-63750000D03*
D20*
%TO.P,U_2,2,GND*%
%TO.N,GND*%
X155540000Y-63750000D03*
%TO.P,U_2,3,Vs*%
%TO.N,/VCC*%
X158080000Y-63750000D03*
%TD*%
D18*
%TO.P,R2,1*%
%TO.N,Net-(Q1-B)*%
X164000000Y-71000000D03*
%TO.P,R2,2*%
%TO.N,Net-(U2-GPIO16)*%
X156380000Y-71000000D03*
%TD*%
D23*
%TO.P,Q1,1,E*%
%TO.N,GND*%
X170460000Y-71460000D03*
D24*
%TO.P,Q1,2,B*%
%TO.N,Net-(Q1-B)*%
X173000000Y-74000000D03*
%TO.P,Q1,3,C*%
%TO.N,Net-(D1-K)*%
X170460000Y-76540000D03*
%TD*%
D19*
%TO.P,D1,1,K*%
%TO.N,Net-(D1-K)*%
X168540000Y-65000000D03*
D20*
%TO.P,D1,2,A*%
%TO.N,Net-(D1-A)*%
X166000000Y-65000000D03*
%TD*%
D16*
%TO.P,J1,1,VCC*%
%TO.N,GND*%
X185000000Y-98000000D03*
D17*
%TO.P,J1,2,RX*%
%TO.N,/VCC*%
X185000000Y-100540000D03*
%TO.P,J1,3,TX*%
%TO.N,/SDA1*%
X185000000Y-103080000D03*
%TO.P,J1,4,GND*%
%TO.N,/SCL1*%
X185000000Y-105620000D03*
%TD*%
D19*
%TO.P,D2,1,K*%
%TO.N,Net-(D2-K)*%
X218000000Y-108750000D03*
D20*
%TO.P,D2,2,A*%
%TO.N,GND*%
X215460000Y-108750000D03*
%TD*%
D25*
%TO.P,C1,1*%
%TO.N,/BAT+*%
X194000000Y-91000000D03*
D13*
%TO.P,C1,2*%
%TO.N,GND*%
X194000000Y-106000000D03*
%TD*%
D26*
%TO.P,ON=DSG,1,A*%
%TO.N,/VIN*%
X212000000Y-116750000D03*
%TO.P,ON=DSG,2,B*%
%TO.N,Net-(SW6-B)*%
X212000000Y-121750000D03*
%TD*%
D27*
%TO.N,GND*%
X198500000Y-87500000D03*
%TO.N,/VCC*%
X193000000Y-100000000D03*
X154000000Y-105000000D03*
X196000000Y-98000000D03*
%TO.N,Net-(U1-PROG)*%
X205500000Y-96250000D03*
%TO.N,/BAT+*%
X197500000Y-93000000D03*
%TO.N,/VIN*%
X192734516Y-93443906D03*
%TD*%
D11*
%TO.N,GND*%
X215710000Y-117790000D02*
X215449000Y-118051000D01*
X209949000Y-117162660D02*
X209235340Y-116449000D01*
X204051000Y-116449000D02*
X201250000Y-119250000D01*
X215449000Y-118051000D02*
X210711108Y-118051000D01*
X209949000Y-117288892D02*
X209949000Y-117162660D01*
X210711108Y-118051000D02*
X209949000Y-117288892D01*
X209235340Y-116449000D02*
X204051000Y-116449000D01*
%TO.N,Net-(SW6-B)*%
X208050000Y-119250000D02*
X210550000Y-121750000D01*
X210550000Y-121750000D02*
X212000000Y-121750000D01*
%TO.N,/VIN*%
X210500000Y-114750000D02*
X212000000Y-116250000D01*
X212000000Y-116250000D02*
X212000000Y-116750000D01*
X210500000Y-114750000D02*
X205250000Y-114750000D01*
%TO.N,Net-(D1-A)*%
X156882000Y-69692000D02*
X165308000Y-69692000D01*
X156882000Y-69692000D02*
X156882000Y-68752000D01*
X156882000Y-68752000D02*
X155130000Y-67000000D01*
X165308000Y-69692000D02*
X166000000Y-69000000D01*
X166000000Y-69000000D02*
X166000000Y-65000000D01*
%TO.N,Net-(D1-K)*%
X168540000Y-74620000D02*
X170460000Y-76540000D01*
X168540000Y-65000000D02*
X168540000Y-74620000D01*
%TO.N,GND*%
X201250000Y-85125000D02*
X201250000Y-88750000D01*
X215710000Y-108500000D02*
X215460000Y-108750000D01*
X216250000Y-102810000D02*
X215750000Y-102810000D01*
X162956000Y-81981000D02*
X152040000Y-71065000D01*
X215750000Y-102810000D02*
X215710000Y-102850000D01*
X198625000Y-82500000D02*
X201250000Y-85125000D01*
X184523240Y-72691000D02*
X185476760Y-72691000D01*
X185000000Y-97220000D02*
X185000000Y-98000000D01*
X201250000Y-88750000D02*
X199750000Y-88750000D01*
X215710000Y-102850000D02*
X215710000Y-108500000D01*
X175233240Y-79233240D02*
X175233240Y-81981000D01*
X175233240Y-81981000D02*
X162956000Y-81981000D01*
X175233240Y-81981000D02*
X184523240Y-72691000D01*
X182780000Y-95000000D02*
X185000000Y-97220000D01*
X215460000Y-108750000D02*
X215460000Y-115750000D01*
X199750000Y-88750000D02*
X198500000Y-87500000D01*
X170460000Y-74460000D02*
X175233240Y-79233240D01*
X170460000Y-71460000D02*
X170460000Y-74460000D01*
X152040000Y-71065000D02*
X152040000Y-67527100D01*
X186151000Y-72016760D02*
X186151000Y-70151000D01*
X215710000Y-116000000D02*
X215710000Y-117790000D01*
X155540000Y-64027100D02*
X155540000Y-63750000D01*
X185476760Y-72691000D02*
X186151000Y-72016760D01*
X215460000Y-115750000D02*
X215710000Y-116000000D01*
X186151000Y-70151000D02*
X185000000Y-69000000D01*
X152040000Y-67527100D02*
X155540000Y-64027100D01*
%TO.N,/VCC*%
X195000000Y-98000000D02*
X196000000Y-98000000D01*
X161000000Y-62000000D02*
X161000000Y-62250000D01*
X193000000Y-100000000D02*
X195000000Y-98000000D01*
X158080000Y-63750000D02*
X158080000Y-64920000D01*
X161000000Y-62250000D02*
X162750000Y-64000000D01*
X154000000Y-116160000D02*
X149760000Y-120400000D01*
X162750000Y-64000000D02*
X162750000Y-67000000D01*
X154000000Y-105000000D02*
X154000000Y-116160000D01*
X158000000Y-65000000D02*
X161000000Y-62000000D01*
X161000000Y-62000000D02*
X175460000Y-62000000D01*
X158080000Y-64920000D02*
X158000000Y-65000000D01*
X175460000Y-62000000D02*
X185000000Y-71540000D01*
%TO.N,Net-(Q1-B)*%
X169741000Y-63799000D02*
X167339000Y-63799000D01*
X167339000Y-63799000D02*
X167339000Y-69661000D01*
X167339000Y-69661000D02*
X166000000Y-71000000D01*
X166000000Y-71000000D02*
X164000000Y-71000000D01*
X173000000Y-74000000D02*
X173000000Y-67058000D01*
X173000000Y-67058000D02*
X169741000Y-63799000D01*
%TO.N,Net-(U2-GPIO16)*%
X155621950Y-64951000D02*
X156037471Y-64951000D01*
X153789000Y-68409000D02*
X153789000Y-66783950D01*
X153789000Y-66783950D02*
X155621950Y-64951000D01*
X162460000Y-109539892D02*
X162460000Y-120400000D01*
X156741000Y-64247471D02*
X156741000Y-63241000D01*
X156741000Y-63241000D02*
X156049000Y-62549000D01*
X148459000Y-70541000D02*
X148459000Y-95538892D01*
X156380000Y-71000000D02*
X153789000Y-68409000D01*
X156049000Y-62549000D02*
X155042529Y-62549000D01*
X154250000Y-63341529D02*
X154250000Y-64750000D01*
X156037471Y-64951000D02*
X156741000Y-64247471D01*
X154250000Y-64750000D02*
X148459000Y-70541000D01*
X148459000Y-95538892D02*
X162460000Y-109539892D01*
X155042529Y-62549000D02*
X154250000Y-63341529D01*
%TO.N,/SDA2*%
X190000000Y-93000000D02*
X190000000Y-107000000D01*
X183000000Y-110020000D02*
X172620000Y-120400000D01*
X183000000Y-110000000D02*
X183000000Y-110020000D01*
X183000000Y-86000000D02*
X190000000Y-93000000D01*
X190000000Y-107000000D02*
X187000000Y-110000000D01*
X183000000Y-78620000D02*
X183000000Y-86000000D01*
X185000000Y-76620000D02*
X183000000Y-78620000D01*
X187000000Y-110000000D02*
X183000000Y-110000000D01*
%TO.N,/SCL2*%
X180500000Y-85500000D02*
X189000000Y-94000000D01*
X189000000Y-107000000D02*
X188000000Y-108000000D01*
X189000000Y-94000000D02*
X189000000Y-107000000D01*
X188000000Y-108000000D02*
X182480000Y-108000000D01*
X185000000Y-74080000D02*
X180500000Y-78580000D01*
X182480000Y-108000000D02*
X170080000Y-120400000D01*
X180500000Y-85500000D02*
X180500000Y-78580000D01*
%TO.N,Net-(U2-GPIO23)*%
X183000000Y-61000000D02*
X155750000Y-61000000D01*
X191429000Y-114291000D02*
X191429000Y-69429000D01*
X191429000Y-69429000D02*
X183000000Y-61000000D01*
X155750000Y-61000000D02*
X153000000Y-63750000D01*
X185320000Y-120400000D02*
X191429000Y-114291000D01*
%TO.N,Net-(D2-K)*%
X215000000Y-92750000D02*
X216500000Y-92750000D01*
X218250000Y-108750000D02*
X218000000Y-108750000D01*
X216500000Y-92750000D02*
X218500000Y-94750000D01*
X218500000Y-94750000D02*
X218500000Y-108500000D01*
X218500000Y-108500000D02*
X218250000Y-108750000D01*
%TO.N,Net-(D3-K)*%
X218750000Y-115500000D02*
X218750000Y-111000000D01*
X218250000Y-116000000D02*
X218750000Y-115500000D01*
X219701000Y-94201000D02*
X218250000Y-92750000D01*
X218750000Y-111000000D02*
X219701000Y-110049000D01*
X219701000Y-110049000D02*
X219701000Y-94201000D01*
%TO.N,Net-(U1-PROG)*%
X206560000Y-95190000D02*
X205500000Y-96250000D01*
X216250000Y-95190000D02*
X206560000Y-95190000D01*
%TO.N,/BAT+*%
X194218750Y-82468750D02*
X194250000Y-82437500D01*
X194000000Y-91000000D02*
X192750000Y-89750000D01*
X194218750Y-87218750D02*
X194218750Y-82468750D01*
X202300001Y-93000000D02*
X197500000Y-93000000D01*
X208050000Y-88750000D02*
X206550001Y-88750000D01*
X192750000Y-88687500D02*
X194218750Y-87218750D01*
X192750000Y-89750000D02*
X192750000Y-88687500D01*
X206550001Y-88750000D02*
X202300001Y-93000000D01*
%TO.N,/VIN*%
X195131000Y-94653291D02*
X193977709Y-93500000D01*
X192750000Y-93459390D02*
X192734516Y-93443906D01*
X192250000Y-101750000D02*
X205250000Y-114750000D01*
X192250000Y-99067709D02*
X195131000Y-96186709D01*
X192750000Y-93500000D02*
X192750000Y-93459390D01*
X195131000Y-96186709D02*
X195131000Y-94653291D01*
X192250000Y-101750000D02*
X192250000Y-99067709D01*
X193977709Y-93500000D02*
X192750000Y-93500000D01*
%TD*%
M02*
