M48
; DRILL file {KiCad 9.0.6} date 2026-03-18T09:08:59-0700
; FORMAT={-:-/ absolute / metric / decimal}
; #@! TF.CreationDate,2026-03-18T09:08:59-07:00
; #@! TF.GenerationSoftware,Kicad,Pcbnew,9.0.6
; #@! TF.FileFunction,MixedPlating,1,2
FMAT,2
METRIC
; #@! TA.AperFunction,Plated,PTH,ComponentDrill
T1C0.700
; #@! TA.AperFunction,Plated,PTH,ComponentDrill
T2C0.800
; #@! TA.AperFunction,Plated,PTH,ComponentDrill
T3C0.900
; #@! TA.AperFunction,Plated,PTH,ComponentDrill
T4C1.000
; #@! TA.AperFunction,Plated,PTH,ComponentDrill
T5C1.020
; #@! TA.AperFunction,Plated,PTH,ComponentDrill
T6C1.500
; #@! TA.AperFunction,NonPlated,NPTH,ComponentDrill
T7C3.000
%
G90
G05
T1
X56.76Y-37.26
X59.3Y-34.72
X59.3Y-39.8
T2
X43.88Y-30.9
X45.38Y-35.0
X51.5Y-30.9
X53.0Y-35.0
T3
X42.0Y-27.75
X44.54Y-27.75
X47.08Y-27.75
X55.0Y-29.0
X57.54Y-29.0
T4
X74.0Y-33.0
X74.0Y-35.54
X74.0Y-38.08
X74.0Y-40.62
X74.0Y-43.16
X74.0Y-45.7
X74.0Y-48.24
X74.0Y-62.0
X74.0Y-64.54
X74.0Y-67.08
X74.0Y-69.62
T5
X38.93Y-59.07
X38.93Y-84.47
X41.47Y-59.07
X41.47Y-84.47
X44.01Y-59.07
X44.01Y-84.47
X46.55Y-59.07
X46.55Y-84.47
X49.09Y-59.07
X49.09Y-84.47
X51.63Y-59.07
X51.63Y-84.47
X54.17Y-59.07
X54.17Y-84.47
X56.71Y-59.07
X56.71Y-84.47
X59.25Y-59.07
X59.25Y-84.47
X61.79Y-59.07
X61.79Y-84.47
X64.33Y-59.07
X64.33Y-84.47
X66.87Y-59.07
X66.87Y-84.47
X69.41Y-59.07
X69.41Y-84.47
X71.95Y-59.07
X71.95Y-84.47
X74.49Y-59.07
X74.49Y-84.47
T7
X35.5Y-59.49
X35.5Y-84.0
X82.45Y-59.49
X82.45Y-84.0
T6
X98.5Y-74.05G85X98.5Y-82.55
G05
X103.5Y-74.05G85X103.5Y-82.55
G05
M30
