%TF.GenerationSoftware,KiCad,Pcbnew,9.0.6*%
%TF.CreationDate,2026-03-18T09:08:59-07:00*%
%TF.ProjectId,flopper_one,666c6f70-7065-4725-9f6f-6e652e6b6963,rev?*%
%TF.SameCoordinates,Original*%
%TF.FileFunction,Soldermask,Bot*%
%TF.FilePolarity,Negative*%
%FSLAX46Y46*%
G04 Gerber Fmt 4.6, Leading zero omitted, Abs format (unit mm)*
G04 Created by KiCad (PCBNEW 9.0.6) date 2026-03-18 09:08:59*
%MOMM*%
%LPD*%
G01*
G04 APERTURE LIST*
G04 Aperture macros list*
%AMRoundRect*
0 Rectangle with rounded corners*
0 $1 Rounding radius*
0 $2 $3 $4 $5 $6 $7 $8 $9 X,Y pos of 4 corners*
0 Add a 4 corners polygon primitive as box body*
4,1,4,$2,$3,$4,$5,$6,$7,$8,$9,$2,$3,0*
0 Add four circle primitives for the rounded corners*
1,1,$1+$1,$2,$3*
1,1,$1+$1,$4,$5*
1,1,$1+$1,$6,$7*
1,1,$1+$1,$8,$9*
0 Add four rect primitives between the rounded corners*
20,1,$1+$1,$2,$3,$4,$5,0*
20,1,$1+$1,$4,$5,$6,$7,0*
20,1,$1+$1,$6,$7,$8,$9,0*
20,1,$1+$1,$8,$9,$2,$3,0*%
G04 Aperture macros list end*
%ADD10C,0.100000*%
%ADD11C,0.200000*%
%ADD12O,2.000000X10.500000*%
%ADD13R,1.700000X1.700000*%
%ADD14C,1.700000*%
%ADD15C,3.000000*%
%ADD16RoundRect,0.102000X-1.000000X1.000000X-1.000000X-1.000000X1.000000X-1.000000X1.000000X1.000000X0*%
%ADD17C,2.204000*%
%ADD18C,1.600000*%
%ADD19RoundRect,0.250200X-0.649800X-0.649800X0.649800X-0.649800X0.649800X0.649800X-0.649800X0.649800X0*%
%ADD20C,1.800000*%
%ADD21O,1.200000X1.600000*%
%ADD22C,1.200000*%
%ADD23R,1.800000X1.800000*%
G04 APERTURE END LIST*
D10*
X96225000Y-67275000D02*
X100100000Y-67275000D01*
X100100000Y-71400000D01*
X96225000Y-71400000D01*
X96225000Y-67275000D01*
G36*
X96225000Y-67275000D02*
G01*
X100100000Y-67275000D01*
X100100000Y-71400000D01*
X96225000Y-71400000D01*
X96225000Y-67275000D01*
G37*
D11*
X103012500Y-67575000D02*
X107387500Y-67575000D01*
X107387500Y-71825000D01*
X103012500Y-71825000D01*
X103012500Y-67575000D01*
G36*
X103012500Y-67575000D02*
G01*
X107387500Y-67575000D01*
X107387500Y-71825000D01*
X103012500Y-71825000D01*
X103012500Y-67575000D01*
G37*
D12*
%TO.C,SW6*%
X98500000Y-78300000D03*
X103500000Y-78300000D03*
%TD*%
D13*
%TO.C,J2*%
X74000000Y-33000000D03*
D14*
X74000000Y-35540000D03*
X74000000Y-38080000D03*
X74000000Y-40620000D03*
X74000000Y-43160000D03*
X74000000Y-45700000D03*
X74000000Y-48240000D03*
%TD*%
D15*
%TO.C,U2*%
X82450000Y-59490000D03*
X35500000Y-59490000D03*
X82450000Y-84000000D03*
X35500000Y-84000000D03*
D16*
X74490000Y-84470000D03*
D17*
X71950000Y-84470000D03*
X69410000Y-84470000D03*
X66870000Y-84470000D03*
X64330000Y-84470000D03*
X61790000Y-84470000D03*
X59250000Y-84470000D03*
X56710000Y-84470000D03*
X54170000Y-84470000D03*
X51630000Y-84470000D03*
X49090000Y-84470000D03*
X46550000Y-84470000D03*
X44010000Y-84470000D03*
X41470000Y-84470000D03*
X38930000Y-84470000D03*
X74490000Y-59070000D03*
X71950000Y-59070000D03*
X69410000Y-59070000D03*
X66870000Y-59070000D03*
X64330000Y-59070000D03*
X61790000Y-59070000D03*
X59250000Y-59070000D03*
X56710000Y-59070000D03*
X54170000Y-59070000D03*
X51630000Y-59070000D03*
X49090000Y-59070000D03*
X46550000Y-59070000D03*
X44010000Y-59070000D03*
X41470000Y-59070000D03*
X38930000Y-59070000D03*
%TD*%
D18*
%TO.C,R1*%
X51500000Y-30900000D03*
X43880000Y-30900000D03*
%TD*%
D19*
%TO.C,U_2*%
X42000000Y-27750000D03*
D20*
X44540000Y-27750000D03*
X47080000Y-27750000D03*
%TD*%
D18*
%TO.C,R2*%
X53000000Y-35000000D03*
X45380000Y-35000000D03*
%TD*%
D21*
%TO.C,Q1*%
X59300000Y-39800000D03*
D22*
X56760000Y-37260000D03*
X59300000Y-34720000D03*
%TD*%
D23*
%TO.C,D1*%
X57540000Y-29000000D03*
D20*
X55000000Y-29000000D03*
%TD*%
D13*
%TO.C,J1*%
X74000000Y-62000000D03*
D14*
X74000000Y-64540000D03*
X74000000Y-67080000D03*
X74000000Y-69620000D03*
%TD*%
M02*
