%TF.GenerationSoftware,KiCad,Pcbnew,9.0.6*%
%TF.CreationDate,2026-03-18T09:08:59-07:00*%
%TF.ProjectId,flopper_one,666c6f70-7065-4725-9f6f-6e652e6b6963,rev?*%
%TF.SameCoordinates,Original*%
%TF.FileFunction,Copper,L1,Top*%
%TF.FilePolarity,Positive*%
%FSLAX46Y46*%
G04 Gerber Fmt 4.6, Leading zero omitted, Abs format (unit mm)*
G04 Created by KiCad (PCBNEW 9.0.6) date 2026-03-18 09:08:59*
%MOMM*%
%LPD*%
G01*
G04 APERTURE LIST*
G04 Aperture macros list*
%AMRoundRect*
0 Rectangle with rounded corners*
0 $1 Rounding radius*
0 $2 $3 $4 $5 $6 $7 $8 $9 X,Y pos of 4 corners*
0 Add a 4 corners polygon primitive as box body*
4,1,4,$2,$3,$4,$5,$6,$7,$8,$9,$2,$3,0*
0 Add four circle primitives for the rounded corners*
1,1,$1+$1,$2,$3*
1,1,$1+$1,$4,$5*
1,1,$1+$1,$6,$7*
1,1,$1+$1,$8,$9*
0 Add four rect primitives between the rounded corners*
20,1,$1+$1,$2,$3,$4,$5,0*
20,1,$1+$1,$4,$5,$6,$7,0*
20,1,$1+$1,$6,$7,$8,$9,0*
20,1,$1+$1,$8,$9,$2,$3,0*%
G04 Aperture macros list end*
%TA.AperFunction,ComponentPad*%
%ADD10O,2.000000X10.500000*%
%TD*%
%TA.AperFunction,ComponentPad*%
%ADD11R,1.700000X1.700000*%
%TD*%
%TA.AperFunction,ComponentPad*%
%ADD12C,1.700000*%
%TD*%
%TA.AperFunction,SMDPad,CuDef*%
%ADD13R,1.400000X1.600000*%
%TD*%
%TA.AperFunction,SMDPad,CuDef*%
%ADD14R,1.600000X1.400000*%
%TD*%
%TA.AperFunction,ComponentPad*%
%ADD15R,2.000000X2.000000*%
%TD*%
%TA.AperFunction,ComponentPad*%
%ADD16C,2.000000*%
%TD*%
%TA.AperFunction,ComponentPad*%
%ADD17C,1.600000*%
%TD*%
%TA.AperFunction,ComponentPad*%
%ADD18RoundRect,0.250200X-0.649800X-0.649800X0.649800X-0.649800X0.649800X0.649800X-0.649800X0.649800X0*%
%TD*%
%TA.AperFunction,ComponentPad*%
%ADD19C,1.800000*%
%TD*%
%TA.AperFunction,ComponentPad*%
%ADD20O,1.200000X1.600000*%
%TD*%
%TA.AperFunction,ComponentPad*%
%ADD21C,1.200000*%
%TD*%
%TA.AperFunction,ComponentPad*%
%ADD22R,1.800000X1.800000*%
%TD*%
%TA.AperFunction,Conductor*%
%ADD23C,0.200000*%
%TD*%
G04 APERTURE END LIST*
D10*
%TO.P,SW6,1,A*%
%TO.N,/VIN*%
X98500000Y-78300000D03*
%TO.P,SW6,2,B*%
%TO.N,+BATT*%
X103500000Y-78300000D03*
%TD*%
D11*
%TO.P,J2,1,Pin_1*%
%TO.N,GND*%
X74000000Y-33000000D03*
D12*
%TO.P,J2,2,Pin_2*%
%TO.N,/VCC*%
X74000000Y-35540000D03*
%TO.P,J2,3,Pin_3*%
%TO.N,/SCL2*%
X74000000Y-38080000D03*
%TO.P,J2,4,Pin_4*%
%TO.N,/SDA2*%
X74000000Y-40620000D03*
%TO.P,J2,5,Pin_5*%
%TO.N,/RES*%
X74000000Y-43160000D03*
%TO.P,J2,6,Pin_6*%
%TO.N,/DC*%
X74000000Y-45700000D03*
%TO.P,J2,7,Pin_7*%
%TO.N,/VCC*%
X74000000Y-48240000D03*
%TD*%
D13*
%TO.P,SW3,1,1*%
%TO.N,/P3*%
X104250000Y-37000000D03*
X104250000Y-45000000D03*
%TO.P,SW3,2,2*%
%TO.N,GND*%
X99750000Y-37000000D03*
X99750000Y-45000000D03*
%TD*%
D14*
%TO.P,SW1,1,1*%
%TO.N,/P1*%
X87000000Y-28750000D03*
X95000000Y-28750000D03*
%TO.P,SW1,2,2*%
%TO.N,GND*%
X87000000Y-33250000D03*
X95000000Y-33250000D03*
%TD*%
%TO.P,SW4,1,1*%
%TO.N,/P4*%
X87000000Y-48750000D03*
X95000000Y-48750000D03*
%TO.P,SW4,2,2*%
%TO.N,GND*%
X87000000Y-53250000D03*
X95000000Y-53250000D03*
%TD*%
D15*
%TO.P,U2,1,VIN*%
%TO.N,/VIN*%
X74490000Y-84470000D03*
D16*
%TO.P,U2,2,GND*%
%TO.N,GND*%
X71950000Y-84470000D03*
%TO.P,U2,3,GPIO13*%
%TO.N,unconnected-(U2-GPIO13-Pad3)*%
X69410000Y-84470000D03*
%TO.P,U2,4,GPIO12*%
%TO.N,/P4*%
X66870000Y-84470000D03*
%TO.P,U2,5,GPIO14*%
%TO.N,/P1*%
X64330000Y-84470000D03*
%TO.P,U2,6,GPIO27*%
%TO.N,/P2*%
X61790000Y-84470000D03*
%TO.P,U2,7,GPIO26*%
%TO.N,/P3*%
X59250000Y-84470000D03*
%TO.P,U2,8,GPIO25*%
%TO.N,/P5*%
X56710000Y-84470000D03*
%TO.P,U2,9,GPIO33*%
%TO.N,/RES*%
X54170000Y-84470000D03*
%TO.P,U2,10,GPIO32*%
%TO.N,/DC*%
X51630000Y-84470000D03*
%TO.P,U2,11,GPIO35*%
%TO.N,unconnected-(U2-GPIO35-Pad11)*%
X49090000Y-84470000D03*
%TO.P,U2,12,GPIO34*%
%TO.N,unconnected-(U2-GPIO34-Pad12)*%
X46550000Y-84470000D03*
%TO.P,U2,13,GPIO39*%
%TO.N,unconnected-(U2-GPIO39-Pad13)*%
X44010000Y-84470000D03*
%TO.P,U2,14,GPIO36*%
%TO.N,unconnected-(U2-GPIO36-Pad14)*%
X41470000Y-84470000D03*
%TO.P,U2,15,EN*%
%TO.N,unconnected-(U2-EN-Pad15)*%
X38930000Y-84470000D03*
%TO.P,U2,16,3.3v*%
%TO.N,/VCC*%
X74490000Y-59070000D03*
%TO.P,U2,17,GND*%
%TO.N,GND*%
X71950000Y-59070000D03*
%TO.P,U2,18,GPIO15*%
%TO.N,unconnected-(U2-GPIO15-Pad18)*%
X69410000Y-59070000D03*
%TO.P,U2,19,GPIO2*%
%TO.N,unconnected-(U2-GPIO2-Pad19)*%
X66870000Y-59070000D03*
%TO.P,U2,20,GPIO4*%
%TO.N,unconnected-(U2-GPIO4-Pad20)*%
X64330000Y-59070000D03*
%TO.P,U2,21,GPIO16*%
%TO.N,Net-(U2-GPIO16)*%
X61790000Y-59070000D03*
%TO.P,U2,22,GPIO17*%
%TO.N,/SDA1*%
X59250000Y-59070000D03*
%TO.P,U2,23,GPIO5*%
%TO.N,/SCL1*%
X56710000Y-59070000D03*
%TO.P,U2,24,GPIO18*%
%TO.N,/SDA2*%
X54170000Y-59070000D03*
%TO.P,U2,25,GPIO19*%
%TO.N,/SCL2*%
X51630000Y-59070000D03*
%TO.P,U2,26,GPIO21*%
%TO.N,unconnected-(U2-GPIO21-Pad26)*%
X49090000Y-59070000D03*
%TO.P,U2,27,GPIO3*%
%TO.N,unconnected-(U2-GPIO3-Pad27)*%
X46550000Y-59070000D03*
%TO.P,U2,28,GPIO1*%
%TO.N,unconnected-(U2-GPIO1-Pad28)*%
X44010000Y-59070000D03*
%TO.P,U2,29,GPIO22*%
%TO.N,unconnected-(U2-GPIO22-Pad29)*%
X41470000Y-59070000D03*
%TO.P,U2,30,GPIO23*%
%TO.N,Net-(U2-GPIO23)*%
X38930000Y-59070000D03*
%TD*%
D13*
%TO.P,SW2,1,1*%
%TO.N,/P2*%
X77750000Y-45000000D03*
X77750000Y-37000000D03*
%TO.P,SW2,2,2*%
%TO.N,GND*%
X82250000Y-45000000D03*
X82250000Y-37000000D03*
%TD*%
%TO.P,SW5,1,1*%
%TO.N,/P5*%
X88750000Y-45000000D03*
X88750000Y-37000000D03*
%TO.P,SW5,2,2*%
%TO.N,GND*%
X93250000Y-45000000D03*
X93250000Y-37000000D03*
%TD*%
D17*
%TO.P,R1,1*%
%TO.N,Net-(D1-A)*%
X51500000Y-30900000D03*
%TO.P,R1,2*%
%TO.N,/VCC*%
X43880000Y-30900000D03*
%TD*%
D18*
%TO.P,U_2,1,OUT*%
%TO.N,Net-(U2-GPIO23)*%
X42000000Y-27750000D03*
D19*
%TO.P,U_2,2,GND*%
%TO.N,GND*%
X44540000Y-27750000D03*
%TO.P,U_2,3,Vs*%
%TO.N,/VCC*%
X47080000Y-27750000D03*
%TD*%
D17*
%TO.P,R2,1*%
%TO.N,Net-(Q1-B)*%
X53000000Y-35000000D03*
%TO.P,R2,2*%
%TO.N,Net-(U2-GPIO16)*%
X45380000Y-35000000D03*
%TD*%
D20*
%TO.P,Q1,1,E*%
%TO.N,GND*%
X59300000Y-39800000D03*
D21*
%TO.P,Q1,2,B*%
%TO.N,Net-(Q1-B)*%
X56760000Y-37260000D03*
%TO.P,Q1,3,C*%
%TO.N,Net-(D1-K)*%
X59300000Y-34720000D03*
%TD*%
D22*
%TO.P,D1,1,K*%
%TO.N,Net-(D1-K)*%
X57540000Y-29000000D03*
D19*
%TO.P,D1,2,A*%
%TO.N,Net-(D1-A)*%
X55000000Y-29000000D03*
%TD*%
D11*
%TO.P,J1,1,VCC*%
%TO.N,GND*%
X74000000Y-62000000D03*
D12*
%TO.P,J1,2,RX*%
%TO.N,/VCC*%
X74000000Y-64540000D03*
%TO.P,J1,3,TX*%
%TO.N,/SDA1*%
X74000000Y-67080000D03*
%TO.P,J1,4,GND*%
%TO.N,/SCL1*%
X74000000Y-69620000D03*
%TD*%
D23*
%TO.N,/VCC*%
X74000000Y-48240000D02*
X74000000Y-58580000D01*
X74000000Y-64540000D02*
X75151000Y-63389000D01*
X74000000Y-35540000D02*
X75151000Y-36691000D01*
X75151000Y-63389000D02*
X75151000Y-59731000D01*
X75151000Y-59731000D02*
X74490000Y-59070000D01*
X75151000Y-47089000D02*
X74000000Y-48240000D01*
X75151000Y-36691000D02*
X75151000Y-47089000D01*
X74000000Y-58580000D02*
X74490000Y-59070000D01*
%TO.N,/SCL1*%
X67260000Y-69620000D02*
X56710000Y-59070000D01*
X74000000Y-69620000D02*
X67260000Y-69620000D01*
%TO.N,/SDA1*%
X74000000Y-67080000D02*
X67260000Y-67080000D01*
X67260000Y-67080000D02*
X59250000Y-59070000D01*
%TO.N,/SDA2*%
X72620000Y-40620000D02*
X54170000Y-59070000D01*
X74000000Y-40620000D02*
X72620000Y-40620000D01*
%TO.N,/SCL2*%
X72620000Y-38080000D02*
X74000000Y-38080000D01*
X51630000Y-59070000D02*
X72620000Y-38080000D01*
%TO.N,/P1*%
X91500000Y-46400000D02*
X90684314Y-47215686D01*
X85000000Y-63800000D02*
X64330000Y-84470000D01*
X85000000Y-48731372D02*
X85000000Y-63800000D01*
X95000000Y-28750000D02*
X91500000Y-32250000D01*
X86515686Y-47215686D02*
X85000000Y-48731372D01*
X90684314Y-47215686D02*
X86515686Y-47215686D01*
X91500000Y-32250000D02*
X91500000Y-46400000D01*
X87000000Y-28750000D02*
X95000000Y-28750000D01*
%TO.N,/P2*%
X90200000Y-46500000D02*
X90900000Y-45800000D01*
X77750000Y-37000000D02*
X77750000Y-45000000D01*
X89000000Y-34900000D02*
X79850000Y-34900000D01*
X64500000Y-82900000D02*
X84301000Y-63099000D01*
X90900000Y-45800000D02*
X90900000Y-36800000D01*
X61790000Y-84470000D02*
X63360000Y-82900000D01*
X84301000Y-48099000D02*
X85900000Y-46500000D01*
X63360000Y-82900000D02*
X64500000Y-82900000D01*
X79850000Y-34900000D02*
X77750000Y-37000000D01*
X90900000Y-36800000D02*
X89000000Y-34900000D01*
X84301000Y-63099000D02*
X84301000Y-48099000D01*
X85900000Y-46500000D02*
X90200000Y-46500000D01*
%TO.N,/P3*%
X60551000Y-85771000D02*
X75791000Y-85771000D01*
X104250000Y-59817100D02*
X104250000Y-45000000D01*
X82066100Y-82001000D02*
X104250000Y-59817100D01*
X104250000Y-37000000D02*
X104250000Y-45000000D01*
X79561000Y-82001000D02*
X82066100Y-82001000D01*
X75791000Y-85771000D02*
X79561000Y-82001000D01*
X59250000Y-84470000D02*
X60551000Y-85771000D01*
%TO.N,/P4*%
X71040000Y-80300000D02*
X80300000Y-80300000D01*
X87000000Y-48750000D02*
X85899000Y-49851000D01*
X85899000Y-49851000D02*
X85899000Y-74701000D01*
X80300000Y-80300000D02*
X85899000Y-74701000D01*
X95000000Y-48750000D02*
X87000000Y-48750000D01*
X66870000Y-84470000D02*
X71040000Y-80300000D01*
%TO.N,/P5*%
X88750000Y-45000000D02*
X86200000Y-45000000D01*
X86200000Y-45000000D02*
X79500000Y-51700000D01*
X79500000Y-66191486D02*
X63891486Y-81800000D01*
X79500000Y-51700000D02*
X79500000Y-66191486D01*
X59380000Y-81800000D02*
X56710000Y-84470000D01*
X88750000Y-37000000D02*
X88750000Y-45000000D01*
X63891486Y-81800000D02*
X59380000Y-81800000D01*
%TO.N,GND*%
X74000000Y-62000000D02*
X74000000Y-61120000D01*
X74000000Y-61120000D02*
X71950000Y-59070000D01*
%TD*%
%TA.AperFunction,Conductor*%
%TO.N,GND*%
G36*
X104648577Y-24500501D02*
G01*
X104711765Y-24500500D01*
X104717172Y-24500618D01*
X105101243Y-24517383D01*
X105111976Y-24518323D01*
X105490448Y-24568148D01*
X105501067Y-24570020D01*
X105873766Y-24652642D01*
X105884180Y-24655433D01*
X106167101Y-24744636D01*
X106248236Y-24770218D01*
X106258401Y-24773918D01*
X106371342Y-24820698D01*
X106611055Y-24919989D01*
X106620835Y-24924549D01*
X106959428Y-25100807D01*
X106968793Y-25106214D01*
X107290741Y-25311315D01*
X107299580Y-25317505D01*
X107461799Y-25441979D01*
X107602410Y-25549873D01*
X107610697Y-25556826D01*
X107610716Y-25556843D01*
X107892136Y-25814715D01*
X107899774Y-25822354D01*
X108118340Y-26060876D01*
X108157649Y-26103774D01*
X108164602Y-26112060D01*
X108396973Y-26414889D01*
X108403178Y-26423751D01*
X108586361Y-26711290D01*
X108608265Y-26745671D01*
X108613674Y-26755039D01*
X108789926Y-27093616D01*
X108794498Y-27103420D01*
X108940572Y-27456070D01*
X108944272Y-27466235D01*
X109059053Y-27830273D01*
X109061853Y-27840722D01*
X109144471Y-28213387D01*
X109146349Y-28224041D01*
X109196171Y-28602471D01*
X109197114Y-28613247D01*
X109213848Y-28996518D01*
X109213966Y-29001785D01*
X109213966Y-29065892D01*
X109214039Y-29066167D01*
X109214049Y-29074489D01*
X109214045Y-29074499D01*
X109214049Y-29074548D01*
X109249498Y-81997252D01*
X109249380Y-82002744D01*
X109232614Y-82386750D01*
X109231671Y-82397526D01*
X109181849Y-82775957D01*
X109179971Y-82786610D01*
X109097354Y-83159272D01*
X109094554Y-83169721D01*
X108979775Y-83533755D01*
X108976075Y-83543921D01*
X108830002Y-83896572D01*
X108825430Y-83906376D01*
X108649183Y-84244942D01*
X108643775Y-84254310D01*
X108438681Y-84576244D01*
X108432476Y-84585105D01*
X108200110Y-84887930D01*
X108193156Y-84896217D01*
X107935284Y-85177635D01*
X107927635Y-85185284D01*
X107646217Y-85443156D01*
X107637930Y-85450110D01*
X107335105Y-85682476D01*
X107326244Y-85688681D01*
X107004310Y-85893775D01*
X106994942Y-85899183D01*
X106656376Y-86075430D01*
X106646572Y-86080002D01*
X106293921Y-86226075D01*
X106283755Y-86229775D01*
X105919721Y-86344554D01*
X105909272Y-86347354D01*
X105536610Y-86429971D01*
X105525957Y-86431849D01*
X105147526Y-86481671D01*
X105136750Y-86482614D01*
X104752703Y-86499382D01*
X104747294Y-86499500D01*
X76192975Y-86499500D01*
X76125936Y-86479815D01*
X76080181Y-86427011D01*
X76070237Y-86357853D01*
X76099262Y-86294297D01*
X76110161Y-86283208D01*
X76119781Y-86274575D01*
X76159716Y-86251520D01*
X76271520Y-86139716D01*
X76271521Y-86139713D01*
X79773416Y-82637819D01*
X79834739Y-82604334D01*
X79861097Y-82601500D01*
X81073557Y-82601500D01*
X81140596Y-82621185D01*
X81186351Y-82673989D01*
X81196295Y-82743147D01*
X81167270Y-82806703D01*
X81161238Y-82813181D01*
X81131081Y-82843338D01*
X80991392Y-83025382D01*
X80876657Y-83224109D01*
X80876650Y-83224123D01*
X80788842Y-83436112D01*
X80729453Y-83657759D01*
X80729451Y-83657770D01*
X80699500Y-83885258D01*
X80699500Y-84114741D01*
X80717876Y-84254310D01*
X80729452Y-84342238D01*
X80751066Y-84422903D01*
X80788842Y-84563887D01*
X80876650Y-84775876D01*
X80876657Y-84775890D01*
X80991392Y-84974617D01*
X81131081Y-85156661D01*
X81131089Y-85156670D01*
X81293330Y-85318911D01*
X81293338Y-85318918D01*
X81475382Y-85458607D01*
X81475385Y-85458608D01*
X81475388Y-85458611D01*
X81674112Y-85573344D01*
X81674117Y-85573346D01*
X81674123Y-85573349D01*
X81765480Y-85611190D01*
X81886113Y-85661158D01*
X82107762Y-85720548D01*
X82335266Y-85750500D01*
X82335273Y-85750500D01*
X82564727Y-85750500D01*
X82564734Y-85750500D01*
X82792238Y-85720548D01*
X83013887Y-85661158D01*
X83225888Y-85573344D01*
X83424612Y-85458611D01*
X83606661Y-85318919D01*
X83606665Y-85318914D01*
X83606670Y-85318911D01*
X83768911Y-85156670D01*
X83768914Y-85156665D01*
X83768919Y-85156661D01*
X83908611Y-84974612D01*
X84023344Y-84775888D01*
X84111158Y-84563887D01*
X84170548Y-84342238D01*
X84200500Y-84114734D01*
X84200500Y-83885266D01*
X84170548Y-83657762D01*
X84111158Y-83436113D01*
X84061190Y-83315480D01*
X84023349Y-83224123D01*
X84023346Y-83224117D01*
X84023344Y-83224112D01*
X83908611Y-83025388D01*
X83908608Y-83025385D01*
X83908607Y-83025382D01*
X83768918Y-82843338D01*
X83768911Y-82843330D01*
X83606670Y-82681089D01*
X83606661Y-82681081D01*
X83424617Y-82541392D01*
X83225890Y-82426657D01*
X83225876Y-82426650D01*
X83013887Y-82338842D01*
X82877167Y-82302208D01*
X82817507Y-82265844D01*
X82786978Y-82202997D01*
X82795273Y-82133622D01*
X82821577Y-82094756D01*
X90984431Y-73931902D01*
X97199500Y-73931902D01*
X97199500Y-82668097D01*
X97236446Y-82901368D01*
X97309433Y-83125996D01*
X97416657Y-83336433D01*
X97555483Y-83527510D01*
X97722490Y-83694517D01*
X97913567Y-83833343D01*
X98012991Y-83884002D01*
X98124003Y-83940566D01*
X98124005Y-83940566D01*
X98124008Y-83940568D01*
X98244412Y-83979689D01*
X98348631Y-84013553D01*
X98581903Y-84050500D01*
X98581908Y-84050500D01*
X98818097Y-84050500D01*
X99051368Y-84013553D01*
X99275992Y-83940568D01*
X99486433Y-83833343D01*
X99677510Y-83694517D01*
X99844517Y-83527510D01*
X99983343Y-83336433D01*
X100090568Y-83125992D01*
X100163553Y-82901368D01*
X100172745Y-82843330D01*
X100200500Y-82668097D01*
X100200500Y-73931902D01*
X102199500Y-73931902D01*
X102199500Y-82668097D01*
X102236446Y-82901368D01*
X102309433Y-83125996D01*
X102416657Y-83336433D01*
X102555483Y-83527510D01*
X102722490Y-83694517D01*
X102913567Y-83833343D01*
X103012991Y-83884002D01*
X103124003Y-83940566D01*
X103124005Y-83940566D01*
X103124008Y-83940568D01*
X103244412Y-83979689D01*
X103348631Y-84013553D01*
X103581903Y-84050500D01*
X103581908Y-84050500D01*
X103818097Y-84050500D01*
X104051368Y-84013553D01*
X104275992Y-83940568D01*
X104486433Y-83833343D01*
X104677510Y-83694517D01*
X104844517Y-83527510D01*
X104983343Y-83336433D01*
X105090568Y-83125992D01*
X105163553Y-82901368D01*
X105172745Y-82843330D01*
X105200500Y-82668097D01*
X105200500Y-73931902D01*
X105163553Y-73698631D01*
X105090566Y-73474003D01*
X104983342Y-73263566D01*
X104844517Y-73072490D01*
X104677510Y-72905483D01*
X104486433Y-72766657D01*
X104275996Y-72659433D01*
X104051368Y-72586446D01*
X103818097Y-72549500D01*
X103818092Y-72549500D01*
X103581908Y-72549500D01*
X103581903Y-72549500D01*
X103348631Y-72586446D01*
X103124003Y-72659433D01*
X102913566Y-72766657D01*
X102804550Y-72845862D01*
X102722490Y-72905483D01*
X102722488Y-72905485D01*
X102722487Y-72905485D01*
X102555485Y-73072487D01*
X102555485Y-73072488D01*
X102555483Y-73072490D01*
X102495862Y-73154550D01*
X102416657Y-73263566D01*
X102309433Y-73474003D01*
X102236446Y-73698631D01*
X102199500Y-73931902D01*
X100200500Y-73931902D01*
X100163553Y-73698631D01*
X100090566Y-73474003D01*
X99983342Y-73263566D01*
X99844517Y-73072490D01*
X99677510Y-72905483D01*
X99486433Y-72766657D01*
X99275996Y-72659433D01*
X99051368Y-72586446D01*
X98818097Y-72549500D01*
X98818092Y-72549500D01*
X98581908Y-72549500D01*
X98581903Y-72549500D01*
X98348631Y-72586446D01*
X98124003Y-72659433D01*
X97913566Y-72766657D01*
X97804550Y-72845862D01*
X97722490Y-72905483D01*
X97722488Y-72905485D01*
X97722487Y-72905485D01*
X97555485Y-73072487D01*
X97555485Y-73072488D01*
X97555483Y-73072490D01*
X97495862Y-73154550D01*
X97416657Y-73263566D01*
X97309433Y-73474003D01*
X97236446Y-73698631D01*
X97199500Y-73931902D01*
X90984431Y-73931902D01*
X104608506Y-60307828D01*
X104608511Y-60307824D01*
X104618714Y-60297620D01*
X104618716Y-60297620D01*
X104730520Y-60185816D01*
X104806689Y-60053887D01*
X104809577Y-60048885D01*
X104850500Y-59896158D01*
X104850500Y-59738043D01*
X104850500Y-46424499D01*
X104870185Y-46357460D01*
X104922989Y-46311705D01*
X104974500Y-46300499D01*
X104997871Y-46300499D01*
X104997872Y-46300499D01*
X105057483Y-46294091D01*
X105192331Y-46243796D01*
X105307546Y-46157546D01*
X105393796Y-46042331D01*
X105444091Y-45907483D01*
X105450500Y-45847873D01*
X105450499Y-44152128D01*
X105444091Y-44092517D01*
X105393884Y-43957906D01*
X105393797Y-43957671D01*
X105393793Y-43957664D01*
X105307547Y-43842455D01*
X105307544Y-43842452D01*
X105192335Y-43756206D01*
X105192328Y-43756202D01*
X105057482Y-43705908D01*
X105057483Y-43705908D01*
X104997883Y-43699501D01*
X104997881Y-43699500D01*
X104997873Y-43699500D01*
X104997865Y-43699500D01*
X104974500Y-43699500D01*
X104907461Y-43679815D01*
X104861706Y-43627011D01*
X104850500Y-43575500D01*
X104850500Y-38424499D01*
X104870185Y-38357460D01*
X104922989Y-38311705D01*
X104974500Y-38300499D01*
X104997871Y-38300499D01*
X104997872Y-38300499D01*
X105057483Y-38294091D01*
X105192331Y-38243796D01*
X105307546Y-38157546D01*
X105393796Y-38042331D01*
X105444091Y-37907483D01*
X105450500Y-37847873D01*
X105450499Y-36152128D01*
X105444091Y-36092517D01*
X105431371Y-36058414D01*
X105393797Y-35957671D01*
X105393793Y-35957664D01*
X105307547Y-35842455D01*
X105307544Y-35842452D01*
X105192335Y-35756206D01*
X105192328Y-35756202D01*
X105057482Y-35705908D01*
X105057483Y-35705908D01*
X104997883Y-35699501D01*
X104997881Y-35699500D01*
X104997873Y-35699500D01*
X104997864Y-35699500D01*
X103502129Y-35699500D01*
X103502123Y-35699501D01*
X103442516Y-35705908D01*
X103307671Y-35756202D01*
X103307664Y-35756206D01*
X103192455Y-35842452D01*
X103192452Y-35842455D01*
X103106206Y-35957664D01*
X103106202Y-35957671D01*
X103055908Y-36092517D01*
X103053783Y-36112287D01*
X103049501Y-36152123D01*
X103049500Y-36152135D01*
X103049500Y-37847870D01*
X103049501Y-37847876D01*
X103055908Y-37907483D01*
X103106202Y-38042328D01*
X103106206Y-38042335D01*
X103192452Y-38157544D01*
X103192455Y-38157547D01*
X103307664Y-38243793D01*
X103307671Y-38243797D01*
X103352618Y-38260561D01*
X103442517Y-38294091D01*
X103502127Y-38300500D01*
X103525497Y-38300499D01*
X103592536Y-38320181D01*
X103638292Y-38372983D01*
X103649500Y-38424499D01*
X103649500Y-43575500D01*
X103629815Y-43642539D01*
X103577011Y-43688294D01*
X103525505Y-43699500D01*
X103502132Y-43699500D01*
X103502123Y-43699501D01*
X103442516Y-43705908D01*
X103307671Y-43756202D01*
X103307664Y-43756206D01*
X103192455Y-43842452D01*
X103192452Y-43842455D01*
X103106206Y-43957664D01*
X103106202Y-43957671D01*
X103055908Y-44092517D01*
X103049501Y-44152116D01*
X103049501Y-44152123D01*
X103049500Y-44152135D01*
X103049500Y-45847870D01*
X103049501Y-45847876D01*
X103055908Y-45907483D01*
X103106202Y-46042328D01*
X103106206Y-46042335D01*
X103192452Y-46157544D01*
X103192455Y-46157547D01*
X103307664Y-46243793D01*
X103307671Y-46243797D01*
X103352618Y-46260561D01*
X103442517Y-46294091D01*
X103502127Y-46300500D01*
X103525497Y-46300499D01*
X103592536Y-46320181D01*
X103638292Y-46372983D01*
X103649500Y-46424499D01*
X103649500Y-59517003D01*
X103629815Y-59584042D01*
X103613181Y-59604684D01*
X81853684Y-81364181D01*
X81792361Y-81397666D01*
X81766003Y-81400500D01*
X79640057Y-81400500D01*
X79481943Y-81400500D01*
X79329215Y-81441423D01*
X79329214Y-81441423D01*
X79329212Y-81441424D01*
X79329209Y-81441425D01*
X79279096Y-81470359D01*
X79279095Y-81470360D01*
X79235689Y-81495420D01*
X79192285Y-81520479D01*
X79192282Y-81520481D01*
X76202180Y-84510584D01*
X76140857Y-84544069D01*
X76071165Y-84539085D01*
X76015232Y-84497213D01*
X75990815Y-84431749D01*
X75990499Y-84422903D01*
X75990499Y-83422129D01*
X75990498Y-83422123D01*
X75984091Y-83362516D01*
X75933797Y-83227671D01*
X75933793Y-83227664D01*
X75860495Y-83129752D01*
X75847546Y-83112454D01*
X75847544Y-83112452D01*
X75847541Y-83112449D01*
X75823527Y-83094472D01*
X75781657Y-83038538D01*
X75773842Y-82994469D01*
X75774960Y-82806703D01*
X75785573Y-81023761D01*
X75805656Y-80956841D01*
X75858732Y-80911401D01*
X75909571Y-80900500D01*
X80213331Y-80900500D01*
X80213347Y-80900501D01*
X80220943Y-80900501D01*
X80379054Y-80900501D01*
X80379057Y-80900501D01*
X80531785Y-80859577D01*
X80581904Y-80830639D01*
X80668716Y-80780520D01*
X80780520Y-80668716D01*
X80780520Y-80668714D01*
X80790728Y-80658507D01*
X80790729Y-80658504D01*
X86379520Y-75069716D01*
X86458577Y-74932784D01*
X86499501Y-74780057D01*
X86499501Y-74621942D01*
X86499501Y-74614347D01*
X86499500Y-74614329D01*
X86499500Y-54574000D01*
X86519185Y-54506961D01*
X86571989Y-54461206D01*
X86623500Y-54450000D01*
X86750000Y-54450000D01*
X87250000Y-54450000D01*
X87847828Y-54450000D01*
X87847844Y-54449999D01*
X87907372Y-54443598D01*
X87907379Y-54443596D01*
X88042086Y-54393354D01*
X88042093Y-54393350D01*
X88157187Y-54307190D01*
X88157190Y-54307187D01*
X88243350Y-54192093D01*
X88243354Y-54192086D01*
X88293596Y-54057379D01*
X88293598Y-54057372D01*
X88299999Y-53997844D01*
X93700000Y-53997844D01*
X93706401Y-54057372D01*
X93706403Y-54057379D01*
X93756645Y-54192086D01*
X93756649Y-54192093D01*
X93842809Y-54307187D01*
X93842812Y-54307190D01*
X93957906Y-54393350D01*
X93957913Y-54393354D01*
X94092620Y-54443596D01*
X94092627Y-54443598D01*
X94152155Y-54449999D01*
X94152172Y-54450000D01*
X94750000Y-54450000D01*
X95250000Y-54450000D01*
X95847828Y-54450000D01*
X95847844Y-54449999D01*
X95907372Y-54443598D01*
X95907379Y-54443596D01*
X96042086Y-54393354D01*
X96042093Y-54393350D01*
X96157187Y-54307190D01*
X96157190Y-54307187D01*
X96243350Y-54192093D01*
X96243354Y-54192086D01*
X96293596Y-54057379D01*
X96293598Y-54057372D01*
X96299999Y-53997844D01*
X96300000Y-53997827D01*
X96300000Y-53500000D01*
X95250000Y-53500000D01*
X95250000Y-54450000D01*
X94750000Y-54450000D01*
X94750000Y-53500000D01*
X93700000Y-53500000D01*
X93700000Y-53997844D01*
X88299999Y-53997844D01*
X88300000Y-53997827D01*
X88300000Y-53500000D01*
X87250000Y-53500000D01*
X87250000Y-54450000D01*
X86750000Y-54450000D01*
X86750000Y-53000000D01*
X87250000Y-53000000D01*
X88300000Y-53000000D01*
X88300000Y-52502172D01*
X88299999Y-52502155D01*
X93700000Y-52502155D01*
X93700000Y-53000000D01*
X94750000Y-53000000D01*
X95250000Y-53000000D01*
X96300000Y-53000000D01*
X96300000Y-52502172D01*
X96299999Y-52502155D01*
X96293598Y-52442627D01*
X96293596Y-52442620D01*
X96243354Y-52307913D01*
X96243350Y-52307906D01*
X96157190Y-52192812D01*
X96157187Y-52192809D01*
X96042093Y-52106649D01*
X96042086Y-52106645D01*
X95907379Y-52056403D01*
X95907372Y-52056401D01*
X95847844Y-52050000D01*
X95250000Y-52050000D01*
X95250000Y-53000000D01*
X94750000Y-53000000D01*
X94750000Y-52050000D01*
X94152155Y-52050000D01*
X94092627Y-52056401D01*
X94092620Y-52056403D01*
X93957913Y-52106645D01*
X93957906Y-52106649D01*
X93842812Y-52192809D01*
X93842809Y-52192812D01*
X93756649Y-52307906D01*
X93756645Y-52307913D01*
X93706403Y-52442620D01*
X93706401Y-52442627D01*
X93700000Y-52502155D01*
X88299999Y-52502155D01*
X88293598Y-52442627D01*
X88293596Y-52442620D01*
X88243354Y-52307913D01*
X88243350Y-52307906D01*
X88157190Y-52192812D01*
X88157187Y-52192809D01*
X88042093Y-52106649D01*
X88042086Y-52106645D01*
X87907379Y-52056403D01*
X87907372Y-52056401D01*
X87847844Y-52050000D01*
X87250000Y-52050000D01*
X87250000Y-53000000D01*
X86750000Y-53000000D01*
X86750000Y-52050000D01*
X86623500Y-52050000D01*
X86556461Y-52030315D01*
X86510706Y-51977511D01*
X86499500Y-51926000D01*
X86499500Y-50151097D01*
X86508144Y-50121656D01*
X86514668Y-50091670D01*
X86518422Y-50086654D01*
X86519185Y-50084058D01*
X86535819Y-50063416D01*
X86612417Y-49986818D01*
X86673740Y-49953333D01*
X86700098Y-49950499D01*
X87847871Y-49950499D01*
X87847872Y-49950499D01*
X87907483Y-49944091D01*
X88042331Y-49893796D01*
X88157546Y-49807546D01*
X88243796Y-49692331D01*
X88294091Y-49557483D01*
X88300500Y-49497873D01*
X88300500Y-49474500D01*
X88320185Y-49407461D01*
X88372989Y-49361706D01*
X88424500Y-49350500D01*
X93575501Y-49350500D01*
X93642540Y-49370185D01*
X93688295Y-49422989D01*
X93699501Y-49474500D01*
X93699501Y-49497876D01*
X93705908Y-49557483D01*
X93756202Y-49692328D01*
X93756206Y-49692335D01*
X93842452Y-49807544D01*
X93842455Y-49807547D01*
X93957664Y-49893793D01*
X93957671Y-49893797D01*
X94092517Y-49944091D01*
X94092516Y-49944091D01*
X94099444Y-49944835D01*
X94152127Y-49950500D01*
X95847872Y-49950499D01*
X95907483Y-49944091D01*
X96042331Y-49893796D01*
X96157546Y-49807546D01*
X96243796Y-49692331D01*
X96294091Y-49557483D01*
X96300500Y-49497873D01*
X96300499Y-48002128D01*
X96294091Y-47942517D01*
X96272519Y-47884680D01*
X96243797Y-47807671D01*
X96243793Y-47807664D01*
X96157547Y-47692455D01*
X96157544Y-47692452D01*
X96042335Y-47606206D01*
X96042328Y-47606202D01*
X95907482Y-47555908D01*
X95907483Y-47555908D01*
X95847883Y-47549501D01*
X95847881Y-47549500D01*
X95847873Y-47549500D01*
X95847864Y-47549500D01*
X94152129Y-47549500D01*
X94152123Y-47549501D01*
X94092516Y-47555908D01*
X93957671Y-47606202D01*
X93957664Y-47606206D01*
X93842455Y-47692452D01*
X93842452Y-47692455D01*
X93756206Y-47807664D01*
X93756202Y-47807671D01*
X93705908Y-47942517D01*
X93699501Y-48002116D01*
X93699501Y-48002123D01*
X93699500Y-48002135D01*
X93699500Y-48025500D01*
X93679815Y-48092539D01*
X93627011Y-48138294D01*
X93575500Y-48149500D01*
X88424499Y-48149500D01*
X88420005Y-48148180D01*
X88415425Y-48149168D01*
X88386790Y-48138427D01*
X88357460Y-48129815D01*
X88354393Y-48126275D01*
X88350006Y-48124630D01*
X88331723Y-48100113D01*
X88311705Y-48077011D01*
X88310261Y-48071333D01*
X88308238Y-48068620D01*
X88305037Y-48050788D01*
X88300799Y-48034118D01*
X88300499Y-48029812D01*
X88300499Y-48002128D01*
X88295017Y-47951134D01*
X88294855Y-47948804D01*
X88301865Y-47916858D01*
X88307672Y-47884680D01*
X88309314Y-47882915D01*
X88309832Y-47880559D01*
X88333007Y-47857468D01*
X88355283Y-47833544D01*
X88357680Y-47832886D01*
X88359328Y-47831245D01*
X88379581Y-47826877D01*
X88418555Y-47816186D01*
X90597645Y-47816186D01*
X90597661Y-47816187D01*
X90605257Y-47816187D01*
X90763368Y-47816187D01*
X90763371Y-47816187D01*
X90916099Y-47775263D01*
X90966218Y-47746325D01*
X91053030Y-47696206D01*
X91164834Y-47584402D01*
X91164834Y-47584400D01*
X91175042Y-47574193D01*
X91175044Y-47574190D01*
X91858506Y-46890728D01*
X91858511Y-46890724D01*
X91868714Y-46880520D01*
X91868716Y-46880520D01*
X91980520Y-46768716D01*
X92045531Y-46656111D01*
X92045533Y-46656110D01*
X92051231Y-46646238D01*
X92059577Y-46631785D01*
X92100500Y-46479058D01*
X92100500Y-46335807D01*
X92120185Y-46268768D01*
X92172989Y-46223013D01*
X92242147Y-46213069D01*
X92298814Y-46236542D01*
X92307913Y-46243354D01*
X92442620Y-46293596D01*
X92442627Y-46293598D01*
X92502155Y-46299999D01*
X92502172Y-46300000D01*
X93000000Y-46300000D01*
X93500000Y-46300000D01*
X93997828Y-46300000D01*
X93997844Y-46299999D01*
X94057372Y-46293598D01*
X94057379Y-46293596D01*
X94192086Y-46243354D01*
X94192093Y-46243350D01*
X94307187Y-46157190D01*
X94307190Y-46157187D01*
X94393350Y-46042093D01*
X94393354Y-46042086D01*
X94443596Y-45907379D01*
X94443598Y-45907372D01*
X94449999Y-45847844D01*
X98550000Y-45847844D01*
X98556401Y-45907372D01*
X98556403Y-45907379D01*
X98606645Y-46042086D01*
X98606649Y-46042093D01*
X98692809Y-46157187D01*
X98692812Y-46157190D01*
X98807906Y-46243350D01*
X98807913Y-46243354D01*
X98942620Y-46293596D01*
X98942627Y-46293598D01*
X99002155Y-46299999D01*
X99002172Y-46300000D01*
X99500000Y-46300000D01*
X100000000Y-46300000D01*
X100497828Y-46300000D01*
X100497844Y-46299999D01*
X100557372Y-46293598D01*
X100557379Y-46293596D01*
X100692086Y-46243354D01*
X100692093Y-46243350D01*
X100807187Y-46157190D01*
X100807190Y-46157187D01*
X100893350Y-46042093D01*
X100893354Y-46042086D01*
X100943596Y-45907379D01*
X100943598Y-45907372D01*
X100949999Y-45847844D01*
X100950000Y-45847827D01*
X100950000Y-45250000D01*
X100000000Y-45250000D01*
X100000000Y-46300000D01*
X99500000Y-46300000D01*
X99500000Y-45250000D01*
X98550000Y-45250000D01*
X98550000Y-45847844D01*
X94449999Y-45847844D01*
X94450000Y-45847827D01*
X94450000Y-45250000D01*
X93500000Y-45250000D01*
X93500000Y-46300000D01*
X93000000Y-46300000D01*
X93000000Y-44750000D01*
X93500000Y-44750000D01*
X94450000Y-44750000D01*
X94450000Y-44152172D01*
X94449999Y-44152155D01*
X98550000Y-44152155D01*
X98550000Y-44750000D01*
X99500000Y-44750000D01*
X100000000Y-44750000D01*
X100950000Y-44750000D01*
X100950000Y-44152172D01*
X100949999Y-44152155D01*
X100943598Y-44092627D01*
X100943596Y-44092620D01*
X100893354Y-43957913D01*
X100893350Y-43957906D01*
X100807190Y-43842812D01*
X100807187Y-43842809D01*
X100692093Y-43756649D01*
X100692086Y-43756645D01*
X100557379Y-43706403D01*
X100557372Y-43706401D01*
X100497844Y-43700000D01*
X100000000Y-43700000D01*
X100000000Y-44750000D01*
X99500000Y-44750000D01*
X99500000Y-43700000D01*
X99002155Y-43700000D01*
X98942627Y-43706401D01*
X98942620Y-43706403D01*
X98807913Y-43756645D01*
X98807906Y-43756649D01*
X98692812Y-43842809D01*
X98692809Y-43842812D01*
X98606649Y-43957906D01*
X98606645Y-43957913D01*
X98556403Y-44092620D01*
X98556401Y-44092627D01*
X98550000Y-44152155D01*
X94449999Y-44152155D01*
X94443598Y-44092627D01*
X94443596Y-44092620D01*
X94393354Y-43957913D01*
X94393350Y-43957906D01*
X94307190Y-43842812D01*
X94307187Y-43842809D01*
X94192093Y-43756649D01*
X94192086Y-43756645D01*
X94057379Y-43706403D01*
X94057372Y-43706401D01*
X93997844Y-43700000D01*
X93500000Y-43700000D01*
X93500000Y-44750000D01*
X93000000Y-44750000D01*
X93000000Y-43700000D01*
X92502155Y-43700000D01*
X92442627Y-43706401D01*
X92442620Y-43706403D01*
X92307913Y-43756645D01*
X92307911Y-43756646D01*
X92298810Y-43763460D01*
X92233345Y-43787876D01*
X92165072Y-43773024D01*
X92115667Y-43723618D01*
X92100500Y-43664192D01*
X92100500Y-38335807D01*
X92120185Y-38268768D01*
X92172989Y-38223013D01*
X92242147Y-38213069D01*
X92298814Y-38236542D01*
X92307913Y-38243354D01*
X92442620Y-38293596D01*
X92442627Y-38293598D01*
X92502155Y-38299999D01*
X92502172Y-38300000D01*
X93000000Y-38300000D01*
X93500000Y-38300000D01*
X93997828Y-38300000D01*
X93997844Y-38299999D01*
X94057372Y-38293598D01*
X94057379Y-38293596D01*
X94192086Y-38243354D01*
X94192093Y-38243350D01*
X94307187Y-38157190D01*
X94307190Y-38157187D01*
X94393350Y-38042093D01*
X94393354Y-38042086D01*
X94443596Y-37907379D01*
X94443598Y-37907372D01*
X94449999Y-37847844D01*
X98550000Y-37847844D01*
X98556401Y-37907372D01*
X98556403Y-37907379D01*
X98606645Y-38042086D01*
X98606649Y-38042093D01*
X98692809Y-38157187D01*
X98692812Y-38157190D01*
X98807906Y-38243350D01*
X98807913Y-38243354D01*
X98942620Y-38293596D01*
X98942627Y-38293598D01*
X99002155Y-38299999D01*
X99002172Y-38300000D01*
X99500000Y-38300000D01*
X100000000Y-38300000D01*
X100497828Y-38300000D01*
X100497844Y-38299999D01*
X100557372Y-38293598D01*
X100557379Y-38293596D01*
X100692086Y-38243354D01*
X100692093Y-38243350D01*
X100807187Y-38157190D01*
X100807190Y-38157187D01*
X100893350Y-38042093D01*
X100893354Y-38042086D01*
X100943596Y-37907379D01*
X100943598Y-37907372D01*
X100949999Y-37847844D01*
X100950000Y-37847827D01*
X100950000Y-37250000D01*
X100000000Y-37250000D01*
X100000000Y-38300000D01*
X99500000Y-38300000D01*
X99500000Y-37250000D01*
X98550000Y-37250000D01*
X98550000Y-37847844D01*
X94449999Y-37847844D01*
X94450000Y-37847827D01*
X94450000Y-37250000D01*
X93500000Y-37250000D01*
X93500000Y-38300000D01*
X93000000Y-38300000D01*
X93000000Y-36750000D01*
X93500000Y-36750000D01*
X94450000Y-36750000D01*
X94450000Y-36152172D01*
X94449999Y-36152155D01*
X98550000Y-36152155D01*
X98550000Y-36750000D01*
X99500000Y-36750000D01*
X100000000Y-36750000D01*
X100950000Y-36750000D01*
X100950000Y-36152172D01*
X100949999Y-36152155D01*
X100943598Y-36092627D01*
X100943596Y-36092620D01*
X100893354Y-35957913D01*
X100893350Y-35957906D01*
X100807190Y-35842812D01*
X100807187Y-35842809D01*
X100692093Y-35756649D01*
X100692086Y-35756645D01*
X100557379Y-35706403D01*
X100557372Y-35706401D01*
X100497844Y-35700000D01*
X100000000Y-35700000D01*
X100000000Y-36750000D01*
X99500000Y-36750000D01*
X99500000Y-35700000D01*
X99002155Y-35700000D01*
X98942627Y-35706401D01*
X98942620Y-35706403D01*
X98807913Y-35756645D01*
X98807906Y-35756649D01*
X98692812Y-35842809D01*
X98692809Y-35842812D01*
X98606649Y-35957906D01*
X98606645Y-35957913D01*
X98556403Y-36092620D01*
X98556401Y-36092627D01*
X98550000Y-36152155D01*
X94449999Y-36152155D01*
X94443598Y-36092627D01*
X94443596Y-36092620D01*
X94393354Y-35957913D01*
X94393350Y-35957906D01*
X94307190Y-35842812D01*
X94307187Y-35842809D01*
X94192093Y-35756649D01*
X94192086Y-35756645D01*
X94057379Y-35706403D01*
X94057372Y-35706401D01*
X93997844Y-35700000D01*
X93500000Y-35700000D01*
X93500000Y-36750000D01*
X93000000Y-36750000D01*
X93000000Y-35700000D01*
X92502155Y-35700000D01*
X92442627Y-35706401D01*
X92442620Y-35706403D01*
X92307913Y-35756645D01*
X92307911Y-35756646D01*
X92298810Y-35763460D01*
X92233345Y-35787876D01*
X92165072Y-35773024D01*
X92115667Y-35723618D01*
X92100500Y-35664192D01*
X92100500Y-33997844D01*
X93700000Y-33997844D01*
X93706401Y-34057372D01*
X93706403Y-34057379D01*
X93756645Y-34192086D01*
X93756649Y-34192093D01*
X93842809Y-34307187D01*
X93842812Y-34307190D01*
X93957906Y-34393350D01*
X93957913Y-34393354D01*
X94092620Y-34443596D01*
X94092627Y-34443598D01*
X94152155Y-34449999D01*
X94152172Y-34450000D01*
X94750000Y-34450000D01*
X95250000Y-34450000D01*
X95847828Y-34450000D01*
X95847844Y-34449999D01*
X95907372Y-34443598D01*
X95907379Y-34443596D01*
X96042086Y-34393354D01*
X96042093Y-34393350D01*
X96157187Y-34307190D01*
X96157190Y-34307187D01*
X96243350Y-34192093D01*
X96243354Y-34192086D01*
X96293596Y-34057379D01*
X96293598Y-34057372D01*
X96299999Y-33997844D01*
X96300000Y-33997827D01*
X96300000Y-33500000D01*
X95250000Y-33500000D01*
X95250000Y-34450000D01*
X94750000Y-34450000D01*
X94750000Y-33500000D01*
X93700000Y-33500000D01*
X93700000Y-33997844D01*
X92100500Y-33997844D01*
X92100500Y-32550096D01*
X92109144Y-32520655D01*
X92113169Y-32502155D01*
X93700000Y-32502155D01*
X93700000Y-33000000D01*
X94750000Y-33000000D01*
X95250000Y-33000000D01*
X96300000Y-33000000D01*
X96300000Y-32502172D01*
X96299999Y-32502155D01*
X96293598Y-32442627D01*
X96293596Y-32442620D01*
X96243354Y-32307913D01*
X96243350Y-32307906D01*
X96157190Y-32192812D01*
X96157187Y-32192809D01*
X96042093Y-32106649D01*
X96042086Y-32106645D01*
X95907379Y-32056403D01*
X95907372Y-32056401D01*
X95847844Y-32050000D01*
X95250000Y-32050000D01*
X95250000Y-33000000D01*
X94750000Y-33000000D01*
X94750000Y-32050000D01*
X94152155Y-32050000D01*
X94092627Y-32056401D01*
X94092620Y-32056403D01*
X93957913Y-32106645D01*
X93957906Y-32106649D01*
X93842812Y-32192809D01*
X93842809Y-32192812D01*
X93756649Y-32307906D01*
X93756645Y-32307913D01*
X93706403Y-32442620D01*
X93706401Y-32442627D01*
X93700000Y-32502155D01*
X92113169Y-32502155D01*
X92115668Y-32490669D01*
X92119422Y-32485653D01*
X92120185Y-32483057D01*
X92136814Y-32462420D01*
X94612416Y-29986817D01*
X94673739Y-29953333D01*
X94700097Y-29950499D01*
X95847871Y-29950499D01*
X95847872Y-29950499D01*
X95907483Y-29944091D01*
X96042331Y-29893796D01*
X96157546Y-29807546D01*
X96243796Y-29692331D01*
X96294091Y-29557483D01*
X96300500Y-29497873D01*
X96300499Y-28002128D01*
X96294091Y-27942517D01*
X96290078Y-27931758D01*
X96243797Y-27807671D01*
X96243793Y-27807664D01*
X96157547Y-27692455D01*
X96157544Y-27692452D01*
X96042335Y-27606206D01*
X96042328Y-27606202D01*
X95907482Y-27555908D01*
X95907483Y-27555908D01*
X95847883Y-27549501D01*
X95847881Y-27549500D01*
X95847873Y-27549500D01*
X95847864Y-27549500D01*
X94152129Y-27549500D01*
X94152123Y-27549501D01*
X94092516Y-27555908D01*
X93957671Y-27606202D01*
X93957664Y-27606206D01*
X93842455Y-27692452D01*
X93842452Y-27692455D01*
X93756206Y-27807664D01*
X93756202Y-27807671D01*
X93705908Y-27942517D01*
X93700533Y-27992516D01*
X93699501Y-28002123D01*
X93699500Y-28002135D01*
X93699500Y-28025500D01*
X93679815Y-28092539D01*
X93627011Y-28138294D01*
X93575500Y-28149500D01*
X88424499Y-28149500D01*
X88357460Y-28129815D01*
X88311705Y-28077011D01*
X88300499Y-28025500D01*
X88300499Y-28002129D01*
X88300498Y-28002123D01*
X88300497Y-28002116D01*
X88294091Y-27942517D01*
X88290078Y-27931758D01*
X88243797Y-27807671D01*
X88243793Y-27807664D01*
X88157547Y-27692455D01*
X88157544Y-27692452D01*
X88042335Y-27606206D01*
X88042328Y-27606202D01*
X87907482Y-27555908D01*
X87907483Y-27555908D01*
X87847883Y-27549501D01*
X87847881Y-27549500D01*
X87847873Y-27549500D01*
X87847864Y-27549500D01*
X86152129Y-27549500D01*
X86152123Y-27549501D01*
X86092516Y-27555908D01*
X85957671Y-27606202D01*
X85957664Y-27606206D01*
X85842455Y-27692452D01*
X85842452Y-27692455D01*
X85756206Y-27807664D01*
X85756202Y-27807671D01*
X85705908Y-27942517D01*
X85700533Y-27992516D01*
X85699501Y-28002123D01*
X85699500Y-28002135D01*
X85699500Y-29497870D01*
X85699501Y-29497876D01*
X85705908Y-29557483D01*
X85756202Y-29692328D01*
X85756206Y-29692335D01*
X85842452Y-29807544D01*
X85842455Y-29807547D01*
X85957664Y-29893793D01*
X85957671Y-29893797D01*
X86092517Y-29944091D01*
X86092516Y-29944091D01*
X86099444Y-29944835D01*
X86152127Y-29950500D01*
X87847872Y-29950499D01*
X87907483Y-29944091D01*
X88042331Y-29893796D01*
X88157546Y-29807546D01*
X88243796Y-29692331D01*
X88294091Y-29557483D01*
X88300500Y-29497873D01*
X88300500Y-29474500D01*
X88320185Y-29407461D01*
X88372989Y-29361706D01*
X88424500Y-29350500D01*
X93250903Y-29350500D01*
X93317942Y-29370185D01*
X93363697Y-29422989D01*
X93373641Y-29492147D01*
X93344616Y-29555703D01*
X93338585Y-29562179D01*
X92103116Y-30797648D01*
X91131286Y-31769478D01*
X91019481Y-31881282D01*
X91019479Y-31881285D01*
X90969361Y-31968094D01*
X90969359Y-31968096D01*
X90940425Y-32018209D01*
X90940424Y-32018210D01*
X90933882Y-32042627D01*
X90899499Y-32170943D01*
X90899499Y-32170945D01*
X90899499Y-32339046D01*
X90899500Y-32339059D01*
X90899500Y-35650902D01*
X90879815Y-35717941D01*
X90827011Y-35763696D01*
X90757853Y-35773640D01*
X90694297Y-35744615D01*
X90687819Y-35738583D01*
X89487590Y-34538355D01*
X89487588Y-34538352D01*
X89368717Y-34419481D01*
X89368716Y-34419480D01*
X89281904Y-34369360D01*
X89281904Y-34369359D01*
X89281900Y-34369358D01*
X89231785Y-34340423D01*
X89079057Y-34299499D01*
X88920943Y-34299499D01*
X88913347Y-34299499D01*
X88913331Y-34299500D01*
X88381885Y-34299500D01*
X88314846Y-34279815D01*
X88269091Y-34227011D01*
X88259147Y-34157853D01*
X88265703Y-34132167D01*
X88293596Y-34057379D01*
X88293598Y-34057372D01*
X88299999Y-33997844D01*
X88300000Y-33997827D01*
X88300000Y-33500000D01*
X85700000Y-33500000D01*
X85700000Y-33997844D01*
X85706401Y-34057372D01*
X85706403Y-34057379D01*
X85734297Y-34132167D01*
X85739281Y-34201859D01*
X85705796Y-34263182D01*
X85644473Y-34296666D01*
X85618115Y-34299500D01*
X79770940Y-34299500D01*
X79730019Y-34310464D01*
X79730019Y-34310465D01*
X79700458Y-34318386D01*
X79618214Y-34340423D01*
X79618209Y-34340426D01*
X79481290Y-34419475D01*
X79481282Y-34419481D01*
X79369478Y-34531286D01*
X78237582Y-35663181D01*
X78176259Y-35696666D01*
X78149901Y-35699500D01*
X77002129Y-35699500D01*
X77002123Y-35699501D01*
X76942516Y-35705908D01*
X76807671Y-35756202D01*
X76807664Y-35756206D01*
X76692455Y-35842452D01*
X76692452Y-35842455D01*
X76606206Y-35957664D01*
X76606202Y-35957671D01*
X76555908Y-36092517D01*
X76553783Y-36112287D01*
X76549501Y-36152123D01*
X76549500Y-36152135D01*
X76549500Y-37847870D01*
X76549501Y-37847876D01*
X76555908Y-37907483D01*
X76606202Y-38042328D01*
X76606206Y-38042335D01*
X76692452Y-38157544D01*
X76692455Y-38157547D01*
X76807664Y-38243793D01*
X76807671Y-38243797D01*
X76852618Y-38260561D01*
X76942517Y-38294091D01*
X77002127Y-38300500D01*
X77025497Y-38300499D01*
X77092536Y-38320181D01*
X77138292Y-38372983D01*
X77149500Y-38424499D01*
X77149500Y-43575500D01*
X77129815Y-43642539D01*
X77077011Y-43688294D01*
X77025505Y-43699500D01*
X77002132Y-43699500D01*
X77002123Y-43699501D01*
X76942516Y-43705908D01*
X76807671Y-43756202D01*
X76807664Y-43756206D01*
X76692455Y-43842452D01*
X76692452Y-43842455D01*
X76606206Y-43957664D01*
X76606202Y-43957671D01*
X76555908Y-44092517D01*
X76549501Y-44152116D01*
X76549501Y-44152123D01*
X76549500Y-44152135D01*
X76549500Y-45847870D01*
X76549501Y-45847876D01*
X76555908Y-45907483D01*
X76606202Y-46042328D01*
X76606206Y-46042335D01*
X76692452Y-46157544D01*
X76692455Y-46157547D01*
X76807664Y-46243793D01*
X76807671Y-46243797D01*
X76942517Y-46294091D01*
X76942516Y-46294091D01*
X76949444Y-46294835D01*
X77002127Y-46300500D01*
X78497872Y-46300499D01*
X78557483Y-46294091D01*
X78692331Y-46243796D01*
X78807546Y-46157546D01*
X78893796Y-46042331D01*
X78944091Y-45907483D01*
X78950500Y-45847873D01*
X78950500Y-45847844D01*
X81050000Y-45847844D01*
X81056401Y-45907372D01*
X81056403Y-45907379D01*
X81106645Y-46042086D01*
X81106649Y-46042093D01*
X81192809Y-46157187D01*
X81192812Y-46157190D01*
X81307906Y-46243350D01*
X81307913Y-46243354D01*
X81442620Y-46293596D01*
X81442627Y-46293598D01*
X81502155Y-46299999D01*
X81502172Y-46300000D01*
X82000000Y-46300000D01*
X82500000Y-46300000D01*
X82997828Y-46300000D01*
X82997844Y-46299999D01*
X83057372Y-46293598D01*
X83057379Y-46293596D01*
X83192086Y-46243354D01*
X83192093Y-46243350D01*
X83307187Y-46157190D01*
X83307190Y-46157187D01*
X83393350Y-46042093D01*
X83393354Y-46042086D01*
X83443596Y-45907379D01*
X83443598Y-45907372D01*
X83449999Y-45847844D01*
X83450000Y-45847827D01*
X83450000Y-45250000D01*
X82500000Y-45250000D01*
X82500000Y-46300000D01*
X82000000Y-46300000D01*
X82000000Y-45250000D01*
X81050000Y-45250000D01*
X81050000Y-45847844D01*
X78950500Y-45847844D01*
X78950499Y-45000000D01*
X78950499Y-44152155D01*
X81050000Y-44152155D01*
X81050000Y-44750000D01*
X82000000Y-44750000D01*
X82500000Y-44750000D01*
X83450000Y-44750000D01*
X83450000Y-44152172D01*
X83449999Y-44152155D01*
X83443598Y-44092627D01*
X83443596Y-44092620D01*
X83393354Y-43957913D01*
X83393350Y-43957906D01*
X83307190Y-43842812D01*
X83307187Y-43842809D01*
X83192093Y-43756649D01*
X83192086Y-43756645D01*
X83057379Y-43706403D01*
X83057372Y-43706401D01*
X82997844Y-43700000D01*
X82500000Y-43700000D01*
X82500000Y-44750000D01*
X82000000Y-44750000D01*
X82000000Y-43700000D01*
X81502155Y-43700000D01*
X81442627Y-43706401D01*
X81442620Y-43706403D01*
X81307913Y-43756645D01*
X81307906Y-43756649D01*
X81192812Y-43842809D01*
X81192809Y-43842812D01*
X81106649Y-43957906D01*
X81106645Y-43957913D01*
X81056403Y-44092620D01*
X81056401Y-44092627D01*
X81050000Y-44152155D01*
X78950499Y-44152155D01*
X78950499Y-44152129D01*
X78950498Y-44152123D01*
X78950497Y-44152116D01*
X78944091Y-44092517D01*
X78893884Y-43957906D01*
X78893797Y-43957671D01*
X78893793Y-43957664D01*
X78807547Y-43842455D01*
X78807544Y-43842452D01*
X78692335Y-43756206D01*
X78692328Y-43756202D01*
X78557482Y-43705908D01*
X78557483Y-43705908D01*
X78497883Y-43699501D01*
X78497881Y-43699500D01*
X78497873Y-43699500D01*
X78497865Y-43699500D01*
X78474500Y-43699500D01*
X78407461Y-43679815D01*
X78361706Y-43627011D01*
X78350500Y-43575500D01*
X78350500Y-38424499D01*
X78370185Y-38357460D01*
X78422989Y-38311705D01*
X78474500Y-38300499D01*
X78497871Y-38300499D01*
X78497872Y-38300499D01*
X78557483Y-38294091D01*
X78692331Y-38243796D01*
X78807546Y-38157546D01*
X78893796Y-38042331D01*
X78944091Y-37907483D01*
X78950500Y-37847873D01*
X78950500Y-37847844D01*
X81050000Y-37847844D01*
X81056401Y-37907372D01*
X81056403Y-37907379D01*
X81106645Y-38042086D01*
X81106649Y-38042093D01*
X81192809Y-38157187D01*
X81192812Y-38157190D01*
X81307906Y-38243350D01*
X81307913Y-38243354D01*
X81442620Y-38293596D01*
X81442627Y-38293598D01*
X81502155Y-38299999D01*
X81502172Y-38300000D01*
X82000000Y-38300000D01*
X82500000Y-38300000D01*
X82997828Y-38300000D01*
X82997844Y-38299999D01*
X83057372Y-38293598D01*
X83057379Y-38293596D01*
X83192086Y-38243354D01*
X83192093Y-38243350D01*
X83307187Y-38157190D01*
X83307190Y-38157187D01*
X83393350Y-38042093D01*
X83393354Y-38042086D01*
X83443596Y-37907379D01*
X83443598Y-37907372D01*
X83449999Y-37847844D01*
X83450000Y-37847827D01*
X83450000Y-37250000D01*
X82500000Y-37250000D01*
X82500000Y-38300000D01*
X82000000Y-38300000D01*
X82000000Y-37250000D01*
X81050000Y-37250000D01*
X81050000Y-37847844D01*
X78950500Y-37847844D01*
X78950499Y-36700095D01*
X78970184Y-36633057D01*
X78986813Y-36612420D01*
X80062416Y-35536819D01*
X80123739Y-35503334D01*
X80150097Y-35500500D01*
X81307381Y-35500500D01*
X81374420Y-35520185D01*
X81420175Y-35572989D01*
X81430119Y-35642147D01*
X81401094Y-35705703D01*
X81350714Y-35740682D01*
X81307913Y-35756645D01*
X81307906Y-35756649D01*
X81192812Y-35842809D01*
X81192809Y-35842812D01*
X81106649Y-35957906D01*
X81106645Y-35957913D01*
X81056403Y-36092620D01*
X81056401Y-36092627D01*
X81050000Y-36152155D01*
X81050000Y-36750000D01*
X83450000Y-36750000D01*
X83450000Y-36152172D01*
X83449999Y-36152155D01*
X83443598Y-36092627D01*
X83443596Y-36092620D01*
X83393354Y-35957913D01*
X83393350Y-35957906D01*
X83307190Y-35842812D01*
X83307187Y-35842809D01*
X83192093Y-35756649D01*
X83192086Y-35756645D01*
X83149286Y-35740682D01*
X83093352Y-35698811D01*
X83068935Y-35633346D01*
X83083787Y-35565073D01*
X83133192Y-35515668D01*
X83192619Y-35500500D01*
X87805952Y-35500500D01*
X87872991Y-35520185D01*
X87918746Y-35572989D01*
X87928690Y-35642147D01*
X87899665Y-35705703D01*
X87849285Y-35740682D01*
X87807671Y-35756202D01*
X87807664Y-35756206D01*
X87692455Y-35842452D01*
X87692452Y-35842455D01*
X87606206Y-35957664D01*
X87606202Y-35957671D01*
X87555908Y-36092517D01*
X87553783Y-36112287D01*
X87549501Y-36152123D01*
X87549500Y-36152135D01*
X87549500Y-37847870D01*
X87549501Y-37847876D01*
X87555908Y-37907483D01*
X87606202Y-38042328D01*
X87606206Y-38042335D01*
X87692452Y-38157544D01*
X87692455Y-38157547D01*
X87807664Y-38243793D01*
X87807671Y-38243797D01*
X87852618Y-38260561D01*
X87942517Y-38294091D01*
X88002127Y-38300500D01*
X88025497Y-38300499D01*
X88092536Y-38320181D01*
X88138292Y-38372983D01*
X88149500Y-38424499D01*
X88149500Y-43575500D01*
X88129815Y-43642539D01*
X88077011Y-43688294D01*
X88025505Y-43699500D01*
X88002132Y-43699500D01*
X88002123Y-43699501D01*
X87942516Y-43705908D01*
X87807671Y-43756202D01*
X87807664Y-43756206D01*
X87692455Y-43842452D01*
X87692452Y-43842455D01*
X87606206Y-43957664D01*
X87606202Y-43957671D01*
X87555908Y-44092517D01*
X87549501Y-44152116D01*
X87549501Y-44152123D01*
X87549500Y-44152135D01*
X87549500Y-44275500D01*
X87529815Y-44342539D01*
X87477011Y-44388294D01*
X87425500Y-44399500D01*
X86286669Y-44399500D01*
X86286653Y-44399499D01*
X86279057Y-44399499D01*
X86120943Y-44399499D01*
X86013587Y-44428265D01*
X85968210Y-44440424D01*
X85968209Y-44440425D01*
X85918096Y-44469359D01*
X85918095Y-44469360D01*
X85874689Y-44494420D01*
X85831285Y-44519479D01*
X85831282Y-44519481D01*
X79019481Y-51331282D01*
X79019479Y-51331285D01*
X78969361Y-51418094D01*
X78969359Y-51418096D01*
X78940425Y-51468209D01*
X78940424Y-51468210D01*
X78940423Y-51468215D01*
X78899499Y-51620943D01*
X78899499Y-51620945D01*
X78899499Y-51789046D01*
X78899500Y-51789059D01*
X78899500Y-65891388D01*
X78879815Y-65958427D01*
X78863181Y-65979069D01*
X76070707Y-68771542D01*
X76009384Y-68805027D01*
X75939692Y-68800043D01*
X75883759Y-68758171D01*
X75859342Y-68692707D01*
X75859028Y-68683148D01*
X75913308Y-59564131D01*
X75919374Y-59526556D01*
X75953553Y-59421368D01*
X75978026Y-59266853D01*
X75990500Y-59188097D01*
X75990500Y-58951902D01*
X75965868Y-58796390D01*
X75953553Y-58718632D01*
X75925160Y-58631249D01*
X75919093Y-58592193D01*
X75921997Y-58104432D01*
X76000000Y-45000000D01*
X75875500Y-45000000D01*
X75808461Y-44980315D01*
X75762706Y-44927511D01*
X75751500Y-44876000D01*
X75751500Y-36780060D01*
X75751501Y-36780047D01*
X75751501Y-36611945D01*
X75751501Y-36611943D01*
X75710577Y-36459215D01*
X75676100Y-36399500D01*
X75676100Y-36399499D01*
X75631522Y-36322287D01*
X75631521Y-36322286D01*
X75631520Y-36322284D01*
X75519716Y-36210480D01*
X75519715Y-36210479D01*
X75515385Y-36206149D01*
X75515374Y-36206139D01*
X75333757Y-36024522D01*
X75300272Y-35963199D01*
X75303507Y-35898523D01*
X75317246Y-35856243D01*
X75350500Y-35646287D01*
X75350500Y-35433713D01*
X75317246Y-35223757D01*
X75251557Y-35021588D01*
X75155051Y-34832184D01*
X75155049Y-34832181D01*
X75155048Y-34832179D01*
X75030109Y-34660213D01*
X74916181Y-34546285D01*
X74882696Y-34484962D01*
X74887680Y-34415270D01*
X74929552Y-34359337D01*
X74960529Y-34342422D01*
X75092086Y-34293354D01*
X75092093Y-34293350D01*
X75207187Y-34207190D01*
X75207190Y-34207187D01*
X75293350Y-34092093D01*
X75293354Y-34092086D01*
X75343596Y-33957379D01*
X75343598Y-33957372D01*
X75349999Y-33897844D01*
X75350000Y-33897827D01*
X75350000Y-33250000D01*
X74433012Y-33250000D01*
X74465925Y-33192993D01*
X74500000Y-33065826D01*
X74500000Y-32934174D01*
X74465925Y-32807007D01*
X74433012Y-32750000D01*
X75350000Y-32750000D01*
X75350000Y-32502155D01*
X85700000Y-32502155D01*
X85700000Y-33000000D01*
X86750000Y-33000000D01*
X87250000Y-33000000D01*
X88300000Y-33000000D01*
X88300000Y-32502172D01*
X88299999Y-32502155D01*
X88293598Y-32442627D01*
X88293596Y-32442620D01*
X88243354Y-32307913D01*
X88243350Y-32307906D01*
X88157190Y-32192812D01*
X88157187Y-32192809D01*
X88042093Y-32106649D01*
X88042086Y-32106645D01*
X87907379Y-32056403D01*
X87907372Y-32056401D01*
X87847844Y-32050000D01*
X87250000Y-32050000D01*
X87250000Y-33000000D01*
X86750000Y-33000000D01*
X86750000Y-32050000D01*
X86152155Y-32050000D01*
X86092627Y-32056401D01*
X86092620Y-32056403D01*
X85957913Y-32106645D01*
X85957906Y-32106649D01*
X85842812Y-32192809D01*
X85842809Y-32192812D01*
X85756649Y-32307906D01*
X85756645Y-32307913D01*
X85706403Y-32442620D01*
X85706401Y-32442627D01*
X85700000Y-32502155D01*
X75350000Y-32502155D01*
X75350000Y-32102172D01*
X75349999Y-32102155D01*
X75343598Y-32042627D01*
X75343596Y-32042620D01*
X75293354Y-31907913D01*
X75293350Y-31907906D01*
X75207190Y-31792812D01*
X75207187Y-31792809D01*
X75092093Y-31706649D01*
X75092086Y-31706645D01*
X74957379Y-31656403D01*
X74957372Y-31656401D01*
X74897844Y-31650000D01*
X74250000Y-31650000D01*
X74250000Y-32566988D01*
X74192993Y-32534075D01*
X74065826Y-32500000D01*
X73934174Y-32500000D01*
X73807007Y-32534075D01*
X73750000Y-32566988D01*
X73750000Y-31650000D01*
X73102155Y-31650000D01*
X73042627Y-31656401D01*
X73042620Y-31656403D01*
X72907913Y-31706645D01*
X72907906Y-31706649D01*
X72792812Y-31792809D01*
X72792809Y-31792812D01*
X72706649Y-31907906D01*
X72706645Y-31907913D01*
X72656403Y-32042620D01*
X72656401Y-32042627D01*
X72650000Y-32102155D01*
X72650000Y-32750000D01*
X73566988Y-32750000D01*
X73534075Y-32807007D01*
X73500000Y-32934174D01*
X73500000Y-33065826D01*
X73534075Y-33192993D01*
X73566988Y-33250000D01*
X72650000Y-33250000D01*
X72650000Y-33897844D01*
X72656401Y-33957372D01*
X72656403Y-33957379D01*
X72706645Y-34092086D01*
X72706649Y-34092093D01*
X72792809Y-34207187D01*
X72792812Y-34207190D01*
X72907906Y-34293350D01*
X72907913Y-34293354D01*
X73039470Y-34342422D01*
X73095404Y-34384293D01*
X73119821Y-34449758D01*
X73104969Y-34518031D01*
X73083819Y-34546285D01*
X72969889Y-34660215D01*
X72844951Y-34832179D01*
X72748444Y-35021585D01*
X72682753Y-35223760D01*
X72649500Y-35433713D01*
X72649500Y-35646286D01*
X72682753Y-35856239D01*
X72682753Y-35856241D01*
X72682754Y-35856243D01*
X72737431Y-36024522D01*
X72748444Y-36058414D01*
X72844951Y-36247820D01*
X72969890Y-36419786D01*
X73120213Y-36570109D01*
X73292182Y-36695050D01*
X73300946Y-36699516D01*
X73351742Y-36747491D01*
X73368536Y-36815312D01*
X73345998Y-36881447D01*
X73300946Y-36920484D01*
X73292182Y-36924949D01*
X73120213Y-37049890D01*
X72969890Y-37200213D01*
X72844948Y-37372184D01*
X72844947Y-37372185D01*
X72824765Y-37411795D01*
X72814316Y-37422857D01*
X72807994Y-37436703D01*
X72790812Y-37447744D01*
X72776791Y-37462591D01*
X72761111Y-37466832D01*
X72749216Y-37474477D01*
X72714281Y-37479500D01*
X72706670Y-37479500D01*
X72706654Y-37479499D01*
X72699058Y-37479499D01*
X72540943Y-37479499D01*
X72464579Y-37499961D01*
X72388214Y-37520423D01*
X72388209Y-37520426D01*
X72251290Y-37599475D01*
X72251282Y-37599481D01*
X64887083Y-44963681D01*
X64825760Y-44997166D01*
X64799402Y-45000000D01*
X33624500Y-45000000D01*
X33557461Y-44980315D01*
X33511706Y-44927511D01*
X33500500Y-44876000D01*
X33500500Y-40086571D01*
X58200000Y-40086571D01*
X58227085Y-40257584D01*
X58280591Y-40422257D01*
X58359195Y-40576524D01*
X58460967Y-40716602D01*
X58583397Y-40839032D01*
X58723475Y-40940804D01*
X58877744Y-41019408D01*
X59042415Y-41072914D01*
X59042414Y-41072914D01*
X59049999Y-41074115D01*
X59550000Y-41074115D01*
X59557584Y-41072914D01*
X59722255Y-41019408D01*
X59876524Y-40940804D01*
X60016602Y-40839032D01*
X60139032Y-40716602D01*
X60240804Y-40576524D01*
X60319408Y-40422257D01*
X60372914Y-40257584D01*
X60400000Y-40086571D01*
X60400000Y-40050000D01*
X59550000Y-40050000D01*
X59550000Y-41074115D01*
X59049999Y-41074115D01*
X59050000Y-41074114D01*
X59050000Y-40050000D01*
X58200000Y-40050000D01*
X58200000Y-40086571D01*
X33500500Y-40086571D01*
X33500500Y-39753922D01*
X58950000Y-39753922D01*
X58950000Y-39846078D01*
X58973852Y-39935095D01*
X59019930Y-40014905D01*
X59085095Y-40080070D01*
X59164905Y-40126148D01*
X59253922Y-40150000D01*
X59346078Y-40150000D01*
X59435095Y-40126148D01*
X59514905Y-40080070D01*
X59580070Y-40014905D01*
X59626148Y-39935095D01*
X59650000Y-39846078D01*
X59650000Y-39753922D01*
X59626148Y-39664905D01*
X59580070Y-39585095D01*
X59544975Y-39550000D01*
X59550000Y-39550000D01*
X60400000Y-39550000D01*
X60400000Y-39513428D01*
X60372914Y-39342415D01*
X60319408Y-39177742D01*
X60240804Y-39023475D01*
X60139032Y-38883397D01*
X60016602Y-38760967D01*
X59876524Y-38659195D01*
X59722257Y-38580591D01*
X59557589Y-38527087D01*
X59557581Y-38527085D01*
X59550000Y-38525884D01*
X59550000Y-39550000D01*
X59544975Y-39550000D01*
X59514905Y-39519930D01*
X59435095Y-39473852D01*
X59346078Y-39450000D01*
X59253922Y-39450000D01*
X59164905Y-39473852D01*
X59085095Y-39519930D01*
X59019930Y-39585095D01*
X58973852Y-39664905D01*
X58950000Y-39753922D01*
X33500500Y-39753922D01*
X33500500Y-39513428D01*
X58200000Y-39513428D01*
X58200000Y-39550000D01*
X59050000Y-39550000D01*
X59050000Y-38525884D01*
X59049999Y-38525884D01*
X59042418Y-38527085D01*
X59042410Y-38527087D01*
X58877742Y-38580591D01*
X58723475Y-38659195D01*
X58583397Y-38760967D01*
X58460967Y-38883397D01*
X58359195Y-39023475D01*
X58280591Y-39177742D01*
X58227085Y-39342415D01*
X58200000Y-39513428D01*
X33500500Y-39513428D01*
X33500500Y-37173389D01*
X55659500Y-37173389D01*
X55659500Y-37346610D01*
X55680547Y-37479500D01*
X55686598Y-37517701D01*
X55740127Y-37682445D01*
X55818768Y-37836788D01*
X55920586Y-37976928D01*
X56043072Y-38099414D01*
X56183212Y-38201232D01*
X56337555Y-38279873D01*
X56502299Y-38333402D01*
X56673389Y-38360500D01*
X56673390Y-38360500D01*
X56846610Y-38360500D01*
X56846611Y-38360500D01*
X57017701Y-38333402D01*
X57182445Y-38279873D01*
X57336788Y-38201232D01*
X57476928Y-38099414D01*
X57599414Y-37976928D01*
X57701232Y-37836788D01*
X57779873Y-37682445D01*
X57833402Y-37517701D01*
X57860500Y-37346611D01*
X57860500Y-37173389D01*
X57833402Y-37002299D01*
X57779873Y-36837555D01*
X57701232Y-36683212D01*
X57599414Y-36543072D01*
X57476928Y-36420586D01*
X57336788Y-36318768D01*
X57300935Y-36300500D01*
X57182447Y-36240128D01*
X57182446Y-36240127D01*
X57182445Y-36240127D01*
X57017701Y-36186598D01*
X57017699Y-36186597D01*
X57017698Y-36186597D01*
X56886271Y-36165781D01*
X56846611Y-36159500D01*
X56673389Y-36159500D01*
X56633728Y-36165781D01*
X56502302Y-36186597D01*
X56337552Y-36240128D01*
X56183211Y-36318768D01*
X56103256Y-36376859D01*
X56043072Y-36420586D01*
X56043070Y-36420588D01*
X56043069Y-36420588D01*
X55920588Y-36543069D01*
X55920588Y-36543070D01*
X55920586Y-36543072D01*
X55876859Y-36603256D01*
X55818768Y-36683211D01*
X55740128Y-36837552D01*
X55686597Y-37002302D01*
X55659500Y-37173389D01*
X33500500Y-37173389D01*
X33500500Y-34897648D01*
X44079500Y-34897648D01*
X44079500Y-35102351D01*
X44111522Y-35304534D01*
X44174781Y-35499223D01*
X44238691Y-35624653D01*
X44257329Y-35661231D01*
X44267715Y-35681613D01*
X44388028Y-35847213D01*
X44532786Y-35991971D01*
X44671177Y-36092516D01*
X44698390Y-36112287D01*
X44776669Y-36152172D01*
X44880776Y-36205218D01*
X44880778Y-36205218D01*
X44880781Y-36205220D01*
X44985137Y-36239127D01*
X45075465Y-36268477D01*
X45176557Y-36284488D01*
X45277648Y-36300500D01*
X45277649Y-36300500D01*
X45482351Y-36300500D01*
X45482352Y-36300500D01*
X45684534Y-36268477D01*
X45879219Y-36205220D01*
X46061610Y-36112287D01*
X46182409Y-36024522D01*
X46227213Y-35991971D01*
X46227215Y-35991968D01*
X46227219Y-35991966D01*
X46371966Y-35847219D01*
X46371968Y-35847215D01*
X46371971Y-35847213D01*
X46425871Y-35773024D01*
X46492287Y-35681610D01*
X46585220Y-35499219D01*
X46648477Y-35304534D01*
X46680500Y-35102352D01*
X46680500Y-34897648D01*
X51699500Y-34897648D01*
X51699500Y-35102351D01*
X51731522Y-35304534D01*
X51794781Y-35499223D01*
X51858691Y-35624653D01*
X51877329Y-35661231D01*
X51887715Y-35681613D01*
X52008028Y-35847213D01*
X52152786Y-35991971D01*
X52291177Y-36092516D01*
X52318390Y-36112287D01*
X52396669Y-36152172D01*
X52500776Y-36205218D01*
X52500778Y-36205218D01*
X52500781Y-36205220D01*
X52605137Y-36239127D01*
X52695465Y-36268477D01*
X52796557Y-36284488D01*
X52897648Y-36300500D01*
X52897649Y-36300500D01*
X53102351Y-36300500D01*
X53102352Y-36300500D01*
X53304534Y-36268477D01*
X53499219Y-36205220D01*
X53681610Y-36112287D01*
X53802409Y-36024522D01*
X53847213Y-35991971D01*
X53847215Y-35991968D01*
X53847219Y-35991966D01*
X53991966Y-35847219D01*
X53991968Y-35847215D01*
X53991971Y-35847213D01*
X54045871Y-35773024D01*
X54112287Y-35681610D01*
X54205220Y-35499219D01*
X54268477Y-35304534D01*
X54300500Y-35102352D01*
X54300500Y-34897648D01*
X54268477Y-34695466D01*
X54268476Y-34695462D01*
X54268476Y-34695461D01*
X54259175Y-34666835D01*
X54248307Y-34633389D01*
X58199500Y-34633389D01*
X58199500Y-34806611D01*
X58226598Y-34977701D01*
X58280127Y-35142445D01*
X58358768Y-35296788D01*
X58460586Y-35436928D01*
X58583072Y-35559414D01*
X58723212Y-35661232D01*
X58877555Y-35739873D01*
X59042299Y-35793402D01*
X59213389Y-35820500D01*
X59213390Y-35820500D01*
X59386610Y-35820500D01*
X59386611Y-35820500D01*
X59557701Y-35793402D01*
X59722445Y-35739873D01*
X59876788Y-35661232D01*
X60016928Y-35559414D01*
X60139414Y-35436928D01*
X60241232Y-35296788D01*
X60319873Y-35142445D01*
X60373402Y-34977701D01*
X60400500Y-34806611D01*
X60400500Y-34633389D01*
X60373402Y-34462299D01*
X60319873Y-34297555D01*
X60241232Y-34143212D01*
X60139414Y-34003072D01*
X60016928Y-33880586D01*
X59876788Y-33778768D01*
X59722445Y-33700127D01*
X59557701Y-33646598D01*
X59557699Y-33646597D01*
X59557698Y-33646597D01*
X59426271Y-33625781D01*
X59386611Y-33619500D01*
X59213389Y-33619500D01*
X59173728Y-33625781D01*
X59042302Y-33646597D01*
X58877552Y-33700128D01*
X58723211Y-33778768D01*
X58643256Y-33836859D01*
X58583072Y-33880586D01*
X58583070Y-33880588D01*
X58583069Y-33880588D01*
X58460588Y-34003069D01*
X58460588Y-34003070D01*
X58460586Y-34003072D01*
X58456981Y-34008034D01*
X58358768Y-34143211D01*
X58280128Y-34297552D01*
X58226597Y-34462302D01*
X58214552Y-34538352D01*
X58199500Y-34633389D01*
X54248307Y-34633389D01*
X54220005Y-34546285D01*
X54205220Y-34500781D01*
X54205218Y-34500778D01*
X54205218Y-34500776D01*
X54171503Y-34434607D01*
X54112287Y-34318390D01*
X54097150Y-34297555D01*
X53991971Y-34152786D01*
X53847213Y-34008028D01*
X53681613Y-33887715D01*
X53681612Y-33887714D01*
X53681610Y-33887713D01*
X53624653Y-33858691D01*
X53499223Y-33794781D01*
X53304534Y-33731522D01*
X53129995Y-33703878D01*
X53102352Y-33699500D01*
X52897648Y-33699500D01*
X52873329Y-33703351D01*
X52695465Y-33731522D01*
X52500776Y-33794781D01*
X52318386Y-33887715D01*
X52152786Y-34008028D01*
X52008028Y-34152786D01*
X51887715Y-34318386D01*
X51794781Y-34500776D01*
X51731522Y-34695465D01*
X51699500Y-34897648D01*
X46680500Y-34897648D01*
X46648477Y-34695466D01*
X46648476Y-34695464D01*
X46600005Y-34546285D01*
X46585220Y-34500781D01*
X46585218Y-34500778D01*
X46585218Y-34500776D01*
X46551503Y-34434607D01*
X46492287Y-34318390D01*
X46477150Y-34297555D01*
X46371971Y-34152786D01*
X46227213Y-34008028D01*
X46061613Y-33887715D01*
X46061612Y-33887714D01*
X46061610Y-33887713D01*
X46004653Y-33858691D01*
X45879223Y-33794781D01*
X45684534Y-33731522D01*
X45509995Y-33703878D01*
X45482352Y-33699500D01*
X45277648Y-33699500D01*
X45253329Y-33703351D01*
X45075465Y-33731522D01*
X44880776Y-33794781D01*
X44698386Y-33887715D01*
X44532786Y-34008028D01*
X44388028Y-34152786D01*
X44267715Y-34318386D01*
X44174781Y-34500776D01*
X44111522Y-34695465D01*
X44079500Y-34897648D01*
X33500500Y-34897648D01*
X33500500Y-30797648D01*
X42579500Y-30797648D01*
X42579500Y-31002351D01*
X42611522Y-31204534D01*
X42674781Y-31399223D01*
X42767715Y-31581613D01*
X42888028Y-31747213D01*
X43032786Y-31891971D01*
X43179456Y-31998531D01*
X43198390Y-32012287D01*
X43314607Y-32071503D01*
X43380776Y-32105218D01*
X43380778Y-32105218D01*
X43380781Y-32105220D01*
X43485137Y-32139127D01*
X43575465Y-32168477D01*
X43676557Y-32184488D01*
X43777648Y-32200500D01*
X43777649Y-32200500D01*
X43982351Y-32200500D01*
X43982352Y-32200500D01*
X44184534Y-32168477D01*
X44379219Y-32105220D01*
X44561610Y-32012287D01*
X44705270Y-31907913D01*
X44727213Y-31891971D01*
X44727215Y-31891968D01*
X44727219Y-31891966D01*
X44871966Y-31747219D01*
X44871968Y-31747215D01*
X44871971Y-31747213D01*
X44937947Y-31656403D01*
X44992287Y-31581610D01*
X45085220Y-31399219D01*
X45148477Y-31204534D01*
X45180500Y-31002352D01*
X45180500Y-30797648D01*
X50199500Y-30797648D01*
X50199500Y-31002351D01*
X50231522Y-31204534D01*
X50294781Y-31399223D01*
X50387715Y-31581613D01*
X50508028Y-31747213D01*
X50652786Y-31891971D01*
X50799456Y-31998531D01*
X50818390Y-32012287D01*
X50934607Y-32071503D01*
X51000776Y-32105218D01*
X51000778Y-32105218D01*
X51000781Y-32105220D01*
X51105137Y-32139127D01*
X51195465Y-32168477D01*
X51296557Y-32184488D01*
X51397648Y-32200500D01*
X51397649Y-32200500D01*
X51602351Y-32200500D01*
X51602352Y-32200500D01*
X51804534Y-32168477D01*
X51999219Y-32105220D01*
X52181610Y-32012287D01*
X52200544Y-31998531D01*
X52347213Y-31891971D01*
X52347215Y-31891968D01*
X52347219Y-31891966D01*
X52491966Y-31747219D01*
X52491968Y-31747215D01*
X52491971Y-31747213D01*
X52557947Y-31656403D01*
X52612287Y-31581610D01*
X52705220Y-31399219D01*
X52768477Y-31204534D01*
X52800500Y-31002352D01*
X52800500Y-30797648D01*
X52768477Y-30595466D01*
X52705220Y-30400781D01*
X52705218Y-30400778D01*
X52705218Y-30400776D01*
X52652797Y-30297895D01*
X52612287Y-30218390D01*
X52597336Y-30197812D01*
X52491971Y-30052786D01*
X52347213Y-29908028D01*
X52181613Y-29787715D01*
X52181612Y-29787714D01*
X52181610Y-29787713D01*
X52076236Y-29734022D01*
X51999223Y-29694781D01*
X51804534Y-29631522D01*
X51629995Y-29603878D01*
X51602352Y-29599500D01*
X51397648Y-29599500D01*
X51373329Y-29603351D01*
X51195465Y-29631522D01*
X51000776Y-29694781D01*
X50818386Y-29787715D01*
X50652786Y-29908028D01*
X50508028Y-30052786D01*
X50387715Y-30218386D01*
X50294781Y-30400776D01*
X50231522Y-30595465D01*
X50199500Y-30797648D01*
X45180500Y-30797648D01*
X45148477Y-30595466D01*
X45085220Y-30400781D01*
X45085218Y-30400778D01*
X45085218Y-30400776D01*
X45032797Y-30297895D01*
X44992287Y-30218390D01*
X44977336Y-30197812D01*
X44871971Y-30052786D01*
X44727213Y-29908028D01*
X44561613Y-29787715D01*
X44561612Y-29787714D01*
X44561610Y-29787713D01*
X44456236Y-29734022D01*
X44379223Y-29694781D01*
X44184534Y-29631522D01*
X44009995Y-29603878D01*
X43982352Y-29599500D01*
X43777648Y-29599500D01*
X43753329Y-29603351D01*
X43575465Y-29631522D01*
X43380776Y-29694781D01*
X43198386Y-29787715D01*
X43032786Y-29908028D01*
X42888028Y-30052786D01*
X42767715Y-30218386D01*
X42674781Y-30400776D01*
X42611522Y-30595465D01*
X42579500Y-30797648D01*
X33500500Y-30797648D01*
X33500500Y-29002706D01*
X33500618Y-28997297D01*
X33502778Y-28947815D01*
X33517386Y-28613226D01*
X33518326Y-28602495D01*
X33568152Y-28224025D01*
X33570025Y-28213405D01*
X33652649Y-27840709D01*
X33655440Y-27830295D01*
X33770230Y-27466227D01*
X33773917Y-27456095D01*
X33920003Y-27103412D01*
X33924561Y-27093638D01*
X33947191Y-27050166D01*
X40599500Y-27050166D01*
X40599500Y-28449833D01*
X40610003Y-28552638D01*
X40665202Y-28719217D01*
X40665204Y-28719222D01*
X40698065Y-28772497D01*
X40757330Y-28868581D01*
X40881419Y-28992670D01*
X41030780Y-29084797D01*
X41124988Y-29116014D01*
X41197361Y-29139996D01*
X41234236Y-29143763D01*
X41300174Y-29150500D01*
X41300178Y-29150500D01*
X42699822Y-29150500D01*
X42699826Y-29150500D01*
X42802638Y-29139996D01*
X42969220Y-29084797D01*
X43118581Y-28992670D01*
X43242670Y-28868581D01*
X43258797Y-28842433D01*
X43291936Y-28788710D01*
X43334793Y-28719226D01*
X43334797Y-28719220D01*
X43383819Y-28571278D01*
X43413844Y-28522601D01*
X44097861Y-27838583D01*
X44120667Y-27923694D01*
X44179910Y-28026306D01*
X44263694Y-28110090D01*
X44366306Y-28169333D01*
X44451414Y-28192137D01*
X43742485Y-28901065D01*
X43742485Y-28901066D01*
X43806243Y-28947388D01*
X44002589Y-29047432D01*
X44212164Y-29115526D01*
X44429819Y-29150000D01*
X44650181Y-29150000D01*
X44867835Y-29115526D01*
X45077410Y-29047432D01*
X45273760Y-28947386D01*
X45337513Y-28901066D01*
X45337514Y-28901066D01*
X44628585Y-28192138D01*
X44713694Y-28169333D01*
X44816306Y-28110090D01*
X44900090Y-28026306D01*
X44959333Y-27923694D01*
X44982137Y-27838585D01*
X45691066Y-28547514D01*
X45691066Y-28547513D01*
X45709372Y-28522319D01*
X45764701Y-28479653D01*
X45834315Y-28473674D01*
X45896110Y-28506279D01*
X45910008Y-28522319D01*
X46011752Y-28662358D01*
X46011756Y-28662363D01*
X46167636Y-28818243D01*
X46167641Y-28818247D01*
X46236921Y-28868581D01*
X46345978Y-28947815D01*
X46441562Y-28996518D01*
X46542393Y-29047895D01*
X46542396Y-29047896D01*
X46624243Y-29074489D01*
X46752049Y-29116015D01*
X46969778Y-29150500D01*
X46969779Y-29150500D01*
X47190221Y-29150500D01*
X47190222Y-29150500D01*
X47407951Y-29116015D01*
X47617606Y-29047895D01*
X47814022Y-28947815D01*
X47893904Y-28889778D01*
X53599500Y-28889778D01*
X53599500Y-29110222D01*
X53616742Y-29219086D01*
X53633985Y-29327952D01*
X53702103Y-29537603D01*
X53702104Y-29537606D01*
X53802187Y-29734025D01*
X53931752Y-29912358D01*
X53931756Y-29912363D01*
X54087636Y-30068243D01*
X54087641Y-30068247D01*
X54189606Y-30142328D01*
X54265978Y-30197815D01*
X54394375Y-30263237D01*
X54462393Y-30297895D01*
X54462396Y-30297896D01*
X54567221Y-30331955D01*
X54672049Y-30366015D01*
X54889778Y-30400500D01*
X54889779Y-30400500D01*
X55110221Y-30400500D01*
X55110222Y-30400500D01*
X55327951Y-30366015D01*
X55537606Y-30297895D01*
X55734022Y-30197815D01*
X55912365Y-30068242D01*
X55962536Y-30018070D01*
X56023857Y-29984586D01*
X56093548Y-29989570D01*
X56149482Y-30031441D01*
X56166398Y-30062419D01*
X56196202Y-30142328D01*
X56196206Y-30142335D01*
X56282452Y-30257544D01*
X56282455Y-30257547D01*
X56397664Y-30343793D01*
X56397671Y-30343797D01*
X56532517Y-30394091D01*
X56532516Y-30394091D01*
X56539444Y-30394835D01*
X56592127Y-30400500D01*
X58487872Y-30400499D01*
X58547483Y-30394091D01*
X58682331Y-30343796D01*
X58797546Y-30257546D01*
X58883796Y-30142331D01*
X58934091Y-30007483D01*
X58940500Y-29947873D01*
X58940499Y-28052128D01*
X58934091Y-27992517D01*
X58915442Y-27942517D01*
X58883797Y-27857671D01*
X58883793Y-27857664D01*
X58797547Y-27742455D01*
X58797544Y-27742452D01*
X58682335Y-27656206D01*
X58682328Y-27656202D01*
X58547482Y-27605908D01*
X58547483Y-27605908D01*
X58487883Y-27599501D01*
X58487881Y-27599500D01*
X58487873Y-27599500D01*
X58487864Y-27599500D01*
X56592129Y-27599500D01*
X56592123Y-27599501D01*
X56532516Y-27605908D01*
X56397671Y-27656202D01*
X56397664Y-27656206D01*
X56282455Y-27742452D01*
X56282452Y-27742455D01*
X56196206Y-27857664D01*
X56196203Y-27857669D01*
X56166398Y-27937581D01*
X56124526Y-27993514D01*
X56059062Y-28017931D01*
X55990789Y-28003079D01*
X55962535Y-27981928D01*
X55912363Y-27931756D01*
X55912358Y-27931752D01*
X55734025Y-27802187D01*
X55734024Y-27802186D01*
X55734022Y-27802185D01*
X55671096Y-27770122D01*
X55537606Y-27702104D01*
X55537603Y-27702103D01*
X55327952Y-27633985D01*
X55219086Y-27616742D01*
X55110222Y-27599500D01*
X54889778Y-27599500D01*
X54817201Y-27610995D01*
X54672047Y-27633985D01*
X54462396Y-27702103D01*
X54462393Y-27702104D01*
X54265974Y-27802187D01*
X54087641Y-27931752D01*
X54087636Y-27931756D01*
X53931756Y-28087636D01*
X53931752Y-28087641D01*
X53802187Y-28265974D01*
X53702104Y-28462393D01*
X53702103Y-28462396D01*
X53633985Y-28672047D01*
X53618075Y-28772498D01*
X53599500Y-28889778D01*
X47893904Y-28889778D01*
X47992365Y-28818242D01*
X48148242Y-28662365D01*
X48277815Y-28484022D01*
X48377895Y-28287606D01*
X48446015Y-28077951D01*
X48480500Y-27860222D01*
X48480500Y-27639778D01*
X48446015Y-27422049D01*
X48411955Y-27317221D01*
X48377896Y-27212396D01*
X48377895Y-27212393D01*
X48319822Y-27098421D01*
X48277815Y-27015978D01*
X48227962Y-26947361D01*
X48148247Y-26837641D01*
X48148243Y-26837636D01*
X47992363Y-26681756D01*
X47992358Y-26681752D01*
X47814025Y-26552187D01*
X47814024Y-26552186D01*
X47814022Y-26552185D01*
X47725990Y-26507330D01*
X47617606Y-26452104D01*
X47617603Y-26452103D01*
X47407952Y-26383985D01*
X47256535Y-26360003D01*
X47190222Y-26349500D01*
X46969778Y-26349500D01*
X46903465Y-26360003D01*
X46752047Y-26383985D01*
X46542396Y-26452103D01*
X46542393Y-26452104D01*
X46345974Y-26552187D01*
X46167641Y-26681752D01*
X46167636Y-26681756D01*
X46011756Y-26837636D01*
X45910008Y-26977681D01*
X45854678Y-27020346D01*
X45785065Y-27026325D01*
X45723270Y-26993719D01*
X45709371Y-26977680D01*
X45691066Y-26952485D01*
X45691065Y-26952485D01*
X44982137Y-27661413D01*
X44959333Y-27576306D01*
X44900090Y-27473694D01*
X44816306Y-27389910D01*
X44713694Y-27330667D01*
X44628583Y-27307861D01*
X45337513Y-26598932D01*
X45273756Y-26552611D01*
X45077410Y-26452567D01*
X44867835Y-26384473D01*
X44650181Y-26350000D01*
X44429819Y-26350000D01*
X44212164Y-26384473D01*
X44002589Y-26452567D01*
X43806233Y-26552616D01*
X43742485Y-26598931D01*
X43742485Y-26598932D01*
X44451414Y-27307861D01*
X44366306Y-27330667D01*
X44263694Y-27389910D01*
X44179910Y-27473694D01*
X44120667Y-27576306D01*
X44097861Y-27661414D01*
X43413843Y-26977396D01*
X43383818Y-26928718D01*
X43334797Y-26780780D01*
X43334793Y-26780774D01*
X43334792Y-26780771D01*
X43291935Y-26711290D01*
X43242670Y-26631419D01*
X43118581Y-26507330D01*
X42983085Y-26423755D01*
X42969222Y-26415204D01*
X42969217Y-26415202D01*
X42802638Y-26360003D01*
X42699833Y-26349500D01*
X42699826Y-26349500D01*
X41300174Y-26349500D01*
X41300166Y-26349500D01*
X41197361Y-26360003D01*
X41030782Y-26415202D01*
X41030777Y-26415204D01*
X40881417Y-26507331D01*
X40757331Y-26631417D01*
X40665204Y-26780777D01*
X40665202Y-26780782D01*
X40610003Y-26947361D01*
X40599500Y-27050166D01*
X33947191Y-27050166D01*
X34100826Y-26755039D01*
X34106217Y-26745700D01*
X34311325Y-26423744D01*
X34317515Y-26414905D01*
X34549896Y-26112060D01*
X34556834Y-26103791D01*
X34814726Y-25822352D01*
X34822352Y-25814726D01*
X35103791Y-25556834D01*
X35112060Y-25549896D01*
X35414908Y-25317513D01*
X35423744Y-25311325D01*
X35745703Y-25106216D01*
X35755045Y-25100822D01*
X36093638Y-24924561D01*
X36103412Y-24920003D01*
X36456095Y-24773917D01*
X36466227Y-24770230D01*
X36830295Y-24655440D01*
X36840709Y-24652649D01*
X37213405Y-24570025D01*
X37224025Y-24568152D01*
X37602495Y-24518326D01*
X37613226Y-24517386D01*
X37997297Y-24500617D01*
X38002706Y-24500500D01*
X38065892Y-24500500D01*
X104648573Y-24500500D01*
X104648577Y-24500501D01*
G37*
%TD.AperFunction*%
%TD*%
M02*
