%TF.GenerationSoftware,KiCad,Pcbnew,9.0.6*%
%TF.CreationDate,2026-02-08T08:52:06-08:00*%
%TF.ProjectId,flopper_one,666c6f70-7065-4725-9f6f-6e652e6b6963,rev?*%
%TF.SameCoordinates,Original*%
%TF.FileFunction,Legend,Bot*%
%TF.FilePolarity,Positive*%
%FSLAX46Y46*%
G04 Gerber Fmt 4.6, Leading zero omitted, Abs format (unit mm)*
G04 Created by KiCad (PCBNEW 9.0.6) date 2026-02-08 08:52:06*
%MOMM*%
%LPD*%
G01*
G04 APERTURE LIST*
%ADD10C,0.200000*%
%ADD11C,0.100000*%
%ADD12C,0.300000*%
%ADD13C,0.125000*%
%ADD14C,0.150000*%
%ADD15C,0.120000*%
G04 APERTURE END LIST*
D10*
X143950000Y-81000000D02*
X186950000Y-81000000D01*
X186950000Y-122000000D01*
X143950000Y-122000000D01*
X143950000Y-81000000D01*
D11*
X189000000Y-61000000D02*
X218750000Y-61000000D01*
X218750000Y-101000000D01*
X189000000Y-101000000D01*
X189000000Y-61000000D01*
X160600877Y-66850276D02*
X160600877Y-67183609D01*
X160719925Y-66659800D02*
X160838972Y-67016942D01*
X160838972Y-67016942D02*
X160529449Y-67016942D01*
X160386592Y-66683609D02*
X160053259Y-66683609D01*
X160053259Y-66683609D02*
X160267544Y-67183609D01*
X159862783Y-66993133D02*
X159481831Y-66993133D01*
X158981830Y-67183609D02*
X159267544Y-67183609D01*
X159124687Y-67183609D02*
X159124687Y-66683609D01*
X159124687Y-66683609D02*
X159172306Y-66755038D01*
X159172306Y-66755038D02*
X159219925Y-66802657D01*
X159219925Y-66802657D02*
X159267544Y-66826466D01*
X158672307Y-66683609D02*
X158624688Y-66683609D01*
X158624688Y-66683609D02*
X158577069Y-66707419D01*
X158577069Y-66707419D02*
X158553259Y-66731228D01*
X158553259Y-66731228D02*
X158529450Y-66778847D01*
X158529450Y-66778847D02*
X158505640Y-66874085D01*
X158505640Y-66874085D02*
X158505640Y-66993133D01*
X158505640Y-66993133D02*
X158529450Y-67088371D01*
X158529450Y-67088371D02*
X158553259Y-67135990D01*
X158553259Y-67135990D02*
X158577069Y-67159800D01*
X158577069Y-67159800D02*
X158624688Y-67183609D01*
X158624688Y-67183609D02*
X158672307Y-67183609D01*
X158672307Y-67183609D02*
X158719926Y-67159800D01*
X158719926Y-67159800D02*
X158743735Y-67135990D01*
X158743735Y-67135990D02*
X158767545Y-67088371D01*
X158767545Y-67088371D02*
X158791354Y-66993133D01*
X158791354Y-66993133D02*
X158791354Y-66874085D01*
X158791354Y-66874085D02*
X158767545Y-66778847D01*
X158767545Y-66778847D02*
X158743735Y-66731228D01*
X158743735Y-66731228D02*
X158719926Y-66707419D01*
X158719926Y-66707419D02*
X158672307Y-66683609D01*
X158196117Y-66683609D02*
X158148498Y-66683609D01*
X158148498Y-66683609D02*
X158100879Y-66707419D01*
X158100879Y-66707419D02*
X158077069Y-66731228D01*
X158077069Y-66731228D02*
X158053260Y-66778847D01*
X158053260Y-66778847D02*
X158029450Y-66874085D01*
X158029450Y-66874085D02*
X158029450Y-66993133D01*
X158029450Y-66993133D02*
X158053260Y-67088371D01*
X158053260Y-67088371D02*
X158077069Y-67135990D01*
X158077069Y-67135990D02*
X158100879Y-67159800D01*
X158100879Y-67159800D02*
X158148498Y-67183609D01*
X158148498Y-67183609D02*
X158196117Y-67183609D01*
X158196117Y-67183609D02*
X158243736Y-67159800D01*
X158243736Y-67159800D02*
X158267545Y-67135990D01*
X158267545Y-67135990D02*
X158291355Y-67088371D01*
X158291355Y-67088371D02*
X158315164Y-66993133D01*
X158315164Y-66993133D02*
X158315164Y-66874085D01*
X158315164Y-66874085D02*
X158291355Y-66778847D01*
X158291355Y-66778847D02*
X158267545Y-66731228D01*
X158267545Y-66731228D02*
X158243736Y-66707419D01*
X158243736Y-66707419D02*
X158196117Y-66683609D01*
X157838974Y-67183609D02*
X157719927Y-67183609D01*
X157719927Y-67183609D02*
X157719927Y-67088371D01*
X157719927Y-67088371D02*
X157767546Y-67064561D01*
X157767546Y-67064561D02*
X157815165Y-67016942D01*
X157815165Y-67016942D02*
X157838974Y-66945514D01*
X157838974Y-66945514D02*
X157838974Y-66826466D01*
X157838974Y-66826466D02*
X157815165Y-66755038D01*
X157815165Y-66755038D02*
X157767546Y-66707419D01*
X157767546Y-66707419D02*
X157696117Y-66683609D01*
X157696117Y-66683609D02*
X157600879Y-66683609D01*
X157600879Y-66683609D02*
X157529451Y-66707419D01*
X157529451Y-66707419D02*
X157481832Y-66755038D01*
X157481832Y-66755038D02*
X157458022Y-66826466D01*
X157458022Y-66826466D02*
X157458022Y-66945514D01*
X157458022Y-66945514D02*
X157481832Y-67016942D01*
X157481832Y-67016942D02*
X157529451Y-67064561D01*
X157529451Y-67064561D02*
X157577070Y-67088371D01*
X157577070Y-67088371D02*
X157577070Y-67183609D01*
X157577070Y-67183609D02*
X157458022Y-67183609D01*
X189433609Y-101053258D02*
X189433609Y-101338972D01*
X189433609Y-101196115D02*
X188933609Y-101196115D01*
X188933609Y-101196115D02*
X189005038Y-101243734D01*
X189005038Y-101243734D02*
X189052657Y-101291353D01*
X189052657Y-101291353D02*
X189076466Y-101338972D01*
X188933609Y-100743735D02*
X188933609Y-100696116D01*
X188933609Y-100696116D02*
X188957419Y-100648497D01*
X188957419Y-100648497D02*
X188981228Y-100624687D01*
X188981228Y-100624687D02*
X189028847Y-100600878D01*
X189028847Y-100600878D02*
X189124085Y-100577068D01*
X189124085Y-100577068D02*
X189243133Y-100577068D01*
X189243133Y-100577068D02*
X189338371Y-100600878D01*
X189338371Y-100600878D02*
X189385990Y-100624687D01*
X189385990Y-100624687D02*
X189409800Y-100648497D01*
X189409800Y-100648497D02*
X189433609Y-100696116D01*
X189433609Y-100696116D02*
X189433609Y-100743735D01*
X189433609Y-100743735D02*
X189409800Y-100791354D01*
X189409800Y-100791354D02*
X189385990Y-100815163D01*
X189385990Y-100815163D02*
X189338371Y-100838973D01*
X189338371Y-100838973D02*
X189243133Y-100862782D01*
X189243133Y-100862782D02*
X189124085Y-100862782D01*
X189124085Y-100862782D02*
X189028847Y-100838973D01*
X189028847Y-100838973D02*
X188981228Y-100815163D01*
X188981228Y-100815163D02*
X188957419Y-100791354D01*
X188957419Y-100791354D02*
X188933609Y-100743735D01*
X189100276Y-100148497D02*
X189433609Y-100148497D01*
X189100276Y-100362783D02*
X189362180Y-100362783D01*
X189362180Y-100362783D02*
X189409800Y-100338973D01*
X189409800Y-100338973D02*
X189433609Y-100291354D01*
X189433609Y-100291354D02*
X189433609Y-100219926D01*
X189433609Y-100219926D02*
X189409800Y-100172307D01*
X189409800Y-100172307D02*
X189385990Y-100148497D01*
X189100276Y-99981830D02*
X189100276Y-99791354D01*
X189433609Y-99910402D02*
X189005038Y-99910402D01*
X189005038Y-99910402D02*
X188957419Y-99886592D01*
X188957419Y-99886592D02*
X188933609Y-99838973D01*
X188933609Y-99838973D02*
X188933609Y-99791354D01*
D12*
X166445489Y-98800828D02*
X166445489Y-97300828D01*
X166445489Y-97300828D02*
X165874060Y-97300828D01*
X165874060Y-97300828D02*
X165731203Y-97372257D01*
X165731203Y-97372257D02*
X165659774Y-97443685D01*
X165659774Y-97443685D02*
X165588346Y-97586542D01*
X165588346Y-97586542D02*
X165588346Y-97800828D01*
X165588346Y-97800828D02*
X165659774Y-97943685D01*
X165659774Y-97943685D02*
X165731203Y-98015114D01*
X165731203Y-98015114D02*
X165874060Y-98086542D01*
X165874060Y-98086542D02*
X166445489Y-98086542D01*
X164945489Y-98800828D02*
X164945489Y-97300828D01*
X164945489Y-97300828D02*
X164088346Y-98800828D01*
X164088346Y-98800828D02*
X164088346Y-97300828D01*
X162659774Y-97300828D02*
X163374060Y-97300828D01*
X163374060Y-97300828D02*
X163445488Y-98015114D01*
X163445488Y-98015114D02*
X163374060Y-97943685D01*
X163374060Y-97943685D02*
X163231203Y-97872257D01*
X163231203Y-97872257D02*
X162874060Y-97872257D01*
X162874060Y-97872257D02*
X162731203Y-97943685D01*
X162731203Y-97943685D02*
X162659774Y-98015114D01*
X162659774Y-98015114D02*
X162588345Y-98157971D01*
X162588345Y-98157971D02*
X162588345Y-98515114D01*
X162588345Y-98515114D02*
X162659774Y-98657971D01*
X162659774Y-98657971D02*
X162731203Y-98729400D01*
X162731203Y-98729400D02*
X162874060Y-98800828D01*
X162874060Y-98800828D02*
X163231203Y-98800828D01*
X163231203Y-98800828D02*
X163374060Y-98729400D01*
X163374060Y-98729400D02*
X163445488Y-98657971D01*
X162088346Y-97300828D02*
X161159774Y-97300828D01*
X161159774Y-97300828D02*
X161659774Y-97872257D01*
X161659774Y-97872257D02*
X161445489Y-97872257D01*
X161445489Y-97872257D02*
X161302632Y-97943685D01*
X161302632Y-97943685D02*
X161231203Y-98015114D01*
X161231203Y-98015114D02*
X161159774Y-98157971D01*
X161159774Y-98157971D02*
X161159774Y-98515114D01*
X161159774Y-98515114D02*
X161231203Y-98657971D01*
X161231203Y-98657971D02*
X161302632Y-98729400D01*
X161302632Y-98729400D02*
X161445489Y-98800828D01*
X161445489Y-98800828D02*
X161874060Y-98800828D01*
X161874060Y-98800828D02*
X162016917Y-98729400D01*
X162016917Y-98729400D02*
X162088346Y-98657971D01*
X160588346Y-97443685D02*
X160516918Y-97372257D01*
X160516918Y-97372257D02*
X160374061Y-97300828D01*
X160374061Y-97300828D02*
X160016918Y-97300828D01*
X160016918Y-97300828D02*
X159874061Y-97372257D01*
X159874061Y-97372257D02*
X159802632Y-97443685D01*
X159802632Y-97443685D02*
X159731203Y-97586542D01*
X159731203Y-97586542D02*
X159731203Y-97729400D01*
X159731203Y-97729400D02*
X159802632Y-97943685D01*
X159802632Y-97943685D02*
X160659775Y-98800828D01*
X160659775Y-98800828D02*
X159731203Y-98800828D01*
X157945490Y-98800828D02*
X157945490Y-97300828D01*
X157945490Y-98015114D02*
X157088347Y-98015114D01*
X157088347Y-98800828D02*
X157088347Y-97300828D01*
X156374061Y-98015114D02*
X155874061Y-98015114D01*
X155659775Y-98800828D02*
X156374061Y-98800828D01*
X156374061Y-98800828D02*
X156374061Y-97300828D01*
X156374061Y-97300828D02*
X155659775Y-97300828D01*
X154159775Y-98800828D02*
X154659775Y-98086542D01*
X155016918Y-98800828D02*
X155016918Y-97300828D01*
X155016918Y-97300828D02*
X154445489Y-97300828D01*
X154445489Y-97300828D02*
X154302632Y-97372257D01*
X154302632Y-97372257D02*
X154231203Y-97443685D01*
X154231203Y-97443685D02*
X154159775Y-97586542D01*
X154159775Y-97586542D02*
X154159775Y-97800828D01*
X154159775Y-97800828D02*
X154231203Y-97943685D01*
X154231203Y-97943685D02*
X154302632Y-98015114D01*
X154302632Y-98015114D02*
X154445489Y-98086542D01*
X154445489Y-98086542D02*
X155016918Y-98086542D01*
X153516918Y-98015114D02*
X153016918Y-98015114D01*
X152802632Y-98800828D02*
X153516918Y-98800828D01*
X153516918Y-98800828D02*
X153516918Y-97300828D01*
X153516918Y-97300828D02*
X152802632Y-97300828D01*
D11*
X160303258Y-70933609D02*
X160588972Y-70933609D01*
X160446115Y-70933609D02*
X160446115Y-70433609D01*
X160446115Y-70433609D02*
X160493734Y-70505038D01*
X160493734Y-70505038D02*
X160541353Y-70552657D01*
X160541353Y-70552657D02*
X160588972Y-70576466D01*
X160088973Y-70933609D02*
X160088973Y-70433609D01*
X160041354Y-70743133D02*
X159898497Y-70933609D01*
X159898497Y-70600276D02*
X160088973Y-70790752D01*
X159708020Y-70933609D02*
X159588973Y-70933609D01*
X159588973Y-70933609D02*
X159588973Y-70838371D01*
X159588973Y-70838371D02*
X159636592Y-70814561D01*
X159636592Y-70814561D02*
X159684211Y-70766942D01*
X159684211Y-70766942D02*
X159708020Y-70695514D01*
X159708020Y-70695514D02*
X159708020Y-70576466D01*
X159708020Y-70576466D02*
X159684211Y-70505038D01*
X159684211Y-70505038D02*
X159636592Y-70457419D01*
X159636592Y-70457419D02*
X159565163Y-70433609D01*
X159565163Y-70433609D02*
X159469925Y-70433609D01*
X159469925Y-70433609D02*
X159398497Y-70457419D01*
X159398497Y-70457419D02*
X159350878Y-70505038D01*
X159350878Y-70505038D02*
X159327068Y-70576466D01*
X159327068Y-70576466D02*
X159327068Y-70695514D01*
X159327068Y-70695514D02*
X159350878Y-70766942D01*
X159350878Y-70766942D02*
X159398497Y-70814561D01*
X159398497Y-70814561D02*
X159446116Y-70838371D01*
X159446116Y-70838371D02*
X159446116Y-70933609D01*
X159446116Y-70933609D02*
X159327068Y-70933609D01*
D13*
X192347309Y-86596335D02*
X192394928Y-86453478D01*
X192394928Y-86453478D02*
X192442547Y-86405859D01*
X192442547Y-86405859D02*
X192537785Y-86358240D01*
X192537785Y-86358240D02*
X192680642Y-86358240D01*
X192680642Y-86358240D02*
X192775880Y-86405859D01*
X192775880Y-86405859D02*
X192823500Y-86453478D01*
X192823500Y-86453478D02*
X192871119Y-86548716D01*
X192871119Y-86548716D02*
X192871119Y-86929668D01*
X192871119Y-86929668D02*
X191871119Y-86929668D01*
X191871119Y-86929668D02*
X191871119Y-86596335D01*
X191871119Y-86596335D02*
X191918738Y-86501097D01*
X191918738Y-86501097D02*
X191966357Y-86453478D01*
X191966357Y-86453478D02*
X192061595Y-86405859D01*
X192061595Y-86405859D02*
X192156833Y-86405859D01*
X192156833Y-86405859D02*
X192252071Y-86453478D01*
X192252071Y-86453478D02*
X192299690Y-86501097D01*
X192299690Y-86501097D02*
X192347309Y-86596335D01*
X192347309Y-86596335D02*
X192347309Y-86929668D01*
X192585404Y-85977287D02*
X192585404Y-85501097D01*
X192871119Y-86072525D02*
X191871119Y-85739192D01*
X191871119Y-85739192D02*
X192871119Y-85405859D01*
X191871119Y-85215382D02*
X191871119Y-84643954D01*
X192871119Y-84929668D02*
X191871119Y-84929668D01*
X192490166Y-84310620D02*
X192490166Y-83548716D01*
X192871119Y-83929668D02*
X192109214Y-83929668D01*
X203597309Y-84346335D02*
X203644928Y-84203478D01*
X203644928Y-84203478D02*
X203692547Y-84155859D01*
X203692547Y-84155859D02*
X203787785Y-84108240D01*
X203787785Y-84108240D02*
X203930642Y-84108240D01*
X203930642Y-84108240D02*
X204025880Y-84155859D01*
X204025880Y-84155859D02*
X204073500Y-84203478D01*
X204073500Y-84203478D02*
X204121119Y-84298716D01*
X204121119Y-84298716D02*
X204121119Y-84679668D01*
X204121119Y-84679668D02*
X203121119Y-84679668D01*
X203121119Y-84679668D02*
X203121119Y-84346335D01*
X203121119Y-84346335D02*
X203168738Y-84251097D01*
X203168738Y-84251097D02*
X203216357Y-84203478D01*
X203216357Y-84203478D02*
X203311595Y-84155859D01*
X203311595Y-84155859D02*
X203406833Y-84155859D01*
X203406833Y-84155859D02*
X203502071Y-84203478D01*
X203502071Y-84203478D02*
X203549690Y-84251097D01*
X203549690Y-84251097D02*
X203597309Y-84346335D01*
X203597309Y-84346335D02*
X203597309Y-84679668D01*
X203835404Y-83727287D02*
X203835404Y-83251097D01*
X204121119Y-83822525D02*
X203121119Y-83489192D01*
X203121119Y-83489192D02*
X204121119Y-83155859D01*
X203121119Y-82965382D02*
X203121119Y-82393954D01*
X204121119Y-82679668D02*
X203121119Y-82679668D01*
X203740166Y-82060620D02*
X203740166Y-81298716D01*
D11*
X204053258Y-101183609D02*
X204338972Y-101183609D01*
X204196115Y-101183609D02*
X204196115Y-100683609D01*
X204196115Y-100683609D02*
X204243734Y-100755038D01*
X204243734Y-100755038D02*
X204291353Y-100802657D01*
X204291353Y-100802657D02*
X204338972Y-100826466D01*
X203838973Y-101135990D02*
X203815163Y-101159800D01*
X203815163Y-101159800D02*
X203838973Y-101183609D01*
X203838973Y-101183609D02*
X203862782Y-101159800D01*
X203862782Y-101159800D02*
X203838973Y-101135990D01*
X203838973Y-101135990D02*
X203838973Y-101183609D01*
X203624687Y-100731228D02*
X203600878Y-100707419D01*
X203600878Y-100707419D02*
X203553259Y-100683609D01*
X203553259Y-100683609D02*
X203434211Y-100683609D01*
X203434211Y-100683609D02*
X203386592Y-100707419D01*
X203386592Y-100707419D02*
X203362783Y-100731228D01*
X203362783Y-100731228D02*
X203338973Y-100778847D01*
X203338973Y-100778847D02*
X203338973Y-100826466D01*
X203338973Y-100826466D02*
X203362783Y-100897895D01*
X203362783Y-100897895D02*
X203648497Y-101183609D01*
X203648497Y-101183609D02*
X203338973Y-101183609D01*
X203124688Y-101183609D02*
X203124688Y-100683609D01*
X203077069Y-100993133D02*
X202934212Y-101183609D01*
X202934212Y-100850276D02*
X203124688Y-101040752D01*
X202743735Y-101183609D02*
X202624688Y-101183609D01*
X202624688Y-101183609D02*
X202624688Y-101088371D01*
X202624688Y-101088371D02*
X202672307Y-101064561D01*
X202672307Y-101064561D02*
X202719926Y-101016942D01*
X202719926Y-101016942D02*
X202743735Y-100945514D01*
X202743735Y-100945514D02*
X202743735Y-100826466D01*
X202743735Y-100826466D02*
X202719926Y-100755038D01*
X202719926Y-100755038D02*
X202672307Y-100707419D01*
X202672307Y-100707419D02*
X202600878Y-100683609D01*
X202600878Y-100683609D02*
X202505640Y-100683609D01*
X202505640Y-100683609D02*
X202434212Y-100707419D01*
X202434212Y-100707419D02*
X202386593Y-100755038D01*
X202386593Y-100755038D02*
X202362783Y-100826466D01*
X202362783Y-100826466D02*
X202362783Y-100945514D01*
X202362783Y-100945514D02*
X202386593Y-101016942D01*
X202386593Y-101016942D02*
X202434212Y-101064561D01*
X202434212Y-101064561D02*
X202481831Y-101088371D01*
X202481831Y-101088371D02*
X202481831Y-101183609D01*
X202481831Y-101183609D02*
X202362783Y-101183609D01*
D14*
X213084819Y-88773333D02*
X212608628Y-88440000D01*
X213084819Y-88201905D02*
X212084819Y-88201905D01*
X212084819Y-88201905D02*
X212084819Y-88582857D01*
X212084819Y-88582857D02*
X212132438Y-88678095D01*
X212132438Y-88678095D02*
X212180057Y-88725714D01*
X212180057Y-88725714D02*
X212275295Y-88773333D01*
X212275295Y-88773333D02*
X212418152Y-88773333D01*
X212418152Y-88773333D02*
X212513390Y-88725714D01*
X212513390Y-88725714D02*
X212561009Y-88678095D01*
X212561009Y-88678095D02*
X212608628Y-88582857D01*
X212608628Y-88582857D02*
X212608628Y-88201905D01*
X212084819Y-89678095D02*
X212084819Y-89201905D01*
X212084819Y-89201905D02*
X212561009Y-89154286D01*
X212561009Y-89154286D02*
X212513390Y-89201905D01*
X212513390Y-89201905D02*
X212465771Y-89297143D01*
X212465771Y-89297143D02*
X212465771Y-89535238D01*
X212465771Y-89535238D02*
X212513390Y-89630476D01*
X212513390Y-89630476D02*
X212561009Y-89678095D01*
X212561009Y-89678095D02*
X212656247Y-89725714D01*
X212656247Y-89725714D02*
X212894342Y-89725714D01*
X212894342Y-89725714D02*
X212989580Y-89678095D01*
X212989580Y-89678095D02*
X213037200Y-89630476D01*
X213037200Y-89630476D02*
X213084819Y-89535238D01*
X213084819Y-89535238D02*
X213084819Y-89297143D01*
X213084819Y-89297143D02*
X213037200Y-89201905D01*
X213037200Y-89201905D02*
X212989580Y-89154286D01*
X217718094Y-112494819D02*
X217718094Y-111494819D01*
X217718094Y-111494819D02*
X217479999Y-111494819D01*
X217479999Y-111494819D02*
X217337142Y-111542438D01*
X217337142Y-111542438D02*
X217241904Y-111637676D01*
X217241904Y-111637676D02*
X217194285Y-111732914D01*
X217194285Y-111732914D02*
X217146666Y-111923390D01*
X217146666Y-111923390D02*
X217146666Y-112066247D01*
X217146666Y-112066247D02*
X217194285Y-112256723D01*
X217194285Y-112256723D02*
X217241904Y-112351961D01*
X217241904Y-112351961D02*
X217337142Y-112447200D01*
X217337142Y-112447200D02*
X217479999Y-112494819D01*
X217479999Y-112494819D02*
X217718094Y-112494819D01*
X216813332Y-111494819D02*
X216194285Y-111494819D01*
X216194285Y-111494819D02*
X216527618Y-111875771D01*
X216527618Y-111875771D02*
X216384761Y-111875771D01*
X216384761Y-111875771D02*
X216289523Y-111923390D01*
X216289523Y-111923390D02*
X216241904Y-111971009D01*
X216241904Y-111971009D02*
X216194285Y-112066247D01*
X216194285Y-112066247D02*
X216194285Y-112304342D01*
X216194285Y-112304342D02*
X216241904Y-112399580D01*
X216241904Y-112399580D02*
X216289523Y-112447200D01*
X216289523Y-112447200D02*
X216384761Y-112494819D01*
X216384761Y-112494819D02*
X216670475Y-112494819D01*
X216670475Y-112494819D02*
X216765713Y-112447200D01*
X216765713Y-112447200D02*
X216813332Y-112399580D01*
X219670476Y-120414819D02*
X219670476Y-119748152D01*
X219670476Y-119938628D02*
X219622857Y-119843390D01*
X219622857Y-119843390D02*
X219575238Y-119795771D01*
X219575238Y-119795771D02*
X219480000Y-119748152D01*
X219480000Y-119748152D02*
X219384762Y-119748152D01*
X218670476Y-120367200D02*
X218765714Y-120414819D01*
X218765714Y-120414819D02*
X218956190Y-120414819D01*
X218956190Y-120414819D02*
X219051428Y-120367200D01*
X219051428Y-120367200D02*
X219099047Y-120271961D01*
X219099047Y-120271961D02*
X219099047Y-119891009D01*
X219099047Y-119891009D02*
X219051428Y-119795771D01*
X219051428Y-119795771D02*
X218956190Y-119748152D01*
X218956190Y-119748152D02*
X218765714Y-119748152D01*
X218765714Y-119748152D02*
X218670476Y-119795771D01*
X218670476Y-119795771D02*
X218622857Y-119891009D01*
X218622857Y-119891009D02*
X218622857Y-119986247D01*
X218622857Y-119986247D02*
X219099047Y-120081485D01*
X217765714Y-120414819D02*
X217765714Y-119414819D01*
X217765714Y-120367200D02*
X217860952Y-120414819D01*
X217860952Y-120414819D02*
X218051428Y-120414819D01*
X218051428Y-120414819D02*
X218146666Y-120367200D01*
X218146666Y-120367200D02*
X218194285Y-120319580D01*
X218194285Y-120319580D02*
X218241904Y-120224342D01*
X218241904Y-120224342D02*
X218241904Y-119938628D01*
X218241904Y-119938628D02*
X218194285Y-119843390D01*
X218194285Y-119843390D02*
X218146666Y-119795771D01*
X218146666Y-119795771D02*
X218051428Y-119748152D01*
X218051428Y-119748152D02*
X217860952Y-119748152D01*
X217860952Y-119748152D02*
X217765714Y-119795771D01*
X216051428Y-120414819D02*
X216527618Y-120414819D01*
X216527618Y-120414819D02*
X216527618Y-119414819D01*
X215718094Y-119891009D02*
X215384761Y-119891009D01*
X215241904Y-120414819D02*
X215718094Y-120414819D01*
X215718094Y-120414819D02*
X215718094Y-119414819D01*
X215718094Y-119414819D02*
X215241904Y-119414819D01*
X214813332Y-120414819D02*
X214813332Y-119414819D01*
X214813332Y-119414819D02*
X214575237Y-119414819D01*
X214575237Y-119414819D02*
X214432380Y-119462438D01*
X214432380Y-119462438D02*
X214337142Y-119557676D01*
X214337142Y-119557676D02*
X214289523Y-119652914D01*
X214289523Y-119652914D02*
X214241904Y-119843390D01*
X214241904Y-119843390D02*
X214241904Y-119986247D01*
X214241904Y-119986247D02*
X214289523Y-120176723D01*
X214289523Y-120176723D02*
X214337142Y-120271961D01*
X214337142Y-120271961D02*
X214432380Y-120367200D01*
X214432380Y-120367200D02*
X214575237Y-120414819D01*
X214575237Y-120414819D02*
X214813332Y-120414819D01*
X203104819Y-103488095D02*
X203914342Y-103488095D01*
X203914342Y-103488095D02*
X204009580Y-103535714D01*
X204009580Y-103535714D02*
X204057200Y-103583333D01*
X204057200Y-103583333D02*
X204104819Y-103678571D01*
X204104819Y-103678571D02*
X204104819Y-103869047D01*
X204104819Y-103869047D02*
X204057200Y-103964285D01*
X204057200Y-103964285D02*
X204009580Y-104011904D01*
X204009580Y-104011904D02*
X203914342Y-104059523D01*
X203914342Y-104059523D02*
X203104819Y-104059523D01*
X203438152Y-104964285D02*
X204104819Y-104964285D01*
X203057200Y-104726190D02*
X203771485Y-104488095D01*
X203771485Y-104488095D02*
X203771485Y-105107142D01*
X159106666Y-69824819D02*
X159439999Y-69348628D01*
X159678094Y-69824819D02*
X159678094Y-68824819D01*
X159678094Y-68824819D02*
X159297142Y-68824819D01*
X159297142Y-68824819D02*
X159201904Y-68872438D01*
X159201904Y-68872438D02*
X159154285Y-68920057D01*
X159154285Y-68920057D02*
X159106666Y-69015295D01*
X159106666Y-69015295D02*
X159106666Y-69158152D01*
X159106666Y-69158152D02*
X159154285Y-69253390D01*
X159154285Y-69253390D02*
X159201904Y-69301009D01*
X159201904Y-69301009D02*
X159297142Y-69348628D01*
X159297142Y-69348628D02*
X159678094Y-69348628D01*
X158154285Y-69824819D02*
X158725713Y-69824819D01*
X158439999Y-69824819D02*
X158439999Y-68824819D01*
X158439999Y-68824819D02*
X158535237Y-68967676D01*
X158535237Y-68967676D02*
X158630475Y-69062914D01*
X158630475Y-69062914D02*
X158725713Y-69110533D01*
X214334819Y-98833333D02*
X213858628Y-98500000D01*
X214334819Y-98261905D02*
X213334819Y-98261905D01*
X213334819Y-98261905D02*
X213334819Y-98642857D01*
X213334819Y-98642857D02*
X213382438Y-98738095D01*
X213382438Y-98738095D02*
X213430057Y-98785714D01*
X213430057Y-98785714D02*
X213525295Y-98833333D01*
X213525295Y-98833333D02*
X213668152Y-98833333D01*
X213668152Y-98833333D02*
X213763390Y-98785714D01*
X213763390Y-98785714D02*
X213811009Y-98738095D01*
X213811009Y-98738095D02*
X213858628Y-98642857D01*
X213858628Y-98642857D02*
X213858628Y-98261905D01*
X213334819Y-99166667D02*
X213334819Y-99785714D01*
X213334819Y-99785714D02*
X213715771Y-99452381D01*
X213715771Y-99452381D02*
X213715771Y-99595238D01*
X213715771Y-99595238D02*
X213763390Y-99690476D01*
X213763390Y-99690476D02*
X213811009Y-99738095D01*
X213811009Y-99738095D02*
X213906247Y-99785714D01*
X213906247Y-99785714D02*
X214144342Y-99785714D01*
X214144342Y-99785714D02*
X214239580Y-99738095D01*
X214239580Y-99738095D02*
X214287200Y-99690476D01*
X214287200Y-99690476D02*
X214334819Y-99595238D01*
X214334819Y-99595238D02*
X214334819Y-99309524D01*
X214334819Y-99309524D02*
X214287200Y-99214286D01*
X214287200Y-99214286D02*
X214239580Y-99166667D01*
X216334819Y-88773333D02*
X215858628Y-88440000D01*
X216334819Y-88201905D02*
X215334819Y-88201905D01*
X215334819Y-88201905D02*
X215334819Y-88582857D01*
X215334819Y-88582857D02*
X215382438Y-88678095D01*
X215382438Y-88678095D02*
X215430057Y-88725714D01*
X215430057Y-88725714D02*
X215525295Y-88773333D01*
X215525295Y-88773333D02*
X215668152Y-88773333D01*
X215668152Y-88773333D02*
X215763390Y-88725714D01*
X215763390Y-88725714D02*
X215811009Y-88678095D01*
X215811009Y-88678095D02*
X215858628Y-88582857D01*
X215858628Y-88582857D02*
X215858628Y-88201905D01*
X215668152Y-89630476D02*
X216334819Y-89630476D01*
X215287200Y-89392381D02*
X216001485Y-89154286D01*
X216001485Y-89154286D02*
X216001485Y-89773333D01*
X156642856Y-65604819D02*
X156642856Y-66414342D01*
X156642856Y-66414342D02*
X156595237Y-66509580D01*
X156595237Y-66509580D02*
X156547618Y-66557200D01*
X156547618Y-66557200D02*
X156452380Y-66604819D01*
X156452380Y-66604819D02*
X156261904Y-66604819D01*
X156261904Y-66604819D02*
X156166666Y-66557200D01*
X156166666Y-66557200D02*
X156119047Y-66509580D01*
X156119047Y-66509580D02*
X156071428Y-66414342D01*
X156071428Y-66414342D02*
X156071428Y-65604819D01*
X155833333Y-66700057D02*
X155071428Y-66700057D01*
X154880951Y-65700057D02*
X154833332Y-65652438D01*
X154833332Y-65652438D02*
X154738094Y-65604819D01*
X154738094Y-65604819D02*
X154499999Y-65604819D01*
X154499999Y-65604819D02*
X154404761Y-65652438D01*
X154404761Y-65652438D02*
X154357142Y-65700057D01*
X154357142Y-65700057D02*
X154309523Y-65795295D01*
X154309523Y-65795295D02*
X154309523Y-65890533D01*
X154309523Y-65890533D02*
X154357142Y-66033390D01*
X154357142Y-66033390D02*
X154928570Y-66604819D01*
X154928570Y-66604819D02*
X154309523Y-66604819D01*
X160356666Y-69084819D02*
X160689999Y-68608628D01*
X160928094Y-69084819D02*
X160928094Y-68084819D01*
X160928094Y-68084819D02*
X160547142Y-68084819D01*
X160547142Y-68084819D02*
X160451904Y-68132438D01*
X160451904Y-68132438D02*
X160404285Y-68180057D01*
X160404285Y-68180057D02*
X160356666Y-68275295D01*
X160356666Y-68275295D02*
X160356666Y-68418152D01*
X160356666Y-68418152D02*
X160404285Y-68513390D01*
X160404285Y-68513390D02*
X160451904Y-68561009D01*
X160451904Y-68561009D02*
X160547142Y-68608628D01*
X160547142Y-68608628D02*
X160928094Y-68608628D01*
X159975713Y-68180057D02*
X159928094Y-68132438D01*
X159928094Y-68132438D02*
X159832856Y-68084819D01*
X159832856Y-68084819D02*
X159594761Y-68084819D01*
X159594761Y-68084819D02*
X159499523Y-68132438D01*
X159499523Y-68132438D02*
X159451904Y-68180057D01*
X159451904Y-68180057D02*
X159404285Y-68275295D01*
X159404285Y-68275295D02*
X159404285Y-68370533D01*
X159404285Y-68370533D02*
X159451904Y-68513390D01*
X159451904Y-68513390D02*
X160023332Y-69084819D01*
X160023332Y-69084819D02*
X159404285Y-69084819D01*
X165200057Y-73904761D02*
X165152438Y-73809523D01*
X165152438Y-73809523D02*
X165057200Y-73714285D01*
X165057200Y-73714285D02*
X164914342Y-73571428D01*
X164914342Y-73571428D02*
X164866723Y-73476190D01*
X164866723Y-73476190D02*
X164866723Y-73380952D01*
X165104819Y-73428571D02*
X165057200Y-73333333D01*
X165057200Y-73333333D02*
X164961961Y-73238095D01*
X164961961Y-73238095D02*
X164771485Y-73190476D01*
X164771485Y-73190476D02*
X164438152Y-73190476D01*
X164438152Y-73190476D02*
X164247676Y-73238095D01*
X164247676Y-73238095D02*
X164152438Y-73333333D01*
X164152438Y-73333333D02*
X164104819Y-73428571D01*
X164104819Y-73428571D02*
X164104819Y-73619047D01*
X164104819Y-73619047D02*
X164152438Y-73714285D01*
X164152438Y-73714285D02*
X164247676Y-73809523D01*
X164247676Y-73809523D02*
X164438152Y-73857142D01*
X164438152Y-73857142D02*
X164771485Y-73857142D01*
X164771485Y-73857142D02*
X164961961Y-73809523D01*
X164961961Y-73809523D02*
X165057200Y-73714285D01*
X165057200Y-73714285D02*
X165104819Y-73619047D01*
X165104819Y-73619047D02*
X165104819Y-73428571D01*
X165104819Y-74809523D02*
X165104819Y-74238095D01*
X165104819Y-74523809D02*
X164104819Y-74523809D01*
X164104819Y-74523809D02*
X164247676Y-74428571D01*
X164247676Y-74428571D02*
X164342914Y-74333333D01*
X164342914Y-74333333D02*
X164390533Y-74238095D01*
X168008094Y-61494819D02*
X168008094Y-60494819D01*
X168008094Y-60494819D02*
X167769999Y-60494819D01*
X167769999Y-60494819D02*
X167627142Y-60542438D01*
X167627142Y-60542438D02*
X167531904Y-60637676D01*
X167531904Y-60637676D02*
X167484285Y-60732914D01*
X167484285Y-60732914D02*
X167436666Y-60923390D01*
X167436666Y-60923390D02*
X167436666Y-61066247D01*
X167436666Y-61066247D02*
X167484285Y-61256723D01*
X167484285Y-61256723D02*
X167531904Y-61351961D01*
X167531904Y-61351961D02*
X167627142Y-61447200D01*
X167627142Y-61447200D02*
X167769999Y-61494819D01*
X167769999Y-61494819D02*
X168008094Y-61494819D01*
X166484285Y-61494819D02*
X167055713Y-61494819D01*
X166769999Y-61494819D02*
X166769999Y-60494819D01*
X166769999Y-60494819D02*
X166865237Y-60637676D01*
X166865237Y-60637676D02*
X166960475Y-60732914D01*
X166960475Y-60732914D02*
X167055713Y-60780533D01*
X185333333Y-95074819D02*
X185333333Y-95789104D01*
X185333333Y-95789104D02*
X185380952Y-95931961D01*
X185380952Y-95931961D02*
X185476190Y-96027200D01*
X185476190Y-96027200D02*
X185619047Y-96074819D01*
X185619047Y-96074819D02*
X185714285Y-96074819D01*
X184333333Y-96074819D02*
X184904761Y-96074819D01*
X184619047Y-96074819D02*
X184619047Y-95074819D01*
X184619047Y-95074819D02*
X184714285Y-95217676D01*
X184714285Y-95217676D02*
X184809523Y-95312914D01*
X184809523Y-95312914D02*
X184904761Y-95360533D01*
X217468094Y-105244819D02*
X217468094Y-104244819D01*
X217468094Y-104244819D02*
X217229999Y-104244819D01*
X217229999Y-104244819D02*
X217087142Y-104292438D01*
X217087142Y-104292438D02*
X216991904Y-104387676D01*
X216991904Y-104387676D02*
X216944285Y-104482914D01*
X216944285Y-104482914D02*
X216896666Y-104673390D01*
X216896666Y-104673390D02*
X216896666Y-104816247D01*
X216896666Y-104816247D02*
X216944285Y-105006723D01*
X216944285Y-105006723D02*
X216991904Y-105101961D01*
X216991904Y-105101961D02*
X217087142Y-105197200D01*
X217087142Y-105197200D02*
X217229999Y-105244819D01*
X217229999Y-105244819D02*
X217468094Y-105244819D01*
X216515713Y-104340057D02*
X216468094Y-104292438D01*
X216468094Y-104292438D02*
X216372856Y-104244819D01*
X216372856Y-104244819D02*
X216134761Y-104244819D01*
X216134761Y-104244819D02*
X216039523Y-104292438D01*
X216039523Y-104292438D02*
X215991904Y-104340057D01*
X215991904Y-104340057D02*
X215944285Y-104435295D01*
X215944285Y-104435295D02*
X215944285Y-104530533D01*
X215944285Y-104530533D02*
X215991904Y-104673390D01*
X215991904Y-104673390D02*
X216563332Y-105244819D01*
X216563332Y-105244819D02*
X215944285Y-105244819D01*
X219872857Y-112498152D02*
X219872857Y-113307676D01*
X219872857Y-113307676D02*
X219920476Y-113402914D01*
X219920476Y-113402914D02*
X219968095Y-113450533D01*
X219968095Y-113450533D02*
X220063333Y-113498152D01*
X220063333Y-113498152D02*
X220206190Y-113498152D01*
X220206190Y-113498152D02*
X220301428Y-113450533D01*
X219872857Y-113117200D02*
X219968095Y-113164819D01*
X219968095Y-113164819D02*
X220158571Y-113164819D01*
X220158571Y-113164819D02*
X220253809Y-113117200D01*
X220253809Y-113117200D02*
X220301428Y-113069580D01*
X220301428Y-113069580D02*
X220349047Y-112974342D01*
X220349047Y-112974342D02*
X220349047Y-112688628D01*
X220349047Y-112688628D02*
X220301428Y-112593390D01*
X220301428Y-112593390D02*
X220253809Y-112545771D01*
X220253809Y-112545771D02*
X220158571Y-112498152D01*
X220158571Y-112498152D02*
X219968095Y-112498152D01*
X219968095Y-112498152D02*
X219872857Y-112545771D01*
X219396666Y-113164819D02*
X219396666Y-112498152D01*
X219396666Y-112688628D02*
X219349047Y-112593390D01*
X219349047Y-112593390D02*
X219301428Y-112545771D01*
X219301428Y-112545771D02*
X219206190Y-112498152D01*
X219206190Y-112498152D02*
X219110952Y-112498152D01*
X218396666Y-113117200D02*
X218491904Y-113164819D01*
X218491904Y-113164819D02*
X218682380Y-113164819D01*
X218682380Y-113164819D02*
X218777618Y-113117200D01*
X218777618Y-113117200D02*
X218825237Y-113021961D01*
X218825237Y-113021961D02*
X218825237Y-112641009D01*
X218825237Y-112641009D02*
X218777618Y-112545771D01*
X218777618Y-112545771D02*
X218682380Y-112498152D01*
X218682380Y-112498152D02*
X218491904Y-112498152D01*
X218491904Y-112498152D02*
X218396666Y-112545771D01*
X218396666Y-112545771D02*
X218349047Y-112641009D01*
X218349047Y-112641009D02*
X218349047Y-112736247D01*
X218349047Y-112736247D02*
X218825237Y-112831485D01*
X217539523Y-113117200D02*
X217634761Y-113164819D01*
X217634761Y-113164819D02*
X217825237Y-113164819D01*
X217825237Y-113164819D02*
X217920475Y-113117200D01*
X217920475Y-113117200D02*
X217968094Y-113021961D01*
X217968094Y-113021961D02*
X217968094Y-112641009D01*
X217968094Y-112641009D02*
X217920475Y-112545771D01*
X217920475Y-112545771D02*
X217825237Y-112498152D01*
X217825237Y-112498152D02*
X217634761Y-112498152D01*
X217634761Y-112498152D02*
X217539523Y-112545771D01*
X217539523Y-112545771D02*
X217491904Y-112641009D01*
X217491904Y-112641009D02*
X217491904Y-112736247D01*
X217491904Y-112736247D02*
X217968094Y-112831485D01*
X217063332Y-112498152D02*
X217063332Y-113164819D01*
X217063332Y-112593390D02*
X217015713Y-112545771D01*
X217015713Y-112545771D02*
X216920475Y-112498152D01*
X216920475Y-112498152D02*
X216777618Y-112498152D01*
X216777618Y-112498152D02*
X216682380Y-112545771D01*
X216682380Y-112545771D02*
X216634761Y-112641009D01*
X216634761Y-112641009D02*
X216634761Y-113164819D01*
X214920475Y-113164819D02*
X215396665Y-113164819D01*
X215396665Y-113164819D02*
X215396665Y-112164819D01*
X214587141Y-112641009D02*
X214253808Y-112641009D01*
X214110951Y-113164819D02*
X214587141Y-113164819D01*
X214587141Y-113164819D02*
X214587141Y-112164819D01*
X214587141Y-112164819D02*
X214110951Y-112164819D01*
X213682379Y-113164819D02*
X213682379Y-112164819D01*
X213682379Y-112164819D02*
X213444284Y-112164819D01*
X213444284Y-112164819D02*
X213301427Y-112212438D01*
X213301427Y-112212438D02*
X213206189Y-112307676D01*
X213206189Y-112307676D02*
X213158570Y-112402914D01*
X213158570Y-112402914D02*
X213110951Y-112593390D01*
X213110951Y-112593390D02*
X213110951Y-112736247D01*
X213110951Y-112736247D02*
X213158570Y-112926723D01*
X213158570Y-112926723D02*
X213206189Y-113021961D01*
X213206189Y-113021961D02*
X213301427Y-113117200D01*
X213301427Y-113117200D02*
X213444284Y-113164819D01*
X213444284Y-113164819D02*
X213682379Y-113164819D01*
X190989580Y-98333333D02*
X191037200Y-98285714D01*
X191037200Y-98285714D02*
X191084819Y-98142857D01*
X191084819Y-98142857D02*
X191084819Y-98047619D01*
X191084819Y-98047619D02*
X191037200Y-97904762D01*
X191037200Y-97904762D02*
X190941961Y-97809524D01*
X190941961Y-97809524D02*
X190846723Y-97761905D01*
X190846723Y-97761905D02*
X190656247Y-97714286D01*
X190656247Y-97714286D02*
X190513390Y-97714286D01*
X190513390Y-97714286D02*
X190322914Y-97761905D01*
X190322914Y-97761905D02*
X190227676Y-97809524D01*
X190227676Y-97809524D02*
X190132438Y-97904762D01*
X190132438Y-97904762D02*
X190084819Y-98047619D01*
X190084819Y-98047619D02*
X190084819Y-98142857D01*
X190084819Y-98142857D02*
X190132438Y-98285714D01*
X190132438Y-98285714D02*
X190180057Y-98333333D01*
X191084819Y-99285714D02*
X191084819Y-98714286D01*
X191084819Y-99000000D02*
X190084819Y-99000000D01*
X190084819Y-99000000D02*
X190227676Y-98904762D01*
X190227676Y-98904762D02*
X190322914Y-98809524D01*
X190322914Y-98809524D02*
X190370533Y-98714286D01*
D15*
%TO.C,R5*%
X213630000Y-85670000D02*
X213630000Y-92210000D01*
X213630000Y-92210000D02*
X213960000Y-92210000D01*
X213960000Y-85670000D02*
X213630000Y-85670000D01*
X216040000Y-85670000D02*
X216370000Y-85670000D01*
X216370000Y-85670000D02*
X216370000Y-92210000D01*
X216370000Y-92210000D02*
X216040000Y-92210000D01*
%TO.C,D3*%
X219540000Y-114455000D02*
X219540000Y-117545000D01*
X213990000Y-116000000D02*
G75*
G02*
X219540000Y-114455170I2990000J0D01*
G01*
X219540000Y-117544830D02*
G75*
G02*
X213990000Y-116000000I-2560000J1544830D01*
G01*
X219480000Y-116000000D02*
G75*
G02*
X214480000Y-116000000I-2500000J0D01*
G01*
X214480000Y-116000000D02*
G75*
G02*
X219480000Y-116000000I2500000J0D01*
G01*
%TO.C,U4*%
X196150000Y-121550000D02*
X196150000Y-86550000D01*
X197150000Y-85550000D02*
X196150000Y-86550000D01*
X197150000Y-122550000D02*
X196150000Y-121550000D01*
X212150000Y-85550000D02*
X197150000Y-85550000D01*
X212150000Y-122550000D02*
X197150000Y-122550000D01*
X212150000Y-122550000D02*
X213150000Y-121550000D01*
X213150000Y-86550000D02*
X212150000Y-85550000D01*
X213150000Y-121550000D02*
X213150000Y-86550000D01*
%TO.C,R1*%
X155670000Y-65630000D02*
X162210000Y-65630000D01*
X155670000Y-65960000D02*
X155670000Y-65630000D01*
X155670000Y-68040000D02*
X155670000Y-68370000D01*
X155670000Y-68370000D02*
X162210000Y-68370000D01*
X162210000Y-65630000D02*
X162210000Y-65960000D01*
X162210000Y-68370000D02*
X162210000Y-68040000D01*
%TO.C,R3*%
X214880000Y-95730000D02*
X214880000Y-102270000D01*
X214880000Y-102270000D02*
X215210000Y-102270000D01*
X215210000Y-95730000D02*
X214880000Y-95730000D01*
X217290000Y-95730000D02*
X217620000Y-95730000D01*
X217620000Y-95730000D02*
X217620000Y-102270000D01*
X217620000Y-102270000D02*
X217290000Y-102270000D01*
%TO.C,R4*%
X216880000Y-85670000D02*
X216880000Y-92210000D01*
X216880000Y-92210000D02*
X217210000Y-92210000D01*
X217210000Y-85670000D02*
X216880000Y-85670000D01*
X219290000Y-85670000D02*
X219620000Y-85670000D01*
X219620000Y-85670000D02*
X219620000Y-92210000D01*
X219620000Y-92210000D02*
X219290000Y-92210000D01*
%TO.C,U_2*%
X158140000Y-62250000D02*
X153050000Y-62250000D01*
X158140000Y-62590000D02*
X158140000Y-62250000D01*
X158140000Y-64910000D02*
X158140000Y-65260000D01*
X158140000Y-65260000D02*
X155540000Y-65260000D01*
X153440083Y-62248264D02*
G75*
G02*
X157640000Y-62250000I2099917J-101736D01*
G01*
%TO.C,R2*%
X156920000Y-69630000D02*
X156920000Y-69960000D01*
X156920000Y-72370000D02*
X156920000Y-72040000D01*
X163460000Y-69630000D02*
X156920000Y-69630000D01*
X163460000Y-69960000D02*
X163460000Y-69630000D01*
X163460000Y-72040000D02*
X163460000Y-72370000D01*
X163460000Y-72370000D02*
X156920000Y-72370000D01*
%TO.C,Q1*%
X165885307Y-70188982D02*
X166648982Y-69425307D01*
X166648982Y-69425307D02*
X167462156Y-70238480D01*
X166698480Y-71002156D02*
X165885307Y-70188982D01*
X167462156Y-70238480D02*
G75*
G02*
X166698480Y-71002156I2997844J-3761520D01*
G01*
%TO.C,D1*%
X169830000Y-63455000D02*
X169830000Y-66545000D01*
X164280000Y-65000000D02*
G75*
G02*
X169830000Y-63455170I2990000J0D01*
G01*
X169830000Y-66544830D02*
G75*
G02*
X164280000Y-65000000I-2560000J1544830D01*
G01*
X169770000Y-65000000D02*
G75*
G02*
X164770000Y-65000000I-2500000J0D01*
G01*
X164770000Y-65000000D02*
G75*
G02*
X169770000Y-65000000I2500000J0D01*
G01*
%TO.C,J1*%
X183620000Y-99270000D02*
X183620000Y-107000000D01*
X186380000Y-96620000D02*
X185000000Y-96620000D01*
X186380000Y-98000000D02*
X186380000Y-96620000D01*
X186380000Y-99270000D02*
X183620000Y-99270000D01*
X186380000Y-99270000D02*
X186380000Y-107000000D01*
X186380000Y-107000000D02*
X183620000Y-107000000D01*
%TO.C,D2*%
X219290000Y-107205000D02*
X219290000Y-110295000D01*
X213740000Y-108750000D02*
G75*
G02*
X219290000Y-107205170I2990000J0D01*
G01*
X219290000Y-110294830D02*
G75*
G02*
X213740000Y-108750000I-2560000J1544830D01*
G01*
X219230000Y-108750000D02*
G75*
G02*
X214230000Y-108750000I-2500000J0D01*
G01*
X214230000Y-108750000D02*
G75*
G02*
X219230000Y-108750000I2500000J0D01*
G01*
%TO.C,C1*%
X191050000Y-92380000D02*
X192550000Y-92380000D01*
X191630000Y-93380000D02*
X191630000Y-94880000D01*
X191630000Y-93380000D02*
X196370000Y-93380000D01*
X191630000Y-94880000D02*
X192380000Y-95630000D01*
X191630000Y-96380000D02*
X191630000Y-103620000D01*
X191630000Y-103620000D02*
X196370000Y-103620000D01*
X191800000Y-91630000D02*
X191800000Y-93130000D01*
X192380000Y-95630000D02*
X191630000Y-96380000D01*
X194000000Y-92240000D02*
X194000000Y-93380000D01*
X194000000Y-104760000D02*
X194000000Y-103620000D01*
X195620000Y-95630000D02*
X196370000Y-96380000D01*
X196370000Y-93380000D02*
X196370000Y-94880000D01*
X196370000Y-94880000D02*
X195620000Y-95630000D01*
X196370000Y-96380000D02*
X196370000Y-103620000D01*
%TD*%
M02*
