%TF.GenerationSoftware,KiCad,Pcbnew,9.0.6*%
%TF.CreationDate,2026-02-20T21:56:45+01:00*%
%TF.ProjectId,flopper_one,666c6f70-7065-4725-9f6f-6e652e6b6963,rev?*%
%TF.SameCoordinates,Original*%
%TF.FileFunction,Legend,Bot*%
%TF.FilePolarity,Positive*%
%FSLAX46Y46*%
G04 Gerber Fmt 4.6, Leading zero omitted, Abs format (unit mm)*
G04 Created by KiCad (PCBNEW 9.0.6) date 2026-02-20 21:56:45*
%MOMM*%
%LPD*%
G01*
G04 APERTURE LIST*
%ADD10C,0.200000*%
%ADD11C,0.100000*%
%ADD12C,0.300000*%
%ADD13C,0.125000*%
%ADD14C,0.150000*%
%ADD15C,0.120000*%
G04 APERTURE END LIST*
D10*
X32950000Y-45250000D02*
X75950000Y-45250000D01*
X75950000Y-86250000D01*
X32950000Y-86250000D01*
X32950000Y-45250000D01*
D11*
X78000000Y-25250000D02*
X107750000Y-25250000D01*
X107750000Y-65250000D01*
X78000000Y-65250000D01*
X78000000Y-25250000D01*
X51066390Y-83065163D02*
X51566390Y-83065163D01*
X51066390Y-82541354D02*
X51304485Y-82708020D01*
X51066390Y-82827068D02*
X51566390Y-82827068D01*
X51566390Y-82827068D02*
X51566390Y-82636592D01*
X51566390Y-82636592D02*
X51542580Y-82588973D01*
X51542580Y-82588973D02*
X51518771Y-82565163D01*
X51518771Y-82565163D02*
X51471152Y-82541354D01*
X51471152Y-82541354D02*
X51399723Y-82541354D01*
X51399723Y-82541354D02*
X51352104Y-82565163D01*
X51352104Y-82565163D02*
X51328295Y-82588973D01*
X51328295Y-82588973D02*
X51304485Y-82636592D01*
X51304485Y-82636592D02*
X51304485Y-82827068D01*
X51090200Y-81969925D02*
X51066390Y-81898497D01*
X51066390Y-81898497D02*
X51066390Y-81779449D01*
X51066390Y-81779449D02*
X51090200Y-81731830D01*
X51090200Y-81731830D02*
X51114009Y-81708021D01*
X51114009Y-81708021D02*
X51161628Y-81684211D01*
X51161628Y-81684211D02*
X51209247Y-81684211D01*
X51209247Y-81684211D02*
X51256866Y-81708021D01*
X51256866Y-81708021D02*
X51280676Y-81731830D01*
X51280676Y-81731830D02*
X51304485Y-81779449D01*
X51304485Y-81779449D02*
X51328295Y-81874687D01*
X51328295Y-81874687D02*
X51352104Y-81922306D01*
X51352104Y-81922306D02*
X51375914Y-81946116D01*
X51375914Y-81946116D02*
X51423533Y-81969925D01*
X51423533Y-81969925D02*
X51471152Y-81969925D01*
X51471152Y-81969925D02*
X51518771Y-81946116D01*
X51518771Y-81946116D02*
X51542580Y-81922306D01*
X51542580Y-81922306D02*
X51566390Y-81874687D01*
X51566390Y-81874687D02*
X51566390Y-81755640D01*
X51566390Y-81755640D02*
X51542580Y-81684211D01*
X51328295Y-81469926D02*
X51328295Y-81303259D01*
X51066390Y-81231831D02*
X51066390Y-81469926D01*
X51066390Y-81469926D02*
X51566390Y-81469926D01*
X51566390Y-81469926D02*
X51566390Y-81231831D01*
X51066390Y-81017545D02*
X51566390Y-81017545D01*
X51566390Y-81017545D02*
X51066390Y-80731831D01*
X51066390Y-80731831D02*
X51566390Y-80731831D01*
X51066390Y-80493735D02*
X51566390Y-80493735D01*
X51566390Y-80493735D02*
X51566390Y-80374687D01*
X51566390Y-80374687D02*
X51542580Y-80303259D01*
X51542580Y-80303259D02*
X51494961Y-80255640D01*
X51494961Y-80255640D02*
X51447342Y-80231830D01*
X51447342Y-80231830D02*
X51352104Y-80208021D01*
X51352104Y-80208021D02*
X51280676Y-80208021D01*
X51280676Y-80208021D02*
X51185438Y-80231830D01*
X51185438Y-80231830D02*
X51137819Y-80255640D01*
X51137819Y-80255640D02*
X51090200Y-80303259D01*
X51090200Y-80303259D02*
X51066390Y-80374687D01*
X51066390Y-80374687D02*
X51066390Y-80493735D01*
X49600877Y-31100276D02*
X49600877Y-31433609D01*
X49719925Y-30909800D02*
X49838972Y-31266942D01*
X49838972Y-31266942D02*
X49529449Y-31266942D01*
X49386592Y-30933609D02*
X49053259Y-30933609D01*
X49053259Y-30933609D02*
X49267544Y-31433609D01*
X48862783Y-31243133D02*
X48481831Y-31243133D01*
X47981830Y-31433609D02*
X48267544Y-31433609D01*
X48124687Y-31433609D02*
X48124687Y-30933609D01*
X48124687Y-30933609D02*
X48172306Y-31005038D01*
X48172306Y-31005038D02*
X48219925Y-31052657D01*
X48219925Y-31052657D02*
X48267544Y-31076466D01*
X47672307Y-30933609D02*
X47624688Y-30933609D01*
X47624688Y-30933609D02*
X47577069Y-30957419D01*
X47577069Y-30957419D02*
X47553259Y-30981228D01*
X47553259Y-30981228D02*
X47529450Y-31028847D01*
X47529450Y-31028847D02*
X47505640Y-31124085D01*
X47505640Y-31124085D02*
X47505640Y-31243133D01*
X47505640Y-31243133D02*
X47529450Y-31338371D01*
X47529450Y-31338371D02*
X47553259Y-31385990D01*
X47553259Y-31385990D02*
X47577069Y-31409800D01*
X47577069Y-31409800D02*
X47624688Y-31433609D01*
X47624688Y-31433609D02*
X47672307Y-31433609D01*
X47672307Y-31433609D02*
X47719926Y-31409800D01*
X47719926Y-31409800D02*
X47743735Y-31385990D01*
X47743735Y-31385990D02*
X47767545Y-31338371D01*
X47767545Y-31338371D02*
X47791354Y-31243133D01*
X47791354Y-31243133D02*
X47791354Y-31124085D01*
X47791354Y-31124085D02*
X47767545Y-31028847D01*
X47767545Y-31028847D02*
X47743735Y-30981228D01*
X47743735Y-30981228D02*
X47719926Y-30957419D01*
X47719926Y-30957419D02*
X47672307Y-30933609D01*
X47196117Y-30933609D02*
X47148498Y-30933609D01*
X47148498Y-30933609D02*
X47100879Y-30957419D01*
X47100879Y-30957419D02*
X47077069Y-30981228D01*
X47077069Y-30981228D02*
X47053260Y-31028847D01*
X47053260Y-31028847D02*
X47029450Y-31124085D01*
X47029450Y-31124085D02*
X47029450Y-31243133D01*
X47029450Y-31243133D02*
X47053260Y-31338371D01*
X47053260Y-31338371D02*
X47077069Y-31385990D01*
X47077069Y-31385990D02*
X47100879Y-31409800D01*
X47100879Y-31409800D02*
X47148498Y-31433609D01*
X47148498Y-31433609D02*
X47196117Y-31433609D01*
X47196117Y-31433609D02*
X47243736Y-31409800D01*
X47243736Y-31409800D02*
X47267545Y-31385990D01*
X47267545Y-31385990D02*
X47291355Y-31338371D01*
X47291355Y-31338371D02*
X47315164Y-31243133D01*
X47315164Y-31243133D02*
X47315164Y-31124085D01*
X47315164Y-31124085D02*
X47291355Y-31028847D01*
X47291355Y-31028847D02*
X47267545Y-30981228D01*
X47267545Y-30981228D02*
X47243736Y-30957419D01*
X47243736Y-30957419D02*
X47196117Y-30933609D01*
X46838974Y-31433609D02*
X46719927Y-31433609D01*
X46719927Y-31433609D02*
X46719927Y-31338371D01*
X46719927Y-31338371D02*
X46767546Y-31314561D01*
X46767546Y-31314561D02*
X46815165Y-31266942D01*
X46815165Y-31266942D02*
X46838974Y-31195514D01*
X46838974Y-31195514D02*
X46838974Y-31076466D01*
X46838974Y-31076466D02*
X46815165Y-31005038D01*
X46815165Y-31005038D02*
X46767546Y-30957419D01*
X46767546Y-30957419D02*
X46696117Y-30933609D01*
X46696117Y-30933609D02*
X46600879Y-30933609D01*
X46600879Y-30933609D02*
X46529451Y-30957419D01*
X46529451Y-30957419D02*
X46481832Y-31005038D01*
X46481832Y-31005038D02*
X46458022Y-31076466D01*
X46458022Y-31076466D02*
X46458022Y-31195514D01*
X46458022Y-31195514D02*
X46481832Y-31266942D01*
X46481832Y-31266942D02*
X46529451Y-31314561D01*
X46529451Y-31314561D02*
X46577070Y-31338371D01*
X46577070Y-31338371D02*
X46577070Y-31433609D01*
X46577070Y-31433609D02*
X46458022Y-31433609D01*
X78433609Y-65303258D02*
X78433609Y-65588972D01*
X78433609Y-65446115D02*
X77933609Y-65446115D01*
X77933609Y-65446115D02*
X78005038Y-65493734D01*
X78005038Y-65493734D02*
X78052657Y-65541353D01*
X78052657Y-65541353D02*
X78076466Y-65588972D01*
X77933609Y-64993735D02*
X77933609Y-64946116D01*
X77933609Y-64946116D02*
X77957419Y-64898497D01*
X77957419Y-64898497D02*
X77981228Y-64874687D01*
X77981228Y-64874687D02*
X78028847Y-64850878D01*
X78028847Y-64850878D02*
X78124085Y-64827068D01*
X78124085Y-64827068D02*
X78243133Y-64827068D01*
X78243133Y-64827068D02*
X78338371Y-64850878D01*
X78338371Y-64850878D02*
X78385990Y-64874687D01*
X78385990Y-64874687D02*
X78409800Y-64898497D01*
X78409800Y-64898497D02*
X78433609Y-64946116D01*
X78433609Y-64946116D02*
X78433609Y-64993735D01*
X78433609Y-64993735D02*
X78409800Y-65041354D01*
X78409800Y-65041354D02*
X78385990Y-65065163D01*
X78385990Y-65065163D02*
X78338371Y-65088973D01*
X78338371Y-65088973D02*
X78243133Y-65112782D01*
X78243133Y-65112782D02*
X78124085Y-65112782D01*
X78124085Y-65112782D02*
X78028847Y-65088973D01*
X78028847Y-65088973D02*
X77981228Y-65065163D01*
X77981228Y-65065163D02*
X77957419Y-65041354D01*
X77957419Y-65041354D02*
X77933609Y-64993735D01*
X78100276Y-64398497D02*
X78433609Y-64398497D01*
X78100276Y-64612783D02*
X78362180Y-64612783D01*
X78362180Y-64612783D02*
X78409800Y-64588973D01*
X78409800Y-64588973D02*
X78433609Y-64541354D01*
X78433609Y-64541354D02*
X78433609Y-64469926D01*
X78433609Y-64469926D02*
X78409800Y-64422307D01*
X78409800Y-64422307D02*
X78385990Y-64398497D01*
X78100276Y-64231830D02*
X78100276Y-64041354D01*
X78433609Y-64160402D02*
X78005038Y-64160402D01*
X78005038Y-64160402D02*
X77957419Y-64136592D01*
X77957419Y-64136592D02*
X77933609Y-64088973D01*
X77933609Y-64088973D02*
X77933609Y-64041354D01*
X63933609Y-61434836D02*
X63433609Y-61434836D01*
X63433609Y-61434836D02*
X63433609Y-61625312D01*
X63433609Y-61625312D02*
X63457419Y-61672931D01*
X63457419Y-61672931D02*
X63481228Y-61696741D01*
X63481228Y-61696741D02*
X63528847Y-61720550D01*
X63528847Y-61720550D02*
X63600276Y-61720550D01*
X63600276Y-61720550D02*
X63647895Y-61696741D01*
X63647895Y-61696741D02*
X63671704Y-61672931D01*
X63671704Y-61672931D02*
X63695514Y-61625312D01*
X63695514Y-61625312D02*
X63695514Y-61434836D01*
X63933609Y-62196741D02*
X63933609Y-61911027D01*
X63933609Y-62053884D02*
X63433609Y-62053884D01*
X63433609Y-62053884D02*
X63505038Y-62006265D01*
X63505038Y-62006265D02*
X63552657Y-61958646D01*
X63552657Y-61958646D02*
X63576466Y-61911027D01*
X56066390Y-83065163D02*
X56566390Y-83065163D01*
X56566390Y-83065163D02*
X56566390Y-82874687D01*
X56566390Y-82874687D02*
X56542580Y-82827068D01*
X56542580Y-82827068D02*
X56518771Y-82803258D01*
X56518771Y-82803258D02*
X56471152Y-82779449D01*
X56471152Y-82779449D02*
X56399723Y-82779449D01*
X56399723Y-82779449D02*
X56352104Y-82803258D01*
X56352104Y-82803258D02*
X56328295Y-82827068D01*
X56328295Y-82827068D02*
X56304485Y-82874687D01*
X56304485Y-82874687D02*
X56304485Y-83065163D01*
X56066390Y-82565163D02*
X56566390Y-82565163D01*
X56566390Y-82565163D02*
X56066390Y-82279449D01*
X56066390Y-82279449D02*
X56566390Y-82279449D01*
X56566390Y-81803258D02*
X56566390Y-82041353D01*
X56566390Y-82041353D02*
X56328295Y-82065162D01*
X56328295Y-82065162D02*
X56352104Y-82041353D01*
X56352104Y-82041353D02*
X56375914Y-81993734D01*
X56375914Y-81993734D02*
X56375914Y-81874686D01*
X56375914Y-81874686D02*
X56352104Y-81827067D01*
X56352104Y-81827067D02*
X56328295Y-81803258D01*
X56328295Y-81803258D02*
X56280676Y-81779448D01*
X56280676Y-81779448D02*
X56161628Y-81779448D01*
X56161628Y-81779448D02*
X56114009Y-81803258D01*
X56114009Y-81803258D02*
X56090200Y-81827067D01*
X56090200Y-81827067D02*
X56066390Y-81874686D01*
X56066390Y-81874686D02*
X56066390Y-81993734D01*
X56066390Y-81993734D02*
X56090200Y-82041353D01*
X56090200Y-82041353D02*
X56114009Y-82065162D01*
X56566390Y-81612782D02*
X56566390Y-81303258D01*
X56566390Y-81303258D02*
X56375914Y-81469925D01*
X56375914Y-81469925D02*
X56375914Y-81398496D01*
X56375914Y-81398496D02*
X56352104Y-81350877D01*
X56352104Y-81350877D02*
X56328295Y-81327068D01*
X56328295Y-81327068D02*
X56280676Y-81303258D01*
X56280676Y-81303258D02*
X56161628Y-81303258D01*
X56161628Y-81303258D02*
X56114009Y-81327068D01*
X56114009Y-81327068D02*
X56090200Y-81350877D01*
X56090200Y-81350877D02*
X56066390Y-81398496D01*
X56066390Y-81398496D02*
X56066390Y-81541353D01*
X56066390Y-81541353D02*
X56090200Y-81588972D01*
X56090200Y-81588972D02*
X56114009Y-81612782D01*
X56518771Y-81112782D02*
X56542580Y-81088973D01*
X56542580Y-81088973D02*
X56566390Y-81041354D01*
X56566390Y-81041354D02*
X56566390Y-80922306D01*
X56566390Y-80922306D02*
X56542580Y-80874687D01*
X56542580Y-80874687D02*
X56518771Y-80850878D01*
X56518771Y-80850878D02*
X56471152Y-80827068D01*
X56471152Y-80827068D02*
X56423533Y-80827068D01*
X56423533Y-80827068D02*
X56352104Y-80850878D01*
X56352104Y-80850878D02*
X56066390Y-81136592D01*
X56066390Y-81136592D02*
X56066390Y-80827068D01*
X56090200Y-80255640D02*
X56066390Y-80184212D01*
X56066390Y-80184212D02*
X56066390Y-80065164D01*
X56066390Y-80065164D02*
X56090200Y-80017545D01*
X56090200Y-80017545D02*
X56114009Y-79993736D01*
X56114009Y-79993736D02*
X56161628Y-79969926D01*
X56161628Y-79969926D02*
X56209247Y-79969926D01*
X56209247Y-79969926D02*
X56256866Y-79993736D01*
X56256866Y-79993736D02*
X56280676Y-80017545D01*
X56280676Y-80017545D02*
X56304485Y-80065164D01*
X56304485Y-80065164D02*
X56328295Y-80160402D01*
X56328295Y-80160402D02*
X56352104Y-80208021D01*
X56352104Y-80208021D02*
X56375914Y-80231831D01*
X56375914Y-80231831D02*
X56423533Y-80255640D01*
X56423533Y-80255640D02*
X56471152Y-80255640D01*
X56471152Y-80255640D02*
X56518771Y-80231831D01*
X56518771Y-80231831D02*
X56542580Y-80208021D01*
X56542580Y-80208021D02*
X56566390Y-80160402D01*
X56566390Y-80160402D02*
X56566390Y-80041355D01*
X56566390Y-80041355D02*
X56542580Y-79969926D01*
X56114009Y-79469927D02*
X56090200Y-79493736D01*
X56090200Y-79493736D02*
X56066390Y-79565165D01*
X56066390Y-79565165D02*
X56066390Y-79612784D01*
X56066390Y-79612784D02*
X56090200Y-79684212D01*
X56090200Y-79684212D02*
X56137819Y-79731831D01*
X56137819Y-79731831D02*
X56185438Y-79755641D01*
X56185438Y-79755641D02*
X56280676Y-79779450D01*
X56280676Y-79779450D02*
X56352104Y-79779450D01*
X56352104Y-79779450D02*
X56447342Y-79755641D01*
X56447342Y-79755641D02*
X56494961Y-79731831D01*
X56494961Y-79731831D02*
X56542580Y-79684212D01*
X56542580Y-79684212D02*
X56566390Y-79612784D01*
X56566390Y-79612784D02*
X56566390Y-79565165D01*
X56566390Y-79565165D02*
X56542580Y-79493736D01*
X56542580Y-79493736D02*
X56518771Y-79469927D01*
X56066390Y-79017546D02*
X56066390Y-79255641D01*
X56066390Y-79255641D02*
X56566390Y-79255641D01*
X60933609Y-61434836D02*
X60433609Y-61434836D01*
X60433609Y-61434836D02*
X60433609Y-61625312D01*
X60433609Y-61625312D02*
X60457419Y-61672931D01*
X60457419Y-61672931D02*
X60481228Y-61696741D01*
X60481228Y-61696741D02*
X60528847Y-61720550D01*
X60528847Y-61720550D02*
X60600276Y-61720550D01*
X60600276Y-61720550D02*
X60647895Y-61696741D01*
X60647895Y-61696741D02*
X60671704Y-61672931D01*
X60671704Y-61672931D02*
X60695514Y-61625312D01*
X60695514Y-61625312D02*
X60695514Y-61434836D01*
X60481228Y-61911027D02*
X60457419Y-61934836D01*
X60457419Y-61934836D02*
X60433609Y-61982455D01*
X60433609Y-61982455D02*
X60433609Y-62101503D01*
X60433609Y-62101503D02*
X60457419Y-62149122D01*
X60457419Y-62149122D02*
X60481228Y-62172931D01*
X60481228Y-62172931D02*
X60528847Y-62196741D01*
X60528847Y-62196741D02*
X60576466Y-62196741D01*
X60576466Y-62196741D02*
X60647895Y-62172931D01*
X60647895Y-62172931D02*
X60933609Y-61887217D01*
X60933609Y-61887217D02*
X60933609Y-62196741D01*
D12*
X65945489Y-66050828D02*
X65945489Y-64550828D01*
X65945489Y-64550828D02*
X65374060Y-64550828D01*
X65374060Y-64550828D02*
X65231203Y-64622257D01*
X65231203Y-64622257D02*
X65159774Y-64693685D01*
X65159774Y-64693685D02*
X65088346Y-64836542D01*
X65088346Y-64836542D02*
X65088346Y-65050828D01*
X65088346Y-65050828D02*
X65159774Y-65193685D01*
X65159774Y-65193685D02*
X65231203Y-65265114D01*
X65231203Y-65265114D02*
X65374060Y-65336542D01*
X65374060Y-65336542D02*
X65945489Y-65336542D01*
X64445489Y-66050828D02*
X64445489Y-64550828D01*
X64445489Y-64550828D02*
X63588346Y-66050828D01*
X63588346Y-66050828D02*
X63588346Y-64550828D01*
X62159774Y-64550828D02*
X62874060Y-64550828D01*
X62874060Y-64550828D02*
X62945488Y-65265114D01*
X62945488Y-65265114D02*
X62874060Y-65193685D01*
X62874060Y-65193685D02*
X62731203Y-65122257D01*
X62731203Y-65122257D02*
X62374060Y-65122257D01*
X62374060Y-65122257D02*
X62231203Y-65193685D01*
X62231203Y-65193685D02*
X62159774Y-65265114D01*
X62159774Y-65265114D02*
X62088345Y-65407971D01*
X62088345Y-65407971D02*
X62088345Y-65765114D01*
X62088345Y-65765114D02*
X62159774Y-65907971D01*
X62159774Y-65907971D02*
X62231203Y-65979400D01*
X62231203Y-65979400D02*
X62374060Y-66050828D01*
X62374060Y-66050828D02*
X62731203Y-66050828D01*
X62731203Y-66050828D02*
X62874060Y-65979400D01*
X62874060Y-65979400D02*
X62945488Y-65907971D01*
X61588346Y-64550828D02*
X60659774Y-64550828D01*
X60659774Y-64550828D02*
X61159774Y-65122257D01*
X61159774Y-65122257D02*
X60945489Y-65122257D01*
X60945489Y-65122257D02*
X60802632Y-65193685D01*
X60802632Y-65193685D02*
X60731203Y-65265114D01*
X60731203Y-65265114D02*
X60659774Y-65407971D01*
X60659774Y-65407971D02*
X60659774Y-65765114D01*
X60659774Y-65765114D02*
X60731203Y-65907971D01*
X60731203Y-65907971D02*
X60802632Y-65979400D01*
X60802632Y-65979400D02*
X60945489Y-66050828D01*
X60945489Y-66050828D02*
X61374060Y-66050828D01*
X61374060Y-66050828D02*
X61516917Y-65979400D01*
X61516917Y-65979400D02*
X61588346Y-65907971D01*
X60088346Y-64693685D02*
X60016918Y-64622257D01*
X60016918Y-64622257D02*
X59874061Y-64550828D01*
X59874061Y-64550828D02*
X59516918Y-64550828D01*
X59516918Y-64550828D02*
X59374061Y-64622257D01*
X59374061Y-64622257D02*
X59302632Y-64693685D01*
X59302632Y-64693685D02*
X59231203Y-64836542D01*
X59231203Y-64836542D02*
X59231203Y-64979400D01*
X59231203Y-64979400D02*
X59302632Y-65193685D01*
X59302632Y-65193685D02*
X60159775Y-66050828D01*
X60159775Y-66050828D02*
X59231203Y-66050828D01*
D11*
X49303258Y-35183609D02*
X49588972Y-35183609D01*
X49446115Y-35183609D02*
X49446115Y-34683609D01*
X49446115Y-34683609D02*
X49493734Y-34755038D01*
X49493734Y-34755038D02*
X49541353Y-34802657D01*
X49541353Y-34802657D02*
X49588972Y-34826466D01*
X49088973Y-35183609D02*
X49088973Y-34683609D01*
X49041354Y-34993133D02*
X48898497Y-35183609D01*
X48898497Y-34850276D02*
X49088973Y-35040752D01*
X48708020Y-35183609D02*
X48588973Y-35183609D01*
X48588973Y-35183609D02*
X48588973Y-35088371D01*
X48588973Y-35088371D02*
X48636592Y-35064561D01*
X48636592Y-35064561D02*
X48684211Y-35016942D01*
X48684211Y-35016942D02*
X48708020Y-34945514D01*
X48708020Y-34945514D02*
X48708020Y-34826466D01*
X48708020Y-34826466D02*
X48684211Y-34755038D01*
X48684211Y-34755038D02*
X48636592Y-34707419D01*
X48636592Y-34707419D02*
X48565163Y-34683609D01*
X48565163Y-34683609D02*
X48469925Y-34683609D01*
X48469925Y-34683609D02*
X48398497Y-34707419D01*
X48398497Y-34707419D02*
X48350878Y-34755038D01*
X48350878Y-34755038D02*
X48327068Y-34826466D01*
X48327068Y-34826466D02*
X48327068Y-34945514D01*
X48327068Y-34945514D02*
X48350878Y-35016942D01*
X48350878Y-35016942D02*
X48398497Y-35064561D01*
X48398497Y-35064561D02*
X48446116Y-35088371D01*
X48446116Y-35088371D02*
X48446116Y-35183609D01*
X48446116Y-35183609D02*
X48327068Y-35183609D01*
X66933609Y-61434836D02*
X66433609Y-61434836D01*
X66433609Y-61434836D02*
X66433609Y-61625312D01*
X66433609Y-61625312D02*
X66457419Y-61672931D01*
X66457419Y-61672931D02*
X66481228Y-61696741D01*
X66481228Y-61696741D02*
X66528847Y-61720550D01*
X66528847Y-61720550D02*
X66600276Y-61720550D01*
X66600276Y-61720550D02*
X66647895Y-61696741D01*
X66647895Y-61696741D02*
X66671704Y-61672931D01*
X66671704Y-61672931D02*
X66695514Y-61625312D01*
X66695514Y-61625312D02*
X66695514Y-61434836D01*
X66600276Y-62149122D02*
X66933609Y-62149122D01*
X66409800Y-62030074D02*
X66766942Y-61911027D01*
X66766942Y-61911027D02*
X66766942Y-62220550D01*
D13*
X81347309Y-50846335D02*
X81394928Y-50703478D01*
X81394928Y-50703478D02*
X81442547Y-50655859D01*
X81442547Y-50655859D02*
X81537785Y-50608240D01*
X81537785Y-50608240D02*
X81680642Y-50608240D01*
X81680642Y-50608240D02*
X81775880Y-50655859D01*
X81775880Y-50655859D02*
X81823500Y-50703478D01*
X81823500Y-50703478D02*
X81871119Y-50798716D01*
X81871119Y-50798716D02*
X81871119Y-51179668D01*
X81871119Y-51179668D02*
X80871119Y-51179668D01*
X80871119Y-51179668D02*
X80871119Y-50846335D01*
X80871119Y-50846335D02*
X80918738Y-50751097D01*
X80918738Y-50751097D02*
X80966357Y-50703478D01*
X80966357Y-50703478D02*
X81061595Y-50655859D01*
X81061595Y-50655859D02*
X81156833Y-50655859D01*
X81156833Y-50655859D02*
X81252071Y-50703478D01*
X81252071Y-50703478D02*
X81299690Y-50751097D01*
X81299690Y-50751097D02*
X81347309Y-50846335D01*
X81347309Y-50846335D02*
X81347309Y-51179668D01*
X81585404Y-50227287D02*
X81585404Y-49751097D01*
X81871119Y-50322525D02*
X80871119Y-49989192D01*
X80871119Y-49989192D02*
X81871119Y-49655859D01*
X80871119Y-49465382D02*
X80871119Y-48893954D01*
X81871119Y-49179668D02*
X80871119Y-49179668D01*
X81490166Y-48560620D02*
X81490166Y-47798716D01*
X81871119Y-48179668D02*
X81109214Y-48179668D01*
D11*
X55933609Y-61434836D02*
X55433609Y-61434836D01*
X55433609Y-61434836D02*
X55433609Y-61625312D01*
X55433609Y-61625312D02*
X55457419Y-61672931D01*
X55457419Y-61672931D02*
X55481228Y-61696741D01*
X55481228Y-61696741D02*
X55528847Y-61720550D01*
X55528847Y-61720550D02*
X55600276Y-61720550D01*
X55600276Y-61720550D02*
X55647895Y-61696741D01*
X55647895Y-61696741D02*
X55671704Y-61672931D01*
X55671704Y-61672931D02*
X55695514Y-61625312D01*
X55695514Y-61625312D02*
X55695514Y-61434836D01*
X55433609Y-62172931D02*
X55433609Y-61934836D01*
X55433609Y-61934836D02*
X55671704Y-61911027D01*
X55671704Y-61911027D02*
X55647895Y-61934836D01*
X55647895Y-61934836D02*
X55624085Y-61982455D01*
X55624085Y-61982455D02*
X55624085Y-62101503D01*
X55624085Y-62101503D02*
X55647895Y-62149122D01*
X55647895Y-62149122D02*
X55671704Y-62172931D01*
X55671704Y-62172931D02*
X55719323Y-62196741D01*
X55719323Y-62196741D02*
X55838371Y-62196741D01*
X55838371Y-62196741D02*
X55885990Y-62172931D01*
X55885990Y-62172931D02*
X55909800Y-62149122D01*
X55909800Y-62149122D02*
X55933609Y-62101503D01*
X55933609Y-62101503D02*
X55933609Y-61982455D01*
X55933609Y-61982455D02*
X55909800Y-61934836D01*
X55909800Y-61934836D02*
X55885990Y-61911027D01*
X75066390Y-83065163D02*
X75566390Y-83065163D01*
X75066390Y-82541354D02*
X75304485Y-82708020D01*
X75066390Y-82827068D02*
X75566390Y-82827068D01*
X75566390Y-82827068D02*
X75566390Y-82636592D01*
X75566390Y-82636592D02*
X75542580Y-82588973D01*
X75542580Y-82588973D02*
X75518771Y-82565163D01*
X75518771Y-82565163D02*
X75471152Y-82541354D01*
X75471152Y-82541354D02*
X75399723Y-82541354D01*
X75399723Y-82541354D02*
X75352104Y-82565163D01*
X75352104Y-82565163D02*
X75328295Y-82588973D01*
X75328295Y-82588973D02*
X75304485Y-82636592D01*
X75304485Y-82636592D02*
X75304485Y-82827068D01*
X75066390Y-81660402D02*
X75304485Y-81827068D01*
X75066390Y-81946116D02*
X75566390Y-81946116D01*
X75566390Y-81946116D02*
X75566390Y-81755640D01*
X75566390Y-81755640D02*
X75542580Y-81708021D01*
X75542580Y-81708021D02*
X75518771Y-81684211D01*
X75518771Y-81684211D02*
X75471152Y-81660402D01*
X75471152Y-81660402D02*
X75399723Y-81660402D01*
X75399723Y-81660402D02*
X75352104Y-81684211D01*
X75352104Y-81684211D02*
X75328295Y-81708021D01*
X75328295Y-81708021D02*
X75304485Y-81755640D01*
X75304485Y-81755640D02*
X75304485Y-81946116D01*
X75328295Y-81446116D02*
X75328295Y-81279449D01*
X75066390Y-81208021D02*
X75066390Y-81446116D01*
X75066390Y-81446116D02*
X75566390Y-81446116D01*
X75566390Y-81446116D02*
X75566390Y-81208021D01*
X75114009Y-80708021D02*
X75090200Y-80731830D01*
X75090200Y-80731830D02*
X75066390Y-80803259D01*
X75066390Y-80803259D02*
X75066390Y-80850878D01*
X75066390Y-80850878D02*
X75090200Y-80922306D01*
X75090200Y-80922306D02*
X75137819Y-80969925D01*
X75137819Y-80969925D02*
X75185438Y-80993735D01*
X75185438Y-80993735D02*
X75280676Y-81017544D01*
X75280676Y-81017544D02*
X75352104Y-81017544D01*
X75352104Y-81017544D02*
X75447342Y-80993735D01*
X75447342Y-80993735D02*
X75494961Y-80969925D01*
X75494961Y-80969925D02*
X75542580Y-80922306D01*
X75542580Y-80922306D02*
X75566390Y-80850878D01*
X75566390Y-80850878D02*
X75566390Y-80803259D01*
X75566390Y-80803259D02*
X75542580Y-80731830D01*
X75542580Y-80731830D02*
X75518771Y-80708021D01*
X75566390Y-80565163D02*
X75066390Y-80398497D01*
X75066390Y-80398497D02*
X75566390Y-80231830D01*
X58933609Y-61434836D02*
X58433609Y-61434836D01*
X58433609Y-61434836D02*
X58433609Y-61625312D01*
X58433609Y-61625312D02*
X58457419Y-61672931D01*
X58457419Y-61672931D02*
X58481228Y-61696741D01*
X58481228Y-61696741D02*
X58528847Y-61720550D01*
X58528847Y-61720550D02*
X58600276Y-61720550D01*
X58600276Y-61720550D02*
X58647895Y-61696741D01*
X58647895Y-61696741D02*
X58671704Y-61672931D01*
X58671704Y-61672931D02*
X58695514Y-61625312D01*
X58695514Y-61625312D02*
X58695514Y-61434836D01*
X58433609Y-61887217D02*
X58433609Y-62196741D01*
X58433609Y-62196741D02*
X58624085Y-62030074D01*
X58624085Y-62030074D02*
X58624085Y-62101503D01*
X58624085Y-62101503D02*
X58647895Y-62149122D01*
X58647895Y-62149122D02*
X58671704Y-62172931D01*
X58671704Y-62172931D02*
X58719323Y-62196741D01*
X58719323Y-62196741D02*
X58838371Y-62196741D01*
X58838371Y-62196741D02*
X58885990Y-62172931D01*
X58885990Y-62172931D02*
X58909800Y-62149122D01*
X58909800Y-62149122D02*
X58933609Y-62101503D01*
X58933609Y-62101503D02*
X58933609Y-61958646D01*
X58933609Y-61958646D02*
X58909800Y-61911027D01*
X58909800Y-61911027D02*
X58885990Y-61887217D01*
X62090200Y-83088972D02*
X62066390Y-83017544D01*
X62066390Y-83017544D02*
X62066390Y-82898496D01*
X62066390Y-82898496D02*
X62090200Y-82850877D01*
X62090200Y-82850877D02*
X62114009Y-82827068D01*
X62114009Y-82827068D02*
X62161628Y-82803258D01*
X62161628Y-82803258D02*
X62209247Y-82803258D01*
X62209247Y-82803258D02*
X62256866Y-82827068D01*
X62256866Y-82827068D02*
X62280676Y-82850877D01*
X62280676Y-82850877D02*
X62304485Y-82898496D01*
X62304485Y-82898496D02*
X62328295Y-82993734D01*
X62328295Y-82993734D02*
X62352104Y-83041353D01*
X62352104Y-83041353D02*
X62375914Y-83065163D01*
X62375914Y-83065163D02*
X62423533Y-83088972D01*
X62423533Y-83088972D02*
X62471152Y-83088972D01*
X62471152Y-83088972D02*
X62518771Y-83065163D01*
X62518771Y-83065163D02*
X62542580Y-83041353D01*
X62542580Y-83041353D02*
X62566390Y-82993734D01*
X62566390Y-82993734D02*
X62566390Y-82874687D01*
X62566390Y-82874687D02*
X62542580Y-82803258D01*
X62114009Y-82303259D02*
X62090200Y-82327068D01*
X62090200Y-82327068D02*
X62066390Y-82398497D01*
X62066390Y-82398497D02*
X62066390Y-82446116D01*
X62066390Y-82446116D02*
X62090200Y-82517544D01*
X62090200Y-82517544D02*
X62137819Y-82565163D01*
X62137819Y-82565163D02*
X62185438Y-82588973D01*
X62185438Y-82588973D02*
X62280676Y-82612782D01*
X62280676Y-82612782D02*
X62352104Y-82612782D01*
X62352104Y-82612782D02*
X62447342Y-82588973D01*
X62447342Y-82588973D02*
X62494961Y-82565163D01*
X62494961Y-82565163D02*
X62542580Y-82517544D01*
X62542580Y-82517544D02*
X62566390Y-82446116D01*
X62566390Y-82446116D02*
X62566390Y-82398497D01*
X62566390Y-82398497D02*
X62542580Y-82327068D01*
X62542580Y-82327068D02*
X62518771Y-82303259D01*
X62066390Y-81803259D02*
X62304485Y-81969925D01*
X62066390Y-82088973D02*
X62566390Y-82088973D01*
X62566390Y-82088973D02*
X62566390Y-81898497D01*
X62566390Y-81898497D02*
X62542580Y-81850878D01*
X62542580Y-81850878D02*
X62518771Y-81827068D01*
X62518771Y-81827068D02*
X62471152Y-81803259D01*
X62471152Y-81803259D02*
X62399723Y-81803259D01*
X62399723Y-81803259D02*
X62352104Y-81827068D01*
X62352104Y-81827068D02*
X62328295Y-81850878D01*
X62328295Y-81850878D02*
X62304485Y-81898497D01*
X62304485Y-81898497D02*
X62304485Y-82088973D01*
X62328295Y-81588973D02*
X62328295Y-81422306D01*
X62066390Y-81350878D02*
X62066390Y-81588973D01*
X62066390Y-81588973D02*
X62566390Y-81588973D01*
X62566390Y-81588973D02*
X62566390Y-81350878D01*
X62328295Y-81136592D02*
X62328295Y-80969925D01*
X62066390Y-80898497D02*
X62066390Y-81136592D01*
X62066390Y-81136592D02*
X62566390Y-81136592D01*
X62566390Y-81136592D02*
X62566390Y-80898497D01*
X62066390Y-80684211D02*
X62566390Y-80684211D01*
X62566390Y-80684211D02*
X62066390Y-80398497D01*
X62066390Y-80398497D02*
X62566390Y-80398497D01*
X62090200Y-79803258D02*
X62066390Y-79731830D01*
X62066390Y-79731830D02*
X62066390Y-79612782D01*
X62066390Y-79612782D02*
X62090200Y-79565163D01*
X62090200Y-79565163D02*
X62114009Y-79541354D01*
X62114009Y-79541354D02*
X62161628Y-79517544D01*
X62161628Y-79517544D02*
X62209247Y-79517544D01*
X62209247Y-79517544D02*
X62256866Y-79541354D01*
X62256866Y-79541354D02*
X62280676Y-79565163D01*
X62280676Y-79565163D02*
X62304485Y-79612782D01*
X62304485Y-79612782D02*
X62328295Y-79708020D01*
X62328295Y-79708020D02*
X62352104Y-79755639D01*
X62352104Y-79755639D02*
X62375914Y-79779449D01*
X62375914Y-79779449D02*
X62423533Y-79803258D01*
X62423533Y-79803258D02*
X62471152Y-79803258D01*
X62471152Y-79803258D02*
X62518771Y-79779449D01*
X62518771Y-79779449D02*
X62542580Y-79755639D01*
X62542580Y-79755639D02*
X62566390Y-79708020D01*
X62566390Y-79708020D02*
X62566390Y-79588973D01*
X62566390Y-79588973D02*
X62542580Y-79517544D01*
X62066390Y-79303259D02*
X62566390Y-79303259D01*
X62566390Y-79303259D02*
X62566390Y-79184211D01*
X62566390Y-79184211D02*
X62542580Y-79112783D01*
X62542580Y-79112783D02*
X62494961Y-79065164D01*
X62494961Y-79065164D02*
X62447342Y-79041354D01*
X62447342Y-79041354D02*
X62352104Y-79017545D01*
X62352104Y-79017545D02*
X62280676Y-79017545D01*
X62280676Y-79017545D02*
X62185438Y-79041354D01*
X62185438Y-79041354D02*
X62137819Y-79065164D01*
X62137819Y-79065164D02*
X62090200Y-79112783D01*
X62090200Y-79112783D02*
X62066390Y-79184211D01*
X62066390Y-79184211D02*
X62066390Y-79303259D01*
X62209247Y-78827068D02*
X62209247Y-78588973D01*
X62066390Y-78874687D02*
X62566390Y-78708021D01*
X62566390Y-78708021D02*
X62066390Y-78541354D01*
D13*
X92597309Y-48596335D02*
X92644928Y-48453478D01*
X92644928Y-48453478D02*
X92692547Y-48405859D01*
X92692547Y-48405859D02*
X92787785Y-48358240D01*
X92787785Y-48358240D02*
X92930642Y-48358240D01*
X92930642Y-48358240D02*
X93025880Y-48405859D01*
X93025880Y-48405859D02*
X93073500Y-48453478D01*
X93073500Y-48453478D02*
X93121119Y-48548716D01*
X93121119Y-48548716D02*
X93121119Y-48929668D01*
X93121119Y-48929668D02*
X92121119Y-48929668D01*
X92121119Y-48929668D02*
X92121119Y-48596335D01*
X92121119Y-48596335D02*
X92168738Y-48501097D01*
X92168738Y-48501097D02*
X92216357Y-48453478D01*
X92216357Y-48453478D02*
X92311595Y-48405859D01*
X92311595Y-48405859D02*
X92406833Y-48405859D01*
X92406833Y-48405859D02*
X92502071Y-48453478D01*
X92502071Y-48453478D02*
X92549690Y-48501097D01*
X92549690Y-48501097D02*
X92597309Y-48596335D01*
X92597309Y-48596335D02*
X92597309Y-48929668D01*
X92835404Y-47977287D02*
X92835404Y-47501097D01*
X93121119Y-48072525D02*
X92121119Y-47739192D01*
X92121119Y-47739192D02*
X93121119Y-47405859D01*
X92121119Y-47215382D02*
X92121119Y-46643954D01*
X93121119Y-46929668D02*
X92121119Y-46929668D01*
X92740166Y-46310620D02*
X92740166Y-45548716D01*
D11*
X59090200Y-83088972D02*
X59066390Y-83017544D01*
X59066390Y-83017544D02*
X59066390Y-82898496D01*
X59066390Y-82898496D02*
X59090200Y-82850877D01*
X59090200Y-82850877D02*
X59114009Y-82827068D01*
X59114009Y-82827068D02*
X59161628Y-82803258D01*
X59161628Y-82803258D02*
X59209247Y-82803258D01*
X59209247Y-82803258D02*
X59256866Y-82827068D01*
X59256866Y-82827068D02*
X59280676Y-82850877D01*
X59280676Y-82850877D02*
X59304485Y-82898496D01*
X59304485Y-82898496D02*
X59328295Y-82993734D01*
X59328295Y-82993734D02*
X59352104Y-83041353D01*
X59352104Y-83041353D02*
X59375914Y-83065163D01*
X59375914Y-83065163D02*
X59423533Y-83088972D01*
X59423533Y-83088972D02*
X59471152Y-83088972D01*
X59471152Y-83088972D02*
X59518771Y-83065163D01*
X59518771Y-83065163D02*
X59542580Y-83041353D01*
X59542580Y-83041353D02*
X59566390Y-82993734D01*
X59566390Y-82993734D02*
X59566390Y-82874687D01*
X59566390Y-82874687D02*
X59542580Y-82803258D01*
X59114009Y-82303259D02*
X59090200Y-82327068D01*
X59090200Y-82327068D02*
X59066390Y-82398497D01*
X59066390Y-82398497D02*
X59066390Y-82446116D01*
X59066390Y-82446116D02*
X59090200Y-82517544D01*
X59090200Y-82517544D02*
X59137819Y-82565163D01*
X59137819Y-82565163D02*
X59185438Y-82588973D01*
X59185438Y-82588973D02*
X59280676Y-82612782D01*
X59280676Y-82612782D02*
X59352104Y-82612782D01*
X59352104Y-82612782D02*
X59447342Y-82588973D01*
X59447342Y-82588973D02*
X59494961Y-82565163D01*
X59494961Y-82565163D02*
X59542580Y-82517544D01*
X59542580Y-82517544D02*
X59566390Y-82446116D01*
X59566390Y-82446116D02*
X59566390Y-82398497D01*
X59566390Y-82398497D02*
X59542580Y-82327068D01*
X59542580Y-82327068D02*
X59518771Y-82303259D01*
X59066390Y-81803259D02*
X59304485Y-81969925D01*
X59066390Y-82088973D02*
X59566390Y-82088973D01*
X59566390Y-82088973D02*
X59566390Y-81898497D01*
X59566390Y-81898497D02*
X59542580Y-81850878D01*
X59542580Y-81850878D02*
X59518771Y-81827068D01*
X59518771Y-81827068D02*
X59471152Y-81803259D01*
X59471152Y-81803259D02*
X59399723Y-81803259D01*
X59399723Y-81803259D02*
X59352104Y-81827068D01*
X59352104Y-81827068D02*
X59328295Y-81850878D01*
X59328295Y-81850878D02*
X59304485Y-81898497D01*
X59304485Y-81898497D02*
X59304485Y-82088973D01*
X59328295Y-81588973D02*
X59328295Y-81422306D01*
X59066390Y-81350878D02*
X59066390Y-81588973D01*
X59066390Y-81588973D02*
X59566390Y-81588973D01*
X59566390Y-81588973D02*
X59566390Y-81350878D01*
X59328295Y-81136592D02*
X59328295Y-80969925D01*
X59066390Y-80898497D02*
X59066390Y-81136592D01*
X59066390Y-81136592D02*
X59566390Y-81136592D01*
X59566390Y-81136592D02*
X59566390Y-80898497D01*
X59066390Y-80684211D02*
X59566390Y-80684211D01*
X59566390Y-80684211D02*
X59066390Y-80398497D01*
X59066390Y-80398497D02*
X59566390Y-80398497D01*
X59090200Y-79803258D02*
X59066390Y-79731830D01*
X59066390Y-79731830D02*
X59066390Y-79612782D01*
X59066390Y-79612782D02*
X59090200Y-79565163D01*
X59090200Y-79565163D02*
X59114009Y-79541354D01*
X59114009Y-79541354D02*
X59161628Y-79517544D01*
X59161628Y-79517544D02*
X59209247Y-79517544D01*
X59209247Y-79517544D02*
X59256866Y-79541354D01*
X59256866Y-79541354D02*
X59280676Y-79565163D01*
X59280676Y-79565163D02*
X59304485Y-79612782D01*
X59304485Y-79612782D02*
X59328295Y-79708020D01*
X59328295Y-79708020D02*
X59352104Y-79755639D01*
X59352104Y-79755639D02*
X59375914Y-79779449D01*
X59375914Y-79779449D02*
X59423533Y-79803258D01*
X59423533Y-79803258D02*
X59471152Y-79803258D01*
X59471152Y-79803258D02*
X59518771Y-79779449D01*
X59518771Y-79779449D02*
X59542580Y-79755639D01*
X59542580Y-79755639D02*
X59566390Y-79708020D01*
X59566390Y-79708020D02*
X59566390Y-79588973D01*
X59566390Y-79588973D02*
X59542580Y-79517544D01*
X59114009Y-79017545D02*
X59090200Y-79041354D01*
X59090200Y-79041354D02*
X59066390Y-79112783D01*
X59066390Y-79112783D02*
X59066390Y-79160402D01*
X59066390Y-79160402D02*
X59090200Y-79231830D01*
X59090200Y-79231830D02*
X59137819Y-79279449D01*
X59137819Y-79279449D02*
X59185438Y-79303259D01*
X59185438Y-79303259D02*
X59280676Y-79327068D01*
X59280676Y-79327068D02*
X59352104Y-79327068D01*
X59352104Y-79327068D02*
X59447342Y-79303259D01*
X59447342Y-79303259D02*
X59494961Y-79279449D01*
X59494961Y-79279449D02*
X59542580Y-79231830D01*
X59542580Y-79231830D02*
X59566390Y-79160402D01*
X59566390Y-79160402D02*
X59566390Y-79112783D01*
X59566390Y-79112783D02*
X59542580Y-79041354D01*
X59542580Y-79041354D02*
X59518771Y-79017545D01*
X59066390Y-78565164D02*
X59066390Y-78803259D01*
X59066390Y-78803259D02*
X59566390Y-78803259D01*
X54066390Y-83065163D02*
X54566390Y-83065163D01*
X54566390Y-83065163D02*
X54566390Y-82874687D01*
X54566390Y-82874687D02*
X54542580Y-82827068D01*
X54542580Y-82827068D02*
X54518771Y-82803258D01*
X54518771Y-82803258D02*
X54471152Y-82779449D01*
X54471152Y-82779449D02*
X54399723Y-82779449D01*
X54399723Y-82779449D02*
X54352104Y-82803258D01*
X54352104Y-82803258D02*
X54328295Y-82827068D01*
X54328295Y-82827068D02*
X54304485Y-82874687D01*
X54304485Y-82874687D02*
X54304485Y-83065163D01*
X54066390Y-82565163D02*
X54566390Y-82565163D01*
X54566390Y-82565163D02*
X54066390Y-82279449D01*
X54066390Y-82279449D02*
X54566390Y-82279449D01*
X54566390Y-81803258D02*
X54566390Y-82041353D01*
X54566390Y-82041353D02*
X54328295Y-82065162D01*
X54328295Y-82065162D02*
X54352104Y-82041353D01*
X54352104Y-82041353D02*
X54375914Y-81993734D01*
X54375914Y-81993734D02*
X54375914Y-81874686D01*
X54375914Y-81874686D02*
X54352104Y-81827067D01*
X54352104Y-81827067D02*
X54328295Y-81803258D01*
X54328295Y-81803258D02*
X54280676Y-81779448D01*
X54280676Y-81779448D02*
X54161628Y-81779448D01*
X54161628Y-81779448D02*
X54114009Y-81803258D01*
X54114009Y-81803258D02*
X54090200Y-81827067D01*
X54090200Y-81827067D02*
X54066390Y-81874686D01*
X54066390Y-81874686D02*
X54066390Y-81993734D01*
X54066390Y-81993734D02*
X54090200Y-82041353D01*
X54090200Y-82041353D02*
X54114009Y-82065162D01*
X54566390Y-81612782D02*
X54566390Y-81303258D01*
X54566390Y-81303258D02*
X54375914Y-81469925D01*
X54375914Y-81469925D02*
X54375914Y-81398496D01*
X54375914Y-81398496D02*
X54352104Y-81350877D01*
X54352104Y-81350877D02*
X54328295Y-81327068D01*
X54328295Y-81327068D02*
X54280676Y-81303258D01*
X54280676Y-81303258D02*
X54161628Y-81303258D01*
X54161628Y-81303258D02*
X54114009Y-81327068D01*
X54114009Y-81327068D02*
X54090200Y-81350877D01*
X54090200Y-81350877D02*
X54066390Y-81398496D01*
X54066390Y-81398496D02*
X54066390Y-81541353D01*
X54066390Y-81541353D02*
X54090200Y-81588972D01*
X54090200Y-81588972D02*
X54114009Y-81612782D01*
X54518771Y-81112782D02*
X54542580Y-81088973D01*
X54542580Y-81088973D02*
X54566390Y-81041354D01*
X54566390Y-81041354D02*
X54566390Y-80922306D01*
X54566390Y-80922306D02*
X54542580Y-80874687D01*
X54542580Y-80874687D02*
X54518771Y-80850878D01*
X54518771Y-80850878D02*
X54471152Y-80827068D01*
X54471152Y-80827068D02*
X54423533Y-80827068D01*
X54423533Y-80827068D02*
X54352104Y-80850878D01*
X54352104Y-80850878D02*
X54066390Y-81136592D01*
X54066390Y-81136592D02*
X54066390Y-80827068D01*
X54090200Y-80255640D02*
X54066390Y-80184212D01*
X54066390Y-80184212D02*
X54066390Y-80065164D01*
X54066390Y-80065164D02*
X54090200Y-80017545D01*
X54090200Y-80017545D02*
X54114009Y-79993736D01*
X54114009Y-79993736D02*
X54161628Y-79969926D01*
X54161628Y-79969926D02*
X54209247Y-79969926D01*
X54209247Y-79969926D02*
X54256866Y-79993736D01*
X54256866Y-79993736D02*
X54280676Y-80017545D01*
X54280676Y-80017545D02*
X54304485Y-80065164D01*
X54304485Y-80065164D02*
X54328295Y-80160402D01*
X54328295Y-80160402D02*
X54352104Y-80208021D01*
X54352104Y-80208021D02*
X54375914Y-80231831D01*
X54375914Y-80231831D02*
X54423533Y-80255640D01*
X54423533Y-80255640D02*
X54471152Y-80255640D01*
X54471152Y-80255640D02*
X54518771Y-80231831D01*
X54518771Y-80231831D02*
X54542580Y-80208021D01*
X54542580Y-80208021D02*
X54566390Y-80160402D01*
X54566390Y-80160402D02*
X54566390Y-80041355D01*
X54566390Y-80041355D02*
X54542580Y-79969926D01*
X54066390Y-79755641D02*
X54566390Y-79755641D01*
X54566390Y-79755641D02*
X54566390Y-79636593D01*
X54566390Y-79636593D02*
X54542580Y-79565165D01*
X54542580Y-79565165D02*
X54494961Y-79517546D01*
X54494961Y-79517546D02*
X54447342Y-79493736D01*
X54447342Y-79493736D02*
X54352104Y-79469927D01*
X54352104Y-79469927D02*
X54280676Y-79469927D01*
X54280676Y-79469927D02*
X54185438Y-79493736D01*
X54185438Y-79493736D02*
X54137819Y-79517546D01*
X54137819Y-79517546D02*
X54090200Y-79565165D01*
X54090200Y-79565165D02*
X54066390Y-79636593D01*
X54066390Y-79636593D02*
X54066390Y-79755641D01*
X54209247Y-79279450D02*
X54209247Y-79041355D01*
X54066390Y-79327069D02*
X54566390Y-79160403D01*
X54566390Y-79160403D02*
X54066390Y-78993736D01*
X93053258Y-65433609D02*
X93338972Y-65433609D01*
X93196115Y-65433609D02*
X93196115Y-64933609D01*
X93196115Y-64933609D02*
X93243734Y-65005038D01*
X93243734Y-65005038D02*
X93291353Y-65052657D01*
X93291353Y-65052657D02*
X93338972Y-65076466D01*
X92838973Y-65385990D02*
X92815163Y-65409800D01*
X92815163Y-65409800D02*
X92838973Y-65433609D01*
X92838973Y-65433609D02*
X92862782Y-65409800D01*
X92862782Y-65409800D02*
X92838973Y-65385990D01*
X92838973Y-65385990D02*
X92838973Y-65433609D01*
X92624687Y-64981228D02*
X92600878Y-64957419D01*
X92600878Y-64957419D02*
X92553259Y-64933609D01*
X92553259Y-64933609D02*
X92434211Y-64933609D01*
X92434211Y-64933609D02*
X92386592Y-64957419D01*
X92386592Y-64957419D02*
X92362783Y-64981228D01*
X92362783Y-64981228D02*
X92338973Y-65028847D01*
X92338973Y-65028847D02*
X92338973Y-65076466D01*
X92338973Y-65076466D02*
X92362783Y-65147895D01*
X92362783Y-65147895D02*
X92648497Y-65433609D01*
X92648497Y-65433609D02*
X92338973Y-65433609D01*
X92124688Y-65433609D02*
X92124688Y-64933609D01*
X92077069Y-65243133D02*
X91934212Y-65433609D01*
X91934212Y-65100276D02*
X92124688Y-65290752D01*
X91743735Y-65433609D02*
X91624688Y-65433609D01*
X91624688Y-65433609D02*
X91624688Y-65338371D01*
X91624688Y-65338371D02*
X91672307Y-65314561D01*
X91672307Y-65314561D02*
X91719926Y-65266942D01*
X91719926Y-65266942D02*
X91743735Y-65195514D01*
X91743735Y-65195514D02*
X91743735Y-65076466D01*
X91743735Y-65076466D02*
X91719926Y-65005038D01*
X91719926Y-65005038D02*
X91672307Y-64957419D01*
X91672307Y-64957419D02*
X91600878Y-64933609D01*
X91600878Y-64933609D02*
X91505640Y-64933609D01*
X91505640Y-64933609D02*
X91434212Y-64957419D01*
X91434212Y-64957419D02*
X91386593Y-65005038D01*
X91386593Y-65005038D02*
X91362783Y-65076466D01*
X91362783Y-65076466D02*
X91362783Y-65195514D01*
X91362783Y-65195514D02*
X91386593Y-65266942D01*
X91386593Y-65266942D02*
X91434212Y-65314561D01*
X91434212Y-65314561D02*
X91481831Y-65338371D01*
X91481831Y-65338371D02*
X91481831Y-65433609D01*
X91481831Y-65433609D02*
X91362783Y-65433609D01*
D14*
X102084819Y-53023333D02*
X101608628Y-52690000D01*
X102084819Y-52451905D02*
X101084819Y-52451905D01*
X101084819Y-52451905D02*
X101084819Y-52832857D01*
X101084819Y-52832857D02*
X101132438Y-52928095D01*
X101132438Y-52928095D02*
X101180057Y-52975714D01*
X101180057Y-52975714D02*
X101275295Y-53023333D01*
X101275295Y-53023333D02*
X101418152Y-53023333D01*
X101418152Y-53023333D02*
X101513390Y-52975714D01*
X101513390Y-52975714D02*
X101561009Y-52928095D01*
X101561009Y-52928095D02*
X101608628Y-52832857D01*
X101608628Y-52832857D02*
X101608628Y-52451905D01*
X101084819Y-53928095D02*
X101084819Y-53451905D01*
X101084819Y-53451905D02*
X101561009Y-53404286D01*
X101561009Y-53404286D02*
X101513390Y-53451905D01*
X101513390Y-53451905D02*
X101465771Y-53547143D01*
X101465771Y-53547143D02*
X101465771Y-53785238D01*
X101465771Y-53785238D02*
X101513390Y-53880476D01*
X101513390Y-53880476D02*
X101561009Y-53928095D01*
X101561009Y-53928095D02*
X101656247Y-53975714D01*
X101656247Y-53975714D02*
X101894342Y-53975714D01*
X101894342Y-53975714D02*
X101989580Y-53928095D01*
X101989580Y-53928095D02*
X102037200Y-53880476D01*
X102037200Y-53880476D02*
X102084819Y-53785238D01*
X102084819Y-53785238D02*
X102084819Y-53547143D01*
X102084819Y-53547143D02*
X102037200Y-53451905D01*
X102037200Y-53451905D02*
X101989580Y-53404286D01*
X106718094Y-75994819D02*
X106718094Y-74994819D01*
X106718094Y-74994819D02*
X106479999Y-74994819D01*
X106479999Y-74994819D02*
X106337142Y-75042438D01*
X106337142Y-75042438D02*
X106241904Y-75137676D01*
X106241904Y-75137676D02*
X106194285Y-75232914D01*
X106194285Y-75232914D02*
X106146666Y-75423390D01*
X106146666Y-75423390D02*
X106146666Y-75566247D01*
X106146666Y-75566247D02*
X106194285Y-75756723D01*
X106194285Y-75756723D02*
X106241904Y-75851961D01*
X106241904Y-75851961D02*
X106337142Y-75947200D01*
X106337142Y-75947200D02*
X106479999Y-75994819D01*
X106479999Y-75994819D02*
X106718094Y-75994819D01*
X105813332Y-74994819D02*
X105194285Y-74994819D01*
X105194285Y-74994819D02*
X105527618Y-75375771D01*
X105527618Y-75375771D02*
X105384761Y-75375771D01*
X105384761Y-75375771D02*
X105289523Y-75423390D01*
X105289523Y-75423390D02*
X105241904Y-75471009D01*
X105241904Y-75471009D02*
X105194285Y-75566247D01*
X105194285Y-75566247D02*
X105194285Y-75804342D01*
X105194285Y-75804342D02*
X105241904Y-75899580D01*
X105241904Y-75899580D02*
X105289523Y-75947200D01*
X105289523Y-75947200D02*
X105384761Y-75994819D01*
X105384761Y-75994819D02*
X105670475Y-75994819D01*
X105670475Y-75994819D02*
X105765713Y-75947200D01*
X105765713Y-75947200D02*
X105813332Y-75899580D01*
X108670476Y-83914819D02*
X108670476Y-83248152D01*
X108670476Y-83438628D02*
X108622857Y-83343390D01*
X108622857Y-83343390D02*
X108575238Y-83295771D01*
X108575238Y-83295771D02*
X108480000Y-83248152D01*
X108480000Y-83248152D02*
X108384762Y-83248152D01*
X107670476Y-83867200D02*
X107765714Y-83914819D01*
X107765714Y-83914819D02*
X107956190Y-83914819D01*
X107956190Y-83914819D02*
X108051428Y-83867200D01*
X108051428Y-83867200D02*
X108099047Y-83771961D01*
X108099047Y-83771961D02*
X108099047Y-83391009D01*
X108099047Y-83391009D02*
X108051428Y-83295771D01*
X108051428Y-83295771D02*
X107956190Y-83248152D01*
X107956190Y-83248152D02*
X107765714Y-83248152D01*
X107765714Y-83248152D02*
X107670476Y-83295771D01*
X107670476Y-83295771D02*
X107622857Y-83391009D01*
X107622857Y-83391009D02*
X107622857Y-83486247D01*
X107622857Y-83486247D02*
X108099047Y-83581485D01*
X106765714Y-83914819D02*
X106765714Y-82914819D01*
X106765714Y-83867200D02*
X106860952Y-83914819D01*
X106860952Y-83914819D02*
X107051428Y-83914819D01*
X107051428Y-83914819D02*
X107146666Y-83867200D01*
X107146666Y-83867200D02*
X107194285Y-83819580D01*
X107194285Y-83819580D02*
X107241904Y-83724342D01*
X107241904Y-83724342D02*
X107241904Y-83438628D01*
X107241904Y-83438628D02*
X107194285Y-83343390D01*
X107194285Y-83343390D02*
X107146666Y-83295771D01*
X107146666Y-83295771D02*
X107051428Y-83248152D01*
X107051428Y-83248152D02*
X106860952Y-83248152D01*
X106860952Y-83248152D02*
X106765714Y-83295771D01*
X105051428Y-83914819D02*
X105527618Y-83914819D01*
X105527618Y-83914819D02*
X105527618Y-82914819D01*
X104718094Y-83391009D02*
X104384761Y-83391009D01*
X104241904Y-83914819D02*
X104718094Y-83914819D01*
X104718094Y-83914819D02*
X104718094Y-82914819D01*
X104718094Y-82914819D02*
X104241904Y-82914819D01*
X103813332Y-83914819D02*
X103813332Y-82914819D01*
X103813332Y-82914819D02*
X103575237Y-82914819D01*
X103575237Y-82914819D02*
X103432380Y-82962438D01*
X103432380Y-82962438D02*
X103337142Y-83057676D01*
X103337142Y-83057676D02*
X103289523Y-83152914D01*
X103289523Y-83152914D02*
X103241904Y-83343390D01*
X103241904Y-83343390D02*
X103241904Y-83486247D01*
X103241904Y-83486247D02*
X103289523Y-83676723D01*
X103289523Y-83676723D02*
X103337142Y-83771961D01*
X103337142Y-83771961D02*
X103432380Y-83867200D01*
X103432380Y-83867200D02*
X103575237Y-83914819D01*
X103575237Y-83914819D02*
X103813332Y-83914819D01*
X92104819Y-67738095D02*
X92914342Y-67738095D01*
X92914342Y-67738095D02*
X93009580Y-67785714D01*
X93009580Y-67785714D02*
X93057200Y-67833333D01*
X93057200Y-67833333D02*
X93104819Y-67928571D01*
X93104819Y-67928571D02*
X93104819Y-68119047D01*
X93104819Y-68119047D02*
X93057200Y-68214285D01*
X93057200Y-68214285D02*
X93009580Y-68261904D01*
X93009580Y-68261904D02*
X92914342Y-68309523D01*
X92914342Y-68309523D02*
X92104819Y-68309523D01*
X92438152Y-69214285D02*
X93104819Y-69214285D01*
X92057200Y-68976190D02*
X92771485Y-68738095D01*
X92771485Y-68738095D02*
X92771485Y-69357142D01*
X48106666Y-34074819D02*
X48439999Y-33598628D01*
X48678094Y-34074819D02*
X48678094Y-33074819D01*
X48678094Y-33074819D02*
X48297142Y-33074819D01*
X48297142Y-33074819D02*
X48201904Y-33122438D01*
X48201904Y-33122438D02*
X48154285Y-33170057D01*
X48154285Y-33170057D02*
X48106666Y-33265295D01*
X48106666Y-33265295D02*
X48106666Y-33408152D01*
X48106666Y-33408152D02*
X48154285Y-33503390D01*
X48154285Y-33503390D02*
X48201904Y-33551009D01*
X48201904Y-33551009D02*
X48297142Y-33598628D01*
X48297142Y-33598628D02*
X48678094Y-33598628D01*
X47154285Y-34074819D02*
X47725713Y-34074819D01*
X47439999Y-34074819D02*
X47439999Y-33074819D01*
X47439999Y-33074819D02*
X47535237Y-33217676D01*
X47535237Y-33217676D02*
X47630475Y-33312914D01*
X47630475Y-33312914D02*
X47725713Y-33360533D01*
X103334819Y-63083333D02*
X102858628Y-62750000D01*
X103334819Y-62511905D02*
X102334819Y-62511905D01*
X102334819Y-62511905D02*
X102334819Y-62892857D01*
X102334819Y-62892857D02*
X102382438Y-62988095D01*
X102382438Y-62988095D02*
X102430057Y-63035714D01*
X102430057Y-63035714D02*
X102525295Y-63083333D01*
X102525295Y-63083333D02*
X102668152Y-63083333D01*
X102668152Y-63083333D02*
X102763390Y-63035714D01*
X102763390Y-63035714D02*
X102811009Y-62988095D01*
X102811009Y-62988095D02*
X102858628Y-62892857D01*
X102858628Y-62892857D02*
X102858628Y-62511905D01*
X102334819Y-63416667D02*
X102334819Y-64035714D01*
X102334819Y-64035714D02*
X102715771Y-63702381D01*
X102715771Y-63702381D02*
X102715771Y-63845238D01*
X102715771Y-63845238D02*
X102763390Y-63940476D01*
X102763390Y-63940476D02*
X102811009Y-63988095D01*
X102811009Y-63988095D02*
X102906247Y-64035714D01*
X102906247Y-64035714D02*
X103144342Y-64035714D01*
X103144342Y-64035714D02*
X103239580Y-63988095D01*
X103239580Y-63988095D02*
X103287200Y-63940476D01*
X103287200Y-63940476D02*
X103334819Y-63845238D01*
X103334819Y-63845238D02*
X103334819Y-63559524D01*
X103334819Y-63559524D02*
X103287200Y-63464286D01*
X103287200Y-63464286D02*
X103239580Y-63416667D01*
X105334819Y-53023333D02*
X104858628Y-52690000D01*
X105334819Y-52451905D02*
X104334819Y-52451905D01*
X104334819Y-52451905D02*
X104334819Y-52832857D01*
X104334819Y-52832857D02*
X104382438Y-52928095D01*
X104382438Y-52928095D02*
X104430057Y-52975714D01*
X104430057Y-52975714D02*
X104525295Y-53023333D01*
X104525295Y-53023333D02*
X104668152Y-53023333D01*
X104668152Y-53023333D02*
X104763390Y-52975714D01*
X104763390Y-52975714D02*
X104811009Y-52928095D01*
X104811009Y-52928095D02*
X104858628Y-52832857D01*
X104858628Y-52832857D02*
X104858628Y-52451905D01*
X104668152Y-53880476D02*
X105334819Y-53880476D01*
X104287200Y-53642381D02*
X105001485Y-53404286D01*
X105001485Y-53404286D02*
X105001485Y-54023333D01*
X86479580Y-73583333D02*
X86527200Y-73535714D01*
X86527200Y-73535714D02*
X86574819Y-73392857D01*
X86574819Y-73392857D02*
X86574819Y-73297619D01*
X86574819Y-73297619D02*
X86527200Y-73154762D01*
X86527200Y-73154762D02*
X86431961Y-73059524D01*
X86431961Y-73059524D02*
X86336723Y-73011905D01*
X86336723Y-73011905D02*
X86146247Y-72964286D01*
X86146247Y-72964286D02*
X86003390Y-72964286D01*
X86003390Y-72964286D02*
X85812914Y-73011905D01*
X85812914Y-73011905D02*
X85717676Y-73059524D01*
X85717676Y-73059524D02*
X85622438Y-73154762D01*
X85622438Y-73154762D02*
X85574819Y-73297619D01*
X85574819Y-73297619D02*
X85574819Y-73392857D01*
X85574819Y-73392857D02*
X85622438Y-73535714D01*
X85622438Y-73535714D02*
X85670057Y-73583333D01*
X85670057Y-73964286D02*
X85622438Y-74011905D01*
X85622438Y-74011905D02*
X85574819Y-74107143D01*
X85574819Y-74107143D02*
X85574819Y-74345238D01*
X85574819Y-74345238D02*
X85622438Y-74440476D01*
X85622438Y-74440476D02*
X85670057Y-74488095D01*
X85670057Y-74488095D02*
X85765295Y-74535714D01*
X85765295Y-74535714D02*
X85860533Y-74535714D01*
X85860533Y-74535714D02*
X86003390Y-74488095D01*
X86003390Y-74488095D02*
X86574819Y-73916667D01*
X86574819Y-73916667D02*
X86574819Y-74535714D01*
X45642856Y-29854819D02*
X45642856Y-30664342D01*
X45642856Y-30664342D02*
X45595237Y-30759580D01*
X45595237Y-30759580D02*
X45547618Y-30807200D01*
X45547618Y-30807200D02*
X45452380Y-30854819D01*
X45452380Y-30854819D02*
X45261904Y-30854819D01*
X45261904Y-30854819D02*
X45166666Y-30807200D01*
X45166666Y-30807200D02*
X45119047Y-30759580D01*
X45119047Y-30759580D02*
X45071428Y-30664342D01*
X45071428Y-30664342D02*
X45071428Y-29854819D01*
X44833333Y-30950057D02*
X44071428Y-30950057D01*
X43880951Y-29950057D02*
X43833332Y-29902438D01*
X43833332Y-29902438D02*
X43738094Y-29854819D01*
X43738094Y-29854819D02*
X43499999Y-29854819D01*
X43499999Y-29854819D02*
X43404761Y-29902438D01*
X43404761Y-29902438D02*
X43357142Y-29950057D01*
X43357142Y-29950057D02*
X43309523Y-30045295D01*
X43309523Y-30045295D02*
X43309523Y-30140533D01*
X43309523Y-30140533D02*
X43357142Y-30283390D01*
X43357142Y-30283390D02*
X43928570Y-30854819D01*
X43928570Y-30854819D02*
X43309523Y-30854819D01*
X49356666Y-33334819D02*
X49689999Y-32858628D01*
X49928094Y-33334819D02*
X49928094Y-32334819D01*
X49928094Y-32334819D02*
X49547142Y-32334819D01*
X49547142Y-32334819D02*
X49451904Y-32382438D01*
X49451904Y-32382438D02*
X49404285Y-32430057D01*
X49404285Y-32430057D02*
X49356666Y-32525295D01*
X49356666Y-32525295D02*
X49356666Y-32668152D01*
X49356666Y-32668152D02*
X49404285Y-32763390D01*
X49404285Y-32763390D02*
X49451904Y-32811009D01*
X49451904Y-32811009D02*
X49547142Y-32858628D01*
X49547142Y-32858628D02*
X49928094Y-32858628D01*
X48975713Y-32430057D02*
X48928094Y-32382438D01*
X48928094Y-32382438D02*
X48832856Y-32334819D01*
X48832856Y-32334819D02*
X48594761Y-32334819D01*
X48594761Y-32334819D02*
X48499523Y-32382438D01*
X48499523Y-32382438D02*
X48451904Y-32430057D01*
X48451904Y-32430057D02*
X48404285Y-32525295D01*
X48404285Y-32525295D02*
X48404285Y-32620533D01*
X48404285Y-32620533D02*
X48451904Y-32763390D01*
X48451904Y-32763390D02*
X49023332Y-33334819D01*
X49023332Y-33334819D02*
X48404285Y-33334819D01*
X54200057Y-38154761D02*
X54152438Y-38059523D01*
X54152438Y-38059523D02*
X54057200Y-37964285D01*
X54057200Y-37964285D02*
X53914342Y-37821428D01*
X53914342Y-37821428D02*
X53866723Y-37726190D01*
X53866723Y-37726190D02*
X53866723Y-37630952D01*
X54104819Y-37678571D02*
X54057200Y-37583333D01*
X54057200Y-37583333D02*
X53961961Y-37488095D01*
X53961961Y-37488095D02*
X53771485Y-37440476D01*
X53771485Y-37440476D02*
X53438152Y-37440476D01*
X53438152Y-37440476D02*
X53247676Y-37488095D01*
X53247676Y-37488095D02*
X53152438Y-37583333D01*
X53152438Y-37583333D02*
X53104819Y-37678571D01*
X53104819Y-37678571D02*
X53104819Y-37869047D01*
X53104819Y-37869047D02*
X53152438Y-37964285D01*
X53152438Y-37964285D02*
X53247676Y-38059523D01*
X53247676Y-38059523D02*
X53438152Y-38107142D01*
X53438152Y-38107142D02*
X53771485Y-38107142D01*
X53771485Y-38107142D02*
X53961961Y-38059523D01*
X53961961Y-38059523D02*
X54057200Y-37964285D01*
X54057200Y-37964285D02*
X54104819Y-37869047D01*
X54104819Y-37869047D02*
X54104819Y-37678571D01*
X54104819Y-39059523D02*
X54104819Y-38488095D01*
X54104819Y-38773809D02*
X53104819Y-38773809D01*
X53104819Y-38773809D02*
X53247676Y-38678571D01*
X53247676Y-38678571D02*
X53342914Y-38583333D01*
X53342914Y-38583333D02*
X53390533Y-38488095D01*
X57008094Y-25744819D02*
X57008094Y-24744819D01*
X57008094Y-24744819D02*
X56769999Y-24744819D01*
X56769999Y-24744819D02*
X56627142Y-24792438D01*
X56627142Y-24792438D02*
X56531904Y-24887676D01*
X56531904Y-24887676D02*
X56484285Y-24982914D01*
X56484285Y-24982914D02*
X56436666Y-25173390D01*
X56436666Y-25173390D02*
X56436666Y-25316247D01*
X56436666Y-25316247D02*
X56484285Y-25506723D01*
X56484285Y-25506723D02*
X56531904Y-25601961D01*
X56531904Y-25601961D02*
X56627142Y-25697200D01*
X56627142Y-25697200D02*
X56769999Y-25744819D01*
X56769999Y-25744819D02*
X57008094Y-25744819D01*
X55484285Y-25744819D02*
X56055713Y-25744819D01*
X55769999Y-25744819D02*
X55769999Y-24744819D01*
X55769999Y-24744819D02*
X55865237Y-24887676D01*
X55865237Y-24887676D02*
X55960475Y-24982914D01*
X55960475Y-24982914D02*
X56055713Y-25030533D01*
X74333333Y-59324819D02*
X74333333Y-60039104D01*
X74333333Y-60039104D02*
X74380952Y-60181961D01*
X74380952Y-60181961D02*
X74476190Y-60277200D01*
X74476190Y-60277200D02*
X74619047Y-60324819D01*
X74619047Y-60324819D02*
X74714285Y-60324819D01*
X73333333Y-60324819D02*
X73904761Y-60324819D01*
X73619047Y-60324819D02*
X73619047Y-59324819D01*
X73619047Y-59324819D02*
X73714285Y-59467676D01*
X73714285Y-59467676D02*
X73809523Y-59562914D01*
X73809523Y-59562914D02*
X73904761Y-59610533D01*
X106468094Y-69494819D02*
X106468094Y-68494819D01*
X106468094Y-68494819D02*
X106229999Y-68494819D01*
X106229999Y-68494819D02*
X106087142Y-68542438D01*
X106087142Y-68542438D02*
X105991904Y-68637676D01*
X105991904Y-68637676D02*
X105944285Y-68732914D01*
X105944285Y-68732914D02*
X105896666Y-68923390D01*
X105896666Y-68923390D02*
X105896666Y-69066247D01*
X105896666Y-69066247D02*
X105944285Y-69256723D01*
X105944285Y-69256723D02*
X105991904Y-69351961D01*
X105991904Y-69351961D02*
X106087142Y-69447200D01*
X106087142Y-69447200D02*
X106229999Y-69494819D01*
X106229999Y-69494819D02*
X106468094Y-69494819D01*
X105515713Y-68590057D02*
X105468094Y-68542438D01*
X105468094Y-68542438D02*
X105372856Y-68494819D01*
X105372856Y-68494819D02*
X105134761Y-68494819D01*
X105134761Y-68494819D02*
X105039523Y-68542438D01*
X105039523Y-68542438D02*
X104991904Y-68590057D01*
X104991904Y-68590057D02*
X104944285Y-68685295D01*
X104944285Y-68685295D02*
X104944285Y-68780533D01*
X104944285Y-68780533D02*
X104991904Y-68923390D01*
X104991904Y-68923390D02*
X105563332Y-69494819D01*
X105563332Y-69494819D02*
X104944285Y-69494819D01*
X108872857Y-76748152D02*
X108872857Y-77557676D01*
X108872857Y-77557676D02*
X108920476Y-77652914D01*
X108920476Y-77652914D02*
X108968095Y-77700533D01*
X108968095Y-77700533D02*
X109063333Y-77748152D01*
X109063333Y-77748152D02*
X109206190Y-77748152D01*
X109206190Y-77748152D02*
X109301428Y-77700533D01*
X108872857Y-77367200D02*
X108968095Y-77414819D01*
X108968095Y-77414819D02*
X109158571Y-77414819D01*
X109158571Y-77414819D02*
X109253809Y-77367200D01*
X109253809Y-77367200D02*
X109301428Y-77319580D01*
X109301428Y-77319580D02*
X109349047Y-77224342D01*
X109349047Y-77224342D02*
X109349047Y-76938628D01*
X109349047Y-76938628D02*
X109301428Y-76843390D01*
X109301428Y-76843390D02*
X109253809Y-76795771D01*
X109253809Y-76795771D02*
X109158571Y-76748152D01*
X109158571Y-76748152D02*
X108968095Y-76748152D01*
X108968095Y-76748152D02*
X108872857Y-76795771D01*
X108396666Y-77414819D02*
X108396666Y-76748152D01*
X108396666Y-76938628D02*
X108349047Y-76843390D01*
X108349047Y-76843390D02*
X108301428Y-76795771D01*
X108301428Y-76795771D02*
X108206190Y-76748152D01*
X108206190Y-76748152D02*
X108110952Y-76748152D01*
X107396666Y-77367200D02*
X107491904Y-77414819D01*
X107491904Y-77414819D02*
X107682380Y-77414819D01*
X107682380Y-77414819D02*
X107777618Y-77367200D01*
X107777618Y-77367200D02*
X107825237Y-77271961D01*
X107825237Y-77271961D02*
X107825237Y-76891009D01*
X107825237Y-76891009D02*
X107777618Y-76795771D01*
X107777618Y-76795771D02*
X107682380Y-76748152D01*
X107682380Y-76748152D02*
X107491904Y-76748152D01*
X107491904Y-76748152D02*
X107396666Y-76795771D01*
X107396666Y-76795771D02*
X107349047Y-76891009D01*
X107349047Y-76891009D02*
X107349047Y-76986247D01*
X107349047Y-76986247D02*
X107825237Y-77081485D01*
X106539523Y-77367200D02*
X106634761Y-77414819D01*
X106634761Y-77414819D02*
X106825237Y-77414819D01*
X106825237Y-77414819D02*
X106920475Y-77367200D01*
X106920475Y-77367200D02*
X106968094Y-77271961D01*
X106968094Y-77271961D02*
X106968094Y-76891009D01*
X106968094Y-76891009D02*
X106920475Y-76795771D01*
X106920475Y-76795771D02*
X106825237Y-76748152D01*
X106825237Y-76748152D02*
X106634761Y-76748152D01*
X106634761Y-76748152D02*
X106539523Y-76795771D01*
X106539523Y-76795771D02*
X106491904Y-76891009D01*
X106491904Y-76891009D02*
X106491904Y-76986247D01*
X106491904Y-76986247D02*
X106968094Y-77081485D01*
X106063332Y-76748152D02*
X106063332Y-77414819D01*
X106063332Y-76843390D02*
X106015713Y-76795771D01*
X106015713Y-76795771D02*
X105920475Y-76748152D01*
X105920475Y-76748152D02*
X105777618Y-76748152D01*
X105777618Y-76748152D02*
X105682380Y-76795771D01*
X105682380Y-76795771D02*
X105634761Y-76891009D01*
X105634761Y-76891009D02*
X105634761Y-77414819D01*
X103920475Y-77414819D02*
X104396665Y-77414819D01*
X104396665Y-77414819D02*
X104396665Y-76414819D01*
X103587141Y-76891009D02*
X103253808Y-76891009D01*
X103110951Y-77414819D02*
X103587141Y-77414819D01*
X103587141Y-77414819D02*
X103587141Y-76414819D01*
X103587141Y-76414819D02*
X103110951Y-76414819D01*
X102682379Y-77414819D02*
X102682379Y-76414819D01*
X102682379Y-76414819D02*
X102444284Y-76414819D01*
X102444284Y-76414819D02*
X102301427Y-76462438D01*
X102301427Y-76462438D02*
X102206189Y-76557676D01*
X102206189Y-76557676D02*
X102158570Y-76652914D01*
X102158570Y-76652914D02*
X102110951Y-76843390D01*
X102110951Y-76843390D02*
X102110951Y-76986247D01*
X102110951Y-76986247D02*
X102158570Y-77176723D01*
X102158570Y-77176723D02*
X102206189Y-77271961D01*
X102206189Y-77271961D02*
X102301427Y-77367200D01*
X102301427Y-77367200D02*
X102444284Y-77414819D01*
X102444284Y-77414819D02*
X102682379Y-77414819D01*
X79489580Y-56083333D02*
X79537200Y-56035714D01*
X79537200Y-56035714D02*
X79584819Y-55892857D01*
X79584819Y-55892857D02*
X79584819Y-55797619D01*
X79584819Y-55797619D02*
X79537200Y-55654762D01*
X79537200Y-55654762D02*
X79441961Y-55559524D01*
X79441961Y-55559524D02*
X79346723Y-55511905D01*
X79346723Y-55511905D02*
X79156247Y-55464286D01*
X79156247Y-55464286D02*
X79013390Y-55464286D01*
X79013390Y-55464286D02*
X78822914Y-55511905D01*
X78822914Y-55511905D02*
X78727676Y-55559524D01*
X78727676Y-55559524D02*
X78632438Y-55654762D01*
X78632438Y-55654762D02*
X78584819Y-55797619D01*
X78584819Y-55797619D02*
X78584819Y-55892857D01*
X78584819Y-55892857D02*
X78632438Y-56035714D01*
X78632438Y-56035714D02*
X78680057Y-56083333D01*
X79584819Y-57035714D02*
X79584819Y-56464286D01*
X79584819Y-56750000D02*
X78584819Y-56750000D01*
X78584819Y-56750000D02*
X78727676Y-56654762D01*
X78727676Y-56654762D02*
X78822914Y-56559524D01*
X78822914Y-56559524D02*
X78870533Y-56464286D01*
D15*
%TO.C,R5*%
X102630000Y-49920000D02*
X102630000Y-56460000D01*
X102630000Y-56460000D02*
X102960000Y-56460000D01*
X102960000Y-49920000D02*
X102630000Y-49920000D01*
X105040000Y-49920000D02*
X105370000Y-49920000D01*
X105370000Y-49920000D02*
X105370000Y-56460000D01*
X105370000Y-56460000D02*
X105040000Y-56460000D01*
%TO.C,D3*%
X108540000Y-77955000D02*
X108540000Y-81045000D01*
X102990000Y-79500000D02*
G75*
G02*
X108540000Y-77955170I2990000J0D01*
G01*
X108540000Y-81044830D02*
G75*
G02*
X102990000Y-79500000I-2560000J1544830D01*
G01*
X108480000Y-79500000D02*
G75*
G02*
X103480000Y-79500000I-2500000J0D01*
G01*
X103480000Y-79500000D02*
G75*
G02*
X108480000Y-79500000I2500000J0D01*
G01*
%TO.C,U4*%
X85150000Y-85800000D02*
X85150000Y-50800000D01*
X86150000Y-49800000D02*
X85150000Y-50800000D01*
X86150000Y-86800000D02*
X85150000Y-85800000D01*
X101150000Y-49800000D02*
X86150000Y-49800000D01*
X101150000Y-86800000D02*
X86150000Y-86800000D01*
X101150000Y-86800000D02*
X102150000Y-85800000D01*
X102150000Y-50800000D02*
X101150000Y-49800000D01*
X102150000Y-85800000D02*
X102150000Y-50800000D01*
%TO.C,R1*%
X44670000Y-29880000D02*
X51210000Y-29880000D01*
X44670000Y-30210000D02*
X44670000Y-29880000D01*
X44670000Y-32290000D02*
X44670000Y-32620000D01*
X44670000Y-32620000D02*
X51210000Y-32620000D01*
X51210000Y-29880000D02*
X51210000Y-30210000D01*
X51210000Y-32620000D02*
X51210000Y-32290000D01*
%TO.C,R3*%
X103880000Y-59980000D02*
X103880000Y-66520000D01*
X103880000Y-66520000D02*
X104210000Y-66520000D01*
X104210000Y-59980000D02*
X103880000Y-59980000D01*
X106290000Y-59980000D02*
X106620000Y-59980000D01*
X106620000Y-59980000D02*
X106620000Y-66520000D01*
X106620000Y-66520000D02*
X106290000Y-66520000D01*
%TO.C,R4*%
X105880000Y-49920000D02*
X105880000Y-56460000D01*
X105880000Y-56460000D02*
X106210000Y-56460000D01*
X106210000Y-49920000D02*
X105880000Y-49920000D01*
X108290000Y-49920000D02*
X108620000Y-49920000D01*
X108620000Y-49920000D02*
X108620000Y-56460000D01*
X108620000Y-56460000D02*
X108290000Y-56460000D01*
%TO.C,C2*%
X80380000Y-75870000D02*
X80380000Y-68630000D01*
X80380000Y-77370000D02*
X81130000Y-76620000D01*
X80380000Y-78870000D02*
X80380000Y-77370000D01*
X81130000Y-76620000D02*
X80380000Y-75870000D01*
X82750000Y-67490000D02*
X82750000Y-68630000D01*
X82750000Y-80010000D02*
X82750000Y-78870000D01*
X84370000Y-76620000D02*
X85120000Y-75870000D01*
X84950000Y-80620000D02*
X84950000Y-79120000D01*
X85120000Y-68630000D02*
X80380000Y-68630000D01*
X85120000Y-75870000D02*
X85120000Y-68630000D01*
X85120000Y-77370000D02*
X84370000Y-76620000D01*
X85120000Y-78870000D02*
X80380000Y-78870000D01*
X85120000Y-78870000D02*
X85120000Y-77370000D01*
X85700000Y-79870000D02*
X84200000Y-79870000D01*
%TO.C,U_2*%
X47140000Y-26500000D02*
X42050000Y-26500000D01*
X47140000Y-26840000D02*
X47140000Y-26500000D01*
X47140000Y-29160000D02*
X47140000Y-29510000D01*
X47140000Y-29510000D02*
X44540000Y-29510000D01*
X42440083Y-26498264D02*
G75*
G02*
X46640000Y-26500000I2099917J-101736D01*
G01*
%TO.C,R2*%
X45920000Y-33880000D02*
X45920000Y-34210000D01*
X45920000Y-36620000D02*
X45920000Y-36290000D01*
X52460000Y-33880000D02*
X45920000Y-33880000D01*
X52460000Y-34210000D02*
X52460000Y-33880000D01*
X52460000Y-36290000D02*
X52460000Y-36620000D01*
X52460000Y-36620000D02*
X45920000Y-36620000D01*
%TO.C,Q1*%
X54885307Y-34438982D02*
X55648982Y-33675307D01*
X55648982Y-33675307D02*
X56462156Y-34488480D01*
X55698480Y-35252156D02*
X54885307Y-34438982D01*
X56462156Y-34488480D02*
G75*
G02*
X55698480Y-35252156I2997844J-3761520D01*
G01*
%TO.C,D1*%
X58830000Y-27705000D02*
X58830000Y-30795000D01*
X53280000Y-29250000D02*
G75*
G02*
X58830000Y-27705170I2990000J0D01*
G01*
X58830000Y-30794830D02*
G75*
G02*
X53280000Y-29250000I-2560000J1544830D01*
G01*
X58770000Y-29250000D02*
G75*
G02*
X53770000Y-29250000I-2500000J0D01*
G01*
X53770000Y-29250000D02*
G75*
G02*
X58770000Y-29250000I2500000J0D01*
G01*
%TO.C,J1*%
X72620000Y-63520000D02*
X72620000Y-71250000D01*
X75380000Y-60870000D02*
X74000000Y-60870000D01*
X75380000Y-62250000D02*
X75380000Y-60870000D01*
X75380000Y-63520000D02*
X72620000Y-63520000D01*
X75380000Y-63520000D02*
X75380000Y-71250000D01*
X75380000Y-71250000D02*
X72620000Y-71250000D01*
%TO.C,D2*%
X108290000Y-71455000D02*
X108290000Y-74545000D01*
X102740000Y-73000000D02*
G75*
G02*
X108290000Y-71455170I2990000J0D01*
G01*
X108290000Y-74544830D02*
G75*
G02*
X102740000Y-73000000I-2560000J1544830D01*
G01*
X108230000Y-73000000D02*
G75*
G02*
X103230000Y-73000000I-2500000J0D01*
G01*
X103230000Y-73000000D02*
G75*
G02*
X108230000Y-73000000I2500000J0D01*
G01*
%TO.C,C1*%
X79550000Y-50130000D02*
X81050000Y-50130000D01*
X80130000Y-51130000D02*
X80130000Y-52630000D01*
X80130000Y-51130000D02*
X84870000Y-51130000D01*
X80130000Y-52630000D02*
X80880000Y-53380000D01*
X80130000Y-54130000D02*
X80130000Y-61370000D01*
X80130000Y-61370000D02*
X84870000Y-61370000D01*
X80300000Y-49380000D02*
X80300000Y-50880000D01*
X80880000Y-53380000D02*
X80130000Y-54130000D01*
X82500000Y-49990000D02*
X82500000Y-51130000D01*
X82500000Y-62510000D02*
X82500000Y-61370000D01*
X84120000Y-53380000D02*
X84870000Y-54130000D01*
X84870000Y-51130000D02*
X84870000Y-52630000D01*
X84870000Y-52630000D02*
X84120000Y-53380000D01*
X84870000Y-54130000D02*
X84870000Y-61370000D01*
%TD*%
M02*
