ISO-10303-21;
HEADER;
/* Generated by software containing ST-Developer
 * from STEP Tools, Inc. (www.steptools.com) 
 */
/* OPTION: using custom renumber hook */

FILE_DESCRIPTION(
/* description */ ('STEP AP242 Edition 2',
'CAx-IF Rec.Pracs.---Representation and Presentation of Product Manufa
cturing Information (PMI)---4.0---2014-10-13',
'CAx-IF Rec.Pracs.---3D Tessellated Geometry---0.4---2014-09-14','2;1',
'CAx-IF Rec.Pracs.---User Defined Attributes---1.5---2016-08-15'),
/* implementation_level */ '2;1');

FILE_NAME(
/* name */ 'Part Studio 1 - Part 1',
/* time_stamp */ '2026-02-17T15:18:32Z',
/* author */ (''),
/* organization */ (''),
/* preprocessor_version */ 'ST-DEVELOPER v20',
/* originating_system */ 'ONSHAPE BY PTC INC, 1.210',
/* authorisation */ '  ');

FILE_SCHEMA (('AP242_MANAGED_MODEL_BASED_3D_ENGINEERING_MIM_LF { 1 0 10303 442 3 1 4 }'));
ENDSEC;

DATA;
#10=SHAPE_REPRESENTATION_RELATIONSHIP('','',#767,#11);
#11=ADVANCED_BREP_SHAPE_REPRESENTATION('',(#765),#1244);
#12=SPHERICAL_SURFACE('',#803,0.005);
#13=SPHERICAL_SURFACE('',#810,0.005);
#14=SPHERICAL_SURFACE('',#812,0.005);
#15=SPHERICAL_SURFACE('',#818,0.005);
#16=CYLINDRICAL_SURFACE('',#795,0.005);
#17=CYLINDRICAL_SURFACE('',#797,0.005);
#18=CYLINDRICAL_SURFACE('',#799,0.005);
#19=CYLINDRICAL_SURFACE('',#801,0.005);
#20=CYLINDRICAL_SURFACE('',#806,0.005);
#21=CYLINDRICAL_SURFACE('',#808,0.005);
#22=CYLINDRICAL_SURFACE('',#814,0.005);
#23=CYLINDRICAL_SURFACE('',#816,0.005);
#24=CIRCLE('',#780,0.005);
#25=CIRCLE('',#781,0.005);
#26=CIRCLE('',#782,0.005);
#27=CIRCLE('',#783,0.005);
#28=CIRCLE('',#789,0.005);
#29=CIRCLE('',#792,0.005);
#30=CIRCLE('',#796,0.005);
#31=CIRCLE('',#798,0.005);
#32=CIRCLE('',#800,0.005);
#33=CIRCLE('',#802,0.005);
#34=CIRCLE('',#804,0.005);
#35=CIRCLE('',#805,0.005);
#36=CIRCLE('',#807,0.005);
#37=CIRCLE('',#809,0.005);
#38=CIRCLE('',#811,0.005);
#39=CIRCLE('',#813,0.005);
#40=CIRCLE('',#815,0.005);
#41=CIRCLE('',#817,0.005);
#42=ORIENTED_EDGE('',*,*,#252,.T.);
#43=ORIENTED_EDGE('',*,*,#253,.F.);
#44=ORIENTED_EDGE('',*,*,#254,.F.);
#45=ORIENTED_EDGE('',*,*,#255,.T.);
#46=ORIENTED_EDGE('',*,*,#256,.T.);
#47=ORIENTED_EDGE('',*,*,#257,.T.);
#48=ORIENTED_EDGE('',*,*,#258,.F.);
#49=ORIENTED_EDGE('',*,*,#259,.F.);
#50=ORIENTED_EDGE('',*,*,#260,.F.);
#51=ORIENTED_EDGE('',*,*,#261,.T.);
#52=ORIENTED_EDGE('',*,*,#262,.F.);
#53=ORIENTED_EDGE('',*,*,#263,.F.);
#54=ORIENTED_EDGE('',*,*,#264,.T.);
#55=ORIENTED_EDGE('',*,*,#265,.T.);
#56=ORIENTED_EDGE('',*,*,#266,.F.);
#57=ORIENTED_EDGE('',*,*,#267,.T.);
#58=ORIENTED_EDGE('',*,*,#268,.T.);
#59=ORIENTED_EDGE('',*,*,#269,.T.);
#60=ORIENTED_EDGE('',*,*,#270,.T.);
#61=ORIENTED_EDGE('',*,*,#271,.T.);
#62=ORIENTED_EDGE('',*,*,#272,.F.);
#63=ORIENTED_EDGE('',*,*,#273,.F.);
#64=ORIENTED_EDGE('',*,*,#274,.F.);
#65=ORIENTED_EDGE('',*,*,#275,.T.);
#66=ORIENTED_EDGE('',*,*,#276,.T.);
#67=ORIENTED_EDGE('',*,*,#277,.T.);
#68=ORIENTED_EDGE('',*,*,#254,.T.);
#69=ORIENTED_EDGE('',*,*,#278,.F.);
#70=ORIENTED_EDGE('',*,*,#279,.F.);
#71=ORIENTED_EDGE('',*,*,#280,.T.);
#72=ORIENTED_EDGE('',*,*,#281,.T.);
#73=ORIENTED_EDGE('',*,*,#282,.T.);
#74=ORIENTED_EDGE('',*,*,#280,.F.);
#75=ORIENTED_EDGE('',*,*,#283,.T.);
#76=ORIENTED_EDGE('',*,*,#284,.T.);
#77=ORIENTED_EDGE('',*,*,#255,.F.);
#78=ORIENTED_EDGE('',*,*,#277,.F.);
#79=ORIENTED_EDGE('',*,*,#285,.F.);
#80=ORIENTED_EDGE('',*,*,#286,.T.);
#81=ORIENTED_EDGE('',*,*,#287,.T.);
#82=ORIENTED_EDGE('',*,*,#288,.T.);
#83=ORIENTED_EDGE('',*,*,#289,.F.);
#84=ORIENTED_EDGE('',*,*,#290,.F.);
#85=ORIENTED_EDGE('',*,*,#291,.T.);
#86=ORIENTED_EDGE('',*,*,#292,.T.);
#87=ORIENTED_EDGE('',*,*,#293,.T.);
#88=ORIENTED_EDGE('',*,*,#252,.F.);
#89=ORIENTED_EDGE('',*,*,#284,.F.);
#90=ORIENTED_EDGE('',*,*,#294,.T.);
#91=ORIENTED_EDGE('',*,*,#295,.T.);
#92=ORIENTED_EDGE('',*,*,#296,.F.);
#93=ORIENTED_EDGE('',*,*,#297,.F.);
#94=ORIENTED_EDGE('',*,*,#298,.T.);
#95=ORIENTED_EDGE('',*,*,#299,.T.);
#96=ORIENTED_EDGE('',*,*,#300,.T.);
#97=ORIENTED_EDGE('',*,*,#301,.T.);
#98=ORIENTED_EDGE('',*,*,#302,.T.);
#99=ORIENTED_EDGE('',*,*,#303,.F.);
#100=ORIENTED_EDGE('',*,*,#304,.F.);
#101=ORIENTED_EDGE('',*,*,#305,.F.);
#102=ORIENTED_EDGE('',*,*,#306,.T.);
#103=ORIENTED_EDGE('',*,*,#307,.T.);
#104=ORIENTED_EDGE('',*,*,#278,.T.);
#105=ORIENTED_EDGE('',*,*,#253,.T.);
#106=ORIENTED_EDGE('',*,*,#295,.F.);
#107=ORIENTED_EDGE('',*,*,#308,.F.);
#108=ORIENTED_EDGE('',*,*,#309,.T.);
#109=ORIENTED_EDGE('',*,*,#310,.T.);
#110=ORIENTED_EDGE('',*,*,#311,.T.);
#111=ORIENTED_EDGE('',*,*,#312,.T.);
#112=ORIENTED_EDGE('',*,*,#313,.T.);
#113=ORIENTED_EDGE('',*,*,#314,.T.);
#114=ORIENTED_EDGE('',*,*,#315,.T.);
#115=ORIENTED_EDGE('',*,*,#316,.F.);
#116=ORIENTED_EDGE('',*,*,#303,.T.);
#117=ORIENTED_EDGE('',*,*,#317,.T.);
#118=ORIENTED_EDGE('',*,*,#312,.F.);
#119=ORIENTED_EDGE('',*,*,#318,.T.);
#120=ORIENTED_EDGE('',*,*,#293,.F.);
#121=ORIENTED_EDGE('',*,*,#319,.T.);
#122=ORIENTED_EDGE('',*,*,#316,.T.);
#123=ORIENTED_EDGE('',*,*,#320,.T.);
#124=ORIENTED_EDGE('',*,*,#308,.T.);
#125=ORIENTED_EDGE('',*,*,#294,.F.);
#126=ORIENTED_EDGE('',*,*,#283,.F.);
#127=ORIENTED_EDGE('',*,*,#279,.T.);
#128=ORIENTED_EDGE('',*,*,#304,.T.);
#129=ORIENTED_EDGE('',*,*,#321,.F.);
#130=ORIENTED_EDGE('',*,*,#297,.T.);
#131=ORIENTED_EDGE('',*,*,#322,.T.);
#132=ORIENTED_EDGE('',*,*,#323,.F.);
#133=ORIENTED_EDGE('',*,*,#298,.F.);
#134=ORIENTED_EDGE('',*,*,#321,.T.);
#135=ORIENTED_EDGE('',*,*,#307,.F.);
#136=ORIENTED_EDGE('',*,*,#324,.F.);
#137=ORIENTED_EDGE('',*,*,#299,.F.);
#138=ORIENTED_EDGE('',*,*,#323,.T.);
#139=ORIENTED_EDGE('',*,*,#306,.F.);
#140=ORIENTED_EDGE('',*,*,#305,.T.);
#141=ORIENTED_EDGE('',*,*,#322,.F.);
#142=ORIENTED_EDGE('',*,*,#296,.T.);
#143=ORIENTED_EDGE('',*,*,#324,.T.);
#144=ORIENTED_EDGE('',*,*,#325,.T.);
#145=ORIENTED_EDGE('',*,*,#326,.T.);
#146=ORIENTED_EDGE('',*,*,#291,.F.);
#147=ORIENTED_EDGE('',*,*,#327,.F.);
#148=ORIENTED_EDGE('',*,*,#274,.T.);
#149=ORIENTED_EDGE('',*,*,#282,.F.);
#150=ORIENTED_EDGE('',*,*,#328,.T.);
#151=ORIENTED_EDGE('',*,*,#327,.T.);
#152=ORIENTED_EDGE('',*,*,#290,.T.);
#153=ORIENTED_EDGE('',*,*,#329,.F.);
#154=ORIENTED_EDGE('',*,*,#275,.F.);
#155=ORIENTED_EDGE('',*,*,#289,.T.);
#156=ORIENTED_EDGE('',*,*,#330,.T.);
#157=ORIENTED_EDGE('',*,*,#331,.F.);
#158=ORIENTED_EDGE('',*,*,#332,.F.);
#159=ORIENTED_EDGE('',*,*,#285,.T.);
#160=ORIENTED_EDGE('',*,*,#276,.F.);
#161=ORIENTED_EDGE('',*,*,#329,.T.);
#162=ORIENTED_EDGE('',*,*,#331,.T.);
#163=ORIENTED_EDGE('',*,*,#333,.T.);
#164=ORIENTED_EDGE('',*,*,#325,.F.);
#165=ORIENTED_EDGE('',*,*,#334,.T.);
#166=ORIENTED_EDGE('',*,*,#332,.T.);
#167=ORIENTED_EDGE('',*,*,#334,.F.);
#168=ORIENTED_EDGE('',*,*,#328,.F.);
#169=ORIENTED_EDGE('',*,*,#281,.F.);
#170=ORIENTED_EDGE('',*,*,#302,.F.);
#171=ORIENTED_EDGE('',*,*,#335,.T.);
#172=ORIENTED_EDGE('',*,*,#309,.F.);
#173=ORIENTED_EDGE('',*,*,#317,.F.);
#174=ORIENTED_EDGE('',*,*,#315,.F.);
#175=ORIENTED_EDGE('',*,*,#336,.T.);
#176=ORIENTED_EDGE('',*,*,#300,.F.);
#177=ORIENTED_EDGE('',*,*,#320,.F.);
#178=ORIENTED_EDGE('',*,*,#288,.F.);
#179=ORIENTED_EDGE('',*,*,#337,.T.);
#180=ORIENTED_EDGE('',*,*,#313,.F.);
#181=ORIENTED_EDGE('',*,*,#319,.F.);
#182=ORIENTED_EDGE('',*,*,#292,.F.);
#183=ORIENTED_EDGE('',*,*,#326,.F.);
#184=ORIENTED_EDGE('',*,*,#333,.F.);
#185=ORIENTED_EDGE('',*,*,#330,.F.);
#186=ORIENTED_EDGE('',*,*,#311,.F.);
#187=ORIENTED_EDGE('',*,*,#338,.T.);
#188=ORIENTED_EDGE('',*,*,#286,.F.);
#189=ORIENTED_EDGE('',*,*,#318,.F.);
#190=ORIENTED_EDGE('',*,*,#339,.F.);
#191=ORIENTED_EDGE('',*,*,#335,.F.);
#192=ORIENTED_EDGE('',*,*,#340,.F.);
#193=ORIENTED_EDGE('',*,*,#340,.T.);
#194=ORIENTED_EDGE('',*,*,#301,.F.);
#195=ORIENTED_EDGE('',*,*,#341,.F.);
#196=ORIENTED_EDGE('',*,*,#268,.F.);
#197=ORIENTED_EDGE('',*,*,#339,.T.);
#198=ORIENTED_EDGE('',*,*,#267,.F.);
#199=ORIENTED_EDGE('',*,*,#342,.F.);
#200=ORIENTED_EDGE('',*,*,#343,.F.);
#201=ORIENTED_EDGE('',*,*,#310,.F.);
#202=ORIENTED_EDGE('',*,*,#341,.T.);
#203=ORIENTED_EDGE('',*,*,#336,.F.);
#204=ORIENTED_EDGE('',*,*,#344,.F.);
#205=ORIENTED_EDGE('',*,*,#338,.F.);
#206=ORIENTED_EDGE('',*,*,#343,.T.);
#207=ORIENTED_EDGE('',*,*,#345,.F.);
#208=ORIENTED_EDGE('',*,*,#344,.T.);
#209=ORIENTED_EDGE('',*,*,#314,.F.);
#210=ORIENTED_EDGE('',*,*,#346,.F.);
#211=ORIENTED_EDGE('',*,*,#269,.F.);
#212=ORIENTED_EDGE('',*,*,#345,.T.);
#213=ORIENTED_EDGE('',*,*,#347,.F.);
#214=ORIENTED_EDGE('',*,*,#264,.F.);
#215=ORIENTED_EDGE('',*,*,#348,.F.);
#216=ORIENTED_EDGE('',*,*,#287,.F.);
#217=ORIENTED_EDGE('',*,*,#346,.T.);
#218=ORIENTED_EDGE('',*,*,#337,.F.);
#219=ORIENTED_EDGE('',*,*,#348,.T.);
#220=ORIENTED_EDGE('',*,*,#349,.T.);
#221=ORIENTED_EDGE('',*,*,#270,.F.);
#222=ORIENTED_EDGE('',*,*,#350,.F.);
#223=ORIENTED_EDGE('',*,*,#257,.F.);
#224=ORIENTED_EDGE('',*,*,#258,.T.);
#225=ORIENTED_EDGE('',*,*,#350,.T.);
#226=ORIENTED_EDGE('',*,*,#273,.T.);
#227=ORIENTED_EDGE('',*,*,#351,.F.);
#228=ORIENTED_EDGE('',*,*,#259,.T.);
#229=ORIENTED_EDGE('',*,*,#351,.T.);
#230=ORIENTED_EDGE('',*,*,#272,.T.);
#231=ORIENTED_EDGE('',*,*,#352,.F.);
#232=ORIENTED_EDGE('',*,*,#352,.T.);
#233=ORIENTED_EDGE('',*,*,#271,.F.);
#234=ORIENTED_EDGE('',*,*,#349,.F.);
#235=ORIENTED_EDGE('',*,*,#256,.F.);
#236=ORIENTED_EDGE('',*,*,#353,.T.);
#237=ORIENTED_EDGE('',*,*,#265,.F.);
#238=ORIENTED_EDGE('',*,*,#354,.F.);
#239=ORIENTED_EDGE('',*,*,#261,.F.);
#240=ORIENTED_EDGE('',*,*,#262,.T.);
#241=ORIENTED_EDGE('',*,*,#354,.T.);
#242=ORIENTED_EDGE('',*,*,#347,.T.);
#243=ORIENTED_EDGE('',*,*,#355,.F.);
#244=ORIENTED_EDGE('',*,*,#263,.T.);
#245=ORIENTED_EDGE('',*,*,#355,.T.);
#246=ORIENTED_EDGE('',*,*,#342,.T.);
#247=ORIENTED_EDGE('',*,*,#356,.F.);
#248=ORIENTED_EDGE('',*,*,#260,.T.);
#249=ORIENTED_EDGE('',*,*,#356,.T.);
#250=ORIENTED_EDGE('',*,*,#266,.T.);
#251=ORIENTED_EDGE('',*,*,#353,.F.);
#252=EDGE_CURVE('',#357,#358,#422,.T.);
#253=EDGE_CURVE('',#359,#358,#423,.T.);
#254=EDGE_CURVE('',#360,#359,#424,.T.);
#255=EDGE_CURVE('',#360,#357,#425,.T.);
#256=EDGE_CURVE('',#361,#362,#426,.T.);
#257=EDGE_CURVE('',#362,#363,#427,.T.);
#258=EDGE_CURVE('',#364,#363,#428,.T.);
#259=EDGE_CURVE('',#361,#364,#429,.T.);
#260=EDGE_CURVE('',#365,#366,#430,.T.);
#261=EDGE_CURVE('',#365,#367,#431,.T.);
#262=EDGE_CURVE('',#368,#367,#432,.T.);
#263=EDGE_CURVE('',#366,#368,#433,.T.);
#264=EDGE_CURVE('',#369,#370,#434,.T.);
#265=EDGE_CURVE('',#370,#371,#435,.T.);
#266=EDGE_CURVE('',#372,#371,#436,.T.);
#267=EDGE_CURVE('',#372,#373,#437,.T.);
#268=EDGE_CURVE('',#373,#374,#438,.F.);
#269=EDGE_CURVE('',#374,#369,#439,.F.);
#270=EDGE_CURVE('',#375,#376,#440,.T.);
#271=EDGE_CURVE('',#376,#377,#441,.T.);
#272=EDGE_CURVE('',#378,#377,#442,.T.);
#273=EDGE_CURVE('',#375,#378,#443,.T.);
#274=EDGE_CURVE('',#379,#380,#444,.T.);
#275=EDGE_CURVE('',#379,#381,#445,.T.);
#276=EDGE_CURVE('',#381,#382,#446,.T.);
#277=EDGE_CURVE('',#382,#360,#447,.T.);
#278=EDGE_CURVE('',#383,#359,#448,.T.);
#279=EDGE_CURVE('',#384,#383,#449,.T.);
#280=EDGE_CURVE('',#384,#380,#450,.T.);
#281=EDGE_CURVE('',#385,#386,#451,.T.);
#282=EDGE_CURVE('',#386,#380,#452,.T.);
#283=EDGE_CURVE('',#384,#387,#453,.T.);
#284=EDGE_CURVE('',#387,#357,#454,.T.);
#285=EDGE_CURVE('',#385,#382,#455,.T.);
#286=EDGE_CURVE('',#388,#389,#456,.T.);
#287=EDGE_CURVE('',#389,#390,#457,.F.);
#288=EDGE_CURVE('',#390,#391,#458,.F.);
#289=EDGE_CURVE('',#392,#391,#459,.T.);
#290=EDGE_CURVE('',#393,#392,#460,.T.);
#291=EDGE_CURVE('',#393,#394,#461,.T.);
#292=EDGE_CURVE('',#394,#395,#462,.F.);
#293=EDGE_CURVE('',#395,#388,#463,.T.);
#294=EDGE_CURVE('',#387,#396,#464,.T.);
#295=EDGE_CURVE('',#396,#358,#465,.T.);
#296=EDGE_CURVE('',#397,#398,#466,.T.);
#297=EDGE_CURVE('',#399,#397,#467,.T.);
#298=EDGE_CURVE('',#399,#400,#468,.T.);
#299=EDGE_CURVE('',#400,#398,#469,.T.);
#300=EDGE_CURVE('',#401,#402,#470,.T.);
#301=EDGE_CURVE('',#402,#403,#471,.T.);
#302=EDGE_CURVE('',#403,#404,#472,.F.);
#303=EDGE_CURVE('',#401,#404,#473,.T.);
#304=EDGE_CURVE('',#405,#406,#474,.T.);
#305=EDGE_CURVE('',#407,#405,#475,.T.);
#306=EDGE_CURVE('',#407,#408,#476,.T.);
#307=EDGE_CURVE('',#408,#406,#477,.T.);
#308=EDGE_CURVE('',#383,#396,#478,.T.);
#309=EDGE_CURVE('',#409,#410,#479,.T.);
#310=EDGE_CURVE('',#410,#411,#480,.F.);
#311=EDGE_CURVE('',#411,#412,#481,.F.);
#312=EDGE_CURVE('',#412,#409,#482,.T.);
#313=EDGE_CURVE('',#413,#414,#483,.T.);
#314=EDGE_CURVE('',#414,#415,#484,.T.);
#315=EDGE_CURVE('',#415,#416,#485,.F.);
#316=EDGE_CURVE('',#413,#416,#486,.T.);
#317=EDGE_CURVE('',#404,#409,#24,.T.);
#318=EDGE_CURVE('',#412,#388,#25,.T.);
#319=EDGE_CURVE('',#395,#413,#26,.T.);
#320=EDGE_CURVE('',#416,#401,#27,.T.);
#321=EDGE_CURVE('',#399,#406,#487,.T.);
#322=EDGE_CURVE('',#397,#405,#488,.T.);
#323=EDGE_CURVE('',#400,#408,#489,.T.);
#324=EDGE_CURVE('',#398,#407,#490,.T.);
#325=EDGE_CURVE('',#417,#418,#491,.T.);
#326=EDGE_CURVE('',#418,#394,#28,.T.);
#327=EDGE_CURVE('',#379,#393,#492,.T.);
#328=EDGE_CURVE('',#386,#417,#493,.T.);
#329=EDGE_CURVE('',#381,#392,#494,.T.);
#330=EDGE_CURVE('',#391,#419,#29,.F.);
#331=EDGE_CURVE('',#420,#419,#495,.T.);
#332=EDGE_CURVE('',#385,#420,#496,.T.);
#333=EDGE_CURVE('',#419,#418,#497,.T.);
#334=EDGE_CURVE('',#417,#420,#498,.T.);
#335=EDGE_CURVE('',#403,#410,#30,.T.);
#336=EDGE_CURVE('',#415,#402,#31,.F.);
#337=EDGE_CURVE('',#390,#414,#32,.T.);
#338=EDGE_CURVE('',#411,#389,#33,.F.);
#339=EDGE_CURVE('',#410,#373,#34,.T.);
#340=EDGE_CURVE('',#373,#403,#35,.T.);
#341=EDGE_CURVE('',#374,#402,#36,.T.);
#342=EDGE_CURVE('',#421,#372,#499,.T.);
#343=EDGE_CURVE('',#411,#421,#37,.T.);
#344=EDGE_CURVE('',#374,#415,#38,.T.);
#345=EDGE_CURVE('',#389,#421,#39,.T.);
#346=EDGE_CURVE('',#369,#414,#40,.T.);
#347=EDGE_CURVE('',#370,#421,#500,.T.);
#348=EDGE_CURVE('',#390,#369,#41,.T.);
#349=EDGE_CURVE('',#362,#376,#501,.T.);
#350=EDGE_CURVE('',#363,#375,#502,.T.);
#351=EDGE_CURVE('',#364,#378,#503,.T.);
#352=EDGE_CURVE('',#361,#377,#504,.T.);
#353=EDGE_CURVE('',#365,#371,#505,.T.);
#354=EDGE_CURVE('',#367,#370,#506,.T.);
#355=EDGE_CURVE('',#368,#421,#507,.T.);
#356=EDGE_CURVE('',#366,#372,#508,.T.);
#357=VERTEX_POINT('',#1035);
#358=VERTEX_POINT('',#1036);
#359=VERTEX_POINT('',#1038);
#360=VERTEX_POINT('',#1040);
#361=VERTEX_POINT('',#1043);
#362=VERTEX_POINT('',#1044);
#363=VERTEX_POINT('',#1046);
#364=VERTEX_POINT('',#1048);
#365=VERTEX_POINT('',#1051);
#366=VERTEX_POINT('',#1052);
#367=VERTEX_POINT('',#1054);
#368=VERTEX_POINT('',#1056);
#369=VERTEX_POINT('',#1060);
#370=VERTEX_POINT('',#1061);
#371=VERTEX_POINT('',#1063);
#372=VERTEX_POINT('',#1065);
#373=VERTEX_POINT('',#1067);
#374=VERTEX_POINT('',#1069);
#375=VERTEX_POINT('',#1072);
#376=VERTEX_POINT('',#1073);
#377=VERTEX_POINT('',#1075);
#378=VERTEX_POINT('',#1077);
#379=VERTEX_POINT('',#1081);
#380=VERTEX_POINT('',#1082);
#381=VERTEX_POINT('',#1084);
#382=VERTEX_POINT('',#1086);
#383=VERTEX_POINT('',#1089);
#384=VERTEX_POINT('',#1091);
#385=VERTEX_POINT('',#1095);
#386=VERTEX_POINT('',#1096);
#387=VERTEX_POINT('',#1099);
#388=VERTEX_POINT('',#1104);
#389=VERTEX_POINT('',#1105);
#390=VERTEX_POINT('',#1107);
#391=VERTEX_POINT('',#1109);
#392=VERTEX_POINT('',#1111);
#393=VERTEX_POINT('',#1113);
#394=VERTEX_POINT('',#1115);
#395=VERTEX_POINT('',#1117);
#396=VERTEX_POINT('',#1121);
#397=VERTEX_POINT('',#1124);
#398=VERTEX_POINT('',#1125);
#399=VERTEX_POINT('',#1127);
#400=VERTEX_POINT('',#1129);
#401=VERTEX_POINT('',#1133);
#402=VERTEX_POINT('',#1134);
#403=VERTEX_POINT('',#1136);
#404=VERTEX_POINT('',#1138);
#405=VERTEX_POINT('',#1141);
#406=VERTEX_POINT('',#1142);
#407=VERTEX_POINT('',#1144);
#408=VERTEX_POINT('',#1146);
#409=VERTEX_POINT('',#1152);
#410=VERTEX_POINT('',#1153);
#411=VERTEX_POINT('',#1155);
#412=VERTEX_POINT('',#1157);
#413=VERTEX_POINT('',#1161);
#414=VERTEX_POINT('',#1162);
#415=VERTEX_POINT('',#1164);
#416=VERTEX_POINT('',#1166);
#417=VERTEX_POINT('',#1183);
#418=VERTEX_POINT('',#1184);
#419=VERTEX_POINT('',#1192);
#420=VERTEX_POINT('',#1194);
#421=VERTEX_POINT('',#1215);
#422=LINE('',#1034,#509);
#423=LINE('',#1037,#510);
#424=LINE('',#1039,#511);
#425=LINE('',#1041,#512);
#426=LINE('',#1042,#513);
#427=LINE('',#1045,#514);
#428=LINE('',#1047,#515);
#429=LINE('',#1049,#516);
#430=LINE('',#1050,#517);
#431=LINE('',#1053,#518);
#432=LINE('',#1055,#519);
#433=LINE('',#1057,#520);
#434=LINE('',#1059,#521);
#435=LINE('',#1062,#522);
#436=LINE('',#1064,#523);
#437=LINE('',#1066,#524);
#438=LINE('',#1068,#525);
#439=LINE('',#1070,#526);
#440=LINE('',#1071,#527);
#441=LINE('',#1074,#528);
#442=LINE('',#1076,#529);
#443=LINE('',#1078,#530);
#444=LINE('',#1080,#531);
#445=LINE('',#1083,#532);
#446=LINE('',#1085,#533);
#447=LINE('',#1087,#534);
#448=LINE('',#1088,#535);
#449=LINE('',#1090,#536);
#450=LINE('',#1092,#537);
#451=LINE('',#1094,#538);
#452=LINE('',#1097,#539);
#453=LINE('',#1098,#540);
#454=LINE('',#1100,#541);
#455=LINE('',#1101,#542);
#456=LINE('',#1103,#543);
#457=LINE('',#1106,#544);
#458=LINE('',#1108,#545);
#459=LINE('',#1110,#546);
#460=LINE('',#1112,#547);
#461=LINE('',#1114,#548);
#462=LINE('',#1116,#549);
#463=LINE('',#1118,#550);
#464=LINE('',#1120,#551);
#465=LINE('',#1122,#552);
#466=LINE('',#1123,#553);
#467=LINE('',#1126,#554);
#468=LINE('',#1128,#555);
#469=LINE('',#1130,#556);
#470=LINE('',#1132,#557);
#471=LINE('',#1135,#558);
#472=LINE('',#1137,#559);
#473=LINE('',#1139,#560);
#474=LINE('',#1140,#561);
#475=LINE('',#1143,#562);
#476=LINE('',#1145,#563);
#477=LINE('',#1147,#564);
#478=LINE('',#1149,#565);
#479=LINE('',#1151,#566);
#480=LINE('',#1154,#567);
#481=LINE('',#1156,#568);
#482=LINE('',#1158,#569);
#483=LINE('',#1160,#570);
#484=LINE('',#1163,#571);
#485=LINE('',#1165,#572);
#486=LINE('',#1167,#573);
#487=LINE('',#1174,#574);
#488=LINE('',#1175,#575);
#489=LINE('',#1177,#576);
#490=LINE('',#1179,#577);
#491=LINE('',#1182,#578);
#492=LINE('',#1186,#579);
#493=LINE('',#1187,#580);
#494=LINE('',#1189,#581);
#495=LINE('',#1193,#582);
#496=LINE('',#1195,#583);
#497=LINE('',#1197,#584);
#498=LINE('',#1198,#585);
#499=LINE('',#1214,#586);
#500=LINE('',#1224,#587);
#501=LINE('',#1228,#588);
#502=LINE('',#1229,#589);
#503=LINE('',#1231,#590);
#504=LINE('',#1233,#591);
#505=LINE('',#1236,#592);
#506=LINE('',#1237,#593);
#507=LINE('',#1239,#594);
#508=LINE('',#1241,#595);
#509=VECTOR('',#831,1.);
#510=VECTOR('',#832,1.);
#511=VECTOR('',#833,1.);
#512=VECTOR('',#834,1.);
#513=VECTOR('',#835,1.);
#514=VECTOR('',#836,1.);
#515=VECTOR('',#837,1.);
#516=VECTOR('',#838,1.);
#517=VECTOR('',#839,1.);
#518=VECTOR('',#840,1.);
#519=VECTOR('',#841,1.);
#520=VECTOR('',#842,1.);
#521=VECTOR('',#845,1.);
#522=VECTOR('',#846,1.);
#523=VECTOR('',#847,1.);
#524=VECTOR('',#848,1.);
#525=VECTOR('',#849,1.);
#526=VECTOR('',#850,1.);
#527=VECTOR('',#851,1.);
#528=VECTOR('',#852,1.);
#529=VECTOR('',#853,1.);
#530=VECTOR('',#854,1.);
#531=VECTOR('',#857,1.);
#532=VECTOR('',#858,1.);
#533=VECTOR('',#859,1.);
#534=VECTOR('',#860,1.);
#535=VECTOR('',#861,1.);
#536=VECTOR('',#862,1.);
#537=VECTOR('',#863,1.);
#538=VECTOR('',#866,1.);
#539=VECTOR('',#867,1.);
#540=VECTOR('',#868,1.);
#541=VECTOR('',#869,1.);
#542=VECTOR('',#870,1.);
#543=VECTOR('',#873,1.);
#544=VECTOR('',#874,1.);
#545=VECTOR('',#875,1.);
#546=VECTOR('',#876,1.);
#547=VECTOR('',#877,1.);
#548=VECTOR('',#878,1.);
#549=VECTOR('',#879,1.);
#550=VECTOR('',#880,1.);
#551=VECTOR('',#883,1.);
#552=VECTOR('',#884,1.);
#553=VECTOR('',#885,1.);
#554=VECTOR('',#886,1.);
#555=VECTOR('',#887,1.);
#556=VECTOR('',#888,1.);
#557=VECTOR('',#891,1.);
#558=VECTOR('',#892,1.);
#559=VECTOR('',#893,1.);
#560=VECTOR('',#894,1.);
#561=VECTOR('',#895,1.);
#562=VECTOR('',#896,1.);
#563=VECTOR('',#897,1.);
#564=VECTOR('',#898,1.);
#565=VECTOR('',#901,1.);
#566=VECTOR('',#904,1.);
#567=VECTOR('',#905,1.);
#568=VECTOR('',#906,1.);
#569=VECTOR('',#907,1.);
#570=VECTOR('',#910,1.);
#571=VECTOR('',#911,1.);
#572=VECTOR('',#912,1.);
#573=VECTOR('',#913,1.);
#574=VECTOR('',#926,1.);
#575=VECTOR('',#927,1.);
#576=VECTOR('',#930,1.);
#577=VECTOR('',#933,1.);
#578=VECTOR('',#938,1.);
#579=VECTOR('',#941,1.);
#580=VECTOR('',#942,1.);
#581=VECTOR('',#945,1.);
#582=VECTOR('',#950,1.);
#583=VECTOR('',#951,1.);
#584=VECTOR('',#954,1.);
#585=VECTOR('',#955,1.);
#586=VECTOR('',#986,1.);
#587=VECTOR('',#1003,1.);
#588=VECTOR('',#1010,1.);
#589=VECTOR('',#1011,1.);
#590=VECTOR('',#1014,1.);
#591=VECTOR('',#1017,1.);
#592=VECTOR('',#1022,1.);
#593=VECTOR('',#1023,1.);
#594=VECTOR('',#1026,1.);
#595=VECTOR('',#1029,1.);
#596=EDGE_LOOP('',(#42,#43,#44,#45));
#597=EDGE_LOOP('',(#46,#47,#48,#49));
#598=EDGE_LOOP('',(#50,#51,#52,#53));
#599=EDGE_LOOP('',(#54,#55,#56,#57,#58,#59));
#600=EDGE_LOOP('',(#60,#61,#62,#63));
#601=EDGE_LOOP('',(#64,#65,#66,#67,#68,#69,#70,#71));
#602=EDGE_LOOP('',(#72,#73,#74,#75,#76,#77,#78,#79));
#603=EDGE_LOOP('',(#80,#81,#82,#83,#84,#85,#86,#87));
#604=EDGE_LOOP('',(#88,#89,#90,#91));
#605=EDGE_LOOP('',(#92,#93,#94,#95));
#606=EDGE_LOOP('',(#96,#97,#98,#99));
#607=EDGE_LOOP('',(#100,#101,#102,#103));
#608=EDGE_LOOP('',(#104,#105,#106,#107));
#609=EDGE_LOOP('',(#108,#109,#110,#111));
#610=EDGE_LOOP('',(#112,#113,#114,#115));
#611=EDGE_LOOP('',(#116,#117,#118,#119,#120,#121,#122,#123));
#612=EDGE_LOOP('',(#124,#125,#126,#127));
#613=EDGE_LOOP('',(#128,#129,#130,#131));
#614=EDGE_LOOP('',(#132,#133,#134,#135));
#615=EDGE_LOOP('',(#136,#137,#138,#139));
#616=EDGE_LOOP('',(#140,#141,#142,#143));
#617=EDGE_LOOP('',(#144,#145,#146,#147,#148,#149,#150));
#618=EDGE_LOOP('',(#151,#152,#153,#154));
#619=EDGE_LOOP('',(#155,#156,#157,#158,#159,#160,#161));
#620=EDGE_LOOP('',(#162,#163,#164,#165));
#621=EDGE_LOOP('',(#166,#167,#168,#169));
#622=EDGE_LOOP('',(#170,#171,#172,#173));
#623=EDGE_LOOP('',(#174,#175,#176,#177));
#624=EDGE_LOOP('',(#178,#179,#180,#181,#182,#183,#184,#185));
#625=EDGE_LOOP('',(#186,#187,#188,#189));
#626=EDGE_LOOP('',(#190,#191,#192));
#627=EDGE_LOOP('',(#193,#194,#195,#196));
#628=EDGE_LOOP('',(#197,#198,#199,#200,#201));
#629=EDGE_LOOP('',(#202,#203,#204));
#630=EDGE_LOOP('',(#205,#206,#207));
#631=EDGE_LOOP('',(#208,#209,#210,#211));
#632=EDGE_LOOP('',(#212,#213,#214,#215,#216));
#633=EDGE_LOOP('',(#217,#218,#219));
#634=EDGE_LOOP('',(#220,#221,#222,#223));
#635=EDGE_LOOP('',(#224,#225,#226,#227));
#636=EDGE_LOOP('',(#228,#229,#230,#231));
#637=EDGE_LOOP('',(#232,#233,#234,#235));
#638=EDGE_LOOP('',(#236,#237,#238,#239));
#639=EDGE_LOOP('',(#240,#241,#242,#243));
#640=EDGE_LOOP('',(#244,#245,#246,#247));
#641=EDGE_LOOP('',(#248,#249,#250,#251));
#642=FACE_BOUND('',#596,.T.);
#643=FACE_BOUND('',#597,.T.);
#644=FACE_BOUND('',#598,.T.);
#645=FACE_BOUND('',#599,.T.);
#646=FACE_BOUND('',#600,.T.);
#647=FACE_BOUND('',#601,.T.);
#648=FACE_BOUND('',#602,.T.);
#649=FACE_BOUND('',#603,.T.);
#650=FACE_BOUND('',#604,.T.);
#651=FACE_BOUND('',#605,.T.);
#652=FACE_BOUND('',#606,.T.);
#653=FACE_BOUND('',#607,.T.);
#654=FACE_BOUND('',#608,.T.);
#655=FACE_BOUND('',#609,.T.);
#656=FACE_BOUND('',#610,.T.);
#657=FACE_BOUND('',#611,.T.);
#658=FACE_BOUND('',#612,.T.);
#659=FACE_BOUND('',#613,.T.);
#660=FACE_BOUND('',#614,.T.);
#661=FACE_BOUND('',#615,.T.);
#662=FACE_BOUND('',#616,.T.);
#663=FACE_BOUND('',#617,.T.);
#664=FACE_BOUND('',#618,.T.);
#665=FACE_BOUND('',#619,.T.);
#666=FACE_BOUND('',#620,.T.);
#667=FACE_BOUND('',#621,.T.);
#668=FACE_BOUND('',#622,.T.);
#669=FACE_BOUND('',#623,.T.);
#670=FACE_BOUND('',#624,.T.);
#671=FACE_BOUND('',#625,.T.);
#672=FACE_BOUND('',#626,.T.);
#673=FACE_BOUND('',#627,.T.);
#674=FACE_BOUND('',#628,.T.);
#675=FACE_BOUND('',#629,.T.);
#676=FACE_BOUND('',#630,.T.);
#677=FACE_BOUND('',#631,.T.);
#678=FACE_BOUND('',#632,.T.);
#679=FACE_BOUND('',#633,.T.);
#680=FACE_BOUND('',#634,.T.);
#681=FACE_BOUND('',#635,.T.);
#682=FACE_BOUND('',#636,.T.);
#683=FACE_BOUND('',#637,.T.);
#684=FACE_BOUND('',#638,.T.);
#685=FACE_BOUND('',#639,.T.);
#686=FACE_BOUND('',#640,.T.);
#687=FACE_BOUND('',#641,.T.);
#688=PLANE('',#769);
#689=PLANE('',#770);
#690=PLANE('',#771);
#691=PLANE('',#772);
#692=PLANE('',#773);
#693=PLANE('',#774);
#694=PLANE('',#775);
#695=PLANE('',#776);
#696=PLANE('',#777);
#697=PLANE('',#778);
#698=PLANE('',#779);
#699=PLANE('',#784);
#700=PLANE('',#785);
#701=PLANE('',#786);
#702=PLANE('',#787);
#703=PLANE('',#788);
#704=PLANE('',#790);
#705=PLANE('',#791);
#706=PLANE('',#793);
#707=PLANE('',#794);
#708=PLANE('',#819);
#709=PLANE('',#820);
#710=PLANE('',#821);
#711=PLANE('',#822);
#712=PLANE('',#823);
#713=PLANE('',#824);
#714=PLANE('',#825);
#715=PLANE('',#826);
#716=ADVANCED_FACE('',(#642,#643,#644),#688,.T.);
#717=ADVANCED_FACE('',(#645,#646),#689,.F.);
#718=ADVANCED_FACE('',(#647),#690,.F.);
#719=ADVANCED_FACE('',(#648),#691,.T.);
#720=ADVANCED_FACE('',(#649),#692,.T.);
#721=ADVANCED_FACE('',(#650,#651),#693,.T.);
#722=ADVANCED_FACE('',(#652,#653),#694,.F.);
#723=ADVANCED_FACE('',(#654),#695,.F.);
#724=ADVANCED_FACE('',(#655),#696,.T.);
#725=ADVANCED_FACE('',(#656),#697,.F.);
#726=ADVANCED_FACE('',(#657,#658),#698,.T.);
#727=ADVANCED_FACE('',(#659),#699,.T.);
#728=ADVANCED_FACE('',(#660),#700,.F.);
#729=ADVANCED_FACE('',(#661),#701,.F.);
#730=ADVANCED_FACE('',(#662),#702,.T.);
#731=ADVANCED_FACE('',(#663),#703,.T.);
#732=ADVANCED_FACE('',(#664),#704,.F.);
#733=ADVANCED_FACE('',(#665),#705,.F.);
#734=ADVANCED_FACE('',(#666),#706,.T.);
#735=ADVANCED_FACE('',(#667),#707,.T.);
#736=ADVANCED_FACE('',(#668),#16,.T.);
#737=ADVANCED_FACE('',(#669),#17,.T.);
#738=ADVANCED_FACE('',(#670),#18,.T.);
#739=ADVANCED_FACE('',(#671),#19,.T.);
#740=ADVANCED_FACE('',(#672),#12,.T.);
#741=ADVANCED_FACE('',(#673),#20,.T.);
#742=ADVANCED_FACE('',(#674),#21,.T.);
#743=ADVANCED_FACE('',(#675),#13,.T.);
#744=ADVANCED_FACE('',(#676),#14,.T.);
#745=ADVANCED_FACE('',(#677),#22,.T.);
#746=ADVANCED_FACE('',(#678),#23,.T.);
#747=ADVANCED_FACE('',(#679),#15,.T.);
#748=ADVANCED_FACE('',(#680),#708,.T.);
#749=ADVANCED_FACE('',(#681),#709,.F.);
#750=ADVANCED_FACE('',(#682),#710,.F.);
#751=ADVANCED_FACE('',(#683),#711,.T.);
#752=ADVANCED_FACE('',(#684),#712,.T.);
#753=ADVANCED_FACE('',(#685),#713,.F.);
#754=ADVANCED_FACE('',(#686),#714,.F.);
#755=ADVANCED_FACE('',(#687),#715,.F.);
#756=CLOSED_SHELL('',(#716,#717,#718,#719,#720,#721,#722,#723,#724,#725,
#726,#727,#728,#729,#730,#731,#732,#733,#734,#735,#736,#737,#738,#739,#740,
#741,#742,#743,#744,#745,#746,#747,#748,#749,#750,#751,#752,#753,#754,#755));
#757=STYLED_ITEM('',(#758),#765);
#758=PRESENTATION_STYLE_ASSIGNMENT((#759));
#759=SURFACE_STYLE_USAGE(.BOTH.,#760);
#760=SURFACE_SIDE_STYLE('',(#761));
#761=SURFACE_STYLE_FILL_AREA(#762);
#762=FILL_AREA_STYLE('',(#763));
#763=FILL_AREA_STYLE_COLOUR('',#764);
#764=COLOUR_RGB('',0.615686274509804,0.811764705882353,0.929411764705882);
#765=MANIFOLD_SOLID_BREP('Part 1',#756);
#766=SHAPE_DEFINITION_REPRESENTATION(#1249,#767);
#767=SHAPE_REPRESENTATION('Part 1',(#768),#1244);
#768=AXIS2_PLACEMENT_3D('',#1032,#827,#828);
#769=AXIS2_PLACEMENT_3D('',#1033,#829,#830);
#770=AXIS2_PLACEMENT_3D('',#1058,#843,#844);
#771=AXIS2_PLACEMENT_3D('',#1079,#855,#856);
#772=AXIS2_PLACEMENT_3D('',#1093,#864,#865);
#773=AXIS2_PLACEMENT_3D('',#1102,#871,#872);
#774=AXIS2_PLACEMENT_3D('',#1119,#881,#882);
#775=AXIS2_PLACEMENT_3D('',#1131,#889,#890);
#776=AXIS2_PLACEMENT_3D('',#1148,#899,#900);
#777=AXIS2_PLACEMENT_3D('',#1150,#902,#903);
#778=AXIS2_PLACEMENT_3D('',#1159,#908,#909);
#779=AXIS2_PLACEMENT_3D('',#1168,#914,#915);
#780=AXIS2_PLACEMENT_3D('',#1169,#916,#917);
#781=AXIS2_PLACEMENT_3D('',#1170,#918,#919);
#782=AXIS2_PLACEMENT_3D('',#1171,#920,#921);
#783=AXIS2_PLACEMENT_3D('',#1172,#922,#923);
#784=AXIS2_PLACEMENT_3D('',#1173,#924,#925);
#785=AXIS2_PLACEMENT_3D('',#1176,#928,#929);
#786=AXIS2_PLACEMENT_3D('',#1178,#931,#932);
#787=AXIS2_PLACEMENT_3D('',#1180,#934,#935);
#788=AXIS2_PLACEMENT_3D('',#1181,#936,#937);
#789=AXIS2_PLACEMENT_3D('',#1185,#939,#940);
#790=AXIS2_PLACEMENT_3D('',#1188,#943,#944);
#791=AXIS2_PLACEMENT_3D('',#1190,#946,#947);
#792=AXIS2_PLACEMENT_3D('',#1191,#948,#949);
#793=AXIS2_PLACEMENT_3D('',#1196,#952,#953);
#794=AXIS2_PLACEMENT_3D('',#1199,#956,#957);
#795=AXIS2_PLACEMENT_3D('',#1200,#958,#959);
#796=AXIS2_PLACEMENT_3D('',#1201,#960,#961);
#797=AXIS2_PLACEMENT_3D('',#1202,#962,#963);
#798=AXIS2_PLACEMENT_3D('',#1203,#964,#965);
#799=AXIS2_PLACEMENT_3D('',#1204,#966,#967);
#800=AXIS2_PLACEMENT_3D('',#1205,#968,#969);
#801=AXIS2_PLACEMENT_3D('',#1206,#970,#971);
#802=AXIS2_PLACEMENT_3D('',#1207,#972,#973);
#803=AXIS2_PLACEMENT_3D('',#1208,#974,#975);
#804=AXIS2_PLACEMENT_3D('',#1209,#976,#977);
#805=AXIS2_PLACEMENT_3D('',#1210,#978,#979);
#806=AXIS2_PLACEMENT_3D('',#1211,#980,#981);
#807=AXIS2_PLACEMENT_3D('',#1212,#982,#983);
#808=AXIS2_PLACEMENT_3D('',#1213,#984,#985);
#809=AXIS2_PLACEMENT_3D('',#1216,#987,#988);
#810=AXIS2_PLACEMENT_3D('',#1217,#989,#990);
#811=AXIS2_PLACEMENT_3D('',#1218,#991,#992);
#812=AXIS2_PLACEMENT_3D('',#1219,#993,#994);
#813=AXIS2_PLACEMENT_3D('',#1220,#995,#996);
#814=AXIS2_PLACEMENT_3D('',#1221,#997,#998);
#815=AXIS2_PLACEMENT_3D('',#1222,#999,#1000);
#816=AXIS2_PLACEMENT_3D('',#1223,#1001,#1002);
#817=AXIS2_PLACEMENT_3D('',#1225,#1004,#1005);
#818=AXIS2_PLACEMENT_3D('',#1226,#1006,#1007);
#819=AXIS2_PLACEMENT_3D('',#1227,#1008,#1009);
#820=AXIS2_PLACEMENT_3D('',#1230,#1012,#1013);
#821=AXIS2_PLACEMENT_3D('',#1232,#1015,#1016);
#822=AXIS2_PLACEMENT_3D('',#1234,#1018,#1019);
#823=AXIS2_PLACEMENT_3D('',#1235,#1020,#1021);
#824=AXIS2_PLACEMENT_3D('',#1238,#1024,#1025);
#825=AXIS2_PLACEMENT_3D('',#1240,#1027,#1028);
#826=AXIS2_PLACEMENT_3D('',#1242,#1030,#1031);
#827=DIRECTION('',(0.,0.,1.));
#828=DIRECTION('',(1.,0.,0.));
#829=DIRECTION('',(0.,0.,1.));
#830=DIRECTION('',(6.12323399573677E-17,1.,0.));
#831=DIRECTION('',(6.12323399573677E-17,1.,0.));
#832=DIRECTION('',(1.,-6.12323399573677E-17,0.));
#833=DIRECTION('',(6.12323399573677E-17,1.,0.));
#834=DIRECTION('',(1.,-6.12323399573677E-17,0.));
#835=DIRECTION('',(-1.65211759616839E-16,-1.,0.));
#836=DIRECTION('',(-1.,3.30423519233678E-16,0.));
#837=DIRECTION('',(0.,-1.,0.));
#838=DIRECTION('',(-1.,4.13029399042097E-16,0.));
#839=DIRECTION('',(0.,1.,0.));
#840=DIRECTION('',(-1.,0.,0.));
#841=DIRECTION('',(-6.12323399573677E-17,-1.,0.));
#842=DIRECTION('',(-1.,-2.9730463151172E-18,0.));
#843=DIRECTION('',(0.,0.,1.));
#844=DIRECTION('',(6.12323399573677E-17,1.,0.));
#845=DIRECTION('',(6.12323399573677E-17,1.,0.));
#846=DIRECTION('',(1.,0.,0.));
#847=DIRECTION('',(0.,-1.,0.));
#848=DIRECTION('',(1.,2.97304631511719E-18,0.));
#849=DIRECTION('',(6.12323399573677E-17,1.,0.));
#850=DIRECTION('',(1.,-6.12323399573677E-17,0.));
#851=DIRECTION('',(1.,-3.30423519233678E-16,0.));
#852=DIRECTION('',(1.65211759616839E-16,1.,0.));
#853=DIRECTION('',(1.,-4.13029399042097E-16,0.));
#854=DIRECTION('',(0.,1.,0.));
#855=DIRECTION('',(-1.,6.12323399573677E-17,0.));
#856=DIRECTION('',(0.,0.,1.));
#857=DIRECTION('',(-6.12323399573677E-17,-1.,1.98254111540206E-16));
#858=DIRECTION('',(0.,0.,-1.));
#859=DIRECTION('',(-6.12323399573677E-17,-1.,1.98254111540206E-16));
#860=DIRECTION('',(0.,0.,-1.));
#861=DIRECTION('',(0.,0.,-1.));
#862=DIRECTION('',(6.12323399573677E-17,1.,0.));
#863=DIRECTION('',(0.,0.,-1.));
#864=DIRECTION('',(6.12323399573677E-17,1.,0.));
#865=DIRECTION('',(0.,0.,-1.));
#866=DIRECTION('',(0.,0.,1.));
#867=DIRECTION('',(-1.,6.12323399573677E-17,1.3684555315672E-48));
#868=DIRECTION('',(1.,-6.12323399573677E-17,0.));
#869=DIRECTION('',(0.,0.,-1.));
#870=DIRECTION('',(-1.,6.12323399573677E-17,1.3684555315672E-48));
#871=DIRECTION('',(-1.,6.12323399573677E-17,0.));
#872=DIRECTION('',(0.,0.,1.));
#873=DIRECTION('',(0.,0.,-1.));
#874=DIRECTION('',(6.12323399573677E-17,1.,0.));
#875=DIRECTION('',(0.,0.,-1.));
#876=DIRECTION('',(-6.12323399573677E-17,-1.,1.98254111540206E-16));
#877=DIRECTION('',(0.,0.,-1.));
#878=DIRECTION('',(-6.12323399573677E-17,-1.,1.98254111540206E-16));
#879=DIRECTION('',(0.,0.,-1.));
#880=DIRECTION('',(6.12323399573677E-17,1.,0.));
#881=DIRECTION('',(-1.,6.12323399573677E-17,0.));
#882=DIRECTION('',(0.,0.,1.));
#883=DIRECTION('',(6.12323399573677E-17,1.,0.));
#884=DIRECTION('',(0.,0.,-1.));
#885=DIRECTION('',(0.,0.,-1.));
#886=DIRECTION('',(6.12323399573677E-17,1.,2.31296463463574E-16));
#887=DIRECTION('',(0.,0.,-1.));
#888=DIRECTION('',(6.12323399573677E-17,1.,1.7347234759768E-16));
#889=DIRECTION('',(-1.,6.12323399573677E-17,0.));
#890=DIRECTION('',(0.,0.,1.));
#891=DIRECTION('',(0.,0.,-1.));
#892=DIRECTION('',(6.12323399573677E-17,1.,0.));
#893=DIRECTION('',(0.,0.,-1.));
#894=DIRECTION('',(6.12323399573677E-17,1.,0.));
#895=DIRECTION('',(-6.12323399573677E-17,-1.,-2.31296463463574E-16));
#896=DIRECTION('',(0.,0.,1.));
#897=DIRECTION('',(-6.12323399573677E-17,-1.,-1.7347234759768E-16));
#898=DIRECTION('',(0.,0.,1.));
#899=DIRECTION('',(6.12323399573677E-17,1.,0.));
#900=DIRECTION('',(0.,0.,-1.));
#901=DIRECTION('',(1.,-6.12323399573677E-17,0.));
#902=DIRECTION('',(-2.97304631511719E-18,1.,0.));
#903=DIRECTION('',(-1.,-2.97304631511719E-18,0.));
#904=DIRECTION('',(0.,0.,-1.));
#905=DIRECTION('',(1.,2.97304631511719E-18,0.));
#906=DIRECTION('',(0.,0.,-1.));
#907=DIRECTION('',(1.,2.97304631511719E-18,0.));
#908=DIRECTION('',(6.12323399573677E-17,1.,0.));
#909=DIRECTION('',(0.,0.,-1.));
#910=DIRECTION('',(0.,0.,-1.));
#911=DIRECTION('',(1.,-6.12323399573677E-17,0.));
#912=DIRECTION('',(0.,0.,-1.));
#913=DIRECTION('',(1.,-6.12323399573677E-17,0.));
#914=DIRECTION('',(0.,0.,1.));
#915=DIRECTION('',(6.12323399573677E-17,1.,0.));
#916=DIRECTION('',(0.,0.,1.));
#917=DIRECTION('',(1.,0.,0.));
#918=DIRECTION('',(0.,0.,1.));
#919=DIRECTION('',(1.,0.,0.));
#920=DIRECTION('',(0.,0.,1.));
#921=DIRECTION('',(1.,0.,0.));
#922=DIRECTION('',(0.,0.,1.));
#923=DIRECTION('',(1.,0.,0.));
#924=DIRECTION('',(1.41628236817385E-32,2.31296463463574E-16,-1.));
#925=DIRECTION('',(-6.12323399573677E-17,-1.,-2.31296463463574E-16));
#926=DIRECTION('',(1.,-6.12323399573677E-17,0.));
#927=DIRECTION('',(1.,-6.12323399573677E-17,0.));
#928=DIRECTION('',(-6.12323399573677E-17,-1.,0.));
#929=DIRECTION('',(0.,0.,1.));
#930=DIRECTION('',(1.,-6.12323399573677E-17,0.));
#931=DIRECTION('',(1.06221177613038E-32,1.7347234759768E-16,-1.));
#932=DIRECTION('',(-6.12323399573677E-17,-1.,-1.7347234759768E-16));
#933=DIRECTION('',(1.,-6.12323399573677E-17,0.));
#934=DIRECTION('',(-6.12323399573677E-17,-1.,0.));
#935=DIRECTION('',(0.,0.,1.));
#936=DIRECTION('',(-1.21395631557758E-32,-1.98254111540206E-16,-1.));
#937=DIRECTION('',(0.,1.,-1.98254111540206E-16));
#938=DIRECTION('',(-1.,6.12323399573677E-17,0.));
#939=DIRECTION('',(-1.21395631557758E-32,-1.98254111540206E-16,-1.));
#940=DIRECTION('',(0.,1.,-1.98254111540206E-16));
#941=DIRECTION('',(-1.,6.12323399573677E-17,0.));
#942=DIRECTION('',(-6.12323399573677E-17,-1.,1.98254111540206E-16));
#943=DIRECTION('',(6.12323399573677E-17,1.,0.));
#944=DIRECTION('',(-1.,6.12323399573677E-17,0.));
#945=DIRECTION('',(-1.,6.12323399573677E-17,0.));
#946=DIRECTION('',(-1.21395631557758E-32,-1.98254111540206E-16,-1.));
#947=DIRECTION('',(0.,1.,-1.98254111540206E-16));
#948=DIRECTION('',(-1.21395631557758E-32,-1.98254111540206E-16,-1.));
#949=DIRECTION('',(0.,1.,-1.98254111540206E-16));
#950=DIRECTION('',(-1.,6.12323399573677E-17,0.));
#951=DIRECTION('',(-6.12323399573677E-17,-1.,1.98254111540206E-16));
#952=DIRECTION('',(6.12323399573677E-17,1.,0.));
#953=DIRECTION('',(-1.,6.12323399573677E-17,0.));
#954=DIRECTION('',(0.,0.,1.));
#955=DIRECTION('',(0.,0.,-1.));
#956=DIRECTION('',(-1.,6.12323399573677E-17,0.));
#957=DIRECTION('',(-6.12323399573677E-17,-1.,0.));
#958=DIRECTION('',(0.,0.,1.));
#959=DIRECTION('',(1.,0.,0.));
#960=DIRECTION('',(0.,0.,1.));
#961=DIRECTION('',(1.,0.,0.));
#962=DIRECTION('',(0.,0.,-1.));
#963=DIRECTION('',(-1.,0.,0.));
#964=DIRECTION('',(0.,0.,-1.));
#965=DIRECTION('',(-1.,0.,0.));
#966=DIRECTION('',(0.,0.,1.));
#967=DIRECTION('',(1.,0.,0.));
#968=DIRECTION('',(0.,0.,1.));
#969=DIRECTION('',(1.,0.,0.));
#970=DIRECTION('',(0.,0.,-1.));
#971=DIRECTION('',(-1.,0.,0.));
#972=DIRECTION('',(0.,0.,-1.));
#973=DIRECTION('',(-1.,0.,0.));
#974=DIRECTION('',(0.,0.,1.));
#975=DIRECTION('',(1.,0.,0.));
#976=DIRECTION('',(-1.,0.,0.));
#977=DIRECTION('',(0.,0.,1.));
#978=DIRECTION('',(0.,-1.,0.));
#979=DIRECTION('',(0.,0.,-1.));
#980=DIRECTION('',(6.12323399573677E-17,1.,0.));
#981=DIRECTION('',(-1.,6.12323399573677E-17,0.));
#982=DIRECTION('',(0.,-1.,0.));
#983=DIRECTION('',(0.,0.,-1.));
#984=DIRECTION('',(-1.,-2.97304631511719E-18,0.));
#985=DIRECTION('',(2.97304631511719E-18,-1.,0.));
#986=DIRECTION('',(1.,2.97304631511719E-18,0.));
#987=DIRECTION('',(-1.,0.,0.));
#988=DIRECTION('',(0.,0.,1.));
#989=DIRECTION('',(0.,0.,1.));
#990=DIRECTION('',(1.,0.,0.));
#991=DIRECTION('',(-1.,0.,0.));
#992=DIRECTION('',(0.,0.,1.));
#993=DIRECTION('',(0.,0.,1.));
#994=DIRECTION('',(1.,0.,0.));
#995=DIRECTION('',(0.,-1.,0.));
#996=DIRECTION('',(0.,0.,-1.));
#997=DIRECTION('',(1.,-6.12323399573677E-17,0.));
#998=DIRECTION('',(6.12323399573677E-17,1.,0.));
#999=DIRECTION('',(-1.,0.,0.));
#1000=DIRECTION('',(0.,0.,1.));
#1001=DIRECTION('',(-6.12323399573677E-17,-1.,0.));
#1002=DIRECTION('',(1.,-6.12323399573677E-17,0.));
#1003=DIRECTION('',(6.12323399573677E-17,1.,0.));
#1004=DIRECTION('',(0.,-1.,0.));
#1005=DIRECTION('',(0.,0.,-1.));
#1006=DIRECTION('',(0.,0.,1.));
#1007=DIRECTION('',(1.,0.,0.));
#1008=DIRECTION('',(3.30423519233678E-16,1.,0.));
#1009=DIRECTION('',(-1.,3.30423519233678E-16,0.));
#1010=DIRECTION('',(0.,0.,-1.));
#1011=DIRECTION('',(0.,0.,-1.));
#1012=DIRECTION('',(-1.,0.,0.));
#1013=DIRECTION('',(0.,0.,1.));
#1014=DIRECTION('',(0.,0.,-1.));
#1015=DIRECTION('',(4.13029399042097E-16,1.,0.));
#1016=DIRECTION('',(-1.,4.13029399042097E-16,0.));
#1017=DIRECTION('',(0.,0.,-1.));
#1018=DIRECTION('',(-1.,1.65211759616839E-16,0.));
#1019=DIRECTION('',(-1.65211759616839E-16,-1.,0.));
#1020=DIRECTION('',(0.,1.,0.));
#1021=DIRECTION('',(0.,0.,1.));
#1022=DIRECTION('',(0.,0.,-1.));
#1023=DIRECTION('',(0.,0.,-1.));
#1024=DIRECTION('',(-1.,6.12323399573677E-17,0.));
#1025=DIRECTION('',(-6.12323399573677E-17,-1.,0.));
#1026=DIRECTION('',(0.,0.,-1.));
#1027=DIRECTION('',(-2.9730463151172E-18,1.,0.));
#1028=DIRECTION('',(-1.,-2.9730463151172E-18,0.));
#1029=DIRECTION('',(0.,0.,-1.));
#1030=DIRECTION('',(1.,0.,0.));
#1031=DIRECTION('',(0.,0.,-1.));
#1032=CARTESIAN_POINT('',(0.,0.,0.));
#1033=CARTESIAN_POINT('',(-0.0385,-0.037,0.003));
#1034=CARTESIAN_POINT('',(-1.00066173622127E-17,-0.0409346339181066,0.003));
#1035=CARTESIAN_POINT('',(-1.17251253991672E-17,-0.069,0.003));
#1036=CARTESIAN_POINT('',(-7.80625564189563E-18,-0.005,0.003));
#1037=CARTESIAN_POINT('',(-0.00259977136738599,-0.005,0.003));
#1038=CARTESIAN_POINT('',(-0.077,-0.005,0.003));
#1039=CARTESIAN_POINT('',(-0.077,-0.037,0.003));
#1040=CARTESIAN_POINT('',(-0.077,-0.069,0.003));
#1041=CARTESIAN_POINT('',(-0.0385,-0.069,0.003));
#1042=CARTESIAN_POINT('',(-0.0305,-0.037,0.003));
#1043=CARTESIAN_POINT('',(-0.0305,-0.0235,0.003));
#1044=CARTESIAN_POINT('',(-0.0305,-0.0655,0.003));
#1045=CARTESIAN_POINT('',(-0.0385,-0.0655,0.003));
#1046=CARTESIAN_POINT('',(-0.0725,-0.0655,0.003));
#1047=CARTESIAN_POINT('',(-0.0725,-0.037,0.003));
#1048=CARTESIAN_POINT('',(-0.0725,-0.0235,0.003));
#1049=CARTESIAN_POINT('',(-0.0385,-0.0235,0.003));
#1050=CARTESIAN_POINT('',(-0.0495,-0.037,0.003));
#1051=CARTESIAN_POINT('',(-0.0495,-0.0175,0.003));
#1052=CARTESIAN_POINT('',(-0.0495,-0.0075,0.003));
#1053=CARTESIAN_POINT('',(-0.0385,-0.0175,0.003));
#1054=CARTESIAN_POINT('',(-0.0745,-0.0175,0.003));
#1055=CARTESIAN_POINT('',(-0.0745,-0.037,0.003));
#1056=CARTESIAN_POINT('',(-0.0745,-0.0075,0.003));
#1057=CARTESIAN_POINT('',(-0.0385,-0.0075,0.003));
#1058=CARTESIAN_POINT('',(-0.0385,-0.037,0.));
#1059=CARTESIAN_POINT('',(-0.0745,-0.0075,0.));
#1060=CARTESIAN_POINT('',(-0.0745,-0.0665,0.));
#1061=CARTESIAN_POINT('',(-0.0745,-0.0175,0.));
#1062=CARTESIAN_POINT('',(-0.062,-0.0175,0.));
#1063=CARTESIAN_POINT('',(-0.0495,-0.0175,0.));
#1064=CARTESIAN_POINT('',(-0.0495,-0.0125,0.));
#1065=CARTESIAN_POINT('',(-0.0495,-0.0075,0.));
#1066=CARTESIAN_POINT('',(-0.0025,-0.0075,0.));
#1067=CARTESIAN_POINT('',(-0.0025,-0.0075,0.));
#1068=CARTESIAN_POINT('',(-0.0025,-0.037,0.));
#1069=CARTESIAN_POINT('',(-0.0025,-0.0665,0.));
#1070=CARTESIAN_POINT('',(-0.0385,-0.0665,0.));
#1071=CARTESIAN_POINT('',(-0.0515,-0.0655,0.));
#1072=CARTESIAN_POINT('',(-0.0725,-0.0655,0.));
#1073=CARTESIAN_POINT('',(-0.0305,-0.0655,0.));
#1074=CARTESIAN_POINT('',(-0.0305,-0.0445,0.));
#1075=CARTESIAN_POINT('',(-0.0305,-0.0235,0.));
#1076=CARTESIAN_POINT('',(-0.0515,-0.0235,0.));
#1077=CARTESIAN_POINT('',(-0.0725,-0.0235,0.));
#1078=CARTESIAN_POINT('',(-0.0725,-0.0445,0.));
#1079=CARTESIAN_POINT('',(-0.077,-0.037,0.025));
#1080=CARTESIAN_POINT('',(-0.077,-0.037,0.019));
#1081=CARTESIAN_POINT('',(-0.077,-0.0345,0.019));
#1082=CARTESIAN_POINT('',(-0.077,-0.069,0.019));
#1083=CARTESIAN_POINT('',(-0.077,-0.0345,0.025));
#1084=CARTESIAN_POINT('',(-0.077,-0.0345,0.014));
#1085=CARTESIAN_POINT('',(-0.077,-0.037,0.014));
#1086=CARTESIAN_POINT('',(-0.077,-0.069,0.014));
#1087=CARTESIAN_POINT('',(-0.077,-0.069,0.025));
#1088=CARTESIAN_POINT('',(-0.077,-0.005,0.025));
#1089=CARTESIAN_POINT('',(-0.077,-0.005,0.025));
#1090=CARTESIAN_POINT('',(-0.077,-0.037,0.025));
#1091=CARTESIAN_POINT('',(-0.077,-0.069,0.025));
#1092=CARTESIAN_POINT('',(-0.077,-0.069,0.025));
#1093=CARTESIAN_POINT('',(-0.0385,-0.069,0.025));
#1094=CARTESIAN_POINT('',(-0.0545,-0.069,0.025));
#1095=CARTESIAN_POINT('',(-0.0545,-0.069,0.014));
#1096=CARTESIAN_POINT('',(-0.0545,-0.069,0.019));
#1097=CARTESIAN_POINT('',(-0.0385,-0.069,0.019));
#1098=CARTESIAN_POINT('',(-0.0385,-0.069,0.025));
#1099=CARTESIAN_POINT('',(-1.17251253991672E-17,-0.069,0.025));
#1100=CARTESIAN_POINT('',(-1.17251253991672E-17,-0.069,0.025));
#1101=CARTESIAN_POINT('',(-0.0385,-0.069,0.014));
#1102=CARTESIAN_POINT('',(-0.0795,-0.037,0.025));
#1103=CARTESIAN_POINT('',(-0.0795,-0.0075,0.025));
#1104=CARTESIAN_POINT('',(-0.0795,-0.0075,0.025));
#1105=CARTESIAN_POINT('',(-0.0795,-0.0075,0.005));
#1106=CARTESIAN_POINT('',(-0.0795,-0.0665,0.005));
#1107=CARTESIAN_POINT('',(-0.0795,-0.0665,0.005));
#1108=CARTESIAN_POINT('',(-0.0795,-0.0665,0.025));
#1109=CARTESIAN_POINT('',(-0.0795,-0.0665,0.014));
#1110=CARTESIAN_POINT('',(-0.0795,-0.052,0.014));
#1111=CARTESIAN_POINT('',(-0.0795,-0.0345,0.014));
#1112=CARTESIAN_POINT('',(-0.0795,-0.0345,0.0165));
#1113=CARTESIAN_POINT('',(-0.0795,-0.0345,0.019));
#1114=CARTESIAN_POINT('',(-0.0795,-0.052,0.019));
#1115=CARTESIAN_POINT('',(-0.0795,-0.0665,0.019));
#1116=CARTESIAN_POINT('',(-0.0795,-0.0665,0.025));
#1117=CARTESIAN_POINT('',(-0.0795,-0.0665,0.025));
#1118=CARTESIAN_POINT('',(-0.0795,-0.037,0.025));
#1119=CARTESIAN_POINT('',(-1.00066173622127E-17,-0.0409346339181066,0.025));
#1120=CARTESIAN_POINT('',(-1.00066173622127E-17,-0.0409346339181066,0.025));
#1121=CARTESIAN_POINT('',(-7.80625564189563E-18,-0.005,0.025));
#1122=CARTESIAN_POINT('',(-7.80625564189563E-18,-0.005,0.025));
#1123=CARTESIAN_POINT('',(-1.03473977501264E-17,-0.0465,0.0145));
#1124=CARTESIAN_POINT('',(-1.03473977501264E-17,-0.0465,0.022));
#1125=CARTESIAN_POINT('',(-1.03473977501264E-17,-0.0465,0.007));
#1126=CARTESIAN_POINT('',(-1.08066402998066E-17,-0.054,0.022));
#1127=CARTESIAN_POINT('',(-1.12658828494869E-17,-0.0615,0.022));
#1128=CARTESIAN_POINT('',(-1.12658828494869E-17,-0.0615,0.0145));
#1129=CARTESIAN_POINT('',(-1.12658828494869E-17,-0.0615,0.007));
#1130=CARTESIAN_POINT('',(-1.08066402998066E-17,-0.054,0.007));
#1131=CARTESIAN_POINT('',(0.0025,-0.0421846339181065,0.025));
#1132=CARTESIAN_POINT('',(0.0025,-0.0665,0.025));
#1133=CARTESIAN_POINT('',(0.0025,-0.0665,0.025));
#1134=CARTESIAN_POINT('',(0.0025,-0.0665,0.005));
#1135=CARTESIAN_POINT('',(0.0025,-0.0421846339181065,0.005));
#1136=CARTESIAN_POINT('',(0.0025,-0.0075,0.005));
#1137=CARTESIAN_POINT('',(0.0025,-0.0075,0.025));
#1138=CARTESIAN_POINT('',(0.0025,-0.0075,0.025));
#1139=CARTESIAN_POINT('',(0.0025,-0.0421846339181065,0.025));
#1140=CARTESIAN_POINT('',(0.0025,-0.0421846339181065,0.022));
#1141=CARTESIAN_POINT('',(0.0025,-0.0465,0.022));
#1142=CARTESIAN_POINT('',(0.0025,-0.0615,0.022));
#1143=CARTESIAN_POINT('',(0.0025,-0.0465,0.025));
#1144=CARTESIAN_POINT('',(0.0025,-0.0465,0.007));
#1145=CARTESIAN_POINT('',(0.0025,-0.0421846339181065,0.007));
#1146=CARTESIAN_POINT('',(0.0025,-0.0615,0.007));
#1147=CARTESIAN_POINT('',(0.0025,-0.0615,0.025));
#1148=CARTESIAN_POINT('',(-0.041099771367386,-0.005,0.025));
#1149=CARTESIAN_POINT('',(-0.041099771367386,-0.005,0.025));
#1150=CARTESIAN_POINT('',(-0.042349771367386,-0.0025,0.025));
#1151=CARTESIAN_POINT('',(-0.0025,-0.0025,0.));
#1152=CARTESIAN_POINT('',(-0.0025,-0.0025,0.025));
#1153=CARTESIAN_POINT('',(-0.0025,-0.0025,0.005));
#1154=CARTESIAN_POINT('',(-0.0745,-0.0025,0.005));
#1155=CARTESIAN_POINT('',(-0.0745,-0.0025,0.005));
#1156=CARTESIAN_POINT('',(-0.0745,-0.0025,0.025));
#1157=CARTESIAN_POINT('',(-0.0745,-0.0025,0.025));
#1158=CARTESIAN_POINT('',(-0.042349771367386,-0.0025,0.025));
#1159=CARTESIAN_POINT('',(-0.0385,-0.0715,0.025));
#1160=CARTESIAN_POINT('',(-0.0745,-0.0715,0.));
#1161=CARTESIAN_POINT('',(-0.0745,-0.0715,0.025));
#1162=CARTESIAN_POINT('',(-0.0745,-0.0715,0.005));
#1163=CARTESIAN_POINT('',(-0.0385,-0.0715,0.005));
#1164=CARTESIAN_POINT('',(-0.0025,-0.0715,0.005));
#1165=CARTESIAN_POINT('',(-0.0025,-0.0715,0.025));
#1166=CARTESIAN_POINT('',(-0.0025,-0.0715,0.025));
#1167=CARTESIAN_POINT('',(-0.0385,-0.0715,0.025));
#1168=CARTESIAN_POINT('',(-0.0385,-0.037,0.025));
#1169=CARTESIAN_POINT('',(-0.0025,-0.0075,0.025));
#1170=CARTESIAN_POINT('',(-0.0745,-0.0075,0.025));
#1171=CARTESIAN_POINT('',(-0.0745,-0.0665,0.025));
#1172=CARTESIAN_POINT('',(-0.0025,-0.0665,0.025));
#1173=CARTESIAN_POINT('',(-1.08066402998066E-17,-0.054,0.022));
#1174=CARTESIAN_POINT('',(-1.12658828494869E-17,-0.0615,0.022));
#1175=CARTESIAN_POINT('',(-1.03473977501264E-17,-0.0465,0.022));
#1176=CARTESIAN_POINT('',(-1.12658828494869E-17,-0.0615,0.0145));
#1177=CARTESIAN_POINT('',(-1.12658828494869E-17,-0.0615,0.007));
#1178=CARTESIAN_POINT('',(-1.08066402998066E-17,-0.054,0.007));
#1179=CARTESIAN_POINT('',(-1.03473977501264E-17,-0.0465,0.007));
#1180=CARTESIAN_POINT('',(-1.03473977501264E-17,-0.0465,0.0145));
#1181=CARTESIAN_POINT('',(-0.0545,-0.052,0.019));
#1182=CARTESIAN_POINT('',(-0.0545,-0.0695,0.019));
#1183=CARTESIAN_POINT('',(-0.0545,-0.0695,0.019));
#1184=CARTESIAN_POINT('',(-0.0785,-0.0695,0.019));
#1185=CARTESIAN_POINT('',(-0.0745,-0.0665,0.019));
#1186=CARTESIAN_POINT('',(-0.0545,-0.0345,0.019));
#1187=CARTESIAN_POINT('',(-0.0545,-0.052,0.019));
#1188=CARTESIAN_POINT('',(-0.0545,-0.0345,0.0165));
#1189=CARTESIAN_POINT('',(-0.0545,-0.0345,0.014));
#1190=CARTESIAN_POINT('',(-0.0545,-0.052,0.014));
#1191=CARTESIAN_POINT('',(-0.0745,-0.0665,0.014));
#1192=CARTESIAN_POINT('',(-0.0785,-0.0695,0.014));
#1193=CARTESIAN_POINT('',(-0.0545,-0.0695,0.014));
#1194=CARTESIAN_POINT('',(-0.0545,-0.0695,0.014));
#1195=CARTESIAN_POINT('',(-0.0545,-0.052,0.014));
#1196=CARTESIAN_POINT('',(-0.0545,-0.0695,0.0165));
#1197=CARTESIAN_POINT('',(-0.0785,-0.0695,0.014));
#1198=CARTESIAN_POINT('',(-0.0545,-0.0695,0.0165));
#1199=CARTESIAN_POINT('',(-0.0545,-0.037,0.0125));
#1200=CARTESIAN_POINT('',(-0.0025,-0.0075,0.025));
#1201=CARTESIAN_POINT('',(-0.0025,-0.0075,0.005));
#1202=CARTESIAN_POINT('',(-0.0025,-0.0665,0.025));
#1203=CARTESIAN_POINT('',(-0.0025,-0.0665,0.005));
#1204=CARTESIAN_POINT('',(-0.0745,-0.0665,0.025));
#1205=CARTESIAN_POINT('',(-0.0745,-0.0665,0.005));
#1206=CARTESIAN_POINT('',(-0.0745,-0.0075,0.025));
#1207=CARTESIAN_POINT('',(-0.0745,-0.0075,0.005));
#1208=CARTESIAN_POINT('',(-0.0025,-0.0075,0.005));
#1209=CARTESIAN_POINT('',(-0.0025,-0.0075,0.005));
#1210=CARTESIAN_POINT('',(-0.0025,-0.0075,0.005));
#1211=CARTESIAN_POINT('',(-0.0025,-0.0421846339181065,0.005));
#1212=CARTESIAN_POINT('',(-0.0025,-0.0665,0.005));
#1213=CARTESIAN_POINT('',(-0.0385,-0.0075,0.005));
#1214=CARTESIAN_POINT('',(-0.0025,-0.0075,0.));
#1215=CARTESIAN_POINT('',(-0.0745,-0.0075,0.));
#1216=CARTESIAN_POINT('',(-0.0745,-0.0075,0.005));
#1217=CARTESIAN_POINT('',(-0.0025,-0.0665,0.005));
#1218=CARTESIAN_POINT('',(-0.0025,-0.0665,0.005));
#1219=CARTESIAN_POINT('',(-0.0745,-0.0075,0.005));
#1220=CARTESIAN_POINT('',(-0.0745,-0.0075,0.005));
#1221=CARTESIAN_POINT('',(-0.0385,-0.0665,0.005));
#1222=CARTESIAN_POINT('',(-0.0745,-0.0665,0.005));
#1223=CARTESIAN_POINT('',(-0.0745,-0.037,0.005));
#1224=CARTESIAN_POINT('',(-0.0745,-0.0075,0.));
#1225=CARTESIAN_POINT('',(-0.0745,-0.0665,0.005));
#1226=CARTESIAN_POINT('',(-0.0745,-0.0665,0.005));
#1227=CARTESIAN_POINT('',(-0.0515,-0.0655,0.025));
#1228=CARTESIAN_POINT('',(-0.0305,-0.0655,0.025));
#1229=CARTESIAN_POINT('',(-0.0725,-0.0655,0.025));
#1230=CARTESIAN_POINT('',(-0.0725,-0.0445,0.025));
#1231=CARTESIAN_POINT('',(-0.0725,-0.0235,0.025));
#1232=CARTESIAN_POINT('',(-0.0515,-0.0235,0.025));
#1233=CARTESIAN_POINT('',(-0.0305,-0.0235,0.025));
#1234=CARTESIAN_POINT('',(-0.0305,-0.0445,0.025));
#1235=CARTESIAN_POINT('',(-0.062,-0.0175,0.025));
#1236=CARTESIAN_POINT('',(-0.0495,-0.0175,0.025));
#1237=CARTESIAN_POINT('',(-0.0745,-0.0175,0.025));
#1238=CARTESIAN_POINT('',(-0.0745,-0.0075,0.025));
#1239=CARTESIAN_POINT('',(-0.0745,-0.0075,0.025));
#1240=CARTESIAN_POINT('',(-0.0025,-0.0075,0.025));
#1241=CARTESIAN_POINT('',(-0.0495,-0.0075,0.025));
#1242=CARTESIAN_POINT('',(-0.0495,-0.0125,0.025));
#1243=MECHANICAL_DESIGN_GEOMETRIC_PRESENTATION_REPRESENTATION('',(#757),
#1244);
#1244=(
GEOMETRIC_REPRESENTATION_CONTEXT(3)
GLOBAL_UNCERTAINTY_ASSIGNED_CONTEXT((#1245))
GLOBAL_UNIT_ASSIGNED_CONTEXT((#1248,#1247,#1246))
REPRESENTATION_CONTEXT('Part 1','TOP_LEVEL_ASSEMBLY_PART')
);
#1245=UNCERTAINTY_MEASURE_WITH_UNIT(LENGTH_MEASURE(1.E-8),#1248,
'DISTANCE_ACCURACY_VALUE','Maximum Tolerance applied to model');
#1246=(
NAMED_UNIT(*)
SI_UNIT($,.STERADIAN.)
SOLID_ANGLE_UNIT()
);
#1247=(
NAMED_UNIT(*)
PLANE_ANGLE_UNIT()
SI_UNIT($,.RADIAN.)
);
#1248=(
LENGTH_UNIT()
NAMED_UNIT(*)
SI_UNIT($,.METRE.)
);
#1249=PRODUCT_DEFINITION_SHAPE('','',#1250);
#1250=PRODUCT_DEFINITION('','',#1252,#1251);
#1251=PRODUCT_DEFINITION_CONTEXT('',#1258,'design');
#1252=PRODUCT_DEFINITION_FORMATION_WITH_SPECIFIED_SOURCE('','',#1254,
 .NOT_KNOWN.);
#1253=PRODUCT_RELATED_PRODUCT_CATEGORY('','',(#1254));
#1254=PRODUCT('Part 1','Part 1','Part 1',(#1256));
#1255=PRODUCT_CATEGORY('','');
#1256=PRODUCT_CONTEXT('',#1258,'mechanical');
#1257=APPLICATION_PROTOCOL_DEFINITION('international standard',
'ap242_managed_model_based_3d_engineering',2020,#1258);
#1258=APPLICATION_CONTEXT('managed model based 3d engineering');
ENDSEC;
END-ISO-10303-21;
